<svg width="108" height="169" viewBox="0 0 108 169" fill="none" xmlns="http://www.w3.org/2000/svg">
<path d="M14.0037 91C6.09542 93.9202 -8.63785 106.589 6.68805 136.478C22.014 166.367 18.867 118.828 14.0037 91Z" fill="#0F1F56"/>
<path d="M6.34514 116.415C6.96335 109.287 13.1569 92.6608 17.3777 85.1849L85.0777 80L88.8388 85.1849C92.7504 92.8054 97.0715 102.588 98.7431 106.527C100.415 110.466 102 116.983 102 122.543C102 129.397 99.9944 134.53 94.1044 141.422C88.2144 148.315 79.7704 149.252 74.672 151.383C67.4004 154.421 52.9829 155 43.7055 155C34.8652 155 26.9895 151.503 24.1477 150.056C20.6373 148.269 16.0459 143.658 12.4883 139.686C5.46755 131.849 5.59281 125.089 6.34514 116.415Z" fill="#4F6DB5"/>
<path d="M10.4657 58.7959C0.571932 72.1601 9.40035 82.6214 15.0513 86.1815C36.8676 103.708 79.9443 92.2064 89.1154 76.8704C96.4524 64.6016 88.9302 49.5761 84.2519 43.5969C103.076 27.0024 89.827 25.9078 84.2519 30.5887C93.0119 16.7411 80.9092 18.5197 76.1924 25.1116C80.9092 15.9202 79.2531 10.9103 76.1924 10.1864C73.8765 9.63871 69.1887 10.1864 66.4654 13.3358C63.6035 16.6454 55.7194 20.9581 51.7359 22.373C47.6599 23.2859 36.3951 26.5904 23.9445 32.5057C11.4939 38.421 9.77088 52.4972 10.4657 58.7959Z" fill="#4F6DB5"/>
<path d="M31.5148 63.4603C27.724 65.6175 27.5309 68.1537 28.4489 69.6121C28.3128 71.3314 31.158 72.1381 31.9096 72.3142C33.3752 72.6576 36.6224 72.8334 40.065 72.2811C43.5077 71.7287 45.0857 70.2643 45.4444 69.6012C45.95 67.5657 46.3323 65.3055 44.9126 63.4604C43.8003 62.0148 41.537 62.0148 38.6509 62.0147L38.6495 62.0147C36.0387 62.0147 34.0552 62.0147 31.5148 63.4603Z" fill="#AEC4D1"/>
<path d="M42.9797 67.6737C39.6588 69.1335 32.237 71.5755 29.1167 69.6642" stroke="#364C66" stroke-width="1.6" stroke-linecap="round"/>
<path d="M22.7214 58.6078C23.628 60.8621 22.2492 63.5367 19.6417 64.5817C17.0341 65.6267 14.1853 64.6464 13.2786 62.3922C12.372 60.1379 13.7508 57.4633 16.3583 56.4183C18.9659 55.3733 21.8147 56.3536 22.7214 58.6078Z" fill="#562528"/>
<path d="M20.7127 59.0119C20.7127 59.5948 20.258 60.0674 19.6973 60.0674C19.1365 60.0674 18.6818 59.5948 18.6818 59.0119C18.6818 58.429 19.1365 57.9564 19.6973 57.9564C20.258 57.9564 20.7127 58.429 20.7127 59.0119Z" fill="white"/>
<path d="M58.3998 57.774C57.3196 60.246 58.5035 63.2465 61.0441 64.4759C63.5847 65.7053 66.5199 64.698 67.6002 62.226C68.6804 59.754 67.4965 56.7535 64.9559 55.5241C62.4153 54.2947 59.4801 55.302 58.3998 57.774Z" fill="#562528"/>
<path d="M65.3272 58.512C65.3272 59.1182 64.8812 59.6097 64.3311 59.6097C63.7809 59.6097 63.3349 59.1182 63.3349 58.512C63.3349 57.9057 63.7809 57.4143 64.3311 57.4143C64.8812 57.4143 65.3272 57.9057 65.3272 58.512Z" fill="white"/>
<path d="M33.8272 89.3664C27.3216 92.3802 23.7755 91.0962 21.3279 88.0852C19.3706 89.2012 16.6047 87.9611 15.4664 87.2015C20.0678 102.412 76.5632 98.066 85.6383 80.2994C79.7075 86.9459 70.8958 86.4027 67.2312 85.3003C62.7703 92.5445 53.1147 90.0738 48.8445 87.933C44.4198 94.1863 36.9893 91.4941 33.8272 89.3664Z" fill="#0F1F56"/>
<path d="M78.9424 150C48.0349 116.65 61.8014 97.4807 72.4808 92L85 148.188L78.9424 150Z" fill="#0F1F56"/>
<path d="M63.3038 109.107C67.4559 84.0995 81.9016 90.3342 88.6055 96.5775C91.5182 99.29 95.742 103.553 100.024 109.753C101.757 112.262 107.212 117.968 107.939 126.545C108.665 135.122 102.749 135.458 100.024 134.295C104.591 145.352 99.5047 146.567 96.3906 145.792C97.7401 152.095 94.4443 154.575 92.2386 154.963C90.0328 155.35 83.2336 152.87 73.684 139.85C64.1343 126.829 62.1244 116.211 63.3038 109.107Z" fill="#4F6DB5"/>
<path d="M16.2974 153.346C10.9407 161.674 17.8832 160.142 21.6122 157.713C21.7319 160.369 24.0641 161.014 25.2152 161.005C29.6917 160.969 39.3735 148.675 32.2435 146.614C25.2432 144.591 21.6542 145.019 16.2974 153.346Z" fill="#570139"/>
<path d="M47.4805 155.521C42.1238 163.849 49.0663 162.316 52.7953 159.888C52.915 162.544 55.2472 163.189 56.3983 163.18C60.8748 163.144 70.5566 150.85 63.4266 148.789C56.4263 146.766 52.8373 147.194 47.4805 155.521Z" fill="#570139"/>
<path d="M24.0477 14.085C23.0143 18.4202 23.8451 35.4521 23.8451 35.4521L71.0166 35.8993C71.0166 35.8993 71.536 21.3734 70.5174 16.0927C69.4987 10.812 69.3582 9.52854 65.5053 5.28944C61.6523 1.05035 53.0332 0.327543 47.0032 0.270379C40.9732 0.213215 35.2408 0.977945 30.1648 4.95436C25.0889 8.93077 24.534 12.0449 24.0477 14.085Z" fill="#F3C66D"/>
<path fill-rule="evenodd" clip-rule="evenodd" d="M33.8023 31.9138C33.8023 31.9138 33.8379 24.2104 33.8962 22.0137C33.9097 21.5045 33.9197 21.0114 33.9296 20.5299L33.9296 20.5299L33.9296 20.5299L33.9296 20.5298L33.9296 20.5298C33.9858 17.775 34.0343 15.3999 34.673 12.5475C35.2201 10.1038 35.909 8.4858 36.7721 6.4586L36.7721 6.45852L36.7722 6.45824L36.7723 6.45813C37.0008 5.9214 37.2415 5.35598 37.4951 4.73896C37.7545 4.10764 38.016 3.28641 38.2762 2.46931L38.2762 2.46928C38.4405 1.95356 38.6042 1.4395 38.7665 0.975873C39.0908 0.905205 39.4166 0.840878 39.7438 0.782447C39.3765 2.20847 38.8679 4.17957 38.4786 5.67427C38.2037 6.72959 37.9374 7.61197 37.6851 8.44767L37.685 8.4478L37.685 8.4479L37.685 8.44794L37.685 8.44798C37.2338 9.94253 36.8276 11.2878 36.4988 13.2059C36.0318 15.9293 35.9892 17.7298 35.9329 20.1029L35.9329 20.103L35.9329 20.103C35.9187 20.7017 35.9037 21.3369 35.8807 22.0325C35.8083 24.2288 35.7869 31.9326 35.7869 31.9326L33.8023 31.9138ZM43.3779 0.356821C43.4636 1.60109 43.5756 3.42774 43.6014 4.79686C43.6228 5.93328 43.6056 6.74598 43.5863 7.65491L43.5863 7.65497L43.5863 7.65503L43.5863 7.65509L43.5863 7.65514L43.5863 7.65518C43.5758 8.14759 43.5647 8.66825 43.5589 9.28393L43.4799 17.6171C43.3347 19.5152 43.0381 23.9524 43.0381 23.9524C43.0381 23.9524 41.945 31.896 41.7284 33.2711L43.7102 33.5748C43.7102 33.5748 44.7518 25.9485 44.87 23.9697C44.9658 22.3667 44.9527 21.2179 44.9381 19.933C44.9302 19.2369 44.9219 18.5008 44.9301 17.6308C44.941 16.4873 44.9767 15.5199 45.0104 14.6049L45.0104 14.6048L45.0104 14.6048L45.0104 14.6047L45.0104 14.6046L45.0104 14.6046C45.0728 12.9157 45.1285 11.4057 45.0091 9.29769C44.9096 7.53968 44.8065 6.55562 44.5937 4.80626C44.425 3.41903 44.1179 1.57153 43.9014 0.327035C43.7266 0.335865 43.5521 0.345773 43.3779 0.356821ZM48.1709 0.289912C48.6807 1.52914 49.4268 3.41689 49.8604 4.8562C50.5106 7.01409 50.7457 8.28765 51.1434 10.4419L51.1797 10.6383C51.5665 12.7325 51.7177 14.0306 51.941 15.9471L51.941 15.9471C51.9716 16.2093 52.0035 16.4832 52.0375 16.7722C52.0976 17.2827 52.1552 17.7488 52.2094 18.1882L52.2094 18.1886C52.4296 19.9734 52.5955 21.318 52.6617 23.4025C52.7164 25.1264 52.7961 33.376 52.7961 33.376L54.5578 32.7516C54.5648 32.0146 54.5262 30.0503 54.4875 28.0859L54.4875 28.0854L54.4875 28.0854L54.4875 28.0853L54.4875 28.0852C54.4489 26.1207 54.4103 24.1562 54.4173 23.4192C54.4173 23.4192 54.0223 19.3683 53.6404 16.7874C53.2637 14.2411 53.0013 12.8189 52.4806 10.2945C52.3587 9.7031 52.263 9.18076 52.1731 8.69045C51.9398 7.41678 51.746 6.35935 51.2344 4.86923C50.7331 3.40944 49.7859 1.54917 49.1226 0.318983C48.8007 0.307004 48.4832 0.297429 48.1709 0.289912ZM54.3547 0.74731C55.1176 1.82232 56.4842 3.81569 57.2603 5.35374C58.2775 7.36941 58.6662 8.58061 59.3469 10.7158C60.3042 13.7186 60.74 15.4541 61.1045 18.5677C61.338 20.562 62.061 30.4009 62.061 30.4009L64.1239 30.2068C64.1239 30.2068 63.2137 20.0142 62.8675 17.8009L62.8306 17.565C62.3355 14.3968 62.04 12.5066 60.8093 9.4475C59.9562 7.32697 59.3906 6.14714 58.1107 4.22213C57.3903 3.13854 56.2504 1.79365 55.4749 0.913898C55.1026 0.853083 54.7288 0.797702 54.3547 0.74731ZM61.6639 2.64659C62.2634 3.57361 63.0744 4.87792 63.5909 5.91238C64.9971 8.7283 65.4742 10.4543 66.1909 13.4874C66.5254 14.9033 66.6646 15.8914 66.8309 17.0722C66.8975 17.5453 66.9685 18.0493 67.0582 18.6242C67.1942 19.4964 67.3304 20.2583 67.4582 20.9736C67.7784 22.765 68.0463 24.264 68.1288 26.4696C68.184 27.943 68.0931 30.2445 68.0931 30.2445L69.7703 30.474L69.8081 26.4855C69.8081 26.4855 68.9486 20.5178 68.5159 17.8545L68.5105 17.8216L68.5105 17.8215C68.0826 15.1877 68.0157 14.7761 67.4945 12.8587C67.443 12.669 67.393 12.4843 67.3443 12.3041C66.6253 9.64573 66.1659 7.94688 64.6643 5.42394C64.3155 4.83795 63.8408 4.16715 63.3746 3.54691C62.8403 3.215 62.2674 2.91594 61.6639 2.64659ZM34.6396 2.28917C34.0365 3.35837 33.3705 4.59612 32.9066 5.62144C31.6199 8.46499 30.9817 10.1231 30.3161 13.1472C29.8597 15.2211 29.8102 16.7741 29.7565 18.4565C29.7226 19.5216 29.6869 20.6386 29.5454 21.9724C29.3388 23.9195 28.9517 28.235 28.9517 28.235L27.7304 28.2235C27.7304 28.2235 28.0543 23.9058 28.2478 21.9601C28.3705 20.7264 28.4085 19.6773 28.4445 18.6838C28.509 16.9029 28.567 15.3009 29.0948 13.1357C29.8369 10.0914 30.4689 8.39238 31.9906 5.61275C32.5064 4.67047 33.2433 3.58118 33.9504 2.60268C34.1791 2.49346 34.4089 2.38902 34.6396 2.28917Z" fill="#E2AE4A"/>
<path fill-rule="evenodd" clip-rule="evenodd" d="M23.5421 25.2293C26.5927 25.8666 31.3865 26.7686 34.9862 26.9825C36.1505 27.0517 37.2431 27.1374 38.2858 27.2192C43.3308 27.615 47.2078 27.9192 52.379 25.8154C56.6453 24.0798 59.3751 22.7966 61.9307 19.1676C63.9114 16.3549 64.2026 15.4113 64.2196 12.0437C64.2299 10.0001 63.5748 8.73119 62.7434 7.12078C62.5242 6.69608 62.2926 6.24761 62.0578 5.75492C61.2898 4.14349 59.7708 2.68474 57.9777 1.4183C54.3441 0.530378 50.2889 0.301532 47.0027 0.270379C40.9727 0.213215 35.2403 0.977945 30.1644 4.95436C25.2954 8.76867 24.5863 11.7896 24.1073 13.8302C24.087 13.9169 24.0671 14.0018 24.0472 14.085C23.572 16.0786 23.491 20.7569 23.5421 25.2293Z" fill="#F7D674"/>
<path fill-rule="evenodd" clip-rule="evenodd" d="M44.5447 27.4885C43.8882 27.5096 43.2301 27.5068 42.5628 27.4872C42.7806 25.9386 43.0378 23.9529 43.0378 23.9529C43.0378 23.9529 43.3344 19.5157 43.4796 17.6176L43.5586 9.28444C43.5644 8.66873 43.5755 8.14806 43.586 7.65564L43.586 7.65559L43.586 7.65553L43.586 7.65547L43.586 7.65542C43.6053 6.74648 43.6226 5.93378 43.6011 4.79736C43.5753 3.42778 43.4632 1.60035 43.3776 0.356061C43.5517 0.345015 43.7261 0.335108 43.9009 0.326279C44.1174 1.57078 44.4246 3.41907 44.5934 4.80677C44.8062 6.55612 44.9093 7.54018 45.0089 9.29819C45.1282 11.4062 45.0725 12.9162 45.0102 14.6051L45.0102 14.6051L45.0102 14.6052L45.0102 14.6053L45.0102 14.6053C44.9764 15.5203 44.9407 16.4878 44.9298 17.6313C44.9216 18.5013 44.93 19.2374 44.9379 19.9335C44.9524 21.2184 44.9655 22.3672 44.8697 23.9702C44.8057 25.0426 44.6625 26.4365 44.5447 27.4885ZM54.4023 24.9669C53.8538 25.2076 53.2779 25.4479 52.6704 25.6963C52.681 24.9328 52.6832 24.0908 52.6614 23.403C52.5952 21.3185 52.4293 19.9739 52.2091 18.1892L52.2091 18.1891C52.1549 17.7496 52.0974 17.2833 52.0372 16.7727C52.0032 16.4837 51.9713 16.2098 51.9407 15.9475L51.9407 15.9475C51.7174 14.0311 51.5662 12.733 51.1794 10.6388L51.1431 10.4424C50.7454 8.28813 50.5103 7.01458 49.8601 4.8567C49.4263 3.4169 48.6799 1.52834 48.1701 0.289127C48.4823 0.29664 48.7998 0.306212 49.1216 0.318185C49.7849 1.54836 50.7327 3.40942 51.2341 4.86973C51.7457 6.35985 51.9395 7.41728 52.1728 8.69096C52.2627 9.18126 52.3584 9.70361 52.4803 10.295C53.001 12.8194 53.2634 14.2416 53.6402 16.7879C54.0221 19.3688 54.417 23.4197 54.417 23.4197L54.4023 24.9669ZM62.8632 17.7755C62.604 18.1938 62.2963 18.6487 61.9313 19.1671C61.7011 19.494 61.4695 19.8019 61.2354 20.0927C61.2015 19.5586 61.1586 19.0325 61.1042 18.5682C60.7397 15.4546 60.304 13.7191 59.3466 10.7163C58.6659 8.58112 58.2772 7.36992 57.26 5.35424C56.4835 3.81552 55.1161 1.82108 54.3534 0.746397C54.7274 0.796765 55.1011 0.852119 55.4733 0.912904C56.2488 1.79262 57.3896 3.13843 58.1105 4.22263C59.3903 6.14764 59.9559 7.32747 60.809 9.448C62.0397 12.5071 62.3352 14.3973 62.8303 17.5655L62.8632 17.7755ZM39.7439 0.781628C39.3765 2.20776 38.8677 4.17961 38.4783 5.67477C38.2034 6.7302 37.937 7.61265 37.6847 8.44842L37.6847 8.44844L37.6847 8.44848L37.6847 8.44849C37.2335 9.94304 36.8274 11.2883 36.4985 13.2064C36.0315 15.9298 35.9889 17.7303 35.9326 20.1034L35.9326 20.1035L35.9326 20.1035C35.9184 20.7022 35.9034 21.3374 35.8804 22.033C35.827 23.6529 35.8234 25.9441 35.8252 27.0352C35.5498 27.0167 35.2704 26.9988 34.9869 26.982C34.6171 26.96 34.2347 26.9308 33.843 26.8953C33.845 25.763 33.8545 23.5767 33.8959 22.0142C33.9094 21.505 33.9195 21.0119 33.9293 20.5304L33.9293 20.5304L33.9293 20.5304L33.9293 20.5303L33.9293 20.5303C33.9855 17.7755 34.034 15.4004 34.6727 12.548C35.2198 10.1043 35.9087 8.4863 36.7718 6.4591C37.0004 5.92223 37.2412 5.35666 37.4948 4.73946C37.7542 4.10814 38.0157 3.28691 38.2759 2.46981L38.276 2.46978C38.4403 1.95356 38.6042 1.43899 38.7667 0.975013C39.0909 0.904361 39.4167 0.840047 39.7439 0.781628ZM33.9515 2.60129C34.1801 2.49216 34.4097 2.3878 34.6403 2.28803C34.0369 3.3576 33.3704 4.5961 32.9063 5.62194C31.6196 8.46549 30.9814 10.1236 30.3158 13.1477C29.8594 15.2216 29.8099 16.7746 29.7562 18.457C29.7223 19.5221 29.6867 20.6391 29.5451 21.9729C29.3997 23.3434 29.1709 25.2521 29.0481 26.2624C28.6392 26.1955 28.2332 26.1264 27.833 26.0562C27.94 25.0092 28.1196 23.2468 28.2475 21.9606C28.3702 20.7269 28.4082 19.6778 28.4442 18.6843C28.5087 16.9034 28.5668 15.3014 29.0946 13.1362C29.8366 10.0919 30.4686 8.39288 31.9903 5.61326C32.5065 4.67036 33.2439 3.58027 33.9515 2.60129Z" fill="#F3C66D"/>
<path d="M19.0952 29.1393C19.6862 27.9807 20.3799 27.4984 21.7093 27.1696C23.9282 26.6208 23.8366 26.9713 25.8916 27.2093C29.2762 27.6012 30.958 28.7358 34.2087 29.7014C36.5993 30.4115 38.374 30.5912 40.8328 31.0549C45.1649 31.8717 46.5072 31.901 50.9049 31.5065C54.6455 31.171 57.0183 30.5272 60.7642 30.2466C63.9602 30.0073 67.2168 29.2448 70.3081 30.0437C72.0852 30.5029 72.2263 30.7072 73.6291 31.8248C75.0627 32.9668 75.2364 34.3911 75.4979 36.5341L75.5126 36.6547C75.798 38.9894 74.9812 40.8464 73.5254 42.7616C72.0066 44.7598 70.876 44.5577 68.4816 45.563C64.9819 47.0324 61.2235 46.7131 57.399 47.025C51.9163 47.4721 50.4501 47.2453 44.9573 46.907C39.3535 46.5619 36.9743 46.5336 31.5382 45.2127C27.247 44.17 28.2621 44.5406 23.2426 42.5698C21.7944 42.0012 19.2447 40.4102 18.696 39.0364C17.9638 37.2033 18.1138 36.0292 18.1324 34.0738C18.1491 32.3069 18.2817 30.7339 19.0952 29.1393Z" fill="#F3C66D"/>
<path fill-rule="evenodd" clip-rule="evenodd" d="M26.1431 43.7022C25.763 43.5577 25.3192 43.385 24.7779 43.1729L24.0322 39.8704L24.0707 35.8106L24.9583 30.7617L26.9746 27.433L27.3269 27.4364C27.6183 27.4954 27.8979 27.5604 28.1688 27.6304L26.2532 31.0589L25.2156 35.8215L25.1765 39.9524L26.1431 43.7022ZM34.2627 45.82C33.7782 45.7236 33.2718 45.6158 32.736 45.4945L31.886 40.7996L31.9448 34.6031L32.9336 29.2912C33.3314 29.4287 33.7505 29.5655 34.1996 29.6991L33.2451 34.3306L33.3363 40.8133L34.2627 45.82ZM42.4784 46.7589C41.9657 46.728 41.4791 46.6978 41.0104 46.6663L40.4241 42.0202L40.4781 36.3223L41.1883 31.1218C41.7134 31.2192 42.1938 31.3042 42.6415 31.3776L42.0081 35.9807L41.9541 41.6786L42.4784 46.7589ZM52.4059 47.2743C52.0208 47.2756 51.6465 47.2717 51.2729 47.2632L52.0261 42.1302L52.0619 38.3554L51.3081 31.4692C51.618 31.4389 51.9188 31.4065 52.212 31.3724L53.4507 36.8015L53.4075 41.3598L52.4059 47.2743ZM62.4726 46.7694C61.8964 46.8051 61.3166 46.8301 60.7338 46.8532L61.7963 42.2229L62.4576 36.8869L60.6926 30.2526C60.7166 30.2508 60.7406 30.2489 60.7646 30.2471C61.2305 30.2122 61.6976 30.1662 62.1654 30.1156C62.6889 31.3534 63.8658 34.3509 63.9875 36.5452C64.0666 37.9703 63.902 38.9306 63.7 40.1084C63.6293 40.5209 63.554 40.9601 63.483 41.4553C63.2308 43.2138 62.7044 45.7039 62.4726 46.7694ZM70.518 44.8339C70.419 44.8669 70.3177 44.9002 70.2137 44.9343C69.7879 45.0741 69.3179 45.2284 68.7828 45.4407C68.9125 44.6397 69.0822 43.4739 69.1205 42.6485C69.1845 41.272 69.1664 37.8053 69.1664 37.8053C69.1664 37.8053 68.8305 35.6652 68.7355 34.952C68.6405 34.2388 67.0265 30.0209 67.0265 30.0209L68.0095 29.7075C68.1412 29.7141 68.2728 29.7226 68.4041 29.733C68.7163 30.2606 69.9055 32.3212 70.3492 33.8276C70.7244 35.1015 70.7936 35.8883 70.9035 37.1389L70.9261 37.3946C71.0959 39.3075 71.0538 40.3968 70.8795 42.309C70.8097 43.0741 70.6575 44.038 70.518 44.8339Z" fill="#E2AE4A"/>
<path fill-rule="evenodd" clip-rule="evenodd" d="M21.7091 27.1694C20.3797 27.4982 19.686 27.9805 19.095 29.1391C18.2815 30.7337 18.1489 32.3067 18.1322 34.0737C18.1295 34.3496 18.1243 34.61 18.1193 34.8589C18.0889 36.3736 18.067 37.4618 18.6958 39.0362C19.2445 40.41 21.7942 42.001 23.2425 42.5696C25.9544 43.6344 26.9048 44.0157 27.8823 44.3058C28.714 44.5525 29.5653 44.7332 31.538 45.2125C36.422 46.3993 38.8384 46.5426 43.3428 46.8098C43.852 46.84 44.3879 46.8718 44.9571 46.9068C45.7239 46.9541 46.4122 46.9991 47.0439 47.0405C50.4416 47.2629 52.2024 47.3781 55.7305 47.1482C57.7985 46.1608 59.852 44.8469 60.9465 43.2117C61.1345 42.9308 61.3228 42.6627 61.5055 42.4025C62.5547 40.9081 63.4192 39.6769 62.9824 37.8175C62.7006 36.6178 62.1234 35.9942 61.3219 35.1283C61.2265 35.0252 61.1279 34.9187 61.0262 34.8073C59.1949 32.8015 54.8766 31.2587 54.8766 31.2587L54.1496 31.1139C53.1476 31.2615 52.0955 31.3995 50.9047 31.5063C46.507 31.9008 45.1647 31.8716 40.8326 31.0547C40.137 30.9235 39.4961 30.8151 38.8805 30.7109C37.3203 30.4469 35.9228 30.2104 34.2085 29.7012C33.0537 29.3582 32.0969 28.9938 31.1914 28.649C29.548 28.0232 28.0737 27.4618 25.8914 27.2091C25.6768 27.1842 25.4856 27.1582 25.3128 27.132L21.9957 27.1006C21.9046 27.1217 21.8092 27.1447 21.7091 27.1694Z" fill="#F7D674"/>
<path fill-rule="evenodd" clip-rule="evenodd" d="M27.3316 27.4366L26.974 27.4332C26.974 27.4332 25.5278 29.3664 24.9577 30.7619C24.3197 32.3237 24.2431 33.4118 24.1388 34.8926C24.1184 35.1816 24.097 35.4855 24.0702 35.8108L24.0558 35.984C23.9337 37.4593 23.8598 38.3521 24.0317 39.8705C24.1572 40.9791 24.5799 42.5389 24.7577 43.1644C25.297 43.3757 25.74 43.5481 26.1197 43.6926C25.9006 43.0296 25.3328 41.2316 25.1759 39.9526C24.9794 38.3495 25.0479 37.4272 25.2151 35.8216C25.4119 33.9323 25.5498 32.8397 26.2526 31.0591C26.739 29.8268 27.7971 28.1682 28.1525 27.6255C27.8881 27.5574 27.6155 27.4942 27.3316 27.4366ZM32.9192 29.2855C32.7152 30.1633 32.1278 32.7824 31.9442 34.6033C31.7014 37.0123 31.6619 38.3885 31.8855 40.7997C32.0286 42.3431 32.4886 44.5062 32.7088 45.4876C33.2461 45.6094 33.7536 45.7177 34.2392 45.8146C34.0127 44.8077 33.5104 42.471 33.3357 40.8135C33.0702 38.2934 32.9732 36.8495 33.2445 34.3307C33.4118 32.7782 33.9475 30.5897 34.1778 29.6919C33.7316 29.5588 33.3149 29.4225 32.9192 29.2855ZM41.1806 31.1196C41.0523 31.8677 40.6116 34.5151 40.4776 36.3225C40.3129 38.5422 40.286 39.7986 40.4235 42.0204C40.5189 43.5609 40.8504 45.7553 40.9946 46.6644C41.4646 46.6961 41.9528 46.7264 42.467 46.7574C42.3486 45.8619 42.0357 43.39 41.9535 41.6787C41.8467 39.4555 41.8328 38.1999 42.0075 35.9808C42.1341 34.3727 42.5274 32.0096 42.6356 31.3759C42.1874 31.3023 41.7064 31.2171 41.1806 31.1196ZM51.3154 31.4676C51.4426 32.2922 51.984 35.9143 52.0614 38.3555C52.1081 39.8292 52.1157 40.6586 52.0256 42.1304C51.9255 43.7637 51.5481 45.9962 51.3157 47.2633C51.6879 47.2714 52.0613 47.275 52.4457 47.2733C52.7257 45.9705 53.2655 43.2881 53.407 41.3599L53.4115 41.2984C53.539 39.5605 53.6127 38.5548 53.4502 36.8016C53.2777 34.9414 52.521 32.3073 52.2382 31.3685C51.9389 31.4034 51.6319 31.4366 51.3154 31.4676ZM62.4293 36.4734C62.4421 36.614 62.4514 36.7521 62.457 36.887C62.5229 38.4793 62.3142 39.5364 62.0528 40.8599L62.0528 40.8599L62.0528 40.86L62.0528 40.8601C61.988 41.1881 61.9201 41.5323 61.8522 41.9052C62.7334 40.622 63.3701 39.4669 62.9826 37.8173C62.8558 37.2776 62.6692 36.8544 62.4293 36.4734Z" fill="#F3C66D"/>
</svg>
