<svg width="108" height="167" viewBox="0 0 108 167" fill="none" xmlns="http://www.w3.org/2000/svg">
<path d="M14.0037 89C6.09542 91.9202 -8.63785 104.589 6.68805 134.478C22.014 164.367 18.867 116.828 14.0037 89Z" fill="#EBD38F"/>
<path d="M6.34514 114.415C6.96335 107.287 13.1569 90.6608 17.3777 83.1849L85.0777 78L88.8388 83.1849C92.7504 90.8054 97.0715 100.588 98.7431 104.527C100.415 108.466 102 114.983 102 120.543C102 127.397 99.9944 132.53 94.1044 139.422C88.2144 146.315 79.7704 147.252 74.672 149.383C67.4004 152.421 52.9829 153 43.7055 153C34.8652 153 26.9895 149.503 24.1477 148.056C20.6373 146.269 16.0459 141.658 12.4883 137.686C5.46755 129.849 5.59281 123.089 6.34514 114.415Z" fill="#F7DE98"/>
<path d="M10.4657 56.7959C0.571932 70.1601 9.40035 80.6214 15.0513 84.1815C36.8676 101.708 79.9443 90.2064 89.1154 74.8704C96.4524 62.6016 88.9302 47.5761 84.2519 41.5969C103.076 25.0024 89.827 23.9078 84.2519 28.5887C93.0119 14.7411 80.9092 16.5197 76.1924 23.1116C80.9092 13.9202 79.2531 8.91025 76.1924 8.18642C73.8765 7.63871 69.1887 8.18642 66.4654 11.3358C63.6035 14.6454 55.7194 18.9581 51.7359 20.373C47.6599 21.2859 36.3951 24.5904 23.9445 30.5057C11.4939 36.421 9.77088 50.4972 10.4657 56.7959Z" fill="#F7DE98"/>
<path d="M31.5148 61.4603C27.724 63.6175 27.5309 66.1537 28.4489 67.6121C28.3128 69.3314 31.158 70.1381 31.9096 70.3142C33.3752 70.6576 36.6224 70.8334 40.065 70.2811C43.5077 69.7287 45.0857 68.2643 45.4444 67.6012C45.95 65.5657 46.3323 63.3055 44.9126 61.4604C43.8003 60.0148 41.537 60.0148 38.6509 60.0147L38.6495 60.0147C36.0387 60.0147 34.0552 60.0147 31.5148 61.4603Z" fill="#FEA34A"/>
<path d="M42.9797 65.6737C39.6588 67.1335 32.237 69.5755 29.1167 67.6642" stroke="#B0661E" stroke-width="1.6" stroke-linecap="round"/>
<path d="M22.7214 56.6078C23.628 58.8621 22.2492 61.5367 19.6417 62.5817C17.0341 63.6267 14.1853 62.6464 13.2786 60.3922C12.372 58.1379 13.7508 55.4633 16.3583 54.4183C18.9659 53.3733 21.8147 54.3536 22.7214 56.6078Z" fill="#562528"/>
<path d="M20.7127 57.0119C20.7127 57.5948 20.258 58.0674 19.6973 58.0674C19.1365 58.0674 18.6818 57.5948 18.6818 57.0119C18.6818 56.429 19.1365 55.9564 19.6973 55.9564C20.258 55.9564 20.7127 56.429 20.7127 57.0119Z" fill="white"/>
<path d="M58.3998 55.774C57.3196 58.246 58.5035 61.2465 61.0441 62.4759C63.5847 63.7053 66.5199 62.698 67.6002 60.226C68.6804 57.754 67.4965 54.7535 64.9559 53.5241C62.4153 52.2947 59.4801 53.302 58.3998 55.774Z" fill="#562528"/>
<path d="M65.3272 56.512C65.3272 57.1182 64.8812 57.6097 64.3311 57.6097C63.7809 57.6097 63.3349 57.1182 63.3349 56.512C63.3349 55.9057 63.7809 55.4143 64.3311 55.4143C64.8812 55.4143 65.3272 55.9057 65.3272 56.512Z" fill="white"/>
<path d="M33.8272 87.3664C27.3216 90.3802 23.7755 89.0962 21.3279 86.0852C19.3706 87.2012 16.6047 85.9611 15.4664 85.2015C20.0678 100.412 76.5632 96.066 85.6383 78.2994C79.7075 84.9459 70.8958 84.4027 67.2312 83.3003C62.7703 90.5445 53.1147 88.0738 48.8445 85.933C44.4198 92.1863 36.9893 89.4941 33.8272 87.3664Z" fill="#ECD48F"/>
<path d="M78.9424 148C48.0349 114.65 61.8014 95.4807 72.4808 90L85 146.188L78.9424 148Z" fill="#ECD48F"/>
<path d="M63.3038 107.107C67.4559 82.0995 81.9016 88.3342 88.6055 94.5775C91.5182 97.29 95.742 101.553 100.024 107.753C101.757 110.262 107.212 115.968 107.939 124.545C108.665 133.122 102.749 133.458 100.024 132.295C104.591 143.352 99.5047 144.567 96.3906 143.792C97.7401 150.095 94.4443 152.575 92.2386 152.963C90.0328 153.35 83.2336 150.87 73.684 137.85C64.1343 124.829 62.1244 114.211 63.3038 107.107Z" fill="#FFE6A1"/>
<path d="M16.2974 151.346C10.9407 159.674 17.8832 158.142 21.6122 155.713C21.7319 158.369 24.0641 159.014 25.2152 159.005C29.6917 158.969 39.3735 146.675 32.2435 144.614C25.2432 142.591 21.6542 143.019 16.2974 151.346Z" fill="#562528"/>
<path d="M47.481 153.521C42.1243 161.849 49.0668 160.316 52.7958 157.888C52.9155 160.544 55.2477 161.189 56.3988 161.18C60.8753 161.144 70.5571 148.85 63.4271 146.789C56.4268 144.766 52.8378 145.194 47.481 153.521Z" fill="#562528"/>
<path d="M24.4671 14.1608C29.3747 9.31768 40.6268 7.04808 40.6268 7.04808C40.6268 7.04808 47.2143 6.14299 51.4363 6.38985C57.3553 6.73594 58.3229 6.96963 63.1213 7.87843C71.0786 9.52045 77.8873 14.5138 82.3149 20.3575C84.4637 23.1934 84.3058 28.3091 84.0884 30.3388C83.8375 32.6808 77.407 36.671 71.4278 38.695C62.6855 41.6542 57.0567 40.3399 47.832 40.0365C40.2321 39.7866 38.8934 40.1845 30.7353 38.2051C27.2286 37.3543 23.499 35.05 21.356 32.1468C19.0756 29.0577 18.1249 25.9575 18.4784 23.6265C19.1344 19.3017 21.3536 17.2334 24.4671 14.1608Z" fill="#F4B396"/>
<path fill-rule="evenodd" clip-rule="evenodd" d="M29.0421 37.3898C29.0421 37.3898 29.0806 33.513 29.1585 31.039C29.3802 23.9936 32.6278 19.7032 32.6278 19.7032C32.6278 19.7032 35.174 15.4747 37.2992 13.415C39.5425 11.2408 42.8738 8.73972 42.8738 8.73972C42.8738 8.73972 37.3079 10.6557 33.9959 13.5697C31.4829 15.7806 30.726 16.4894 29.1675 19.4514C27.2362 23.122 26.4462 26.623 27.0745 30.7228C27.4867 33.4124 29.0421 37.3898 29.0421 37.3898Z" fill="#F29D77"/>
<path fill-rule="evenodd" clip-rule="evenodd" d="M69.0681 12.3271C70.9075 13.9998 72.5956 15.9211 73.447 17.8795C75.5287 22.6686 75.4892 25.3584 73.6491 28.4504C72.1551 30.9607 70.294 31.762 67.9121 32.7876C67.4909 32.9689 67.0534 33.1573 66.5988 33.3634C63.396 34.815 61.0121 34.9351 58.0523 35.0843C57.123 35.1311 56.137 35.1807 55.051 35.2754C49.9359 35.7212 46.7974 35.5226 42.1144 35.2264C41.54 35.19 40.9424 35.1522 40.315 35.1139C38.8575 35.025 37.5623 35.0036 36.3448 34.9836C33.1696 34.9312 30.5229 34.8875 26.9019 33.6771C24.7344 32.9526 22.1562 31.5205 20.1319 30.278C18.8053 27.8218 18.2894 25.4506 18.5691 23.5738C19.1919 19.3959 21.1798 17.3185 23.9797 14.3926C24.0703 14.2979 24.1617 14.2024 24.254 14.1059C28.8947 9.25023 39.4804 6.91967 39.4804 6.91967C39.4804 6.91967 45.6752 5.97735 49.6404 6.19732C55.1994 6.50571 58.4035 7.23114 63.5215 9.49494C63.722 9.58364 63.9182 9.66999 64.1108 9.75473C65.9274 10.554 67.417 11.2094 69.0681 12.3271Z" fill="#F8C5AF"/>
<path fill-rule="evenodd" clip-rule="evenodd" d="M29.0846 34.2984C28.6892 34.2056 28.2842 34.0994 27.8671 33.9777C27.5374 32.8946 27.2274 31.7202 27.0745 30.7228C26.4462 26.623 27.2362 23.122 29.1675 19.4514C30.726 16.4894 31.4829 15.7806 33.9959 13.5697C37.3079 10.6557 42.8738 8.73972 42.8738 8.73972C42.8738 8.73972 39.5425 11.2408 37.2992 13.415C35.174 15.4747 32.6278 19.7032 32.6278 19.7032C32.6278 19.7032 29.3802 23.9936 29.1585 31.039C29.1278 32.0152 29.1031 33.2098 29.0846 34.2984Z" fill="#F4B396"/>
<path fill-rule="evenodd" clip-rule="evenodd" d="M68.9651 12.2951C68.7487 11.9561 66.1091 9.96248 64.8163 9.00805L63.1617 7.87451C60.3394 7.30981 57.4792 6.87973 54.2386 6.59473L61.4706 11.4923L68.9651 12.2951Z" fill="#F8C5AF"/>
<path d="M50.971 7.04503L50.1903 6.96141C50.1903 6.96141 50.5722 6.48807 50.5862 6.21419C50.5989 5.96731 50.4776 5.83443 50.3325 5.63427C50.107 5.3232 49.6633 5.24674 49.273 5.20493C48.9321 5.16842 48.3327 5.36323 47.9905 5.3834C47.0034 5.44156 46.447 5.46401 45.4589 5.42806C44.1719 5.38125 43.4268 5.39911 42.18 5.07683C41.4168 4.87956 41.0521 4.55085 40.2785 4.39937C39.83 4.31155 39.5701 4.29802 39.1162 4.27438L39.1075 4.27393C38.5834 4.24664 38.2056 4.57095 37.7637 4.2879C37.508 4.1242 37.2757 3.6829 37.2757 3.6829L37.8807 3.19497C37.8807 3.19497 38.4243 2.52317 38.9179 2.35852C39.1296 2.28789 39.2622 2.30471 39.4811 2.26092C40.8257 1.99194 41.4084 1.18729 42.771 1.03409C43.9898 0.897074 44.6945 1.11168 45.8937 1.3686C46.9638 1.59785 47.7131 1.52387 48.5675 2.20775C49.0753 2.6142 49.2048 2.9979 49.6131 3.50419C50.212 4.24675 50.9517 4.4718 51.1466 5.40563C51.2782 6.03594 50.971 7.04503 50.971 7.04503Z" fill="#9DBE98"/>
<path fill-rule="evenodd" clip-rule="evenodd" d="M37.3945 3.87947L39.7794 3.16682L42.8213 2.782L46.1001 3.13323L48.6345 3.79952L50.1903 4.7558L50.9403 5.86266L50.5823 7.00352L50.1911 6.96162C50.1911 6.96162 50.573 6.48829 50.587 6.2144C50.5983 5.99375 50.5026 5.86415 50.3786 5.6962C50.3638 5.67624 50.3487 5.65574 50.3333 5.63449C50.1078 5.32342 49.6641 5.24696 49.2738 5.20514C49.0714 5.18346 48.7778 5.24334 48.5011 5.29979C48.3117 5.3384 48.1303 5.37542 47.9912 5.38361C47.0042 5.44177 46.4478 5.46422 45.4596 5.42827C45.2951 5.42229 45.1395 5.41736 44.9905 5.41265C43.974 5.38047 43.2683 5.35813 42.1808 5.07705C41.828 4.98585 41.5603 4.86656 41.2981 4.74968C40.993 4.61373 40.6953 4.48104 40.2793 4.39958C39.8308 4.31176 39.5709 4.29823 39.117 4.2746L39.1083 4.27414C38.9079 4.26371 38.7289 4.30468 38.5595 4.34344C38.2859 4.40606 38.0374 4.46293 37.7644 4.28811C37.6217 4.19673 37.4863 4.01881 37.3945 3.87947Z" fill="#90AE8B"/>
<path d="M52.3956 5.54483C52.1162 6.13777 51.9077 7.15078 51.9077 7.15078L52.6884 7.2344C52.6884 7.2344 52.984 6.75309 53.2404 6.50391C53.6495 6.10647 53.9803 5.99786 54.5034 5.77062C55.4195 5.37269 56.0265 5.43829 57.0071 5.24919C58.4463 4.97168 59.2861 4.97877 60.7069 4.619C61.6788 4.37293 62.1568 3.91234 63.1577 3.85501C63.8311 3.81644 64.2323 4.24335 64.8752 4.03899C65.4537 3.85508 66.0852 3.06313 66.0852 3.06313L66.1437 2.51667C66.1437 2.51667 65.4716 2.92261 64.9922 2.94606C64.7472 2.95804 64.6102 2.91624 64.3677 2.87916C62.9682 2.66511 62.4245 1.75689 61.0498 1.41827C59.978 1.15426 59.3318 0.95916 58.2394 1.11722C56.7328 1.33521 56.0027 2.02129 54.8045 2.96022C53.7184 3.81124 52.9837 4.29668 52.3956 5.54483Z" fill="#9DBE98"/>
<path fill-rule="evenodd" clip-rule="evenodd" d="M65.9349 3.23536L64.6993 3.46626L63.085 3.05644L61.6268 2.66335L58.3758 2.78889L55.6658 3.76199L53.3043 5.16724L52.2506 7.1861L52.4822 7.21091L52.7311 7.16473C52.8224 7.02303 53.0428 6.69409 53.24 6.50246C53.5975 6.15506 53.8953 6.02834 54.314 5.85018C54.3743 5.82451 54.4371 5.79778 54.503 5.76917C55.1175 5.50222 55.5929 5.44388 56.1354 5.3773C56.4016 5.34464 56.6839 5.30999 57.0067 5.24774C57.6027 5.13282 58.0959 5.0667 58.5701 5.00313C59.2411 4.91319 59.8741 4.82833 60.7065 4.61755C61.0998 4.51796 61.4123 4.38324 61.7112 4.25433C62.1509 4.06472 62.5615 3.88769 63.1572 3.85357C63.4518 3.8367 63.6942 3.90885 63.9275 3.9783C64.2278 4.06765 64.513 4.15253 64.8747 4.03754C65.281 3.90839 65.7134 3.47939 65.9349 3.23536Z" fill="#90AE8B"/>
<path d="M50.95 4.19419C51.0952 5.32087 50.6401 7.08655 50.6401 7.08655C50.6401 7.08655 51.0511 7.41951 51.3687 7.47255C51.7417 7.53484 52.3147 7.26593 52.3147 7.26593C52.3147 7.26593 52.4667 5.47378 52.32 4.34095C52.223 3.59092 52.1076 3.17812 51.9068 2.44896C51.715 1.75244 51.325 0.692901 51.325 0.692901C51.325 0.692901 50.7774 0.7083 50.5313 0.915826C50.1198 1.26266 50.3845 2.28589 50.3845 2.28589C50.3845 2.28589 50.8506 3.4233 50.95 4.19419Z" fill="#D29A81"/>
</svg>
