<svg width="108" height="159" viewBox="0 0 108 159" fill="none" xmlns="http://www.w3.org/2000/svg">
<path d="M14.0037 81C6.09542 83.9202 -8.63785 96.5887 6.68805 126.478C22.014 156.367 18.867 108.828 14.0037 81Z" fill="#EBD38F"/>
<path d="M6.34514 106.415C6.96335 99.2869 13.1569 82.6608 17.3777 75.1849L85.0777 70L88.8388 75.1849C92.7504 82.8054 97.0715 92.5884 98.7431 96.5273C100.415 100.466 102 106.983 102 112.543C102 119.397 99.9944 124.53 94.1044 131.422C88.2144 138.315 79.7704 139.252 74.672 141.383C67.4004 144.421 52.9829 145 43.7055 145C34.8652 145 26.9895 141.503 24.1477 140.056C20.6373 138.269 16.0459 133.658 12.4883 129.686C5.46755 121.849 5.59281 115.089 6.34514 106.415Z" fill="#F7DE98"/>
<path d="M10.4657 48.7959C0.571932 62.1601 9.40035 72.6214 15.0513 76.1815C36.8676 93.7083 79.9443 82.2064 89.1154 66.8704C96.4524 54.6016 88.9302 39.5761 84.2519 33.5969C103.076 17.0024 89.827 15.9078 84.2519 20.5887C93.0119 6.74114 80.9092 8.51975 76.1924 15.1116C80.9092 5.92024 79.2531 0.910254 76.1924 0.186424C73.8765 -0.361289 69.1887 0.186421 66.4654 3.33577C63.6035 6.64543 55.7194 10.9581 51.7359 12.373C47.6599 13.2859 36.3951 16.5904 23.9445 22.5057C11.4939 28.421 9.77088 42.4972 10.4657 48.7959Z" fill="#F7DE98"/>
<path d="M31.5148 53.4603C27.724 55.6175 27.5309 58.1537 28.4489 59.6121C28.3128 61.3314 31.158 62.1381 31.9096 62.3142C33.3752 62.6576 36.6224 62.8334 40.065 62.2811C43.5077 61.7287 45.0857 60.2643 45.4444 59.6012C45.95 57.5657 46.3323 55.3055 44.9126 53.4604C43.8003 52.0148 41.537 52.0148 38.6509 52.0147L38.6495 52.0147C36.0387 52.0147 34.0552 52.0147 31.5148 53.4603Z" fill="#FEA34A"/>
<path d="M42.9797 57.6737C39.6588 59.1335 32.237 61.5755 29.1167 59.6642" stroke="#B0661E" stroke-width="1.6" stroke-linecap="round"/>
<path d="M22.7214 48.6078C23.628 50.8621 22.2492 53.5367 19.6417 54.5817C17.0341 55.6267 14.1853 54.6464 13.2786 52.3922C12.372 50.1379 13.7508 47.4633 16.3583 46.4183C18.9659 45.3733 21.8147 46.3536 22.7214 48.6078Z" fill="#562528"/>
<path d="M20.7127 49.0119C20.7127 49.5948 20.258 50.0674 19.6973 50.0674C19.1365 50.0674 18.6818 49.5948 18.6818 49.0119C18.6818 48.429 19.1365 47.9564 19.6973 47.9564C20.258 47.9564 20.7127 48.429 20.7127 49.0119Z" fill="white"/>
<path d="M58.3998 47.774C57.3196 50.246 58.5035 53.2465 61.0441 54.4759C63.5847 55.7053 66.5199 54.698 67.6002 52.226C68.6804 49.754 67.4965 46.7535 64.9559 45.5241C62.4153 44.2947 59.4801 45.302 58.3998 47.774Z" fill="#562528"/>
<path d="M65.3272 48.512C65.3272 49.1182 64.8812 49.6097 64.3311 49.6097C63.7809 49.6097 63.3349 49.1182 63.3349 48.512C63.3349 47.9057 63.7809 47.4143 64.3311 47.4143C64.8812 47.4143 65.3272 47.9057 65.3272 48.512Z" fill="white"/>
<path d="M33.8272 79.3664C27.3216 82.3802 23.7755 81.0962 21.3279 78.0852C19.3706 79.2012 16.6047 77.9611 15.4664 77.2015C20.0678 92.4118 76.5632 88.066 85.6383 70.2994C79.7075 76.9459 70.8958 76.4027 67.2312 75.3003C62.7703 82.5445 53.1147 80.0738 48.8445 77.933C44.4198 84.1863 36.9893 81.4941 33.8272 79.3664Z" fill="#ECD48F"/>
<path d="M78.9424 140C48.0349 106.65 61.8014 87.4807 72.4808 82L85 138.188L78.9424 140Z" fill="#ECD48F"/>
<path d="M63.3038 99.1071C67.4559 74.0995 81.9016 80.3342 88.6055 86.5775C91.5182 89.29 95.742 93.5527 100.024 99.7529C101.757 102.262 107.212 107.968 107.939 116.545C108.665 125.122 102.749 125.458 100.024 124.295C104.591 135.352 99.5047 136.567 96.3906 135.792C97.7401 142.095 94.4443 144.575 92.2386 144.963C90.0328 145.35 83.2336 142.87 73.684 129.85C64.1343 116.829 62.1244 106.211 63.3038 99.1071Z" fill="#FFE6A1"/>
<path d="M16.2974 143.346C10.9407 151.674 17.8832 150.142 21.6122 147.713C21.7319 150.369 24.0641 151.014 25.2152 151.005C29.6917 150.969 39.3735 138.675 32.2435 136.614C25.2432 134.591 21.6542 135.019 16.2974 143.346Z" fill="#562528"/>
<path d="M47.4805 145.521C42.1238 153.849 49.0663 152.316 52.7953 149.888C52.915 152.544 55.2472 153.189 56.3983 153.18C60.8748 153.144 70.5566 140.85 63.4266 138.789C56.4263 136.766 52.8373 137.194 47.4805 145.521Z" fill="#562528"/>
<path d="M27.6466 80.6578C31.0317 81.1645 36.3466 81.7277 36.3466 81.7277L38.3357 84.4511C38.3357 84.4511 32.0374 84.0455 28.1095 83.1935C22.2937 81.932 13.874 78 13.874 78C13.874 78 22.2264 79.8464 27.6466 80.6578Z" fill="#E8AFC5"/>
<path d="M57.5535 89.704L65.2364 84.0372L65.9449 84.6627L65.4022 86.7052L67.4853 90.5933L68.5151 96.3882C68.5151 96.3882 68.8036 97.7973 68.712 99.5566C68.6215 101.295 68.0638 105.288 68.0638 105.288C67.6642 108.085 67.5608 110.007 66.842 112.562C66.2442 114.688 65.4936 117.8 64.7138 118.721C64.1156 119.428 54.9092 111.798 54.9092 111.798C54.9092 111.798 43.533 115.126 42.8294 114.055C42.0899 112.929 44.8141 107.681 46.1993 103.634C46.9568 101.421 52.4868 94.3713 52.4868 94.3713L57.5535 89.704Z" fill="#E8AFC5"/>
<path d="M81.2744 89.5026L72.6062 85.5021L72.0385 86.2577L72.9821 88.1488C72.9821 88.1488 72.6566 90.2605 72.3931 91.9628C72.0416 94.2343 72.2868 97.8284 72.2868 97.8284C72.2868 97.8284 73.2864 101.893 73.731 103.598C74.2895 105.739 75.4411 108.178 75.4411 108.178C76.3967 110.837 77.4606 112.147 78.6801 114.506C79.6944 116.467 81.0431 118.577 81.9926 119.322C82.7212 119.893 88.3214 110.608 88.3214 110.608C88.3214 110.608 100.135 111.573 100.608 110.382C101.105 109.131 97.3785 104.54 95.2054 100.856C94.017 98.8413 87.1784 93.0518 87.1784 93.0518L81.2744 89.5026Z" fill="#E8AFC5"/>
<path d="M36.5434 88.3328C35.9197 83.6844 34.7192 75.1434 36.3398 74.284C37.4124 73.7152 40.2678 73.4185 42.8121 73.3795C46.6882 73.3203 48.5842 73.8131 52.2851 74.9669C55.6539 76.0172 58.7048 77.9239 62.2056 78.3678C63.8885 78.5813 64.9047 78.7023 64.9047 78.7023L66.2689 81.798L65.3919 86.5397L57.4377 93.2278L50.1505 99.8745C50.1505 99.8745 45.2506 104.531 43.8958 104.281C43.2185 104.156 40.8857 98.9438 40.8857 98.9438C40.8857 98.9438 37.1389 92.7704 36.5434 88.3328Z" fill="#F5C6D8"/>
<path d="M102.013 83.6841C101.954 78.9945 101.899 70.3697 100.171 69.7552C99.0269 69.3484 95.8309 69.4069 93.308 69.7385C89.4645 70.2437 87.9882 71.0704 84.4945 72.7503C81.3143 74.2795 78.5732 76.6097 75.1743 77.5582C73.5403 78.0142 72.5525 78.2817 72.5525 78.2817L71.6531 81.543L73.2106 86.1066L82.0531 91.5665L90.2297 97.0825C90.2297 97.0825 95.7549 100.977 97.0588 100.532C97.7107 100.31 99.2605 94.8139 99.2605 94.8139C99.2605 94.8139 102.069 88.1612 102.013 83.6841Z" fill="#F5C6D8"/>
<path d="M63.5498 78.4506C63.5498 78.4506 64.6065 77.8729 65.3426 77.6695C68.4695 76.8056 74.8269 76.7452 75.0143 77.0684C75.2018 77.3915 75.2433 78.0585 75.2433 78.0585C75.2433 78.0585 75.6119 82.4984 75.3875 83.0715C75.163 83.6447 74.9001 83.9011 74.6366 84.4574C74.4289 84.8959 73.5099 87.8754 73.5099 87.8754L66.037 88.842C66.037 88.842 65.1511 87.5579 65.0893 87.0596C65.0068 86.3951 65.5728 85.3555 65.6319 85.0171C65.691 84.6786 64.6643 80.2227 64.6436 79.8892C64.6125 79.3889 63.5498 78.4506 63.5498 78.4506Z" fill="#E8AFC5"/>
<path d="M55.5453 81.6266C59.2183 81.0108 65.0918 81.7028 65.0918 81.7028C65.0918 81.7028 62.5535 82.3916 60.9955 83.1292C58.9483 84.0982 58.0434 85.3637 55.7941 85.6287C54.9517 85.7279 54.4474 85.9759 53.6263 85.7634C52.8552 85.5639 52.2198 85.423 51.8862 84.6998C51.5145 83.8939 51.8552 83.1763 52.4185 82.4905C53.215 81.5207 54.3075 81.8341 55.5453 81.6266Z" fill="#E8AFC5"/>
<path d="M83.8984 79.9498C80.1774 79.7936 74.4348 81.2076 74.4348 81.2076C74.4348 81.2076 77.0388 81.5768 78.6762 82.1157C80.8276 82.8238 81.8822 83.9675 84.1471 83.9519C84.9953 83.946 85.5264 84.1297 86.3149 83.8171C87.0553 83.5237 87.6684 83.3052 87.9099 82.5462C88.179 81.7005 87.752 81.0306 87.1081 80.4199C86.1976 79.5561 85.1523 80.0024 83.8984 79.9498Z" fill="#E8AFC5"/>
</svg>
