<svg width="108" height="159" viewBox="2 0 108 159" fill="none" xmlns="http://www.w3.org/2000/svg">
<path d="M17.0037 81C9.09542 83.9202 -5.63785 96.5887 9.68805 126.478C25.014 156.367 21.867 108.828 17.0037 81Z" fill="#EBD38F"/>
<path d="M9.34514 106.415C9.96335 99.2869 16.1569 82.6608 20.3777 75.1849L88.0777 70L91.8388 75.1849C95.7504 82.8054 100.071 92.5884 101.743 96.5273C103.415 100.466 105 106.983 105 112.543C105 119.397 102.994 124.53 97.1044 131.422C91.2144 138.315 82.7704 139.252 77.672 141.383C70.4004 144.421 55.9829 145 46.7055 145C37.8652 145 29.9895 141.503 27.1477 140.056C23.6373 138.269 19.0459 133.658 15.4883 129.686C8.46755 121.849 8.59281 115.089 9.34514 106.415Z" fill="#F7DE98"/>
<path d="M13.4657 48.7959C3.57193 62.1601 12.4003 72.6214 18.0513 76.1815C39.8676 93.7083 82.9443 82.2064 92.1154 66.8704C99.4524 54.6016 91.9302 39.5761 87.2519 33.5969C106.076 17.0024 92.827 15.9078 87.2519 20.5887C96.0119 6.74114 83.9092 8.51975 79.1924 15.1116C83.9092 5.92024 82.2531 0.910254 79.1924 0.186424C76.8765 -0.361289 72.1887 0.186421 69.4654 3.33577C66.6035 6.64543 58.7194 10.9581 54.7359 12.373C50.6599 13.2859 39.3951 16.5904 26.9445 22.5057C14.4939 28.421 12.7709 42.4972 13.4657 48.7959Z" fill="#F7DE98"/>
<path d="M34.5148 53.4603C30.724 55.6175 30.5309 58.1537 31.4489 59.6121C31.3128 61.3314 34.158 62.1381 34.9096 62.3142C36.3752 62.6576 39.6224 62.8334 43.065 62.2811C46.5077 61.7287 48.0857 60.2643 48.4444 59.6012C48.95 57.5657 49.3323 55.3055 47.9126 53.4604C46.8003 52.0148 44.537 52.0148 41.6509 52.0147L41.6495 52.0147C39.0387 52.0147 37.0552 52.0147 34.5148 53.4603Z" fill="#FEA34A"/>
<path d="M45.9797 57.6737C42.6588 59.1335 35.237 61.5755 32.1167 59.6642" stroke="#B0661E" stroke-width="1.6" stroke-linecap="round"/>
<path d="M25.7214 48.6078C26.628 50.8621 25.2492 53.5367 22.6417 54.5817C20.0341 55.6267 17.1853 54.6464 16.2786 52.3922C15.372 50.1379 16.7508 47.4633 19.3583 46.4183C21.9659 45.3733 24.8147 46.3536 25.7214 48.6078Z" fill="#562528"/>
<path d="M23.7127 49.0119C23.7127 49.5948 23.258 50.0674 22.6973 50.0674C22.1365 50.0674 21.6818 49.5948 21.6818 49.0119C21.6818 48.429 22.1365 47.9564 22.6973 47.9564C23.258 47.9564 23.7127 48.429 23.7127 49.0119Z" fill="white"/>
<path d="M61.3998 47.774C60.3196 50.246 61.5035 53.2465 64.0441 54.4759C66.5847 55.7053 69.5199 54.698 70.6002 52.226C71.6804 49.754 70.4965 46.7535 67.9559 45.5241C65.4153 44.2947 62.4801 45.302 61.3998 47.774Z" fill="#562528"/>
<path d="M68.3272 48.512C68.3272 49.1182 67.8812 49.6097 67.3311 49.6097C66.7809 49.6097 66.3349 49.1182 66.3349 48.512C66.3349 47.9057 66.7809 47.4143 67.3311 47.4143C67.8812 47.4143 68.3272 47.9057 68.3272 48.512Z" fill="white"/>
<path d="M36.8272 79.3664C30.3216 82.3802 26.7755 81.0962 24.3279 78.0852C22.3706 79.2012 19.6047 77.9611 18.4664 77.2015C23.0678 92.4118 79.5632 88.066 88.6383 70.2994C82.7075 76.9459 73.8958 76.4027 70.2312 75.3003C65.7703 82.5445 56.1147 80.0738 51.8445 77.933C47.4198 84.1863 39.9893 81.4941 36.8272 79.3664Z" fill="#ECD48F"/>
<path d="M81.9424 140C51.0349 106.65 64.8014 87.4807 75.4808 82L88 138.188L81.9424 140Z" fill="#ECD48F"/>
<path d="M66.3038 99.1071C70.4559 74.0995 84.9016 80.3342 91.6055 86.5775C94.5182 89.29 98.742 93.5527 103.024 99.7529C104.757 102.262 110.212 107.968 110.939 116.545C111.665 125.122 105.749 125.458 103.024 124.295C107.591 135.352 102.505 136.567 99.3906 135.792C100.74 142.095 97.4443 144.575 95.2386 144.963C93.0328 145.35 86.2336 142.87 76.684 129.85C67.1343 116.829 65.1244 106.211 66.3038 99.1071Z" fill="#FFE6A1"/>
<path d="M19.2974 143.346C13.9407 151.674 20.8832 150.142 24.6122 147.713C24.7319 150.369 27.0641 151.014 28.2152 151.005C32.6917 150.969 42.3735 138.675 35.2435 136.614C28.2432 134.591 24.6542 135.019 19.2974 143.346Z" fill="#562528"/>
<path d="M50.4805 145.521C45.1238 153.849 52.0663 152.316 55.7953 149.888C55.915 152.544 58.2472 153.189 59.3983 153.18C63.8748 153.144 73.5566 140.85 66.4266 138.789C59.4263 136.766 55.8373 137.194 50.4805 145.521Z" fill="#562528"/>
<path d="M32.6367 48.8278C32.6367 56.2022 26.481 62.2753 18.769 62.2753C11.0569 62.2753 4.90127 56.2022 4.90127 48.8278C4.90127 41.4534 11.0569 35.3803 18.769 35.3803C26.481 35.3803 32.6367 41.4534 32.6367 48.8278Z" fill="#D9D9D9" fill-opacity="0.4" stroke="#6C6C6C" stroke-width="4.2"/>
<path d="M82.5004 48.5475C82.5004 55.9219 76.3448 61.995 68.6327 61.995C60.9207 61.995 54.765 55.9219 54.765 48.5475C54.765 41.1731 60.9207 35.1 68.6327 35.1C76.3448 35.1 82.5004 41.1731 82.5004 48.5475Z" fill="#D9D9D9" fill-opacity="0.4" stroke="#6C6C6C" stroke-width="4.2"/>
<path d="M33.7563 47.007C33.7563 47.007 36.5577 44.3457 43.1409 44.3457C49.724 44.3457 53.3658 47.5673 53.3658 47.5673" stroke="#6C6C6C" stroke-width="4.2"/>
<path d="M85.3009 46.5866C84.6364 46.1831 84.0403 45.0459 84.0403 45.0459L84.4605 50.0883C84.4605 50.0883 84.7662 49.081 85.3009 48.8277C85.7458 48.617 87.542 48.6877 87.542 48.6877V47.0068C87.542 47.0068 85.7445 46.856 85.3009 46.5866Z" fill="#6C6C6C"/>
<path d="M2.24108 46.0261C2.90557 45.6225 3.50169 44.4854 3.50169 44.4854L3.08149 49.5278C3.08149 49.5278 2.77579 48.5205 2.24108 48.2672C1.79617 48.0564 0 48.1271 0 48.1271V46.4463C0 46.4463 1.79754 46.2955 2.24108 46.0261Z" fill="#6C6C6C"/>
</svg>
