<svg width="108" height="165" viewBox="0 0 108 165" fill="none" xmlns="http://www.w3.org/2000/svg">
<path d="M14.0037 87C6.09542 89.9202 -8.63785 102.589 6.68805 132.478C22.014 162.367 18.867 114.828 14.0037 87Z" fill="#0F1F56"/>
<path d="M6.34514 112.415C6.96335 105.287 13.1569 88.6608 17.3777 81.1849L85.0777 76L88.8388 81.1849C92.7504 88.8054 97.0715 98.5884 98.7431 102.527C100.415 106.466 102 112.983 102 118.543C102 125.397 99.9944 130.53 94.1044 137.422C88.2144 144.315 79.7704 145.252 74.672 147.383C67.4004 150.421 52.9829 151 43.7055 151C34.8652 151 26.9895 147.503 24.1477 146.056C20.6373 144.269 16.0459 139.658 12.4883 135.686C5.46755 127.849 5.59281 121.089 6.34514 112.415Z" fill="#4F6DB5"/>
<path d="M10.4657 54.7959C0.571932 68.1601 9.40035 78.6214 15.0513 82.1815C36.8676 99.7083 79.9443 88.2064 89.1154 72.8704C96.4524 60.6016 88.9302 45.5761 84.2519 39.5969C103.076 23.0024 89.827 21.9078 84.2519 26.5887C93.0119 12.7411 80.9092 14.5197 76.1924 21.1116C80.9092 11.9202 79.2531 6.91025 76.1924 6.18642C73.8765 5.63871 69.1887 6.18642 66.4654 9.33577C63.6035 12.6454 55.7194 16.9581 51.7359 18.373C47.6599 19.2859 36.3951 22.5904 23.9445 28.5057C11.4939 34.421 9.77088 48.4972 10.4657 54.7959Z" fill="#4F6DB5"/>
<path d="M31.5148 59.4603C27.724 61.6175 27.5309 64.1537 28.4489 65.6121C28.3128 67.3314 31.158 68.1381 31.9096 68.3142C33.3752 68.6576 36.6224 68.8334 40.065 68.2811C43.5077 67.7287 45.0857 66.2643 45.4444 65.6012C45.95 63.5657 46.3323 61.3055 44.9126 59.4604C43.8003 58.0148 41.537 58.0148 38.6509 58.0147L38.6495 58.0147C36.0387 58.0147 34.0552 58.0147 31.5148 59.4603Z" fill="#AEC4D1"/>
<path d="M42.9797 63.6737C39.6588 65.1335 32.237 67.5755 29.1167 65.6642" stroke="#364C66" stroke-width="1.6" stroke-linecap="round"/>
<path d="M22.7214 54.6078C23.628 56.8621 22.2492 59.5367 19.6417 60.5817C17.0341 61.6267 14.1853 60.6464 13.2786 58.3922C12.372 56.1379 13.7508 53.4633 16.3583 52.4183C18.9659 51.3733 21.8147 52.3536 22.7214 54.6078Z" fill="#562528"/>
<path d="M20.7127 55.0119C20.7127 55.5948 20.258 56.0674 19.6973 56.0674C19.1365 56.0674 18.6818 55.5948 18.6818 55.0119C18.6818 54.429 19.1365 53.9564 19.6973 53.9564C20.258 53.9564 20.7127 54.429 20.7127 55.0119Z" fill="white"/>
<path d="M58.3998 53.774C57.3196 56.246 58.5035 59.2465 61.0441 60.4759C63.5847 61.7053 66.5199 60.698 67.6002 58.226C68.6804 55.754 67.4965 52.7535 64.9559 51.5241C62.4153 50.2947 59.4801 51.302 58.3998 53.774Z" fill="#562528"/>
<path d="M65.3272 54.512C65.3272 55.1182 64.8812 55.6097 64.3311 55.6097C63.7809 55.6097 63.3349 55.1182 63.3349 54.512C63.3349 53.9057 63.7809 53.4143 64.3311 53.4143C64.8812 53.4143 65.3272 53.9057 65.3272 54.512Z" fill="white"/>
<path d="M33.8272 85.3664C27.3216 88.3802 23.7755 87.0962 21.3279 84.0852C19.3706 85.2012 16.6047 83.9611 15.4664 83.2015C20.0678 98.4118 76.5632 94.066 85.6383 76.2994C79.7075 82.9459 70.8958 82.4027 67.2312 81.3003C62.7703 88.5445 53.1147 86.0738 48.8445 83.933C44.4198 90.1863 36.9893 87.4941 33.8272 85.3664Z" fill="#0F1F56"/>
<path d="M78.9424 146C48.0349 112.65 61.8014 93.4807 72.4808 88L85 144.188L78.9424 146Z" fill="#0F1F56"/>
<path d="M63.3038 105.107C67.4559 80.0995 81.9016 86.3342 88.6055 92.5775C91.5182 95.29 95.742 99.5527 100.024 105.753C101.757 108.262 107.212 113.968 107.939 122.545C108.665 131.122 102.749 131.458 100.024 130.295C104.591 141.352 99.5047 142.567 96.3906 141.792C97.7401 148.095 94.4443 150.575 92.2386 150.963C90.0328 151.35 83.2336 148.87 73.684 135.85C64.1343 122.829 62.1244 112.211 63.3038 105.107Z" fill="#4F6DB5"/>
<path d="M16.2974 149.346C10.9407 157.674 17.8832 156.142 21.6122 153.713C21.7319 156.369 24.0641 157.014 25.2152 157.005C29.6917 156.969 39.3735 144.675 32.2435 142.614C25.2432 140.591 21.6542 141.019 16.2974 149.346Z" fill="#570139"/>
<path d="M47.4805 151.521C42.1238 159.849 49.0663 158.316 52.7953 155.888C52.915 158.544 55.2472 159.189 56.3983 159.18C60.8748 159.144 70.5566 146.85 63.4266 144.789C56.4263 142.766 52.8373 143.194 47.4805 151.521Z" fill="#570139"/>
<path d="M24.4675 14.1608C29.3752 9.31768 40.6273 7.04808 40.6273 7.04808C40.6273 7.04808 47.2148 6.14299 51.4368 6.38985C57.3558 6.73594 58.3234 6.96963 63.1218 7.87843C71.0791 9.52045 77.8878 14.5138 82.3154 20.3575C84.4642 23.1934 84.3063 28.3091 84.0889 30.3388C83.838 32.6808 77.4075 36.671 71.4283 38.695C62.686 41.6542 57.0571 40.3399 47.8325 40.0365C40.2326 39.7866 38.8939 40.1845 30.7358 38.2051C27.2291 37.3543 23.4995 35.05 21.3565 32.1468C19.0761 29.0577 18.1254 25.9575 18.4789 23.6265C19.1349 19.3017 21.3541 17.2334 24.4675 14.1608Z" fill="#F4B396"/>
<path fill-rule="evenodd" clip-rule="evenodd" d="M29.0421 37.3898C29.0421 37.3898 29.0806 33.513 29.1585 31.039C29.3802 23.9936 32.6278 19.7032 32.6278 19.7032C32.6278 19.7032 35.174 15.4747 37.2992 13.415C39.5425 11.2408 42.8738 8.73972 42.8738 8.73972C42.8738 8.73972 37.3079 10.6557 33.9959 13.5697C31.4829 15.7806 30.726 16.4894 29.1675 19.4514C27.2362 23.122 26.4462 26.623 27.0745 30.7228C27.4867 33.4124 29.0421 37.3898 29.0421 37.3898Z" fill="#F29D77"/>
<path fill-rule="evenodd" clip-rule="evenodd" d="M69.0676 12.3271C70.907 13.9998 72.5952 15.9211 73.4465 17.8795C75.5283 22.6686 75.4887 25.3584 73.6486 28.4504C72.1546 30.9607 70.2935 31.762 67.9116 32.7876C67.4904 32.9689 67.0529 33.1573 66.5983 33.3634C63.3956 34.815 61.0116 34.9351 58.0518 35.0843C57.1225 35.1311 56.1365 35.1807 55.0505 35.2754C49.9355 35.7212 46.7969 35.5226 42.1139 35.2264C41.5396 35.19 40.9419 35.1522 40.3146 35.1139C38.857 35.025 37.5618 35.0036 36.3443 34.9836C33.1691 34.9312 30.5224 34.8875 26.9014 33.6771C24.7339 32.9526 22.1557 31.5205 20.1314 30.278C18.8048 27.8218 18.2889 25.4506 18.5686 23.5738C19.1914 19.3959 21.1793 17.3185 23.9792 14.3926C24.0698 14.2979 24.1612 14.2024 24.2535 14.1059C28.8942 9.25023 39.4799 6.91967 39.4799 6.91967C39.4799 6.91967 45.6747 5.97735 49.6399 6.19732C55.1989 6.50571 58.4031 7.23114 63.521 9.49494C63.7215 9.58364 63.9178 9.66999 64.1103 9.75473C65.9269 10.554 67.4165 11.2094 69.0676 12.3271Z" fill="#F8C5AF"/>
<path fill-rule="evenodd" clip-rule="evenodd" d="M29.0846 34.2984C28.6892 34.2056 28.2842 34.0994 27.8671 33.9777C27.5374 32.8946 27.2274 31.7202 27.0745 30.7228C26.4462 26.623 27.2362 23.122 29.1675 19.4514C30.726 16.4894 31.4829 15.7806 33.9959 13.5697C37.3079 10.6557 42.8738 8.73972 42.8738 8.73972C42.8738 8.73972 39.5425 11.2408 37.2992 13.415C35.174 15.4747 32.6278 19.7032 32.6278 19.7032C32.6278 19.7032 29.3802 23.9936 29.1585 31.039C29.1278 32.0152 29.1031 33.2098 29.0846 34.2984Z" fill="#F4B396"/>
<path fill-rule="evenodd" clip-rule="evenodd" d="M68.9656 12.2951C68.7492 11.9561 66.1095 9.96248 64.8168 9.00805L63.1622 7.87451C60.3399 7.30981 57.4797 6.87973 54.239 6.59473L61.4711 11.4923L68.9656 12.2951Z" fill="#F8C5AF"/>
<path d="M50.971 7.04503L50.1903 6.96141C50.1903 6.96141 50.5722 6.48807 50.5862 6.21419C50.5989 5.96731 50.4776 5.83443 50.3325 5.63427C50.107 5.3232 49.6633 5.24674 49.273 5.20493C48.9321 5.16842 48.3327 5.36323 47.9905 5.3834C47.0034 5.44156 46.447 5.46401 45.4589 5.42806C44.1719 5.38125 43.4268 5.39911 42.18 5.07683C41.4168 4.87956 41.0521 4.55085 40.2785 4.39937C39.83 4.31155 39.5701 4.29802 39.1162 4.27438L39.1075 4.27393C38.5834 4.24664 38.2056 4.57095 37.7637 4.2879C37.508 4.1242 37.2757 3.6829 37.2757 3.6829L37.8807 3.19497C37.8807 3.19497 38.4243 2.52317 38.9179 2.35852C39.1296 2.28789 39.2622 2.30471 39.4811 2.26092C40.8257 1.99194 41.4084 1.18729 42.771 1.03409C43.9898 0.897074 44.6945 1.11168 45.8937 1.3686C46.9638 1.59785 47.7131 1.52387 48.5675 2.20775C49.0753 2.6142 49.2048 2.9979 49.6131 3.50419C50.212 4.24675 50.9517 4.4718 51.1466 5.40563C51.2782 6.03594 50.971 7.04503 50.971 7.04503Z" fill="#9DBE98"/>
<path fill-rule="evenodd" clip-rule="evenodd" d="M37.3945 3.87947L39.7794 3.16682L42.8213 2.782L46.1001 3.13323L48.6345 3.79952L50.1903 4.7558L50.9403 5.86266L50.5823 7.00352L50.1911 6.96162C50.1911 6.96162 50.573 6.48829 50.587 6.2144C50.5983 5.99375 50.5026 5.86415 50.3786 5.6962C50.3638 5.67624 50.3487 5.65574 50.3333 5.63449C50.1078 5.32342 49.6641 5.24696 49.2738 5.20514C49.0714 5.18346 48.7778 5.24334 48.5011 5.29979C48.3117 5.3384 48.1303 5.37542 47.9912 5.38361C47.0042 5.44177 46.4478 5.46422 45.4596 5.42827C45.2951 5.42229 45.1395 5.41736 44.9905 5.41265C43.974 5.38047 43.2683 5.35813 42.1808 5.07705C41.828 4.98585 41.5603 4.86656 41.2981 4.74968C40.993 4.61373 40.6953 4.48104 40.2793 4.39958C39.8308 4.31176 39.5709 4.29823 39.117 4.2746L39.1083 4.27414C38.9079 4.26371 38.7289 4.30468 38.5595 4.34344C38.2859 4.40606 38.0374 4.46293 37.7644 4.28811C37.6217 4.19673 37.4863 4.01881 37.3945 3.87947Z" fill="#90AE8B"/>
<path d="M52.3961 5.54483C52.1167 6.13777 51.9082 7.15078 51.9082 7.15078L52.6889 7.2344C52.6889 7.2344 52.9845 6.75309 53.2409 6.50391C53.65 6.10647 53.9808 5.99786 54.5039 5.77062C55.42 5.37269 56.0269 5.43829 57.0076 5.24919C58.4468 4.97168 59.2866 4.97877 60.7074 4.619C61.6793 4.37293 62.1573 3.91234 63.1582 3.85501C63.8316 3.81644 64.2328 4.24335 64.8756 4.03899C65.4542 3.85508 66.0857 3.06313 66.0857 3.06313L66.1442 2.51667C66.1442 2.51667 65.4721 2.92261 64.9927 2.94606C64.7477 2.95804 64.6107 2.91624 64.3682 2.87916C62.9687 2.66511 62.425 1.75689 61.0503 1.41827C59.9785 1.15426 59.3323 0.95916 58.2399 1.11722C56.7332 1.33521 56.0032 2.02129 54.805 2.96022C53.7189 3.81124 52.9842 4.29668 52.3961 5.54483Z" fill="#9DBE98"/>
<path fill-rule="evenodd" clip-rule="evenodd" d="M65.9344 3.23536L64.6988 3.46626L63.0845 3.05644L61.6263 2.66335L58.3754 2.78889L55.6653 3.76199L53.3038 5.16724L52.2501 7.1861L52.4817 7.21091L52.7306 7.16473C52.8219 7.02303 53.0423 6.69409 53.2395 6.50246C53.5971 6.15506 53.8948 6.02834 54.3135 5.85018C54.3738 5.82451 54.4366 5.79778 54.5025 5.76917C55.117 5.50222 55.5924 5.44388 56.1349 5.3773C56.4011 5.34464 56.6834 5.30999 57.0062 5.24774C57.6022 5.13282 58.0954 5.0667 58.5696 5.00313C59.2406 4.91319 59.8736 4.82833 60.706 4.61755C61.0993 4.51796 61.4118 4.38324 61.7107 4.25433C62.1504 4.06472 62.561 3.88769 63.1568 3.85357C63.4513 3.8367 63.6937 3.90885 63.9271 3.9783C64.2273 4.06765 64.5125 4.15253 64.8742 4.03754C65.2805 3.90839 65.7129 3.47939 65.9344 3.23536Z" fill="#90AE8B"/>
<path d="M50.95 4.19419C51.0952 5.32087 50.6401 7.08655 50.6401 7.08655C50.6401 7.08655 51.0511 7.41951 51.3687 7.47255C51.7417 7.53484 52.3147 7.26593 52.3147 7.26593C52.3147 7.26593 52.4667 5.47378 52.32 4.34095C52.223 3.59092 52.1076 3.17812 51.9068 2.44896C51.715 1.75244 51.325 0.692901 51.325 0.692901C51.325 0.692901 50.7774 0.7083 50.5313 0.915826C50.1198 1.26266 50.3845 2.28589 50.3845 2.28589C50.3845 2.28589 50.8506 3.4233 50.95 4.19419Z" fill="#D29A81"/>
</svg>
