<svg width="108" height="159" viewBox="4.75 0 108 159" fill="none" xmlns="http://www.w3.org/2000/svg">
<path d="M21.0037 81C13.0954 83.9202 -1.63785 96.5887 13.6881 126.478C29.014 156.367 25.867 108.828 21.0037 81Z" fill="#B96C67"/>
<path d="M13.3451 106.415C13.9633 99.2869 20.1569 82.6608 24.3777 75.1849L92.0777 70L95.8388 75.1849C99.7504 82.8054 104.071 92.5884 105.743 96.5273C107.415 100.466 109 106.983 109 112.543C109 119.397 106.994 124.53 101.104 131.422C95.2144 138.315 86.7704 139.252 81.672 141.383C74.4004 144.421 59.9829 145 50.7055 145C41.8652 145 33.9895 141.503 31.1477 140.056C27.6373 138.269 23.0459 133.658 19.4883 129.686C12.4675 121.849 12.5928 115.089 13.3451 106.415Z" fill="#D67C77"/>
<path d="M17.4657 48.7959C7.57193 62.1601 16.4003 72.6214 22.0513 76.1815C43.8676 93.7083 86.9443 82.2064 96.1154 66.8704C103.452 54.6016 95.9302 39.5761 91.2519 33.5969C110.076 17.0024 96.827 15.9078 91.2519 20.5887C100.012 6.74114 87.9092 8.51975 83.1924 15.1116C87.9092 5.92024 86.2531 0.910254 83.1924 0.186424C80.8765 -0.361289 76.1887 0.186421 73.4654 3.33577C70.6035 6.64543 62.7194 10.9581 58.7359 12.373C54.6599 13.2859 43.3951 16.5904 30.9445 22.5057C18.4939 28.421 16.7709 42.4972 17.4657 48.7959Z" fill="#D67C77"/>
<path d="M38.5148 53.4603C34.724 55.6175 34.5309 58.1537 35.4489 59.6121C35.3128 61.3314 38.158 62.1381 38.9096 62.3142C40.3752 62.6576 43.6224 62.8334 47.065 62.2811C50.5077 61.7287 52.0857 60.2643 52.4444 59.6012C52.95 57.5657 53.3323 55.3055 51.9126 53.4604C50.8003 52.0148 48.537 52.0148 45.6509 52.0147L45.6495 52.0147C43.0387 52.0147 41.0552 52.0147 38.5148 53.4603Z" fill="#FEA34A"/>
<path d="M49.9797 57.6737C46.6588 59.1335 39.237 61.5755 36.1167 59.6642" stroke="#B0661E" stroke-width="1.6" stroke-linecap="round"/>
<path d="M29.7214 48.6078C30.628 50.8621 29.2492 53.5367 26.6417 54.5817C24.0341 55.6267 21.1853 54.6464 20.2786 52.3922C19.372 50.1379 20.7508 47.4633 23.3583 46.4183C25.9659 45.3733 28.8147 46.3536 29.7214 48.6078Z" fill="#562528"/>
<path d="M27.7127 49.0119C27.7127 49.5948 27.258 50.0674 26.6973 50.0674C26.1365 50.0674 25.6818 49.5948 25.6818 49.0119C25.6818 48.429 26.1365 47.9564 26.6973 47.9564C27.258 47.9564 27.7127 48.429 27.7127 49.0119Z" fill="white"/>
<path d="M65.3998 47.774C64.3196 50.246 65.5035 53.2465 68.0441 54.4759C70.5847 55.7053 73.5199 54.698 74.6002 52.226C75.6804 49.754 74.4965 46.7535 71.9559 45.5241C69.4153 44.2947 66.4801 45.302 65.3998 47.774Z" fill="#562528"/>
<path d="M72.3272 48.512C72.3272 49.1182 71.8812 49.6097 71.3311 49.6097C70.7809 49.6097 70.3349 49.1182 70.3349 48.512C70.3349 47.9057 70.7809 47.4143 71.3311 47.4143C71.8812 47.4143 72.3272 47.9057 72.3272 48.512Z" fill="white"/>
<path d="M40.8272 79.3664C34.3216 82.3802 30.7755 81.0962 28.3279 78.0852C26.3706 79.2012 23.6047 77.9611 22.4664 77.2015C27.0678 92.4118 83.5632 88.066 92.6383 70.2994C86.7075 76.9459 77.8958 76.4027 74.2312 75.3003C69.7703 82.5445 60.1147 80.0738 55.8445 77.933C51.4198 84.1863 43.9893 81.4941 40.8272 79.3664Z" fill="#B96C67"/>
<path d="M85.9424 140C55.0349 106.65 68.8014 87.4807 79.4808 82L92 138.188L85.9424 140Z" fill="#B96C67"/>
<path d="M70.3038 99.1071C74.4559 74.0995 88.9016 80.3342 95.6055 86.5775C98.5182 89.29 102.742 93.5527 107.024 99.7529C108.757 102.262 114.212 107.968 114.939 116.545C115.665 125.122 109.749 125.458 107.024 124.295C111.591 135.352 106.505 136.567 103.391 135.792C104.74 142.095 101.444 144.575 99.2386 144.963C97.0328 145.35 90.2336 142.87 80.684 129.85C71.1343 116.829 69.1244 106.211 70.3038 99.1071Z" fill="#D67C77"/>
<path d="M23.2974 143.346C17.9407 151.674 24.8832 150.142 28.6122 147.713C28.7319 150.369 31.0641 151.014 32.2152 151.005C36.6917 150.969 46.3735 138.675 39.2435 136.614C32.2432 134.591 28.6542 135.019 23.2974 143.346Z" fill="#562528"/>
<path d="M54.4805 145.521C49.1238 153.849 56.0663 152.316 59.7953 149.888C59.915 152.544 62.2472 153.189 63.3983 153.18C67.8748 153.144 77.5566 140.85 70.4266 138.789C63.4263 136.766 59.8373 137.194 54.4805 145.521Z" fill="#562528"/>
<path d="M33.4867 48.8278C33.4867 56.6928 26.929 63.1253 18.769 63.1253C10.609 63.1253 4.05127 56.6928 4.05127 48.8278C4.05127 40.9627 10.609 34.5303 18.769 34.5303C26.929 34.5303 33.4867 40.9627 33.4867 48.8278Z" fill="#D9D9D9" fill-opacity="0.4" stroke="#6C6C6C" stroke-width="2.5"/>
<path d="M83.3504 48.5475C83.3504 56.4126 76.7927 62.845 68.6327 62.845C60.4727 62.845 53.915 56.4126 53.915 48.5475C53.915 40.6824 60.4727 34.25 68.6327 34.25C76.7927 34.25 83.3504 40.6824 83.3504 48.5475Z" fill="#D9D9D9" fill-opacity="0.4" stroke="#6C6C6C" stroke-width="2.5"/>
<path d="M33.7563 47.007C33.7563 47.007 36.5577 44.3457 43.1409 44.3457C49.724 44.3457 53.3658 47.5673 53.3658 47.5673" stroke="#6C6C6C" stroke-width="2.5"/>
<path d="M85.3009 46.5866C84.6364 46.1831 84.0403 45.0459 84.0403 45.0459L84.4605 50.0883C84.4605 50.0883 84.7662 49.081 85.3009 48.8277C85.7458 48.617 87.542 48.6877 87.542 48.6877V47.0068C87.542 47.0068 85.7445 46.856 85.3009 46.5866Z" fill="#6C6C6C"/>
<path d="M2.24108 46.0261C2.90557 45.6225 3.50169 44.4854 3.50169 44.4854L3.08149 49.5278C3.08149 49.5278 2.77579 48.5205 2.24108 48.2672C1.79617 48.0564 0 48.1271 0 48.1271V46.4463C0 46.4463 1.79754 46.2955 2.24108 46.0261Z" fill="#6C6C6C"/>
</svg>
