<svg width="108" height="167" viewBox="0 0 108 167" fill="none" xmlns="http://www.w3.org/2000/svg">
<path d="M14.0037 95C6.09542 97.9202 -8.63785 110.589 6.68805 140.478C22.014 170.367 18.867 122.828 14.0037 95Z" fill="#EBD38F"/>
<path d="M6.34514 120.415C6.96335 113.287 13.1569 96.6608 17.3777 89.1849L85.0777 84L88.8388 89.1849C92.7504 96.8054 97.0715 106.588 98.7431 110.527C100.415 114.466 102 120.983 102 126.543C102 133.397 99.9944 138.53 94.1044 145.422C88.2144 152.315 79.7704 153.252 74.672 155.383C67.4004 158.421 52.9829 159 43.7055 159C34.8652 159 26.9895 155.503 24.1477 154.056C20.6373 152.269 16.0459 147.658 12.4883 143.686C5.46755 135.849 5.59281 129.089 6.34514 120.415Z" fill="#F7DE98"/>
<path d="M10.4657 62.7959C0.571932 76.1601 9.40035 86.6214 15.0513 90.1815C36.8676 107.708 79.9443 96.2064 89.1154 80.8704C96.4524 68.6016 88.9302 53.5761 84.2519 47.5969C103.076 31.0024 89.827 29.9078 84.2519 34.5887C93.0119 20.7411 80.9092 22.5197 76.1924 29.1116C80.9092 19.9202 79.2531 14.9103 76.1924 14.1864C73.8765 13.6387 69.1887 14.1864 66.4654 17.3358C63.6035 20.6454 55.7194 24.9581 51.7359 26.373C47.6599 27.2859 36.3951 30.5904 23.9445 36.5057C11.4939 42.421 9.77088 56.4972 10.4657 62.7959Z" fill="#F7DE98"/>
<path d="M31.5148 67.4603C27.724 69.6175 27.5309 72.1537 28.4489 73.6121C28.3128 75.3314 31.158 76.1381 31.9096 76.3142C33.3752 76.6576 36.6224 76.8334 40.065 76.2811C43.5077 75.7287 45.0857 74.2643 45.4444 73.6012C45.95 71.5657 46.3323 69.3055 44.9126 67.4604C43.8003 66.0148 41.537 66.0148 38.6509 66.0147L38.6495 66.0147C36.0387 66.0147 34.0552 66.0147 31.5148 67.4603Z" fill="#FEA34A"/>
<path d="M42.9797 71.6737C39.6588 73.1335 32.237 75.5755 29.1167 73.6642" stroke="#B0661E" stroke-width="1.6" stroke-linecap="round"/>
<path d="M22.7214 62.6078C23.628 64.8621 22.2492 67.5367 19.6417 68.5817C17.0341 69.6267 14.1853 68.6464 13.2786 66.3922C12.372 64.1379 13.7508 61.4633 16.3583 60.4183C18.9659 59.3733 21.8147 60.3536 22.7214 62.6078Z" fill="#562528"/>
<path d="M20.7127 63.0119C20.7127 63.5948 20.258 64.0674 19.6973 64.0674C19.1365 64.0674 18.6818 63.5948 18.6818 63.0119C18.6818 62.429 19.1365 61.9564 19.6973 61.9564C20.258 61.9564 20.7127 62.429 20.7127 63.0119Z" fill="white"/>
<path d="M58.3998 61.774C57.3196 64.246 58.5035 67.2465 61.0441 68.4759C63.5847 69.7053 66.5199 68.698 67.6002 66.226C68.6804 63.754 67.4965 60.7535 64.9559 59.5241C62.4153 58.2947 59.4801 59.302 58.3998 61.774Z" fill="#562528"/>
<path d="M65.3272 62.512C65.3272 63.1182 64.8812 63.6097 64.3311 63.6097C63.7809 63.6097 63.3349 63.1182 63.3349 62.512C63.3349 61.9057 63.7809 61.4143 64.3311 61.4143C64.8812 61.4143 65.3272 61.9057 65.3272 62.512Z" fill="white"/>
<path d="M33.8272 93.3664C27.3216 96.3802 23.7755 95.0962 21.3279 92.0852C19.3706 93.2012 16.6047 91.9611 15.4664 91.2015C20.0678 106.412 76.5632 102.066 85.6383 84.2994C79.7075 90.9459 70.8958 90.4027 67.2312 89.3003C62.7703 96.5445 53.1147 94.0738 48.8445 91.933C44.4198 98.1863 36.9893 95.4941 33.8272 93.3664Z" fill="#ECD48F"/>
<path d="M78.9424 154C48.0349 120.65 61.8014 101.481 72.4808 96L85 152.188L78.9424 154Z" fill="#ECD48F"/>
<path d="M63.3038 113.107C67.4559 88.0995 81.9016 94.3342 88.6055 100.577C91.5182 103.29 95.742 107.553 100.024 113.753C101.757 116.262 107.212 121.968 107.939 130.545C108.665 139.122 102.749 139.458 100.024 138.295C104.591 149.352 99.5047 150.567 96.3906 149.792C97.7401 156.095 94.4443 158.575 92.2386 158.963C90.0328 159.35 83.2336 156.87 73.684 143.85C64.1343 130.829 62.1244 120.211 63.3038 113.107Z" fill="#FFE6A1"/>
<path d="M16.2974 157.346C10.9407 165.674 17.8832 164.142 21.6122 161.713C21.7319 164.369 24.0641 165.014 25.2152 165.005C29.6917 164.969 39.3735 152.675 32.2435 150.614C25.2432 148.591 21.6542 149.019 16.2974 157.346Z" fill="#562528"/>
<path d="M47.4805 159.521C42.1238 167.849 49.0663 166.316 52.7953 163.888C52.915 166.544 55.2472 167.189 56.3983 167.18C60.8748 167.144 70.5566 154.85 63.4266 152.789C56.4263 150.766 52.8373 151.194 47.4805 159.521Z" fill="#562528"/>
<path d="M27.0477 14.085C26.0143 18.4202 26.8451 35.4521 26.8451 35.4521L74.0166 35.8993C74.0166 35.8993 74.536 21.3734 73.5174 16.0927C72.4987 10.812 72.3582 9.52854 68.5053 5.28944C64.6523 1.05035 56.0332 0.327543 50.0032 0.270379C43.9732 0.213215 38.2408 0.977945 33.1648 4.95436C28.0889 8.93077 27.534 12.0449 27.0477 14.085Z" fill="#F3C66D"/>
<path fill-rule="evenodd" clip-rule="evenodd" d="M36.8023 31.9138C36.8023 31.9138 36.8379 24.2104 36.8962 22.0137C36.9097 21.5045 36.9197 21.0114 36.9296 20.5299L36.9296 20.5299L36.9296 20.5299L36.9296 20.5298L36.9296 20.5298C36.9858 17.775 37.0343 15.3999 37.673 12.5475C38.2201 10.1038 38.909 8.4858 39.7721 6.4586L39.7721 6.45852L39.7722 6.45824L39.7723 6.45813C40.0008 5.9214 40.2415 5.35598 40.4951 4.73896C40.7545 4.10764 41.016 3.28641 41.2762 2.46931L41.2762 2.46928C41.4405 1.95356 41.6042 1.4395 41.7665 0.975873C42.0908 0.905205 42.4166 0.840878 42.7438 0.782447C42.3765 2.20847 41.8679 4.17957 41.4786 5.67427C41.2037 6.72959 40.9374 7.61197 40.6851 8.44767L40.685 8.4478L40.685 8.4479L40.685 8.44794L40.685 8.44798C40.2338 9.94253 39.8276 11.2878 39.4988 13.2059C39.0318 15.9293 38.9892 17.7298 38.9329 20.1029L38.9329 20.103L38.9329 20.103C38.9187 20.7017 38.9037 21.3369 38.8807 22.0325C38.8083 24.2288 38.7869 31.9326 38.7869 31.9326L36.8023 31.9138ZM46.3779 0.356821C46.4636 1.60109 46.5756 3.42774 46.6014 4.79686C46.6228 5.93328 46.6056 6.74598 46.5863 7.65491L46.5863 7.65497L46.5863 7.65503L46.5863 7.65509L46.5863 7.65514L46.5863 7.65518C46.5758 8.14759 46.5647 8.66825 46.5589 9.28393L46.4799 17.6171C46.3347 19.5152 46.0381 23.9524 46.0381 23.9524C46.0381 23.9524 44.945 31.896 44.7284 33.2711L46.7102 33.5748C46.7102 33.5748 47.7518 25.9485 47.87 23.9697C47.9658 22.3667 47.9527 21.2179 47.9381 19.933C47.9302 19.2369 47.9219 18.5008 47.9301 17.6308C47.941 16.4873 47.9767 15.5199 48.0104 14.6049L48.0104 14.6048L48.0104 14.6048L48.0104 14.6047L48.0104 14.6046L48.0104 14.6046C48.0728 12.9157 48.1285 11.4057 48.0091 9.29769C47.9096 7.53968 47.8065 6.55562 47.5937 4.80626C47.425 3.41903 47.1179 1.57153 46.9014 0.327035C46.7266 0.335865 46.5521 0.345773 46.3779 0.356821ZM51.1709 0.289912C51.6807 1.52914 52.4268 3.41689 52.8604 4.8562C53.5106 7.01409 53.7457 8.28765 54.1434 10.4419L54.1797 10.6383C54.5665 12.7325 54.7177 14.0306 54.941 15.9471L54.941 15.9471C54.9716 16.2093 55.0035 16.4832 55.0375 16.7722C55.0976 17.2827 55.1552 17.7488 55.2094 18.1882L55.2094 18.1886C55.4296 19.9734 55.5955 21.318 55.6617 23.4025C55.7164 25.1264 55.7961 33.376 55.7961 33.376L57.5578 32.7516C57.5648 32.0146 57.5262 30.0503 57.4875 28.0859L57.4875 28.0854L57.4875 28.0854L57.4875 28.0853L57.4875 28.0852C57.4489 26.1207 57.4103 24.1562 57.4173 23.4192C57.4173 23.4192 57.0223 19.3683 56.6404 16.7874C56.2637 14.2411 56.0013 12.8189 55.4806 10.2945C55.3587 9.7031 55.263 9.18076 55.1731 8.69045C54.9398 7.41678 54.746 6.35935 54.2344 4.86923C53.7331 3.40944 52.7859 1.54917 52.1226 0.318983C51.8007 0.307004 51.4832 0.297429 51.1709 0.289912ZM57.3547 0.74731C58.1176 1.82232 59.4842 3.81569 60.2603 5.35374C61.2775 7.36941 61.6662 8.58061 62.3469 10.7158C63.3042 13.7186 63.74 15.4541 64.1045 18.5677C64.338 20.562 65.061 30.4009 65.061 30.4009L67.1239 30.2068C67.1239 30.2068 66.2137 20.0142 65.8675 17.8009L65.8306 17.565C65.3355 14.3968 65.04 12.5066 63.8093 9.4475C62.9562 7.32697 62.3906 6.14714 61.1107 4.22213C60.3903 3.13854 59.2504 1.79365 58.4749 0.913898C58.1026 0.853083 57.7288 0.797702 57.3547 0.74731ZM64.6639 2.64659C65.2634 3.57361 66.0744 4.87792 66.5909 5.91238C67.9971 8.7283 68.4742 10.4543 69.1909 13.4874C69.5254 14.9033 69.6646 15.8914 69.8309 17.0722C69.8975 17.5453 69.9685 18.0493 70.0582 18.6242C70.1942 19.4964 70.3304 20.2583 70.4582 20.9736C70.7784 22.765 71.0463 24.264 71.1288 26.4696C71.184 27.943 71.0931 30.2445 71.0931 30.2445L72.7703 30.474L72.8081 26.4855C72.8081 26.4855 71.9486 20.5178 71.5159 17.8545L71.5105 17.8216L71.5105 17.8215C71.0826 15.1877 71.0157 14.7761 70.4945 12.8587C70.443 12.669 70.393 12.4843 70.3443 12.3041C69.6253 9.64573 69.1659 7.94688 67.6643 5.42394C67.3155 4.83795 66.8408 4.16715 66.3746 3.54691C65.8403 3.215 65.2674 2.91594 64.6639 2.64659ZM37.6396 2.28917C37.0365 3.35837 36.3705 4.59612 35.9066 5.62144C34.6199 8.46499 33.9817 10.1231 33.3161 13.1472C32.8597 15.2211 32.8102 16.7741 32.7565 18.4565C32.7226 19.5216 32.6869 20.6386 32.5454 21.9724C32.3388 23.9195 31.9517 28.235 31.9517 28.235L30.7304 28.2235C30.7304 28.2235 31.0543 23.9058 31.2478 21.9601C31.3705 20.7264 31.4085 19.6773 31.4445 18.6838C31.509 16.9029 31.567 15.3009 32.0948 13.1357C32.8369 10.0914 33.4689 8.39238 34.9906 5.61275C35.5064 4.67047 36.2433 3.58118 36.9504 2.60268C37.1791 2.49346 37.4089 2.38902 37.6396 2.28917Z" fill="#E2AE4A"/>
<path fill-rule="evenodd" clip-rule="evenodd" d="M26.5421 25.2293C29.5927 25.8666 34.3865 26.7686 37.9862 26.9825C39.1505 27.0517 40.2431 27.1374 41.2858 27.2192C46.3308 27.615 50.2078 27.9192 55.379 25.8154C59.6453 24.0798 62.3751 22.7966 64.9307 19.1676C66.9114 16.3549 67.2026 15.4113 67.2196 12.0437C67.2299 10.0001 66.5748 8.73119 65.7434 7.12078C65.5242 6.69608 65.2926 6.24761 65.0578 5.75492C64.2898 4.14349 62.7708 2.68474 60.9777 1.4183C57.3441 0.530378 53.2889 0.301532 50.0027 0.270379C43.9727 0.213215 38.2403 0.977945 33.1644 4.95436C28.2954 8.76867 27.5863 11.7896 27.1073 13.8302C27.087 13.9169 27.0671 14.0018 27.0472 14.085C26.572 16.0786 26.491 20.7569 26.5421 25.2293Z" fill="#F7D674"/>
<path fill-rule="evenodd" clip-rule="evenodd" d="M47.5447 27.4885C46.8882 27.5096 46.2301 27.5068 45.5628 27.4872C45.7806 25.9386 46.0378 23.9529 46.0378 23.9529C46.0378 23.9529 46.3344 19.5157 46.4796 17.6176L46.5586 9.28444C46.5644 8.66873 46.5755 8.14806 46.586 7.65564L46.586 7.65559L46.586 7.65553L46.586 7.65547L46.586 7.65542C46.6053 6.74648 46.6226 5.93378 46.6011 4.79736C46.5753 3.42778 46.4632 1.60035 46.3776 0.356061C46.5517 0.345015 46.7261 0.335108 46.9009 0.326279C47.1174 1.57078 47.4246 3.41907 47.5934 4.80677C47.8062 6.55612 47.9093 7.54018 48.0089 9.29819C48.1282 11.4062 48.0725 12.9162 48.0102 14.6051L48.0102 14.6051L48.0102 14.6052L48.0102 14.6053L48.0102 14.6053C47.9764 15.5203 47.9407 16.4878 47.9298 17.6313C47.9216 18.5013 47.93 19.2374 47.9379 19.9335C47.9524 21.2184 47.9655 22.3672 47.8697 23.9702C47.8057 25.0426 47.6625 26.4365 47.5447 27.4885ZM57.4023 24.9669C56.8538 25.2076 56.2779 25.4479 55.6704 25.6963C55.681 24.9328 55.6832 24.0908 55.6614 23.403C55.5952 21.3185 55.4293 19.9739 55.2091 18.1892L55.2091 18.1891C55.1549 17.7496 55.0974 17.2833 55.0372 16.7727C55.0032 16.4837 54.9713 16.2098 54.9407 15.9475L54.9407 15.9475C54.7174 14.0311 54.5662 12.733 54.1794 10.6388L54.1431 10.4424C53.7454 8.28813 53.5103 7.01458 52.8601 4.8567C52.4263 3.4169 51.6799 1.52834 51.1701 0.289127C51.4823 0.29664 51.7998 0.306212 52.1216 0.318185C52.7849 1.54836 53.7327 3.40942 54.2341 4.86973C54.7457 6.35985 54.9395 7.41728 55.1728 8.69096C55.2627 9.18126 55.3584 9.70361 55.4803 10.295C56.001 12.8194 56.2634 14.2416 56.6402 16.7879C57.0221 19.3688 57.417 23.4197 57.417 23.4197L57.4023 24.9669ZM65.8632 17.7755C65.604 18.1938 65.2963 18.6487 64.9313 19.1671C64.7011 19.494 64.4695 19.8019 64.2354 20.0927C64.2015 19.5586 64.1586 19.0325 64.1042 18.5682C63.7397 15.4546 63.304 13.7191 62.3466 10.7163C61.6659 8.58112 61.2772 7.36992 60.26 5.35424C59.4835 3.81552 58.1161 1.82108 57.3534 0.746397C57.7274 0.796765 58.1011 0.852119 58.4733 0.912904C59.2488 1.79262 60.3896 3.13843 61.1105 4.22263C62.3903 6.14764 62.9559 7.32747 63.809 9.448C65.0397 12.5071 65.3352 14.3973 65.8303 17.5655L65.8632 17.7755ZM42.7439 0.781628C42.3765 2.20776 41.8677 4.17961 41.4783 5.67477C41.2034 6.7302 40.937 7.61265 40.6847 8.44842L40.6847 8.44844L40.6847 8.44848L40.6847 8.44849C40.2335 9.94304 39.8274 11.2883 39.4985 13.2064C39.0315 15.9298 38.9889 17.7303 38.9326 20.1034L38.9326 20.1035L38.9326 20.1035C38.9184 20.7022 38.9034 21.3374 38.8804 22.033C38.827 23.6529 38.8234 25.9441 38.8252 27.0352C38.5498 27.0167 38.2704 26.9988 37.9869 26.982C37.6171 26.96 37.2347 26.9308 36.843 26.8953C36.845 25.763 36.8545 23.5767 36.8959 22.0142C36.9094 21.505 36.9195 21.0119 36.9293 20.5304L36.9293 20.5304L36.9293 20.5304L36.9293 20.5303L36.9293 20.5303C36.9855 17.7755 37.034 15.4004 37.6727 12.548C38.2198 10.1043 38.9087 8.4863 39.7718 6.4591C40.0004 5.92223 40.2412 5.35666 40.4948 4.73946C40.7542 4.10814 41.0157 3.28691 41.2759 2.46981L41.276 2.46978C41.4403 1.95356 41.6042 1.43899 41.7667 0.975013C42.0909 0.904361 42.4167 0.840047 42.7439 0.781628ZM36.9515 2.60129C37.1801 2.49216 37.4097 2.3878 37.6403 2.28803C37.0369 3.3576 36.3704 4.5961 35.9063 5.62194C34.6196 8.46549 33.9814 10.1236 33.3158 13.1477C32.8594 15.2216 32.8099 16.7746 32.7562 18.457C32.7223 19.5221 32.6867 20.6391 32.5451 21.9729C32.3997 23.3434 32.1709 25.2521 32.0481 26.2624C31.6392 26.1955 31.2332 26.1264 30.833 26.0562C30.94 25.0092 31.1196 23.2468 31.2475 21.9606C31.3702 20.7269 31.4082 19.6778 31.4442 18.6843C31.5087 16.9034 31.5668 15.3014 32.0946 13.1362C32.8366 10.0919 33.4686 8.39288 34.9903 5.61326C35.5065 4.67036 36.2439 3.58027 36.9515 2.60129Z" fill="#F3C66D"/>
<path d="M22.0952 29.1393C22.6862 27.9807 23.3799 27.4984 24.7093 27.1696C26.9282 26.6208 26.8366 26.9713 28.8916 27.2093C32.2762 27.6012 33.958 28.7358 37.2087 29.7014C39.5993 30.4115 41.374 30.5912 43.8328 31.0549C48.1649 31.8717 49.5072 31.901 53.9049 31.5065C57.6455 31.171 60.0183 30.5272 63.7642 30.2466C66.9602 30.0073 70.2168 29.2448 73.3081 30.0437C75.0852 30.5029 75.2263 30.7072 76.6291 31.8248C78.0627 32.9668 78.2364 34.3911 78.4979 36.5341L78.5126 36.6547C78.798 38.9894 77.9812 40.8464 76.5254 42.7616C75.0066 44.7598 73.876 44.5577 71.4816 45.563C67.9819 47.0324 64.2235 46.7131 60.399 47.025C54.9163 47.4721 53.4501 47.2453 47.9573 46.907C42.3535 46.5619 39.9743 46.5336 34.5382 45.2127C30.247 44.17 31.2621 44.5406 26.2426 42.5698C24.7944 42.0012 22.2447 40.4102 21.696 39.0364C20.9638 37.2033 21.1138 36.0292 21.1324 34.0738C21.1491 32.3069 21.2817 30.7339 22.0952 29.1393Z" fill="#F3C66D"/>
<path fill-rule="evenodd" clip-rule="evenodd" d="M29.1431 43.7022C28.763 43.5577 28.3192 43.385 27.7779 43.1729L27.0322 39.8704L27.0707 35.8106L27.9583 30.7617L29.9746 27.433L30.3269 27.4364C30.6183 27.4954 30.8979 27.5604 31.1688 27.6304L29.2532 31.0589L28.2156 35.8215L28.1765 39.9524L29.1431 43.7022ZM37.2627 45.82C36.7782 45.7236 36.2718 45.6158 35.736 45.4945L34.886 40.7996L34.9448 34.6031L35.9336 29.2912C36.3314 29.4287 36.7505 29.5655 37.1996 29.6991L36.2451 34.3306L36.3363 40.8133L37.2627 45.82ZM45.4784 46.7589C44.9657 46.728 44.4791 46.6978 44.0104 46.6663L43.4241 42.0202L43.4781 36.3223L44.1883 31.1218C44.7134 31.2192 45.1938 31.3042 45.6415 31.3776L45.0081 35.9807L44.9541 41.6786L45.4784 46.7589ZM55.4059 47.2743C55.0208 47.2756 54.6465 47.2717 54.2729 47.2632L55.0261 42.1302L55.0619 38.3554L54.3081 31.4692C54.618 31.4389 54.9188 31.4065 55.212 31.3724L56.4507 36.8015L56.4075 41.3598L55.4059 47.2743ZM65.4726 46.7694C64.8964 46.8051 64.3166 46.8301 63.7338 46.8532L64.7963 42.2229L65.4576 36.8869L63.6926 30.2526C63.7166 30.2508 63.7406 30.2489 63.7646 30.2471C64.2305 30.2122 64.6976 30.1662 65.1654 30.1156C65.6889 31.3534 66.8658 34.3509 66.9875 36.5452C67.0666 37.9703 66.902 38.9306 66.7 40.1084C66.6293 40.5209 66.554 40.9601 66.483 41.4553C66.2308 43.2138 65.7044 45.7039 65.4726 46.7694ZM73.518 44.8339C73.419 44.8669 73.3177 44.9002 73.2137 44.9343C72.7879 45.0741 72.3179 45.2284 71.7828 45.4407C71.9125 44.6397 72.0822 43.4739 72.1205 42.6485C72.1845 41.272 72.1664 37.8053 72.1664 37.8053C72.1664 37.8053 71.8305 35.6652 71.7355 34.952C71.6405 34.2388 70.0265 30.0209 70.0265 30.0209L71.0095 29.7075C71.1412 29.7141 71.2728 29.7226 71.4041 29.733C71.7163 30.2606 72.9055 32.3212 73.3492 33.8276C73.7244 35.1015 73.7936 35.8883 73.9035 37.1389L73.9261 37.3946C74.0959 39.3075 74.0538 40.3968 73.8795 42.309C73.8097 43.0741 73.6575 44.038 73.518 44.8339Z" fill="#E2AE4A"/>
<path fill-rule="evenodd" clip-rule="evenodd" d="M24.7091 27.1694C23.3797 27.4982 22.686 27.9805 22.095 29.1391C21.2815 30.7337 21.1489 32.3067 21.1322 34.0737C21.1295 34.3496 21.1243 34.61 21.1193 34.8589C21.0889 36.3736 21.067 37.4618 21.6958 39.0362C22.2445 40.41 24.7942 42.001 26.2425 42.5696C28.9544 43.6344 29.9048 44.0157 30.8823 44.3058C31.714 44.5525 32.5653 44.7332 34.538 45.2125C39.422 46.3993 41.8384 46.5426 46.3428 46.8098C46.852 46.84 47.3879 46.8718 47.9571 46.9068C48.7239 46.9541 49.4122 46.9991 50.0439 47.0405C53.4416 47.2629 55.2024 47.3781 58.7305 47.1482C60.7985 46.1608 62.852 44.8469 63.9465 43.2117C64.1345 42.9308 64.3228 42.6627 64.5055 42.4025C65.5547 40.9081 66.4192 39.6769 65.9824 37.8175C65.7006 36.6178 65.1234 35.9942 64.3219 35.1283C64.2265 35.0252 64.1279 34.9187 64.0262 34.8073C62.1949 32.8015 57.8766 31.2587 57.8766 31.2587L57.1496 31.1139C56.1476 31.2615 55.0955 31.3995 53.9047 31.5063C49.507 31.9008 48.1647 31.8716 43.8326 31.0547C43.137 30.9235 42.4961 30.8151 41.8805 30.7109C40.3203 30.4469 38.9228 30.2104 37.2085 29.7012C36.0537 29.3582 35.0969 28.9938 34.1914 28.649C32.548 28.0232 31.0737 27.4618 28.8914 27.2091C28.6768 27.1842 28.4856 27.1582 28.3128 27.132L24.9957 27.1006C24.9046 27.1217 24.8092 27.1447 24.7091 27.1694Z" fill="#F7D674"/>
<path fill-rule="evenodd" clip-rule="evenodd" d="M30.3316 27.4366L29.974 27.4332C29.974 27.4332 28.5278 29.3664 27.9577 30.7619C27.3197 32.3237 27.2431 33.4118 27.1388 34.8926C27.1184 35.1816 27.097 35.4855 27.0702 35.8108L27.0558 35.984C26.9337 37.4593 26.8598 38.3521 27.0317 39.8705C27.1572 40.9791 27.5799 42.5389 27.7577 43.1644C28.297 43.3757 28.74 43.5481 29.1197 43.6926C28.9006 43.0296 28.3328 41.2316 28.1759 39.9526C27.9794 38.3495 28.0479 37.4272 28.2151 35.8216C28.4119 33.9323 28.5498 32.8397 29.2526 31.0591C29.739 29.8268 30.7971 28.1682 31.1525 27.6255C30.8881 27.5574 30.6155 27.4942 30.3316 27.4366ZM35.9192 29.2855C35.7152 30.1633 35.1278 32.7824 34.9442 34.6033C34.7014 37.0123 34.6619 38.3885 34.8855 40.7997C35.0286 42.3431 35.4886 44.5062 35.7088 45.4876C36.2461 45.6094 36.7536 45.7177 37.2392 45.8146C37.0127 44.8077 36.5104 42.471 36.3357 40.8135C36.0702 38.2934 35.9732 36.8495 36.2445 34.3307C36.4118 32.7782 36.9475 30.5897 37.1778 29.6919C36.7316 29.5588 36.3149 29.4225 35.9192 29.2855ZM44.1806 31.1196C44.0523 31.8677 43.6116 34.5151 43.4776 36.3225C43.3129 38.5422 43.286 39.7986 43.4235 42.0204C43.5189 43.5609 43.8504 45.7553 43.9946 46.6644C44.4646 46.6961 44.9528 46.7264 45.467 46.7574C45.3486 45.8619 45.0357 43.39 44.9535 41.6787C44.8467 39.4555 44.8328 38.1999 45.0075 35.9808C45.1341 34.3727 45.5274 32.0096 45.6356 31.3759C45.1874 31.3023 44.7064 31.2171 44.1806 31.1196ZM54.3154 31.4676C54.4426 32.2922 54.984 35.9143 55.0614 38.3555C55.1081 39.8292 55.1157 40.6586 55.0256 42.1304C54.9255 43.7637 54.5481 45.9962 54.3157 47.2633C54.6879 47.2714 55.0613 47.275 55.4457 47.2733C55.7257 45.9705 56.2655 43.2881 56.407 41.3599L56.4115 41.2984C56.539 39.5605 56.6127 38.5548 56.4502 36.8016C56.2777 34.9414 55.521 32.3073 55.2382 31.3685C54.9389 31.4034 54.6319 31.4366 54.3154 31.4676ZM65.4293 36.4734C65.4421 36.614 65.4514 36.7521 65.457 36.887C65.5229 38.4793 65.3142 39.5364 65.0528 40.8599L65.0528 40.8599L65.0528 40.86L65.0528 40.8601C64.988 41.1881 64.9201 41.5323 64.8522 41.9052C65.7334 40.622 66.3701 39.4669 65.9826 37.8173C65.8558 37.2776 65.6692 36.8544 65.4293 36.4734Z" fill="#F3C66D"/>
</svg>
