<svg width="108" height="159" viewBox="0 0 108 159" fill="none" xmlns="http://www.w3.org/2000/svg">
<path d="M14.0037 81C6.09542 83.9202 -8.63785 96.5887 6.68805 126.478C22.014 156.367 18.867 108.828 14.0037 81Z" fill="#0F1F56"/>
<path d="M6.34514 106.415C6.96335 99.2869 13.1569 82.6608 17.3777 75.1849L85.0777 70L88.8388 75.1849C92.7504 82.8054 97.0715 92.5884 98.7431 96.5273C100.415 100.466 102 106.983 102 112.543C102 119.397 99.9944 124.53 94.1044 131.422C88.2144 138.315 79.7704 139.252 74.672 141.383C67.4004 144.421 52.9829 145 43.7055 145C34.8652 145 26.9895 141.503 24.1477 140.056C20.6373 138.269 16.0459 133.658 12.4883 129.686C5.46755 121.849 5.59281 115.089 6.34514 106.415Z" fill="#4F6DB5"/>
<path d="M10.4657 48.7959C0.571932 62.1601 9.40035 72.6214 15.0513 76.1815C36.8676 93.7083 79.9443 82.2064 89.1154 66.8704C96.4524 54.6016 88.9302 39.5761 84.2519 33.5969C103.076 17.0024 89.827 15.9078 84.2519 20.5887C93.0119 6.74114 80.9092 8.51975 76.1924 15.1116C80.9092 5.92024 79.2531 0.910254 76.1924 0.186424C73.8765 -0.361289 69.1887 0.186421 66.4654 3.33577C63.6035 6.64543 55.7194 10.9581 51.7359 12.373C47.6599 13.2859 36.3951 16.5904 23.9445 22.5057C11.4939 28.421 9.77088 42.4972 10.4657 48.7959Z" fill="#4F6DB5"/>
<path d="M31.5148 53.4603C27.724 55.6175 27.5309 58.1537 28.4489 59.6121C28.3128 61.3314 31.158 62.1381 31.9096 62.3142C33.3752 62.6576 36.6224 62.8334 40.065 62.2811C43.5077 61.7287 45.0857 60.2643 45.4444 59.6012C45.95 57.5657 46.3323 55.3055 44.9126 53.4604C43.8003 52.0148 41.537 52.0148 38.6509 52.0147L38.6495 52.0147C36.0387 52.0147 34.0552 52.0147 31.5148 53.4603Z" fill="#AEC4D1"/>
<path d="M42.9797 57.6737C39.6588 59.1335 32.237 61.5755 29.1167 59.6642" stroke="#364C66" stroke-width="1.6" stroke-linecap="round"/>
<path d="M22.7214 48.6078C23.628 50.8621 22.2492 53.5367 19.6417 54.5817C17.0341 55.6267 14.1853 54.6464 13.2786 52.3922C12.372 50.1379 13.7508 47.4633 16.3583 46.4183C18.9659 45.3733 21.8147 46.3536 22.7214 48.6078Z" fill="#562528"/>
<path d="M20.7127 49.0119C20.7127 49.5948 20.258 50.0674 19.6973 50.0674C19.1365 50.0674 18.6818 49.5948 18.6818 49.0119C18.6818 48.429 19.1365 47.9564 19.6973 47.9564C20.258 47.9564 20.7127 48.429 20.7127 49.0119Z" fill="white"/>
<path d="M58.3998 47.774C57.3196 50.246 58.5035 53.2465 61.0441 54.4759C63.5847 55.7053 66.5199 54.698 67.6002 52.226C68.6804 49.754 67.4965 46.7535 64.9559 45.5241C62.4153 44.2947 59.4801 45.302 58.3998 47.774Z" fill="#562528"/>
<path d="M65.3272 48.512C65.3272 49.1182 64.8812 49.6097 64.3311 49.6097C63.7809 49.6097 63.3349 49.1182 63.3349 48.512C63.3349 47.9057 63.7809 47.4143 64.3311 47.4143C64.8812 47.4143 65.3272 47.9057 65.3272 48.512Z" fill="white"/>
<path d="M33.8272 79.3664C27.3216 82.3802 23.7755 81.0962 21.3279 78.0852C19.3706 79.2012 16.6047 77.9611 15.4664 77.2015C20.0678 92.4118 76.5632 88.066 85.6383 70.2994C79.7075 76.9459 70.8958 76.4027 67.2312 75.3003C62.7703 82.5445 53.1147 80.0738 48.8445 77.933C44.4198 84.1863 36.9893 81.4941 33.8272 79.3664Z" fill="#0F1F56"/>
<path d="M78.9424 140C48.0349 106.65 61.8014 87.4807 72.4808 82L85 138.188L78.9424 140Z" fill="#0F1F56"/>
<path d="M63.3038 99.1071C67.4559 74.0995 81.9016 80.3342 88.6055 86.5775C91.5182 89.29 95.742 93.5527 100.024 99.7529C101.757 102.262 107.212 107.968 107.939 116.545C108.665 125.122 102.749 125.458 100.024 124.295C104.591 135.352 99.5047 136.567 96.3906 135.792C97.7401 142.095 94.4443 144.575 92.2386 144.963C90.0328 145.35 83.2336 142.87 73.684 129.85C64.1343 116.829 62.1244 106.211 63.3038 99.1071Z" fill="#4F6DB5"/>
<path d="M16.2974 143.346C10.9407 151.674 17.8832 150.142 21.6122 147.713C21.7319 150.369 24.0641 151.014 25.2152 151.005C29.6917 150.969 39.3735 138.675 32.2435 136.614C25.2432 134.591 21.6542 135.019 16.2974 143.346Z" fill="#570139"/>
<path d="M47.4805 145.521C42.1238 153.849 49.0663 152.316 52.7953 149.888C52.915 152.544 55.2472 153.189 56.3983 153.18C60.8748 153.144 70.5566 140.85 63.4266 138.789C56.4263 136.766 52.8373 137.194 47.4805 145.521Z" fill="#570139"/>
</svg>
