<svg width="108" height="167" viewBox="0 0 108 167" fill="none" xmlns="http://www.w3.org/2000/svg">
<path d="M14.0037 96C6.09542 98.9202 -8.63785 111.589 6.68805 141.478C22.014 171.367 18.867 123.828 14.0037 96Z" fill="#B96C67"/>
<path d="M6.34514 121.415C6.96335 114.287 13.1569 97.6608 17.3777 90.1849L85.0777 85L88.8388 90.1849C92.7504 97.8054 97.0715 107.588 98.7431 111.527C100.415 115.466 102 121.983 102 127.543C102 134.397 99.9944 139.53 94.1044 146.422C88.2144 153.315 79.7704 154.252 74.672 156.383C67.4004 159.421 52.9829 160 43.7055 160C34.8652 160 26.9895 156.503 24.1477 155.056C20.6373 153.269 16.0459 148.658 12.4883 144.686C5.46755 136.849 5.59281 130.089 6.34514 121.415Z" fill="#D67C77"/>
<path d="M10.4657 63.7959C0.571932 77.1601 9.40035 87.6214 15.0513 91.1815C36.8676 108.708 79.9443 97.2064 89.1154 81.8704C96.4524 69.6016 88.9302 54.5761 84.2519 48.5969C103.076 32.0024 89.827 30.9078 84.2519 35.5887C93.0119 21.7411 80.9092 23.5197 76.1924 30.1116C80.9092 20.9202 79.2531 15.9103 76.1924 15.1864C73.8765 14.6387 69.1887 15.1864 66.4654 18.3358C63.6035 21.6454 55.7194 25.9581 51.7359 27.373C47.6599 28.2859 36.3951 31.5904 23.9445 37.5057C11.4939 43.421 9.77088 57.4972 10.4657 63.7959Z" fill="#D67C77"/>
<path d="M31.5148 68.4603C27.724 70.6175 27.5309 73.1537 28.4489 74.6121C28.3128 76.3314 31.158 77.1381 31.9096 77.3142C33.3752 77.6576 36.6224 77.8334 40.065 77.2811C43.5077 76.7287 45.0857 75.2643 45.4444 74.6012C45.95 72.5657 46.3323 70.3055 44.9126 68.4604C43.8003 67.0148 41.537 67.0148 38.6509 67.0147L38.6495 67.0147C36.0387 67.0147 34.0552 67.0147 31.5148 68.4603Z" fill="#FEA34A"/>
<path d="M42.9797 72.6737C39.6588 74.1335 32.237 76.5755 29.1167 74.6642" stroke="#B0661E" stroke-width="1.6" stroke-linecap="round"/>
<path d="M22.7214 63.6078C23.628 65.8621 22.2492 68.5367 19.6417 69.5817C17.0341 70.6267 14.1853 69.6464 13.2786 67.3922C12.372 65.1379 13.7508 62.4633 16.3583 61.4183C18.9659 60.3733 21.8147 61.3536 22.7214 63.6078Z" fill="#562528"/>
<path d="M20.7127 64.0119C20.7127 64.5948 20.258 65.0674 19.6973 65.0674C19.1365 65.0674 18.6818 64.5948 18.6818 64.0119C18.6818 63.429 19.1365 62.9564 19.6973 62.9564C20.258 62.9564 20.7127 63.429 20.7127 64.0119Z" fill="white"/>
<path d="M58.3998 62.774C57.3196 65.246 58.5035 68.2465 61.0441 69.4759C63.5847 70.7053 66.5199 69.698 67.6002 67.226C68.6804 64.754 67.4965 61.7535 64.9559 60.5241C62.4153 59.2947 59.4801 60.302 58.3998 62.774Z" fill="#562528"/>
<path d="M65.3272 63.512C65.3272 64.1182 64.8812 64.6097 64.3311 64.6097C63.7809 64.6097 63.3349 64.1182 63.3349 63.512C63.3349 62.9057 63.7809 62.4143 64.3311 62.4143C64.8812 62.4143 65.3272 62.9057 65.3272 63.512Z" fill="white"/>
<path d="M33.8272 94.3664C27.3216 97.3802 23.7755 96.0962 21.3279 93.0852C19.3706 94.2012 16.6047 92.9611 15.4664 92.2015C20.0678 107.412 76.5632 103.066 85.6383 85.2994C79.7075 91.9459 70.8958 91.4027 67.2312 90.3003C62.7703 97.5445 53.1147 95.0738 48.8445 92.933C44.4198 99.1863 36.9893 96.4941 33.8272 94.3664Z" fill="#B96C67"/>
<path d="M78.9424 155C48.0349 121.65 61.8014 102.481 72.4808 97L85 153.188L78.9424 155Z" fill="#B96C67"/>
<path d="M63.3038 114.107C67.4559 89.0995 81.9016 95.3342 88.6055 101.577C91.5182 104.29 95.742 108.553 100.024 114.753C101.757 117.262 107.212 122.968 107.939 131.545C108.665 140.122 102.749 140.458 100.024 139.295C104.591 150.352 99.5047 151.567 96.3906 150.792C97.7401 157.095 94.4443 159.575 92.2386 159.963C90.0328 160.35 83.2336 157.87 73.684 144.85C64.1343 131.829 62.1244 121.211 63.3038 114.107Z" fill="#D67C77"/>
<path d="M16.2974 158.346C10.9407 166.674 17.8832 165.142 21.6122 162.713C21.7319 165.369 24.0641 166.014 25.2152 166.005C29.6917 165.969 39.3735 153.675 32.2435 151.614C25.2432 149.591 21.6542 150.019 16.2974 158.346Z" fill="#562528"/>
<path d="M47.4805 160.521C42.1238 168.849 49.0663 167.316 52.7953 164.888C52.915 167.544 55.2472 168.189 56.3983 168.18C60.8748 168.144 70.5566 155.85 63.4266 153.789C56.4263 151.766 52.8373 152.194 47.4805 160.521Z" fill="#562528"/>
<path d="M25.0477 14.085C24.0143 18.4202 24.8451 35.4521 24.8451 35.4521L72.0166 35.8993C72.0166 35.8993 72.536 21.3734 71.5174 16.0927C70.4987 10.812 70.3582 9.52854 66.5053 5.28944C62.6523 1.05035 54.0332 0.327543 48.0032 0.270379C41.9732 0.213215 36.2408 0.977945 31.1648 4.95436C26.0889 8.93077 25.534 12.0449 25.0477 14.085Z" fill="#F3C66D"/>
<path fill-rule="evenodd" clip-rule="evenodd" d="M34.8023 31.9138C34.8023 31.9138 34.8379 24.2104 34.8962 22.0137C34.9097 21.5045 34.9197 21.0114 34.9296 20.5299L34.9296 20.5299L34.9296 20.5299L34.9296 20.5298L34.9296 20.5298C34.9858 17.775 35.0343 15.3999 35.673 12.5475C36.2201 10.1038 36.909 8.4858 37.7721 6.4586L37.7721 6.45852L37.7722 6.45824L37.7723 6.45813C38.0008 5.9214 38.2415 5.35598 38.4951 4.73896C38.7545 4.10764 39.016 3.28641 39.2762 2.46931L39.2762 2.46928C39.4405 1.95356 39.6042 1.4395 39.7665 0.975873C40.0908 0.905205 40.4166 0.840878 40.7438 0.782447C40.3765 2.20847 39.8679 4.17957 39.4786 5.67427C39.2037 6.72959 38.9374 7.61197 38.6851 8.44767L38.685 8.4478L38.685 8.4479L38.685 8.44794L38.685 8.44798C38.2338 9.94253 37.8276 11.2878 37.4988 13.2059C37.0318 15.9293 36.9892 17.7298 36.9329 20.1029L36.9329 20.103L36.9329 20.103C36.9187 20.7017 36.9037 21.3369 36.8807 22.0325C36.8083 24.2288 36.7869 31.9326 36.7869 31.9326L34.8023 31.9138ZM44.3779 0.356821C44.4636 1.60109 44.5756 3.42774 44.6014 4.79686C44.6228 5.93328 44.6056 6.74598 44.5863 7.65491L44.5863 7.65497L44.5863 7.65503L44.5863 7.65509L44.5863 7.65514L44.5863 7.65518C44.5758 8.14759 44.5647 8.66825 44.5589 9.28393L44.4799 17.6171C44.3347 19.5152 44.0381 23.9524 44.0381 23.9524C44.0381 23.9524 42.945 31.896 42.7284 33.2711L44.7102 33.5748C44.7102 33.5748 45.7518 25.9485 45.87 23.9697C45.9658 22.3667 45.9527 21.2179 45.9381 19.933C45.9302 19.2369 45.9219 18.5008 45.9301 17.6308C45.941 16.4873 45.9767 15.5199 46.0104 14.6049L46.0104 14.6048L46.0104 14.6048L46.0104 14.6047L46.0104 14.6046L46.0104 14.6046C46.0728 12.9157 46.1285 11.4057 46.0091 9.29769C45.9096 7.53968 45.8065 6.55562 45.5937 4.80626C45.425 3.41903 45.1179 1.57153 44.9014 0.327035C44.7266 0.335865 44.5521 0.345773 44.3779 0.356821ZM49.1709 0.289912C49.6807 1.52914 50.4268 3.41689 50.8604 4.8562C51.5106 7.01409 51.7457 8.28765 52.1434 10.4419L52.1797 10.6383C52.5665 12.7325 52.7177 14.0306 52.941 15.9471L52.941 15.9471C52.9716 16.2093 53.0035 16.4832 53.0375 16.7722C53.0976 17.2827 53.1552 17.7488 53.2094 18.1882L53.2094 18.1886C53.4296 19.9734 53.5955 21.318 53.6617 23.4025C53.7164 25.1264 53.7961 33.376 53.7961 33.376L55.5578 32.7516C55.5648 32.0146 55.5262 30.0503 55.4875 28.0859L55.4875 28.0854L55.4875 28.0854L55.4875 28.0853L55.4875 28.0852C55.4489 26.1207 55.4103 24.1562 55.4173 23.4192C55.4173 23.4192 55.0223 19.3683 54.6404 16.7874C54.2637 14.2411 54.0013 12.8189 53.4806 10.2945C53.3587 9.7031 53.263 9.18076 53.1731 8.69045C52.9398 7.41678 52.746 6.35935 52.2344 4.86923C51.7331 3.40944 50.7859 1.54917 50.1226 0.318983C49.8007 0.307004 49.4832 0.297429 49.1709 0.289912ZM55.3547 0.74731C56.1176 1.82232 57.4842 3.81569 58.2603 5.35374C59.2775 7.36941 59.6662 8.58061 60.3469 10.7158C61.3042 13.7186 61.74 15.4541 62.1045 18.5677C62.338 20.562 63.061 30.4009 63.061 30.4009L65.1239 30.2068C65.1239 30.2068 64.2137 20.0142 63.8675 17.8009L63.8306 17.565C63.3355 14.3968 63.04 12.5066 61.8093 9.4475C60.9562 7.32697 60.3906 6.14714 59.1107 4.22213C58.3903 3.13854 57.2504 1.79365 56.4749 0.913898C56.1026 0.853083 55.7288 0.797702 55.3547 0.74731ZM62.6639 2.64659C63.2634 3.57361 64.0744 4.87792 64.5909 5.91238C65.9971 8.7283 66.4742 10.4543 67.1909 13.4874C67.5254 14.9033 67.6646 15.8914 67.8309 17.0722C67.8975 17.5453 67.9685 18.0493 68.0582 18.6242C68.1942 19.4964 68.3304 20.2583 68.4582 20.9736C68.7784 22.765 69.0463 24.264 69.1288 26.4696C69.184 27.943 69.0931 30.2445 69.0931 30.2445L70.7703 30.474L70.8081 26.4855C70.8081 26.4855 69.9486 20.5178 69.5159 17.8545L69.5105 17.8216L69.5105 17.8215C69.0826 15.1877 69.0157 14.7761 68.4945 12.8587C68.443 12.669 68.393 12.4843 68.3443 12.3041C67.6253 9.64573 67.1659 7.94688 65.6643 5.42394C65.3155 4.83795 64.8408 4.16715 64.3746 3.54691C63.8403 3.215 63.2674 2.91594 62.6639 2.64659ZM35.6396 2.28917C35.0365 3.35837 34.3705 4.59612 33.9066 5.62144C32.6199 8.46499 31.9817 10.1231 31.3161 13.1472C30.8597 15.2211 30.8102 16.7741 30.7565 18.4565C30.7226 19.5216 30.6869 20.6386 30.5454 21.9724C30.3388 23.9195 29.9517 28.235 29.9517 28.235L28.7304 28.2235C28.7304 28.2235 29.0543 23.9058 29.2478 21.9601C29.3705 20.7264 29.4085 19.6773 29.4445 18.6838C29.509 16.9029 29.567 15.3009 30.0948 13.1357C30.8369 10.0914 31.4689 8.39238 32.9906 5.61275C33.5064 4.67047 34.2433 3.58118 34.9504 2.60268C35.1791 2.49346 35.4089 2.38902 35.6396 2.28917Z" fill="#E2AE4A"/>
<path fill-rule="evenodd" clip-rule="evenodd" d="M24.5421 25.2293C27.5927 25.8666 32.3865 26.7686 35.9862 26.9825C37.1505 27.0517 38.2431 27.1374 39.2858 27.2192C44.3308 27.615 48.2078 27.9192 53.379 25.8154C57.6453 24.0798 60.3751 22.7966 62.9307 19.1676C64.9114 16.3549 65.2026 15.4113 65.2196 12.0437C65.2299 10.0001 64.5748 8.73119 63.7434 7.12078C63.5242 6.69608 63.2926 6.24761 63.0578 5.75492C62.2898 4.14349 60.7708 2.68474 58.9777 1.4183C55.3441 0.530378 51.2889 0.301532 48.0027 0.270379C41.9727 0.213215 36.2403 0.977945 31.1644 4.95436C26.2954 8.76867 25.5863 11.7896 25.1073 13.8302C25.087 13.9169 25.0671 14.0018 25.0472 14.085C24.572 16.0786 24.491 20.7569 24.5421 25.2293Z" fill="#F7D674"/>
<path fill-rule="evenodd" clip-rule="evenodd" d="M45.5447 27.4885C44.8882 27.5096 44.2301 27.5068 43.5628 27.4872C43.7806 25.9386 44.0378 23.9529 44.0378 23.9529C44.0378 23.9529 44.3344 19.5157 44.4796 17.6176L44.5586 9.28444C44.5644 8.66873 44.5755 8.14806 44.586 7.65564L44.586 7.65559L44.586 7.65553L44.586 7.65547L44.586 7.65542C44.6053 6.74648 44.6226 5.93378 44.6011 4.79736C44.5753 3.42778 44.4632 1.60035 44.3776 0.356061C44.5517 0.345015 44.7261 0.335108 44.9009 0.326279C45.1174 1.57078 45.4246 3.41907 45.5934 4.80677C45.8062 6.55612 45.9093 7.54018 46.0089 9.29819C46.1282 11.4062 46.0725 12.9162 46.0102 14.6051L46.0102 14.6051L46.0102 14.6052L46.0102 14.6053L46.0102 14.6053C45.9764 15.5203 45.9407 16.4878 45.9298 17.6313C45.9216 18.5013 45.93 19.2374 45.9379 19.9335C45.9524 21.2184 45.9655 22.3672 45.8697 23.9702C45.8057 25.0426 45.6625 26.4365 45.5447 27.4885ZM55.4023 24.9669C54.8538 25.2076 54.2779 25.4479 53.6704 25.6963C53.681 24.9328 53.6832 24.0908 53.6614 23.403C53.5952 21.3185 53.4293 19.9739 53.2091 18.1892L53.2091 18.1891C53.1549 17.7496 53.0974 17.2833 53.0372 16.7727C53.0032 16.4837 52.9713 16.2098 52.9407 15.9475L52.9407 15.9475C52.7174 14.0311 52.5662 12.733 52.1794 10.6388L52.1431 10.4424C51.7454 8.28813 51.5103 7.01458 50.8601 4.8567C50.4263 3.4169 49.6799 1.52834 49.1701 0.289127C49.4823 0.29664 49.7998 0.306212 50.1216 0.318185C50.7849 1.54836 51.7327 3.40942 52.2341 4.86973C52.7457 6.35985 52.9395 7.41728 53.1728 8.69096C53.2627 9.18126 53.3584 9.70361 53.4803 10.295C54.001 12.8194 54.2634 14.2416 54.6402 16.7879C55.0221 19.3688 55.417 23.4197 55.417 23.4197L55.4023 24.9669ZM63.8632 17.7755C63.604 18.1938 63.2963 18.6487 62.9313 19.1671C62.7011 19.494 62.4695 19.8019 62.2354 20.0927C62.2015 19.5586 62.1586 19.0325 62.1042 18.5682C61.7397 15.4546 61.304 13.7191 60.3466 10.7163C59.6659 8.58112 59.2772 7.36992 58.26 5.35424C57.4835 3.81552 56.1161 1.82108 55.3534 0.746397C55.7274 0.796765 56.1011 0.852119 56.4733 0.912904C57.2488 1.79262 58.3896 3.13843 59.1105 4.22263C60.3903 6.14764 60.9559 7.32747 61.809 9.448C63.0397 12.5071 63.3352 14.3973 63.8303 17.5655L63.8632 17.7755ZM40.7439 0.781628C40.3765 2.20776 39.8677 4.17961 39.4783 5.67477C39.2034 6.7302 38.937 7.61265 38.6847 8.44842L38.6847 8.44844L38.6847 8.44848L38.6847 8.44849C38.2335 9.94304 37.8274 11.2883 37.4985 13.2064C37.0315 15.9298 36.9889 17.7303 36.9326 20.1034L36.9326 20.1035L36.9326 20.1035C36.9184 20.7022 36.9034 21.3374 36.8804 22.033C36.827 23.6529 36.8234 25.9441 36.8252 27.0352C36.5498 27.0167 36.2704 26.9988 35.9869 26.982C35.6171 26.96 35.2347 26.9308 34.843 26.8953C34.845 25.763 34.8545 23.5767 34.8959 22.0142C34.9094 21.505 34.9195 21.0119 34.9293 20.5304L34.9293 20.5304L34.9293 20.5304L34.9293 20.5303L34.9293 20.5303C34.9855 17.7755 35.034 15.4004 35.6727 12.548C36.2198 10.1043 36.9087 8.4863 37.7718 6.4591C38.0004 5.92223 38.2412 5.35666 38.4948 4.73946C38.7542 4.10814 39.0157 3.28691 39.2759 2.46981L39.276 2.46978C39.4403 1.95356 39.6042 1.43899 39.7667 0.975013C40.0909 0.904361 40.4167 0.840047 40.7439 0.781628ZM34.9515 2.60129C35.1801 2.49216 35.4097 2.3878 35.6403 2.28803C35.0369 3.3576 34.3704 4.5961 33.9063 5.62194C32.6196 8.46549 31.9814 10.1236 31.3158 13.1477C30.8594 15.2216 30.8099 16.7746 30.7562 18.457C30.7223 19.5221 30.6867 20.6391 30.5451 21.9729C30.3997 23.3434 30.1709 25.2521 30.0481 26.2624C29.6392 26.1955 29.2332 26.1264 28.833 26.0562C28.94 25.0092 29.1196 23.2468 29.2475 21.9606C29.3702 20.7269 29.4082 19.6778 29.4442 18.6843C29.5087 16.9034 29.5668 15.3014 30.0946 13.1362C30.8366 10.0919 31.4686 8.39288 32.9903 5.61326C33.5065 4.67036 34.2439 3.58027 34.9515 2.60129Z" fill="#F3C66D"/>
<path d="M20.0952 29.1393C20.6862 27.9807 21.3799 27.4984 22.7093 27.1696C24.9282 26.6208 24.8366 26.9713 26.8916 27.2093C30.2762 27.6012 31.958 28.7358 35.2087 29.7014C37.5993 30.4115 39.374 30.5912 41.8328 31.0549C46.1649 31.8717 47.5072 31.901 51.9049 31.5065C55.6455 31.171 58.0183 30.5272 61.7642 30.2466C64.9602 30.0073 68.2168 29.2448 71.3081 30.0437C73.0852 30.5029 73.2263 30.7072 74.6291 31.8248C76.0627 32.9668 76.2364 34.3911 76.4979 36.5341L76.5126 36.6547C76.798 38.9894 75.9812 40.8464 74.5254 42.7616C73.0066 44.7598 71.876 44.5577 69.4816 45.563C65.9819 47.0324 62.2235 46.7131 58.399 47.025C52.9163 47.4721 51.4501 47.2453 45.9573 46.907C40.3535 46.5619 37.9743 46.5336 32.5382 45.2127C28.247 44.17 29.2621 44.5406 24.2426 42.5698C22.7944 42.0012 20.2447 40.4102 19.696 39.0364C18.9638 37.2033 19.1138 36.0292 19.1324 34.0738C19.1491 32.3069 19.2817 30.7339 20.0952 29.1393Z" fill="#F3C66D"/>
<path fill-rule="evenodd" clip-rule="evenodd" d="M27.1431 43.7022C26.763 43.5577 26.3192 43.385 25.7779 43.1729L25.0322 39.8704L25.0707 35.8106L25.9583 30.7617L27.9746 27.433L28.3269 27.4364C28.6183 27.4954 28.8979 27.5604 29.1688 27.6304L27.2532 31.0589L26.2156 35.8215L26.1765 39.9524L27.1431 43.7022ZM35.2627 45.82C34.7782 45.7236 34.2718 45.6158 33.736 45.4945L32.886 40.7996L32.9448 34.6031L33.9336 29.2912C34.3314 29.4287 34.7505 29.5655 35.1996 29.6991L34.2451 34.3306L34.3363 40.8133L35.2627 45.82ZM43.4784 46.7589C42.9657 46.728 42.4791 46.6978 42.0104 46.6663L41.4241 42.0202L41.4781 36.3223L42.1883 31.1218C42.7134 31.2192 43.1938 31.3042 43.6415 31.3776L43.0081 35.9807L42.9541 41.6786L43.4784 46.7589ZM53.4059 47.2743C53.0208 47.2756 52.6465 47.2717 52.2729 47.2632L53.0261 42.1302L53.0619 38.3554L52.3081 31.4692C52.618 31.4389 52.9188 31.4065 53.212 31.3724L54.4507 36.8015L54.4075 41.3598L53.4059 47.2743ZM63.4726 46.7694C62.8964 46.8051 62.3166 46.8301 61.7338 46.8532L62.7963 42.2229L63.4576 36.8869L61.6926 30.2526C61.7166 30.2508 61.7406 30.2489 61.7646 30.2471C62.2305 30.2122 62.6976 30.1662 63.1654 30.1156C63.6889 31.3534 64.8658 34.3509 64.9875 36.5452C65.0666 37.9703 64.902 38.9306 64.7 40.1084C64.6293 40.5209 64.554 40.9601 64.483 41.4553C64.2308 43.2138 63.7044 45.7039 63.4726 46.7694ZM71.518 44.8339C71.419 44.8669 71.3177 44.9002 71.2137 44.9343C70.7879 45.0741 70.3179 45.2284 69.7828 45.4407C69.9125 44.6397 70.0822 43.4739 70.1205 42.6485C70.1845 41.272 70.1664 37.8053 70.1664 37.8053C70.1664 37.8053 69.8305 35.6652 69.7355 34.952C69.6405 34.2388 68.0265 30.0209 68.0265 30.0209L69.0095 29.7075C69.1412 29.7141 69.2728 29.7226 69.4041 29.733C69.7163 30.2606 70.9055 32.3212 71.3492 33.8276C71.7244 35.1015 71.7936 35.8883 71.9035 37.1389L71.9261 37.3946C72.0959 39.3075 72.0538 40.3968 71.8795 42.309C71.8097 43.0741 71.6575 44.038 71.518 44.8339Z" fill="#E2AE4A"/>
<path fill-rule="evenodd" clip-rule="evenodd" d="M22.7091 27.1694C21.3797 27.4982 20.686 27.9805 20.095 29.1391C19.2815 30.7337 19.1489 32.3067 19.1322 34.0737C19.1295 34.3496 19.1243 34.61 19.1193 34.8589C19.0889 36.3736 19.067 37.4618 19.6958 39.0362C20.2445 40.41 22.7942 42.001 24.2425 42.5696C26.9544 43.6344 27.9048 44.0157 28.8823 44.3058C29.714 44.5525 30.5653 44.7332 32.538 45.2125C37.422 46.3993 39.8384 46.5426 44.3428 46.8098C44.852 46.84 45.3879 46.8718 45.9571 46.9068C46.7239 46.9541 47.4122 46.9991 48.0439 47.0405C51.4416 47.2629 53.2024 47.3781 56.7305 47.1482C58.7985 46.1608 60.852 44.8469 61.9465 43.2117C62.1345 42.9308 62.3228 42.6627 62.5055 42.4025C63.5547 40.9081 64.4192 39.6769 63.9824 37.8175C63.7006 36.6178 63.1234 35.9942 62.3219 35.1283C62.2265 35.0252 62.1279 34.9187 62.0262 34.8073C60.1949 32.8015 55.8766 31.2587 55.8766 31.2587L55.1496 31.1139C54.1476 31.2615 53.0955 31.3995 51.9047 31.5063C47.507 31.9008 46.1647 31.8716 41.8326 31.0547C41.137 30.9235 40.4961 30.8151 39.8805 30.7109C38.3203 30.4469 36.9228 30.2104 35.2085 29.7012C34.0537 29.3582 33.0969 28.9938 32.1914 28.649C30.548 28.0232 29.0737 27.4618 26.8914 27.2091C26.6768 27.1842 26.4856 27.1582 26.3128 27.132L22.9957 27.1006C22.9046 27.1217 22.8092 27.1447 22.7091 27.1694Z" fill="#F7D674"/>
<path fill-rule="evenodd" clip-rule="evenodd" d="M28.3316 27.4366L27.974 27.4332C27.974 27.4332 26.5278 29.3664 25.9577 30.7619C25.3197 32.3237 25.2431 33.4118 25.1388 34.8926C25.1184 35.1816 25.097 35.4855 25.0702 35.8108L25.0558 35.984C24.9337 37.4593 24.8598 38.3521 25.0317 39.8705C25.1572 40.9791 25.5799 42.5389 25.7577 43.1644C26.297 43.3757 26.74 43.5481 27.1197 43.6926C26.9006 43.0296 26.3328 41.2316 26.1759 39.9526C25.9794 38.3495 26.0479 37.4272 26.2151 35.8216C26.4119 33.9323 26.5498 32.8397 27.2526 31.0591C27.739 29.8268 28.7971 28.1682 29.1525 27.6255C28.8881 27.5574 28.6155 27.4942 28.3316 27.4366ZM33.9192 29.2855C33.7152 30.1633 33.1278 32.7824 32.9442 34.6033C32.7014 37.0123 32.6619 38.3885 32.8855 40.7997C33.0286 42.3431 33.4886 44.5062 33.7088 45.4876C34.2461 45.6094 34.7536 45.7177 35.2392 45.8146C35.0127 44.8077 34.5104 42.471 34.3357 40.8135C34.0702 38.2934 33.9732 36.8495 34.2445 34.3307C34.4118 32.7782 34.9475 30.5897 35.1778 29.6919C34.7316 29.5588 34.3149 29.4225 33.9192 29.2855ZM42.1806 31.1196C42.0523 31.8677 41.6116 34.5151 41.4776 36.3225C41.3129 38.5422 41.286 39.7986 41.4235 42.0204C41.5189 43.5609 41.8504 45.7553 41.9946 46.6644C42.4646 46.6961 42.9528 46.7264 43.467 46.7574C43.3486 45.8619 43.0357 43.39 42.9535 41.6787C42.8467 39.4555 42.8328 38.1999 43.0075 35.9808C43.1341 34.3727 43.5274 32.0096 43.6356 31.3759C43.1874 31.3023 42.7064 31.2171 42.1806 31.1196ZM52.3154 31.4676C52.4426 32.2922 52.984 35.9143 53.0614 38.3555C53.1081 39.8292 53.1157 40.6586 53.0256 42.1304C52.9255 43.7637 52.5481 45.9962 52.3157 47.2633C52.6879 47.2714 53.0613 47.275 53.4457 47.2733C53.7257 45.9705 54.2655 43.2881 54.407 41.3599L54.4115 41.2984C54.539 39.5605 54.6127 38.5548 54.4502 36.8016C54.2777 34.9414 53.521 32.3073 53.2382 31.3685C52.9389 31.4034 52.6319 31.4366 52.3154 31.4676ZM63.4293 36.4734C63.4421 36.614 63.4514 36.7521 63.457 36.887C63.5229 38.4793 63.3142 39.5364 63.0528 40.8599L63.0528 40.8599L63.0528 40.86L63.0528 40.8601C62.988 41.1881 62.9201 41.5323 62.8522 41.9052C63.7334 40.622 64.3701 39.4669 63.9826 37.8173C63.8558 37.2776 63.6692 36.8544 63.4293 36.4734Z" fill="#F3C66D"/>
</svg>
