<svg width="108" height="167" viewBox="0 0 108 167" fill="none" xmlns="http://www.w3.org/2000/svg">
<path d="M14.0037 92C6.09542 94.9202 -8.63785 107.589 6.68805 137.478C22.014 167.367 18.867 119.828 14.0037 92Z" fill="#B96C67"/>
<path d="M6.34514 117.415C6.96335 110.287 13.1569 93.6608 17.3777 86.1849L85.0777 81L88.8388 86.1849C92.7504 93.8054 97.0715 103.588 98.7431 107.527C100.415 111.466 102 117.983 102 123.543C102 130.397 99.9944 135.53 94.1044 142.422C88.2144 149.315 79.7704 150.252 74.672 152.383C67.4004 155.421 52.9829 156 43.7055 156C34.8652 156 26.9895 152.503 24.1477 151.056C20.6373 149.269 16.0459 144.658 12.4883 140.686C5.46755 132.849 5.59281 126.089 6.34514 117.415Z" fill="#D67C77"/>
<path d="M10.4657 59.7959C0.571932 73.1601 9.40035 83.6214 15.0513 87.1815C36.8676 104.708 79.9443 93.2064 89.1154 77.8704C96.4524 65.6016 88.9302 50.5761 84.2519 44.5969C103.076 28.0024 89.827 26.9078 84.2519 31.5887C93.0119 17.7411 80.9092 19.5197 76.1924 26.1116C80.9092 16.9202 79.2531 11.9103 76.1924 11.1864C73.8765 10.6387 69.1887 11.1864 66.4654 14.3358C63.6035 17.6454 55.7194 21.9581 51.7359 23.373C47.6599 24.2859 36.3951 27.5904 23.9445 33.5057C11.4939 39.421 9.77088 53.4972 10.4657 59.7959Z" fill="#D67C77"/>
<path d="M31.5148 64.4603C27.724 66.6175 27.5309 69.1537 28.4489 70.6121C28.3128 72.3314 31.158 73.1381 31.9096 73.3142C33.3752 73.6576 36.6224 73.8334 40.065 73.2811C43.5077 72.7287 45.0857 71.2643 45.4444 70.6012C45.95 68.5657 46.3323 66.3055 44.9126 64.4604C43.8003 63.0148 41.537 63.0148 38.6509 63.0147L38.6495 63.0147C36.0387 63.0147 34.0552 63.0147 31.5148 64.4603Z" fill="#FEA34A"/>
<path d="M42.9797 68.6737C39.6588 70.1335 32.237 72.5755 29.1167 70.6642" stroke="#B0661E" stroke-width="1.6" stroke-linecap="round"/>
<path d="M22.7214 59.6078C23.628 61.8621 22.2492 64.5367 19.6417 65.5817C17.0341 66.6267 14.1853 65.6464 13.2786 63.3922C12.372 61.1379 13.7508 58.4633 16.3583 57.4183C18.9659 56.3733 21.8147 57.3536 22.7214 59.6078Z" fill="#562528"/>
<path d="M20.7127 60.0119C20.7127 60.5948 20.258 61.0674 19.6973 61.0674C19.1365 61.0674 18.6818 60.5948 18.6818 60.0119C18.6818 59.429 19.1365 58.9564 19.6973 58.9564C20.258 58.9564 20.7127 59.429 20.7127 60.0119Z" fill="white"/>
<path d="M58.3998 58.774C57.3196 61.246 58.5035 64.2465 61.0441 65.4759C63.5847 66.7053 66.5199 65.698 67.6002 63.226C68.6804 60.754 67.4965 57.7535 64.9559 56.5241C62.4153 55.2947 59.4801 56.302 58.3998 58.774Z" fill="#562528"/>
<path d="M65.3272 59.512C65.3272 60.1182 64.8812 60.6097 64.3311 60.6097C63.7809 60.6097 63.3349 60.1182 63.3349 59.512C63.3349 58.9057 63.7809 58.4143 64.3311 58.4143C64.8812 58.4143 65.3272 58.9057 65.3272 59.512Z" fill="white"/>
<path d="M33.8272 90.3664C27.3216 93.3802 23.7755 92.0962 21.3279 89.0852C19.3706 90.2012 16.6047 88.9611 15.4664 88.2015C20.0678 103.412 76.5632 99.066 85.6383 81.2994C79.7075 87.9459 70.8958 87.4027 67.2312 86.3003C62.7703 93.5445 53.1147 91.0738 48.8445 88.933C44.4198 95.1863 36.9893 92.4941 33.8272 90.3664Z" fill="#B96C67"/>
<path d="M78.9424 151C48.0349 117.65 61.8014 98.4807 72.4808 93L85 149.188L78.9424 151Z" fill="#B96C67"/>
<path d="M63.3038 110.107C67.4559 85.0995 81.9016 91.3342 88.6055 97.5775C91.5182 100.29 95.742 104.553 100.024 110.753C101.757 113.262 107.212 118.968 107.939 127.545C108.665 136.122 102.749 136.458 100.024 135.295C104.591 146.352 99.5047 147.567 96.3906 146.792C97.7401 153.095 94.4443 155.575 92.2386 155.963C90.0328 156.35 83.2336 153.87 73.684 140.85C64.1343 127.829 62.1244 117.211 63.3038 110.107Z" fill="#D67C77"/>
<path d="M16.2974 154.346C10.9407 162.674 17.8832 161.142 21.6122 158.713C21.7319 161.369 24.0641 162.014 25.2152 162.005C29.6917 161.969 39.3735 149.675 32.2435 147.614C25.2432 145.591 21.6542 146.019 16.2974 154.346Z" fill="#562528"/>
<path d="M47.4805 156.521C42.1238 164.849 49.0663 163.316 52.7953 160.888C52.915 163.544 55.2472 164.189 56.3983 164.18C60.8748 164.144 70.5566 151.85 63.4266 149.789C56.4263 147.766 52.8373 148.194 47.4805 156.521Z" fill="#562528"/>
<path d="M22.4675 14.1608C27.3752 9.31768 38.6273 7.04808 38.6273 7.04808C38.6273 7.04808 45.2148 6.14299 49.4368 6.38985C55.3558 6.73594 56.3234 6.96963 61.1218 7.87843C69.0791 9.52045 75.8878 14.5138 80.3154 20.3575C82.4642 23.1934 82.3063 28.3091 82.0889 30.3388C81.838 32.6808 75.4075 36.671 69.4283 38.695C60.686 41.6542 55.0571 40.3399 45.8325 40.0365C38.2326 39.7866 36.8939 40.1845 28.7358 38.2051C25.2291 37.3543 21.4995 35.05 19.3565 32.1468C17.0761 29.0577 16.1254 25.9575 16.4789 23.6265C17.1349 19.3017 19.3541 17.2334 22.4675 14.1608Z" fill="#F4B396"/>
<path fill-rule="evenodd" clip-rule="evenodd" d="M27.0421 37.3898C27.0421 37.3898 27.0806 33.513 27.1585 31.039C27.3802 23.9936 30.6278 19.7032 30.6278 19.7032C30.6278 19.7032 33.174 15.4747 35.2992 13.415C37.5425 11.2408 40.8738 8.73972 40.8738 8.73972C40.8738 8.73972 35.3079 10.6557 31.9959 13.5697C29.4829 15.7806 28.726 16.4894 27.1675 19.4514C25.2362 23.122 24.4462 26.623 25.0745 30.7228C25.4867 33.4124 27.0421 37.3898 27.0421 37.3898Z" fill="#F29D77"/>
<path fill-rule="evenodd" clip-rule="evenodd" d="M67.0676 12.3271C68.907 13.9998 70.5952 15.9211 71.4465 17.8795C73.5283 22.6686 73.4887 25.3584 71.6486 28.4504C70.1546 30.9607 68.2935 31.762 65.9116 32.7876C65.4904 32.9689 65.0529 33.1573 64.5983 33.3634C61.3956 34.815 59.0116 34.9351 56.0518 35.0843C55.1225 35.1311 54.1365 35.1807 53.0505 35.2754C47.9355 35.7212 44.7969 35.5226 40.1139 35.2264C39.5396 35.19 38.9419 35.1522 38.3146 35.1139C36.857 35.025 35.5618 35.0036 34.3443 34.9836C31.1691 34.9312 28.5224 34.8875 24.9014 33.6771C22.7339 32.9526 20.1557 31.5205 18.1314 30.278C16.8048 27.8218 16.2889 25.4506 16.5686 23.5738C17.1914 19.3959 19.1793 17.3185 21.9792 14.3926C22.0698 14.2979 22.1612 14.2024 22.2535 14.1059C26.8942 9.25023 37.4799 6.91967 37.4799 6.91967C37.4799 6.91967 43.6747 5.97735 47.6399 6.19732C53.1989 6.50571 56.4031 7.23114 61.521 9.49494C61.7215 9.58364 61.9178 9.66999 62.1103 9.75473C63.9269 10.554 65.4165 11.2094 67.0676 12.3271Z" fill="#F8C5AF"/>
<path fill-rule="evenodd" clip-rule="evenodd" d="M27.0846 34.2984C26.6892 34.2056 26.2842 34.0994 25.8671 33.9777C25.5374 32.8946 25.2274 31.7202 25.0745 30.7228C24.4462 26.623 25.2362 23.122 27.1675 19.4514C28.726 16.4894 29.4829 15.7806 31.9959 13.5697C35.3079 10.6557 40.8738 8.73972 40.8738 8.73972C40.8738 8.73972 37.5425 11.2408 35.2992 13.415C33.174 15.4747 30.6278 19.7032 30.6278 19.7032C30.6278 19.7032 27.3802 23.9936 27.1585 31.039C27.1278 32.0152 27.1031 33.2098 27.0846 34.2984Z" fill="#F4B396"/>
<path fill-rule="evenodd" clip-rule="evenodd" d="M66.9656 12.2951C66.7492 11.9561 64.1095 9.96248 62.8168 9.00805L61.1622 7.87451C58.3399 7.30981 55.4797 6.87973 52.239 6.59473L59.4711 11.4923L66.9656 12.2951Z" fill="#F8C5AF"/>
<path d="M48.971 7.04503L48.1903 6.96141C48.1903 6.96141 48.5722 6.48807 48.5862 6.21419C48.5989 5.96731 48.4776 5.83443 48.3325 5.63427C48.107 5.3232 47.6633 5.24674 47.273 5.20493C46.9321 5.16842 46.3327 5.36323 45.9905 5.3834C45.0034 5.44156 44.447 5.46401 43.4589 5.42806C42.1719 5.38125 41.4268 5.39911 40.18 5.07683C39.4168 4.87956 39.0521 4.55085 38.2785 4.39937C37.83 4.31155 37.5701 4.29802 37.1162 4.27438L37.1075 4.27393C36.5834 4.24664 36.2056 4.57095 35.7637 4.2879C35.508 4.1242 35.2757 3.6829 35.2757 3.6829L35.8807 3.19497C35.8807 3.19497 36.4243 2.52317 36.9179 2.35852C37.1296 2.28789 37.2622 2.30471 37.4811 2.26092C38.8257 1.99194 39.4084 1.18729 40.771 1.03409C41.9898 0.897074 42.6945 1.11168 43.8937 1.3686C44.9638 1.59785 45.7131 1.52387 46.5675 2.20775C47.0753 2.6142 47.2048 2.9979 47.6131 3.50419C48.212 4.24675 48.9517 4.4718 49.1466 5.40563C49.2782 6.03594 48.971 7.04503 48.971 7.04503Z" fill="#9DBE98"/>
<path fill-rule="evenodd" clip-rule="evenodd" d="M35.3945 3.87947L37.7794 3.16682L40.8213 2.782L44.1001 3.13323L46.6345 3.79952L48.1903 4.7558L48.9403 5.86266L48.5823 7.00352L48.1911 6.96162C48.1911 6.96162 48.573 6.48829 48.587 6.2144C48.5983 5.99375 48.5026 5.86415 48.3786 5.6962C48.3638 5.67624 48.3487 5.65574 48.3333 5.63449C48.1078 5.32342 47.6641 5.24696 47.2738 5.20514C47.0714 5.18346 46.7778 5.24334 46.5011 5.29979C46.3117 5.3384 46.1303 5.37542 45.9912 5.38361C45.0042 5.44177 44.4478 5.46422 43.4596 5.42827C43.2951 5.42229 43.1395 5.41736 42.9905 5.41265C41.974 5.38047 41.2683 5.35813 40.1808 5.07705C39.828 4.98585 39.5603 4.86656 39.2981 4.74968C38.993 4.61373 38.6953 4.48104 38.2793 4.39958C37.8308 4.31176 37.5709 4.29823 37.117 4.2746L37.1083 4.27414C36.9079 4.26371 36.7289 4.30468 36.5595 4.34344C36.2859 4.40606 36.0374 4.46293 35.7644 4.28811C35.6217 4.19673 35.4863 4.01881 35.3945 3.87947Z" fill="#90AE8B"/>
<path d="M50.3961 5.54483C50.1167 6.13777 49.9082 7.15078 49.9082 7.15078L50.6889 7.2344C50.6889 7.2344 50.9845 6.75309 51.2409 6.50391C51.65 6.10647 51.9808 5.99786 52.5039 5.77062C53.42 5.37269 54.0269 5.43829 55.0076 5.24919C56.4468 4.97168 57.2866 4.97877 58.7074 4.619C59.6793 4.37293 60.1573 3.91234 61.1582 3.85501C61.8316 3.81644 62.2328 4.24335 62.8756 4.03899C63.4542 3.85508 64.0857 3.06313 64.0857 3.06313L64.1442 2.51667C64.1442 2.51667 63.4721 2.92261 62.9927 2.94606C62.7477 2.95804 62.6107 2.91624 62.3682 2.87916C60.9687 2.66511 60.425 1.75689 59.0503 1.41827C57.9785 1.15426 57.3323 0.95916 56.2399 1.11722C54.7332 1.33521 54.0032 2.02129 52.805 2.96022C51.7189 3.81124 50.9842 4.29668 50.3961 5.54483Z" fill="#9DBE98"/>
<path fill-rule="evenodd" clip-rule="evenodd" d="M63.9344 3.23536L62.6988 3.46626L61.0845 3.05644L59.6263 2.66335L56.3754 2.78889L53.6653 3.76199L51.3038 5.16724L50.2501 7.1861L50.4817 7.21091L50.7306 7.16473C50.8219 7.02303 51.0423 6.69409 51.2395 6.50246C51.5971 6.15506 51.8948 6.02834 52.3135 5.85018C52.3738 5.82451 52.4366 5.79778 52.5025 5.76917C53.117 5.50222 53.5924 5.44388 54.1349 5.3773C54.4011 5.34464 54.6834 5.30999 55.0062 5.24774C55.6022 5.13282 56.0954 5.0667 56.5696 5.00313C57.2406 4.91319 57.8736 4.82833 58.706 4.61755C59.0993 4.51796 59.4118 4.38324 59.7107 4.25433C60.1504 4.06472 60.561 3.88769 61.1568 3.85357C61.4513 3.8367 61.6937 3.90885 61.9271 3.9783C62.2273 4.06765 62.5125 4.15253 62.8742 4.03754C63.2805 3.90839 63.7129 3.47939 63.9344 3.23536Z" fill="#90AE8B"/>
<path d="M48.95 4.19419C49.0952 5.32087 48.6401 7.08655 48.6401 7.08655C48.6401 7.08655 49.0511 7.41951 49.3687 7.47255C49.7417 7.53484 50.3147 7.26593 50.3147 7.26593C50.3147 7.26593 50.4667 5.47378 50.32 4.34095C50.223 3.59092 50.1076 3.17812 49.9068 2.44896C49.715 1.75244 49.325 0.692901 49.325 0.692901C49.325 0.692901 48.7774 0.7083 48.5313 0.915826C48.1198 1.26266 48.3845 2.28589 48.3845 2.28589C48.3845 2.28589 48.8506 3.4233 48.95 4.19419Z" fill="#D29A81"/>
</svg>
