<svg width="132" height="157" viewBox="0 0 132 157" fill="none" xmlns="http://www.w3.org/2000/svg">
<mask id="mask0_5374_2625" style="mask-type:alpha" maskUnits="userSpaceOnUse" x="24" y="85" width="93" height="70">
<path d="M26.1756 124.379C30.8463 108.994 37.4387 92.9415 43.826 88.6146C64.8244 86.0505 108.612 83.3261 111.678 88.6146C114.744 93.903 115.989 103.238 116.229 107.244C116.229 111.451 116.085 121.932 115.51 130.201C114.935 138.47 113.115 145.666 112.277 148.23C111.319 150.073 108.349 152.653 104.133 148.23C100.175 144.077 99.2152 136.987 99.2117 133.383C99.1212 137.458 98.5494 145.459 96.8274 149.552C95.007 153.879 90.3203 153.038 88.2045 152.076C81.402 147.653 77.7053 137.893 76.7073 133.567C77.2821 139.913 76.5878 142.191 74.2324 143.073C78.0648 144.154 79.2625 152.013 72.7953 152.688C50.5668 155.006 41.8498 154.2 36.0214 150.674C30.3526 145.987 22.0013 138.128 26.1756 124.379Z" fill="#D9D9D9"/>
<path d="M74.2324 143.073C78.0648 144.154 79.2625 152.013 72.7953 152.688C50.5668 155.006 41.8498 154.2 36.0214 150.674C30.3526 145.987 22.0013 138.128 26.1756 124.379C30.8463 108.994 37.4387 92.9415 43.826 88.6146C64.8244 86.0505 108.612 83.3261 111.678 88.6146C114.744 93.903 115.989 103.238 116.229 107.244C116.229 111.451 116.085 121.932 115.51 130.201C114.935 138.47 113.115 145.666 112.277 148.23C111.319 150.073 108.349 152.653 104.133 148.23C99.9173 143.807 99.1029 136.05 99.2226 132.725C99.1827 136.531 98.6478 145.225 96.8274 149.552C95.007 153.879 90.3203 153.038 88.2045 152.076C81.402 147.653 77.7053 137.893 76.7073 133.567M74.2324 143.073C76.5878 142.191 77.2821 139.913 76.7073 133.567M74.2324 143.073C69.7214 144.194 54.9344 146.692 47.3654 143.422M76.7073 133.567C75.1503 128.318 64.2993 112.677 50.7901 119.696" stroke="black"/>
</mask>
<g mask="url(#mask0_5374_2625)">
<path d="M27.4967 113.453C34.4128 100.869 37.8631 93.641 41.5451 88.7073C62.5975 86.1457 108.673 83.424 111.746 88.7072C114.82 93.9903 116.069 103.316 116.309 107.318C116.309 111.521 116.165 121.991 115.589 130.252C115.012 138.513 113.187 145.701 112.347 148.262C111.386 150.104 108.408 152.681 104.182 148.262C100.214 144.114 99.2516 137.031 99.2481 133.431C99.1573 137.501 98.5841 145.494 96.8576 149.583C95.0325 153.906 90.3338 153.065 88.2125 152.105C81.3925 147.686 77.6862 137.936 76.6857 133.614C77.262 139.954 72.6833 143.3 70.3219 144.18C71.9548 147.926 70.5222 151.075 69.1614 151.755C48.7974 158.095 37.3025 153.105 31.4591 149.583C25.7757 144.9 20.5806 126.036 27.4967 113.453Z" fill="#91897D"/>
<path d="M43.826 89.1973L39.5034 91.5987C44.6665 97.3621 67.3599 100.124 67.48 99.2832C67.5761 98.6108 68.4806 96.2815 68.9209 95.2008L43.826 89.1973Z" fill="#7B766E"/>
<path d="M65.5591 121.497C72.0429 112.011 60.9561 110.92 70.2016 92.3088C70.2016 92.3088 112.947 75.859 115.108 85.945C117.269 96.031 116.429 97.4719 117.149 112.961L121.592 150.303C102.367 140.831 89.6531 191.488 75.965 130.852C71.7625 124.368 68.5609 123.538 65.5591 121.497Z" fill="#FAEDC4"/>
<path d="M61.6036 145.528C56.884 145.709 58.3261 152.316 59.6371 155.597L75.9474 154.918C79.8419 150.845 81.9242 140.135 74.6134 141.854C67.3027 143.574 64.187 146.018 61.6036 145.528Z" fill="#FAEDC4"/>
<path d="M99.0927 128.908C102.262 129.609 104.855 128.598 107.658 127.588C108.46 127.299 109.025 128.018 108.383 128.578C105.263 131.298 98.4283 132.848 97.963 129.714C97.8762 129.13 98.5155 128.78 99.0927 128.908Z" fill="#DCD0AA"/>
<path d="M99.058 137.615L98.043 129.803L102.846 130.556L99.058 137.615Z" fill="#DCD0AA"/>
<path d="M73.8557 143.239C72.9822 143.303 72.2149 143.983 72.142 144.758C72.069 145.533 72.718 146.108 73.5915 146.044L73.8557 143.239ZM73.5915 146.044C74.7418 145.959 77.5489 146.048 79.4474 146.966L81.3024 144.441C78.7426 143.204 75.282 143.134 73.8557 143.239L73.5915 146.044Z" fill="#CBBF9A"/>
<path d="M96.5336 149.214C96.41 148.408 95.6368 147.867 94.8066 148.004C93.9765 148.142 93.4037 148.907 93.5273 149.713L96.5336 149.214ZM93.5273 149.713C93.577 150.037 93.5904 150.665 93.4269 151.316C93.2649 151.961 92.9649 152.499 92.5029 152.849L94.3386 155.169C95.5298 154.265 96.1109 153.026 96.3785 151.96C96.6446 150.9 96.6362 149.882 96.5336 149.214L93.5273 149.713Z" fill="#CBBF9A"/>
<path d="M112.676 147.471C112.52 146.671 111.725 146.162 110.901 146.333C110.077 146.504 109.536 147.292 109.692 148.092L112.676 147.471ZM109.692 148.092C109.755 148.414 109.794 149.04 109.657 149.698C109.521 150.349 109.243 150.898 108.796 151.267L110.724 153.511C111.877 152.559 112.408 151.298 112.632 150.222C112.855 149.152 112.805 148.135 112.676 147.471L109.692 148.092Z" fill="#CBBF9A"/>
<path d="M73.5708 146.83C72.8145 147.108 72.5098 147.95 72.8901 148.711C73.2704 149.471 74.1918 149.863 74.948 149.585L73.5708 146.83ZM74.948 149.585C75.5884 149.349 76.7004 149.018 77.8812 148.818C79.1151 148.609 80.1866 148.586 80.857 148.775L81.4032 145.969C79.993 145.57 78.3408 145.703 77.0154 145.928C75.6368 146.161 74.3538 146.542 73.5708 146.83L74.948 149.585Z" fill="#CBBF9A"/>
<path d="M92.6395 149.571C92.3261 148.816 91.4494 148.478 90.6813 148.817C89.9133 149.155 89.5448 150.041 89.8582 150.796L92.6395 149.571ZM89.8582 150.796C90.0329 151.217 90.2411 151.948 90.2706 152.671C90.3016 153.428 90.1298 153.861 89.9242 154.068L92.0231 156.139C93.1249 155.029 93.3171 153.547 93.2721 152.447C93.2257 151.311 92.9178 150.241 92.6395 149.571L89.8582 150.796Z" fill="#CBBF9A"/>
<path d="M108.186 147.359C107.532 146.87 106.605 147.027 106.118 147.711C105.63 148.394 105.766 149.344 106.42 149.833L108.186 147.359ZM106.42 149.833C106.785 150.106 107.337 150.628 107.732 151.234C108.145 151.87 108.218 152.33 108.147 152.613L111.009 153.322C111.39 151.805 110.799 150.433 110.199 149.51C109.579 148.557 108.768 147.794 108.186 147.359L106.42 149.833Z" fill="#CBBF9A"/>
<path d="M67.3599 99.4036L68.6806 95.3211L112.507 87.2764L114.668 91.9591C95.2164 101.085 80.3276 99.4036 67.3599 99.4036Z" fill="#E7DAAF"/>
</g>
<path d="M63.381 143.989C67.344 142.389 71.3287 140.084 74.1792 135.639C74.6982 134.829 75.9716 135.024 75.996 135.986C76.1745 143.001 70.2943 144.905 63.8346 145.862C62.6554 146.036 62.2757 144.436 63.381 143.989Z" fill="#888177"/>
<path d="M57.1011 118C69.5907 122.074 75.5968 130.463 75.8939 133.818C76.6898 142.806 72.8202 143.485 70.5245 144.364C66.1279 145.482 62.9374 146.401 55 147" stroke="#82796D" stroke-width="4" stroke-linecap="round"/>
<mask id="mask1_5374_2625" style="mask-type:alpha" maskUnits="userSpaceOnUse" x="105" y="24" width="25" height="27">
<path d="M122.71 24.0041C118.96 24.0678 114.524 24.87 110.406 25.8851C105.434 27.111 104.083 33.2054 107.733 36.7977L119.827 48.7014C123.539 52.3547 129.62 50.7186 129.863 45.5161C130.183 38.6395 129.036 32.2679 127.776 27.894C127.113 25.5945 125.102 23.9634 122.71 24.0041Z" fill="#EEA226"/>
</mask>
<g mask="url(#mask1_5374_2625)">
<path d="M129.906 42.0726C129.885 41.0768 129.837 40.098 129.766 39.1411C129.058 29.6496 120.083 23.5459 110.831 25.7813C105.387 27.0968 104.475 33.5913 108.467 37.5202L117.372 46.285C122.211 51.0476 130.046 48.8607 129.906 42.0726Z" fill="#91897D"/>
<path d="M124.717 31.4921C128.843 38.7151 126.436 48.1508 124.717 51.9657L108.504 35.5614C114.498 31.1869 121.81 31.0258 124.717 31.4921Z" fill="#F5C6D8"/>
</g>
<mask id="mask2_5374_2625" style="mask-type:alpha" maskUnits="userSpaceOnUse" x="30" y="24" width="26" height="27">
<path d="M34.4165 26.8959C31.5366 32.6771 30.805 39.2731 31.011 44.9493C31.1981 50.1059 37.1028 51.8909 40.9045 48.402L53.38 36.9527C57.2119 33.436 55.987 27.1177 50.9386 25.8668C45.0924 24.4182 40.831 24.1214 38.1761 24.2776C36.5309 24.3745 35.1513 25.4207 34.4165 26.8959Z" fill="#EEA226"/>
</mask>
<g mask="url(#mask2_5374_2625)">
<path d="M31.5613 35.9339C31.4118 36.8208 31.2942 37.7066 31.2051 38.5862C30.3876 46.6534 39.6234 49.5776 45.5975 44.0951L50.878 39.2489C55.86 34.6768 49.5699 25.0789 42.8405 24.4159C35.0865 23.652 32.8566 28.2508 31.5613 35.9339Z" fill="#91897D"/>
<path d="M34.5152 33.3547C33.7171 35.8297 33.495 38.4234 33.6073 40.8738C33.8323 45.783 39.5737 47.0066 43.0282 43.5112L46.3566 40.1433C49.3651 37.0992 48.8859 32.0296 44.747 30.9398C42.7303 30.4088 40.8136 30.1798 39.1991 30.1261C37.0821 30.0557 35.1653 31.3388 34.5152 33.3547Z" fill="#F5C6D8"/>
</g>
<mask id="mask3_5374_2625" style="mask-type:alpha" maskUnits="userSpaceOnUse" x="27" y="23" width="105" height="73">
<path d="M68.6402 25.4303C47.8919 30.6173 39.4706 42.5957 35.6206 48.4839C31.5382 54.7276 28.2963 59.4104 27.6959 69.1362C27.0967 78.8435 34.88 85.9899 46.0668 91.2293C55.5525 95.6719 75.4843 95.872 85.6903 95.1916C99.9388 94.5112 126.995 87.9874 130.117 70.9372C133.326 53.4073 121.952 41.2084 116.429 36.717C109.144 30.7934 89.3885 20.2432 68.6402 25.4303Z" fill="#D9D9D9" stroke="black"/>
</mask>
<g mask="url(#mask3_5374_2625)">
<path d="M68.6402 25.4303C47.8919 30.6173 39.4706 42.5957 35.6206 48.4839C31.5382 54.7276 28.2963 59.4104 27.6959 69.1362C27.0967 78.8435 34.88 85.9899 46.0668 91.2293C55.5525 95.6719 75.4843 95.872 85.6903 95.1916C99.9388 94.5112 126.995 87.9874 130.117 70.9372C133.326 53.4073 121.952 41.2084 116.429 36.717C109.144 30.7934 89.3885 20.2432 68.6402 25.4303Z" fill="#FAEDC4"/>
<path d="M74.3504 56.2758C68.7105 72.2095 39.6768 77.0114 25.8649 77.4207C13.7794 42.3883 51.7142 23.7317 74.3504 18.957C75.2616 24.6412 79.9903 40.342 74.3504 56.2758Z" fill="#91897D"/>
<path d="M98.0998 63.9557C86.2848 55.3105 85.7708 30.6839 87.772 20.758C118.606 12.9774 138.284 48.0662 143.487 65.2764C133.281 68.4383 109.915 72.6008 98.0998 63.9557Z" fill="#91897D"/>
</g>
<ellipse cx="58.716" cy="58.4815" rx="5.33651" ry="4.9152" transform="rotate(-23.2851 58.716 58.4815)" fill="#562528"/>
<ellipse cx="4.9936" cy="4.59937" rx="4.9936" ry="4.59937" transform="matrix(-0.918549 -0.395307 -0.395307 0.918549 115.551 54.8438)" fill="#562528"/>
<path d="M84.969 70.0783L84.9583 74.36M84.9583 74.36C84.0922 76.4281 82.5194 77.6279 77.7404 77.602C74.2045 77.5829 72.1415 76.8013 71.9277 73.5924M84.9583 74.36C85.8451 76.2404 87.5366 78.196 93.8569 77.2766C96.1363 76.945 98.2557 76.2617 98.3484 72.2198" stroke="#562528" stroke-width="1.5" stroke-linecap="round"/>
<path d="M82.0301 69.4257C83.5439 71.4767 86.5282 71.3745 87.7291 69.2305C89.0748 66.8277 87.2124 63.7295 84.4752 63.8178C81.732 63.9062 80.3298 67.1221 82.0301 69.4257Z" fill="#DC96B0"/>
<path d="M20.0316 122.258C19.3029 131.149 23.0986 135.371 26.2688 137.994C29.0007 134.864 34.3257 128.867 32.0046 128.053C29.6836 127.239 29.5623 121.321 29.2784 117.939L28.3532 106.917C26.2121 92.591 17.3211 91.2898 11.482 92.6873C5.64289 94.0847 3.72617 99.9978 1.9544 104.982C-0.946764 113.55 6.31087 117.482 14.0336 116.833C20.2118 116.315 21.1585 111.725 20.7636 107.554C21.6607 113.129 20.2601 119.471 20.0316 122.258Z" fill="#91897D"/>
<path d="M14.7254 105.7C17.5626 104.531 20.0618 106.602 20.9495 108.168C18.0793 100.953 15.0434 101.645 12.8838 104.427C12.172 105.344 13.6523 106.142 14.7254 105.7Z" fill="#7B766E"/>
<circle cx="61" cy="57" r="1" fill="white"/>
<ellipse cx="111.5" cy="56" rx="1.5" ry="1" fill="white"/>
<path d="M56.7179 14.0914C55.5685 18.4255 56.5153 35.4584 56.5153 35.4584L109.199 35.9579C109.199 35.9579 109.763 21.4324 108.619 16.1505C107.476 10.8687 107.317 9.58503 103.009 5.34162C98.7017 1.09821 89.0747 0.365856 82.3401 0.302012C75.6055 0.238167 69.2042 0.996555 63.5396 4.96739C57.8751 8.93822 57.2588 12.0518 56.7179 14.0914Z" fill="#F3C66D"/>
<path fill-rule="evenodd" clip-rule="evenodd" d="M67.632 31.9313C67.632 31.9313 67.6633 24.2279 67.7259 22.0312C67.7404 21.522 67.7511 21.0289 67.7615 20.5474L67.7615 20.5473C67.8213 17.7926 67.8729 15.4175 68.5829 12.5658C69.1913 10.1227 69.9589 8.50542 70.9206 6.47916C71.1753 5.94253 71.4436 5.37723 71.7261 4.76029C72.0152 4.12926 72.3063 3.30831 72.596 2.4915L72.596 2.49149L72.596 2.49147C72.7789 1.97591 72.9612 1.46199 73.1419 0.998523C73.504 0.928216 73.8678 0.864251 74.2332 0.806184C73.8246 2.23182 73.2587 4.2024 72.8256 5.69671C72.5198 6.75178 72.2232 7.63391 71.9424 8.46936L71.9424 8.46946L71.9423 8.4695L71.9423 8.46956C71.4401 9.96363 70.988 11.3084 70.6228 13.2262C70.1043 15.9492 70.0587 17.7496 69.9985 20.1227C69.9833 20.7214 69.9672 21.3566 69.9423 22.0522C69.8639 24.2485 69.8485 31.9523 69.8485 31.9523L67.632 31.9313ZM78.2915 0.384596C78.3885 1.62897 78.5157 3.45579 78.546 4.82496C78.5712 5.96142 78.5528 6.7741 78.5322 7.68303L78.5322 7.68313L78.5322 7.68323L78.5322 7.68332L78.5322 7.68341L78.5322 7.68349C78.5211 8.17583 78.5093 8.69643 78.5034 9.31204L78.4244 17.6452C78.2644 19.5431 77.9381 23.98 77.9381 23.98C77.9381 23.98 76.726 31.9225 76.4857 33.2974L78.6994 33.6033C78.6994 33.6033 79.8542 25.9781 79.984 23.9994C80.0892 22.3965 80.0734 21.2477 80.0556 19.9629L80.0556 19.9629L80.0556 19.9629L80.0557 19.9628L80.0557 19.9628L80.0557 19.9628C80.0461 19.2666 80.0359 18.5305 80.0442 17.6605C80.055 16.517 80.0938 15.5495 80.1305 14.6345L80.1305 14.6344L80.1305 14.6344L80.1305 14.6344L80.1305 14.6344L80.1305 14.6343C80.1982 12.9455 80.2588 11.4355 80.1232 9.32739C80.0101 7.56926 79.8938 6.58508 79.6542 4.83546C79.4642 3.44802 79.1192 1.60014 78.876 0.355391C78.6808 0.364026 78.486 0.373741 78.2915 0.384596ZM83.6443 0.323005C84.215 1.56281 85.0504 3.45142 85.5363 4.89124C86.2648 7.04985 86.5288 8.32368 86.9754 10.4783L86.9754 10.4784L87.0161 10.6749C87.4504 12.7695 87.6208 14.0678 87.8723 15.9845L87.8725 15.9858L87.8734 15.9932C87.9075 16.2529 87.9431 16.5239 87.981 16.8098C88.0487 17.3205 88.1135 17.7868 88.1745 18.2264C88.4224 20.0114 88.6092 21.3562 88.6854 23.4409C88.7485 25.1648 88.8466 33.4146 88.8466 33.4146L90.8134 32.7922C90.8204 32.0551 90.7751 30.0908 90.7298 28.1263L90.7298 28.1258L90.7298 28.1258L90.7298 28.1257L90.7298 28.1256C90.6845 26.161 90.6391 24.1965 90.6461 23.4595C90.6461 23.4595 90.2006 19.4081 89.7712 16.8268C89.3476 14.28 89.0529 12.8575 88.4687 10.3325C88.3318 9.74096 88.2244 9.2185 88.1235 8.7281C87.8614 7.45415 87.6439 6.39649 87.0708 4.90579C86.5094 3.44542 85.4494 1.58407 84.7072 0.353133C84.3478 0.340796 83.9932 0.330868 83.6443 0.323005ZM90.5511 0.787271C91.4044 1.86314 92.9328 3.85805 93.8013 5.39698C94.9396 7.4138 95.375 8.62544 96.1376 10.7614C97.2102 13.7653 97.6988 15.5013 98.1093 18.6154C98.3723 20.6099 99.1907 30.4498 99.1907 30.4498L101.494 30.2579C101.494 30.2579 100.467 20.0642 100.077 17.8505L100.036 17.6145C99.4795 14.4458 99.1474 12.5552 97.7695 9.49471C96.8143 7.37322 96.1814 6.19274 94.7499 4.2663C93.9441 3.1819 92.6694 1.83572 91.8025 0.955106C91.3866 0.893876 90.969 0.838079 90.5511 0.787271ZM98.7164 2.69471C99.387 3.62241 100.294 4.92761 100.872 5.96263C102.446 8.78015 102.981 10.5067 103.784 13.5406C104.16 14.9569 104.316 15.9452 104.503 17.1261C104.578 17.5993 104.658 18.1034 104.759 18.6784C104.912 19.5507 105.064 20.3128 105.208 21.0283L105.208 21.0284C105.568 22.8201 105.868 24.3194 105.963 26.5251C106.026 27.9986 105.927 30.3 105.927 30.3L107.801 30.5314L107.839 26.5429C107.839 26.5429 106.872 20.5742 106.386 17.9103L106.38 17.8773L106.38 17.8773C105.899 15.243 105.824 14.8313 105.24 12.9133C105.182 12.7252 105.127 12.542 105.073 12.3631L105.071 12.3586C104.265 9.69939 103.75 8.00001 102.07 5.47538C101.68 4.88902 101.149 4.21773 100.628 3.597C100.031 3.26447 99.3908 2.96475 98.7164 2.69471ZM68.5344 2.30722C67.862 3.37578 67.1195 4.61285 66.6025 5.6377C65.1687 8.47985 64.4577 10.1373 63.7177 13.1607C63.2103 15.2341 63.1567 16.787 63.0986 18.4694C63.0619 19.5345 63.0233 20.6514 62.8667 21.9852C62.6382 23.932 62.2106 28.2472 62.2106 28.2472L60.8466 28.2342C60.8466 28.2342 61.2036 23.9169 61.4175 21.9714C61.5532 20.7378 61.5945 19.6887 61.6336 18.6952C61.7037 16.9144 61.7667 15.3125 62.3537 13.1478C63.1791 10.1043 63.8831 8.40597 65.5795 5.628C66.1546 4.68623 66.9763 3.5977 67.765 2.61994C68.0204 2.51099 68.2768 2.4068 68.5344 2.30722Z" fill="#E2AE4A"/>
<path fill-rule="evenodd" clip-rule="evenodd" d="M56.1656 25.2346C59.5733 25.8752 64.9284 26.7826 68.949 27.0005C70.2493 27.071 71.4696 27.1579 72.6343 27.2409C78.2692 27.6423 82.5995 27.9507 88.3726 25.8527C93.1354 24.1218 96.1827 22.8416 99.0328 19.2154C101.242 16.4048 101.566 15.4615 101.581 12.0939C101.591 10.0503 100.858 8.78069 99.9272 7.16934C99.6819 6.74439 99.4228 6.29566 99.16 5.8027C98.3007 4.19081 96.6032 2.7307 94.5999 1.46249C90.5403 0.570213 86.0103 0.33681 82.3396 0.302012C75.605 0.238167 69.2037 0.996555 63.5391 4.96739C58.1055 8.77634 57.3169 11.7965 56.7843 13.8366C56.7616 13.9233 56.7395 14.0082 56.7174 14.0914C56.1889 16.0843 56.1036 20.7623 56.1656 25.2346Z" fill="#F7D674"/>
<path fill-rule="evenodd" clip-rule="evenodd" d="M79.6248 27.518C78.8916 27.5384 78.1566 27.5348 77.4113 27.5145C77.6529 25.9662 77.9379 23.9809 77.9379 23.9809C77.9379 23.9809 78.2642 19.544 78.4243 17.646L78.5033 9.31288C78.5091 8.69724 78.5209 8.17661 78.5321 7.68424L78.5321 7.68416L78.5321 7.68407L78.5321 7.68397L78.5321 7.68387C78.5526 6.77495 78.571 5.96226 78.5458 4.8258C78.5155 3.45601 78.3882 1.62817 78.2912 0.383757C78.4856 0.372904 78.6804 0.363191 78.8756 0.354557C79.1188 1.59932 79.464 3.44824 79.6541 4.83631C79.8937 6.58592 80.0099 7.5701 80.123 9.32824C80.2586 11.4364 80.1981 12.9464 80.1303 14.6352L80.1303 14.6352L80.1303 14.6352L80.1303 14.6353L80.1303 14.6353C80.0936 15.5503 80.0548 16.5178 80.044 17.6614C80.0357 18.5313 80.0459 19.2674 80.0555 19.9636L80.0555 19.9637L80.0555 19.9637L80.0555 19.9637L80.0555 19.9637C80.0732 21.2486 80.089 22.3974 79.9839 24.0003C79.9136 25.0725 79.7552 26.4661 79.6248 27.518ZM90.6313 25.0073C90.019 25.2473 89.376 25.487 88.6979 25.7348C88.7088 24.9713 88.7104 24.1295 88.6853 23.4417C88.609 21.3571 88.4223 20.0124 88.1744 18.2274L88.1744 18.2274L88.1744 18.2273L88.1744 18.2272C88.1133 17.7876 88.0486 17.3213 87.9808 16.8107C87.9425 16.5219 87.9067 16.2484 87.8723 15.9864L87.8721 15.9854C87.6206 14.0687 87.4503 12.7704 87.0159 10.6757L86.9752 10.4792L86.9752 10.4791L86.9752 10.4791C86.5287 8.32447 86.2647 7.05065 85.5362 4.89208C85.05 3.4516 84.2141 1.5619 83.6434 0.322125C83.9921 0.329983 84.3467 0.339905 84.706 0.352233C85.4482 1.58316 86.509 3.44557 87.0706 4.90663C87.6437 6.39733 87.8613 7.45499 88.1233 8.72894C88.2242 9.21935 88.3317 9.7418 88.4685 10.3334C89.0528 12.8583 89.3474 14.2808 89.7711 16.8276C90.2004 19.409 90.646 23.4603 90.646 23.4603L90.6313 25.0073ZM100.073 17.825C99.7837 18.2431 99.4405 18.6977 99.0333 19.2158C98.7767 19.5424 98.5184 19.85 98.2574 20.1405C98.2189 19.6065 98.1704 19.0804 98.1092 18.6162C97.6986 15.5021 97.21 13.7661 96.1375 10.7622C95.3749 8.62629 94.9395 7.41464 93.8012 5.39782C92.9321 3.85798 91.4024 1.86162 90.5494 0.786207C90.9672 0.836982 91.3846 0.892741 91.8003 0.953928C92.6673 1.83451 93.9433 3.18191 94.7497 4.26714C96.1813 6.19359 96.8142 7.37406 97.7694 9.49555C99.1473 12.556 99.4793 14.4466 100.036 17.6154L100.073 17.825ZM74.2336 0.805278C73.8249 2.23105 73.2587 4.20263 72.8254 5.69755C72.5196 6.75271 72.223 7.6349 71.9422 8.47041L71.9422 8.47042C71.4399 9.96448 70.9878 11.3093 70.6227 13.227C70.1042 15.95 70.0585 17.7505 69.9983 20.1236C69.9831 20.7223 69.967 21.3575 69.9422 22.0531C69.8843 23.6729 69.8828 25.9639 69.886 27.0551C69.5783 27.0362 69.2663 27.0181 68.9495 27.0009C68.5366 26.9785 68.1096 26.9489 67.672 26.913C67.673 25.7807 67.6812 23.5944 67.7257 22.0321C67.7402 21.5228 67.7509 21.0297 67.7614 20.5482L67.7614 20.5482C67.8212 17.7934 67.8727 15.4183 68.5828 12.5666C69.1911 10.1235 69.9587 8.50626 70.9204 6.47999L70.9205 6.47986L70.9205 6.47981L70.9206 6.47965L70.9207 6.47943L70.9207 6.47938C71.1753 5.94294 71.4435 5.37783 71.726 4.76114C72.015 4.1301 72.3062 3.30916 72.5959 2.49234L72.5959 2.49233L72.5959 2.49231C72.779 1.97608 72.9615 1.4615 73.1425 0.997566C73.5045 0.927278 73.8682 0.86333 74.2336 0.805278ZM67.7669 2.61832C68.022 2.50947 68.2782 2.4054 68.5356 2.30591C67.8628 3.37496 67.1197 4.61301 66.6023 5.63854C65.1685 8.4807 64.4575 10.1381 63.7176 13.1616C63.2101 15.2349 63.1565 16.7878 63.0985 18.4703C63.0617 19.5353 63.0232 20.6523 62.8666 21.986C62.7057 23.3562 62.4523 25.2645 62.3163 26.2748C61.8596 26.2074 61.406 26.1379 60.959 26.0673C61.0773 25.0203 61.2759 23.2582 61.4174 21.9723C61.5531 20.7387 61.5943 19.6895 61.6334 18.6961C61.7035 16.9153 61.7665 15.3133 62.3536 13.1486C63.179 10.1051 63.883 8.40681 65.5794 5.62884C66.1549 4.68628 66.9776 3.59671 67.7669 2.61832Z" fill="#F3C66D"/>
<path d="M51.2034 29.1403C51.8621 27.9824 52.6364 27.5008 54.1207 27.1735C56.5983 26.6272 56.4964 26.9776 58.7917 27.2178C62.5723 27.6135 64.4518 28.75 68.0833 29.7192C70.7541 30.4319 72.7362 30.6136 75.4829 31.08C80.322 31.9017 81.8212 31.9324 86.7322 31.5428C90.9095 31.2114 93.5588 30.5703 97.7421 30.2938C101.311 30.058 104.947 29.2991 108.401 30.1014C110.386 30.5626 110.544 30.7671 112.112 31.8862C113.714 33.0299 113.91 34.4544 114.204 36.5977L114.221 36.7183C114.542 39.0534 113.632 40.9095 112.008 42.8231C110.314 44.8196 109.051 44.6162 106.378 45.6189C102.471 47.0844 98.2733 46.761 94.0023 47.0686C87.8795 47.5096 86.2417 47.2813 80.1068 46.9369C73.8479 46.5855 71.1907 46.5546 65.118 45.2277C60.3243 44.1802 61.4584 44.5519 55.8503 42.5756C54.2322 42.0053 51.3828 40.4115 50.7685 39.0371C49.9488 37.2031 50.115 36.0292 50.1335 34.0738C50.1503 32.3069 50.2966 30.7341 51.2034 29.1403Z" fill="#F3C66D"/>
<path fill-rule="evenodd" clip-rule="evenodd" d="M59.0914 43.7119C58.6667 43.567 58.1708 43.3938 57.5661 43.1811L56.7295 39.8772L56.768 35.8175L57.7536 30.7695L60.0018 27.443L60.3927 27.4467C60.7191 27.5062 61.0321 27.5716 61.3355 27.6421L59.2002 31.0681L58.0467 35.8296L58.0075 39.9605L59.0914 43.7119ZM68.1619 45.8387C67.6207 45.7418 67.0551 45.6334 66.4565 45.5116L65.5019 40.8151L65.5607 34.6187L66.659 29.3082C67.1035 29.4462 67.5717 29.5834 68.0734 29.7175L67.0126 34.3475L67.1216 40.8305L68.1619 45.8387ZM77.3386 46.7867C76.7659 46.7553 76.2224 46.7245 75.699 46.6924L75.0389 42.0452L75.0929 36.3474L75.8802 31.148C76.4668 31.2459 77.0034 31.3315 77.5035 31.4055L76.8013 36.0074L76.7472 41.7053L77.3386 46.7867ZM88.4263 47.3131C87.9963 47.314 87.5782 47.3097 87.161 47.3007L87.9966 42.1681L88.0324 38.3932L87.1829 31.5067C87.529 31.4767 87.8649 31.4446 88.1924 31.4108L89.5817 36.8409L89.5385 41.3992L88.4263 47.3131ZM99.6686 46.8194C99.0251 46.8545 98.3776 46.8788 97.7267 46.9013L98.9084 42.2716L99.641 36.9363L97.6627 30.3004C97.6894 30.2986 97.7161 30.2968 97.743 30.295C98.2633 30.2607 98.785 30.2152 99.3074 30.165C99.8935 31.4038 101.211 34.4021 101.349 36.5963C101.439 38.0215 101.256 38.9816 101.032 40.1592C100.954 40.5717 100.87 41.0108 100.791 41.5059C100.512 43.2644 99.9262 45.7544 99.6686 46.8194ZM108.652 44.8928C108.541 44.9257 108.428 44.9589 108.312 44.9929C107.837 45.1322 107.312 45.286 106.715 45.4977C106.859 44.6968 107.047 43.5309 107.089 42.7053C107.159 41.3288 107.135 37.8621 107.135 37.8621C107.135 37.8621 106.757 35.7216 106.65 35.0083C106.543 34.295 104.736 30.0753 104.736 30.0753L105.832 29.7633C105.98 29.7701 106.127 29.7787 106.275 29.7894C106.625 30.3182 107.954 32.3792 108.451 33.8857C108.872 35.1601 108.95 35.9469 109.074 37.1976L109.099 37.4533C109.291 39.3665 109.246 40.4557 109.053 42.3677C108.976 43.133 108.807 44.097 108.652 44.8928Z" fill="#E2AE4A"/>
<path fill-rule="evenodd" clip-rule="evenodd" d="M54.1205 27.1728C52.6362 27.5002 51.862 27.9817 51.2032 29.1396C50.2964 30.7334 50.1501 32.3063 50.1334 34.0732C50.1307 34.3491 50.1252 34.6096 50.1199 34.8584C50.0875 36.3731 50.0643 37.4613 50.7683 39.0364C51.3826 40.4109 54.232 42.0046 55.8501 42.5749C58.872 43.6398 59.9363 44.023 61.0252 44.3138C61.9572 44.5627 62.9072 44.744 65.1179 45.227C70.5737 46.4192 73.2727 46.5652 78.3036 46.8374C78.8723 46.8681 79.4709 46.9005 80.1067 46.9362C80.963 46.9843 81.7318 47.0301 82.4373 47.0721C86.2328 47.2983 88.1995 47.4155 92.1407 47.1895C94.4487 46.2043 96.74 44.8929 97.9604 43.2592C98.17 42.9786 98.38 42.7106 98.5837 42.4507C99.7539 40.9574 100.718 39.7271 100.228 37.8672C99.9121 36.6672 99.2668 36.043 98.3707 35.1762C98.264 35.073 98.1537 34.9663 98.0401 34.8548C95.9926 32.847 91.1681 31.2994 91.1681 31.2994L90.3542 31.1534C89.2358 31.2999 88.0613 31.4367 86.7321 31.5421C81.821 31.9317 80.3218 31.901 75.4827 31.0793C74.7056 30.9474 73.9897 30.8382 73.3021 30.7334C71.5594 30.4676 69.9983 30.2296 68.0831 29.7185C66.793 29.3742 65.724 29.0088 64.7124 28.663C62.8763 28.0353 61.229 27.4722 58.7915 27.2171C58.5535 27.1922 58.3412 27.1661 58.1491 27.1399L54.4383 27.1047C54.3372 27.1257 54.2315 27.1484 54.1205 27.1728Z" fill="#F7D674"/>
<path fill-rule="evenodd" clip-rule="evenodd" d="M60.4024 27.4471L60.0014 27.4433C60.0014 27.4433 58.3882 29.3749 57.7532 30.7697C57.0424 32.3309 56.958 33.4189 56.8431 34.8997C56.8207 35.1886 56.7971 35.4925 56.7675 35.8177L56.7517 35.9909C56.6169 37.4661 56.5353 38.3588 56.729 39.8775C56.8704 40.986 57.3441 42.546 57.5434 43.1719C58.146 43.3838 58.6409 43.5567 59.0651 43.7016C58.8196 43.0382 58.1836 41.2398 58.0071 39.9608C57.7857 38.3575 57.8612 37.4352 58.0462 35.8299C58.2639 33.9408 58.4167 32.8483 59.1997 31.0684C59.7416 29.8365 60.9218 28.1787 61.3179 27.6366C61.023 27.5684 60.719 27.5049 60.4024 27.4471ZM66.6433 29.302C66.4165 30.1792 65.7632 32.7981 65.5602 34.619C65.2916 37.0278 65.2491 38.4039 65.5015 40.8154C65.663 42.3588 66.1791 44.5222 66.4261 45.504C67.0263 45.6263 67.5932 45.7352 68.1357 45.8326C67.8816 44.8253 67.3181 42.4883 67.1212 40.8308C66.8218 38.3104 66.7119 36.8664 67.0121 34.3478C67.1972 32.7953 67.7932 30.6072 68.0494 29.7097C67.5509 29.5761 67.0854 29.4394 66.6433 29.302ZM75.8719 31.1452C75.7296 31.8928 75.2402 34.5401 75.0925 36.3476C74.911 38.5672 74.8824 39.8236 75.0384 42.0455C75.1466 43.586 75.5192 45.7804 75.6813 46.6899C76.2063 46.7221 76.7515 46.753 77.3259 46.7845C77.1926 45.8886 76.8405 43.4167 76.7468 41.7056C76.625 39.4822 76.6081 38.2266 76.8008 36.0077C76.9404 34.3994 77.3771 32.0362 77.4972 31.4031C76.9965 31.329 76.4592 31.2433 75.8719 31.1452ZM87.1911 31.5044C87.334 32.3284 87.9428 35.9518 88.0319 38.3935C88.0857 39.8672 88.0952 40.6967 87.9961 42.1684C87.8862 43.8014 87.4672 46.0334 87.209 47.3002C87.6248 47.3088 88.0418 47.3128 88.4711 47.3115C88.7824 46.0088 89.3822 43.3274 89.538 41.3995L89.543 41.338C89.6835 39.6002 89.7647 38.5946 89.5812 36.8412C89.3865 34.9805 88.5384 32.3451 88.2215 31.4062C87.8874 31.4408 87.5445 31.4737 87.1911 31.5044ZM99.6091 36.5229C99.6235 36.6635 99.6341 36.8016 99.6405 36.9365C99.7159 38.5289 99.4839 39.5857 99.1935 40.9089L99.1935 40.9089L99.1935 40.909L99.1935 40.9092L99.1934 40.9094C99.1214 41.2373 99.0459 41.5816 98.9705 41.9544C99.9534 40.6722 100.663 39.5177 100.229 37.8676C100.086 37.3276 99.8775 36.9042 99.6091 36.5229Z" fill="#F3C66D"/>
</svg>
