<svg width="132" height="157" viewBox="0 0 132 157" fill="none" xmlns="http://www.w3.org/2000/svg">
<mask id="mask0_5140_2765" style="mask-type:alpha" maskUnits="userSpaceOnUse" x="24" y="87" width="93" height="70">
<path d="M26.176 126.379C30.8468 110.994 37.4392 94.9415 43.8265 90.6146C64.8249 88.0505 108.613 85.3261 111.678 90.6146C114.744 95.903 115.99 105.238 116.229 109.244C116.229 113.451 116.086 123.932 115.511 132.201C114.936 140.47 113.116 147.666 112.277 150.23C111.319 152.073 108.349 154.653 104.133 150.23C100.176 146.077 99.2157 138.987 99.2122 135.383C99.1217 139.458 98.5499 147.459 96.8279 151.552C95.0075 155.879 90.3208 155.038 88.205 154.076C81.4024 149.653 77.7058 139.893 76.7077 135.567C77.2826 141.913 76.5883 144.191 74.2329 145.073C78.0653 146.154 79.263 154.013 72.7958 154.688C50.5673 157.006 41.8503 156.2 36.0219 152.674C30.3531 147.987 22.0018 140.128 26.176 126.379Z" fill="#D9D9D9"/>
<path d="M74.2329 145.073C78.0653 146.154 79.263 154.013 72.7958 154.688C50.5673 157.006 41.8503 156.2 36.0219 152.674C30.3531 147.987 22.0018 140.128 26.176 126.379C30.8468 110.994 37.4392 94.9415 43.8265 90.6146C64.8249 88.0505 108.613 85.3261 111.678 90.6146C114.744 95.903 115.99 105.238 116.229 109.244C116.229 113.451 116.086 123.932 115.511 132.201C114.936 140.47 113.116 147.666 112.277 150.23C111.319 152.073 108.349 154.653 104.133 150.23C99.9177 145.807 99.1034 138.05 99.2231 134.725C99.1832 138.531 98.6483 147.225 96.8279 151.552C95.0075 155.879 90.3208 155.038 88.205 154.076C81.4024 149.653 77.7058 139.893 76.7077 135.567M74.2329 145.073C76.5883 144.191 77.2826 141.913 76.7077 135.567M74.2329 145.073C69.7219 146.194 54.9349 148.692 47.3659 145.422M76.7077 135.567C75.1508 130.318 64.2998 114.677 50.7906 121.696" stroke="black"/>
</mask>
<g mask="url(#mask0_5140_2765)">
<path d="M27.4967 115.453C34.4128 102.869 37.8631 95.641 41.5451 90.7073C62.5975 88.1457 108.673 85.424 111.746 90.7072C114.82 95.9903 116.069 105.316 116.309 109.318C116.309 113.521 116.165 123.991 115.589 132.252C115.012 140.513 113.187 147.701 112.347 150.262C111.386 152.104 108.408 154.681 104.182 150.262C100.214 146.114 99.2516 139.031 99.2481 135.431C99.1573 139.501 98.5841 147.494 96.8576 151.583C95.0325 155.906 90.3338 155.065 88.2125 154.105C81.3925 149.686 77.6862 139.936 76.6857 135.614C77.262 141.954 72.6833 145.3 70.3219 146.18C71.9548 149.926 70.5222 153.075 69.1614 153.755C48.7974 160.095 37.3025 155.105 31.4591 151.583C25.7757 146.9 20.5806 128.036 27.4967 115.453Z" fill="#91897D"/>
<path d="M43.8265 91.1973L39.5039 93.5987C44.667 99.3621 67.3604 102.124 67.4805 101.283C67.5766 100.611 68.4811 98.2815 68.9214 97.2008L43.8265 91.1973Z" fill="#7B766E"/>
<path d="M65.5596 123.497C72.0434 114.011 60.9566 112.92 70.2021 94.3088C70.2021 94.3088 112.947 77.859 115.109 87.945C117.27 98.031 116.429 99.4719 117.15 114.961L121.593 152.303C102.367 142.831 89.6536 193.488 75.9655 132.852C71.763 126.368 68.5614 125.538 65.5596 123.497Z" fill="#FAEDC4"/>
<path d="M61.6045 147.528C56.8849 147.709 58.327 154.316 59.638 157.597L75.9484 156.918C79.8429 152.845 81.9251 142.135 74.6144 143.854C67.3036 145.574 64.188 148.018 61.6045 147.528Z" fill="#FAEDC4"/>
<path d="M99.0932 130.908C102.262 131.609 104.855 130.598 107.658 129.588C108.46 129.299 109.026 130.018 108.383 130.578C105.263 133.298 98.4288 134.848 97.9635 131.714C97.8767 131.13 98.516 130.78 99.0932 130.908Z" fill="#DCD0AA"/>
<path d="M99.059 139.615L98.0439 131.803L102.846 132.556L99.059 139.615Z" fill="#DCD0AA"/>
<path d="M73.8566 145.239C72.9831 145.303 72.2159 145.983 72.1429 146.758C72.07 147.533 72.719 148.108 73.5925 148.044L73.8566 145.239ZM73.5925 148.044C74.7428 147.959 77.5499 148.048 79.4484 148.966L81.3034 146.441C78.7436 145.204 75.2829 145.134 73.8566 145.239L73.5925 148.044Z" fill="#CBBF9A"/>
<path d="M96.5341 151.214C96.4105 150.408 95.6373 149.867 94.8071 150.004C93.977 150.142 93.4042 150.907 93.5278 151.713L96.5341 151.214ZM93.5278 151.713C93.5775 152.037 93.5909 152.665 93.4274 153.316C93.2654 153.961 92.9654 154.499 92.5034 154.849L94.339 157.169C95.5303 156.265 96.1114 155.026 96.379 153.96C96.6451 152.9 96.6367 151.882 96.5341 151.214L93.5278 151.713Z" fill="#CBBF9A"/>
<path d="M112.676 149.471C112.52 148.671 111.726 148.162 110.902 148.333C110.078 148.504 109.536 149.292 109.693 150.092L112.676 149.471ZM109.693 150.092C109.755 150.414 109.794 151.04 109.657 151.698C109.521 152.349 109.243 152.898 108.796 153.267L110.724 155.511C111.878 154.559 112.408 153.298 112.632 152.222C112.855 151.152 112.806 150.135 112.676 149.471L109.693 150.092Z" fill="#CBBF9A"/>
<path d="M73.5713 148.83C72.815 149.108 72.5103 149.95 72.8906 150.711C73.2709 151.471 74.1923 151.863 74.9485 151.585L73.5713 148.83ZM74.9485 151.585C75.5889 151.349 76.7009 151.018 77.8817 150.818C79.1156 150.609 80.1871 150.586 80.8575 150.775L81.4037 147.969C79.9935 147.57 78.3413 147.703 77.0159 147.928C75.6373 148.161 74.3543 148.542 73.5713 148.83L74.9485 151.585Z" fill="#CBBF9A"/>
<path d="M92.64 151.571C92.3266 150.816 91.4499 150.478 90.6818 150.817C89.9138 151.155 89.5453 152.041 89.8587 152.796L92.64 151.571ZM89.8587 152.796C90.0334 153.217 90.2416 153.948 90.2711 154.671C90.3021 155.428 90.1303 155.861 89.9247 156.068L92.0236 158.139C93.1254 157.029 93.3176 155.547 93.2726 154.447C93.2262 153.311 92.9183 152.241 92.64 151.571L89.8587 152.796Z" fill="#CBBF9A"/>
<path d="M108.187 149.359C107.532 148.87 106.606 149.027 106.118 149.711C105.631 150.394 105.766 151.344 106.421 151.833L108.187 149.359ZM106.421 151.833C106.786 152.106 107.338 152.628 107.732 153.234C108.146 153.87 108.219 154.33 108.148 154.613L111.009 155.322C111.39 153.805 110.799 152.433 110.199 151.51C109.58 150.557 108.768 149.794 108.187 149.359L106.421 151.833Z" fill="#CBBF9A"/>
<path d="M67.3604 101.404L68.6811 97.3211L112.507 89.2764L114.668 93.9591C95.2169 103.085 80.328 101.404 67.3604 101.404Z" fill="#E7DAAF"/>
</g>
<path d="M63.381 145.989C67.344 144.389 71.3287 142.084 74.1792 137.639C74.6982 136.829 75.9716 137.024 75.996 137.986C76.1745 145.001 70.2943 146.905 63.8346 147.862C62.6554 148.036 62.2757 146.436 63.381 145.989Z" fill="#888177"/>
<path d="M57.1011 120C69.5907 124.074 75.5968 132.463 75.8939 135.818C76.6898 144.806 72.8202 145.485 70.5245 146.364C66.1279 147.482 62.9374 148.401 55 149" stroke="#82796D" stroke-width="4" stroke-linecap="round"/>
<mask id="mask1_5140_2765" style="mask-type:alpha" maskUnits="userSpaceOnUse" x="105" y="26" width="25" height="27">
<path d="M122.71 26.0041C118.96 26.0678 114.524 26.87 110.406 27.8851C105.434 29.111 104.083 35.2054 107.733 38.7977L119.827 50.7014C123.539 54.3547 129.62 52.7186 129.863 47.5161C130.183 40.6395 129.036 34.2679 127.776 29.894C127.113 27.5945 125.102 25.9634 122.71 26.0041Z" fill="#EEA226"/>
</mask>
<g mask="url(#mask1_5140_2765)">
<path d="M129.906 44.0726C129.885 43.0768 129.837 42.098 129.766 41.1411C129.058 31.6496 120.083 25.5459 110.831 27.7813C105.387 29.0968 104.475 35.5913 108.467 39.5202L117.372 48.285C122.211 53.0476 130.046 50.8607 129.906 44.0726Z" fill="#91897D"/>
<path d="M124.717 33.4921C128.843 40.7151 126.436 50.1508 124.717 53.9657L108.504 37.5614C114.498 33.1869 121.81 33.0258 124.717 33.4921Z" fill="#F5C6D8"/>
</g>
<mask id="mask2_5140_2765" style="mask-type:alpha" maskUnits="userSpaceOnUse" x="30" y="26" width="26" height="27">
<path d="M34.4165 28.8959C31.5366 34.6771 30.805 41.2731 31.011 46.9493C31.1981 52.1059 37.1028 53.8909 40.9045 50.402L53.38 38.9527C57.2119 35.436 55.987 29.1177 50.9386 27.8668C45.0924 26.4182 40.831 26.1214 38.1761 26.2776C36.5309 26.3745 35.1513 27.4207 34.4165 28.8959Z" fill="#EEA226"/>
</mask>
<g mask="url(#mask2_5140_2765)">
<path d="M31.5613 37.9339C31.4118 38.8208 31.2942 39.7066 31.2051 40.5862C30.3876 48.6534 39.6234 51.5776 45.5975 46.0951L50.878 41.2489C55.86 36.6768 49.5699 27.0789 42.8405 26.4159C35.0865 25.652 32.8566 30.2508 31.5613 37.9339Z" fill="#91897D"/>
<path d="M34.5152 35.3547C33.7171 37.8297 33.495 40.4234 33.6073 42.8738C33.8323 47.783 39.5737 49.0066 43.0282 45.5112L46.3566 42.1433C49.3651 39.0992 48.8859 34.0296 44.747 32.9398C42.7303 32.4088 40.8136 32.1798 39.1991 32.1261C37.0821 32.0557 35.1653 33.3388 34.5152 35.3547Z" fill="#F5C6D8"/>
</g>
<mask id="mask3_5140_2765" style="mask-type:alpha" maskUnits="userSpaceOnUse" x="27" y="25" width="105" height="73">
<path d="M68.6407 27.4303C47.8924 32.6173 39.4711 44.5957 35.6211 50.4839C31.5387 56.7276 28.2968 61.4104 27.6964 71.1362C27.0972 80.8435 34.8805 87.9899 46.0673 93.2293C55.5529 97.6719 75.4848 97.872 85.6908 97.1916C99.9393 96.5112 126.995 89.9874 130.117 72.9372C133.327 55.4073 121.952 43.2084 116.429 38.717C109.145 32.7934 89.389 22.2432 68.6407 27.4303Z" fill="#D9D9D9" stroke="black"/>
</mask>
<g mask="url(#mask3_5140_2765)">
<path d="M68.6407 27.4303C47.8924 32.6173 39.4711 44.5957 35.6211 50.4839C31.5387 56.7276 28.2968 61.4104 27.6964 71.1362C27.0972 80.8435 34.8805 87.9899 46.0673 93.2293C55.5529 97.6719 75.4848 97.872 85.6908 97.1916C99.9393 96.5112 126.995 89.9874 130.117 72.9372C133.327 55.4073 121.952 43.2084 116.429 38.717C109.145 32.7934 89.389 22.2432 68.6407 27.4303Z" fill="#FAEDC4"/>
<path d="M74.3509 58.2758C68.711 74.2095 39.6773 79.0114 25.8653 79.4207C13.7799 44.3883 51.7147 25.7317 74.3508 20.957C75.2621 26.6412 79.9908 42.342 74.3509 58.2758Z" fill="#91897D"/>
<path d="M98.1008 65.9557C86.2858 57.3105 85.7718 32.6839 87.773 22.758C118.607 14.9774 138.285 50.0662 143.488 67.2764C133.282 70.4383 109.916 74.6008 98.1008 65.9557Z" fill="#91897D"/>
</g>
<ellipse cx="58.716" cy="60.4815" rx="5.33651" ry="4.9152" transform="rotate(-23.2851 58.716 60.4815)" fill="#562528"/>
<ellipse cx="4.9936" cy="4.59937" rx="4.9936" ry="4.59937" transform="matrix(-0.918549 -0.395307 -0.395307 0.918549 115.551 56.8438)" fill="#562528"/>
<path d="M84.969 72.0783L84.9583 76.36M84.9583 76.36C84.0922 78.4281 82.5194 79.6279 77.7404 79.602C74.2045 79.5829 72.1415 78.8013 71.9277 75.5924M84.9583 76.36C85.8451 78.2404 87.5366 80.196 93.8569 79.2766C96.1363 78.945 98.2557 78.2617 98.3484 74.2198" stroke="#562528" stroke-width="1.5" stroke-linecap="round"/>
<path d="M82.0301 71.4257C83.5439 73.4767 86.5282 73.3745 87.7291 71.2305C89.0748 68.8277 87.2124 65.7295 84.4752 65.8178C81.732 65.9062 80.3298 69.1221 82.0301 71.4257Z" fill="#DC96B0"/>
<path d="M20.0316 124.258C19.3029 133.149 23.0986 137.371 26.2688 139.994C29.0007 136.864 34.3257 130.867 32.0046 130.053C29.6836 129.239 29.5623 123.321 29.2784 119.939L28.3532 108.917C26.2121 94.591 17.3211 93.2898 11.482 94.6873C5.64289 96.0847 3.72617 101.998 1.9544 106.982C-0.946764 115.55 6.31087 119.482 14.0336 118.833C20.2118 118.315 21.1585 113.725 20.7636 109.554C21.6607 115.129 20.2601 121.471 20.0316 124.258Z" fill="#91897D"/>
<path d="M14.7254 107.7C17.5626 106.531 20.0618 108.602 20.9495 110.168C18.0793 102.953 15.0434 103.645 12.8838 106.427C12.172 107.344 13.6523 108.142 14.7254 107.7Z" fill="#7B766E"/>
<circle cx="61" cy="59" r="1" fill="white"/>
<ellipse cx="111.5" cy="58" rx="1.5" ry="1" fill="white"/>
<path d="M52.4671 17.1608C57.3747 12.3177 68.6268 10.0481 68.6268 10.0481C68.6268 10.0481 75.2143 9.14299 79.4363 9.38985C85.3553 9.73594 86.3229 9.96963 91.1213 10.8784C99.0786 12.5205 105.887 17.5138 110.315 23.3575C112.464 26.1934 112.306 31.3091 112.088 33.3388C111.838 35.6808 105.407 39.671 99.4278 41.695C90.6855 44.6542 85.0567 43.3399 75.832 43.0365C68.2321 42.7866 66.8934 43.1845 58.7353 41.2051C55.2286 40.3543 51.499 38.05 49.356 35.1468C47.0756 32.0577 46.1249 28.9575 46.4784 26.6265C47.1344 22.3017 49.3536 20.2334 52.4671 17.1608Z" fill="#F4B396"/>
<path fill-rule="evenodd" clip-rule="evenodd" d="M57.0421 40.3898C57.0421 40.3898 57.0806 36.513 57.1585 34.039C57.3802 26.9936 60.6278 22.7032 60.6278 22.7032C60.6278 22.7032 63.174 18.4747 65.2992 16.415C67.5425 14.2408 70.8738 11.7397 70.8738 11.7397C70.8738 11.7397 65.3079 13.6557 61.9959 16.5697C59.4829 18.7806 58.726 19.4894 57.1675 22.4514C55.2362 26.122 54.4462 29.623 55.0745 33.7228C55.4867 36.4124 57.0421 40.3898 57.0421 40.3898Z" fill="#F29D77"/>
<path fill-rule="evenodd" clip-rule="evenodd" d="M97.0659 15.3263C98.9058 16.9993 100.594 18.9209 101.446 20.8798C103.528 25.6689 103.488 28.3587 101.648 31.4506C100.154 33.961 98.2931 34.7623 95.9111 35.7879C95.4899 35.9692 95.0524 36.1576 94.5978 36.3637C91.3951 37.8153 89.0112 37.9354 86.0514 38.0845C85.1221 38.1314 84.136 38.181 83.05 38.2757C77.935 38.7215 74.7964 38.5229 70.1135 38.2266C69.5391 38.1903 68.9414 38.1525 68.3141 38.1142C66.8565 38.0253 65.5613 38.0039 64.3439 37.9838C61.1687 37.9314 58.522 37.8878 54.901 36.6774C52.7335 35.9529 50.1554 34.5209 48.1312 33.2785C46.8044 30.822 46.2884 28.4507 46.5681 26.5738C47.1909 22.3959 49.1788 20.3185 51.9787 17.3926C52.0693 17.2979 52.1607 17.2024 52.253 17.1059C56.8937 12.2502 67.4795 9.91967 67.4795 9.91967C67.4795 9.91967 73.6742 8.97735 77.6394 9.19732C83.1985 9.50571 86.4026 10.2311 91.5205 12.4949C91.721 12.5836 91.9173 12.67 92.1098 12.7547C93.9259 13.5538 95.4153 14.2091 97.0659 15.3263Z" fill="#F8C5AF"/>
<path fill-rule="evenodd" clip-rule="evenodd" d="M57.0846 37.298C56.6892 37.2052 56.2842 37.099 55.8669 36.9773C55.5373 35.8943 55.2273 34.72 55.0745 33.7228C54.4462 29.623 55.2362 26.122 57.1675 22.4514C58.726 19.4894 59.4829 18.7806 61.9959 16.5697C65.3079 13.6557 70.8738 11.7397 70.8738 11.7397C70.8738 11.7397 67.5425 14.2408 65.2992 16.415C63.174 18.4747 60.6278 22.7032 60.6278 22.7032C60.6278 22.7032 57.3802 26.9936 57.1585 34.039C57.1278 35.0151 57.1032 36.2095 57.0846 37.298Z" fill="#F4B396"/>
<path fill-rule="evenodd" clip-rule="evenodd" d="M96.9651 15.2951C96.7487 14.9561 94.1091 12.9625 92.8163 12.0081L91.1617 10.8745C88.3394 10.3098 85.4792 9.87973 82.2386 9.59473L89.4706 14.4923L96.9651 15.2951Z" fill="#F8C5AF"/>
<path d="M78.971 10.045L78.1903 9.96141C78.1903 9.96141 78.5722 9.48807 78.5862 9.21419C78.5989 8.96731 78.4776 8.83443 78.3325 8.63427C78.107 8.3232 77.6633 8.24674 77.273 8.20493C76.9321 8.16842 76.3327 8.36323 75.9905 8.3834C75.0034 8.44156 74.447 8.46401 73.4589 8.42806C72.1719 8.38125 71.4268 8.39911 70.18 8.07683C69.4168 7.87956 69.0521 7.55085 68.2785 7.39937C67.83 7.31155 67.5701 7.29802 67.1162 7.27438L67.1075 7.27393C66.5834 7.24664 66.2056 7.57095 65.7637 7.2879C65.508 7.1242 65.2757 6.6829 65.2757 6.6829L65.8807 6.19497C65.8807 6.19497 66.4243 5.52317 66.9179 5.35852C67.1296 5.28789 67.2622 5.30471 67.4811 5.26092C68.8257 4.99194 69.4084 4.18729 70.771 4.03409C71.9898 3.89707 72.6945 4.11168 73.8937 4.3686C74.9638 4.59785 75.7131 4.52387 76.5675 5.20775C77.0753 5.6142 77.2048 5.9979 77.6131 6.50419C78.212 7.24675 78.9517 7.4718 79.1466 8.40563C79.2782 9.03594 78.971 10.045 78.971 10.045Z" fill="#9DBE98"/>
<path fill-rule="evenodd" clip-rule="evenodd" d="M65.3945 6.87947L67.7794 6.16682L70.8213 5.782L74.1001 6.13323L76.6345 6.79952L78.1903 7.7558L78.9403 8.86266L78.5823 10.0035L78.1911 9.96162C78.1911 9.96162 78.573 9.48829 78.587 9.2144C78.5983 8.99375 78.5026 8.86415 78.3786 8.6962C78.3638 8.67624 78.3487 8.65574 78.3333 8.63449C78.1078 8.32342 77.6641 8.24696 77.2738 8.20514C77.0714 8.18346 76.7778 8.24334 76.5011 8.29979C76.3117 8.3384 76.1303 8.37542 75.9912 8.38361C75.0042 8.44177 74.4478 8.46422 73.4596 8.42827C73.2951 8.42229 73.1395 8.41736 72.9905 8.41265C71.974 8.38047 71.2683 8.35813 70.1808 8.07705C69.828 7.98585 69.5603 7.86656 69.2981 7.74968C68.993 7.61373 68.6953 7.48104 68.2793 7.39958C67.8308 7.31176 67.5709 7.29823 67.117 7.2746L67.1083 7.27414C66.9079 7.26371 66.7289 7.30468 66.5595 7.34344C66.2859 7.40606 66.0374 7.46293 65.7644 7.28811C65.6217 7.19673 65.4863 7.01881 65.3945 6.87947Z" fill="#90AE8B"/>
<path d="M80.3956 8.54483C80.1162 9.13777 79.9077 10.1508 79.9077 10.1508L80.6884 10.2344C80.6884 10.2344 80.984 9.75309 81.2404 9.50391C81.6495 9.10647 81.9803 8.99786 82.5034 8.77062C83.4195 8.37269 84.0265 8.43829 85.0071 8.24919C86.4463 7.97168 87.2861 7.97877 88.7069 7.619C89.6788 7.37293 90.1568 6.91234 91.1577 6.85501C91.8311 6.81644 92.2323 7.24335 92.8752 7.03899C93.4537 6.85508 94.0852 6.06313 94.0852 6.06313L94.1437 5.51667C94.1437 5.51667 93.4716 5.92261 92.9922 5.94606C92.7472 5.95804 92.6102 5.91624 92.3677 5.87916C90.9682 5.66511 90.4245 4.75689 89.0498 4.41827C87.978 4.15426 87.3318 3.95916 86.2394 4.11722C84.7328 4.33521 84.0027 5.02129 82.8045 5.96022C81.7184 6.81124 80.9837 7.29668 80.3956 8.54483Z" fill="#9DBE98"/>
<path fill-rule="evenodd" clip-rule="evenodd" d="M93.934 6.23536L92.6984 6.46626L91.084 6.05645L89.6258 5.66336L86.3749 5.78889L83.6649 6.76199L81.3034 8.16724L80.2496 10.1862L80.4808 10.211L80.7302 10.1647C80.8215 10.023 81.0418 9.69416 81.239 9.50257C81.5965 9.15517 81.8943 9.02845 82.313 8.85029C82.3733 8.82463 82.4361 8.79789 82.502 8.76928C83.1165 8.50234 83.5919 8.44399 84.1344 8.37741C84.4006 8.34475 84.6829 8.3101 85.0057 8.24785C85.6017 8.13293 86.0949 8.06682 86.5691 8.00324C87.2401 7.9133 87.8731 7.82844 88.7055 7.61767C89.0988 7.51808 89.4113 7.38335 89.7102 7.25444C90.1499 7.06483 90.5605 6.8878 91.1563 6.85368C91.4508 6.83681 91.6932 6.90896 91.9266 6.97841C92.2268 7.06776 92.512 7.15264 92.8737 7.03765C93.2801 6.90848 93.7125 6.47937 93.934 6.23536Z" fill="#90AE8B"/>
<path d="M78.95 7.19419C79.0952 8.32087 78.6401 10.0866 78.6401 10.0866C78.6401 10.0866 79.0511 10.4195 79.3687 10.4725C79.7417 10.5348 80.3147 10.2659 80.3147 10.2659C80.3147 10.2659 80.4667 8.47378 80.32 7.34095C80.223 6.59092 80.1076 6.17812 79.9068 5.44896C79.715 4.75244 79.325 3.6929 79.325 3.6929C79.325 3.6929 78.7774 3.7083 78.5313 3.91583C78.1198 4.26266 78.3845 5.28589 78.3845 5.28589C78.3845 5.28589 78.8506 6.4233 78.95 7.19419Z" fill="#D29A81"/>
</svg>
