<svg width="560" height="543" viewBox="0 0 560 543" fill="none" xmlns="http://www.w3.org/2000/svg">
<mask id="mask0_4384_4333" style="mask-type:alpha" maskUnits="userSpaceOnUse" x="118" y="256" width="382" height="287">
<path d="M124.001 419.001C143.45 354.936 170.902 288.09 197.5 270.071C284.942 259.394 467.282 248.049 480.049 270.071C492.816 292.093 498.003 330.966 499 347.649C499 365.167 498.402 408.811 496.008 443.246C493.614 477.681 486.034 507.644 482.543 518.322C478.553 525.996 466.185 536.74 448.63 518.322C432.149 501.029 428.152 471.503 428.137 456.497C427.76 473.464 425.38 506.782 418.209 523.827C410.628 541.845 391.112 538.342 382.301 534.338C353.974 515.919 338.58 475.278 334.424 457.26C336.818 483.687 333.927 493.175 324.119 496.845C340.078 501.35 345.065 534.077 318.134 536.885C225.571 546.539 189.271 543.182 165 528.5C141.395 508.981 106.618 476.255 124.001 419.001Z" fill="#D9D9D9"/>
<path d="M324.119 496.845C340.078 501.35 345.065 534.077 318.134 536.885C225.571 546.539 189.271 543.182 165 528.5C141.395 508.981 106.618 476.255 124.001 419.001C143.45 354.936 170.902 288.09 197.5 270.071C284.942 259.394 467.282 248.049 480.049 270.071C492.816 292.093 498.003 330.966 499 347.649C499 365.167 498.402 408.811 496.008 443.246C493.614 477.681 486.034 507.644 482.543 518.322C478.553 525.996 466.185 536.74 448.63 518.322C431.075 499.903 427.684 467.604 428.183 453.756C428.017 469.606 425.789 505.809 418.209 523.827C410.628 541.845 391.112 538.342 382.301 534.338C353.974 515.919 338.58 475.278 334.424 457.26M324.119 496.845C333.927 493.175 336.818 483.687 334.424 457.26M324.119 496.845C305.334 501.516 243.758 511.915 212.239 498.301M334.424 457.26C327.941 435.405 282.756 370.271 226.5 399.5" stroke="black"/>
</mask>
<g mask="url(#mask0_4384_4333)">
<path d="M129.5 373.5C158.3 321.1 172.668 291 188 270.455C275.667 259.789 467.533 248.455 480.333 270.455C493.133 292.455 498.333 331.288 499.333 347.955C499.333 365.455 498.733 409.055 496.333 443.455C493.933 477.855 486.333 507.788 482.833 518.455C478.833 526.121 466.433 536.855 448.833 518.455C432.309 501.18 428.302 471.683 428.287 456.693C427.909 473.642 425.522 506.927 418.333 523.955C410.733 541.955 391.166 538.455 382.333 534.455C353.933 516.055 338.499 475.455 334.333 457.455C336.733 483.855 317.666 497.788 307.833 501.455C314.633 517.055 308.667 530.167 303 533C218.2 559.4 170.334 538.621 146 523.954C122.334 504.454 100.7 425.9 129.5 373.5Z" fill="#91897D"/>
<path d="M288 407C315 367.5 268.832 362.955 307.332 285.455C307.332 285.455 485.332 216.955 494.332 258.955C503.332 300.955 499.832 306.955 502.832 371.455L521.332 526.955C441.275 487.512 388.332 698.455 331.332 445.955C313.832 418.955 300.5 415.5 288 407Z" fill="#FAEDC4"/>
<path d="M197.5 272.5L179.5 282.5C201 306.5 295.5 318 296 314.5C296.4 311.7 300.167 302 302 297.5L197.5 272.5Z" fill="#7B766E"/>
<path d="M271.53 507.068C251.876 507.821 257.882 535.336 263.341 549L331.26 546.173C347.478 529.211 356.149 484.61 325.705 491.771C295.262 498.933 282.288 509.109 271.53 507.068Z" fill="#FAEDC4"/>
<path d="M424.267 436.97C441.506 442.239 454.461 435.141 469.771 430.113C470.581 429.847 471.282 430.638 470.833 431.362C461.418 446.548 419.915 457.582 422.996 437.747C423.087 437.163 423.701 436.797 424.267 436.97Z" fill="#DCD0AA"/>
<path d="M427.498 474.119L423.271 441.588L443.27 444.726L427.498 474.119Z" fill="#DCD0AA"/>
<path d="M321.89 501.882C321.064 501.943 320.443 502.662 320.504 503.488C320.565 504.314 321.284 504.935 322.11 504.874L321.89 501.882ZM412.209 523.227C412.083 522.408 411.317 521.846 410.499 521.972C409.68 522.097 409.118 522.863 409.243 523.682L412.209 523.227ZM479.464 516.167C479.306 515.354 478.518 514.824 477.705 514.982C476.892 515.141 476.361 515.929 476.52 516.742L479.464 516.167ZM323.713 516.819C322.936 517.104 322.537 517.966 322.823 518.744C323.109 519.522 323.971 519.92 324.748 519.634L323.713 516.819ZM396.364 525.879C396.046 525.114 395.168 524.751 394.403 525.069C393.638 525.387 393.275 526.264 393.593 527.03L396.364 525.879ZM322.11 504.874C324.698 504.683 329.206 504.665 334.206 505.248C339.216 505.833 344.615 507.009 349.045 509.15L350.35 506.449C345.497 504.104 339.73 502.872 334.553 502.269C329.366 501.664 324.667 501.677 321.89 501.882L322.11 504.874ZM409.243 523.682C409.533 525.567 409.581 528.791 408.739 532.145C407.899 535.489 406.207 538.844 403.116 541.189L404.93 543.579C408.723 540.7 410.699 536.657 411.649 532.875C412.596 529.104 412.554 525.475 412.209 523.227L409.243 523.682ZM476.52 516.742C476.885 518.614 477.064 521.833 476.359 525.218C475.655 528.594 474.1 532.014 471.107 534.483L473.016 536.797C476.69 533.767 478.5 529.647 479.296 525.83C480.089 522.023 479.9 518.399 479.464 516.167L476.52 516.742ZM324.748 519.634C327.635 518.573 332.532 517.118 337.76 516.232C343.032 515.338 348.432 515.062 352.434 516.192L353.249 513.305C348.588 511.988 342.646 512.361 337.259 513.274C331.83 514.194 326.754 515.701 323.713 516.819L324.748 519.634ZM393.593 527.03C394.482 529.171 395.506 532.747 395.655 536.407C395.806 540.094 395.063 543.573 392.768 545.885L394.897 547.999C398.046 544.826 398.819 540.333 398.653 536.284C398.486 532.207 397.361 528.282 396.364 525.879L393.593 527.03Z" fill="#CBBF9A"/>
<path d="M295.5 315L301 298L483.5 264.5L492.5 284C411.5 322 349.5 315 295.5 315Z" fill="#E7DAAF"/>
</g>
<path d="M255.178 509.861C280.054 500.948 312.737 493.139 330.199 457.287C330.622 456.418 331.929 456.601 332.095 457.554C340.647 506.407 292.455 506.863 255.661 511.711C254.481 511.866 254.058 510.263 255.178 509.861Z" fill="#888177"/>
<path d="M252.5 392C306 409 331.727 444 333 458C336.409 495.5 319.833 498.334 310 502.001C291.167 506.668 277.5 510.5 243.5 513" stroke="#82796D" stroke-width="4" stroke-linecap="round"/>
<mask id="mask1_4384_4333" style="mask-type:alpha" maskUnits="userSpaceOnUse" x="436" y="1" width="120" height="131">
<path d="M538.135 1.54196C510.768 -1.63485 467.417 9.82115 441.365 18.5382C436.508 20.1632 435.183 26.3053 438.833 29.8976L539.568 129.042C543.28 132.695 549.505 131.143 550.751 126.086C562.636 77.8522 551.787 28.482 543.312 5.65353C542.479 3.40999 540.512 1.81791 538.135 1.54196Z" fill="#EEA226"/>
</mask>
<g mask="url(#mask1_4384_4333)">
<path d="M520.043 1.25401C496.471 2.69733 467.975 10.0333 447.334 16.5922C439.664 19.0293 437.574 28.658 443.309 34.3031L534.947 124.495C540.78 130.236 550.529 127.777 552.181 119.761C559.637 83.5666 554.934 47.413 548.649 22.9617C545.244 9.71713 533.693 0.418261 520.043 1.25401Z" fill="#91897D"/>
<path d="M534.343 32.1984C551.528 62.2763 541.504 101.568 534.343 117.455L466.832 49.1437C491.791 30.9275 522.239 30.2567 534.343 32.1984Z" fill="#F5C6D8"/>
</g>
<mask id="mask2_4384_4333" style="mask-type:alpha" maskUnits="userSpaceOnUse" x="144" y="2" width="122" height="127">
<path d="M162.173 5.96915C139.194 44.7403 142.316 94.8739 148.391 123.201C149.473 128.247 155.545 129.952 159.347 126.463L263.663 30.7284C267.495 27.2117 266.277 20.8976 261.374 19.161C210.12 1.00607 178.166 0.557415 165.961 3.1444C164.349 3.48615 163.013 4.5514 162.173 5.96915Z" fill="#EEA226"/>
</mask>
<g mask="url(#mask2_4384_4333)">
<path d="M156.614 16.6277C141.069 50.7062 142.504 90.7164 147.169 116.955C148.588 124.938 158.066 127.639 164.04 122.156L258.899 35.1003C264.921 29.5741 263.016 19.6617 255.271 17.0512C219.32 4.9331 193.478 1.7715 177.915 2.01257C168.499 2.15844 160.523 8.05958 156.614 16.6277Z" fill="#91897D"/>
<path d="M162.735 30.1491C150.309 54.7883 154.846 84.7022 160.711 102.929C162.216 107.608 168.036 108.695 171.49 105.2L226.118 49.9253C229.126 46.8812 228.725 41.8537 225.04 39.6774C203.687 27.0674 180.02 25.6084 167.633 26.7833C165.524 26.9833 163.689 28.2579 162.735 30.1491Z" fill="#F5C6D8"/>
</g>
<mask id="mask3_4384_4333" style="mask-type:alpha" maskUnits="userSpaceOnUse" x="129" y="0" width="431" height="300">
<path d="M300.832 6.95449C214.432 28.5545 179.364 78.4347 163.332 102.954C146.332 128.954 132.832 148.454 130.332 188.954C127.837 229.378 160.248 259.137 206.832 280.954C246.332 299.455 329.332 300.288 371.832 297.454C431.165 294.621 543.832 267.454 556.832 196.454C570.198 123.456 522.832 72.6578 499.832 53.9545C469.499 29.2878 387.232 -14.6455 300.832 6.95449Z" fill="#D9D9D9" stroke="black"/>
</mask>
<g mask="url(#mask3_4384_4333)">
<path d="M300.832 6.95449C214.432 28.5545 179.364 78.4347 163.332 102.954C146.332 128.954 132.832 148.454 130.332 188.954C127.837 229.378 160.248 259.137 206.832 280.954C246.332 299.455 329.332 300.288 371.832 297.454C431.165 294.621 543.832 267.454 556.832 196.454C570.198 123.456 522.832 72.6578 499.832 53.9545C469.499 29.2878 387.232 -14.6455 300.832 6.95449Z" fill="#FAEDC4"/>
<path d="M324.611 135.403C301.126 201.754 180.223 221.75 122.708 223.455C72.3818 77.5729 230.349 -0.11688 324.611 -19.9995C328.405 3.67029 348.097 69.0518 324.611 135.403Z" fill="#91897D"/>
<path d="M423.507 167.384C374.307 131.384 372.167 28.8336 380.5 -12.4997C508.9 -44.8997 590.84 101.217 612.507 172.884C570.007 186.05 472.707 203.384 423.507 167.384Z" fill="#91897D"/>
</g>
<ellipse cx="259.503" cy="144.585" rx="22.2223" ry="20.4679" transform="rotate(-23.2851 259.503 144.585)" fill="#562528"/>
<ellipse cx="20.7943" cy="19.1527" rx="20.7943" ry="19.1527" transform="matrix(-0.918549 -0.395307 -0.395307 0.918549 496.176 129.44)" fill="#562528"/>
<path d="M368.828 192.878L368.783 210.707M368.783 210.707C365.177 219.319 358.627 224.316 338.727 224.208C324.003 224.128 315.412 220.873 314.521 207.511M368.783 210.707C372.476 218.538 379.52 226.681 405.839 222.853C415.331 221.472 424.157 218.626 424.542 201.795" stroke="#562528" stroke-width="8" stroke-linecap="round"/>
<path d="M375.092 166.54L358.413 167.077C350.555 167.331 346.539 176.542 351.409 183.141L360.721 195.757C365.057 201.632 373.605 201.339 377.045 195.198L384.412 182.044C388.267 175.161 382.932 166.287 375.092 166.54Z" fill="#DC96B0"/>
<path d="M98.4154 410.165C95.381 447.187 111.187 464.769 124.388 475.694C135.764 462.659 157.939 437.686 148.274 434.296C138.608 430.905 138.103 406.261 136.921 392.179L133.068 346.28C124.152 286.625 87.1283 281.207 62.8132 287.026C38.4981 292.846 30.5165 317.469 23.1385 338.222C11.0575 373.903 41.2797 390.275 73.4386 387.575C99.1658 385.416 103.108 366.303 101.464 348.933C105.199 372.151 99.3669 398.557 98.4154 410.165Z" fill="#91897D"/>
<path d="M60.3182 356.873C77.6473 328.327 96.9094 342.094 102.237 351.494C84.468 306.828 65.1753 334.932 58.6123 356.217C58.2703 357.326 59.7159 357.865 60.3182 356.873Z" fill="#7B766E"/>
<ellipse cx="269.5" cy="138" rx="4.5" ry="5" fill="white"/>
<circle cx="479.5" cy="134.5" r="4.5" fill="white"/>
</svg>
