<svg width="132" height="157" viewBox="0 0 132 157" fill="none" xmlns="http://www.w3.org/2000/svg">
<mask id="mask0_5374_2626" style="mask-type:alpha" maskUnits="userSpaceOnUse" x="24" y="87" width="93" height="70">
<path d="M26.1756 126.379C30.8463 110.994 37.4387 94.9415 43.826 90.6146C64.8244 88.0505 108.612 85.3261 111.678 90.6146C114.744 95.903 115.989 105.238 116.229 109.244C116.229 113.451 116.085 123.932 115.51 132.201C114.935 140.47 113.115 147.666 112.277 150.23C111.319 152.073 108.349 154.653 104.133 150.23C100.175 146.077 99.2152 138.987 99.2117 135.383C99.1212 139.458 98.5494 147.459 96.8274 151.552C95.007 155.879 90.3203 155.038 88.2045 154.076C81.402 149.653 77.7053 139.893 76.7073 135.567C77.2821 141.913 76.5878 144.191 74.2324 145.073C78.0648 146.154 79.2625 154.013 72.7953 154.688C50.5668 157.006 41.8498 156.2 36.0214 152.674C30.3526 147.987 22.0013 140.128 26.1756 126.379Z" fill="#D9D9D9"/>
<path d="M74.2324 145.073C78.0648 146.154 79.2625 154.013 72.7953 154.688C50.5668 157.006 41.8498 156.2 36.0214 152.674C30.3526 147.987 22.0013 140.128 26.1756 126.379C30.8463 110.994 37.4387 94.9415 43.826 90.6146C64.8244 88.0505 108.612 85.3261 111.678 90.6146C114.744 95.903 115.989 105.238 116.229 109.244C116.229 113.451 116.085 123.932 115.51 132.201C114.935 140.47 113.115 147.666 112.277 150.23C111.319 152.073 108.349 154.653 104.133 150.23C99.9173 145.807 99.1029 138.05 99.2226 134.725C99.1827 138.531 98.6478 147.225 96.8274 151.552C95.007 155.879 90.3203 155.038 88.2045 154.076C81.402 149.653 77.7053 139.893 76.7073 135.567M74.2324 145.073C76.5878 144.191 77.2821 141.913 76.7073 135.567M74.2324 145.073C69.7214 146.194 54.9344 148.692 47.3654 145.422M76.7073 135.567C75.1503 130.318 64.2993 114.677 50.7901 121.696" stroke="black"/>
</mask>
<g mask="url(#mask0_5374_2626)">
<path d="M27.4967 115.453C34.4128 102.869 37.8631 95.641 41.5451 90.7073C62.5975 88.1457 108.673 85.424 111.746 90.7072C114.82 95.9903 116.069 105.316 116.309 109.318C116.309 113.521 116.165 123.991 115.589 132.252C115.012 140.513 113.187 147.701 112.347 150.262C111.386 152.104 108.408 154.681 104.182 150.262C100.214 146.114 99.2516 139.031 99.2481 135.431C99.1573 139.501 98.5841 147.494 96.8576 151.583C95.0325 155.906 90.3338 155.065 88.2125 154.105C81.3925 149.686 77.6862 139.936 76.6857 135.614C77.262 141.954 72.6833 145.3 70.3219 146.18C71.9548 149.926 70.5222 153.075 69.1614 153.755C48.7974 160.095 37.3025 155.105 31.4591 151.583C25.7757 146.9 20.5806 128.036 27.4967 115.453Z" fill="#E7BD6D"/>
<path d="M43.826 91.1973L39.5034 93.5987C44.6665 99.3621 67.3599 102.124 67.48 101.283C67.5761 100.611 68.4806 98.2815 68.9209 97.2008L43.826 91.1973Z" fill="#DCA846"/>
<path d="M65.5591 123.497C72.0429 114.011 60.9561 112.92 70.2016 94.3088C70.2016 94.3088 112.947 77.859 115.108 87.945C117.269 98.031 116.429 99.4719 117.149 114.961L121.592 152.303C102.367 142.831 89.6531 193.488 75.965 132.852C71.7625 126.368 68.5609 125.538 65.5591 123.497Z" fill="#F6F4EC"/>
<path d="M61.6036 147.528C56.884 147.709 58.3261 154.316 59.6371 157.597L75.9474 156.918C79.8419 152.845 81.9242 142.135 74.6134 143.854C67.3027 145.574 64.187 148.018 61.6036 147.528Z" fill="#F6F4EC"/>
<path d="M99.0927 130.908C102.262 131.609 104.855 130.598 107.658 129.588C108.46 129.299 109.025 130.018 108.383 130.578C105.263 133.298 98.4283 134.848 97.963 131.714C97.8762 131.13 98.5155 130.78 99.0927 130.908Z" fill="#DCD0AA"/>
<path d="M99.058 139.615L98.043 131.803L102.846 132.556L99.058 139.615Z" fill="#DCD0AA"/>
<path d="M73.8557 145.239C72.9822 145.303 72.2149 145.983 72.142 146.758C72.069 147.533 72.718 148.108 73.5915 148.044L73.8557 145.239ZM73.5915 148.044C74.7418 147.959 77.5489 148.048 79.4474 148.966L81.3024 146.441C78.7426 145.204 75.282 145.134 73.8557 145.239L73.5915 148.044Z" fill="#CBBF9A"/>
<path d="M96.5336 151.214C96.41 150.408 95.6368 149.867 94.8066 150.004C93.9765 150.142 93.4037 150.907 93.5273 151.713L96.5336 151.214ZM93.5273 151.713C93.577 152.037 93.5904 152.665 93.4269 153.316C93.2649 153.961 92.9649 154.499 92.5029 154.849L94.3386 157.169C95.5298 156.265 96.1109 155.026 96.3785 153.96C96.6446 152.9 96.6362 151.882 96.5336 151.214L93.5273 151.713Z" fill="#CBBF9A"/>
<path d="M112.676 149.471C112.52 148.671 111.725 148.162 110.901 148.333C110.077 148.504 109.536 149.292 109.692 150.092L112.676 149.471ZM109.692 150.092C109.755 150.414 109.794 151.04 109.657 151.698C109.521 152.349 109.243 152.898 108.796 153.267L110.724 155.511C111.877 154.559 112.408 153.298 112.632 152.222C112.855 151.152 112.805 150.135 112.676 149.471L109.692 150.092Z" fill="#CBBF9A"/>
<path d="M73.5708 148.83C72.8145 149.108 72.5098 149.95 72.8901 150.711C73.2704 151.471 74.1918 151.863 74.948 151.585L73.5708 148.83ZM74.948 151.585C75.5884 151.349 76.7004 151.018 77.8812 150.818C79.1151 150.609 80.1866 150.586 80.857 150.775L81.4032 147.969C79.993 147.57 78.3408 147.703 77.0154 147.928C75.6368 148.161 74.3538 148.542 73.5708 148.83L74.948 151.585Z" fill="#CBBF9A"/>
<path d="M92.6395 151.571C92.3261 150.816 91.4494 150.478 90.6813 150.817C89.9133 151.155 89.5448 152.041 89.8582 152.796L92.6395 151.571ZM89.8582 152.796C90.0329 153.217 90.2411 153.948 90.2706 154.671C90.3016 155.428 90.1298 155.861 89.9242 156.068L92.0231 158.139C93.1249 157.029 93.3171 155.547 93.2721 154.447C93.2257 153.311 92.9178 152.241 92.6395 151.571L89.8582 152.796Z" fill="#CBBF9A"/>
<path d="M108.186 149.359C107.532 148.87 106.605 149.027 106.118 149.711C105.63 150.394 105.766 151.344 106.42 151.833L108.186 149.359ZM106.42 151.833C106.785 152.106 107.337 152.628 107.732 153.234C108.145 153.87 108.218 154.33 108.147 154.613L111.009 155.322C111.39 153.805 110.799 152.433 110.199 151.51C109.579 150.557 108.768 149.794 108.186 149.359L106.42 151.833Z" fill="#CBBF9A"/>
<path d="M67.3599 101.404L68.6806 97.3211L112.507 89.2764L114.668 93.9591C95.2164 103.085 80.3276 101.404 67.3599 101.404Z" fill="#E7DAAF"/>
</g>
<path d="M63.381 145.989C67.344 144.389 71.3287 142.084 74.1792 137.639C74.6982 136.829 75.9716 137.024 75.996 137.986C76.1745 145.001 70.2943 146.905 63.8346 147.862C62.6554 148.036 62.2757 146.436 63.381 145.989Z" fill="#CDA04A"/>
<path d="M57.1011 120C69.5907 124.074 75.5968 132.463 75.8939 135.818C76.6898 144.806 72.8202 145.485 70.5245 146.364C66.1279 147.482 62.9374 148.401 55 149" stroke="#DCA846" stroke-width="4" stroke-linecap="round"/>
<mask id="mask1_5374_2626" style="mask-type:alpha" maskUnits="userSpaceOnUse" x="105" y="26" width="25" height="27">
<path d="M122.71 26.0041C118.96 26.0678 114.524 26.87 110.406 27.8851C105.434 29.111 104.083 35.2054 107.733 38.7977L119.827 50.7014C123.539 54.3547 129.62 52.7186 129.863 47.5161C130.183 40.6395 129.036 34.2679 127.776 29.894C127.113 27.5945 125.102 25.9634 122.71 26.0041Z" fill="#EEA226"/>
</mask>
<g mask="url(#mask1_5374_2626)">
<path d="M129.906 44.0726C129.885 43.0768 129.837 42.098 129.766 41.1411C129.058 31.6496 120.083 25.5459 110.831 27.7813C105.387 29.0968 104.475 35.5913 108.467 39.5202L117.372 48.285C122.211 53.0476 130.046 50.8607 129.906 44.0726Z" fill="#E7BD6D"/>
<path d="M124.717 33.4921C128.843 40.7151 126.436 50.1508 124.717 53.9657L108.504 37.5614C114.498 33.1869 121.81 33.0258 124.717 33.4921Z" fill="#F5C6D8"/>
</g>
<mask id="mask2_5374_2626" style="mask-type:alpha" maskUnits="userSpaceOnUse" x="30" y="26" width="26" height="27">
<path d="M34.4165 28.8959C31.5366 34.6771 30.805 41.2731 31.011 46.9493C31.1981 52.1059 37.1028 53.8909 40.9045 50.402L53.38 38.9527C57.2119 35.436 55.987 29.1177 50.9386 27.8668C45.0924 26.4182 40.831 26.1214 38.1761 26.2776C36.5309 26.3745 35.1513 27.4207 34.4165 28.8959Z" fill="#EEA226"/>
</mask>
<g mask="url(#mask2_5374_2626)">
<path d="M31.5613 37.9339C31.4118 38.8208 31.2942 39.7066 31.2051 40.5862C30.3876 48.6534 39.6234 51.5776 45.5975 46.0951L50.878 41.2489C55.86 36.6768 49.5699 27.0789 42.8405 26.4159C35.0865 25.652 32.8566 30.2508 31.5613 37.9339Z" fill="#E7BD6D"/>
<path d="M34.5152 35.3547C33.7171 37.8297 33.495 40.4234 33.6073 42.8738C33.8323 47.783 39.5737 49.0066 43.0282 45.5112L46.3566 42.1433C49.3651 39.0992 48.8859 34.0296 44.747 32.9398C42.7303 32.4088 40.8136 32.1798 39.1991 32.1261C37.0821 32.0557 35.1653 33.3388 34.5152 35.3547Z" fill="#F5C6D8"/>
</g>
<mask id="mask3_5374_2626" style="mask-type:alpha" maskUnits="userSpaceOnUse" x="27" y="25" width="105" height="73">
<path d="M68.6402 27.4303C47.8919 32.6173 39.4706 44.5957 35.6206 50.4839C31.5382 56.7276 28.2963 61.4104 27.6959 71.1362C27.0967 80.8435 34.88 87.9899 46.0668 93.2293C55.5525 97.6719 75.4843 97.872 85.6903 97.1916C99.9388 96.5112 126.995 89.9874 130.117 72.9372C133.326 55.4073 121.952 43.2084 116.429 38.717C109.144 32.7934 89.3885 22.2432 68.6402 27.4303Z" fill="#D9D9D9" stroke="black"/>
</mask>
<g mask="url(#mask3_5374_2626)">
<path d="M68.6402 27.4303C47.8919 32.6173 39.4706 44.5957 35.6206 50.4839C31.5382 56.7276 28.2963 61.4104 27.6959 71.1362C27.0967 80.8435 34.88 87.9899 46.0668 93.2293C55.5525 97.6719 75.4843 97.872 85.6903 97.1916C99.9388 96.5112 126.995 89.9874 130.117 72.9372C133.326 55.4073 121.952 43.2084 116.429 38.717C109.144 32.7934 89.3885 22.2432 68.6402 27.4303Z" fill="#F6F4EC"/>
<path d="M74.3504 58.2758C68.7105 74.2095 39.6768 79.0114 25.8649 79.4207C13.7794 44.3883 51.7142 25.7317 74.3504 20.957C75.2616 26.6412 79.9903 42.342 74.3504 58.2758Z" fill="#E7BD6D"/>
<path d="M98.0998 65.9557C86.2848 57.3105 85.7708 32.6839 87.772 22.758C118.606 14.9774 138.284 50.0662 143.487 67.2764C133.281 70.4383 109.915 74.6008 98.0998 65.9557Z" fill="#E7BD6D"/>
</g>
<ellipse cx="58.716" cy="60.4815" rx="5.33651" ry="4.9152" transform="rotate(-23.2851 58.716 60.4815)" fill="#562528"/>
<ellipse cx="4.9936" cy="4.59937" rx="4.9936" ry="4.59937" transform="matrix(-0.918549 -0.395307 -0.395307 0.918549 115.551 56.8438)" fill="#562528"/>
<path d="M85.1788 72.0783L85.1681 76.36M85.1681 76.36C84.2998 78.4281 82.7231 79.6279 77.9323 79.6021C74.3877 79.5829 72.3196 78.8013 72.1053 75.5924M85.1681 76.36C86.057 78.2404 87.7527 80.196 94.0886 79.2766C96.3736 78.945 98.4983 78.2617 98.5912 74.2198" stroke="#562528" stroke-width="1.5" stroke-linecap="round"/>
<path d="M82.2393 71.4341C83.7549 73.4825 86.7406 73.3776 87.9444 71.2337C89.2944 68.8292 87.4326 65.7294 84.6914 65.8176C81.9412 65.906 80.534 69.1293 82.2393 71.4341Z" fill="#DC96B0"/>
<path d="M20.0316 124.258C19.3029 133.149 23.0986 137.371 26.2688 139.994C29.0007 136.864 34.3257 130.867 32.0046 130.053C29.6836 129.239 29.5623 123.321 29.2784 119.939L28.3532 108.917C26.2121 94.591 17.3211 93.2898 11.482 94.6873C5.64289 96.0847 3.72617 101.998 1.9544 106.982C-0.946764 115.55 6.31087 119.482 14.0336 118.833C20.2118 118.315 21.1585 113.725 20.7636 109.554C21.6607 115.129 20.2601 121.471 20.0316 124.258Z" fill="#E7BD6D"/>
<path d="M14.7254 107.7C17.5626 106.531 20.0618 108.602 20.9495 110.168C18.0793 102.953 15.0434 103.645 12.8838 106.427C12.172 107.344 13.6523 108.142 14.7254 107.7Z" fill="#DCA846"/>
<circle cx="61" cy="59" r="1" fill="white"/>
<ellipse cx="111.5" cy="58" rx="1.5" ry="1" fill="white"/>
<path d="M58.7179 14.0914C57.5685 18.4255 58.5153 35.4584 58.5153 35.4584L111.199 35.9579C111.199 35.9579 111.763 21.4324 110.619 16.1505C109.476 10.8687 109.317 9.58503 105.009 5.34162C100.702 1.09821 91.0747 0.365856 84.3401 0.302012C77.6055 0.238167 71.2042 0.996555 65.5396 4.96739C59.8751 8.93822 59.2588 12.0518 58.7179 14.0914Z" fill="#F3C66D"/>
<path fill-rule="evenodd" clip-rule="evenodd" d="M69.632 31.9313C69.632 31.9313 69.6633 24.2279 69.7259 22.0312C69.7404 21.522 69.7511 21.0289 69.7615 20.5474L69.7615 20.5473C69.8213 17.7926 69.8729 15.4175 70.5829 12.5658C71.1913 10.1227 71.9589 8.50542 72.9206 6.47916C73.1753 5.94253 73.4436 5.37723 73.7261 4.76029C74.0152 4.12926 74.3063 3.30831 74.596 2.4915L74.596 2.49149L74.596 2.49147C74.7789 1.97591 74.9612 1.46199 75.1419 0.998523C75.504 0.928216 75.8678 0.864251 76.2332 0.806184C75.8246 2.23182 75.2587 4.2024 74.8256 5.69671C74.5198 6.75178 74.2232 7.63391 73.9424 8.46936L73.9424 8.46946L73.9423 8.4695L73.9423 8.46956C73.4401 9.96363 72.988 11.3084 72.6228 13.2262C72.1043 15.9492 72.0587 17.7496 71.9985 20.1227C71.9833 20.7214 71.9672 21.3566 71.9423 22.0522C71.8639 24.2485 71.8485 31.9523 71.8485 31.9523L69.632 31.9313ZM80.2915 0.384596C80.3885 1.62897 80.5157 3.45579 80.546 4.82496C80.5712 5.96142 80.5528 6.7741 80.5322 7.68303L80.5322 7.68313L80.5322 7.68323L80.5322 7.68332L80.5322 7.68341L80.5322 7.68349C80.5211 8.17583 80.5093 8.69643 80.5034 9.31204L80.4244 17.6452C80.2644 19.5431 79.9381 23.98 79.9381 23.98C79.9381 23.98 78.726 31.9225 78.4857 33.2974L80.6994 33.6033C80.6994 33.6033 81.8542 25.9781 81.984 23.9994C82.0892 22.3965 82.0734 21.2477 82.0556 19.9629L82.0556 19.9629L82.0556 19.9629L82.0557 19.9628L82.0557 19.9628L82.0557 19.9628C82.0461 19.2666 82.0359 18.5305 82.0442 17.6605C82.055 16.517 82.0938 15.5495 82.1305 14.6345L82.1305 14.6344L82.1305 14.6344L82.1305 14.6344L82.1305 14.6344L82.1305 14.6343C82.1982 12.9455 82.2588 11.4355 82.1232 9.32739C82.0101 7.56926 81.8938 6.58508 81.6542 4.83546C81.4642 3.44802 81.1192 1.60014 80.876 0.355391C80.6808 0.364026 80.486 0.373741 80.2915 0.384596ZM85.6443 0.323005C86.215 1.56281 87.0504 3.45142 87.5363 4.89124C88.2648 7.04985 88.5288 8.32368 88.9754 10.4783L88.9754 10.4784L89.0161 10.6749C89.4504 12.7695 89.6208 14.0678 89.8723 15.9845L89.8725 15.9858L89.8734 15.9932C89.9075 16.2529 89.9431 16.5239 89.981 16.8098C90.0487 17.3205 90.1135 17.7868 90.1745 18.2264C90.4224 20.0114 90.6092 21.3562 90.6854 23.4409C90.7485 25.1648 90.8466 33.4146 90.8466 33.4146L92.8134 32.7922C92.8204 32.0551 92.7751 30.0908 92.7298 28.1263L92.7298 28.1258L92.7298 28.1258L92.7298 28.1257L92.7298 28.1256C92.6845 26.161 92.6391 24.1965 92.6461 23.4595C92.6461 23.4595 92.2006 19.4081 91.7712 16.8268C91.3476 14.28 91.0529 12.8575 90.4687 10.3325C90.3318 9.74096 90.2244 9.2185 90.1235 8.7281C89.8614 7.45415 89.6439 6.39649 89.0708 4.90579C88.5094 3.44542 87.4494 1.58407 86.7072 0.353133C86.3478 0.340796 85.9932 0.330868 85.6443 0.323005ZM92.5511 0.787271C93.4044 1.86314 94.9328 3.85805 95.8013 5.39698C96.9396 7.4138 97.375 8.62544 98.1376 10.7614C99.2102 13.7653 99.6988 15.5013 100.109 18.6154C100.372 20.6099 101.191 30.4498 101.191 30.4498L103.494 30.2579C103.494 30.2579 102.467 20.0642 102.077 17.8505L102.036 17.6145C101.479 14.4458 101.147 12.5552 99.7695 9.49471C98.8143 7.37322 98.1814 6.19274 96.7499 4.2663C95.9441 3.1819 94.6694 1.83572 93.8025 0.955106C93.3866 0.893876 92.969 0.838079 92.5511 0.787271ZM100.716 2.69471C101.387 3.62241 102.294 4.92761 102.872 5.96263C104.446 8.78015 104.981 10.5067 105.784 13.5406C106.16 14.9569 106.316 15.9452 106.503 17.1261C106.578 17.5993 106.658 18.1034 106.759 18.6784C106.912 19.5507 107.064 20.3128 107.208 21.0283L107.208 21.0284C107.568 22.8201 107.868 24.3194 107.963 26.5251C108.026 27.9986 107.927 30.3 107.927 30.3L109.801 30.5314L109.839 26.5429C109.839 26.5429 108.872 20.5742 108.386 17.9103L108.38 17.8773L108.38 17.8773C107.899 15.243 107.824 14.8313 107.24 12.9133C107.182 12.7252 107.127 12.542 107.073 12.3631L107.071 12.3586C106.265 9.69939 105.75 8.00001 104.07 5.47538C103.68 4.88902 103.149 4.21773 102.628 3.597C102.031 3.26447 101.391 2.96475 100.716 2.69471ZM70.5344 2.30722C69.862 3.37578 69.1195 4.61285 68.6025 5.6377C67.1687 8.47985 66.4577 10.1373 65.7177 13.1607C65.2103 15.2341 65.1567 16.787 65.0986 18.4694C65.0619 19.5345 65.0233 20.6514 64.8667 21.9852C64.6382 23.932 64.2106 28.2472 64.2106 28.2472L62.8466 28.2342C62.8466 28.2342 63.2036 23.9169 63.4175 21.9714C63.5532 20.7378 63.5945 19.6887 63.6336 18.6952C63.7037 16.9144 63.7667 15.3125 64.3537 13.1478C65.1791 10.1043 65.8831 8.40597 67.5795 5.628C68.1546 4.68623 68.9763 3.5977 69.765 2.61994C70.0204 2.51099 70.2768 2.4068 70.5344 2.30722Z" fill="#E2AE4A"/>
<path fill-rule="evenodd" clip-rule="evenodd" d="M58.1656 25.2346C61.5733 25.8752 66.9284 26.7826 70.949 27.0005C72.2493 27.071 73.4696 27.1579 74.6343 27.2409C80.2692 27.6423 84.5995 27.9507 90.3726 25.8527C95.1354 24.1218 98.1827 22.8416 101.033 19.2154C103.242 16.4048 103.566 15.4615 103.581 12.0939C103.591 10.0503 102.858 8.78069 101.927 7.16934C101.682 6.74439 101.423 6.29566 101.16 5.8027C100.301 4.19081 98.6032 2.7307 96.5999 1.46249C92.5403 0.570213 88.0103 0.33681 84.3396 0.302012C77.605 0.238167 71.2037 0.996555 65.5391 4.96739C60.1055 8.77634 59.3169 11.7965 58.7843 13.8366C58.7616 13.9233 58.7395 14.0082 58.7174 14.0914C58.1889 16.0843 58.1036 20.7623 58.1656 25.2346Z" fill="#F7D674"/>
<path fill-rule="evenodd" clip-rule="evenodd" d="M81.6248 27.518C80.8916 27.5384 80.1566 27.5348 79.4113 27.5145C79.6529 25.9662 79.9379 23.9809 79.9379 23.9809C79.9379 23.9809 80.2642 19.544 80.4243 17.646L80.5033 9.31288C80.5091 8.69724 80.5209 8.17661 80.5321 7.68424L80.5321 7.68416L80.5321 7.68407L80.5321 7.68397L80.5321 7.68387C80.5526 6.77495 80.571 5.96226 80.5458 4.8258C80.5155 3.45601 80.3882 1.62817 80.2912 0.383757C80.4856 0.372904 80.6804 0.363191 80.8756 0.354557C81.1188 1.59932 81.464 3.44824 81.6541 4.83631C81.8937 6.58592 82.0099 7.5701 82.123 9.32824C82.2586 11.4364 82.1981 12.9464 82.1303 14.6352L82.1303 14.6352L82.1303 14.6352L82.1303 14.6353L82.1303 14.6353C82.0936 15.5503 82.0548 16.5178 82.044 17.6614C82.0357 18.5313 82.0459 19.2674 82.0555 19.9636L82.0555 19.9637L82.0555 19.9637L82.0555 19.9637L82.0555 19.9637C82.0732 21.2486 82.089 22.3974 81.9839 24.0003C81.9136 25.0725 81.7552 26.4661 81.6248 27.518ZM92.6313 25.0073C92.019 25.2473 91.376 25.487 90.6979 25.7348C90.7088 24.9713 90.7104 24.1295 90.6853 23.4417C90.609 21.3571 90.4223 20.0124 90.1744 18.2274L90.1744 18.2274L90.1744 18.2273L90.1744 18.2272C90.1133 17.7876 90.0486 17.3213 89.9808 16.8107C89.9425 16.5219 89.9067 16.2484 89.8723 15.9864L89.8721 15.9854C89.6206 14.0687 89.4503 12.7704 89.0159 10.6757L88.9752 10.4792L88.9752 10.4791L88.9752 10.4791C88.5287 8.32447 88.2647 7.05065 87.5362 4.89208C87.05 3.4516 86.2141 1.5619 85.6434 0.322125C85.9921 0.329983 86.3467 0.339905 86.706 0.352233C87.4482 1.58316 88.509 3.44557 89.0706 4.90663C89.6437 6.39733 89.8613 7.45499 90.1233 8.72894C90.2242 9.21935 90.3317 9.7418 90.4685 10.3334C91.0528 12.8583 91.3474 14.2808 91.7711 16.8276C92.2004 19.409 92.646 23.4603 92.646 23.4603L92.6313 25.0073ZM102.073 17.825C101.784 18.2431 101.441 18.6977 101.033 19.2158C100.777 19.5424 100.518 19.85 100.257 20.1405C100.219 19.6065 100.17 19.0804 100.109 18.6162C99.6986 15.5021 99.21 13.7661 98.1375 10.7622C97.3749 8.62629 96.9395 7.41464 95.8012 5.39782C94.9321 3.85798 93.4024 1.86162 92.5494 0.786207C92.9672 0.836982 93.3846 0.892741 93.8003 0.953928C94.6673 1.83451 95.9433 3.18191 96.7497 4.26714C98.1813 6.19359 98.8142 7.37406 99.7694 9.49555C101.147 12.556 101.479 14.4466 102.036 17.6154L102.073 17.825ZM76.2336 0.805278C75.8249 2.23105 75.2587 4.20263 74.8254 5.69755C74.5196 6.75271 74.223 7.6349 73.9422 8.47041L73.9422 8.47042C73.4399 9.96448 72.9878 11.3093 72.6227 13.227C72.1042 15.95 72.0585 17.7505 71.9983 20.1236C71.9831 20.7223 71.967 21.3575 71.9422 22.0531C71.8843 23.6729 71.8828 25.9639 71.886 27.0551C71.5783 27.0362 71.2663 27.0181 70.9495 27.0009C70.5366 26.9785 70.1096 26.9489 69.672 26.913C69.673 25.7807 69.6812 23.5944 69.7257 22.0321C69.7402 21.5228 69.7509 21.0297 69.7614 20.5482L69.7614 20.5482C69.8212 17.7934 69.8727 15.4183 70.5828 12.5666C71.1911 10.1235 71.9587 8.50626 72.9204 6.47999L72.9205 6.47986L72.9205 6.47981L72.9206 6.47965L72.9207 6.47943L72.9207 6.47938C73.1753 5.94294 73.4435 5.37783 73.726 4.76114C74.015 4.1301 74.3062 3.30916 74.5959 2.49234L74.5959 2.49233L74.5959 2.49231C74.779 1.97608 74.9615 1.4615 75.1425 0.997566C75.5045 0.927278 75.8682 0.86333 76.2336 0.805278ZM69.7669 2.61832C70.022 2.50947 70.2782 2.4054 70.5356 2.30591C69.8628 3.37496 69.1197 4.61301 68.6023 5.63854C67.1685 8.4807 66.4575 10.1381 65.7176 13.1616C65.2101 15.2349 65.1565 16.7878 65.0985 18.4703C65.0617 19.5353 65.0232 20.6523 64.8666 21.986C64.7057 23.3562 64.4523 25.2645 64.3163 26.2748C63.8596 26.2074 63.406 26.1379 62.959 26.0673C63.0773 25.0203 63.2759 23.2582 63.4174 21.9723C63.5531 20.7387 63.5943 19.6895 63.6334 18.6961C63.7035 16.9153 63.7665 15.3133 64.3536 13.1486C65.179 10.1051 65.883 8.40681 67.5794 5.62884C68.1549 4.68628 68.9776 3.59671 69.7669 2.61832Z" fill="#F3C66D"/>
<path d="M53.2034 29.1403C53.8621 27.9824 54.6364 27.5008 56.1207 27.1735C58.5983 26.6272 58.4964 26.9776 60.7917 27.2178C64.5723 27.6135 66.4518 28.75 70.0833 29.7192C72.7541 30.4319 74.7362 30.6136 77.4829 31.08C82.322 31.9017 83.8212 31.9324 88.7322 31.5428C92.9095 31.2114 95.5588 30.5703 99.7421 30.2938C103.311 30.058 106.947 29.2991 110.401 30.1014C112.386 30.5626 112.544 30.7671 114.112 31.8862C115.714 33.0299 115.91 34.4544 116.204 36.5977L116.221 36.7183C116.542 39.0534 115.632 40.9095 114.008 42.8231C112.314 44.8196 111.051 44.6162 108.378 45.6189C104.471 47.0844 100.273 46.761 96.0023 47.0686C89.8795 47.5096 88.2417 47.2813 82.1068 46.9369C75.8479 46.5855 73.1907 46.5546 67.118 45.2277C62.3243 44.1802 63.4584 44.5519 57.8503 42.5756C56.2322 42.0053 53.3828 40.4115 52.7685 39.0371C51.9488 37.2031 52.115 36.0292 52.1335 34.0738C52.1503 32.3069 52.2966 30.7341 53.2034 29.1403Z" fill="#F3C66D"/>
<path fill-rule="evenodd" clip-rule="evenodd" d="M61.0914 43.7119C60.6667 43.567 60.1708 43.3938 59.5661 43.1811L58.7295 39.8772L58.768 35.8175L59.7536 30.7695L62.0018 27.443L62.3927 27.4467C62.7191 27.5062 63.0321 27.5716 63.3355 27.6421L61.2002 31.0681L60.0467 35.8296L60.0075 39.9605L61.0914 43.7119ZM70.1619 45.8387C69.6207 45.7418 69.0551 45.6334 68.4565 45.5116L67.5019 40.8151L67.5607 34.6187L68.659 29.3082C69.1035 29.4462 69.5717 29.5834 70.0734 29.7175L69.0126 34.3475L69.1216 40.8305L70.1619 45.8387ZM79.3386 46.7867C78.7659 46.7553 78.2224 46.7245 77.699 46.6924L77.0389 42.0452L77.0929 36.3474L77.8802 31.148C78.4668 31.2459 79.0034 31.3315 79.5035 31.4055L78.8013 36.0074L78.7472 41.7053L79.3386 46.7867ZM90.4263 47.3131C89.9963 47.314 89.5782 47.3097 89.161 47.3007L89.9966 42.1681L90.0324 38.3932L89.1829 31.5067C89.529 31.4767 89.8649 31.4446 90.1924 31.4108L91.5817 36.8409L91.5385 41.3992L90.4263 47.3131ZM101.669 46.8194C101.025 46.8545 100.378 46.8788 99.7267 46.9013L100.908 42.2716L101.641 36.9363L99.6627 30.3004C99.6894 30.2986 99.7161 30.2968 99.743 30.295C100.263 30.2607 100.785 30.2152 101.307 30.165C101.894 31.4038 103.211 34.4021 103.349 36.5963C103.439 38.0215 103.256 38.9816 103.032 40.1592C102.954 40.5717 102.87 41.0108 102.791 41.5059C102.512 43.2644 101.926 45.7544 101.669 46.8194ZM110.652 44.8928C110.541 44.9257 110.428 44.9589 110.312 44.9929C109.837 45.1322 109.312 45.286 108.715 45.4977C108.859 44.6968 109.047 43.5309 109.089 42.7053C109.159 41.3288 109.135 37.8621 109.135 37.8621C109.135 37.8621 108.757 35.7216 108.65 35.0083C108.543 34.295 106.736 30.0753 106.736 30.0753L107.832 29.7633C107.98 29.7701 108.127 29.7787 108.275 29.7894C108.625 30.3182 109.954 32.3792 110.451 33.8857C110.872 35.1601 110.95 35.9469 111.074 37.1976L111.099 37.4533C111.291 39.3665 111.246 40.4557 111.053 42.3677C110.976 43.133 110.807 44.097 110.652 44.8928Z" fill="#E2AE4A"/>
<path fill-rule="evenodd" clip-rule="evenodd" d="M56.1205 27.1728C54.6362 27.5002 53.862 27.9817 53.2032 29.1396C52.2964 30.7334 52.1501 32.3063 52.1334 34.0732C52.1307 34.3491 52.1252 34.6096 52.1199 34.8584C52.0875 36.3731 52.0643 37.4613 52.7683 39.0364C53.3826 40.4109 56.232 42.0046 57.8501 42.5749C60.872 43.6398 61.9363 44.023 63.0252 44.3138C63.9572 44.5627 64.9072 44.744 67.1179 45.227C72.5737 46.4192 75.2727 46.5652 80.3036 46.8374C80.8723 46.8681 81.4709 46.9005 82.1067 46.9362C82.963 46.9843 83.7318 47.0301 84.4373 47.0721C88.2328 47.2983 90.1995 47.4155 94.1407 47.1895C96.4487 46.2043 98.74 44.8929 99.9604 43.2592C100.17 42.9786 100.38 42.7106 100.584 42.4507C101.754 40.9574 102.718 39.7271 102.228 37.8672C101.912 36.6672 101.267 36.043 100.371 35.1762C100.264 35.073 100.154 34.9663 100.04 34.8548C97.9926 32.847 93.1681 31.2994 93.1681 31.2994L92.3542 31.1534C91.2358 31.2999 90.0613 31.4367 88.7321 31.5421C83.821 31.9317 82.3218 31.901 77.4827 31.0793C76.7056 30.9474 75.9897 30.8382 75.3021 30.7334C73.5594 30.4676 71.9983 30.2296 70.0831 29.7185C68.793 29.3742 67.724 29.0088 66.7124 28.663C64.8763 28.0353 63.229 27.4722 60.7915 27.2171C60.5535 27.1922 60.3412 27.1661 60.1491 27.1399L56.4383 27.1047C56.3372 27.1257 56.2315 27.1484 56.1205 27.1728Z" fill="#F7D674"/>
<path fill-rule="evenodd" clip-rule="evenodd" d="M62.4024 27.4471L62.0014 27.4433C62.0014 27.4433 60.3882 29.3749 59.7532 30.7697C59.0424 32.3309 58.958 33.4189 58.8431 34.8997C58.8207 35.1886 58.7971 35.4925 58.7675 35.8177L58.7517 35.9909C58.6169 37.4661 58.5353 38.3588 58.729 39.8775C58.8704 40.986 59.3441 42.546 59.5434 43.1719C60.146 43.3838 60.6409 43.5567 61.0651 43.7016C60.8196 43.0382 60.1836 41.2398 60.0071 39.9608C59.7857 38.3575 59.8612 37.4352 60.0462 35.8299C60.2639 33.9408 60.4167 32.8483 61.1997 31.0684C61.7416 29.8365 62.9218 28.1787 63.3179 27.6366C63.023 27.5684 62.719 27.5049 62.4024 27.4471ZM68.6433 29.302C68.4165 30.1792 67.7632 32.7981 67.5602 34.619C67.2916 37.0278 67.2491 38.4039 67.5015 40.8154C67.663 42.3588 68.1791 44.5222 68.4261 45.504C69.0263 45.6263 69.5932 45.7352 70.1357 45.8326C69.8816 44.8253 69.3181 42.4883 69.1212 40.8308C68.8218 38.3104 68.7119 36.8664 69.0121 34.3478C69.1972 32.7953 69.7932 30.6072 70.0494 29.7097C69.5509 29.5761 69.0854 29.4394 68.6433 29.302ZM77.8719 31.1452C77.7296 31.8928 77.2402 34.5401 77.0925 36.3476C76.911 38.5672 76.8824 39.8236 77.0384 42.0455C77.1466 43.586 77.5192 45.7804 77.6813 46.6899C78.2063 46.7221 78.7515 46.753 79.3259 46.7845C79.1926 45.8886 78.8405 43.4167 78.7468 41.7056C78.625 39.4822 78.6081 38.2266 78.8008 36.0077C78.9404 34.3994 79.3771 32.0362 79.4972 31.4031C78.9965 31.329 78.4592 31.2433 77.8719 31.1452ZM89.1911 31.5044C89.334 32.3284 89.9428 35.9518 90.0319 38.3935C90.0857 39.8672 90.0952 40.6967 89.9961 42.1684C89.8862 43.8014 89.4672 46.0334 89.209 47.3002C89.6248 47.3088 90.0418 47.3128 90.4711 47.3115C90.7824 46.0088 91.3822 43.3274 91.538 41.3995L91.543 41.338C91.6835 39.6002 91.7647 38.5946 91.5812 36.8412C91.3865 34.9805 90.5384 32.3451 90.2215 31.4062C89.8874 31.4408 89.5445 31.4737 89.1911 31.5044ZM101.609 36.5229C101.624 36.6635 101.634 36.8016 101.641 36.9365C101.716 38.5289 101.484 39.5857 101.194 40.9089L101.194 40.9089L101.193 40.909L101.193 40.9092L101.193 40.9094C101.121 41.2373 101.046 41.5816 100.971 41.9544C101.953 40.6722 102.663 39.5177 102.229 37.8676C102.086 37.3276 101.878 36.9042 101.609 36.5229Z" fill="#F3C66D"/>
</svg>
