<svg width="132" height="132" viewBox="0 0 132 132" fill="none" xmlns="http://www.w3.org/2000/svg">
<g id="cat 2">
<g id="Mask group">
<mask id="mask0_4656_2826" style="mask-type:alpha" maskUnits="userSpaceOnUse" x="24" y="62" width="93" height="70">
<g id="Vector 37">
<path d="M26.1756 101.379C30.8463 85.9942 37.4387 69.9415 43.826 65.6146C64.8244 63.0505 108.612 60.3261 111.678 65.6146C114.744 70.903 115.989 80.238 116.229 84.2444C116.229 88.4511 116.085 98.9319 115.51 107.201C114.935 115.47 113.115 122.666 112.277 125.23C111.319 127.073 108.349 129.653 104.133 125.23C100.175 121.077 99.2152 113.987 99.2117 110.383C99.1212 114.458 98.5494 122.459 96.8274 126.552C95.007 130.879 90.3203 130.038 88.2045 129.076C81.402 124.653 77.7053 114.893 76.7073 110.567C77.2821 116.913 76.5878 119.191 74.2324 120.073C78.0648 121.154 79.2625 129.013 72.7953 129.688C50.5668 132.006 41.8498 131.2 36.0214 127.674C30.3526 122.987 22.0013 115.128 26.1756 101.379Z" fill="#D9D9D9"/>
<path d="M74.2324 120.073C78.0648 121.154 79.2625 129.013 72.7953 129.688C50.5668 132.006 41.8498 131.2 36.0214 127.674C30.3526 122.987 22.0013 115.128 26.1756 101.379C30.8463 85.9942 37.4387 69.9415 43.826 65.6146C64.8244 63.0505 108.612 60.3261 111.678 65.6146C114.744 70.903 115.989 80.238 116.229 84.2444C116.229 88.4511 116.085 98.9319 115.51 107.201C114.935 115.47 113.115 122.666 112.277 125.23C111.319 127.073 108.349 129.653 104.133 125.23C99.9173 120.807 99.1029 113.05 99.2226 109.725C99.1827 113.531 98.6478 122.225 96.8274 126.552C95.007 130.879 90.3203 130.038 88.2045 129.076C81.402 124.653 77.7053 114.893 76.7073 110.567M74.2324 120.073C76.5878 119.191 77.2821 116.913 76.7073 110.567M74.2324 120.073C69.7214 121.194 54.9344 123.692 47.3654 120.422M76.7073 110.567C75.1503 105.318 64.2993 89.6768 50.7901 96.696" stroke="black"/>
</g>
</mask>
<g mask="url(#mask0_4656_2826)">
<path id="Vector 39" d="M27.4967 90.4527C34.4128 77.8692 37.8631 70.641 41.5451 65.7073C62.5975 63.1457 108.673 60.424 111.746 65.7072C114.82 70.9903 116.069 80.3158 116.309 84.3182C116.309 88.5207 116.165 98.9909 115.589 107.252C115.012 115.513 113.187 122.701 112.347 125.262C111.386 127.104 108.408 129.681 104.182 125.262C100.214 121.114 99.2516 114.031 99.2481 110.431C99.1573 114.501 98.5841 122.494 96.8576 126.583C95.0325 130.906 90.3338 130.065 88.2125 129.105C81.3925 124.686 77.6862 114.936 76.6857 110.614C77.262 116.954 72.6833 120.3 70.3219 121.18C71.9548 124.926 70.5222 128.075 69.1614 128.755C48.7974 135.095 37.3025 130.105 31.4591 126.583C25.7757 121.9 20.5806 103.036 27.4967 90.4527Z" fill="#E7BD6D"/>
<path id="Vector 54" d="M43.826 66.1973L39.5034 68.5987C44.6665 74.3621 67.3599 77.1237 67.48 76.2832C67.5761 75.6108 68.4806 73.2815 68.9209 72.2008L43.826 66.1973Z" fill="#DCA846"/>
<path id="Vector 40" d="M65.5591 98.4969C72.0429 89.0113 60.9561 87.9198 70.2016 69.3088C70.2016 69.3088 112.947 52.859 115.108 62.945C117.269 73.031 116.429 74.4719 117.149 89.961L121.592 127.303C102.367 117.831 89.6531 168.488 75.965 107.852C71.7625 101.368 68.5609 100.538 65.5591 98.4969Z" fill="#F6F4EC"/>
<path id="Vector 41" d="M61.6036 122.528C56.884 122.709 58.3261 129.316 59.6371 132.597L75.9474 131.918C79.8419 127.845 81.9242 117.135 74.6134 118.854C67.3027 120.574 64.187 123.018 61.6036 122.528Z" fill="#F6F4EC"/>
<path id="Vector 45" d="M99.0927 105.908C102.262 106.609 104.855 105.598 107.658 104.588C108.46 104.299 109.025 105.018 108.383 105.578C105.263 108.298 98.4283 109.848 97.963 106.714C97.8762 106.13 98.5155 105.78 99.0927 105.908Z" fill="#DCD0AA"/>
<path id="Vector 46" d="M99.058 114.615L98.043 106.803L102.846 107.556L99.058 114.615Z" fill="#DCD0AA"/>
<path id="Vector 48" d="M73.8557 120.239C72.9822 120.303 72.2149 120.983 72.142 121.758C72.069 122.533 72.718 123.108 73.5915 123.044L73.8557 120.239ZM73.5915 123.044C74.7418 122.959 77.5489 123.048 79.4474 123.966L81.3024 121.441C78.7426 120.204 75.282 120.134 73.8557 120.239L73.5915 123.044Z" fill="#CBBF9A"/>
<path id="Vector 50" d="M96.5336 126.214C96.41 125.408 95.6368 124.867 94.8066 125.004C93.9765 125.142 93.4037 125.907 93.5273 126.713L96.5336 126.214ZM93.5273 126.713C93.577 127.037 93.5904 127.665 93.4269 128.316C93.2649 128.961 92.9649 129.499 92.5029 129.849L94.3386 132.169C95.5298 131.265 96.1109 130.026 96.3785 128.96C96.6446 127.9 96.6362 126.882 96.5336 126.214L93.5273 126.713Z" fill="#CBBF9A"/>
<path id="Vector 52" d="M112.676 124.471C112.52 123.671 111.725 123.162 110.901 123.333C110.077 123.504 109.536 124.292 109.692 125.092L112.676 124.471ZM109.692 125.092C109.755 125.414 109.794 126.04 109.657 126.698C109.521 127.349 109.243 127.898 108.796 128.267L110.724 130.511C111.877 129.559 112.408 128.298 112.632 127.222C112.855 126.152 112.805 125.135 112.676 124.471L109.692 125.092Z" fill="#CBBF9A"/>
<path id="Vector 49" d="M73.5708 123.83C72.8145 124.108 72.5098 124.95 72.8901 125.711C73.2704 126.471 74.1918 126.863 74.948 126.585L73.5708 123.83ZM74.948 126.585C75.5884 126.349 76.7004 126.018 77.8812 125.818C79.1151 125.609 80.1866 125.586 80.857 125.775L81.4032 122.969C79.993 122.57 78.3408 122.703 77.0154 122.928C75.6368 123.161 74.3538 123.542 73.5708 123.83L74.948 126.585Z" fill="#CBBF9A"/>
<path id="Vector 51" d="M92.6395 126.571C92.3261 125.816 91.4494 125.478 90.6813 125.817C89.9133 126.155 89.5448 127.041 89.8582 127.796L92.6395 126.571ZM89.8582 127.796C90.0329 128.217 90.2411 128.948 90.2706 129.671C90.3016 130.428 90.1298 130.861 89.9242 131.068L92.0231 133.139C93.1249 132.029 93.3171 130.547 93.2721 129.447C93.2257 128.311 92.9178 127.241 92.6395 126.571L89.8582 127.796Z" fill="#CBBF9A"/>
<path id="Vector 53" d="M108.186 124.359C107.532 123.87 106.605 124.027 106.118 124.711C105.63 125.394 105.766 126.344 106.42 126.833L108.186 124.359ZM106.42 126.833C106.785 127.106 107.337 127.628 107.732 128.234C108.145 128.87 108.218 129.33 108.147 129.613L111.009 130.322C111.39 128.805 110.799 127.433 110.199 126.51C109.579 125.557 108.768 124.794 108.186 124.359L106.42 126.833Z" fill="#CBBF9A"/>
<path id="Vector 55" d="M67.3599 76.4036L68.6806 72.3211L112.507 64.2764L114.668 68.9591C95.2164 78.0846 80.3276 76.4036 67.3599 76.4036Z" fill="#E7DAAF"/>
</g>
</g>
<path id="Vector 43" d="M63.381 120.989C67.344 119.389 71.3287 117.084 74.1792 112.639C74.6982 111.829 75.9716 112.024 75.996 112.986C76.1745 120.001 70.2943 121.905 63.8346 122.862C62.6554 123.036 62.2757 121.436 63.381 120.989Z" fill="#CDA04A"/>
<path id="Vector 39_2" d="M57.1011 95C69.5907 99.0744 75.5968 107.463 75.8939 110.818C76.6898 119.806 72.8202 120.485 70.5245 121.364C66.1279 122.482 62.9374 123.401 55 124" stroke="#DCA846" stroke-width="4" stroke-linecap="round"/>
<g id="Mask group_2">
<mask id="mask1_4656_2826" style="mask-type:alpha" maskUnits="userSpaceOnUse" x="105" y="1" width="25" height="27">
<path id="Vector 29" d="M122.71 1.00408C118.96 1.06777 114.524 1.86997 110.406 2.8851C105.434 4.11099 104.083 10.2054 107.733 13.7977L119.827 25.7014C123.539 29.3547 129.62 27.7186 129.863 22.5161C130.183 15.6395 129.036 9.26793 127.776 4.89404C127.113 2.59445 125.102 0.963428 122.71 1.00408Z" fill="#EEA226"/>
</mask>
<g mask="url(#mask1_4656_2826)">
<path id="Vector 36" d="M129.906 19.0726C129.885 18.0768 129.837 17.098 129.766 16.1411C129.058 6.64957 120.083 0.545884 110.831 2.78133C105.387 4.09684 104.475 10.5913 108.467 14.5202L117.372 23.285C122.211 28.0476 130.046 25.8607 129.906 19.0726Z" fill="#E7BD6D"/>
<path id="Vector 35" d="M124.717 8.49209C128.843 15.7151 126.436 25.1508 124.717 28.9657L108.504 12.5614C114.498 8.18689 121.81 8.02581 124.717 8.49209Z" fill="#F5C6D8"/>
</g>
</g>
<g id="Mask group_3">
<mask id="mask2_4656_2826" style="mask-type:alpha" maskUnits="userSpaceOnUse" x="30" y="1" width="26" height="27">
<path id="Vector 28" d="M34.4165 3.89586C31.5366 9.67709 30.805 16.2731 31.011 21.9493C31.1981 27.1059 37.1028 28.8909 40.9045 25.402L53.38 13.9527C57.2119 10.436 55.987 4.11765 50.9386 2.86679C45.0924 1.41824 40.831 1.12137 38.1761 1.27764C36.5309 1.37448 35.1513 2.4207 34.4165 3.89586Z" fill="#EEA226"/>
</mask>
<g mask="url(#mask2_4656_2826)">
<path id="Vector 34" d="M31.5613 12.9339C31.4118 13.8208 31.2942 14.7066 31.2051 15.5862C30.3876 23.6534 39.6234 26.5776 45.5975 21.0951L50.878 16.2489C55.86 11.6768 49.5699 2.07894 42.8405 1.41594C35.0865 0.652006 32.8566 5.2508 31.5613 12.9339Z" fill="#E7BD6D"/>
<path id="Vector 33" d="M34.5152 10.3547C33.7171 12.8297 33.495 15.4234 33.6073 17.8738C33.8323 22.783 39.5737 24.0066 43.0282 20.5112L46.3566 17.1433C49.3651 14.0992 48.8859 9.02962 44.747 7.93982C42.7303 7.4088 40.8136 7.17978 39.1991 7.1261C37.0821 7.05572 35.1653 8.33876 34.5152 10.3547Z" fill="#F5C6D8"/>
</g>
</g>
<g id="Mask group_4">
<mask id="mask3_4656_2826" style="mask-type:alpha" maskUnits="userSpaceOnUse" x="27" y="0" width="105" height="73">
<path id="Vector 27" d="M68.6402 2.43026C47.8919 7.61733 39.4706 19.5957 35.6206 25.4839C31.5382 31.7276 28.2963 36.4104 27.6959 46.1362C27.0967 55.8435 34.88 62.9899 46.0668 68.2293C55.5525 72.6719 75.4843 72.872 85.6903 72.1916C99.9388 71.5112 126.995 64.9874 130.117 47.9372C133.326 30.4073 121.952 18.2084 116.429 13.717C109.144 7.79344 89.3885 -2.75682 68.6402 2.43026Z" fill="#D9D9D9" stroke="black"/>
</mask>
<g mask="url(#mask3_4656_2826)">
<path id="Vector 30" d="M68.6402 2.43026C47.8919 7.61733 39.4706 19.5957 35.6206 25.4839C31.5382 31.7276 28.2963 36.4104 27.6959 46.1362C27.0967 55.8435 34.88 62.9899 46.0668 68.2293C55.5525 72.6719 75.4843 72.872 85.6903 72.1916C99.9388 71.5112 126.995 64.9874 130.117 47.9372C133.326 30.4073 121.952 18.2084 116.429 13.717C109.144 7.79344 89.3885 -2.75682 68.6402 2.43026Z" fill="#F6F4EC"/>
<path id="Vector 31" d="M74.3504 33.2758C68.7105 49.2095 39.6768 54.0114 25.8649 54.4207C13.7794 19.3883 51.7142 0.731694 74.3504 -4.04297C75.2616 1.64115 79.9903 17.342 74.3504 33.2758Z" fill="#E7BD6D"/>
<path id="Vector 32" d="M98.0998 40.9557C86.2848 32.3105 85.7708 7.68388 87.772 -2.24201C118.606 -10.0226 138.284 25.0662 143.487 42.2764C133.281 45.4383 109.915 49.6008 98.0998 40.9557Z" fill="#E7BD6D"/>
</g>
</g>
<ellipse id="Ellipse 1" cx="58.716" cy="35.4815" rx="5.33651" ry="4.9152" transform="rotate(-23.2851 58.716 35.4815)" fill="#562528"/>
<ellipse id="Ellipse 2" cx="4.9936" cy="4.59937" rx="4.9936" ry="4.59937" transform="matrix(-0.918549 -0.395307 -0.395307 0.918549 115.551 31.8438)" fill="#562528"/>
<g id="Group 1">
<path id="Vector 5" d="M85.1788 47.0783L85.1681 51.36M85.1681 51.36C84.2998 53.4281 82.7231 54.6279 77.9323 54.6021C74.3877 54.5829 72.3196 53.8013 72.1053 50.5924M85.1681 51.36C86.057 53.2404 87.7527 55.196 94.0886 54.2766C96.3736 53.945 98.4983 53.2617 98.5912 49.2198" stroke="#562528" stroke-width="1.5" stroke-linecap="round"/>
<path id="Vector 9" d="M82.2393 46.4341C83.7549 48.4825 86.7406 48.3776 87.9444 46.2337C89.2944 43.8292 87.4326 40.7294 84.6914 40.8176C81.9412 40.906 80.534 44.1293 82.2393 46.4341Z" fill="#DC96B0"/>
</g>
<g id="Group 2">
<path id="Vector 42" d="M20.0316 99.2582C19.3029 108.149 23.0986 112.371 26.2688 114.994C29.0007 111.864 34.3257 105.867 32.0046 105.053C29.6836 104.239 29.5623 98.3206 29.2784 94.9388L28.3532 83.9167C26.2121 69.591 17.3211 68.2898 11.482 69.6873C5.64289 71.0847 3.72617 76.9978 1.9544 81.9817C-0.946764 90.55 6.31087 94.4816 14.0336 93.8334C20.2118 93.3148 21.1585 88.7251 20.7636 84.5538C21.6607 90.1292 20.2601 96.4706 20.0316 99.2582Z" fill="#E7BD6D"/>
<path id="Vector 47" d="M14.7254 82.7C17.5626 81.5306 20.0618 83.6021 20.9495 85.1684C18.0793 77.9534 15.0434 78.6454 12.8838 81.4273C12.172 82.3441 13.6523 83.1423 14.7254 82.7Z" fill="#DCA846"/>
</g>
<circle id="Ellipse 121" cx="61" cy="34" r="1" fill="white"/>
<ellipse id="Ellipse 122" cx="111.5" cy="33" rx="1.5" ry="1" fill="white"/>
</g>
</svg>
