<svg width="132" height="159" viewBox="0 0 132 159" fill="none" xmlns="http://www.w3.org/2000/svg">
<mask id="mask0_5140_2817" style="mask-type:alpha" maskUnits="userSpaceOnUse" x="24" y="89" width="93" height="70">
<path d="M26.176 128.379C30.8468 112.994 37.4392 96.9415 43.8265 92.6146C64.8249 90.0505 108.613 87.3261 111.678 92.6146C114.744 97.903 115.99 107.238 116.229 111.244C116.229 115.451 116.086 125.932 115.511 134.201C114.936 142.47 113.116 149.666 112.277 152.23C111.319 154.073 108.349 156.653 104.133 152.23C100.176 148.077 99.2157 140.987 99.2122 137.383C99.1217 141.458 98.5499 149.459 96.8279 153.552C95.0075 157.879 90.3208 157.038 88.205 156.076C81.4024 151.653 77.7058 141.893 76.7077 137.567C77.2826 143.913 76.5883 146.191 74.2329 147.073C78.0653 148.154 79.263 156.013 72.7958 156.688C50.5673 159.006 41.8503 158.2 36.0219 154.674C30.3531 149.987 22.0018 142.128 26.176 128.379Z" fill="#D9D9D9"/>
<path d="M74.2329 147.073C78.0653 148.154 79.263 156.013 72.7958 156.688C50.5673 159.006 41.8503 158.2 36.0219 154.674C30.3531 149.987 22.0018 142.128 26.176 128.379C30.8468 112.994 37.4392 96.9415 43.8265 92.6146C64.8249 90.0505 108.613 87.3261 111.678 92.6146C114.744 97.903 115.99 107.238 116.229 111.244C116.229 115.451 116.086 125.932 115.511 134.201C114.936 142.47 113.116 149.666 112.277 152.23C111.319 154.073 108.349 156.653 104.133 152.23C99.9177 147.807 99.1034 140.05 99.2231 136.725C99.1832 140.531 98.6483 149.225 96.8279 153.552C95.0075 157.879 90.3208 157.038 88.205 156.076C81.4024 151.653 77.7058 141.893 76.7077 137.567M74.2329 147.073C76.5883 146.191 77.2826 143.913 76.7077 137.567M74.2329 147.073C69.7219 148.194 54.9349 150.692 47.3659 147.422M76.7077 137.567C75.1508 132.318 64.2998 116.677 50.7906 123.696" stroke="black"/>
</mask>
<g mask="url(#mask0_5140_2817)">
<path d="M27.4967 117.453C34.4128 104.869 37.8631 97.641 41.5451 92.7073C62.5975 90.1457 108.673 87.424 111.746 92.7072C114.82 97.9903 116.069 107.316 116.309 111.318C116.309 115.521 116.165 125.991 115.589 134.252C115.012 142.513 113.187 149.701 112.347 152.262C111.386 154.104 108.408 156.681 104.182 152.262C100.214 148.114 99.2516 141.031 99.2481 137.431C99.1573 141.501 98.5841 149.494 96.8576 153.583C95.0325 157.906 90.3338 157.065 88.2125 156.105C81.3925 151.686 77.6862 141.936 76.6857 137.614C77.262 143.954 72.6833 147.3 70.3219 148.18C71.9548 151.926 70.5222 155.075 69.1614 155.755C48.7974 162.095 37.3025 157.105 31.4591 153.583C25.7757 148.9 20.5806 130.036 27.4967 117.453Z" fill="#E7BD6D"/>
<path d="M43.8265 93.1973L39.5039 95.5987C44.667 101.362 67.3604 104.124 67.4805 103.283C67.5766 102.611 68.4811 100.281 68.9214 99.2008L43.8265 93.1973Z" fill="#DCA846"/>
<path d="M65.5596 125.497C72.0434 116.011 60.9566 114.92 70.2021 96.3088C70.2021 96.3088 112.947 79.859 115.109 89.945C117.27 100.031 116.429 101.472 117.15 116.961L121.593 154.303C102.367 144.831 89.6536 195.488 75.9655 134.852C71.763 128.368 68.5614 127.538 65.5596 125.497Z" fill="#F6F4EC"/>
<path d="M61.6045 149.528C56.8849 149.709 58.327 156.316 59.638 159.597L75.9484 158.918C79.8429 154.845 81.9251 144.135 74.6144 145.854C67.3036 147.574 64.188 150.018 61.6045 149.528Z" fill="#F6F4EC"/>
<path d="M99.0932 132.908C102.262 133.609 104.855 132.598 107.658 131.588C108.46 131.299 109.026 132.018 108.383 132.578C105.263 135.298 98.4288 136.848 97.9635 133.714C97.8767 133.13 98.516 132.78 99.0932 132.908Z" fill="#DCD0AA"/>
<path d="M99.0585 141.615L98.0435 133.803L102.846 134.556L99.0585 141.615Z" fill="#DCD0AA"/>
<path d="M73.8566 147.239C72.9831 147.303 72.2159 147.983 72.1429 148.758C72.07 149.533 72.719 150.108 73.5925 150.044L73.8566 147.239ZM73.5925 150.044C74.7428 149.959 77.5499 150.048 79.4484 150.966L81.3034 148.441C78.7436 147.204 75.2829 147.134 73.8566 147.239L73.5925 150.044Z" fill="#CBBF9A"/>
<path d="M96.5341 153.214C96.4105 152.408 95.6373 151.867 94.8071 152.004C93.977 152.142 93.4042 152.907 93.5278 153.713L96.5341 153.214ZM93.5278 153.713C93.5775 154.037 93.5909 154.665 93.4274 155.316C93.2654 155.961 92.9654 156.499 92.5034 156.849L94.339 159.169C95.5303 158.265 96.1114 157.026 96.379 155.96C96.6451 154.9 96.6367 153.882 96.5341 153.214L93.5278 153.713Z" fill="#CBBF9A"/>
<path d="M112.676 151.471C112.52 150.671 111.726 150.162 110.902 150.333C110.078 150.504 109.536 151.292 109.693 152.092L112.676 151.471ZM109.693 152.092C109.755 152.414 109.794 153.04 109.657 153.698C109.521 154.349 109.243 154.898 108.796 155.267L110.724 157.511C111.878 156.559 112.408 155.298 112.632 154.222C112.855 153.152 112.806 152.135 112.676 151.471L109.693 152.092Z" fill="#CBBF9A"/>
<path d="M73.5713 150.83C72.815 151.108 72.5103 151.95 72.8906 152.711C73.2709 153.471 74.1923 153.863 74.9485 153.585L73.5713 150.83ZM74.9485 153.585C75.5889 153.349 76.7009 153.018 77.8817 152.818C79.1156 152.609 80.1871 152.586 80.8575 152.775L81.4037 149.969C79.9935 149.57 78.3413 149.703 77.0159 149.928C75.6373 150.161 74.3543 150.542 73.5713 150.83L74.9485 153.585Z" fill="#CBBF9A"/>
<path d="M92.64 153.571C92.3266 152.816 91.4499 152.478 90.6818 152.817C89.9138 153.155 89.5453 154.041 89.8587 154.796L92.64 153.571ZM89.8587 154.796C90.0334 155.217 90.2416 155.948 90.2711 156.671C90.3021 157.428 90.1303 157.861 89.9247 158.068L92.0236 160.139C93.1254 159.029 93.3176 157.547 93.2726 156.447C93.2262 155.311 92.9183 154.241 92.64 153.571L89.8587 154.796Z" fill="#CBBF9A"/>
<path d="M108.187 151.359C107.532 150.87 106.606 151.027 106.118 151.711C105.631 152.394 105.766 153.344 106.421 153.833L108.187 151.359ZM106.421 153.833C106.786 154.106 107.338 154.628 107.732 155.234C108.146 155.87 108.219 156.33 108.148 156.613L111.009 157.322C111.39 155.805 110.799 154.433 110.199 153.51C109.58 152.557 108.768 151.794 108.187 151.359L106.421 153.833Z" fill="#CBBF9A"/>
<path d="M67.3604 103.404L68.6811 99.3211L112.507 91.2764L114.668 95.9591C95.2169 105.085 80.328 103.404 67.3604 103.404Z" fill="#E7DAAF"/>
</g>
<path d="M63.381 147.989C67.344 146.389 71.3287 144.084 74.1792 139.639C74.6982 138.829 75.9716 139.024 75.996 139.986C76.1745 147.001 70.2943 148.905 63.8346 149.862C62.6554 150.036 62.2757 148.436 63.381 147.989Z" fill="#CDA04A"/>
<path d="M57.1011 122C69.5907 126.074 75.5968 134.463 75.8939 137.818C76.6898 146.806 72.8202 147.485 70.5245 148.364C66.1279 149.482 62.9374 150.401 55 151" stroke="#DCA846" stroke-width="4" stroke-linecap="round"/>
<mask id="mask1_5140_2817" style="mask-type:alpha" maskUnits="userSpaceOnUse" x="105" y="28" width="25" height="27">
<path d="M122.71 28.0041C118.96 28.0678 114.524 28.87 110.406 29.8851C105.434 31.111 104.083 37.2054 107.733 40.7977L119.827 52.7014C123.539 56.3547 129.62 54.7186 129.863 49.5161C130.183 42.6395 129.036 36.2679 127.776 31.894C127.113 29.5945 125.102 27.9634 122.71 28.0041Z" fill="#EEA226"/>
</mask>
<g mask="url(#mask1_5140_2817)">
<path d="M129.906 46.0726C129.885 45.0768 129.837 44.098 129.766 43.1411C129.058 33.6496 120.083 27.5459 110.831 29.7813C105.387 31.0968 104.475 37.5913 108.467 41.5202L117.372 50.285C122.211 55.0476 130.046 52.8607 129.906 46.0726Z" fill="#E7BD6D"/>
<path d="M124.717 35.4921C128.843 42.7151 126.436 52.1508 124.717 55.9657L108.504 39.5614C114.498 35.1869 121.81 35.0258 124.717 35.4921Z" fill="#F5C6D8"/>
</g>
<mask id="mask2_5140_2817" style="mask-type:alpha" maskUnits="userSpaceOnUse" x="30" y="28" width="26" height="27">
<path d="M34.4165 30.8959C31.5366 36.6771 30.805 43.2731 31.011 48.9493C31.1981 54.1059 37.1028 55.8909 40.9045 52.402L53.38 40.9527C57.2119 37.436 55.987 31.1177 50.9386 29.8668C45.0924 28.4182 40.831 28.1214 38.1761 28.2776C36.5309 28.3745 35.1513 29.4207 34.4165 30.8959Z" fill="#EEA226"/>
</mask>
<g mask="url(#mask2_5140_2817)">
<path d="M31.5613 39.9339C31.4118 40.8208 31.2942 41.7066 31.2051 42.5862C30.3876 50.6534 39.6234 53.5776 45.5975 48.0951L50.878 43.2489C55.86 38.6768 49.5699 29.0789 42.8405 28.4159C35.0865 27.652 32.8566 32.2508 31.5613 39.9339Z" fill="#E7BD6D"/>
<path d="M34.5152 37.3547C33.7171 39.8297 33.495 42.4234 33.6073 44.8738C33.8323 49.783 39.5737 51.0066 43.0282 47.5112L46.3566 44.1433C49.3651 41.0992 48.8859 36.0296 44.747 34.9398C42.7303 34.4088 40.8136 34.1798 39.1991 34.1261C37.0821 34.0557 35.1653 35.3388 34.5152 37.3547Z" fill="#F5C6D8"/>
</g>
<mask id="mask3_5140_2817" style="mask-type:alpha" maskUnits="userSpaceOnUse" x="27" y="27" width="105" height="73">
<path d="M68.6407 29.4303C47.8924 34.6173 39.4711 46.5957 35.6211 52.4839C31.5387 58.7276 28.2968 63.4104 27.6964 73.1362C27.0972 82.8435 34.8805 89.9899 46.0673 95.2293C55.5529 99.6719 75.4848 99.872 85.6908 99.1916C99.9393 98.5112 126.995 91.9874 130.117 74.9372C133.327 57.4073 121.952 45.2084 116.429 40.717C109.145 34.7934 89.389 24.2432 68.6407 29.4303Z" fill="#D9D9D9" stroke="black"/>
</mask>
<g mask="url(#mask3_5140_2817)">
<path d="M68.6407 29.4303C47.8924 34.6173 39.4711 46.5957 35.6211 52.4839C31.5387 58.7276 28.2968 63.4104 27.6964 73.1362C27.0972 82.8435 34.8805 89.9899 46.0673 95.2293C55.5529 99.6719 75.4848 99.872 85.6908 99.1916C99.9393 98.5112 126.995 91.9874 130.117 74.9372C133.327 57.4073 121.952 45.2084 116.429 40.717C109.145 34.7934 89.389 24.2432 68.6407 29.4303Z" fill="#F6F4EC"/>
<path d="M74.3509 60.2758C68.711 76.2095 39.6773 81.0114 25.8653 81.4207C13.7799 46.3883 51.7147 27.7317 74.3508 22.957C75.2621 28.6412 79.9908 44.342 74.3509 60.2758Z" fill="#E7BD6D"/>
<path d="M98.1008 67.9557C86.2858 59.3105 85.7718 34.6839 87.773 24.758C118.607 16.9774 138.285 52.0662 143.488 69.2764C133.282 72.4383 109.916 76.6008 98.1008 67.9557Z" fill="#E7BD6D"/>
</g>
<ellipse cx="58.716" cy="62.4815" rx="5.33651" ry="4.9152" transform="rotate(-23.2851 58.716 62.4815)" fill="#562528"/>
<ellipse cx="4.9936" cy="4.59937" rx="4.9936" ry="4.59937" transform="matrix(-0.918549 -0.395307 -0.395307 0.918549 115.551 58.8438)" fill="#562528"/>
<path d="M85.1783 74.0783L85.1676 78.36M85.1676 78.36C84.2993 80.4281 82.7226 81.6279 77.9319 81.6021C74.3872 81.5829 72.3191 80.8013 72.1048 77.5924M85.1676 78.36C86.0565 80.2404 87.7522 82.196 94.0881 81.2766C96.3732 80.945 98.4978 80.2617 98.5907 76.2198" stroke="#562528" stroke-width="1.5" stroke-linecap="round"/>
<path d="M82.2384 73.4341C83.754 75.4825 86.7397 75.3776 87.9434 73.2337C89.2934 70.8292 87.4316 67.7294 84.6904 67.8176C81.9402 67.906 80.533 71.1293 82.2384 73.4341Z" fill="#DC96B0"/>
<path d="M20.0316 126.258C19.3029 135.149 23.0986 139.371 26.2688 141.994C29.0007 138.864 34.3257 132.867 32.0046 132.053C29.6836 131.239 29.5623 125.321 29.2784 121.939L28.3532 110.917C26.2121 96.591 17.3211 95.2898 11.482 96.6873C5.64289 98.0847 3.72617 103.998 1.9544 108.982C-0.946764 117.55 6.31087 121.482 14.0336 120.833C20.2118 120.315 21.1585 115.725 20.7636 111.554C21.6607 117.129 20.2601 123.471 20.0316 126.258Z" fill="#E7BD6D"/>
<path d="M14.7254 109.7C17.5626 108.531 20.0618 110.602 20.9495 112.168C18.0793 104.953 15.0434 105.645 12.8838 108.427C12.172 109.344 13.6523 110.142 14.7254 109.7Z" fill="#DCA846"/>
<circle cx="61" cy="61" r="1" fill="white"/>
<ellipse cx="111.5" cy="60" rx="1.5" ry="1" fill="white"/>
<path d="M54.4671 17.1608C59.3747 12.3177 70.6268 10.0481 70.6268 10.0481C70.6268 10.0481 77.2143 9.14299 81.4363 9.38985C87.3553 9.73594 88.3229 9.96963 93.1213 10.8784C101.079 12.5205 107.887 17.5138 112.315 23.3575C114.464 26.1934 114.306 31.3091 114.088 33.3388C113.838 35.6808 107.407 39.671 101.428 41.695C92.6855 44.6542 87.0567 43.3399 77.832 43.0365C70.2321 42.7866 68.8934 43.1845 60.7353 41.2051C57.2286 40.3543 53.499 38.05 51.356 35.1468C49.0756 32.0577 48.1249 28.9575 48.4784 26.6265C49.1344 22.3017 51.3536 20.2334 54.4671 17.1608Z" fill="#F4B396"/>
<path fill-rule="evenodd" clip-rule="evenodd" d="M59.0421 40.3898C59.0421 40.3898 59.0806 36.513 59.1585 34.039C59.3802 26.9936 62.6278 22.7032 62.6278 22.7032C62.6278 22.7032 65.174 18.4747 67.2992 16.415C69.5425 14.2408 72.8738 11.7397 72.8738 11.7397C72.8738 11.7397 67.3079 13.6557 63.9959 16.5697C61.4829 18.7806 60.726 19.4894 59.1675 22.4514C57.2362 26.122 56.4462 29.623 57.0745 33.7228C57.4867 36.4124 59.0421 40.3898 59.0421 40.3898Z" fill="#F29D77"/>
<path fill-rule="evenodd" clip-rule="evenodd" d="M99.0659 15.3263C100.906 16.9993 102.594 18.9209 103.446 20.8798C105.528 25.6689 105.488 28.3587 103.648 31.4506C102.154 33.961 100.293 34.7623 97.9111 35.7879C97.4899 35.9692 97.0524 36.1576 96.5978 36.3637C93.3951 37.8153 91.0112 37.9354 88.0514 38.0845C87.1221 38.1314 86.136 38.181 85.05 38.2757C79.935 38.7215 76.7964 38.5229 72.1135 38.2266C71.5391 38.1903 70.9414 38.1525 70.3141 38.1142C68.8565 38.0253 67.5613 38.0039 66.3439 37.9838C63.1687 37.9314 60.522 37.8878 56.901 36.6774C54.7335 35.9529 52.1554 34.5209 50.1312 33.2785C48.8044 30.822 48.2884 28.4507 48.5681 26.5738C49.1909 22.3959 51.1788 20.3185 53.9787 17.3926C54.0693 17.2979 54.1607 17.2024 54.253 17.1059C58.8937 12.2502 69.4795 9.91967 69.4795 9.91967C69.4795 9.91967 75.6742 8.97735 79.6394 9.19732C85.1985 9.50571 88.4026 10.2311 93.5205 12.4949C93.721 12.5836 93.9173 12.67 94.1098 12.7547C95.9259 13.5538 97.4153 14.2091 99.0659 15.3263Z" fill="#F8C5AF"/>
<path fill-rule="evenodd" clip-rule="evenodd" d="M59.0846 37.298C58.6892 37.2052 58.2842 37.099 57.8669 36.9773C57.5373 35.8943 57.2273 34.72 57.0745 33.7228C56.4462 29.623 57.2362 26.122 59.1675 22.4514C60.726 19.4894 61.4829 18.7806 63.9959 16.5697C67.3079 13.6557 72.8738 11.7397 72.8738 11.7397C72.8738 11.7397 69.5425 14.2408 67.2992 16.415C65.174 18.4747 62.6278 22.7032 62.6278 22.7032C62.6278 22.7032 59.3802 26.9936 59.1585 34.039C59.1278 35.0151 59.1032 36.2095 59.0846 37.298Z" fill="#F4B396"/>
<path fill-rule="evenodd" clip-rule="evenodd" d="M98.9651 15.2951C98.7487 14.9561 96.1091 12.9625 94.8163 12.0081L93.1617 10.8745C90.3394 10.3098 87.4792 9.87973 84.2386 9.59473L91.4706 14.4923L98.9651 15.2951Z" fill="#F8C5AF"/>
<path d="M80.971 10.045L80.1903 9.96141C80.1903 9.96141 80.5722 9.48807 80.5862 9.21419C80.5989 8.96731 80.4776 8.83443 80.3325 8.63427C80.107 8.3232 79.6633 8.24674 79.273 8.20493C78.9321 8.16842 78.3327 8.36323 77.9905 8.3834C77.0034 8.44156 76.447 8.46401 75.4589 8.42806C74.1719 8.38125 73.4268 8.39911 72.18 8.07683C71.4168 7.87956 71.0521 7.55085 70.2785 7.39937C69.83 7.31155 69.5701 7.29802 69.1162 7.27438L69.1075 7.27393C68.5834 7.24664 68.2056 7.57095 67.7637 7.2879C67.508 7.1242 67.2757 6.6829 67.2757 6.6829L67.8807 6.19497C67.8807 6.19497 68.4243 5.52317 68.9179 5.35852C69.1296 5.28789 69.2622 5.30471 69.4811 5.26092C70.8257 4.99194 71.4084 4.18729 72.771 4.03409C73.9898 3.89707 74.6945 4.11168 75.8937 4.3686C76.9638 4.59785 77.7131 4.52387 78.5675 5.20775C79.0753 5.6142 79.2048 5.9979 79.6131 6.50419C80.212 7.24675 80.9517 7.4718 81.1466 8.40563C81.2782 9.03594 80.971 10.045 80.971 10.045Z" fill="#9DBE98"/>
<path fill-rule="evenodd" clip-rule="evenodd" d="M67.3945 6.87947L69.7794 6.16682L72.8213 5.782L76.1001 6.13323L78.6345 6.79952L80.1903 7.7558L80.9403 8.86266L80.5823 10.0035L80.1911 9.96162C80.1911 9.96162 80.573 9.48829 80.587 9.2144C80.5983 8.99375 80.5026 8.86415 80.3786 8.6962C80.3638 8.67624 80.3487 8.65574 80.3333 8.63449C80.1078 8.32342 79.6641 8.24696 79.2738 8.20514C79.0714 8.18346 78.7778 8.24334 78.5011 8.29979C78.3117 8.3384 78.1303 8.37542 77.9912 8.38361C77.0042 8.44177 76.4478 8.46422 75.4596 8.42827C75.2951 8.42229 75.1395 8.41736 74.9905 8.41265C73.974 8.38047 73.2683 8.35813 72.1808 8.07705C71.828 7.98585 71.5603 7.86656 71.2981 7.74968C70.993 7.61373 70.6953 7.48104 70.2793 7.39958C69.8308 7.31176 69.5709 7.29823 69.117 7.2746L69.1083 7.27414C68.9079 7.26371 68.7289 7.30468 68.5595 7.34344C68.2859 7.40606 68.0374 7.46293 67.7644 7.28811C67.6217 7.19673 67.4863 7.01881 67.3945 6.87947Z" fill="#90AE8B"/>
<path d="M82.3956 8.54483C82.1162 9.13777 81.9077 10.1508 81.9077 10.1508L82.6884 10.2344C82.6884 10.2344 82.984 9.75309 83.2404 9.50391C83.6495 9.10647 83.9803 8.99786 84.5034 8.77062C85.4195 8.37269 86.0265 8.43829 87.0071 8.24919C88.4463 7.97168 89.2861 7.97877 90.7069 7.619C91.6788 7.37293 92.1568 6.91234 93.1577 6.85501C93.8311 6.81644 94.2323 7.24335 94.8752 7.03899C95.4537 6.85508 96.0852 6.06313 96.0852 6.06313L96.1437 5.51667C96.1437 5.51667 95.4716 5.92261 94.9922 5.94606C94.7472 5.95804 94.6102 5.91624 94.3677 5.87916C92.9682 5.66511 92.4245 4.75689 91.0498 4.41827C89.978 4.15426 89.3318 3.95916 88.2394 4.11722C86.7328 4.33521 86.0027 5.02129 84.8045 5.96022C83.7184 6.81124 82.9837 7.29668 82.3956 8.54483Z" fill="#9DBE98"/>
<path fill-rule="evenodd" clip-rule="evenodd" d="M95.934 6.23536L94.6984 6.46626L93.084 6.05645L91.6258 5.66336L88.3749 5.78889L85.6649 6.76199L83.3034 8.16724L82.2496 10.1862L82.4808 10.211L82.7302 10.1647C82.8215 10.023 83.0418 9.69416 83.239 9.50257C83.5965 9.15517 83.8943 9.02845 84.313 8.85029C84.3733 8.82463 84.4361 8.79789 84.502 8.76928C85.1165 8.50234 85.5919 8.44399 86.1344 8.37741C86.4006 8.34475 86.6829 8.3101 87.0057 8.24785C87.6017 8.13293 88.0949 8.06682 88.5691 8.00324C89.2401 7.9133 89.8731 7.82844 90.7055 7.61767C91.0988 7.51808 91.4113 7.38335 91.7102 7.25444C92.1499 7.06483 92.5605 6.8878 93.1563 6.85368C93.4508 6.83681 93.6932 6.90896 93.9266 6.97841C94.2268 7.06776 94.512 7.15264 94.8737 7.03765C95.2801 6.90848 95.7125 6.47937 95.934 6.23536Z" fill="#90AE8B"/>
<path d="M80.95 7.19419C81.0952 8.32087 80.6401 10.0866 80.6401 10.0866C80.6401 10.0866 81.0511 10.4195 81.3687 10.4725C81.7417 10.5348 82.3147 10.2659 82.3147 10.2659C82.3147 10.2659 82.4667 8.47378 82.32 7.34095C82.223 6.59092 82.1076 6.17812 81.9068 5.44896C81.715 4.75244 81.325 3.6929 81.325 3.6929C81.325 3.6929 80.7774 3.7083 80.5313 3.91583C80.1198 4.26266 80.3845 5.28589 80.3845 5.28589C80.3845 5.28589 80.8506 6.4233 80.95 7.19419Z" fill="#D29A81"/>
</svg>
