<svg width="132" height="157" viewBox="0 0 132 157" fill="none" xmlns="http://www.w3.org/2000/svg">
<mask id="mask0_5140_2816" style="mask-type:alpha" maskUnits="userSpaceOnUse" x="24" y="87" width="93" height="70">
<path d="M26.1756 126.379C30.8463 110.994 37.4387 94.9415 43.826 90.6146C64.8244 88.0505 108.612 85.3261 111.678 90.6146C114.744 95.903 115.989 105.238 116.229 109.244C116.229 113.451 116.085 123.932 115.51 132.201C114.935 140.47 113.115 147.666 112.277 150.23C111.319 152.073 108.349 154.653 104.133 150.23C100.175 146.077 99.2152 138.987 99.2117 135.383C99.1212 139.458 98.5494 147.459 96.8274 151.552C95.007 155.879 90.3203 155.038 88.2045 154.076C81.402 149.653 77.7053 139.893 76.7073 135.567C77.2821 141.913 76.5878 144.191 74.2324 145.073C78.0648 146.154 79.2625 154.013 72.7953 154.688C50.5668 157.006 41.8498 156.2 36.0214 152.674C30.3526 147.987 22.0013 140.128 26.1756 126.379Z" fill="#D9D9D9"/>
<path d="M74.2324 145.073C78.0648 146.154 79.2625 154.013 72.7953 154.688C50.5668 157.006 41.8498 156.2 36.0214 152.674C30.3526 147.987 22.0013 140.128 26.1756 126.379C30.8463 110.994 37.4387 94.9415 43.826 90.6146C64.8244 88.0505 108.612 85.3261 111.678 90.6146C114.744 95.903 115.989 105.238 116.229 109.244C116.229 113.451 116.085 123.932 115.51 132.201C114.935 140.47 113.115 147.666 112.277 150.23C111.319 152.073 108.349 154.653 104.133 150.23C99.9173 145.807 99.1029 138.05 99.2226 134.725C99.1827 138.531 98.6478 147.225 96.8274 151.552C95.007 155.879 90.3203 155.038 88.2045 154.076C81.402 149.653 77.7053 139.893 76.7073 135.567M74.2324 145.073C76.5878 144.191 77.2821 141.913 76.7073 135.567M74.2324 145.073C69.7214 146.194 54.9344 148.692 47.3654 145.422M76.7073 135.567C75.1503 130.318 64.2993 114.677 50.7901 121.696" stroke="black"/>
</mask>
<g mask="url(#mask0_5140_2816)">
<path d="M27.4967 115.453C34.4128 102.869 37.8631 95.641 41.5451 90.7073C62.5975 88.1457 108.673 85.424 111.746 90.7072C114.82 95.9903 116.069 105.316 116.309 109.318C116.309 113.521 116.165 123.991 115.589 132.252C115.012 140.513 113.187 147.701 112.347 150.262C111.386 152.104 108.408 154.681 104.182 150.262C100.214 146.114 99.2516 139.031 99.2481 135.431C99.1573 139.501 98.5841 147.494 96.8576 151.583C95.0325 155.906 90.3338 155.065 88.2125 154.105C81.3925 149.686 77.6862 139.936 76.6857 135.614C77.262 141.954 72.6833 145.3 70.3219 146.18C71.9548 149.926 70.5222 153.075 69.1614 153.755C48.7974 160.095 37.3025 155.105 31.4591 151.583C25.7757 146.9 20.5806 128.036 27.4967 115.453Z" fill="#484848"/>
<path d="M43.826 91.1973L39.5034 93.5987C44.6665 99.3621 67.3599 102.124 67.48 101.283C67.5761 100.611 68.4806 98.2815 68.9209 97.2008L43.826 91.1973Z" fill="#393939"/>
<path d="M65.5591 123.497C72.0429 114.011 60.9561 112.92 70.2016 94.3088C70.2016 94.3088 112.947 77.859 115.108 87.945C117.269 98.031 116.429 99.4719 117.149 114.961L121.592 152.303C102.367 142.831 89.6531 193.488 75.965 132.852C71.7625 126.368 68.5609 125.538 65.5591 123.497Z" fill="#F6F4EC"/>
<path d="M61.6036 147.528C56.884 147.709 58.3261 154.316 59.6371 157.597L75.9474 156.918C79.8419 152.845 81.9242 142.135 74.6134 143.854C67.3027 145.574 64.187 148.018 61.6036 147.528Z" fill="#F6F4EC"/>
<path d="M99.0927 130.908C102.262 131.609 104.855 130.598 107.658 129.588C108.46 129.299 109.025 130.018 108.383 130.578C105.263 133.298 98.4283 134.848 97.963 131.714C97.8762 131.13 98.5155 130.78 99.0927 130.908Z" fill="#DCD0AA"/>
<path d="M99.058 139.615L98.043 131.803L102.846 132.556L99.058 139.615Z" fill="#DCD0AA"/>
<path d="M73.8557 145.239C72.9822 145.303 72.2149 145.983 72.142 146.758C72.069 147.533 72.718 148.108 73.5915 148.044L73.8557 145.239ZM73.5915 148.044C74.7418 147.959 77.5489 148.048 79.4474 148.966L81.3024 146.441C78.7426 145.204 75.282 145.134 73.8557 145.239L73.5915 148.044Z" fill="#CBBF9A"/>
<path d="M96.5336 151.214C96.41 150.408 95.6368 149.867 94.8066 150.004C93.9765 150.142 93.4037 150.907 93.5273 151.713L96.5336 151.214ZM93.5273 151.713C93.577 152.037 93.5904 152.665 93.4269 153.316C93.2649 153.961 92.9649 154.499 92.5029 154.849L94.3386 157.169C95.5298 156.265 96.1109 155.026 96.3785 153.96C96.6446 152.9 96.6362 151.882 96.5336 151.214L93.5273 151.713Z" fill="#CBBF9A"/>
<path d="M112.676 149.471C112.52 148.671 111.725 148.162 110.901 148.333C110.077 148.504 109.536 149.292 109.692 150.092L112.676 149.471ZM109.692 150.092C109.755 150.414 109.794 151.04 109.657 151.698C109.521 152.349 109.243 152.898 108.796 153.267L110.724 155.511C111.877 154.559 112.408 153.298 112.632 152.222C112.855 151.152 112.805 150.135 112.676 149.471L109.692 150.092Z" fill="#CBBF9A"/>
<path d="M73.5708 148.83C72.8145 149.108 72.5098 149.95 72.8901 150.711C73.2704 151.471 74.1918 151.863 74.948 151.585L73.5708 148.83ZM74.948 151.585C75.5884 151.349 76.7004 151.018 77.8812 150.818C79.1151 150.609 80.1866 150.586 80.857 150.775L81.4032 147.969C79.993 147.57 78.3408 147.703 77.0154 147.928C75.6368 148.161 74.3538 148.542 73.5708 148.83L74.948 151.585Z" fill="#CBBF9A"/>
<path d="M92.6395 151.571C92.3261 150.816 91.4494 150.478 90.6813 150.817C89.9133 151.155 89.5448 152.041 89.8582 152.796L92.6395 151.571ZM89.8582 152.796C90.0329 153.217 90.2411 153.948 90.2706 154.671C90.3016 155.428 90.1298 155.861 89.9242 156.068L92.0231 158.139C93.1249 157.029 93.3171 155.547 93.2721 154.447C93.2257 153.311 92.9178 152.241 92.6395 151.571L89.8582 152.796Z" fill="#CBBF9A"/>
<path d="M108.186 149.359C107.532 148.87 106.605 149.027 106.118 149.711C105.63 150.394 105.766 151.344 106.42 151.833L108.186 149.359ZM106.42 151.833C106.785 152.106 107.337 152.628 107.732 153.234C108.145 153.87 108.218 154.33 108.147 154.613L111.009 155.322C111.39 153.805 110.799 152.433 110.199 151.51C109.579 150.557 108.768 149.794 108.186 149.359L106.42 151.833Z" fill="#CBBF9A"/>
<path d="M67.3599 101.404L68.6806 97.3211L112.507 89.2764L114.668 93.9591C95.2164 103.085 80.3276 101.404 67.3599 101.404Z" fill="#E7DAAF"/>
</g>
<path d="M63.381 145.989C67.344 144.389 71.3287 142.084 74.1792 137.639C74.6982 136.829 75.9716 137.024 75.996 137.986C76.1745 145.001 70.2943 146.905 63.8346 147.862C62.6554 148.036 62.2757 146.436 63.381 145.989Z" fill="#565554"/>
<path d="M57.1011 120C69.5907 124.074 75.5968 132.463 75.8939 135.818C76.6898 144.806 72.8202 145.485 70.5245 146.364C66.1279 147.482 62.9374 148.401 55 149" stroke="#393939" stroke-width="4" stroke-linecap="round"/>
<mask id="mask1_5140_2816" style="mask-type:alpha" maskUnits="userSpaceOnUse" x="105" y="26" width="25" height="27">
<path d="M122.71 26.0041C118.96 26.0678 114.524 26.87 110.406 27.8851C105.434 29.111 104.083 35.2054 107.733 38.7977L119.827 50.7014C123.539 54.3547 129.62 52.7186 129.863 47.5161C130.183 40.6395 129.036 34.2679 127.776 29.894C127.113 27.5945 125.102 25.9634 122.71 26.0041Z" fill="#EEA226"/>
</mask>
<g mask="url(#mask1_5140_2816)">
<path d="M129.906 44.0726C129.885 43.0768 129.837 42.098 129.766 41.1411C129.058 31.6496 120.083 25.5459 110.831 27.7813C105.387 29.0968 104.475 35.5913 108.467 39.5202L117.372 48.285C122.211 53.0476 130.046 50.8607 129.906 44.0726Z" fill="#484848"/>
<path d="M124.717 33.4921C128.843 40.7151 126.436 50.1508 124.717 53.9657L108.504 37.5614C114.498 33.1869 121.81 33.0258 124.717 33.4921Z" fill="#A3725E"/>
</g>
<mask id="mask2_5140_2816" style="mask-type:alpha" maskUnits="userSpaceOnUse" x="30" y="26" width="26" height="27">
<path d="M34.4165 28.8959C31.5366 34.6771 30.805 41.2731 31.011 46.9493C31.1981 52.1059 37.1028 53.8909 40.9045 50.402L53.38 38.9527C57.2119 35.436 55.987 29.1177 50.9386 27.8668C45.0924 26.4182 40.831 26.1214 38.1761 26.2776C36.5309 26.3745 35.1513 27.4207 34.4165 28.8959Z" fill="#EEA226"/>
</mask>
<g mask="url(#mask2_5140_2816)">
<path d="M31.5613 37.9339C31.4118 38.8208 31.2942 39.7066 31.2051 40.5862C30.3876 48.6534 39.6234 51.5776 45.5975 46.0951L50.878 41.2489C55.86 36.6768 49.5699 27.0789 42.8405 26.4159C35.0865 25.652 32.8566 30.2508 31.5613 37.9339Z" fill="#484848"/>
<path d="M34.5152 35.3547C33.7171 37.8297 33.495 40.4234 33.6073 42.8738C33.8323 47.783 39.5737 49.0066 43.0282 45.5112L46.3566 42.1433C49.3651 39.0992 48.8859 34.0296 44.747 32.9398C42.7303 32.4088 40.8136 32.1798 39.1991 32.1261C37.0821 32.0557 35.1653 33.3388 34.5152 35.3547Z" fill="#A3725E"/>
</g>
<mask id="mask3_5140_2816" style="mask-type:alpha" maskUnits="userSpaceOnUse" x="27" y="25" width="105" height="73">
<path d="M68.6402 27.4303C47.8919 32.6173 39.4706 44.5957 35.6206 50.4839C31.5382 56.7276 28.2963 61.4104 27.6959 71.1362C27.0967 80.8435 34.88 87.9899 46.0668 93.2293C55.5525 97.6719 75.4843 97.872 85.6903 97.1916C99.9388 96.5112 126.995 89.9874 130.117 72.9372C133.326 55.4073 121.952 43.2084 116.429 38.717C109.144 32.7934 89.3885 22.2432 68.6402 27.4303Z" fill="#D9D9D9" stroke="black"/>
</mask>
<g mask="url(#mask3_5140_2816)">
<path d="M68.6402 27.4303C47.8919 32.6173 39.4706 44.5957 35.6206 50.4839C31.5382 56.7276 28.2963 61.4104 27.6959 71.1362C27.0967 80.8435 34.88 87.9899 46.0668 93.2293C55.5525 97.6719 75.4843 97.872 85.6903 97.1916C99.9388 96.5112 126.995 89.9874 130.117 72.9372C133.326 55.4073 121.952 43.2084 116.429 38.717C109.144 32.7934 89.3885 22.2432 68.6402 27.4303Z" fill="#F6F4EC"/>
<path d="M74.3504 58.2758C68.7105 74.2095 39.6768 79.0114 25.8649 79.4207C13.7794 44.3883 51.7142 25.7317 74.3504 20.957C75.2616 26.6412 79.9903 42.342 74.3504 58.2758Z" fill="#484848"/>
<path d="M98.0998 65.9557C86.2848 57.3105 85.7708 32.6839 87.772 22.758C118.606 14.9774 138.284 50.0662 143.487 67.2764C133.281 70.4383 109.915 74.6008 98.0998 65.9557Z" fill="#484848"/>
</g>
<ellipse cx="58.716" cy="60.4815" rx="5.33651" ry="4.9152" transform="rotate(-23.2851 58.716 60.4815)" fill="#A3725E"/>
<ellipse cx="4.9936" cy="4.59937" rx="4.9936" ry="4.59937" transform="matrix(-0.918549 -0.395307 -0.395307 0.918549 115.551 56.8438)" fill="#A3725E"/>
<path d="M85.1788 72.0783L85.1681 76.36M85.1681 76.36C84.2998 78.4281 82.7231 79.6279 77.9323 79.6021C74.3877 79.5829 72.3196 78.8013 72.1053 75.5924M85.1681 76.36C86.057 78.2404 87.7527 80.196 94.0886 79.2766C96.3736 78.945 98.4983 78.2617 98.5912 74.2198" stroke="#562528" stroke-width="1.5" stroke-linecap="round"/>
<path d="M82.2393 71.4341C83.7549 73.4825 86.7406 73.3776 87.9444 71.2337C89.2944 68.8292 87.4326 65.7294 84.6914 65.8176C81.9412 65.906 80.534 69.1293 82.2393 71.4341Z" fill="#A37556"/>
<path d="M20.0316 124.258C19.3029 133.149 23.0986 137.371 26.2688 139.994C29.0007 136.864 34.3257 130.867 32.0046 130.053C29.6836 129.239 29.5623 123.321 29.2784 119.939L28.3532 108.917C26.2121 94.591 17.3211 93.2898 11.482 94.6873C5.64289 96.0847 3.72617 101.998 1.9544 106.982C-0.946764 115.55 6.31087 119.482 14.0336 118.833C20.2118 118.315 21.1585 113.725 20.7636 109.554C21.6607 115.129 20.2601 121.471 20.0316 124.258Z" fill="#484848"/>
<path d="M14.7254 107.7C17.5626 106.531 20.0618 108.602 20.9495 110.168C18.0793 102.953 15.0434 103.645 12.8838 106.427C12.172 107.344 13.6523 108.142 14.7254 107.7Z" fill="#393939"/>
<circle cx="61" cy="59" r="1" fill="#F6F4EC"/>
<ellipse cx="111.5" cy="58" rx="1.5" ry="1" fill="#F6F4EC"/>
<path d="M53.4675 17.1608C58.3752 12.3177 69.6273 10.0481 69.6273 10.0481C69.6273 10.0481 76.2148 9.14299 80.4368 9.38985C86.3558 9.73594 87.3234 9.96963 92.1218 10.8784C100.079 12.5205 106.888 17.5138 111.315 23.3575C113.464 26.1934 113.306 31.3091 113.089 33.3388C112.838 35.6808 106.407 39.671 100.428 41.695C91.686 44.6542 86.0571 43.3399 76.8325 43.0365C69.2326 42.7866 67.8939 43.1845 59.7358 41.2051C56.2291 40.3543 52.4995 38.05 50.3565 35.1468C48.0761 32.0577 47.1254 28.9575 47.4789 26.6265C48.1349 22.3017 50.3541 20.2334 53.4675 17.1608Z" fill="#F4B396"/>
<path fill-rule="evenodd" clip-rule="evenodd" d="M58.0421 40.3898C58.0421 40.3898 58.0806 36.513 58.1585 34.039C58.3802 26.9936 61.6278 22.7032 61.6278 22.7032C61.6278 22.7032 64.174 18.4747 66.2992 16.415C68.5425 14.2408 71.8738 11.7397 71.8738 11.7397C71.8738 11.7397 66.3079 13.6557 62.9959 16.5697C60.4829 18.7806 59.726 19.4894 58.1675 22.4514C56.2362 26.122 55.4462 29.623 56.0745 33.7228C56.4867 36.4124 58.0421 40.3898 58.0421 40.3898Z" fill="#F29D77"/>
<path fill-rule="evenodd" clip-rule="evenodd" d="M98.0664 15.3263C99.9063 16.9993 101.595 18.9209 102.446 20.8798C104.528 25.6689 104.489 28.3587 102.649 31.4506C101.155 33.961 99.2936 34.7623 96.9116 35.7879C96.4904 35.9692 96.0529 36.1576 95.5983 36.3637C92.3956 37.8153 90.0116 37.9354 87.0518 38.0845C86.1226 38.1314 85.1365 38.181 84.0505 38.2757C78.9355 38.7215 75.7969 38.5229 71.114 38.2266C70.5396 38.1903 69.9419 38.1525 69.3146 38.1142C67.857 38.0253 66.5618 38.0039 65.3444 37.9838C62.1692 37.9314 59.5224 37.8878 55.9014 36.6774C53.734 35.9529 51.1559 34.5209 49.1317 33.2785C47.8048 30.822 47.2889 28.4507 47.5686 26.5738C48.1914 22.3959 50.1793 20.3185 52.9792 17.3926C53.0698 17.2979 53.1612 17.2024 53.2535 17.1059C57.8942 12.2502 68.4799 9.91967 68.4799 9.91967C68.4799 9.91967 74.6747 8.97735 78.6399 9.19732C84.1989 9.50571 87.4031 10.2311 92.521 12.4949C92.7215 12.5836 92.9178 12.67 93.1103 12.7547C94.9264 13.5538 96.4158 14.2091 98.0664 15.3263Z" fill="#F8C5AF"/>
<path fill-rule="evenodd" clip-rule="evenodd" d="M58.0846 37.298C57.6892 37.2052 57.2842 37.099 56.8669 36.9773C56.5373 35.8943 56.2273 34.72 56.0745 33.7228C55.4462 29.623 56.2362 26.122 58.1675 22.4514C59.726 19.4894 60.4829 18.7806 62.9959 16.5697C66.3079 13.6557 71.8738 11.7397 71.8738 11.7397C71.8738 11.7397 68.5425 14.2408 66.2992 16.415C64.174 18.4747 61.6278 22.7032 61.6278 22.7032C61.6278 22.7032 58.3802 26.9936 58.1585 34.039C58.1278 35.0151 58.1032 36.2095 58.0846 37.298Z" fill="#F4B396"/>
<path fill-rule="evenodd" clip-rule="evenodd" d="M97.9656 15.2951C97.7492 14.9561 95.1095 12.9625 93.8168 12.0081L92.1622 10.8745C89.3399 10.3098 86.4797 9.87973 83.239 9.59473L90.4711 14.4923L97.9656 15.2951Z" fill="#F8C5AF"/>
<path d="M79.971 10.045L79.1903 9.96141C79.1903 9.96141 79.5722 9.48807 79.5862 9.21419C79.5989 8.96731 79.4776 8.83443 79.3325 8.63427C79.107 8.3232 78.6633 8.24674 78.273 8.20493C77.9321 8.16842 77.3327 8.36323 76.9905 8.3834C76.0034 8.44156 75.447 8.46401 74.4589 8.42806C73.1719 8.38125 72.4268 8.39911 71.18 8.07683C70.4168 7.87956 70.0521 7.55085 69.2785 7.39937C68.83 7.31155 68.5701 7.29802 68.1162 7.27438L68.1075 7.27393C67.5834 7.24664 67.2056 7.57095 66.7637 7.2879C66.508 7.1242 66.2757 6.6829 66.2757 6.6829L66.8807 6.19497C66.8807 6.19497 67.4243 5.52317 67.9179 5.35852C68.1296 5.28789 68.2622 5.30471 68.4811 5.26092C69.8257 4.99194 70.4084 4.18729 71.771 4.03409C72.9898 3.89707 73.6945 4.11168 74.8937 4.3686C75.9638 4.59785 76.7131 4.52387 77.5675 5.20775C78.0753 5.6142 78.2048 5.9979 78.6131 6.50419C79.212 7.24675 79.9517 7.4718 80.1466 8.40563C80.2782 9.03594 79.971 10.045 79.971 10.045Z" fill="#9DBE98"/>
<path fill-rule="evenodd" clip-rule="evenodd" d="M66.3945 6.87947L68.7794 6.16682L71.8213 5.782L75.1001 6.13323L77.6345 6.79952L79.1903 7.7558L79.9403 8.86266L79.5823 10.0035L79.1911 9.96162C79.1911 9.96162 79.573 9.48829 79.587 9.2144C79.5983 8.99375 79.5026 8.86415 79.3786 8.6962C79.3638 8.67624 79.3487 8.65574 79.3333 8.63449C79.1078 8.32342 78.6641 8.24696 78.2738 8.20514C78.0714 8.18346 77.7778 8.24334 77.5011 8.29979C77.3117 8.3384 77.1303 8.37542 76.9912 8.38361C76.0042 8.44177 75.4478 8.46422 74.4596 8.42827C74.2951 8.42229 74.1395 8.41736 73.9905 8.41265C72.974 8.38047 72.2683 8.35813 71.1808 8.07705C70.828 7.98585 70.5603 7.86656 70.2981 7.74968C69.993 7.61373 69.6953 7.48104 69.2793 7.39958C68.8308 7.31176 68.5709 7.29823 68.117 7.2746L68.1083 7.27414C67.9079 7.26371 67.7289 7.30468 67.5595 7.34344C67.2859 7.40606 67.0374 7.46293 66.7644 7.28811C66.6217 7.19673 66.4863 7.01881 66.3945 6.87947Z" fill="#90AE8B"/>
<path d="M81.3961 8.54483C81.1167 9.13777 80.9082 10.1508 80.9082 10.1508L81.6889 10.2344C81.6889 10.2344 81.9845 9.75309 82.2409 9.50391C82.65 9.10647 82.9808 8.99786 83.5039 8.77062C84.42 8.37269 85.0269 8.43829 86.0076 8.24919C87.4468 7.97168 88.2866 7.97877 89.7074 7.619C90.6793 7.37293 91.1573 6.91234 92.1582 6.85501C92.8316 6.81644 93.2328 7.24335 93.8756 7.03899C94.4542 6.85508 95.0857 6.06313 95.0857 6.06313L95.1442 5.51667C95.1442 5.51667 94.4721 5.92261 93.9927 5.94606C93.7477 5.95804 93.6107 5.91624 93.3682 5.87916C91.9687 5.66511 91.425 4.75689 90.0503 4.41827C88.9785 4.15426 88.3323 3.95916 87.2399 4.11722C85.7332 4.33521 85.0032 5.02129 83.805 5.96022C82.7189 6.81124 81.9842 7.29668 81.3961 8.54483Z" fill="#9DBE98"/>
<path fill-rule="evenodd" clip-rule="evenodd" d="M94.9345 6.23536L93.6989 6.46626L92.0845 6.05645L90.6263 5.66336L87.3754 5.78889L84.6654 6.76199L82.3039 8.16724L81.2501 10.1862L81.4813 10.211L81.7307 10.1647C81.822 10.023 82.0423 9.69416 82.2395 9.50257C82.597 9.15517 82.8948 9.02845 83.3135 8.85029C83.3738 8.82463 83.4366 8.79789 83.5025 8.76928C84.117 8.50234 84.5924 8.44399 85.1349 8.37741C85.4011 8.34475 85.6834 8.3101 86.0062 8.24785C86.6022 8.13293 87.0954 8.06682 87.5696 8.00324C88.2406 7.9133 88.8736 7.82844 89.706 7.61767C90.0993 7.51808 90.4118 7.38335 90.7107 7.25444C91.1504 7.06483 91.5609 6.8878 92.1567 6.85368C92.4512 6.83681 92.6937 6.90896 92.927 6.97841C93.2273 7.06776 93.5125 7.15264 93.8742 7.03765C94.2806 6.90848 94.713 6.47937 94.9345 6.23536Z" fill="#90AE8B"/>
<path d="M79.95 7.19419C80.0952 8.32087 79.6401 10.0866 79.6401 10.0866C79.6401 10.0866 80.0511 10.4195 80.3687 10.4725C80.7417 10.5348 81.3147 10.2659 81.3147 10.2659C81.3147 10.2659 81.4667 8.47378 81.32 7.34095C81.223 6.59092 81.1076 6.17812 80.9068 5.44896C80.715 4.75244 80.325 3.6929 80.325 3.6929C80.325 3.6929 79.7774 3.7083 79.5313 3.91583C79.1198 4.26266 79.3845 5.28589 79.3845 5.28589C79.3845 5.28589 79.8506 6.4233 79.95 7.19419Z" fill="#D29A81"/>
</svg>
