<svg width="132" height="157" viewBox="0 0 132 157" fill="none" xmlns="http://www.w3.org/2000/svg">
<mask id="mask0_4851_3263" style="mask-type:alpha" maskUnits="userSpaceOnUse" x="24" y="87" width="93" height="70">
<path d="M26.1756 126.379C30.8463 110.994 37.4387 94.9415 43.826 90.6146C64.8244 88.0505 108.612 85.3261 111.678 90.6146C114.744 95.903 115.989 105.238 116.229 109.244C116.229 113.451 116.085 123.932 115.51 132.201C114.935 140.47 113.115 147.666 112.277 150.23C111.319 152.073 108.349 154.653 104.133 150.23C100.175 146.077 99.2152 138.987 99.2117 135.383C99.1212 139.458 98.5494 147.459 96.8274 151.552C95.007 155.879 90.3203 155.038 88.2045 154.076C81.402 149.653 77.7053 139.893 76.7073 135.567C77.2821 141.913 76.5878 144.191 74.2324 145.073C78.0648 146.154 79.2625 154.013 72.7953 154.688C50.5668 157.006 41.8498 156.2 36.0214 152.674C30.3526 147.987 22.0013 140.128 26.1756 126.379Z" fill="#D9D9D9"/>
<path d="M74.2324 145.073C78.0648 146.154 79.2625 154.013 72.7953 154.688C50.5668 157.006 41.8498 156.2 36.0214 152.674C30.3526 147.987 22.0013 140.128 26.1756 126.379C30.8463 110.994 37.4387 94.9415 43.826 90.6146C64.8244 88.0505 108.612 85.3261 111.678 90.6146C114.744 95.903 115.989 105.238 116.229 109.244C116.229 113.451 116.085 123.932 115.51 132.201C114.935 140.47 113.115 147.666 112.277 150.23C111.319 152.073 108.349 154.653 104.133 150.23C99.9173 145.807 99.1029 138.05 99.2226 134.725C99.1827 138.531 98.6478 147.225 96.8274 151.552C95.007 155.879 90.3203 155.038 88.2045 154.076C81.402 149.653 77.7053 139.893 76.7073 135.567M74.2324 145.073C76.5878 144.191 77.2821 141.913 76.7073 135.567M74.2324 145.073C69.7214 146.194 54.9344 148.692 47.3654 145.422M76.7073 135.567C75.1503 130.318 64.2993 114.677 50.7901 121.696" stroke="black"/>
</mask>
<g mask="url(#mask0_4851_3263)">
<path d="M27.4967 115.453C34.4128 102.869 37.8631 95.641 41.5451 90.7073C62.5975 88.1457 108.673 85.424 111.746 90.7072C114.82 95.9903 116.069 105.316 116.309 109.318C116.309 113.521 116.165 123.991 115.589 132.252C115.012 140.513 113.187 147.701 112.347 150.262C111.386 152.104 108.408 154.681 104.182 150.262C100.214 146.114 99.2516 139.031 99.2481 135.431C99.1573 139.501 98.5841 147.494 96.8576 151.583C95.0325 155.906 90.3338 155.065 88.2125 154.105C81.3925 149.686 77.6862 139.936 76.6857 135.614C77.262 141.954 72.6833 145.3 70.3219 146.18C71.9548 149.926 70.5222 153.075 69.1614 153.755C48.7974 160.095 37.3025 155.105 31.4591 151.583C25.7757 146.9 20.5806 128.036 27.4967 115.453Z" fill="#484848"/>
<path d="M43.826 91.1973L39.5034 93.5987C44.6665 99.3621 67.3599 102.124 67.48 101.283C67.5761 100.611 68.4806 98.2815 68.9209 97.2008L43.826 91.1973Z" fill="#393939"/>
<path d="M65.5591 123.497C72.0429 114.011 60.9561 112.92 70.2016 94.3088C70.2016 94.3088 112.947 77.859 115.108 87.945C117.269 98.031 116.429 99.4719 117.149 114.961L121.592 152.303C102.367 142.831 89.6531 193.488 75.965 132.852C71.7625 126.368 68.5609 125.538 65.5591 123.497Z" fill="#F6F4EC"/>
<path d="M61.6036 147.528C56.884 147.709 58.3261 154.316 59.6371 157.597L75.9474 156.918C79.8419 152.845 81.9242 142.135 74.6134 143.854C67.3027 145.574 64.187 148.018 61.6036 147.528Z" fill="#F6F4EC"/>
<path d="M99.0927 130.908C102.262 131.609 104.855 130.598 107.658 129.588C108.46 129.299 109.025 130.018 108.383 130.578C105.263 133.298 98.4283 134.848 97.963 131.714C97.8762 131.13 98.5155 130.78 99.0927 130.908Z" fill="#DCD0AA"/>
<path d="M99.058 139.615L98.043 131.803L102.846 132.556L99.058 139.615Z" fill="#DCD0AA"/>
<path d="M73.8557 145.239C72.9822 145.303 72.2149 145.983 72.142 146.758C72.069 147.533 72.718 148.108 73.5915 148.044L73.8557 145.239ZM73.5915 148.044C74.7418 147.959 77.5489 148.048 79.4474 148.966L81.3024 146.441C78.7426 145.204 75.282 145.134 73.8557 145.239L73.5915 148.044Z" fill="#CBBF9A"/>
<path d="M96.5336 151.214C96.41 150.408 95.6368 149.867 94.8066 150.004C93.9765 150.142 93.4037 150.907 93.5273 151.713L96.5336 151.214ZM93.5273 151.713C93.577 152.037 93.5904 152.665 93.4269 153.316C93.2649 153.961 92.9649 154.499 92.5029 154.849L94.3386 157.169C95.5298 156.265 96.1109 155.026 96.3785 153.96C96.6446 152.9 96.6362 151.882 96.5336 151.214L93.5273 151.713Z" fill="#CBBF9A"/>
<path d="M112.676 149.471C112.52 148.671 111.725 148.162 110.901 148.333C110.077 148.504 109.536 149.292 109.692 150.092L112.676 149.471ZM109.692 150.092C109.755 150.414 109.794 151.04 109.657 151.698C109.521 152.349 109.243 152.898 108.796 153.267L110.724 155.511C111.877 154.559 112.408 153.298 112.632 152.222C112.855 151.152 112.805 150.135 112.676 149.471L109.692 150.092Z" fill="#CBBF9A"/>
<path d="M73.5708 148.83C72.8145 149.108 72.5098 149.95 72.8901 150.711C73.2704 151.471 74.1918 151.863 74.948 151.585L73.5708 148.83ZM74.948 151.585C75.5884 151.349 76.7004 151.018 77.8812 150.818C79.1151 150.609 80.1866 150.586 80.857 150.775L81.4032 147.969C79.993 147.57 78.3408 147.703 77.0154 147.928C75.6368 148.161 74.3538 148.542 73.5708 148.83L74.948 151.585Z" fill="#CBBF9A"/>
<path d="M92.6395 151.571C92.3261 150.816 91.4494 150.478 90.6813 150.817C89.9133 151.155 89.5448 152.041 89.8582 152.796L92.6395 151.571ZM89.8582 152.796C90.0329 153.217 90.2411 153.948 90.2706 154.671C90.3016 155.428 90.1298 155.861 89.9242 156.068L92.0231 158.139C93.1249 157.029 93.3171 155.547 93.2721 154.447C93.2257 153.311 92.9178 152.241 92.6395 151.571L89.8582 152.796Z" fill="#CBBF9A"/>
<path d="M108.186 149.359C107.532 148.87 106.605 149.027 106.118 149.711C105.63 150.394 105.766 151.344 106.42 151.833L108.186 149.359ZM106.42 151.833C106.785 152.106 107.337 152.628 107.732 153.234C108.145 153.87 108.218 154.33 108.147 154.613L111.009 155.322C111.39 153.805 110.799 152.433 110.199 151.51C109.579 150.557 108.768 149.794 108.186 149.359L106.42 151.833Z" fill="#CBBF9A"/>
<path d="M67.3599 101.404L68.6806 97.3211L112.507 89.2764L114.668 93.9591C95.2164 103.085 80.3276 101.404 67.3599 101.404Z" fill="#E7DAAF"/>
</g>
<path d="M63.381 145.989C67.344 144.389 71.3287 142.084 74.1792 137.639C74.6982 136.829 75.9716 137.024 75.996 137.986C76.1745 145.001 70.2943 146.905 63.8346 147.862C62.6554 148.036 62.2757 146.436 63.381 145.989Z" fill="#565554"/>
<path d="M57.1011 120C69.5907 124.074 75.5968 132.463 75.8939 135.818C76.6898 144.806 72.8202 145.485 70.5245 146.364C66.1279 147.482 62.9374 148.401 55 149" stroke="#393939" stroke-width="4" stroke-linecap="round"/>
<mask id="mask1_4851_3263" style="mask-type:alpha" maskUnits="userSpaceOnUse" x="105" y="26" width="25" height="27">
<path d="M122.71 26.0041C118.96 26.0678 114.524 26.87 110.406 27.8851C105.434 29.111 104.083 35.2054 107.733 38.7977L119.827 50.7014C123.539 54.3547 129.62 52.7186 129.863 47.5161C130.183 40.6395 129.036 34.2679 127.776 29.894C127.113 27.5945 125.102 25.9634 122.71 26.0041Z" fill="#EEA226"/>
</mask>
<g mask="url(#mask1_4851_3263)">
<path d="M129.906 44.0726C129.885 43.0768 129.837 42.098 129.766 41.1411C129.058 31.6496 120.083 25.5459 110.831 27.7813C105.387 29.0968 104.475 35.5913 108.467 39.5202L117.372 48.285C122.211 53.0476 130.046 50.8607 129.906 44.0726Z" fill="#484848"/>
<path d="M124.717 33.4921C128.843 40.7151 126.436 50.1508 124.717 53.9657L108.504 37.5614C114.498 33.1869 121.81 33.0258 124.717 33.4921Z" fill="#A3725E"/>
</g>
<mask id="mask2_4851_3263" style="mask-type:alpha" maskUnits="userSpaceOnUse" x="30" y="26" width="26" height="27">
<path d="M34.4165 28.8959C31.5366 34.6771 30.805 41.2731 31.011 46.9493C31.1981 52.1059 37.1028 53.8909 40.9045 50.402L53.38 38.9527C57.2119 35.436 55.987 29.1177 50.9386 27.8668C45.0924 26.4182 40.831 26.1214 38.1761 26.2776C36.5309 26.3745 35.1513 27.4207 34.4165 28.8959Z" fill="#EEA226"/>
</mask>
<g mask="url(#mask2_4851_3263)">
<path d="M31.5613 37.9339C31.4118 38.8208 31.2942 39.7066 31.2051 40.5862C30.3876 48.6534 39.6234 51.5776 45.5975 46.0951L50.878 41.2489C55.86 36.6768 49.5699 27.0789 42.8405 26.4159C35.0865 25.652 32.8566 30.2508 31.5613 37.9339Z" fill="#484848"/>
<path d="M34.5152 35.3547C33.7171 37.8297 33.495 40.4234 33.6073 42.8738C33.8323 47.783 39.5737 49.0066 43.0282 45.5112L46.3566 42.1433C49.3651 39.0992 48.8859 34.0296 44.747 32.9398C42.7303 32.4088 40.8136 32.1798 39.1991 32.1261C37.0821 32.0557 35.1653 33.3388 34.5152 35.3547Z" fill="#A3725E"/>
</g>
<mask id="mask3_4851_3263" style="mask-type:alpha" maskUnits="userSpaceOnUse" x="27" y="25" width="105" height="73">
<path d="M68.6402 27.4303C47.8919 32.6173 39.4706 44.5957 35.6206 50.4839C31.5382 56.7276 28.2963 61.4104 27.6959 71.1362C27.0967 80.8435 34.88 87.9899 46.0668 93.2293C55.5525 97.6719 75.4843 97.872 85.6903 97.1916C99.9388 96.5112 126.995 89.9874 130.117 72.9372C133.326 55.4073 121.952 43.2084 116.429 38.717C109.144 32.7934 89.3885 22.2432 68.6402 27.4303Z" fill="#D9D9D9" stroke="black"/>
</mask>
<g mask="url(#mask3_4851_3263)">
<path d="M68.6402 27.4303C47.8919 32.6173 39.4706 44.5957 35.6206 50.4839C31.5382 56.7276 28.2963 61.4104 27.6959 71.1362C27.0967 80.8435 34.88 87.9899 46.0668 93.2293C55.5525 97.6719 75.4843 97.872 85.6903 97.1916C99.9388 96.5112 126.995 89.9874 130.117 72.9372C133.326 55.4073 121.952 43.2084 116.429 38.717C109.144 32.7934 89.3885 22.2432 68.6402 27.4303Z" fill="#F6F4EC"/>
<path d="M74.3504 58.2758C68.7105 74.2095 39.6768 79.0114 25.8649 79.4207C13.7794 44.3883 51.7142 25.7317 74.3504 20.957C75.2616 26.6412 79.9903 42.342 74.3504 58.2758Z" fill="#484848"/>
<path d="M98.0998 65.9557C86.2848 57.3105 85.7708 32.6839 87.772 22.758C118.606 14.9774 138.284 50.0662 143.487 67.2764C133.281 70.4383 109.915 74.6008 98.0998 65.9557Z" fill="#484848"/>
</g>
<ellipse cx="58.716" cy="60.4815" rx="5.33651" ry="4.9152" transform="rotate(-23.2851 58.716 60.4815)" fill="#A3725E"/>
<ellipse cx="4.9936" cy="4.59937" rx="4.9936" ry="4.59937" transform="matrix(-0.918549 -0.395307 -0.395307 0.918549 115.551 56.8438)" fill="#A3725E"/>
<path d="M85.1788 72.0783L85.1681 76.36M85.1681 76.36C84.2998 78.4281 82.7231 79.6279 77.9323 79.6021C74.3877 79.5829 72.3196 78.8013 72.1053 75.5924M85.1681 76.36C86.057 78.2404 87.7527 80.196 94.0886 79.2766C96.3736 78.945 98.4983 78.2617 98.5912 74.2198" stroke="#562528" stroke-width="1.5" stroke-linecap="round"/>
<path d="M82.2393 71.4341C83.7549 73.4825 86.7406 73.3776 87.9444 71.2337C89.2944 68.8292 87.4326 65.7294 84.6914 65.8176C81.9412 65.906 80.534 69.1293 82.2393 71.4341Z" fill="#A37556"/>
<path d="M20.0316 124.258C19.3029 133.149 23.0986 137.371 26.2688 139.994C29.0007 136.864 34.3257 130.867 32.0046 130.053C29.6836 129.239 29.5623 123.321 29.2784 119.939L28.3532 108.917C26.2121 94.591 17.3211 93.2898 11.482 94.6873C5.64289 96.0847 3.72617 101.998 1.9544 106.982C-0.946764 115.55 6.31087 119.482 14.0336 118.833C20.2118 118.315 21.1585 113.725 20.7636 109.554C21.6607 115.129 20.2601 121.471 20.0316 124.258Z" fill="#484848"/>
<path d="M14.7254 107.7C17.5626 106.531 20.0618 108.602 20.9495 110.168C18.0793 102.953 15.0434 103.645 12.8838 106.427C12.172 107.344 13.6523 108.142 14.7254 107.7Z" fill="#393939"/>
<circle cx="61" cy="59" r="1" fill="#F6F4EC"/>
<ellipse cx="111.5" cy="58" rx="1.5" ry="1" fill="#F6F4EC"/>
<path d="M55.7179 14.0914C54.5685 18.4255 55.5153 35.4584 55.5153 35.4584L108.199 35.9579C108.199 35.9579 108.763 21.4324 107.619 16.1505C106.476 10.8687 106.317 9.58503 102.009 5.34162C97.7017 1.09821 88.0747 0.365856 81.3401 0.302012C74.6055 0.238167 68.2042 0.996555 62.5396 4.96739C56.8751 8.93822 56.2588 12.0518 55.7179 14.0914Z" fill="#F3C66D"/>
<path fill-rule="evenodd" clip-rule="evenodd" d="M66.632 31.9313C66.632 31.9313 66.6633 24.2279 66.7259 22.0312C66.7404 21.522 66.7511 21.0289 66.7615 20.5474L66.7615 20.5473C66.8213 17.7926 66.8729 15.4175 67.5829 12.5658C68.1913 10.1227 68.9589 8.50542 69.9206 6.47916C70.1753 5.94253 70.4436 5.37723 70.7261 4.76029C71.0152 4.12926 71.3063 3.30831 71.596 2.4915L71.596 2.49149L71.596 2.49147C71.7789 1.97591 71.9612 1.46199 72.1419 0.998523C72.504 0.928216 72.8678 0.864251 73.2332 0.806184C72.8246 2.23182 72.2587 4.2024 71.8256 5.69671C71.5198 6.75178 71.2232 7.63391 70.9424 8.46936L70.9424 8.46946L70.9423 8.4695L70.9423 8.46956C70.4401 9.96363 69.988 11.3084 69.6228 13.2262C69.1043 15.9492 69.0587 17.7496 68.9985 20.1227C68.9833 20.7214 68.9672 21.3566 68.9423 22.0522C68.8639 24.2485 68.8485 31.9523 68.8485 31.9523L66.632 31.9313ZM77.2915 0.384596C77.3885 1.62897 77.5157 3.45579 77.546 4.82496C77.5712 5.96142 77.5528 6.7741 77.5322 7.68303L77.5322 7.68313L77.5322 7.68323L77.5322 7.68332L77.5322 7.68341L77.5322 7.68349C77.5211 8.17583 77.5093 8.69643 77.5034 9.31204L77.4244 17.6452C77.2644 19.5431 76.9381 23.98 76.9381 23.98C76.9381 23.98 75.726 31.9225 75.4857 33.2974L77.6994 33.6033C77.6994 33.6033 78.8542 25.9781 78.984 23.9994C79.0892 22.3965 79.0734 21.2477 79.0556 19.9629L79.0556 19.9629L79.0556 19.9629L79.0557 19.9628L79.0557 19.9628L79.0557 19.9628C79.0461 19.2666 79.0359 18.5305 79.0442 17.6605C79.055 16.517 79.0938 15.5495 79.1305 14.6345L79.1305 14.6344L79.1305 14.6344L79.1305 14.6344L79.1305 14.6344L79.1305 14.6343C79.1982 12.9455 79.2588 11.4355 79.1232 9.32739C79.0101 7.56926 78.8938 6.58508 78.6542 4.83546C78.4642 3.44802 78.1192 1.60014 77.876 0.355391C77.6808 0.364026 77.486 0.373741 77.2915 0.384596ZM82.6443 0.323005C83.215 1.56281 84.0504 3.45142 84.5363 4.89124C85.2648 7.04985 85.5288 8.32368 85.9754 10.4783L85.9754 10.4784L86.0161 10.6749C86.4504 12.7695 86.6208 14.0678 86.8723 15.9845L86.8725 15.9858L86.8734 15.9932C86.9075 16.2529 86.9431 16.5239 86.981 16.8098C87.0487 17.3205 87.1135 17.7868 87.1745 18.2264C87.4224 20.0114 87.6092 21.3562 87.6854 23.4409C87.7485 25.1648 87.8466 33.4146 87.8466 33.4146L89.8134 32.7922C89.8204 32.0551 89.7751 30.0908 89.7298 28.1263L89.7298 28.1258L89.7298 28.1258L89.7298 28.1257L89.7298 28.1256C89.6845 26.161 89.6391 24.1965 89.6461 23.4595C89.6461 23.4595 89.2006 19.4081 88.7712 16.8268C88.3476 14.28 88.0529 12.8575 87.4687 10.3325C87.3318 9.74096 87.2244 9.2185 87.1235 8.7281C86.8614 7.45415 86.6439 6.39649 86.0708 4.90579C85.5094 3.44542 84.4494 1.58407 83.7072 0.353133C83.3478 0.340796 82.9932 0.330868 82.6443 0.323005ZM89.5511 0.787271C90.4044 1.86314 91.9328 3.85805 92.8013 5.39698C93.9396 7.4138 94.375 8.62544 95.1376 10.7614C96.2102 13.7653 96.6988 15.5013 97.1093 18.6154C97.3723 20.6099 98.1907 30.4498 98.1907 30.4498L100.494 30.2579C100.494 30.2579 99.4666 20.0642 99.0774 17.8505L99.036 17.6145C98.4795 14.4458 98.1474 12.5552 96.7695 9.49471C95.8143 7.37322 95.1814 6.19274 93.7499 4.2663C92.9441 3.1819 91.6694 1.83572 90.8025 0.955106C90.3866 0.893876 89.969 0.838079 89.5511 0.787271ZM97.7164 2.69471C98.387 3.62241 99.2942 4.92761 99.8722 5.96263C101.446 8.78015 101.981 10.5067 102.784 13.5406C103.16 14.9569 103.316 15.9452 103.503 17.1261C103.578 17.5993 103.658 18.1034 103.759 18.6784C103.912 19.5507 104.064 20.3128 104.208 21.0283L104.208 21.0284C104.568 22.8201 104.868 24.3194 104.963 26.5251C105.026 27.9986 104.927 30.3 104.927 30.3L106.801 30.5314L106.839 26.5429C106.839 26.5429 105.872 20.5742 105.386 17.9103L105.38 17.8773L105.38 17.8773C104.899 15.243 104.824 14.8313 104.24 12.9133C104.182 12.7252 104.127 12.542 104.073 12.3631L104.071 12.3586C103.265 9.69939 102.75 8.00001 101.07 5.47538C100.68 4.88902 100.149 4.21773 99.6281 3.597C99.031 3.26447 98.3908 2.96475 97.7164 2.69471ZM67.5344 2.30722C66.862 3.37578 66.1195 4.61285 65.6025 5.6377C64.1687 8.47985 63.4577 10.1373 62.7177 13.1607C62.2103 15.2341 62.1567 16.787 62.0986 18.4694C62.0619 19.5345 62.0233 20.6514 61.8667 21.9852C61.6382 23.932 61.2106 28.2472 61.2106 28.2472L59.8466 28.2342C59.8466 28.2342 60.2036 23.9169 60.4175 21.9714C60.5532 20.7378 60.5945 19.6887 60.6336 18.6952C60.7037 16.9144 60.7667 15.3125 61.3537 13.1478C62.1791 10.1043 62.8831 8.40597 64.5795 5.628C65.1546 4.68623 65.9763 3.5977 66.765 2.61994C67.0204 2.51099 67.2768 2.4068 67.5344 2.30722Z" fill="#E2AE4A"/>
<path fill-rule="evenodd" clip-rule="evenodd" d="M55.1656 25.2346C58.5733 25.8752 63.9284 26.7826 67.949 27.0005C69.2493 27.071 70.4696 27.1579 71.6343 27.2409C77.2692 27.6423 81.5995 27.9507 87.3726 25.8527C92.1354 24.1218 95.1827 22.8416 98.0328 19.2154C100.242 16.4048 100.566 15.4615 100.581 12.0939C100.591 10.0503 99.8575 8.78069 98.9272 7.16934C98.6819 6.74439 98.4228 6.29566 98.16 5.8027C97.3007 4.19081 95.6032 2.7307 93.5999 1.46249C89.5403 0.570213 85.0103 0.33681 81.3396 0.302012C74.605 0.238167 68.2037 0.996555 62.5391 4.96739C57.1055 8.77634 56.3169 11.7965 55.7843 13.8366C55.7616 13.9233 55.7395 14.0082 55.7174 14.0914C55.1889 16.0843 55.1036 20.7623 55.1656 25.2346Z" fill="#F7D674"/>
<path fill-rule="evenodd" clip-rule="evenodd" d="M78.6248 27.518C77.8916 27.5384 77.1566 27.5348 76.4113 27.5145C76.6529 25.9662 76.9379 23.9809 76.9379 23.9809C76.9379 23.9809 77.2642 19.544 77.4243 17.646L77.5033 9.31288C77.5091 8.69724 77.5209 8.17661 77.5321 7.68424L77.5321 7.68416L77.5321 7.68407L77.5321 7.68397L77.5321 7.68387C77.5526 6.77495 77.571 5.96226 77.5458 4.8258C77.5155 3.45601 77.3882 1.62817 77.2912 0.383757C77.4856 0.372904 77.6804 0.363191 77.8756 0.354557C78.1188 1.59932 78.464 3.44824 78.6541 4.83631C78.8937 6.58592 79.0099 7.5701 79.123 9.32824C79.2586 11.4364 79.1981 12.9464 79.1303 14.6352L79.1303 14.6352L79.1303 14.6352L79.1303 14.6353L79.1303 14.6353C79.0936 15.5503 79.0548 16.5178 79.044 17.6614C79.0357 18.5313 79.0459 19.2674 79.0555 19.9636L79.0555 19.9637L79.0555 19.9637L79.0555 19.9637L79.0555 19.9637C79.0732 21.2486 79.089 22.3974 78.9839 24.0003C78.9136 25.0725 78.7552 26.4661 78.6248 27.518ZM89.6313 25.0073C89.019 25.2473 88.376 25.487 87.6979 25.7348C87.7088 24.9713 87.7104 24.1295 87.6853 23.4417C87.609 21.3571 87.4223 20.0124 87.1744 18.2274L87.1744 18.2274L87.1744 18.2273L87.1744 18.2272C87.1133 17.7876 87.0486 17.3213 86.9808 16.8107C86.9425 16.5219 86.9067 16.2484 86.8723 15.9864L86.8721 15.9854C86.6206 14.0687 86.4503 12.7704 86.0159 10.6757L85.9752 10.4792L85.9752 10.4791L85.9752 10.4791C85.5287 8.32447 85.2647 7.05065 84.5362 4.89208C84.05 3.4516 83.2141 1.5619 82.6434 0.322125C82.9921 0.329983 83.3467 0.339905 83.706 0.352233C84.4482 1.58316 85.509 3.44557 86.0706 4.90663C86.6437 6.39733 86.8613 7.45499 87.1233 8.72894C87.2242 9.21935 87.3317 9.7418 87.4685 10.3334C88.0528 12.8583 88.3474 14.2808 88.7711 16.8276C89.2004 19.409 89.646 23.4603 89.646 23.4603L89.6313 25.0073ZM99.0727 17.825C98.7837 18.2431 98.4405 18.6977 98.0333 19.2158C97.7767 19.5424 97.5184 19.85 97.2574 20.1405C97.2189 19.6065 97.1704 19.0804 97.1092 18.6162C96.6986 15.5021 96.21 13.7661 95.1375 10.7622C94.3749 8.62629 93.9395 7.41464 92.8012 5.39782C91.9321 3.85798 90.4024 1.86162 89.5494 0.786207C89.9672 0.836982 90.3846 0.892741 90.8003 0.953928C91.6673 1.83451 92.9433 3.18191 93.7497 4.26714C95.1813 6.19359 95.8142 7.37406 96.7694 9.49555C98.1473 12.556 98.4793 14.4466 99.0358 17.6154L99.0727 17.825ZM73.2336 0.805278C72.8249 2.23105 72.2587 4.20263 71.8254 5.69755C71.5196 6.75271 71.223 7.6349 70.9422 8.47041L70.9422 8.47042C70.4399 9.96448 69.9878 11.3093 69.6227 13.227C69.1042 15.95 69.0585 17.7505 68.9983 20.1236C68.9831 20.7223 68.967 21.3575 68.9422 22.0531C68.8843 23.6729 68.8828 25.9639 68.886 27.0551C68.5783 27.0362 68.2663 27.0181 67.9495 27.0009C67.5366 26.9785 67.1096 26.9489 66.672 26.913C66.673 25.7807 66.6812 23.5944 66.7257 22.0321C66.7402 21.5228 66.7509 21.0297 66.7614 20.5482L66.7614 20.5482C66.8212 17.7934 66.8727 15.4183 67.5828 12.5666C68.1911 10.1235 68.9587 8.50626 69.9204 6.47999L69.9205 6.47986L69.9205 6.47981L69.9206 6.47965L69.9207 6.47943L69.9207 6.47938C70.1753 5.94294 70.4435 5.37783 70.726 4.76114C71.015 4.1301 71.3062 3.30916 71.5959 2.49234L71.5959 2.49233L71.5959 2.49231C71.779 1.97608 71.9615 1.4615 72.1425 0.997566C72.5045 0.927278 72.8682 0.86333 73.2336 0.805278ZM66.7669 2.61832C67.022 2.50947 67.2782 2.4054 67.5356 2.30591C66.8628 3.37496 66.1197 4.61301 65.6023 5.63854C64.1685 8.4807 63.4575 10.1381 62.7176 13.1616C62.2101 15.2349 62.1565 16.7878 62.0985 18.4703C62.0617 19.5353 62.0232 20.6523 61.8666 21.986C61.7057 23.3562 61.4523 25.2645 61.3163 26.2748C60.8596 26.2074 60.406 26.1379 59.959 26.0673C60.0773 25.0203 60.2759 23.2582 60.4174 21.9723C60.5531 20.7387 60.5943 19.6895 60.6334 18.6961C60.7035 16.9153 60.7665 15.3133 61.3536 13.1486C62.179 10.1051 62.883 8.40681 64.5794 5.62884C65.1549 4.68628 65.9776 3.59671 66.7669 2.61832Z" fill="#F3C66D"/>
<path d="M50.2034 29.1403C50.8621 27.9824 51.6364 27.5008 53.1207 27.1735C55.5983 26.6272 55.4964 26.9776 57.7917 27.2178C61.5723 27.6135 63.4518 28.75 67.0833 29.7192C69.7541 30.4319 71.7362 30.6136 74.4829 31.08C79.322 31.9017 80.8212 31.9324 85.7322 31.5428C89.9095 31.2114 92.5588 30.5703 96.7421 30.2938C100.311 30.058 103.947 29.2991 107.401 30.1014C109.386 30.5626 109.544 30.7671 111.112 31.8862C112.714 33.0299 112.91 34.4544 113.204 36.5977L113.221 36.7183C113.542 39.0534 112.632 40.9095 111.008 42.8231C109.314 44.8196 108.051 44.6162 105.378 45.6189C101.471 47.0844 97.2733 46.761 93.0023 47.0686C86.8795 47.5096 85.2417 47.2813 79.1068 46.9369C72.8479 46.5855 70.1907 46.5546 64.118 45.2277C59.3243 44.1802 60.4584 44.5519 54.8503 42.5756C53.2322 42.0053 50.3828 40.4115 49.7685 39.0371C48.9488 37.2031 49.115 36.0292 49.1335 34.0738C49.1503 32.3069 49.2966 30.7341 50.2034 29.1403Z" fill="#F3C66D"/>
<path fill-rule="evenodd" clip-rule="evenodd" d="M58.0914 43.7119C57.6667 43.567 57.1708 43.3938 56.5661 43.1811L55.7295 39.8772L55.768 35.8175L56.7536 30.7695L59.0018 27.443L59.3927 27.4467C59.7191 27.5062 60.0321 27.5716 60.3355 27.6421L58.2002 31.0681L57.0467 35.8296L57.0075 39.9605L58.0914 43.7119ZM67.1619 45.8387C66.6207 45.7418 66.0551 45.6334 65.4565 45.5116L64.5019 40.8151L64.5607 34.6187L65.659 29.3082C66.1035 29.4462 66.5717 29.5834 67.0734 29.7175L66.0126 34.3475L66.1216 40.8305L67.1619 45.8387ZM76.3386 46.7867C75.7659 46.7553 75.2224 46.7245 74.699 46.6924L74.0389 42.0452L74.0929 36.3474L74.8802 31.148C75.4668 31.2459 76.0034 31.3315 76.5035 31.4055L75.8013 36.0074L75.7472 41.7053L76.3386 46.7867ZM87.4263 47.3131C86.9963 47.314 86.5782 47.3097 86.161 47.3007L86.9966 42.1681L87.0324 38.3932L86.1829 31.5067C86.529 31.4767 86.8649 31.4446 87.1924 31.4108L88.5817 36.8409L88.5385 41.3992L87.4263 47.3131ZM98.6686 46.8194C98.0251 46.8545 97.3776 46.8788 96.7267 46.9013L97.9084 42.2716L98.641 36.9363L96.6627 30.3004C96.6894 30.2986 96.7161 30.2968 96.743 30.295C97.2633 30.2607 97.785 30.2152 98.3074 30.165C98.8935 31.4038 100.211 34.4021 100.349 36.5963C100.439 38.0215 100.256 38.9816 100.032 40.1592C99.9536 40.5717 99.87 41.0108 99.7912 41.5059C99.5115 43.2644 98.9262 45.7544 98.6686 46.8194ZM107.652 44.8928C107.541 44.9257 107.428 44.9589 107.312 44.9929C106.837 45.1322 106.312 45.286 105.715 45.4977C105.859 44.6968 106.047 43.5309 106.089 42.7053C106.159 41.3288 106.135 37.8621 106.135 37.8621C106.135 37.8621 105.757 35.7216 105.65 35.0083C105.543 34.295 103.736 30.0753 103.736 30.0753L104.832 29.7633C104.98 29.7701 105.127 29.7787 105.275 29.7894C105.625 30.3182 106.954 32.3792 107.451 33.8857C107.872 35.1601 107.95 35.9469 108.074 37.1976L108.099 37.4533C108.291 39.3665 108.246 40.4557 108.053 42.3677C107.976 43.133 107.807 44.097 107.652 44.8928Z" fill="#E2AE4A"/>
<path fill-rule="evenodd" clip-rule="evenodd" d="M53.1205 27.1728C51.6362 27.5002 50.862 27.9817 50.2032 29.1396C49.2964 30.7334 49.1501 32.3063 49.1334 34.0732C49.1307 34.3491 49.1252 34.6096 49.1199 34.8584C49.0875 36.3731 49.0643 37.4613 49.7683 39.0364C50.3826 40.4109 53.232 42.0046 54.8501 42.5749C57.872 43.6398 58.9363 44.023 60.0252 44.3138C60.9572 44.5627 61.9072 44.744 64.1179 45.227C69.5737 46.4192 72.2727 46.5652 77.3036 46.8374C77.8723 46.8681 78.4709 46.9005 79.1067 46.9362C79.963 46.9843 80.7318 47.0301 81.4373 47.0721C85.2328 47.2983 87.1995 47.4155 91.1407 47.1895C93.4487 46.2043 95.74 44.8929 96.9604 43.2592C97.17 42.9786 97.38 42.7106 97.5837 42.4507C98.7539 40.9574 99.718 39.7271 99.2282 37.8672C98.9121 36.6672 98.2668 36.043 97.3707 35.1762C97.264 35.073 97.1537 34.9663 97.0401 34.8548C94.9926 32.847 90.1681 31.2994 90.1681 31.2994L89.3542 31.1534C88.2358 31.2999 87.0613 31.4367 85.7321 31.5421C80.821 31.9317 79.3218 31.901 74.4827 31.0793C73.7056 30.9474 72.9897 30.8382 72.3021 30.7334C70.5594 30.4676 68.9983 30.2296 67.0831 29.7185C65.793 29.3742 64.724 29.0088 63.7124 28.663C61.8763 28.0353 60.229 27.4722 57.7915 27.2171C57.5535 27.1922 57.3412 27.1661 57.1491 27.1399L53.4383 27.1047C53.3372 27.1257 53.2315 27.1484 53.1205 27.1728Z" fill="#F7D674"/>
<path fill-rule="evenodd" clip-rule="evenodd" d="M59.4024 27.4471L59.0014 27.4433C59.0014 27.4433 57.3882 29.3749 56.7532 30.7697C56.0424 32.3309 55.958 33.4189 55.8431 34.8997C55.8207 35.1886 55.7971 35.4925 55.7675 35.8177L55.7517 35.9909C55.6169 37.4661 55.5353 38.3588 55.729 39.8775C55.8704 40.986 56.3441 42.546 56.5434 43.1719C57.146 43.3838 57.6409 43.5567 58.0651 43.7016C57.8196 43.0382 57.1836 41.2398 57.0071 39.9608C56.7857 38.3575 56.8612 37.4352 57.0462 35.8299C57.2639 33.9408 57.4167 32.8483 58.1997 31.0684C58.7416 29.8365 59.9218 28.1787 60.3179 27.6366C60.023 27.5684 59.719 27.5049 59.4024 27.4471ZM65.6433 29.302C65.4165 30.1792 64.7632 32.7981 64.5602 34.619C64.2916 37.0278 64.2491 38.4039 64.5015 40.8154C64.663 42.3588 65.1791 44.5222 65.4261 45.504C66.0263 45.6263 66.5932 45.7352 67.1357 45.8326C66.8816 44.8253 66.3181 42.4883 66.1212 40.8308C65.8218 38.3104 65.7119 36.8664 66.0121 34.3478C66.1972 32.7953 66.7932 30.6072 67.0494 29.7097C66.5509 29.5761 66.0854 29.4394 65.6433 29.302ZM74.8719 31.1452C74.7296 31.8928 74.2402 34.5401 74.0925 36.3476C73.911 38.5672 73.8824 39.8236 74.0384 42.0455C74.1466 43.586 74.5192 45.7804 74.6813 46.6899C75.2063 46.7221 75.7515 46.753 76.3259 46.7845C76.1926 45.8886 75.8405 43.4167 75.7468 41.7056C75.625 39.4822 75.6081 38.2266 75.8008 36.0077C75.9404 34.3994 76.3771 32.0362 76.4972 31.4031C75.9965 31.329 75.4592 31.2433 74.8719 31.1452ZM86.1911 31.5044C86.334 32.3284 86.9428 35.9518 87.0319 38.3935C87.0857 39.8672 87.0952 40.6967 86.9961 42.1684C86.8862 43.8014 86.4672 46.0334 86.209 47.3002C86.6248 47.3088 87.0418 47.3128 87.4711 47.3115C87.7824 46.0088 88.3822 43.3274 88.538 41.3995L88.543 41.338C88.6835 39.6002 88.7647 38.5946 88.5812 36.8412C88.3865 34.9805 87.5384 32.3451 87.2215 31.4062C86.8874 31.4408 86.5445 31.4737 86.1911 31.5044ZM98.6091 36.5229C98.6235 36.6635 98.6341 36.8016 98.6405 36.9365C98.7159 38.5289 98.4839 39.5857 98.1935 40.9089L98.1935 40.9089L98.1935 40.909L98.1935 40.9092L98.1934 40.9094C98.1214 41.2373 98.0459 41.5816 97.9705 41.9544C98.9534 40.6722 99.6632 39.5177 99.2286 37.8676C99.0864 37.3276 98.8775 36.9042 98.6091 36.5229Z" fill="#F3C66D"/>
</svg>
