<svg width="117" height="177" viewBox="9 0 60 177" fill="none" xmlns="http://www.w3.org/2000/svg">
<path d="M11.079 163.912C10.1686 159.692 17.3649 155.479 20.5729 155.479L38 163.912C36.1359 166.409 31.8355 171.145 29.5465 170.115C27.2576 169.085 27.8992 167.501 28.5061 166.838C26.2952 168.516 21.3012 171.52 19.0122 170.115C16.7233 168.711 18.0585 165.395 19.0122 163.912C13.3939 166.721 11.3996 165.399 11.079 163.912Z" fill="#FEA34A"/>
<path d="M62.0194 173.745C59.5699 171.028 62.1044 166.71 63.6779 164.891C69.1636 162.384 80.9007 157.904 83.9625 160.039C87.0243 162.173 87.1945 167.155 86.8968 169.379C85.8336 171.4 82.9929 175.444 80.1352 175.444C77.2775 175.444 77.3285 172.209 77.7113 170.592C76.8182 173.26 74.3943 175.808 71.9703 175.444C70.0312 175.153 69.7165 172.088 69.8015 170.592C68.2281 172.775 64.4688 176.463 62.0194 173.745Z" fill="#FEA34A"/>
<path d="M2.75853 135.068C-4.38282 120.154 11.9439 105.128 21 99.4785L18.93 131.001C10.3397 136.062 4.56974 135.821 2.75853 135.068Z" fill="#463E3E" stroke="black"/>
<mask id="mask0_5140_2818" style="mask-type:alpha" maskUnits="userSpaceOnUse" x="7" y="90" width="110" height="84">
<path d="M7.89177 130.926C6.52728 123.185 15.0203 104.815 19.4374 96.5968L90.2858 90.8975L94.2218 96.5968C98.3152 104.974 102.837 115.727 104.587 120.057C105.006 125.359 107.998 131.014 109.441 133.179C116.263 137.526 116.395 140.911 115.607 142.059C113.683 145.727 108.391 153.988 102.619 157.7C96.8458 161.411 84.7316 167.022 79.3961 169.364C72.4425 170.91 56.2261 173.87 46.9896 173.34C37.753 172.81 29.4961 169.496 26.5223 167.906C24.9041 166.978 20.1984 163.399 14.3206 156.507C6.97337 147.891 9.59738 140.601 7.89177 130.926Z" fill="#D9D9D9" stroke="black"/>
</mask>
<g mask="url(#mask0_5140_2818)">
<path d="M9.14045 127.429C9.78036 120.278 16.1913 103.599 20.5603 96.099L90.6364 90.8975L94.5295 96.099C98.5784 103.744 103.051 113.558 104.781 117.51C105.197 122.348 108.155 127.51 109.583 129.485C116.331 133.453 115.033 137.623 114.255 138.671C112.351 142.018 106.728 149.558 101.018 152.945C95.3082 156.332 85.1428 160.372 79.8654 162.509C72.3387 165.557 57.4151 166.138 47.8121 166.138C38.6615 166.138 30.5094 162.63 27.5679 161.178C23.9342 159.385 19.1817 154.76 15.4992 150.775C8.23207 142.913 8.36172 136.131 9.14045 127.429Z" fill="#504949"/>
<path d="M22.0478 130.515C21.4009 118.063 28.7199 103.635 32.4603 97.9775L62.7179 99.3194L62.7725 99.4426C64.7466 103.904 68.8226 113.116 71.5696 124.393C74.3421 135.774 71.1484 144.777 68.8453 148.704C67.1351 151.621 64.8424 157.72 53.6591 158.486C42.4758 159.252 33.002 155.022 29.663 152.811C23.5711 148.778 22.6947 142.967 22.0478 130.515Z" fill="#FCEDC6"/>
</g>
<path d="M101.926 137.466C87.0814 138.21 79.0407 117.784 76.8759 107.479C75.6036 109.814 75.9923 114.732 76.3458 116.9C76.7434 119.819 78.6095 128.72 84.1231 135.938C89.6367 143.156 99.1865 142.73 103.118 142.243C104.4 140.253 107.227 135.556 108.287 132.69C109.348 129.824 108.994 127.603 108.685 126.851L101.926 137.466Z" fill="#443B3B"/>
<path d="M102.711 139.56C79.4451 138.032 75.5957 117.196 76.5792 106.969C81.8563 96.0591 91.1702 98.0702 95.1675 100.44C116.839 117.025 109.226 133.43 102.711 139.56Z" fill="#504949"/>
<path d="M18 100.019L19.95 96.4785C21.51 97.553 27.9667 99.0427 31 99.6532L28.27 104.479C26.086 104.479 20.73 101.2 18 100.019Z" fill="#3C3333"/>
<path d="M30.8276 99.4785L28 104.711C40.2905 109.044 58.7677 107.355 66 105.888C65.7844 104.805 64.3838 101.735 63.8448 100.325L30.8276 99.4785Z" fill="#EBDBB0"/>
<path d="M65.2368 105.479L63 100.281L91.0263 91.4785L93 94.2143C88.4737 100.019 72.7368 104.567 65.2368 105.479Z" fill="#3C3333"/>
<mask id="mask1_5140_2818" style="mask-type:alpha" maskUnits="userSpaceOnUse" x="3" y="24" width="107" height="78">
<path d="M45.2275 25.0055C6.32934 28.4302 1.78354 60.9393 4.37292 76.7658C1.15058 81.851 6.19508 89.4356 9.12011 92.5922C12.0452 95.7489 18.5377 99.4448 35.1577 101.284C58.606 103.878 86.2079 98.2036 94.7134 91.295C114.997 74.8199 109.387 51.6856 104.352 43.167C100.851 35.6862 84.1257 21.5807 45.2275 25.0055Z" fill="#D9D9D9"/>
</mask>
<g mask="url(#mask1_5140_2818)">
<path d="M45.2275 25.005C6.32934 28.4297 1.78354 60.9388 4.37292 76.7653C1.15058 81.8505 6.19508 89.4351 9.12011 92.5918C12.0452 95.7484 18.5377 99.4444 35.1577 101.283C58.606 103.878 86.2079 98.2031 94.7134 91.2945C114.997 74.8194 104.783 53.3635 99.7483 44.8448C96.2478 37.364 84.1257 21.5802 45.2275 25.005Z" fill="#504949"/>
<path d="M5.47604 75.0785C5.43048 75.136 5.38611 75.1929 5.34292 75.2493C4.62398 76.1883 3.82644 77.0948 2.96442 77.9044C-7.58198 87.8097 16.3398 104.251 32.2237 112.636C33.9097 113.526 35.8854 113.635 37.6813 112.995L76.0124 99.3379C82.342 96.4758 86.1685 91.4506 88.8154 86.8843C90.9257 83.2439 92.9872 78.4522 92.9872 75.4604C92.9872 72.4685 94.2819 68.4552 89.6785 59.8934C85.6704 52.4385 79.8964 49.2561 76.0124 47.4399C71.2652 45.2199 67.6688 44.3296 58.7499 46.1506C55.8916 46.7342 53.1006 47.7092 50.6998 48.8609C47.0172 50.6276 42.1977 50.3214 38.4531 48.6902C37.4593 48.2573 36.291 47.8444 34.8701 47.4398C29.4037 45.8831 20.1969 47.8371 15.162 51.8504C9.93857 56.0141 8.8162 61.7227 8.92797 66.7255C8.99626 69.7822 7.37632 72.6833 5.47604 75.0785Z" fill="#FCEDC6"/>
<path d="M38.9031 74.852C35.0557 77.0414 34.8597 79.6154 35.7914 81.0956C35.6533 82.8406 38.5409 83.6592 39.3037 83.838C40.7912 84.1865 44.0869 84.365 47.5809 83.8044C51.0749 83.2438 52.6765 81.7576 53.0406 81.0845C53.5537 79.0186 53.9417 76.7248 52.5008 74.8521C51.3719 73.3849 49.0748 73.3849 46.1457 73.3848L46.1442 73.3848C43.4945 73.3848 41.4814 73.3848 38.9031 74.852Z" fill="#FEA34A"/>
<path d="M50.5394 79.1286C47.169 80.6102 39.6364 83.0886 36.4695 81.1488" stroke="#B0661E" stroke-width="1.6" stroke-linecap="round"/>
<ellipse cx="5.17171" cy="4.34993" rx="5.17171" ry="4.34993" transform="matrix(0.933053 -0.35974 0.385726 0.922613 15.5938 69.4521)" fill="#562528"/>
<ellipse cx="5.23435" cy="4.69684" rx="5.23435" ry="4.69684" transform="matrix(-0.915608 -0.402071 -0.433858 0.900981 77.0137 68.3838)" fill="#562528"/>
</g>
<path d="M24.2636 16.1567C28.9299 11.5969 39.6286 9.46009 39.6286 9.46009C39.6286 9.46009 45.8922 8.60796 49.9065 8.84038C55.5344 9.16622 56.4545 9.38624 61.0168 10.2419C68.5828 11.7878 75.0566 16.489 79.2665 21.9908C81.3096 24.6608 81.1595 29.4771 80.9528 31.3881C80.7143 33.5931 74.6 37.3498 68.9148 39.2554C60.6025 42.0415 55.2505 40.804 46.4795 40.5185C39.2533 40.2832 37.9805 40.6578 30.2236 38.7942C26.8894 37.9932 23.3432 35.8236 21.3056 33.0904C19.1373 30.182 18.2334 27.2632 18.5695 25.0685C19.1932 20.9968 21.3033 19.0495 24.2636 16.1567Z" fill="#F4B396"/>
<path fill-rule="evenodd" clip-rule="evenodd" d="M28.613 38.0259C28.613 38.0259 28.6496 34.376 28.7236 32.0467C28.9345 25.4135 32.0224 21.3742 32.0224 21.3742C32.0224 21.3742 34.4434 17.3931 36.464 15.4538C38.597 13.4069 41.7644 11.0521 41.7644 11.0521C41.7644 11.0521 36.4723 12.856 33.3231 15.5995C30.9338 17.6811 30.2141 18.3484 28.7322 21.1371C26.8959 24.5929 26.1448 27.8891 26.7422 31.749C27.1341 34.2813 28.613 38.0259 28.613 38.0259Z" fill="#F29D77"/>
<path fill-rule="evenodd" clip-rule="evenodd" d="M66.67 14.4292C68.4194 16.0042 70.025 17.8134 70.8346 19.6577C72.814 24.1666 72.7764 26.699 71.0268 29.6101C69.6063 31.9735 67.8368 32.7279 65.5719 33.6935C65.1714 33.8643 64.7555 34.0416 64.3232 34.2356C61.278 35.6024 59.0113 35.7154 56.1971 35.8558C55.3135 35.8999 54.3759 35.9467 53.3434 36.0358C48.4799 36.4555 45.4957 36.2685 41.043 35.9896C40.4969 35.9554 39.9286 35.9198 39.3321 35.8838C37.9462 35.8001 36.7148 35.7799 35.5572 35.761C32.5381 35.7117 30.0216 35.6706 26.5787 34.531C24.5179 33.8489 22.0665 32.5006 20.1418 31.3309C18.8803 29.0182 18.3896 26.7857 18.6557 25.0185C19.2478 21.0851 21.1379 19.1293 23.8002 16.3745C23.8863 16.2854 23.9732 16.1954 24.0609 16.1046C28.4734 11.533 38.5385 9.33882 38.5385 9.33882C38.5385 9.33882 44.4287 8.45163 48.1989 8.65874C53.4845 8.94909 56.531 9.63208 61.3972 11.7634C61.5879 11.8469 61.7745 11.9282 61.9576 12.008C63.6844 12.7604 65.1005 13.3773 66.67 14.4292Z" fill="#F8C5AF"/>
<path fill-rule="evenodd" clip-rule="evenodd" d="M28.6534 35.1146C28.2774 35.0272 27.8922 34.9272 27.4955 34.8126C27.1821 33.7931 26.8874 32.6878 26.7422 31.749C26.1448 27.8891 26.8959 24.5929 28.7322 21.1371C30.2141 18.3484 30.9338 17.6811 33.3231 15.5995C36.4723 12.856 41.7644 11.0521 41.7644 11.0521C41.7644 11.0521 38.597 13.4069 36.464 15.4538C34.4434 17.3931 32.0224 21.3742 32.0224 21.3742C32.0224 21.3742 28.9345 25.4135 28.7236 32.0467C28.6944 32.9656 28.671 34.0899 28.6534 35.1146Z" fill="#F4B396"/>
<path fill-rule="evenodd" clip-rule="evenodd" d="M66.574 14.4002C66.3683 14.081 63.8585 12.2041 62.6293 11.3055L61.0559 10.2381C58.3724 9.70649 55.6529 9.30159 52.5716 9.03328L59.4482 13.6444L66.574 14.4002Z" fill="#F8C5AF"/>
<path d="M49.4645 9.4569L48.7223 9.37816C48.7223 9.37816 49.0853 8.93252 49.0987 8.67466C49.1107 8.44223 48.9954 8.31712 48.8574 8.12868C48.643 7.83581 48.2212 7.76382 47.85 7.72446C47.5259 7.69008 46.956 7.8735 46.6306 7.89248C45.692 7.94724 45.163 7.96837 44.2235 7.93453C42.9998 7.89046 42.2914 7.90727 41.1059 7.60385C40.3802 7.41812 40.0335 7.10865 39.2979 6.96603C38.8715 6.88334 38.6244 6.8706 38.1928 6.84835L38.1845 6.84793C37.6861 6.82223 37.327 7.12756 36.9067 6.86108C36.6637 6.70696 36.4428 6.29147 36.4428 6.29147L37.018 5.83209C37.018 5.83209 37.5349 5.1996 38.0042 5.04458C38.2055 4.97808 38.3316 4.99392 38.5397 4.9527C39.8182 4.69946 40.3722 3.94188 41.6678 3.79765C42.8267 3.66864 43.4967 3.87069 44.6369 4.11258C45.6544 4.32842 46.3669 4.25876 47.1793 4.90264C47.6621 5.28531 47.7852 5.64656 48.1734 6.12322C48.7428 6.82234 49.4462 7.03422 49.6315 7.91341C49.7566 8.50684 49.4645 9.4569 49.4645 9.4569Z" fill="#9DBE98"/>
<path fill-rule="evenodd" clip-rule="evenodd" d="M36.5556 6.47658L38.823 5.80571L41.7152 5.44341L44.8328 5.77409L47.2425 6.4014L48.7218 7.30173L49.4349 8.34382L49.0945 9.41776L48.7228 9.37833C48.7228 9.37833 49.0859 8.93269 49.0992 8.67483C49.11 8.46709 49.019 8.34507 48.901 8.18695C48.887 8.16816 48.8726 8.14886 48.858 8.12884C48.6436 7.83597 48.2217 7.76399 47.8506 7.72462C47.6582 7.70421 47.379 7.76058 47.1159 7.81373C46.9359 7.85009 46.7633 7.88493 46.6312 7.89265C45.6926 7.94741 45.1636 7.96854 44.2241 7.9347C44.0676 7.92906 43.9196 7.92442 43.778 7.91998C42.8115 7.88969 42.1404 7.86865 41.1065 7.60402C40.771 7.51816 40.5165 7.40585 40.2672 7.29581C39.9771 7.16781 39.694 7.04288 39.2985 6.96619C38.8721 6.88351 38.6249 6.87077 38.1934 6.84852L38.1933 6.84852L38.1851 6.84809C37.9945 6.83827 37.8243 6.87684 37.6633 6.91334C37.4031 6.97229 37.1668 7.02584 36.9073 6.86125C36.7716 6.77522 36.6429 6.60776 36.5556 6.47658Z" fill="#90AE8B"/>
<path d="M50.8195 8.04486C50.5539 8.60311 50.3556 9.55685 50.3556 9.55685L51.0979 9.63558C51.0979 9.63558 51.379 9.18243 51.6228 8.94783C52.0117 8.57364 52.3263 8.47139 52.8237 8.25744C53.6947 7.88279 54.2718 7.94456 55.2043 7.76652C56.5726 7.50525 57.3712 7.51192 58.7221 7.1732C59.6461 6.94153 60.1007 6.50789 61.0523 6.45392C61.6926 6.4176 62.0741 6.81953 62.6853 6.62713C63.2354 6.45398 63.8358 5.70837 63.8358 5.70837L63.8915 5.19387C63.8915 5.19387 63.2524 5.57606 62.7966 5.59814C62.5637 5.60943 62.4334 5.57007 62.2028 5.53516C60.8722 5.33363 60.3552 4.47855 59.0481 4.15974C58.029 3.91118 57.4146 3.72749 56.3759 3.87631C54.9434 4.08154 54.2492 4.72748 53.1099 5.61147C52.0773 6.4127 51.3787 6.86974 50.8195 8.04486Z" fill="#9DBE98"/>
<path fill-rule="evenodd" clip-rule="evenodd" d="M63.6921 5.87043L62.5173 6.08782L60.9823 5.70199L59.5959 5.3319L56.5048 5.45009L53.9281 6.36625L51.6827 7.68928L50.6807 9.59013L50.9006 9.61345L51.1377 9.5699C51.2245 9.43643 51.434 9.12686 51.6215 8.94648C51.9614 8.61941 52.2446 8.5001 52.6427 8.33236C52.7 8.3082 52.7597 8.28303 52.8224 8.25609C53.4066 8.00477 53.8587 7.94984 54.3745 7.88716C54.6276 7.8564 54.896 7.82378 55.2029 7.76518C55.7696 7.65698 56.2386 7.59473 56.6895 7.53488C57.3274 7.4502 57.9293 7.37031 58.7208 7.17186C59.0948 7.0781 59.3918 6.95125 59.6761 6.82988C60.0942 6.65137 60.4845 6.4847 61.051 6.45257C61.331 6.43669 61.5615 6.50462 61.7834 6.57C62.0689 6.65413 62.3401 6.73404 62.684 6.62578C63.0704 6.50417 63.4815 6.10016 63.6921 5.87043Z" fill="#90AE8B"/>
<path d="M49.4444 6.77259C49.5824 7.83336 49.1498 9.49573 49.1498 9.49573C49.1498 9.49573 49.5405 9.80921 49.8425 9.85914C50.1971 9.91779 50.742 9.66462 50.742 9.66462C50.742 9.66462 50.8865 7.97732 50.7471 6.91077C50.6548 6.20463 50.545 5.81597 50.3542 5.12948C50.1718 4.47371 49.801 3.47616 49.801 3.47616C49.801 3.47616 49.2803 3.49066 49.0463 3.68604C48.6551 4.01258 48.9067 4.97595 48.9067 4.97595C48.9067 4.97595 49.3499 6.04681 49.4444 6.77259Z" fill="#D29A81"/>
<ellipse cx="68.5084" cy="66.8458" rx="0.95082" ry="0.941492" fill="white"/>
<ellipse cx="22.8688" cy="67.7872" rx="0.95082" ry="0.941492" fill="white"/>
</svg>
