<svg width="117" height="177" viewBox="9 0 60 177" fill="none" xmlns="http://www.w3.org/2000/svg">
<path d="M11.079 163.434C10.1686 159.213 17.3649 155 20.5729 155L38 163.434C36.1359 165.931 31.8355 170.667 29.5465 169.637C27.2576 168.607 27.8992 167.023 28.5061 166.36C26.2952 168.037 21.3012 171.041 19.0122 169.637C16.7233 168.232 18.0585 164.916 19.0122 163.434C13.3939 166.243 11.3996 164.92 11.079 163.434Z" fill="#FEA34A"/>
<path d="M62.0194 173.267C59.5699 170.55 62.1044 166.232 63.6779 164.412C69.1636 161.905 80.9007 157.425 83.9625 159.56C87.0243 161.695 87.1945 166.676 86.8968 168.9C85.8336 170.922 82.9929 174.965 80.1352 174.965C77.2775 174.965 77.3285 171.731 77.7113 170.113C76.8182 172.782 74.3943 175.329 71.9703 174.965C70.0312 174.674 69.7165 171.609 69.8015 170.113C68.2281 172.297 64.4688 175.984 62.0194 173.267Z" fill="#FEA34A"/>
<path d="M2.75853 134.59C-4.38282 119.676 11.9439 104.649 21 99L18.93 130.522C10.3397 135.584 4.56974 135.343 2.75853 134.59Z" fill="#463E3E" stroke="black"/>
<mask id="mask0_5374_2622" style="mask-type:alpha" maskUnits="userSpaceOnUse" x="7" y="89" width="110" height="85">
<path d="M7.89226 130.447C6.52777 122.707 15.0208 104.336 19.4379 96.1183L90.2863 90.4189L94.2223 96.1183C98.3157 104.495 102.838 115.249 104.587 119.579C105.007 124.88 107.998 130.536 109.442 132.7C116.264 137.048 116.395 140.432 115.608 141.581C113.684 145.248 108.392 153.51 102.619 157.221C96.8463 160.932 84.7321 166.543 79.3966 168.885C72.443 170.431 56.2266 173.392 46.99 172.861C37.7535 172.331 29.4966 169.018 26.5228 167.427C24.9046 166.499 20.1989 162.921 14.3211 156.028C6.97386 147.413 9.59786 140.123 7.89226 130.447Z" fill="#D9D9D9" stroke="black"/>
</mask>
<g mask="url(#mask0_5374_2622)">
<path d="M9.14094 126.951C9.78085 119.8 16.1918 103.12 20.5608 95.6204L90.6369 90.4189L94.53 95.6204C98.5789 103.265 103.052 113.08 104.782 117.031C105.197 121.87 108.156 127.031 109.583 129.007C116.331 132.975 115.034 137.144 114.255 138.193C112.352 141.539 106.728 149.08 101.019 152.467C95.3087 155.854 85.1433 159.893 79.8659 162.031C72.3392 165.078 57.4156 165.659 47.8126 165.659C38.662 165.659 30.5098 162.151 27.5684 160.7C23.9347 158.907 19.1822 154.281 15.4997 150.297C8.23255 142.434 8.36221 135.653 9.14094 126.951Z" fill="#504949"/>
<path d="M22.0488 130.036C21.4019 117.584 28.7209 103.156 32.4612 97.499L62.7189 98.8409L62.7734 98.9641C64.7476 103.426 68.8236 112.638 71.5706 123.914C74.3431 135.296 71.1494 144.298 68.8463 148.226C67.136 151.143 64.8434 157.241 53.6601 158.007C42.4768 158.773 33.003 154.543 29.664 152.333C23.5721 148.3 22.6956 142.488 22.0488 130.036Z" fill="#FCEDC6"/>
</g>
<path d="M101.926 136.988C87.0814 137.731 79.0407 117.306 76.8759 107C75.6036 109.335 75.9923 114.254 76.3458 116.421C76.7434 119.34 78.6095 128.241 84.1231 135.459C89.6367 142.678 99.1865 142.251 103.118 141.765C104.4 139.774 107.227 135.077 108.287 132.211C109.348 129.345 108.994 127.125 108.685 126.373L101.926 136.988Z" fill="#443B3B"/>
<path d="M102.711 139.081C79.4451 137.553 75.5957 116.718 76.5792 106.491C81.8563 95.5806 91.1702 97.5917 95.1675 99.9611C116.839 116.547 109.226 132.952 102.711 139.081Z" fill="#504949"/>
<path d="M18 99.541L19.95 96C21.51 97.0745 27.9667 98.5642 31 99.1747L28.27 104C26.086 104 20.73 100.721 18 99.541Z" fill="#3C3333"/>
<path d="M30.8276 99L28 104.232C40.2905 108.565 58.7677 106.876 66 105.409C65.7844 104.326 64.3838 101.257 63.8448 99.8463L30.8276 99Z" fill="#EBDBB0"/>
<path d="M65.2368 105L63 99.802L91.0263 91L93 93.7358C88.4737 99.5404 72.7368 104.088 65.2368 105Z" fill="#3C3333"/>
<mask id="mask1_5374_2622" style="mask-type:alpha" maskUnits="userSpaceOnUse" x="3" y="24" width="107" height="78">
<path d="M45.2275 24.5269C6.32934 27.9517 1.78354 60.4608 4.37292 76.2873C1.15058 81.3725 6.19508 88.9571 9.12011 92.1137C12.0452 95.2704 18.5377 98.9663 35.1577 100.805C58.606 103.4 86.2079 97.725 94.7134 90.8165C114.997 74.3414 109.387 51.2071 104.352 42.6885C100.851 35.2076 84.1257 21.1022 45.2275 24.5269Z" fill="#D9D9D9"/>
</mask>
<g mask="url(#mask1_5374_2622)">
<path d="M45.2275 24.5265C6.32934 27.9512 1.78354 60.4603 4.37292 76.2868C1.15058 81.372 6.19508 88.9566 9.12011 92.1132C12.0452 95.2699 18.5377 98.9658 35.1577 100.805C58.606 103.399 86.2079 97.7246 94.7134 90.816C114.997 74.3409 104.783 52.8849 99.7483 44.3663C96.2478 36.8855 84.1257 21.1017 45.2275 24.5265Z" fill="#504949"/>
<path d="M5.47604 74.6C5.43048 74.6574 5.38611 74.7144 5.34292 74.7708C4.62398 75.7098 3.82644 76.6163 2.96442 77.4259C-7.58198 87.3312 16.3398 103.773 32.2237 112.158C33.9097 113.048 35.8854 113.157 37.6813 112.517L76.0124 98.8594C82.342 95.9973 86.1685 90.9721 88.8154 86.4058C90.9257 82.7654 92.9872 77.9737 92.9872 74.9818C92.9872 71.99 94.2819 67.9767 89.6785 59.4148C85.6704 51.96 79.8964 48.7775 76.0124 46.9613C71.2652 44.7414 67.6688 43.8511 58.7499 45.6721C55.8916 46.2557 53.1006 47.2307 50.6998 48.3824C47.0172 50.149 42.1977 49.8429 38.4531 48.2117C37.4593 47.7788 36.291 47.3659 34.8701 46.9613C29.4037 45.4046 20.1969 47.3585 15.162 51.3719C9.93857 55.5356 8.8162 61.2442 8.92797 66.2469C8.99626 69.3037 7.37632 72.2047 5.47604 74.6Z" fill="#FCEDC6"/>
<path d="M38.9031 74.3735C35.0557 76.5629 34.8597 79.1369 35.7914 80.6171C35.6533 82.362 38.5409 83.1807 39.3037 83.3595C40.7912 83.708 44.0869 83.8865 47.5809 83.3259C51.0749 82.7653 52.6765 81.279 53.0406 80.606C53.5537 78.5401 53.9417 76.2463 52.5008 74.3736C51.3719 72.9064 49.0748 72.9064 46.1457 72.9063L46.1442 72.9063C43.4945 72.9063 41.4814 72.9063 38.9031 74.3735Z" fill="#FEA34A"/>
<path d="M50.5399 78.6501C47.1695 80.1317 39.6369 82.6101 36.47 80.6703" stroke="#B0661E" stroke-width="1.6" stroke-linecap="round"/>
<ellipse cx="5.17171" cy="4.34993" rx="5.17171" ry="4.34993" transform="matrix(0.933053 -0.35974 0.385726 0.922613 15.5938 68.9736)" fill="#562528"/>
<ellipse cx="5.23435" cy="4.69684" rx="5.23435" ry="4.69684" transform="matrix(-0.915608 -0.402071 -0.433858 0.900981 77.0142 67.9053)" fill="#562528"/>
</g>
<ellipse cx="7.48611" cy="36.7706" rx="0.282007" ry="0.421018" fill="white"/>
<ellipse cx="20.8815" cy="36.6303" rx="0.42301" ry="0.280679" fill="white"/>
<path d="M24.7179 14.0914C23.5685 18.4255 24.5153 35.4584 24.5153 35.4584L77.1986 35.9579C77.1986 35.9579 77.7626 21.4324 76.6191 16.1505C75.4756 10.8687 75.3173 9.58503 71.0095 5.34162C66.7017 1.09821 57.0747 0.365856 50.3401 0.302012C43.6055 0.238167 37.2042 0.996555 31.5396 4.96739C25.8751 8.93822 25.2588 12.0518 24.7179 14.0914Z" fill="#F3C66D"/>
<path fill-rule="evenodd" clip-rule="evenodd" d="M35.632 31.9313C35.632 31.9313 35.6633 24.2279 35.7259 22.0312C35.7404 21.522 35.7511 21.0289 35.7615 20.5474L35.7615 20.5473C35.8213 17.7926 35.8729 15.4175 36.5829 12.5658C37.1913 10.1227 37.9589 8.50542 38.9206 6.47916C39.1753 5.94253 39.4436 5.37723 39.7261 4.76029C40.0152 4.12926 40.3063 3.30831 40.596 2.4915L40.596 2.49149L40.596 2.49147C40.7789 1.97591 40.9612 1.46199 41.1419 0.998523C41.504 0.928216 41.8678 0.864251 42.2332 0.806184C41.8246 2.23182 41.2587 4.2024 40.8256 5.69671C40.5198 6.75178 40.2232 7.63391 39.9424 8.46936L39.9424 8.46946L39.9423 8.4695L39.9423 8.46956C39.4401 9.96363 38.988 11.3084 38.6228 13.2262C38.1043 15.9492 38.0587 17.7496 37.9985 20.1227C37.9833 20.7214 37.9672 21.3566 37.9423 22.0522C37.8639 24.2485 37.8485 31.9523 37.8485 31.9523L35.632 31.9313ZM46.2915 0.384596C46.3885 1.62897 46.5157 3.45579 46.546 4.82496C46.5712 5.96142 46.5528 6.7741 46.5322 7.68303L46.5322 7.68313L46.5322 7.68323L46.5322 7.68332L46.5322 7.68341L46.5322 7.68349C46.5211 8.17583 46.5093 8.69643 46.5034 9.31204L46.4244 17.6452C46.2644 19.5431 45.9381 23.98 45.9381 23.98C45.9381 23.98 44.726 31.9225 44.4857 33.2974L46.6994 33.6033C46.6994 33.6033 47.8542 25.9781 47.984 23.9994C48.0892 22.3965 48.0734 21.2477 48.0556 19.9629L48.0556 19.9629L48.0556 19.9629L48.0557 19.9628L48.0557 19.9628L48.0557 19.9628C48.0461 19.2666 48.0359 18.5305 48.0442 17.6605C48.055 16.517 48.0938 15.5495 48.1305 14.6345L48.1305 14.6344L48.1305 14.6344L48.1305 14.6344L48.1305 14.6344L48.1305 14.6343C48.1982 12.9455 48.2588 11.4355 48.1232 9.32739C48.0101 7.56926 47.8938 6.58508 47.6542 4.83546C47.4642 3.44802 47.1192 1.60014 46.876 0.355391C46.6808 0.364026 46.486 0.373741 46.2915 0.384596ZM51.6443 0.323005C52.215 1.56281 53.0504 3.45142 53.5363 4.89124C54.2648 7.04985 54.5288 8.32368 54.9754 10.4784L54.9754 10.4784L55.0161 10.6749C55.4504 12.7695 55.6208 14.0678 55.8723 15.9845L55.8725 15.9858L55.8734 15.9932C55.9075 16.2529 55.9431 16.5239 55.981 16.8098C56.0487 17.3205 56.1135 17.7868 56.1745 18.2264C56.4224 20.0114 56.6092 21.3562 56.6854 23.4409C56.7485 25.1648 56.8466 33.4146 56.8466 33.4146L58.8134 32.7922C58.8204 32.0551 58.7751 30.0907 58.7298 28.1263L58.7298 28.1258L58.7298 28.1258L58.7298 28.1257L58.7298 28.1256C58.6845 26.161 58.6391 24.1965 58.6461 23.4595C58.6461 23.4595 58.2006 19.4081 57.7712 16.8268C57.3476 14.28 57.0529 12.8575 56.4687 10.3325C56.3318 9.74096 56.2244 9.2185 56.1235 8.7281C55.8614 7.45415 55.6439 6.39649 55.0708 4.90579C54.5094 3.44542 53.4494 1.58407 52.7072 0.353133C52.3478 0.340796 51.9932 0.330868 51.6443 0.323005ZM58.5511 0.787271C59.4044 1.86314 60.9328 3.85805 61.8013 5.39698C62.9396 7.4138 63.375 8.62544 64.1376 10.7614C65.2102 13.7653 65.6988 15.5013 66.1093 18.6154C66.3723 20.6099 67.1907 30.4498 67.1907 30.4498L69.4944 30.2579C69.4944 30.2579 68.4666 20.0642 68.0774 17.8505L68.036 17.6145C67.4795 14.4458 67.1474 12.5552 65.7695 9.49471C64.8143 7.37322 64.1814 6.19274 62.7499 4.2663C61.9441 3.1819 60.6694 1.83572 59.8025 0.955106C59.3866 0.893876 58.969 0.838079 58.5511 0.787271ZM66.7164 2.69471C67.387 3.62241 68.2942 4.92761 68.8722 5.96263C70.4458 8.78015 70.9806 10.5067 71.7843 13.5406C72.1595 14.9569 72.316 15.9452 72.5031 17.1261C72.578 17.5993 72.6579 18.1034 72.7587 18.6784C72.9116 19.5507 73.0645 20.3128 73.2081 21.0283L73.2081 21.0284C73.5676 22.8201 73.8685 24.3194 73.9631 26.5251C74.0263 27.9986 73.9273 30.3 73.9273 30.3L75.8007 30.5314L75.8386 26.5429C75.8386 26.5429 74.8721 20.5742 74.3858 17.9103L74.3798 17.8773L74.3798 17.8773C73.8989 15.243 73.8237 14.8313 73.2396 12.9133C73.1823 12.7252 73.1268 12.542 73.0726 12.3631L73.0712 12.3586C72.2653 9.69939 71.7503 8.00001 70.0704 5.47538C69.6803 4.88902 69.1494 4.21773 68.6281 3.597C68.031 3.26447 67.3908 2.96475 66.7164 2.69471ZM36.5344 2.30722C35.862 3.37578 35.1195 4.61285 34.6025 5.6377C33.1687 8.47985 32.4577 10.1373 31.7177 13.1607C31.2103 15.2341 31.1567 16.787 31.0986 18.4694C31.0619 19.5345 31.0233 20.6514 30.8667 21.9852C30.6382 23.932 30.2106 28.2472 30.2106 28.2472L28.8466 28.2342C28.8466 28.2342 29.2036 23.9169 29.4175 21.9714C29.5532 20.7378 29.5945 19.6887 29.6336 18.6952C29.7037 16.9144 29.7667 15.3125 30.3537 13.1478C31.1791 10.1043 31.8831 8.40597 33.5795 5.628C34.1546 4.68623 34.9763 3.5977 35.765 2.61994C36.0204 2.51099 36.2768 2.4068 36.5344 2.30722Z" fill="#E2AE4A"/>
<path fill-rule="evenodd" clip-rule="evenodd" d="M24.1656 25.2346C27.5733 25.8752 32.9284 26.7826 36.949 27.0005C38.2493 27.071 39.4697 27.1579 40.6343 27.2409C46.2692 27.6423 50.5995 27.9507 56.3726 25.8527C61.1354 24.1218 64.1827 22.8416 67.0328 19.2154C69.2419 16.4048 69.566 15.4615 69.5813 12.0939C69.5906 10.0503 68.8575 8.78069 67.9272 7.16934C67.6819 6.74439 67.4228 6.29566 67.16 5.8027C66.3007 4.19081 64.6032 2.7307 62.5999 1.46249C58.5403 0.570213 54.0103 0.33681 50.3396 0.302012C43.605 0.238167 37.2037 0.996555 31.5391 4.96739C26.1055 8.77634 25.3169 11.7965 24.7843 13.8366C24.7616 13.9233 24.7395 14.0082 24.7174 14.0914C24.1889 16.0843 24.1036 20.7623 24.1656 25.2346Z" fill="#F7D674"/>
<path fill-rule="evenodd" clip-rule="evenodd" d="M47.6248 27.518C46.8916 27.5384 46.1566 27.5348 45.4113 27.5145C45.6529 25.9662 45.9379 23.9809 45.9379 23.9809C45.9379 23.9809 46.2642 19.544 46.4243 17.646L46.5033 9.31288C46.5091 8.69724 46.5209 8.17661 46.5321 7.68424L46.5321 7.68416L46.5321 7.68407L46.5321 7.68397L46.5321 7.68387C46.5526 6.77495 46.571 5.96226 46.5458 4.8258C46.5155 3.45601 46.3882 1.62817 46.2912 0.383757C46.4856 0.372904 46.6804 0.363191 46.8756 0.354557C47.1188 1.59932 47.464 3.44824 47.6541 4.83631C47.8937 6.58592 48.0099 7.5701 48.123 9.32824C48.2586 11.4364 48.1981 12.9464 48.1303 14.6352L48.1303 14.6352L48.1303 14.6352L48.1303 14.6353L48.1303 14.6353C48.0936 15.5503 48.0548 16.5178 48.044 17.6614C48.0357 18.5313 48.0459 19.2674 48.0555 19.9636L48.0555 19.9637L48.0555 19.9637L48.0555 19.9637L48.0555 19.9637C48.0732 21.2486 48.089 22.3974 47.9839 24.0003C47.9136 25.0725 47.7552 26.4661 47.6248 27.518ZM58.6313 25.0073C58.019 25.2473 57.376 25.487 56.6979 25.7348C56.7088 24.9713 56.7104 24.1295 56.6853 23.4417C56.609 21.3571 56.4223 20.0124 56.1744 18.2274L56.1744 18.2274L56.1744 18.2273L56.1744 18.2272C56.1133 17.7876 56.0486 17.3213 55.9808 16.8106C55.9425 16.5219 55.9067 16.2484 55.8723 15.9864L55.8721 15.9854C55.6206 14.0687 55.4503 12.7704 55.0159 10.6757L54.9752 10.4792L54.9752 10.4791L54.9752 10.4791C54.5287 8.32447 54.2647 7.05065 53.5362 4.89208C53.05 3.4516 52.2141 1.5619 51.6434 0.322125C51.9921 0.329983 52.3467 0.339905 52.706 0.352233C53.4482 1.58316 54.509 3.44557 55.0706 4.90663C55.6437 6.39733 55.8613 7.45499 56.1233 8.72894C56.2242 9.21935 56.3317 9.7418 56.4685 10.3334C57.0528 12.8583 57.3474 14.2808 57.7711 16.8276C58.2004 19.409 58.646 23.4603 58.646 23.4603L58.6313 25.0073ZM68.0727 17.825C67.7837 18.2431 67.4405 18.6977 67.0333 19.2158C66.7767 19.5424 66.5184 19.85 66.2574 20.1405C66.2189 19.6065 66.1704 19.0804 66.1092 18.6162C65.6986 15.5021 65.21 13.7661 64.1375 10.7622C63.3749 8.62628 62.9395 7.41464 61.8012 5.39782C60.9321 3.85798 59.4024 1.86162 58.5494 0.786207C58.9672 0.836982 59.3846 0.892741 59.8003 0.953928C60.6673 1.83451 61.9433 3.18191 62.7497 4.26714C64.1813 6.19359 64.8142 7.37406 65.7694 9.49555C67.1473 12.556 67.4793 14.4466 68.0358 17.6154L68.0727 17.825ZM42.2336 0.805278C41.8249 2.23105 41.2587 4.20263 40.8254 5.69755C40.5196 6.75271 40.223 7.6349 39.9422 8.47041L39.9422 8.47042C39.4399 9.96448 38.9878 11.3093 38.6227 13.227C38.1042 15.95 38.0585 17.7505 37.9983 20.1236C37.9831 20.7223 37.967 21.3575 37.9422 22.0531C37.8843 23.6729 37.8828 25.9639 37.886 27.0551C37.5783 27.0362 37.2663 27.0181 36.9495 27.0009C36.5366 26.9785 36.1096 26.9489 35.672 26.913C35.673 25.7807 35.6812 23.5944 35.7257 22.0321C35.7402 21.5228 35.7509 21.0297 35.7614 20.5482L35.7614 20.5482C35.8212 17.7934 35.8727 15.4183 36.5828 12.5666C37.1911 10.1235 37.9587 8.50626 38.9204 6.47999L38.9205 6.47986L38.9205 6.47981L38.9206 6.47965L38.9207 6.47943L38.9207 6.47938C39.1753 5.94294 39.4435 5.37783 39.726 4.76114C40.015 4.1301 40.3062 3.30916 40.5959 2.49234L40.5959 2.49233L40.5959 2.49231C40.779 1.97608 40.9615 1.4615 41.1425 0.997566C41.5045 0.927278 41.8682 0.86333 42.2336 0.805278ZM35.7669 2.61832C36.022 2.50947 36.2782 2.4054 36.5356 2.30591C35.8628 3.37496 35.1197 4.61301 34.6023 5.63854C33.1685 8.4807 32.4575 10.1381 31.7176 13.1616C31.2101 15.2349 31.1565 16.7878 31.0985 18.4703C31.0617 19.5353 31.0232 20.6523 30.8666 21.986C30.7057 23.3562 30.4523 25.2645 30.3163 26.2747C29.8596 26.2074 29.406 26.1379 28.959 26.0673C29.0773 25.0203 29.2759 23.2582 29.4174 21.9723C29.5531 20.7387 29.5943 19.6895 29.6334 18.6961C29.7035 16.9153 29.7665 15.3133 30.3536 13.1486C31.179 10.1051 31.883 8.40681 33.5794 5.62884C34.1549 4.68628 34.9776 3.59671 35.7669 2.61832Z" fill="#F3C66D"/>
<path d="M19.2034 29.1403C19.8621 27.9824 20.6364 27.5008 22.1207 27.1735C24.5983 26.6272 24.4964 26.9776 26.7917 27.2178C30.5723 27.6135 32.4518 28.75 36.0833 29.7192C38.7541 30.4319 40.7362 30.6136 43.4829 31.08C48.322 31.9017 49.8212 31.9324 54.7322 31.5428C58.9095 31.2114 61.5588 30.5703 65.7421 30.2938C69.3112 30.058 72.9475 29.2991 76.4009 30.1014C78.3861 30.5626 78.5439 30.7671 80.1118 31.8862C81.7141 33.0299 81.9098 34.4544 82.2042 36.5977L82.2208 36.7183C82.542 39.0534 81.6319 40.9095 80.0081 42.8231C78.3141 44.8196 77.0512 44.6162 74.3781 45.6189C70.4711 47.0844 66.2733 46.761 62.0023 47.0686C55.8795 47.5096 54.2417 47.2813 48.1068 46.9369C41.8479 46.5855 39.1907 46.5546 33.118 45.2277C28.3243 44.1802 29.4584 44.5519 23.8503 42.5756C22.2322 42.0053 19.3828 40.4115 18.7685 39.0371C17.9488 37.2031 18.115 36.0292 18.1335 34.0738C18.1503 32.3069 18.2966 30.7341 19.2034 29.1403Z" fill="#F3C66D"/>
<path fill-rule="evenodd" clip-rule="evenodd" d="M27.0914 43.7119C26.6667 43.567 26.1708 43.3938 25.5661 43.1811L24.7295 39.8772L24.768 35.8175L25.7536 30.7695L28.0018 27.443L28.3927 27.4467C28.7191 27.5062 29.0321 27.5716 29.3355 27.6421L27.2002 31.0681L26.0467 35.8296L26.0075 39.9605L27.0914 43.7119ZM36.1619 45.8387C35.6207 45.7418 35.0551 45.6334 34.4565 45.5116L33.5019 40.8151L33.5607 34.6187L34.659 29.3082C35.1035 29.4462 35.5717 29.5834 36.0734 29.7175L35.0126 34.3475L35.1216 40.8305L36.1619 45.8387ZM45.3386 46.7867C44.7659 46.7553 44.2224 46.7245 43.699 46.6924L43.0389 42.0452L43.0929 36.3474L43.8802 31.148C44.4668 31.2459 45.0034 31.3315 45.5035 31.4055L44.8013 36.0074L44.7472 41.7053L45.3386 46.7867ZM56.4263 47.3131C55.9963 47.314 55.5782 47.3097 55.161 47.3007L55.9966 42.1681L56.0324 38.3932L55.1829 31.5067C55.529 31.4767 55.8649 31.4446 56.1924 31.4108L57.5817 36.8409L57.5385 41.3992L56.4263 47.3131ZM67.6686 46.8194C67.0251 46.8545 66.3776 46.8788 65.7267 46.9013L66.9084 42.2716L67.641 36.9363L65.6627 30.3004C65.6894 30.2986 65.7161 30.2968 65.743 30.295C66.2633 30.2607 66.785 30.2152 67.3074 30.165C67.8935 31.4038 69.2109 34.4021 69.3493 36.5963C69.4392 38.0215 69.2564 38.9816 69.0321 40.1592C68.9536 40.5717 68.87 41.0108 68.7912 41.5059C68.5115 43.2644 67.9262 45.7544 67.6686 46.8194ZM76.6519 44.8928C76.5414 44.9257 76.4283 44.9589 76.3123 44.9929C75.8368 45.1322 75.3121 45.286 74.7146 45.4977C74.8586 44.6968 75.0469 43.5309 75.0888 42.7053C75.1587 41.3288 75.1347 37.8621 75.1347 37.8621C75.1347 37.8621 74.7572 35.7216 74.6502 35.0083C74.5433 34.295 72.7361 30.0753 72.7361 30.0753L73.8322 29.7633C73.9799 29.7701 74.1274 29.7787 74.2747 29.7894C74.6245 30.3182 75.9542 32.3792 76.4513 33.8857C76.8717 35.1601 76.9498 35.9469 77.074 37.1976L77.0995 37.4533C77.2913 39.3665 77.2455 40.4557 77.0529 42.3677C76.9758 43.133 76.8068 44.097 76.6519 44.8928Z" fill="#E2AE4A"/>
<path fill-rule="evenodd" clip-rule="evenodd" d="M22.1205 27.1728C20.6362 27.5002 19.862 27.9817 19.2032 29.1396C18.2964 30.7334 18.1501 32.3063 18.1334 34.0732C18.1307 34.3491 18.1252 34.6096 18.1199 34.8584C18.0875 36.3731 18.0643 37.4613 18.7683 39.0364C19.3826 40.4109 22.232 42.0046 23.8501 42.5749C26.872 43.6398 27.9363 44.023 29.0252 44.3138C29.9572 44.5627 30.9072 44.744 33.1179 45.227C38.5737 46.4192 41.2727 46.5652 46.3036 46.8374C46.8723 46.8681 47.4709 46.9005 48.1067 46.9362C48.963 46.9843 49.7318 47.0301 50.4373 47.0721C54.2328 47.2983 56.1995 47.4155 60.1407 47.1895C62.4487 46.2043 64.74 44.8929 65.9604 43.2592C66.17 42.9786 66.38 42.7106 66.5837 42.4507C67.7539 40.9574 68.718 39.7271 68.2282 37.8672C67.9121 36.6672 67.2668 36.043 66.3707 35.1762C66.264 35.073 66.1537 34.9663 66.0401 34.8548C63.9926 32.847 59.1681 31.2994 59.1681 31.2994L58.3542 31.1534C57.2358 31.2999 56.0613 31.4367 54.7321 31.5421C49.821 31.9317 48.3218 31.901 43.4827 31.0793C42.7056 30.9474 41.9897 30.8382 41.3021 30.7334C39.5594 30.4676 37.9983 30.2296 36.0831 29.7185C34.793 29.3742 33.724 29.0088 32.7124 28.663C30.8763 28.0353 29.229 27.4722 26.7915 27.2171C26.5535 27.1922 26.3412 27.1661 26.1491 27.1399L22.4383 27.1047C22.3372 27.1257 22.2315 27.1484 22.1205 27.1728Z" fill="#F7D674"/>
<path fill-rule="evenodd" clip-rule="evenodd" d="M28.4024 27.4471L28.0014 27.4433C28.0014 27.4433 26.3882 29.3749 25.7532 30.7697C25.0424 32.3309 24.958 33.4189 24.8431 34.8997C24.8207 35.1886 24.7971 35.4925 24.7675 35.8177L24.7517 35.9909C24.6169 37.4661 24.5353 38.3588 24.729 39.8775C24.8704 40.986 25.3441 42.546 25.5434 43.1719C26.146 43.3838 26.6409 43.5567 27.0651 43.7016C26.8196 43.0382 26.1836 41.2398 26.0071 39.9608C25.7857 38.3575 25.8612 37.4352 26.0462 35.8299C26.2639 33.9408 26.4167 32.8483 27.1997 31.0684C27.7416 29.8365 28.9218 28.1787 29.3179 27.6366C29.023 27.5684 28.719 27.5049 28.4024 27.4471ZM34.6433 29.302C34.4165 30.1792 33.7632 32.7981 33.5602 34.619C33.2916 37.0278 33.2491 38.4039 33.5015 40.8154C33.663 42.3588 34.1791 44.5222 34.4261 45.504C35.0263 45.6263 35.5932 45.7352 36.1357 45.8326C35.8816 44.8253 35.3181 42.4883 35.1212 40.8308C34.8218 38.3104 34.7119 36.8664 35.0121 34.3478C35.1972 32.7953 35.7932 30.6072 36.0494 29.7097C35.5509 29.5761 35.0854 29.4394 34.6433 29.302ZM43.8719 31.1452C43.7296 31.8928 43.2402 34.5401 43.0925 36.3476C42.911 38.5672 42.8824 39.8236 43.0384 42.0455C43.1466 43.586 43.5192 45.7804 43.6813 46.6899C44.2063 46.7221 44.7515 46.753 45.3259 46.7845C45.1926 45.8886 44.8405 43.4167 44.7468 41.7056C44.625 39.4822 44.6081 38.2266 44.8008 36.0077C44.9404 34.3994 45.3771 32.0362 45.4972 31.4031C44.9965 31.329 44.4592 31.2433 43.8719 31.1452ZM55.1911 31.5044C55.334 32.3284 55.9428 35.9518 56.0319 38.3935C56.0857 39.8672 56.0952 40.6967 55.9961 42.1684C55.8862 43.8014 55.4672 46.0334 55.209 47.3002C55.6248 47.3088 56.0418 47.3128 56.4711 47.3115C56.7824 46.0088 57.3822 43.3274 57.538 41.3995L57.543 41.338C57.6835 39.6002 57.7647 38.5946 57.5812 36.8412C57.3865 34.9805 56.5384 32.3451 56.2215 31.4062C55.8874 31.4408 55.5445 31.4737 55.1911 31.5044ZM67.6091 36.5229C67.6235 36.6635 67.6341 36.8016 67.6405 36.9365C67.7159 38.5289 67.4839 39.5857 67.1935 40.9089L67.1935 40.9089L67.1935 40.909L67.1935 40.9092L67.1934 40.9094C67.1214 41.2373 67.0459 41.5816 66.9705 41.9544C67.9534 40.6722 68.6632 39.5177 68.2286 37.8676C68.0864 37.3276 67.8775 36.9042 67.6091 36.5229Z" fill="#F3C66D"/>
</svg>
