<svg width="100" height="162" viewBox="9 0 60 155" fill="none" xmlns="http://www.w3.org/2000/svg">
<g id="penguin 1">
<path id="Vector 64" d="M11.079 139.434C10.1686 135.213 17.3649 131 20.5729 131L38 139.434C36.1359 141.931 31.8355 146.667 29.5465 145.637C27.2576 144.607 27.8992 143.023 28.5061 142.36C26.2952 144.037 21.3012 147.041 19.0122 145.637C16.7233 144.232 18.0585 140.916 19.0122 139.434C13.3939 142.243 11.3996 140.92 11.079 139.434Z" fill="#FEA34A"/>
<path id="Vector 65" d="M62.0194 149.267C59.5699 146.55 62.1044 142.232 63.6779 140.412C69.1636 137.905 80.9007 133.425 83.9625 135.56C87.0243 137.695 87.1945 142.676 86.8968 144.9C85.8336 146.922 82.9929 150.965 80.1352 150.965C77.2775 150.965 77.3285 147.731 77.7113 146.113C76.8182 148.782 74.3943 151.329 71.9703 150.965C70.0312 150.674 69.7165 147.609 69.8015 146.113C68.2281 148.297 64.4688 151.984 62.0194 149.267Z" fill="#FEA34A"/>
<path id="Vector 62" d="M2.75853 110.59C-4.38282 95.6759 11.9439 80.6492 21 75L18.93 106.522C10.3397 111.584 4.56974 111.343 2.75853 110.59Z" fill="#463E3E" stroke="black"/>
<g id="Mask group">
<mask id="mask0_4656_2714" style="mask-type:alpha" maskUnits="userSpaceOnUse" x="7" y="65" width="110" height="85">
<path id="Vector 59" d="M7.89226 106.447C6.52777 98.7067 15.0208 80.3361 19.4379 72.1183L90.2863 66.4189L94.2223 72.1183C98.3157 80.4951 102.838 91.2488 104.587 95.5786C105.007 100.88 107.998 106.536 109.442 108.7C116.264 113.048 116.395 116.432 115.608 117.581C113.684 121.248 108.392 129.51 102.619 133.221C96.8463 136.932 84.7321 142.543 79.3966 144.885C72.443 146.431 56.2266 149.392 46.99 148.861C37.7535 148.331 29.4966 145.018 26.5228 143.427C24.9046 142.499 20.1989 138.921 14.3211 132.028C6.97386 123.413 9.59786 116.123 7.89226 106.447Z" fill="#D9D9D9" stroke="black"/>
</mask>
<g mask="url(#mask0_4656_2714)">
<path id="Vector 60" d="M9.14094 102.951C9.78085 95.7998 16.1918 79.1203 20.5608 71.6204L90.6369 66.4189L94.53 71.6204C98.5789 79.2654 103.052 89.0798 104.782 93.0313C105.197 97.87 108.156 103.031 109.583 105.007C116.331 108.975 115.034 113.144 114.255 114.193C112.352 117.539 106.728 125.08 101.019 128.467C95.3087 131.854 85.1433 135.893 79.8659 138.031C72.3392 141.078 57.4156 141.659 47.8126 141.659C38.662 141.659 30.5098 138.151 27.5684 136.7C23.9347 134.907 19.1822 130.281 15.4997 126.297C8.23255 118.434 8.36221 111.653 9.14094 102.951Z" fill="#504949"/>
<path id="Vector 61" d="M22.0488 106.036C21.4019 93.5844 28.7209 79.1565 32.4612 73.499L62.7189 74.8409L62.7734 74.9641C64.7476 79.4257 68.8236 88.6376 71.5706 99.9142C74.3431 111.296 71.1494 120.298 68.8463 124.226C67.136 127.143 64.8434 133.241 53.6601 134.007C42.4768 134.773 33.003 130.543 29.664 128.333C23.5721 124.3 22.6956 118.488 22.0488 106.036Z" fill="#FCEDC6"/>
</g>
</g>
<path id="Vector 66" d="M101.926 112.988C87.0814 113.731 79.0407 93.3056 76.8759 83C75.6036 85.3353 75.9923 90.2537 76.3458 92.421C76.7434 95.3402 78.6095 104.241 84.1231 111.459C89.6367 118.678 99.1865 118.251 103.118 117.765C104.4 115.774 107.227 111.077 108.287 108.211C109.348 105.345 108.994 103.125 108.685 102.373L101.926 112.988Z" fill="#443B3B"/>
<path id="Vector 63" d="M102.711 115.081C79.4451 113.553 75.5957 92.7176 76.5792 82.4908C81.8563 71.5806 91.1702 73.5917 95.1675 75.9611C116.839 92.5467 109.226 108.952 102.711 115.081Z" fill="#504949"/>
<path id="Vector 67" d="M18 75.541L19.95 72C21.51 73.0745 27.9667 74.5642 31 75.1747L28.27 80C26.086 80 20.73 76.7213 18 75.541Z" fill="#3C3333"/>
<path id="Vector 68" d="M30.8276 75L28 80.2322C40.2905 84.5652 58.7677 82.8764 66 81.4095C65.7844 80.3262 64.3838 77.2568 63.8448 75.8463L30.8276 75Z" fill="#EBDBB0"/>
<path id="Vector 69" d="M65.2368 81L63 75.802L91.0263 67L93 69.7358C88.4737 75.5404 72.7368 80.0881 65.2368 81Z" fill="#3C3333"/>
<g id="Mask group_2">
<mask id="mask1_4656_2714" style="mask-type:alpha" maskUnits="userSpaceOnUse" x="3" y="0" width="107" height="78">
<path id="Vector 54" d="M45.2275 0.52695C6.32934 3.95169 1.78354 36.4608 4.37292 52.2873C1.15058 57.3725 6.19508 64.9571 9.12011 68.1137C12.0452 71.2704 18.5377 74.9663 35.1577 76.8053C58.606 79.3998 86.2079 73.725 94.7134 66.8165C114.997 50.3414 109.387 27.2071 104.352 18.6885C100.851 11.2076 84.1257 -2.89779 45.2275 0.52695Z" fill="#D9D9D9"/>
</mask>
<g mask="url(#mask1_4656_2714)">
<path id="Vector 55" d="M45.2275 0.526468C6.32934 3.95121 1.78354 36.4603 4.37292 52.2868C1.15058 57.372 6.19508 64.9566 9.12011 68.1132C12.0452 71.2699 18.5377 74.9658 35.1577 76.8048C58.606 79.3993 86.2079 73.7246 94.7134 66.816C114.997 50.3409 104.783 28.8849 99.7483 20.3663C96.2478 12.8855 84.1257 -2.89827 45.2275 0.526468Z" fill="#504949"/>
<path id="Vector 56" d="M5.47604 50.6C5.43048 50.6574 5.38611 50.7144 5.34292 50.7708C4.62398 51.7098 3.82644 52.6163 2.96442 53.4259C-7.58198 63.3312 16.3398 79.7727 32.2237 88.1575C33.9097 89.0476 35.8854 89.1566 37.6813 88.5167L76.0124 74.8594C82.342 71.9973 86.1685 66.9721 88.8154 62.4058C90.9257 58.7654 92.9872 53.9737 92.9872 50.9818C92.9872 47.99 94.2819 43.9767 89.6785 35.4148C85.6704 27.96 79.8964 24.7775 76.0124 22.9613C71.2652 20.7414 67.6688 19.8511 58.7499 21.6721C55.8916 22.2557 53.1006 23.2307 50.6998 24.3824C47.0172 26.149 42.1977 25.8429 38.4531 24.2117C37.4593 23.7788 36.291 23.3659 34.8701 22.9613C29.4037 21.4046 20.1969 23.3585 15.162 27.3719C9.93857 31.5356 8.8162 37.2442 8.92797 42.2469C8.99626 45.3037 7.37632 48.2047 5.47604 50.6Z" fill="#FCEDC6"/>
<path id="Vector 57" d="M38.9031 50.3735C35.0557 52.5629 34.8597 55.1369 35.7914 56.6171C35.6533 58.362 38.5409 59.1807 39.3037 59.3595C40.7912 59.708 44.0869 59.8865 47.5809 59.3259C51.0749 58.7653 52.6765 57.279 53.0406 56.606C53.5537 54.5401 53.9417 52.2463 52.5008 50.3736C51.3719 48.9064 49.0748 48.9064 46.1457 48.9063L46.1442 48.9063C43.4945 48.9063 41.4814 48.9063 38.9031 50.3735Z" fill="#FEA34A"/>
<path id="Vector 58" d="M50.5399 54.6501C47.1695 56.1317 39.6369 58.6101 36.47 56.6703" stroke="#B0661E" stroke-width="1.6" stroke-linecap="round"/>
<ellipse id="Ellipse 1" cx="5.17171" cy="4.34993" rx="5.17171" ry="4.34993" transform="matrix(0.933053 -0.35974 0.385726 0.922613 15.5938 44.9736)" fill="#562528"/>
<ellipse id="Ellipse 2" cx="5.23435" cy="4.69684" rx="5.23435" ry="4.69684" transform="matrix(-0.915608 -0.402071 -0.433858 0.900981 77.0142 43.9053)" fill="#562528"/>
</g>
</g>
<ellipse id="Ellipse 121" cx="7.33041" cy="12.1698" rx="0.275239" ry="0.401205" fill="white"/>
<ellipse id="Ellipse 122" cx="20.4046" cy="12.036" rx="0.412858" ry="0.26747" fill="white"/>
</g>
</svg>
