<svg width="117" height="177" viewBox="9 0 60 177" fill="none" xmlns="http://www.w3.org/2000/svg">
<path d="M11.079 165.434C10.1686 161.213 17.3649 157 20.5729 157L38 165.434C36.1359 167.931 31.8355 172.667 29.5465 171.637C27.2576 170.607 27.8992 169.023 28.5061 168.36C26.2952 170.037 21.3012 173.041 19.0122 171.637C16.7233 170.232 18.0585 166.916 19.0122 165.434C13.3939 168.243 11.3996 166.92 11.079 165.434Z" fill="#DBA26D"/>
<path d="M62.0194 175.267C59.5699 172.55 62.1044 168.232 63.6779 166.412C69.1636 163.905 80.9007 159.425 83.9625 161.56C87.0243 163.695 87.1945 168.676 86.8968 170.9C85.8336 172.922 82.9929 176.965 80.1352 176.965C77.2775 176.965 77.3285 173.731 77.7113 172.113C76.8182 174.782 74.3943 177.329 71.9703 176.965C70.0312 176.674 69.7165 173.609 69.8015 172.113C68.2281 174.297 64.4688 177.984 62.0194 175.267Z" fill="#DBA26D"/>
<path d="M2.75853 136.59C-4.38282 121.676 11.9439 106.649 21 101L18.93 132.522C10.3397 137.584 4.56974 137.343 2.75853 136.59Z" fill="#753F3C" stroke="#753F3C"/>
<mask id="mask0_5374_2624" style="mask-type:alpha" maskUnits="userSpaceOnUse" x="7" y="91" width="110" height="85">
<path d="M7.89226 132.447C6.52777 124.707 15.0208 106.336 19.4379 98.1183L90.2863 92.4189L94.2223 98.1183C98.3157 106.495 102.838 117.249 104.587 121.579C105.007 126.88 107.998 132.536 109.442 134.7C116.264 139.048 116.395 142.432 115.608 143.581C113.684 147.248 108.392 155.51 102.619 159.221C96.8463 162.932 84.7321 168.543 79.3966 170.885C72.443 172.431 56.2266 175.392 46.99 174.861C37.7535 174.331 29.4966 171.018 26.5228 169.427C24.9046 168.499 20.1989 164.921 14.3211 158.028C6.97386 149.413 9.59786 142.123 7.89226 132.447Z" fill="#D9D9D9" stroke="black"/>
</mask>
<g mask="url(#mask0_5374_2624)">
<path d="M9.14094 128.951C9.78085 121.8 16.1918 105.12 20.5608 97.6204L90.6369 92.4189L94.53 97.6204C98.5789 105.265 103.052 115.08 104.782 119.031C105.197 123.87 108.156 129.031 109.583 131.007C116.331 134.975 115.034 139.144 114.255 140.193C112.352 143.539 106.728 151.08 101.019 154.467C95.3087 157.854 85.1433 161.893 79.8659 164.031C72.3392 167.078 57.4156 167.659 47.8126 167.659C38.662 167.659 30.5098 164.151 27.5684 162.7C23.9347 160.907 19.1822 156.281 15.4997 152.297C8.23255 144.434 8.36221 137.653 9.14094 128.951Z" fill="#753F3C"/>
<path d="M22.0488 132.036C21.4019 119.584 28.7209 105.156 32.4612 99.499L62.7189 100.841L62.7734 100.964C64.7476 105.426 68.8236 114.638 71.5706 125.914C74.3431 137.296 71.1494 146.298 68.8463 150.226C67.136 153.143 64.8434 159.241 53.6601 160.007C42.4768 160.773 33.003 156.543 29.664 154.333C23.5721 150.3 22.6956 144.488 22.0488 132.036Z" fill="#F4EFE7"/>
</g>
<path d="M101.926 138.988C87.0814 139.731 79.0407 119.306 76.8759 109C75.6036 111.335 75.9923 116.254 76.3458 118.421C76.7434 121.34 78.6095 130.241 84.1231 137.459C89.6367 144.678 99.1865 144.251 103.118 143.765C104.4 141.774 107.227 137.077 108.287 134.211C109.348 131.345 108.994 129.125 108.685 128.373L101.926 138.988Z" fill="#471411"/>
<path d="M102.711 141.081C79.4451 139.553 75.5957 118.718 76.5792 108.491C81.8563 97.5806 91.1702 99.5917 95.1675 101.961C116.839 118.547 109.226 134.952 102.711 141.081Z" fill="#753F3C"/>
<path d="M18 101.541L19.95 98C21.51 99.0745 27.9667 100.564 31 101.175L28.27 106C26.086 106 20.73 102.721 18 101.541Z" fill="#471411"/>
<path d="M30.8276 101L28 106.232C40.2905 110.565 58.7677 108.876 66 107.409C65.7844 106.326 64.3838 103.257 63.8448 101.846L30.8276 101Z" fill="#E1E0CF"/>
<path d="M65.2368 107L63 101.802L91.0263 93L93 95.7358C88.4737 101.54 72.7368 106.088 65.2368 107Z" fill="#471411"/>
<mask id="mask1_5374_2624" style="mask-type:alpha" maskUnits="userSpaceOnUse" x="3" y="26" width="107" height="78">
<path d="M45.2275 26.5269C6.32934 29.9517 1.78354 62.4608 4.37292 78.2873C1.15058 83.3725 6.19508 90.9571 9.12011 94.1137C12.0452 97.2704 18.5377 100.966 35.1577 102.805C58.606 105.4 86.2079 99.725 94.7134 92.8165C114.997 76.3414 109.387 53.2071 104.352 44.6885C100.851 37.2076 84.1257 23.1022 45.2275 26.5269Z" fill="#D9D9D9"/>
</mask>
<g mask="url(#mask1_5374_2624)">
<path d="M45.2275 26.5265C6.32934 29.9512 1.78354 62.4603 4.37292 78.2868C1.15058 83.372 6.19508 90.9566 9.12011 94.1132C12.0452 97.2699 18.5377 100.966 35.1577 102.805C58.606 105.399 86.2079 99.7246 94.7134 92.816C114.997 76.3409 104.783 54.8849 99.7483 46.3663C96.2478 38.8855 84.1257 23.1017 45.2275 26.5265Z" fill="#753F3C"/>
<path d="M5.47604 76.6C5.43048 76.6574 5.38611 76.7144 5.34292 76.7708C4.62398 77.7098 3.82644 78.6163 2.96442 79.4259C-7.58198 89.3312 16.3398 105.773 32.2237 114.158C33.9097 115.048 35.8854 115.157 37.6813 114.517L76.0124 100.859C82.342 97.9973 86.1685 92.9721 88.8154 88.4058C90.9257 84.7654 92.9872 79.9737 92.9872 76.9818C92.9872 73.99 94.2819 69.9767 89.6785 61.4148C85.6704 53.96 79.8964 50.7775 76.0124 48.9613C71.2652 46.7414 67.6688 45.8511 58.7499 47.6721C55.8916 48.2557 53.1006 49.2307 50.6998 50.3824C47.0172 52.149 42.1977 51.8429 38.4531 50.2117C37.4593 49.7788 36.291 49.3659 34.8701 48.9613C29.4037 47.4046 20.1969 49.3585 15.162 53.3719C9.93857 57.5356 8.8162 63.2442 8.92797 68.2469C8.99626 71.3037 7.37632 74.2047 5.47604 76.6Z" fill="#F4EFE7"/>
<path d="M38.9031 76.3735C35.0557 78.5629 34.8597 81.1369 35.7914 82.6171C35.6533 84.362 38.5409 85.1807 39.3037 85.3595C40.7912 85.708 44.0869 85.8865 47.5809 85.3259C51.0749 84.7653 52.6765 83.279 53.0406 82.606C53.5537 80.5401 53.9417 78.2462 52.5008 76.3736C51.3719 74.9064 49.0748 74.9063 46.1457 74.9063L46.1442 74.9063C43.4945 74.9062 41.4814 74.9063 38.9031 76.3735Z" fill="#DBA26D"/>
<path d="M50.5399 80.6501C47.1695 82.1317 39.6369 84.6101 36.47 82.6703" stroke="#B0661E" stroke-width="1.6" stroke-linecap="round"/>
<ellipse cx="5.17171" cy="4.34993" rx="5.17171" ry="4.34993" transform="matrix(0.933053 -0.35974 0.385726 0.922613 15.5938 70.9736)" fill="#562528"/>
<ellipse cx="5.23435" cy="4.69684" rx="5.23435" ry="4.69684" transform="matrix(-0.915608 -0.402071 -0.433858 0.900981 77.0142 69.9053)" fill="#562528"/>
</g>
<path d="M27.7179 14.0914C26.5685 18.4255 27.5153 35.4584 27.5153 35.4584L80.1986 35.9579C80.1986 35.9579 80.7626 21.4324 79.6191 16.1505C78.4756 10.8687 78.3173 9.58503 74.0095 5.34162C69.7017 1.09821 60.0747 0.365856 53.3401 0.302012C46.6055 0.238167 40.2042 0.996555 34.5396 4.96739C28.8751 8.93822 28.2588 12.0518 27.7179 14.0914Z" fill="#F3C66D"/>
<path fill-rule="evenodd" clip-rule="evenodd" d="M38.632 31.9313C38.632 31.9313 38.6633 24.2279 38.7259 22.0312C38.7404 21.522 38.7511 21.0289 38.7615 20.5474L38.7615 20.5473C38.8213 17.7926 38.8729 15.4175 39.5829 12.5658C40.1913 10.1227 40.9589 8.50542 41.9206 6.47916C42.1753 5.94253 42.4436 5.37723 42.7261 4.76029C43.0152 4.12926 43.3063 3.30831 43.596 2.4915L43.596 2.49149L43.596 2.49147C43.7789 1.97591 43.9612 1.46199 44.1419 0.998523C44.504 0.928216 44.8678 0.864251 45.2332 0.806184C44.8246 2.23182 44.2587 4.2024 43.8256 5.69671C43.5198 6.75178 43.2232 7.63391 42.9424 8.46936L42.9424 8.46946L42.9423 8.4695L42.9423 8.46956C42.4401 9.96363 41.988 11.3084 41.6228 13.2262C41.1043 15.9492 41.0587 17.7496 40.9985 20.1227C40.9833 20.7214 40.9672 21.3566 40.9423 22.0522C40.8639 24.2485 40.8485 31.9523 40.8485 31.9523L38.632 31.9313ZM49.2915 0.384596C49.3885 1.62897 49.5157 3.45579 49.546 4.82496C49.5712 5.96142 49.5528 6.7741 49.5322 7.68303L49.5322 7.68313L49.5322 7.68323L49.5322 7.68332L49.5322 7.68341L49.5322 7.68349C49.5211 8.17583 49.5093 8.69643 49.5034 9.31204L49.4244 17.6452C49.2644 19.5431 48.9381 23.98 48.9381 23.98C48.9381 23.98 47.726 31.9225 47.4857 33.2974L49.6994 33.6033C49.6994 33.6033 50.8542 25.9781 50.984 23.9994C51.0892 22.3965 51.0734 21.2477 51.0556 19.9629L51.0556 19.9629L51.0556 19.9629L51.0557 19.9628L51.0557 19.9628L51.0557 19.9628C51.0461 19.2666 51.0359 18.5305 51.0442 17.6605C51.055 16.517 51.0938 15.5495 51.1305 14.6345L51.1305 14.6344L51.1305 14.6344L51.1305 14.6344L51.1305 14.6344L51.1305 14.6343C51.1982 12.9455 51.2588 11.4355 51.1232 9.32739C51.0101 7.56926 50.8938 6.58508 50.6542 4.83546C50.4642 3.44802 50.1192 1.60014 49.876 0.355391C49.6808 0.364026 49.486 0.373741 49.2915 0.384596ZM54.6443 0.323005C55.215 1.56281 56.0504 3.45142 56.5363 4.89124C57.2648 7.04985 57.5288 8.32368 57.9754 10.4784L57.9754 10.4784L58.0161 10.6749C58.4504 12.7695 58.6208 14.0678 58.8723 15.9845L58.8725 15.9858L58.8734 15.9932C58.9075 16.2529 58.9431 16.5239 58.981 16.8098C59.0487 17.3205 59.1135 17.7868 59.1745 18.2264C59.4224 20.0114 59.6092 21.3562 59.6854 23.4409C59.7485 25.1648 59.8466 33.4146 59.8466 33.4146L61.8134 32.7922C61.8204 32.0551 61.7751 30.0907 61.7298 28.1263L61.7298 28.1258L61.7298 28.1258L61.7298 28.1257L61.7298 28.1256C61.6845 26.161 61.6391 24.1965 61.6461 23.4595C61.6461 23.4595 61.2006 19.4081 60.7712 16.8268C60.3476 14.28 60.0529 12.8575 59.4687 10.3325C59.3318 9.74096 59.2244 9.2185 59.1235 8.7281C58.8614 7.45415 58.6439 6.39649 58.0708 4.90579C57.5094 3.44542 56.4494 1.58407 55.7072 0.353133C55.3478 0.340796 54.9932 0.330868 54.6443 0.323005ZM61.5511 0.787271C62.4044 1.86314 63.9328 3.85805 64.8013 5.39698C65.9396 7.4138 66.375 8.62544 67.1376 10.7614C68.2102 13.7653 68.6988 15.5013 69.1093 18.6154C69.3723 20.6099 70.1907 30.4498 70.1907 30.4498L72.4944 30.2579C72.4944 30.2579 71.4666 20.0642 71.0774 17.8505L71.036 17.6145C70.4795 14.4458 70.1474 12.5552 68.7695 9.49471C67.8143 7.37322 67.1814 6.19274 65.7499 4.2663C64.9441 3.1819 63.6694 1.83572 62.8025 0.955106C62.3866 0.893876 61.969 0.838079 61.5511 0.787271ZM69.7164 2.69471C70.387 3.62241 71.2942 4.92761 71.8722 5.96263C73.4458 8.78015 73.9806 10.5067 74.7843 13.5406C75.1595 14.9569 75.316 15.9452 75.5031 17.1261C75.578 17.5993 75.6579 18.1034 75.7587 18.6784C75.9116 19.5507 76.0645 20.3128 76.2081 21.0283L76.2081 21.0284C76.5676 22.8201 76.8685 24.3194 76.9631 26.5251C77.0263 27.9986 76.9273 30.3 76.9273 30.3L78.8007 30.5314L78.8386 26.5429C78.8386 26.5429 77.8721 20.5742 77.3858 17.9103L77.3798 17.8773L77.3798 17.8773C76.8989 15.243 76.8237 14.8313 76.2396 12.9133C76.1823 12.7252 76.1268 12.542 76.0726 12.3631L76.0712 12.3586C75.2653 9.69939 74.7503 8.00001 73.0704 5.47538C72.6803 4.88902 72.1494 4.21773 71.6281 3.597C71.031 3.26447 70.3908 2.96475 69.7164 2.69471ZM39.5344 2.30722C38.862 3.37578 38.1195 4.61285 37.6025 5.6377C36.1687 8.47985 35.4577 10.1373 34.7177 13.1607C34.2103 15.2341 34.1567 16.787 34.0986 18.4694C34.0619 19.5345 34.0233 20.6514 33.8667 21.9852C33.6382 23.932 33.2106 28.2472 33.2106 28.2472L31.8466 28.2342C31.8466 28.2342 32.2036 23.9169 32.4175 21.9714C32.5532 20.7378 32.5945 19.6887 32.6336 18.6952C32.7037 16.9144 32.7667 15.3125 33.3537 13.1478C34.1791 10.1043 34.8831 8.40597 36.5795 5.628C37.1546 4.68623 37.9763 3.5977 38.765 2.61994C39.0204 2.51099 39.2768 2.4068 39.5344 2.30722Z" fill="#E2AE4A"/>
<path fill-rule="evenodd" clip-rule="evenodd" d="M27.1656 25.2346C30.5733 25.8752 35.9284 26.7826 39.949 27.0005C41.2493 27.071 42.4697 27.1579 43.6343 27.2409C49.2692 27.6423 53.5995 27.9507 59.3726 25.8527C64.1354 24.1218 67.1827 22.8416 70.0328 19.2154C72.2419 16.4048 72.566 15.4615 72.5813 12.0939C72.5906 10.0503 71.8575 8.78069 70.9272 7.16934C70.6819 6.74439 70.4228 6.29566 70.16 5.8027C69.3007 4.19081 67.6032 2.7307 65.5999 1.46249C61.5403 0.570213 57.0103 0.33681 53.3396 0.302012C46.605 0.238167 40.2037 0.996555 34.5391 4.96739C29.1055 8.77634 28.3169 11.7965 27.7843 13.8366C27.7616 13.9233 27.7395 14.0082 27.7174 14.0914C27.1889 16.0843 27.1036 20.7623 27.1656 25.2346Z" fill="#F7D674"/>
<path fill-rule="evenodd" clip-rule="evenodd" d="M50.6248 27.518C49.8916 27.5384 49.1566 27.5348 48.4113 27.5145C48.6529 25.9662 48.9379 23.9809 48.9379 23.9809C48.9379 23.9809 49.2642 19.544 49.4243 17.646L49.5033 9.31288C49.5091 8.69724 49.5209 8.17661 49.5321 7.68424L49.5321 7.68416L49.5321 7.68407L49.5321 7.68397L49.5321 7.68387C49.5526 6.77495 49.571 5.96226 49.5458 4.8258C49.5155 3.45601 49.3882 1.62817 49.2912 0.383757C49.4856 0.372904 49.6804 0.363191 49.8756 0.354557C50.1188 1.59932 50.464 3.44824 50.6541 4.83631C50.8937 6.58592 51.0099 7.5701 51.123 9.32824C51.2586 11.4364 51.1981 12.9464 51.1303 14.6352L51.1303 14.6352L51.1303 14.6352L51.1303 14.6353L51.1303 14.6353C51.0936 15.5503 51.0548 16.5178 51.044 17.6614C51.0357 18.5313 51.0459 19.2674 51.0555 19.9636L51.0555 19.9637L51.0555 19.9637L51.0555 19.9637L51.0555 19.9637C51.0732 21.2486 51.089 22.3974 50.9839 24.0003C50.9136 25.0725 50.7552 26.4661 50.6248 27.518ZM61.6313 25.0073C61.019 25.2473 60.376 25.487 59.6979 25.7348C59.7088 24.9713 59.7104 24.1295 59.6853 23.4417C59.609 21.3571 59.4223 20.0124 59.1744 18.2274L59.1744 18.2274L59.1744 18.2273L59.1744 18.2272C59.1133 17.7876 59.0486 17.3213 58.9808 16.8106C58.9425 16.5219 58.9067 16.2484 58.8723 15.9864L58.8721 15.9854C58.6206 14.0687 58.4503 12.7704 58.0159 10.6757L57.9752 10.4792L57.9752 10.4791L57.9752 10.4791C57.5287 8.32447 57.2647 7.05065 56.5362 4.89208C56.05 3.4516 55.2141 1.5619 54.6434 0.322125C54.9921 0.329983 55.3467 0.339905 55.706 0.352233C56.4482 1.58316 57.509 3.44557 58.0706 4.90663C58.6437 6.39733 58.8613 7.45499 59.1233 8.72894C59.2242 9.21935 59.3317 9.7418 59.4685 10.3334C60.0528 12.8583 60.3474 14.2808 60.7711 16.8276C61.2004 19.409 61.646 23.4603 61.646 23.4603L61.6313 25.0073ZM71.0727 17.825C70.7837 18.2431 70.4405 18.6977 70.0333 19.2158C69.7767 19.5424 69.5184 19.85 69.2574 20.1405C69.2189 19.6065 69.1704 19.0804 69.1092 18.6162C68.6986 15.5021 68.21 13.7661 67.1375 10.7622C66.3749 8.62628 65.9395 7.41464 64.8012 5.39782C63.9321 3.85798 62.4024 1.86162 61.5494 0.786207C61.9672 0.836982 62.3846 0.892741 62.8003 0.953928C63.6673 1.83451 64.9433 3.18191 65.7497 4.26714C67.1813 6.19359 67.8142 7.37406 68.7694 9.49555C70.1473 12.556 70.4793 14.4466 71.0358 17.6154L71.0727 17.825ZM45.2336 0.805278C44.8249 2.23105 44.2587 4.20263 43.8254 5.69755C43.5196 6.75271 43.223 7.6349 42.9422 8.47041L42.9422 8.47042C42.4399 9.96448 41.9878 11.3093 41.6227 13.227C41.1042 15.95 41.0585 17.7505 40.9983 20.1236C40.9831 20.7223 40.967 21.3575 40.9422 22.0531C40.8843 23.6729 40.8828 25.9639 40.886 27.0551C40.5783 27.0362 40.2663 27.0181 39.9495 27.0009C39.5366 26.9785 39.1096 26.9489 38.672 26.913C38.673 25.7807 38.6812 23.5944 38.7257 22.0321C38.7402 21.5228 38.7509 21.0297 38.7614 20.5482L38.7614 20.5482C38.8212 17.7934 38.8727 15.4183 39.5828 12.5666C40.1911 10.1235 40.9587 8.50626 41.9204 6.47999L41.9205 6.47986L41.9205 6.47981L41.9206 6.47965L41.9207 6.47943L41.9207 6.47938C42.1753 5.94294 42.4435 5.37783 42.726 4.76114C43.015 4.1301 43.3062 3.30916 43.5959 2.49234L43.5959 2.49233L43.5959 2.49231C43.779 1.97608 43.9615 1.4615 44.1425 0.997566C44.5045 0.927278 44.8682 0.86333 45.2336 0.805278ZM38.7669 2.61832C39.022 2.50947 39.2782 2.4054 39.5356 2.30591C38.8628 3.37496 38.1197 4.61301 37.6023 5.63854C36.1685 8.4807 35.4575 10.1381 34.7176 13.1616C34.2101 15.2349 34.1565 16.7878 34.0985 18.4703C34.0617 19.5353 34.0232 20.6523 33.8666 21.986C33.7057 23.3562 33.4523 25.2645 33.3163 26.2747C32.8596 26.2074 32.406 26.1379 31.959 26.0673C32.0773 25.0203 32.2759 23.2582 32.4174 21.9723C32.5531 20.7387 32.5943 19.6895 32.6334 18.6961C32.7035 16.9153 32.7665 15.3133 33.3536 13.1486C34.179 10.1051 34.883 8.40681 36.5794 5.62884C37.1549 4.68628 37.9776 3.59671 38.7669 2.61832Z" fill="#F3C66D"/>
<path d="M22.2034 29.1403C22.8621 27.9824 23.6364 27.5008 25.1207 27.1735C27.5983 26.6272 27.4964 26.9776 29.7917 27.2178C33.5723 27.6135 35.4518 28.75 39.0833 29.7192C41.7541 30.4319 43.7362 30.6136 46.4829 31.08C51.322 31.9017 52.8212 31.9324 57.7322 31.5428C61.9095 31.2114 64.5588 30.5703 68.7421 30.2938C72.3112 30.058 75.9475 29.2991 79.4009 30.1014C81.3861 30.5626 81.5439 30.7671 83.1118 31.8862C84.7141 33.0299 84.9098 34.4544 85.2042 36.5977L85.2208 36.7183C85.542 39.0534 84.6319 40.9095 83.0081 42.8231C81.3141 44.8196 80.0512 44.6162 77.3781 45.6189C73.4711 47.0844 69.2733 46.761 65.0023 47.0686C58.8795 47.5096 57.2417 47.2813 51.1068 46.9369C44.8479 46.5855 42.1907 46.5546 36.118 45.2277C31.3243 44.1802 32.4584 44.5519 26.8503 42.5756C25.2322 42.0053 22.3828 40.4115 21.7685 39.0371C20.9488 37.2031 21.115 36.0292 21.1335 34.0738C21.1503 32.3069 21.2966 30.7341 22.2034 29.1403Z" fill="#F3C66D"/>
<path fill-rule="evenodd" clip-rule="evenodd" d="M30.0914 43.7119C29.6667 43.567 29.1708 43.3938 28.5661 43.1811L27.7295 39.8772L27.768 35.8175L28.7536 30.7695L31.0018 27.443L31.3927 27.4467C31.7191 27.5062 32.0321 27.5716 32.3355 27.6421L30.2002 31.0681L29.0467 35.8296L29.0075 39.9605L30.0914 43.7119ZM39.1619 45.8387C38.6207 45.7418 38.0551 45.6334 37.4565 45.5116L36.5019 40.8151L36.5607 34.6187L37.659 29.3082C38.1035 29.4462 38.5717 29.5834 39.0734 29.7175L38.0126 34.3475L38.1216 40.8305L39.1619 45.8387ZM48.3386 46.7867C47.7659 46.7553 47.2224 46.7245 46.699 46.6924L46.0389 42.0452L46.0929 36.3474L46.8802 31.148C47.4668 31.2459 48.0034 31.3315 48.5035 31.4055L47.8013 36.0074L47.7472 41.7053L48.3386 46.7867ZM59.4263 47.3131C58.9963 47.314 58.5782 47.3097 58.161 47.3007L58.9966 42.1681L59.0324 38.3932L58.1829 31.5067C58.529 31.4767 58.8649 31.4446 59.1924 31.4108L60.5817 36.8409L60.5385 41.3992L59.4263 47.3131ZM70.6686 46.8194C70.0251 46.8545 69.3776 46.8788 68.7267 46.9013L69.9084 42.2716L70.641 36.9363L68.6627 30.3004C68.6894 30.2986 68.7161 30.2968 68.743 30.295C69.2633 30.2607 69.785 30.2152 70.3074 30.165C70.8935 31.4038 72.2109 34.4021 72.3493 36.5963C72.4392 38.0215 72.2564 38.9816 72.0321 40.1592C71.9536 40.5717 71.87 41.0108 71.7912 41.5059C71.5115 43.2644 70.9262 45.7544 70.6686 46.8194ZM79.6519 44.8928C79.5414 44.9257 79.4283 44.9589 79.3123 44.9929C78.8368 45.1322 78.3121 45.286 77.7146 45.4977C77.8586 44.6968 78.0469 43.5309 78.0888 42.7053C78.1587 41.3288 78.1347 37.8621 78.1347 37.8621C78.1347 37.8621 77.7572 35.7216 77.6502 35.0083C77.5433 34.295 75.7361 30.0753 75.7361 30.0753L76.8322 29.7633C76.9799 29.7701 77.1274 29.7787 77.2747 29.7894C77.6245 30.3182 78.9542 32.3792 79.4513 33.8857C79.8717 35.1601 79.9498 35.9469 80.074 37.1976L80.0995 37.4533C80.2913 39.3665 80.2455 40.4557 80.0529 42.3677C79.9758 43.133 79.8068 44.097 79.6519 44.8928Z" fill="#E2AE4A"/>
<path fill-rule="evenodd" clip-rule="evenodd" d="M25.1205 27.1728C23.6362 27.5002 22.862 27.9817 22.2032 29.1396C21.2964 30.7334 21.1501 32.3063 21.1334 34.0732C21.1307 34.3491 21.1252 34.6096 21.1199 34.8584C21.0875 36.3731 21.0643 37.4613 21.7683 39.0364C22.3826 40.4109 25.232 42.0046 26.8501 42.5749C29.872 43.6398 30.9363 44.023 32.0252 44.3138C32.9572 44.5627 33.9072 44.744 36.1179 45.227C41.5737 46.4192 44.2727 46.5652 49.3036 46.8374C49.8723 46.8681 50.4709 46.9005 51.1067 46.9362C51.963 46.9843 52.7318 47.0301 53.4373 47.0721C57.2328 47.2983 59.1995 47.4155 63.1407 47.1895C65.4487 46.2043 67.74 44.8929 68.9604 43.2592C69.17 42.9786 69.38 42.7106 69.5837 42.4507C70.7539 40.9574 71.718 39.7271 71.2282 37.8672C70.9121 36.6672 70.2668 36.043 69.3707 35.1762C69.264 35.073 69.1537 34.9663 69.0401 34.8548C66.9926 32.847 62.1681 31.2994 62.1681 31.2994L61.3542 31.1534C60.2358 31.2999 59.0613 31.4367 57.7321 31.5421C52.821 31.9317 51.3218 31.901 46.4827 31.0793C45.7056 30.9474 44.9897 30.8382 44.3021 30.7334C42.5594 30.4676 40.9983 30.2296 39.0831 29.7185C37.793 29.3742 36.724 29.0088 35.7124 28.663C33.8763 28.0353 32.229 27.4722 29.7915 27.2171C29.5535 27.1922 29.3412 27.1661 29.1491 27.1399L25.4383 27.1047C25.3372 27.1257 25.2315 27.1484 25.1205 27.1728Z" fill="#F7D674"/>
<path fill-rule="evenodd" clip-rule="evenodd" d="M31.4024 27.4471L31.0014 27.4433C31.0014 27.4433 29.3882 29.3749 28.7532 30.7697C28.0424 32.3309 27.958 33.4189 27.8431 34.8997C27.8207 35.1886 27.7971 35.4925 27.7675 35.8177L27.7517 35.9909C27.6169 37.4661 27.5353 38.3588 27.729 39.8775C27.8704 40.986 28.3441 42.546 28.5434 43.1719C29.146 43.3838 29.6409 43.5567 30.0651 43.7016C29.8196 43.0382 29.1836 41.2398 29.0071 39.9608C28.7857 38.3575 28.8612 37.4352 29.0462 35.8299C29.2639 33.9408 29.4167 32.8483 30.1997 31.0684C30.7416 29.8365 31.9218 28.1787 32.3179 27.6366C32.023 27.5684 31.719 27.5049 31.4024 27.4471ZM37.6433 29.302C37.4165 30.1792 36.7632 32.7981 36.5602 34.619C36.2916 37.0278 36.2491 38.4039 36.5015 40.8154C36.663 42.3588 37.1791 44.5222 37.4261 45.504C38.0263 45.6263 38.5932 45.7352 39.1357 45.8326C38.8816 44.8253 38.3181 42.4883 38.1212 40.8308C37.8218 38.3104 37.7119 36.8664 38.0121 34.3478C38.1972 32.7953 38.7932 30.6072 39.0494 29.7097C38.5509 29.5761 38.0854 29.4394 37.6433 29.302ZM46.8719 31.1452C46.7296 31.8928 46.2402 34.5401 46.0925 36.3476C45.911 38.5672 45.8824 39.8236 46.0384 42.0455C46.1466 43.586 46.5192 45.7804 46.6813 46.6899C47.2063 46.7221 47.7515 46.753 48.3259 46.7845C48.1926 45.8886 47.8405 43.4167 47.7468 41.7056C47.625 39.4822 47.6081 38.2266 47.8008 36.0077C47.9404 34.3994 48.3771 32.0362 48.4972 31.4031C47.9965 31.329 47.4592 31.2433 46.8719 31.1452ZM58.1911 31.5044C58.334 32.3284 58.9428 35.9518 59.0319 38.3935C59.0857 39.8672 59.0952 40.6967 58.9961 42.1684C58.8862 43.8014 58.4672 46.0334 58.209 47.3002C58.6248 47.3088 59.0418 47.3128 59.4711 47.3115C59.7824 46.0088 60.3822 43.3274 60.538 41.3995L60.543 41.338C60.6835 39.6002 60.7647 38.5946 60.5812 36.8412C60.3865 34.9805 59.5384 32.3451 59.2215 31.4062C58.8874 31.4408 58.5445 31.4737 58.1911 31.5044ZM70.6091 36.5229C70.6235 36.6635 70.6341 36.8016 70.6405 36.9365C70.7159 38.5289 70.4839 39.5857 70.1935 40.9089L70.1935 40.9089L70.1935 40.909L70.1935 40.9092L70.1934 40.9094C70.1214 41.2373 70.0459 41.5816 69.9705 41.9544C70.9534 40.6722 71.6632 39.5177 71.2286 37.8676C71.0864 37.3276 70.8775 36.9042 70.6091 36.5229Z" fill="#F3C66D"/>
</svg>
