<svg width="117" height="177" viewBox="9 0 60 177" fill="none" xmlns="http://www.w3.org/2000/svg">
<path d="M11.079 167.715C10.1686 163.495 17.3649 159.281 20.5729 159.281L38 167.715C36.1359 170.212 31.8355 174.948 29.5465 173.918C27.2576 172.888 27.8992 171.304 28.5061 170.641C26.2952 172.318 21.3012 175.322 19.0122 173.918C16.7233 172.513 18.0585 169.198 19.0122 167.715C13.3939 170.524 11.3996 169.201 11.079 167.715Z" fill="#DBA26D"/>
<path d="M62.0194 177.548C59.5699 174.831 62.1044 170.513 63.6779 168.693C69.1636 166.186 80.9007 161.706 83.9625 163.841C87.0243 165.976 87.1945 170.958 86.8968 173.181C85.8336 175.203 82.9929 179.246 80.1352 179.246C77.2775 179.246 77.3285 176.012 77.7113 174.394C76.8182 177.063 74.3943 179.61 71.9703 179.246C70.0312 178.955 69.7165 175.89 69.8015 174.394C68.2281 176.578 64.4688 180.265 62.0194 177.548Z" fill="#DBA26D"/>
<path d="M2.75853 138.871C-4.38282 123.957 11.9439 108.93 21 103.281L18.93 134.804C10.3397 139.865 4.56974 139.624 2.75853 138.871Z" fill="#753F3C" stroke="#753F3C"/>
<mask id="mask0_5140_2820" style="mask-type:alpha" maskUnits="userSpaceOnUse" x="7" y="94" width="110" height="84">
<path d="M7.89226 134.728C6.52777 126.988 15.0208 108.617 19.4379 100.4L90.2863 94.7002L94.2223 100.4C98.3157 108.776 102.838 119.53 104.587 123.86C105.007 129.162 107.998 134.817 109.442 136.982C116.264 141.329 116.395 144.713 115.608 145.862C113.684 149.529 108.392 157.791 102.619 161.502C96.8463 165.214 84.7321 170.825 79.3966 173.166C72.443 174.713 56.2266 177.673 46.99 177.143C37.7535 176.612 29.4966 173.299 26.5228 171.708C24.9046 170.78 20.1989 167.202 14.3211 160.31C6.97386 151.694 9.59786 144.404 7.89226 134.728Z" fill="#D9D9D9" stroke="black"/>
</mask>
<g mask="url(#mask0_5140_2820)">
<path d="M9.14094 131.232C9.78085 124.081 16.1918 107.402 20.5608 99.9017L90.6369 94.7002L94.53 99.9017C98.5789 107.547 103.052 117.361 104.782 121.313C105.197 126.151 108.156 131.312 109.583 133.288C116.331 137.256 115.034 141.426 114.255 142.474C112.352 145.821 106.728 153.361 101.019 156.748C95.3087 160.135 85.1433 164.175 79.8659 166.312C72.3392 169.36 57.4156 169.941 47.8126 169.941C38.662 169.941 30.5098 166.433 27.5684 164.981C23.9347 163.188 19.1822 158.562 15.4997 154.578C8.23255 146.715 8.36221 139.934 9.14094 131.232Z" fill="#753F3C"/>
<path d="M22.0488 134.318C21.4019 121.866 28.7209 107.438 32.4612 101.78L62.7189 103.122L62.7734 103.245C64.7476 107.707 68.8236 116.919 71.5706 128.195C74.3431 139.577 71.1494 148.58 68.8463 152.507C67.136 155.424 64.8434 161.523 53.6601 162.289C42.4768 163.054 33.003 158.825 29.664 156.614C23.5721 152.581 22.6956 146.769 22.0488 134.318Z" fill="#F4EFE7"/>
</g>
<path d="M101.926 141.269C87.0814 142.012 79.0407 121.587 76.8759 111.281C75.6036 113.617 75.9923 118.535 76.3458 120.702C76.7434 123.621 78.6095 132.522 84.1231 139.741C89.6367 146.959 99.1865 146.533 103.118 146.046C104.4 144.056 107.227 139.358 108.287 136.492C109.348 133.626 108.994 131.406 108.685 130.654L101.926 141.269Z" fill="#471411"/>
<path d="M102.711 143.362C79.4451 141.834 75.5957 120.999 76.5792 110.772C81.8563 99.8618 91.1702 101.873 95.1675 104.242C116.839 120.828 109.226 137.233 102.711 143.362Z" fill="#753F3C"/>
<path d="M18 103.822L19.95 100.281C21.51 101.356 27.9667 102.845 31 103.456L28.27 108.281C26.086 108.281 20.73 105.003 18 103.822Z" fill="#471411"/>
<path d="M30.8276 103.281L28 108.513C40.2905 112.846 58.7677 111.158 66 109.691C65.7844 108.607 64.3838 105.538 63.8448 104.128L30.8276 103.281Z" fill="#E1E0CF"/>
<path d="M65.2368 109.281L63 104.083L91.0263 95.2812L93 98.017C88.4737 103.822 72.7368 108.369 65.2368 109.281Z" fill="#471411"/>
<mask id="mask1_5140_2820" style="mask-type:alpha" maskUnits="userSpaceOnUse" x="3" y="28" width="107" height="78">
<path d="M45.2275 28.8082C6.32934 32.2329 1.78354 64.742 4.37292 80.5685C1.15058 85.6537 6.19508 93.2383 9.12011 96.395C12.0452 99.5516 18.5377 103.248 35.1577 105.087C58.606 107.681 86.2079 102.006 94.7134 95.0977C114.997 78.6226 109.387 55.4883 104.352 46.9697C100.851 39.4889 84.1257 25.3835 45.2275 28.8082Z" fill="#D9D9D9"/>
</mask>
<g mask="url(#mask1_5140_2820)">
<path d="M45.2275 28.8077C6.32934 32.2325 1.78354 64.7416 4.37292 80.568C1.15058 85.6532 6.19508 93.2378 9.12011 96.3945C12.0452 99.5511 18.5377 103.247 35.1577 105.086C58.606 107.681 86.2079 102.006 94.7134 95.0972C114.997 78.6221 104.783 57.1662 99.7483 48.6476C96.2478 41.1668 84.1257 25.383 45.2275 28.8077Z" fill="#753F3C"/>
<path d="M5.47604 78.8813C5.43048 78.9387 5.38611 78.9956 5.34292 79.0521C4.62398 79.991 3.82644 80.8975 2.96442 81.7072C-7.58198 91.6124 16.3398 108.054 32.2237 116.439C33.9097 117.329 35.8854 117.438 37.6813 116.798L76.0124 103.141C82.342 100.279 86.1685 95.2534 88.8154 90.6871C90.9257 87.0466 92.9872 82.2549 92.9872 79.2631C92.9872 76.2713 94.2819 72.2579 89.6785 63.6961C85.6704 56.2412 79.8964 53.0588 76.0124 51.2426C71.2652 49.0226 67.6688 48.1324 58.7499 49.9534C55.8916 50.537 53.1006 51.5119 50.6998 52.6637C47.0172 54.4303 42.1977 54.1241 38.4531 52.493C37.4593 52.0601 36.291 51.6472 34.8701 51.2425C29.4037 49.6858 20.1969 51.6398 15.162 55.6532C9.93857 59.8169 8.8162 65.5255 8.92797 70.5282C8.99626 73.5849 7.37632 76.486 5.47604 78.8813Z" fill="#F4EFE7"/>
<path d="M38.9031 78.6547C35.0557 80.8441 34.8597 83.4181 35.7914 84.8983C35.6533 86.6433 38.5409 87.462 39.3037 87.6407C40.7912 87.9892 44.0869 88.1677 47.5809 87.6071C51.0749 87.0465 52.6765 85.5603 53.0406 84.8873C53.5537 82.8213 53.9417 80.5275 52.5008 78.6548C51.3719 77.1876 49.0748 77.1876 46.1457 77.1875L46.1442 77.1875C43.4945 77.1875 41.4814 77.1875 38.9031 78.6547Z" fill="#DBA26D"/>
<path d="M50.5399 82.9313C47.1695 84.413 39.6369 86.8913 36.47 84.9516" stroke="#B0661E" stroke-width="1.6" stroke-linecap="round"/>
<ellipse cx="5.17171" cy="4.34993" rx="5.17171" ry="4.34993" transform="matrix(0.933053 -0.35974 0.385726 0.922613 15.5938 73.2549)" fill="#562528"/>
<ellipse cx="5.23435" cy="4.69684" rx="5.23435" ry="4.69684" transform="matrix(-0.915608 -0.402071 -0.433858 0.900981 77.0142 72.1865)" fill="#562528"/>
</g>
<path d="M27.3415 16.1772C32.048 11.6115 42.8389 9.47193 42.8389 9.47193C42.8389 9.47193 49.1565 8.6187 53.2054 8.85142C58.8818 9.17768 59.8098 9.39798 64.4115 10.2547C72.0427 11.8027 78.5724 16.5099 82.8186 22.0189C84.8792 24.6923 84.7279 29.5149 84.5193 31.4284C84.2788 33.6362 78.1118 37.3978 72.3776 39.3058C63.9936 42.0955 58.5955 40.8565 49.7489 40.5705C42.4604 40.3349 41.1766 40.71 33.3528 38.844C29.9899 38.0419 26.4131 35.8696 24.3579 33.1328C22.171 30.2206 21.2592 27.2981 21.5983 25.1006C22.2274 21.0236 24.3556 19.0737 27.3415 16.1772Z" fill="#F4B396"/>
<path fill-rule="evenodd" clip-rule="evenodd" d="M31.7281 38.0753C31.7281 38.0753 31.765 34.4207 31.8397 32.0884C32.0524 25.4466 35.1669 21.402 35.1669 21.402C35.1669 21.402 37.6088 17.4158 39.6469 15.474C41.7982 13.4244 44.9929 11.0666 44.9929 11.0666C44.9929 11.0666 39.6551 12.8729 36.4789 15.6199C34.0689 17.7042 33.343 18.3723 31.8484 21.1647C29.9962 24.625 29.2387 27.9254 29.8412 31.7903C30.2365 34.3258 31.7281 38.0753 31.7281 38.0753Z" fill="#F29D77"/>
<path fill-rule="evenodd" clip-rule="evenodd" d="M70.1134 14.4487C71.8776 16.0257 73.4969 17.8371 74.3134 19.6836C76.3099 24.1983 76.272 26.7341 74.5073 29.6489C73.0745 32.0154 71.2897 32.7708 69.0054 33.7376C68.6014 33.9086 68.1819 34.0861 67.7459 34.2804C64.6744 35.6489 62.3882 35.7621 59.5497 35.9027C58.6585 35.9468 57.7129 35.9937 56.6714 36.0829C51.766 36.5031 48.756 36.316 44.265 36.0367C43.7142 36.0024 43.141 35.9668 42.5394 35.9307C41.1416 35.8469 39.8995 35.8267 38.7319 35.8078C35.6868 35.7584 33.1486 35.7172 29.676 34.5762C27.5973 33.8932 25.1248 32.5431 23.1834 31.3718C21.911 29.0562 21.4162 26.8208 21.6845 25.0514C22.2818 21.1129 24.1882 19.1545 26.8734 16.3962C26.9602 16.3069 27.0479 16.2169 27.1364 16.1259C31.5869 11.5484 41.7388 9.35139 41.7388 9.35139C41.7388 9.35139 47.6797 8.46306 51.4824 8.67043C56.8136 8.96115 59.8864 9.64502 64.7946 11.7791C64.9869 11.8627 65.1751 11.9442 65.3598 12.024C67.1017 12.7774 68.5301 13.3953 70.1134 14.4487Z" fill="#F8C5AF"/>
<path fill-rule="evenodd" clip-rule="evenodd" d="M31.7689 35.161C31.3897 35.0735 31.0013 34.9734 30.6012 34.8587C30.2851 33.8377 29.9878 32.7305 29.8412 31.7903C29.2387 27.9254 29.9962 24.625 31.8484 21.1647C33.343 18.3723 34.0689 17.7042 36.4789 15.6199C39.6551 12.8729 44.9929 11.0666 44.9929 11.0666C44.9929 11.0666 41.7982 13.4244 39.6469 15.474C37.6088 17.4158 35.1669 21.402 35.1669 21.402C35.1669 21.402 32.0524 25.4466 31.8397 32.0884C31.8103 33.0087 31.7867 34.1348 31.7689 35.161Z" fill="#F4B396"/>
<path fill-rule="evenodd" clip-rule="evenodd" d="M70.0159 14.4189C69.8085 14.0993 67.277 12.2199 66.0372 11.3201L64.4504 10.2515C61.7438 9.71914 59.0008 9.31369 55.8929 9.04501L62.8286 13.662L70.0159 14.4189Z" fill="#F8C5AF"/>
<path d="M52.7589 9.46898L52.0102 9.39015C52.0102 9.39015 52.3764 8.94393 52.3899 8.68574C52.402 8.45301 52.2857 8.32774 52.1466 8.13905C51.9303 7.8458 51.5048 7.77372 51.1305 7.7343C50.8036 7.69988 50.2287 7.88354 49.9005 7.90254C48.9539 7.95737 48.4203 7.97854 47.4727 7.94465C46.2385 7.90052 45.5239 7.91735 44.3282 7.61354C43.5963 7.42757 43.2466 7.1177 42.5047 6.97489C42.0745 6.8921 41.8253 6.87935 41.39 6.85707L41.3816 6.85664C40.879 6.83091 40.5167 7.13664 40.0928 6.86981C39.8477 6.71549 39.6249 6.29946 39.6249 6.29946L40.2051 5.83949C40.2051 5.83949 40.7264 5.20618 41.1998 5.05096C41.4028 4.98438 41.53 5.00024 41.7399 4.95896C43.0294 4.70539 43.5882 3.94683 44.895 3.80241C46.0638 3.67324 46.7396 3.87555 47.8897 4.11775C48.916 4.33387 49.6345 4.26412 50.4539 4.90883C50.9409 5.292 51.0651 5.65371 51.4567 6.131C52.031 6.83102 52.7404 7.04317 52.9273 7.92351C53.0535 8.5177 52.7589 9.46898 52.7589 9.46898Z" fill="#9DBE98"/>
<path fill-rule="evenodd" clip-rule="evenodd" d="M39.7387 6.4844L42.0255 5.81271L44.9426 5.44994L48.0871 5.78104L50.5176 6.40917L52.0096 7.31066L52.7289 8.35411L52.3857 9.42921L52.0107 9.38973C52.0107 9.38973 52.3769 8.94352 52.3904 8.68532C52.4012 8.47731 52.3094 8.35514 52.1905 8.19681C52.1763 8.17799 52.1618 8.15867 52.147 8.13863C51.9308 7.84538 51.5053 7.7733 51.131 7.73388C50.9369 7.71345 50.6554 7.76989 50.39 7.8231C50.2084 7.85951 50.0343 7.8944 49.901 7.90213C48.9544 7.95696 48.4208 7.97812 47.4732 7.94423C47.3154 7.93859 47.1661 7.93395 47.0233 7.9295C46.0484 7.89916 45.3716 7.8781 44.3287 7.61313C43.9903 7.52715 43.7337 7.4147 43.4822 7.30452C43.1896 7.17635 42.9041 7.05126 42.5051 6.97447C42.075 6.89168 41.8258 6.87893 41.3905 6.85665L41.3821 6.85622C41.1899 6.84638 41.0183 6.88501 40.8558 6.92155C40.5934 6.98058 40.3551 7.03419 40.0933 6.86939C39.9566 6.78329 39.8267 6.61572 39.7387 6.4844Z" fill="#90AE8B"/>
<path d="M54.1257 8.05509C53.8577 8.61407 53.6578 9.56904 53.6578 9.56904L54.4065 9.64787C54.4065 9.64787 54.6899 9.19413 54.9359 8.95923C55.3281 8.58456 55.6454 8.48217 56.1471 8.26795C57.0256 7.89281 57.6077 7.95466 58.5482 7.77639C59.9284 7.51478 60.7338 7.52146 62.0964 7.18231C63.0284 6.95033 63.4868 6.51613 64.4467 6.46209C65.0925 6.42573 65.4772 6.82818 66.0938 6.63553C66.6486 6.46215 67.2542 5.71558 67.2542 5.71558L67.3103 5.20042C67.3103 5.20042 66.6657 5.5831 66.206 5.60521C65.9711 5.61651 65.8396 5.5771 65.6071 5.54214C64.265 5.34036 63.7435 4.48416 62.4252 4.16495C61.3973 3.91606 60.7776 3.73214 59.7299 3.88114C58.2851 4.08664 57.585 4.73342 56.4358 5.61856C55.3943 6.42082 54.6897 6.87845 54.1257 8.05509Z" fill="#9DBE98"/>
<path fill-rule="evenodd" clip-rule="evenodd" d="M67.1095 5.87814L65.9246 6.09581L64.3764 5.70947L62.978 5.3389L59.8603 5.45725L57.2613 6.3746L54.9966 7.69934L53.986 9.60265L54.2078 9.626L54.4469 9.5824C54.5345 9.44875 54.7458 9.13878 54.9348 8.95817C55.2777 8.63067 55.5633 8.51121 55.9648 8.34326C56.0227 8.31906 56.0829 8.29386 56.1461 8.26689C56.7354 8.01524 57.1913 7.96023 57.7116 7.89747C57.9669 7.86668 58.2376 7.83401 58.5472 7.77533C59.1187 7.667 59.5917 7.60467 60.0465 7.54474C60.69 7.45995 61.297 7.37995 62.0954 7.18125C62.4726 7.08736 62.7722 6.96036 63.0589 6.83883C63.4806 6.66008 63.8743 6.4932 64.4457 6.46103C64.7281 6.44513 64.9606 6.51314 65.1844 6.57861C65.4723 6.66285 65.7458 6.74287 66.0927 6.63446C66.4824 6.51269 66.8972 6.10816 67.1095 5.87814Z" fill="#90AE8B"/>
<path d="M52.7389 6.78187C52.8782 7.844 52.4418 9.50853 52.4418 9.50853C52.4418 9.50853 52.8359 9.82242 53.1405 9.87241C53.4982 9.93113 54.0477 9.67763 54.0477 9.67763C54.0477 9.67763 54.1935 7.98815 54.0529 6.92022C53.9597 6.21316 53.8491 5.82401 53.6566 5.13663C53.4726 4.48001 53.0986 3.48117 53.0986 3.48117C53.0986 3.48117 52.5735 3.49568 52.3374 3.69132C51.9428 4.01828 52.1966 4.9829 52.1966 4.9829C52.1966 4.9829 52.6437 6.05514 52.7389 6.78187Z" fill="#D29A81"/>
<ellipse cx="69.0904" cy="70.7025" rx="0.959016" ry="0.942711" fill="white"/>
<ellipse cx="23.0572" cy="71.6458" rx="0.959016" ry="0.942711" fill="white"/>
</svg>
