<svg width="117" height="177" viewBox="9 0 60 177" fill="none" xmlns="http://www.w3.org/2000/svg">
<path d="M11.079 165.813C10.1686 161.592 17.3649 157.379 20.5729 157.379L38 165.813C36.1359 168.309 31.8355 173.045 29.5465 172.016C27.2576 170.986 27.8992 169.402 28.5061 168.739C26.2952 170.416 21.3012 173.42 19.0122 172.016C16.7233 170.611 18.0585 167.295 19.0122 165.813C13.3939 168.622 11.3996 167.299 11.079 165.813Z" fill="#BC544B"/>
<path d="M62.0194 175.646C59.5699 172.929 62.1044 168.61 63.6779 166.791C69.1636 164.284 80.9007 159.804 83.9625 161.939C87.0243 164.074 87.1945 169.055 86.8968 171.279C85.8336 173.301 82.9929 177.344 80.1352 177.344C77.2775 177.344 77.3285 174.109 77.7113 172.492C76.8182 175.161 74.3943 177.708 71.9703 177.344C70.0312 177.053 69.7165 173.988 69.8015 172.492C68.2281 174.675 64.4688 178.363 62.0194 175.646Z" fill="#BC544B"/>
<path d="M2.75853 136.969C-4.38282 122.055 11.9439 107.028 21 101.379L18.93 132.901C10.3397 137.963 4.56974 137.722 2.75853 136.969Z" fill="#4A4673" stroke="#24205C"/>
<mask id="mask0_5140_2819" style="mask-type:alpha" maskUnits="userSpaceOnUse" x="7" y="92" width="110" height="84">
<path d="M7.89177 132.826C6.52728 125.086 15.0203 106.715 19.4374 98.4972L90.2858 92.7979L94.2218 98.4972C98.3152 106.874 102.837 117.628 104.587 121.958C105.006 127.259 107.998 132.915 109.441 135.079C116.263 139.427 116.395 142.811 115.607 143.96C113.683 147.627 108.391 155.889 102.619 159.6C96.8458 163.311 84.7316 168.922 79.3961 171.264C72.4425 172.81 56.2261 175.77 46.9896 175.24C37.753 174.71 29.4961 171.396 26.5223 169.806C24.9041 168.878 20.1984 165.299 14.3206 158.407C6.97337 149.792 9.59738 142.502 7.89177 132.826Z" fill="#D9D9D9" stroke="black"/>
</mask>
<g mask="url(#mask0_5140_2819)">
<path d="M9.14045 129.329C9.78036 122.179 16.1913 105.499 20.5603 97.9993L90.6364 92.7979L94.5295 97.9993C98.5784 105.644 103.051 115.459 104.781 119.41C105.197 124.249 108.155 129.41 109.583 131.386C116.331 135.354 115.033 139.523 114.255 140.572C112.351 143.918 106.728 151.459 101.018 154.846C95.3082 158.233 85.1428 162.272 79.8654 164.409C72.3387 167.457 57.4151 168.038 47.8121 168.038C38.6615 168.038 30.5094 164.53 27.5679 163.079C23.9342 161.286 19.1817 156.66 15.4992 152.676C8.23207 144.813 8.36172 138.031 9.14045 129.329Z" fill="#4A4673"/>
<path d="M22.0478 132.415C21.4009 119.963 28.7199 105.535 32.4603 99.8779L62.7179 101.22L62.7725 101.343C64.7466 105.805 68.8226 115.017 71.5696 126.293C74.3421 137.675 71.1484 146.677 68.8453 150.605C67.1351 153.521 64.8424 159.62 53.6591 160.386C42.4758 161.152 33.002 156.922 29.663 154.712C23.5711 150.679 22.6947 144.867 22.0478 132.415Z" fill="#FCE6C6"/>
</g>
<path d="M101.926 139.367C87.0814 140.11 79.0407 119.684 76.8759 109.379C75.6036 111.714 75.9923 116.633 76.3458 118.8C76.7434 121.719 78.6095 130.62 84.1231 137.838C89.6367 145.057 99.1865 144.63 103.118 144.144C104.4 142.153 107.227 137.456 108.287 134.59C109.348 131.724 108.994 129.504 108.685 128.752L101.926 139.367Z" fill="#24205C"/>
<path d="M102.711 141.46C79.4451 139.932 75.5957 119.096 76.5792 108.87C81.8563 97.9595 91.1702 99.9706 95.1675 102.34C116.839 118.926 109.226 135.331 102.711 141.46Z" fill="#4A4673"/>
<path d="M18 101.92L19.95 98.3789C21.51 99.4534 27.9667 100.943 31 101.554L28.27 106.379C26.086 106.379 20.73 103.1 18 101.92Z" fill="#24205C"/>
<path d="M30.8276 101.379L28 106.611C40.2905 110.944 58.7677 109.255 66 107.788C65.7844 106.705 64.3838 103.636 63.8448 102.225L30.8276 101.379Z" fill="#EBDBB0"/>
<path d="M65.2368 107.379L63 102.181L91.0263 93.3789L93 96.1147C88.4737 101.919 72.7368 106.467 65.2368 107.379Z" fill="#24205C"/>
<mask id="mask1_5140_2819" style="mask-type:alpha" maskUnits="userSpaceOnUse" x="3" y="26" width="107" height="78">
<path d="M45.2275 26.9059C6.32934 30.3306 1.78354 62.8397 4.37292 78.6662C1.15058 83.7514 6.19508 91.336 9.12011 94.4926C12.0452 97.6493 18.5377 101.345 35.1577 103.184C58.606 105.779 86.2079 100.104 94.7134 93.1954C114.997 76.7203 109.387 53.586 104.352 45.0674C100.851 37.5866 84.1257 23.4811 45.2275 26.9059Z" fill="#D9D9D9"/>
</mask>
<g mask="url(#mask1_5140_2819)">
<path d="M45.2275 26.9054C6.32934 30.3301 1.78354 62.8392 4.37292 78.6657C1.15058 83.7509 6.19508 91.3355 9.12011 94.4921C12.0452 97.6488 18.5377 101.345 35.1577 103.184C58.606 105.778 86.2079 100.103 94.7134 93.1949C114.997 76.7198 104.783 55.2639 99.7483 46.7452C96.2478 39.2644 84.1257 23.4806 45.2275 26.9054Z" fill="#4A4673"/>
<path d="M5.47604 76.9789C5.43048 77.0363 5.38611 77.0933 5.34292 77.1497C4.62398 78.0887 3.82644 78.9952 2.96442 79.8048C-7.58198 89.7101 16.3398 106.152 32.2237 114.536C33.9097 115.426 35.8854 115.536 37.6813 114.896L76.0124 101.238C82.342 98.3762 86.1685 93.351 88.8154 88.7847C90.9257 85.1443 92.9872 80.3526 92.9872 77.3608C92.9872 74.3689 94.2819 70.3556 89.6785 61.7937C85.6704 54.3389 79.8964 51.1564 76.0124 49.3403C71.2652 47.1203 67.6688 46.23 58.7499 48.051C55.8916 48.6346 53.1006 49.6096 50.6998 50.7613C47.0172 52.528 42.1977 52.2218 38.4531 50.5906C37.4593 50.1577 36.291 49.7448 34.8701 49.3402C29.4037 47.7835 20.1969 49.7374 15.162 53.7508C9.93857 57.9145 8.8162 63.6231 8.92797 68.6258C8.99626 71.6826 7.37632 74.5836 5.47604 76.9789Z" fill="#FCE6C6"/>
<path d="M38.9031 76.7524C35.0557 78.9418 34.8597 81.5158 35.7914 82.996C35.6533 84.741 38.5409 85.5596 39.3037 85.7384C40.7912 86.0869 44.0869 86.2654 47.5809 85.7048C51.0749 85.1442 52.6765 83.6579 53.0406 82.9849C53.5537 80.919 53.9417 78.6251 52.5008 76.7525C51.3719 75.2853 49.0748 75.2852 46.1457 75.2852L46.1442 75.2852C43.4945 75.2852 41.4814 75.2852 38.9031 76.7524Z" fill="#BC544B"/>
<path d="M50.5394 81.029C47.169 82.5106 39.6364 84.989 36.4695 83.0492" stroke="#562528" stroke-width="1.6" stroke-linecap="round"/>
<ellipse cx="5.17171" cy="4.34993" rx="5.17171" ry="4.34993" transform="matrix(0.933053 -0.35974 0.385726 0.922613 15.5938 71.3525)" fill="#562528"/>
<ellipse cx="5.23435" cy="4.69684" rx="5.23435" ry="4.69684" transform="matrix(-0.915608 -0.402071 -0.433858 0.900981 77.0142 70.2842)" fill="#562528"/>
</g>
<path d="M25.5155 16.1665C30.0611 11.6038 40.4831 9.46555 40.4831 9.46555C40.4831 9.46555 46.5846 8.61286 50.4951 8.84543C55.9775 9.17148 56.8738 9.39165 61.3181 10.2478C68.6884 11.7948 74.9948 16.499 79.0959 22.0044C81.0861 24.6762 80.9399 29.4957 80.7385 31.4079C80.5061 33.6143 74.55 37.3735 69.0119 39.2803C60.9145 42.0683 55.7009 40.83 47.1568 40.5442C40.1175 40.3088 38.8775 40.6836 31.3213 38.8189C28.0733 38.0173 24.6188 35.8463 22.6339 33.1113C20.5217 30.201 19.6411 27.2803 19.9686 25.0842C20.5762 21.0098 22.6317 19.0612 25.5155 16.1665Z" fill="#F4B396"/>
<path fill-rule="evenodd" clip-rule="evenodd" d="M29.7514 38.0513C29.7514 38.0513 29.7871 34.399 29.8592 32.0682C30.0646 25.4307 33.0727 21.3887 33.0727 21.3887C33.0727 21.3887 35.431 17.405 37.3995 15.4645C39.4772 13.4161 42.5628 11.0599 42.5628 11.0599C42.5628 11.0599 37.4075 12.865 34.3398 15.6102C32.0122 17.6932 31.3111 18.3609 29.8676 21.1515C28.0788 24.6095 27.3471 27.9079 27.929 31.7703C28.3108 34.3042 29.7514 38.0513 29.7514 38.0513Z" fill="#F29D77"/>
<path fill-rule="evenodd" clip-rule="evenodd" d="M66.824 14.4388C68.5281 16.0149 70.0923 17.8253 70.881 19.6707C72.8092 24.1826 72.7725 26.7167 71.0682 29.6296C69.6844 31.9947 67.9606 32.7496 65.7544 33.7158C65.3642 33.8866 64.959 34.0641 64.5379 34.2582C61.5715 35.6258 59.3634 35.739 56.622 35.8795C55.7613 35.9236 54.8479 35.9704 53.8421 36.0595C49.1044 36.4795 46.1973 36.2925 41.8598 36.0134C41.3278 35.9791 40.7743 35.9435 40.1932 35.9074C38.8432 35.8237 37.6435 35.8035 36.5159 35.7846C33.5749 35.7352 31.1234 35.6941 27.7696 34.5538C25.7621 33.8713 23.3741 32.5221 21.4992 31.3516C20.2703 29.0374 19.7923 26.8034 20.0515 25.0351C20.6283 21.0991 22.4695 19.142 25.0629 16.3854C25.1468 16.2962 25.2315 16.2062 25.3169 16.1153C29.6153 11.5408 39.4201 9.34513 39.4201 9.34513C39.4201 9.34513 45.1579 8.45736 48.8306 8.6646C53.9795 8.95514 56.9473 9.63858 61.6877 11.7713C61.8734 11.8549 62.0552 11.9362 62.2335 12.0161C63.9157 12.7689 65.2951 13.3863 66.824 14.4388Z" fill="#F8C5AF"/>
<path fill-rule="evenodd" clip-rule="evenodd" d="M28.6631 34.8367C28.3578 33.8164 28.0706 32.7099 27.929 31.7703C27.3471 27.9079 28.0788 24.6095 29.8676 21.1515C31.3111 18.3609 32.0122 17.6932 34.3398 15.6102C37.4075 12.865 42.5628 11.0599 42.5628 11.0599C42.5628 11.0599 39.4772 13.4161 37.3995 15.4645C35.431 17.405 33.0727 21.3887 33.0727 21.3887C33.0727 21.3887 30.0646 25.4307 29.8592 32.0682C29.8308 32.9879 29.808 34.1133 29.7908 35.1389C29.4246 35.0514 29.0495 34.9513 28.6631 34.8367Z" fill="#F4B396"/>
<path fill-rule="evenodd" clip-rule="evenodd" d="M66.7305 14.4096C66.5301 14.0902 64.0852 12.212 62.8878 11.3128L61.3551 10.2448C58.741 9.7128 56.0918 9.30763 53.0902 9.03915L59.7889 13.6533L66.7305 14.4096Z" fill="#F8C5AF"/>
<path d="M50.0633 9.46298L49.3403 9.3842C49.3403 9.3842 49.694 8.93827 49.707 8.68024C49.7187 8.44766 49.6063 8.32246 49.4719 8.1339C49.2631 7.84084 48.8522 7.7688 48.4906 7.72941C48.1749 7.69501 47.6197 7.87855 47.3027 7.89754C46.3884 7.95234 45.8731 7.97349 44.9578 7.93962C43.7659 7.89552 43.0757 7.91235 41.9209 7.60873C41.214 7.42287 40.8762 7.1132 40.1597 6.97048C39.7443 6.88775 39.5035 6.875 39.0831 6.85274L39.075 6.85231C38.5896 6.8266 38.2397 7.13213 37.8303 6.86547C37.5936 6.71125 37.3784 6.29549 37.3784 6.29549L37.9388 5.83581C37.9388 5.83581 38.4422 5.2029 38.8994 5.04779C39.0955 4.98124 39.2183 4.99709 39.421 4.95584C40.6664 4.70243 41.2062 3.94436 42.4683 3.80003C43.5972 3.67095 44.2498 3.87313 45.3606 4.11517C46.3518 4.33116 47.0458 4.26145 47.8372 4.90575C48.3075 5.28867 48.4274 5.65015 48.8056 6.12713C49.3603 6.8267 50.0455 7.03872 50.226 7.91849C50.3479 8.51231 50.0633 9.46298 50.0633 9.46298Z" fill="#9DBE98"/>
<path fill-rule="evenodd" clip-rule="evenodd" d="M37.4887 6.48051L39.6973 5.80922L42.5148 5.44668L45.5517 5.77757L47.8992 6.4053L49.3402 7.30621L50.0349 8.34899L49.7033 9.4235L49.3412 9.38404C49.3412 9.38404 49.6948 8.93811 49.7078 8.68008C49.7183 8.4722 49.6297 8.35011 49.5148 8.19187C49.5011 8.17307 49.4871 8.15376 49.4728 8.13374C49.264 7.84067 48.853 7.76864 48.4915 7.72925C48.304 7.70882 48.0321 7.76523 47.7758 7.81841C47.6004 7.85479 47.4323 7.88967 47.3036 7.89738C46.3893 7.95218 45.874 7.97333 44.9587 7.93946C44.8064 7.93382 44.6622 7.92918 44.5242 7.92474C43.5827 7.89442 42.929 7.87337 41.9218 7.60857C41.595 7.52265 41.3471 7.41027 41.1042 7.30015C40.8216 7.17208 40.5459 7.04706 40.1606 6.97032C39.7452 6.88759 39.5044 6.87484 39.084 6.85257L39.084 6.85257L39.0759 6.85215C38.8903 6.84232 38.7245 6.88091 38.5676 6.91743C38.3142 6.97643 38.084 7.03001 37.8312 6.86531C37.6991 6.77925 37.5737 6.61176 37.4887 6.48051Z" fill="#90AE8B"/>
<path d="M51.383 8.05001C51.1243 8.60863 50.9312 9.56299 50.9312 9.56299L51.6542 9.64177C51.6542 9.64177 51.928 9.18832 52.1655 8.95357C52.5444 8.57914 52.8508 8.47682 53.3354 8.26273C54.1838 7.88783 54.7461 7.94964 55.6544 7.77149C56.9874 7.51005 57.7652 7.51672 59.0813 7.17778C59.9814 6.94596 60.4242 6.51203 61.3512 6.45802C61.975 6.42168 62.3465 6.82388 62.942 6.63135C63.4778 6.45808 64.0627 5.71199 64.0627 5.71199L64.1169 5.19716C64.1169 5.19716 63.4944 5.5796 63.0504 5.60169C62.8235 5.61298 62.6965 5.5736 62.4719 5.53866C61.1757 5.33701 60.6721 4.48137 59.3988 4.16235C58.4061 3.91363 57.8076 3.72982 56.7957 3.87873C55.4002 4.0841 54.7241 4.73046 53.6142 5.61503C52.6083 6.41678 51.9278 6.87412 51.383 8.05001Z" fill="#9DBE98"/>
<path fill-rule="evenodd" clip-rule="evenodd" d="M63.9227 5.87429L62.7783 6.09183L61.283 5.70574L59.9324 5.33541L56.9213 5.45367L54.4112 6.37044L52.2239 7.69433L51.2479 9.59642L51.462 9.61976L51.693 9.57618C51.7776 9.44263 51.9816 9.13285 52.1643 8.95236C52.4954 8.62507 52.7713 8.50568 53.159 8.33784C53.2149 8.31366 53.2731 8.28847 53.3341 8.26152C53.9033 8.01003 54.3436 7.95506 54.8461 7.89234C55.0926 7.86156 55.3541 7.82892 55.6531 7.77028C56.2051 7.66201 56.6619 7.59972 57.1012 7.53983C57.7227 7.45509 58.309 7.37515 59.08 7.17657C59.4443 7.08275 59.7337 6.95582 60.0106 6.83437C60.4178 6.65574 60.7981 6.48896 61.3499 6.45681C61.6227 6.44092 61.8473 6.5089 62.0634 6.57432C62.3415 6.65851 62.6057 6.73847 62.9407 6.63014C63.3171 6.50844 63.7176 6.10417 63.9227 5.87429Z" fill="#90AE8B"/>
<path d="M50.0441 6.77774C50.1786 7.8392 49.7571 9.50266 49.7571 9.50266C49.7571 9.50266 50.1378 9.81635 50.4319 9.86631C50.7774 9.92499 51.3082 9.67165 51.3082 9.67165C51.3082 9.67165 51.449 7.98325 51.3131 6.91601C51.2232 6.2094 51.1163 5.82049 50.9304 5.13355C50.7527 4.47736 50.3915 3.47915 50.3915 3.47915C50.3915 3.47915 49.8843 3.49366 49.6563 3.68917C49.2752 4.01592 49.5204 4.97992 49.5204 4.97992C49.5204 4.97992 49.9521 6.05148 50.0441 6.77774Z" fill="#D29A81"/>
<ellipse cx="66.7622" cy="68.7732" rx="0.92623" ry="0.942108" fill="white"/>
<ellipse cx="22.3032" cy="69.7155" rx="0.92623" ry="0.942108" fill="white"/>
</svg>
