<svg width="117" height="177" viewBox="9 0 60 177" fill="none" xmlns="http://www.w3.org/2000/svg">
<path d="M11.079 164.434C10.1686 160.213 17.3649 156 20.5729 156L38 164.434C36.1359 166.931 31.8355 171.667 29.5465 170.637C27.2576 169.607 27.8992 168.023 28.5061 167.36C26.2952 169.037 21.3012 172.041 19.0122 170.637C16.7233 169.232 18.0585 165.916 19.0122 164.434C13.3939 167.243 11.3996 165.92 11.079 164.434Z" fill="#BC544B"/>
<path d="M62.0194 174.267C59.5699 171.55 62.1044 167.232 63.6779 165.412C69.1636 162.905 80.9007 158.425 83.9625 160.56C87.0243 162.695 87.1945 167.676 86.8968 169.9C85.8336 171.922 82.9929 175.965 80.1352 175.965C77.2775 175.965 77.3285 172.731 77.7113 171.113C76.8182 173.782 74.3943 176.329 71.9703 175.965C70.0312 175.674 69.7165 172.609 69.8015 171.113C68.2281 173.297 64.4688 176.984 62.0194 174.267Z" fill="#BC544B"/>
<path d="M2.75853 135.59C-4.38282 120.676 11.9439 105.649 21 100L18.93 131.522C10.3397 136.584 4.56974 136.343 2.75853 135.59Z" fill="#4A4673" stroke="#24205C"/>
<mask id="mask0_5374_2623" style="mask-type:alpha" maskUnits="userSpaceOnUse" x="7" y="90" width="110" height="85">
<path d="M7.89226 131.447C6.52777 123.707 15.0208 105.336 19.4379 97.1183L90.2863 91.4189L94.2223 97.1183C98.3157 105.495 102.838 116.249 104.587 120.579C105.007 125.88 107.998 131.536 109.442 133.7C116.264 138.048 116.395 141.432 115.608 142.581C113.684 146.248 108.392 154.51 102.619 158.221C96.8463 161.932 84.7321 167.543 79.3966 169.885C72.443 171.431 56.2266 174.392 46.99 173.861C37.7535 173.331 29.4966 170.018 26.5228 168.427C24.9046 167.499 20.1989 163.921 14.3211 157.028C6.97386 148.413 9.59786 141.123 7.89226 131.447Z" fill="#D9D9D9" stroke="black"/>
</mask>
<g mask="url(#mask0_5374_2623)">
<path d="M9.14094 127.951C9.78085 120.8 16.1918 104.12 20.5608 96.6204L90.6369 91.4189L94.53 96.6204C98.5789 104.265 103.052 114.08 104.782 118.031C105.197 122.87 108.156 128.031 109.583 130.007C116.331 133.975 115.034 138.144 114.255 139.193C112.352 142.539 106.728 150.08 101.019 153.467C95.3087 156.854 85.1433 160.893 79.8659 163.031C72.3392 166.078 57.4156 166.659 47.8126 166.659C38.662 166.659 30.5098 163.151 27.5684 161.7C23.9347 159.907 19.1822 155.281 15.4997 151.297C8.23255 143.434 8.36221 136.653 9.14094 127.951Z" fill="#4A4673"/>
<path d="M22.0488 131.036C21.4019 118.584 28.7209 104.156 32.4612 98.499L62.7189 99.8409L62.7734 99.9641C64.7476 104.426 68.8236 113.638 71.5706 124.914C74.3431 136.296 71.1494 145.298 68.8463 149.226C67.136 152.143 64.8434 158.241 53.6601 159.007C42.4768 159.773 33.003 155.543 29.664 153.333C23.5721 149.3 22.6956 143.488 22.0488 131.036Z" fill="#FCE6C6"/>
</g>
<path d="M101.926 137.988C87.0814 138.731 79.0407 118.306 76.8759 108C75.6036 110.335 75.9923 115.254 76.3458 117.421C76.7434 120.34 78.6095 129.241 84.1231 136.459C89.6367 143.678 99.1865 143.251 103.118 142.765C104.4 140.774 107.227 136.077 108.287 133.211C109.348 130.345 108.994 128.125 108.685 127.373L101.926 137.988Z" fill="#24205C"/>
<path d="M102.711 140.081C79.4451 138.553 75.5957 117.718 76.5792 107.491C81.8563 96.5806 91.1702 98.5917 95.1675 100.961C116.839 117.547 109.226 133.952 102.711 140.081Z" fill="#4A4673"/>
<path d="M18 100.541L19.95 97C21.51 98.0745 27.9667 99.5642 31 100.175L28.27 105C26.086 105 20.73 101.721 18 100.541Z" fill="#24205C"/>
<path d="M30.8276 100L28 105.232C40.2905 109.565 58.7677 107.876 66 106.409C65.7844 105.326 64.3838 102.257 63.8448 100.846L30.8276 100Z" fill="#EBDBB0"/>
<path d="M65.2368 106L63 100.802L91.0263 92L93 94.7358C88.4737 100.54 72.7368 105.088 65.2368 106Z" fill="#24205C"/>
<mask id="mask1_5374_2623" style="mask-type:alpha" maskUnits="userSpaceOnUse" x="3" y="25" width="107" height="78">
<path d="M45.2275 25.5269C6.32934 28.9517 1.78354 61.4608 4.37292 77.2873C1.15058 82.3725 6.19508 89.9571 9.12011 93.1137C12.0452 96.2704 18.5377 99.9663 35.1577 101.805C58.606 104.4 86.2079 98.725 94.7134 91.8165C114.997 75.3414 109.387 52.2071 104.352 43.6885C100.851 36.2076 84.1257 22.1022 45.2275 25.5269Z" fill="#D9D9D9"/>
</mask>
<g mask="url(#mask1_5374_2623)">
<path d="M45.2275 25.5265C6.32934 28.9512 1.78354 61.4603 4.37292 77.2868C1.15058 82.372 6.19508 89.9566 9.12011 93.1132C12.0452 96.2699 18.5377 99.9658 35.1577 101.805C58.606 104.399 86.2079 98.7246 94.7134 91.816C114.997 75.3409 104.783 53.8849 99.7483 45.3663C96.2478 37.8855 84.1257 22.1017 45.2275 25.5265Z" fill="#4A4673"/>
<path d="M5.47604 75.6C5.43048 75.6574 5.38611 75.7144 5.34292 75.7708C4.62398 76.7098 3.82644 77.6163 2.96442 78.4259C-7.58198 88.3312 16.3398 104.773 32.2237 113.158C33.9097 114.048 35.8854 114.157 37.6813 113.517L76.0124 99.8594C82.342 96.9973 86.1685 91.9721 88.8154 87.4058C90.9257 83.7654 92.9872 78.9737 92.9872 75.9818C92.9872 72.99 94.2819 68.9767 89.6785 60.4148C85.6704 52.96 79.8964 49.7775 76.0124 47.9613C71.2652 45.7414 67.6688 44.8511 58.7499 46.6721C55.8916 47.2557 53.1006 48.2307 50.6998 49.3824C47.0172 51.149 42.1977 50.8429 38.4531 49.2117C37.4593 48.7788 36.291 48.3659 34.8701 47.9613C29.4037 46.4046 20.1969 48.3585 15.162 52.3719C9.93857 56.5356 8.8162 62.2442 8.92797 67.2469C8.99626 70.3037 7.37632 73.2047 5.47604 75.6Z" fill="#FCE6C6"/>
<path d="M38.9031 75.3735C35.0557 77.5629 34.8597 80.1369 35.7914 81.6171C35.6533 83.362 38.5409 84.1807 39.3037 84.3595C40.7912 84.708 44.0869 84.8865 47.5809 84.3259C51.0749 83.7653 52.6765 82.279 53.0406 81.606C53.5537 79.5401 53.9417 77.2462 52.5008 75.3736C51.3719 73.9064 49.0748 73.9063 46.1457 73.9063L46.1442 73.9063C43.4945 73.9062 41.4814 73.9063 38.9031 75.3735Z" fill="#BC544B"/>
<path d="M50.5399 79.6501C47.1695 81.1317 39.6369 83.6101 36.47 81.6703" stroke="#562528" stroke-width="1.6" stroke-linecap="round"/>
<ellipse cx="5.17171" cy="4.34993" rx="5.17171" ry="4.34993" transform="matrix(0.933053 -0.35974 0.385726 0.922613 15.5938 69.9736)" fill="#562528"/>
<ellipse cx="5.23435" cy="4.69684" rx="5.23435" ry="4.69684" transform="matrix(-0.915608 -0.402071 -0.433858 0.900981 77.0142 68.9053)" fill="#562528"/>
</g>
<path d="M26.7179 14.0914C25.5685 18.4255 26.5153 35.4584 26.5153 35.4584L79.1986 35.9579C79.1986 35.9579 79.7626 21.4324 78.6191 16.1505C77.4756 10.8687 77.3173 9.58503 73.0095 5.34162C68.7017 1.09821 59.0747 0.365856 52.3401 0.302012C45.6055 0.238167 39.2042 0.996555 33.5396 4.96739C27.8751 8.93822 27.2588 12.0518 26.7179 14.0914Z" fill="#F3C66D"/>
<path fill-rule="evenodd" clip-rule="evenodd" d="M37.632 31.9313C37.632 31.9313 37.6633 24.2279 37.7259 22.0312C37.7404 21.522 37.7511 21.0289 37.7615 20.5474L37.7615 20.5473C37.8213 17.7926 37.8729 15.4175 38.5829 12.5658C39.1913 10.1227 39.9589 8.50542 40.9206 6.47916C41.1753 5.94253 41.4436 5.37723 41.7261 4.76029C42.0152 4.12926 42.3063 3.30831 42.596 2.4915L42.596 2.49149L42.596 2.49147C42.7789 1.97591 42.9612 1.46199 43.1419 0.998523C43.504 0.928216 43.8678 0.864251 44.2332 0.806184C43.8246 2.23182 43.2587 4.2024 42.8256 5.69671C42.5198 6.75178 42.2232 7.63391 41.9424 8.46936L41.9424 8.46946L41.9423 8.4695L41.9423 8.46956C41.4401 9.96363 40.988 11.3084 40.6228 13.2262C40.1043 15.9492 40.0587 17.7496 39.9985 20.1227C39.9833 20.7214 39.9672 21.3566 39.9423 22.0522C39.8639 24.2485 39.8485 31.9523 39.8485 31.9523L37.632 31.9313ZM48.2915 0.384596C48.3885 1.62897 48.5157 3.45579 48.546 4.82496C48.5712 5.96142 48.5528 6.7741 48.5322 7.68303L48.5322 7.68313L48.5322 7.68323L48.5322 7.68332L48.5322 7.68341L48.5322 7.68349C48.5211 8.17583 48.5093 8.69643 48.5034 9.31204L48.4244 17.6452C48.2644 19.5431 47.9381 23.98 47.9381 23.98C47.9381 23.98 46.726 31.9225 46.4857 33.2974L48.6994 33.6033C48.6994 33.6033 49.8542 25.9781 49.984 23.9994C50.0892 22.3965 50.0734 21.2477 50.0556 19.9629L50.0556 19.9629L50.0556 19.9629L50.0557 19.9628L50.0557 19.9628L50.0557 19.9628C50.0461 19.2666 50.0359 18.5305 50.0442 17.6605C50.055 16.517 50.0938 15.5495 50.1305 14.6345L50.1305 14.6344L50.1305 14.6344L50.1305 14.6344L50.1305 14.6344L50.1305 14.6343C50.1982 12.9455 50.2588 11.4355 50.1232 9.32739C50.0101 7.56926 49.8938 6.58508 49.6542 4.83546C49.4642 3.44802 49.1192 1.60014 48.876 0.355391C48.6808 0.364026 48.486 0.373741 48.2915 0.384596ZM53.6443 0.323005C54.215 1.56281 55.0504 3.45142 55.5363 4.89124C56.2648 7.04985 56.5288 8.32368 56.9754 10.4783L56.9754 10.4784L57.0161 10.6749C57.4504 12.7695 57.6208 14.0678 57.8723 15.9845L57.8725 15.9858L57.8734 15.9932C57.9075 16.2529 57.9431 16.5239 57.981 16.8098C58.0487 17.3205 58.1135 17.7868 58.1745 18.2264C58.4224 20.0114 58.6092 21.3562 58.6854 23.4409C58.7485 25.1648 58.8466 33.4146 58.8466 33.4146L60.8134 32.7922C60.8204 32.0551 60.7751 30.0908 60.7298 28.1263L60.7298 28.1258L60.7298 28.1258L60.7298 28.1257L60.7298 28.1256C60.6845 26.161 60.6391 24.1965 60.6461 23.4595C60.6461 23.4595 60.2006 19.4081 59.7712 16.8268C59.3476 14.28 59.0529 12.8575 58.4687 10.3325C58.3318 9.74096 58.2244 9.2185 58.1235 8.7281C57.8614 7.45415 57.6439 6.39649 57.0708 4.90579C56.5094 3.44542 55.4494 1.58407 54.7072 0.353133C54.3478 0.340796 53.9932 0.330868 53.6443 0.323005ZM60.5511 0.787271C61.4044 1.86314 62.9328 3.85805 63.8013 5.39698C64.9396 7.4138 65.375 8.62544 66.1376 10.7614C67.2102 13.7653 67.6988 15.5013 68.1093 18.6154C68.3723 20.6099 69.1907 30.4498 69.1907 30.4498L71.4944 30.2579C71.4944 30.2579 70.4666 20.0642 70.0774 17.8505L70.036 17.6145C69.4795 14.4458 69.1474 12.5552 67.7695 9.49471C66.8143 7.37322 66.1814 6.19274 64.7499 4.2663C63.9441 3.1819 62.6694 1.83572 61.8025 0.955106C61.3866 0.893876 60.969 0.838079 60.5511 0.787271ZM68.7164 2.69471C69.387 3.62241 70.2942 4.92761 70.8722 5.96263C72.4458 8.78015 72.9806 10.5067 73.7843 13.5406C74.1595 14.9569 74.316 15.9452 74.5031 17.1261C74.578 17.5993 74.6579 18.1034 74.7587 18.6784C74.9116 19.5507 75.0645 20.3128 75.2081 21.0283L75.2081 21.0284C75.5676 22.8201 75.8685 24.3194 75.9631 26.5251C76.0263 27.9986 75.9273 30.3 75.9273 30.3L77.8007 30.5314L77.8386 26.5429C77.8386 26.5429 76.8721 20.5742 76.3858 17.9103L76.3798 17.8773L76.3798 17.8773C75.8989 15.243 75.8237 14.8313 75.2396 12.9133C75.1823 12.7252 75.1268 12.542 75.0726 12.3631L75.0712 12.3586C74.2653 9.69939 73.7503 8.00001 72.0704 5.47538C71.6803 4.88902 71.1494 4.21773 70.6281 3.597C70.031 3.26447 69.3908 2.96475 68.7164 2.69471ZM38.5344 2.30722C37.862 3.37578 37.1195 4.61285 36.6025 5.6377C35.1687 8.47985 34.4577 10.1373 33.7177 13.1607C33.2103 15.2341 33.1567 16.787 33.0986 18.4694C33.0619 19.5345 33.0233 20.6514 32.8667 21.9852C32.6382 23.932 32.2106 28.2472 32.2106 28.2472L30.8466 28.2342C30.8466 28.2342 31.2036 23.9169 31.4175 21.9714C31.5532 20.7378 31.5945 19.6887 31.6336 18.6952C31.7037 16.9144 31.7667 15.3125 32.3537 13.1478C33.1791 10.1043 33.8831 8.40597 35.5795 5.628C36.1546 4.68623 36.9763 3.5977 37.765 2.61994C38.0204 2.51099 38.2768 2.4068 38.5344 2.30722Z" fill="#E2AE4A"/>
<path fill-rule="evenodd" clip-rule="evenodd" d="M26.1656 25.2346C29.5733 25.8752 34.9284 26.7826 38.949 27.0005C40.2493 27.071 41.4696 27.1579 42.6343 27.2409C48.2692 27.6423 52.5995 27.9507 58.3726 25.8527C63.1354 24.1218 66.1827 22.8416 69.0328 19.2154C71.2419 16.4048 71.566 15.4615 71.5813 12.0939C71.5906 10.0503 70.8575 8.78069 69.9272 7.16934C69.6819 6.74439 69.4228 6.29566 69.16 5.8027C68.3007 4.19081 66.6032 2.7307 64.5999 1.46249C60.5403 0.570213 56.0103 0.33681 52.3396 0.302012C45.605 0.238167 39.2037 0.996555 33.5391 4.96739C28.1055 8.77634 27.3169 11.7965 26.7843 13.8366C26.7616 13.9233 26.7395 14.0082 26.7174 14.0914C26.1889 16.0843 26.1036 20.7623 26.1656 25.2346Z" fill="#F7D674"/>
<path fill-rule="evenodd" clip-rule="evenodd" d="M49.6248 27.518C48.8916 27.5384 48.1566 27.5348 47.4113 27.5145C47.6529 25.9662 47.9379 23.9809 47.9379 23.9809C47.9379 23.9809 48.2642 19.544 48.4243 17.646L48.5033 9.31288C48.5091 8.69724 48.5209 8.17661 48.5321 7.68424L48.5321 7.68416L48.5321 7.68407L48.5321 7.68397L48.5321 7.68387C48.5526 6.77495 48.571 5.96226 48.5458 4.8258C48.5155 3.45601 48.3882 1.62817 48.2912 0.383757C48.4856 0.372904 48.6804 0.363191 48.8756 0.354557C49.1188 1.59932 49.464 3.44824 49.6541 4.83631C49.8937 6.58592 50.0099 7.5701 50.123 9.32824C50.2586 11.4364 50.1981 12.9464 50.1303 14.6352L50.1303 14.6352L50.1303 14.6352L50.1303 14.6353L50.1303 14.6353C50.0936 15.5503 50.0548 16.5178 50.044 17.6614C50.0357 18.5313 50.0459 19.2674 50.0555 19.9636L50.0555 19.9637L50.0555 19.9637L50.0555 19.9637L50.0555 19.9637C50.0732 21.2486 50.089 22.3974 49.9839 24.0003C49.9136 25.0725 49.7552 26.4661 49.6248 27.518ZM60.6313 25.0073C60.019 25.2473 59.376 25.487 58.6979 25.7348C58.7088 24.9713 58.7104 24.1295 58.6853 23.4417C58.609 21.3571 58.4223 20.0124 58.1744 18.2274L58.1744 18.2274L58.1744 18.2273L58.1744 18.2272C58.1133 17.7876 58.0486 17.3213 57.9808 16.8107C57.9425 16.5219 57.9067 16.2484 57.8723 15.9864L57.8721 15.9854C57.6206 14.0687 57.4503 12.7704 57.0159 10.6757L56.9752 10.4792L56.9752 10.4791L56.9752 10.4791C56.5287 8.32447 56.2647 7.05065 55.5362 4.89208C55.05 3.4516 54.2141 1.5619 53.6434 0.322125C53.9921 0.329983 54.3467 0.339905 54.706 0.352233C55.4482 1.58316 56.509 3.44557 57.0706 4.90663C57.6437 6.39733 57.8613 7.45499 58.1233 8.72894C58.2242 9.21935 58.3317 9.7418 58.4685 10.3334C59.0528 12.8583 59.3474 14.2808 59.7711 16.8276C60.2004 19.409 60.646 23.4603 60.646 23.4603L60.6313 25.0073ZM70.0727 17.825C69.7837 18.2431 69.4405 18.6977 69.0333 19.2158C68.7767 19.5424 68.5184 19.85 68.2574 20.1405C68.2189 19.6065 68.1704 19.0804 68.1092 18.6162C67.6986 15.5021 67.21 13.7661 66.1375 10.7622C65.3749 8.62629 64.9395 7.41464 63.8012 5.39782C62.9321 3.85798 61.4024 1.86162 60.5494 0.786207C60.9672 0.836982 61.3846 0.892741 61.8003 0.953928C62.6673 1.83451 63.9433 3.18191 64.7497 4.26714C66.1813 6.19359 66.8142 7.37406 67.7694 9.49555C69.1473 12.556 69.4793 14.4466 70.0358 17.6154L70.0727 17.825ZM44.2336 0.805278C43.8249 2.23105 43.2587 4.20263 42.8254 5.69755C42.5196 6.75271 42.223 7.6349 41.9422 8.47041L41.9422 8.47042C41.4399 9.96448 40.9878 11.3093 40.6227 13.227C40.1042 15.95 40.0585 17.7505 39.9983 20.1236C39.9831 20.7223 39.967 21.3575 39.9422 22.0531C39.8843 23.6729 39.8828 25.9639 39.886 27.0551C39.5783 27.0362 39.2663 27.0181 38.9495 27.0009C38.5366 26.9785 38.1096 26.9489 37.672 26.913C37.673 25.7807 37.6812 23.5944 37.7257 22.0321C37.7402 21.5228 37.7509 21.0297 37.7614 20.5482L37.7614 20.5482C37.8212 17.7934 37.8727 15.4183 38.5828 12.5666C39.1911 10.1235 39.9587 8.50626 40.9204 6.47999L40.9205 6.47986L40.9205 6.47981L40.9206 6.47965L40.9207 6.47943L40.9207 6.47938C41.1753 5.94294 41.4435 5.37783 41.726 4.76114C42.015 4.1301 42.3062 3.30916 42.5959 2.49234L42.5959 2.49233L42.5959 2.49231C42.779 1.97608 42.9615 1.4615 43.1425 0.997566C43.5045 0.927278 43.8682 0.86333 44.2336 0.805278ZM37.7669 2.61832C38.022 2.50947 38.2782 2.4054 38.5356 2.30591C37.8628 3.37496 37.1197 4.61301 36.6023 5.63854C35.1685 8.4807 34.4575 10.1381 33.7176 13.1616C33.2101 15.2349 33.1565 16.7878 33.0985 18.4703C33.0617 19.5353 33.0232 20.6523 32.8666 21.986C32.7057 23.3562 32.4523 25.2645 32.3163 26.2748C31.8596 26.2074 31.406 26.1379 30.959 26.0673C31.0773 25.0203 31.2759 23.2582 31.4174 21.9723C31.5531 20.7387 31.5943 19.6895 31.6334 18.6961C31.7035 16.9153 31.7665 15.3133 32.3536 13.1486C33.179 10.1051 33.883 8.40681 35.5794 5.62884C36.1549 4.68628 36.9776 3.59671 37.7669 2.61832Z" fill="#F3C66D"/>
<path d="M21.2034 29.1403C21.8621 27.9824 22.6364 27.5008 24.1207 27.1735C26.5983 26.6272 26.4964 26.9776 28.7917 27.2178C32.5723 27.6135 34.4518 28.75 38.0833 29.7192C40.7541 30.4319 42.7362 30.6136 45.4829 31.08C50.322 31.9017 51.8212 31.9324 56.7322 31.5428C60.9095 31.2114 63.5588 30.5703 67.7421 30.2938C71.3112 30.058 74.9475 29.2991 78.4009 30.1014C80.3861 30.5626 80.5439 30.7671 82.1118 31.8862C83.7141 33.0299 83.9098 34.4544 84.2042 36.5977L84.2208 36.7183C84.542 39.0534 83.6319 40.9095 82.0081 42.8231C80.3141 44.8196 79.0512 44.6162 76.3781 45.6189C72.4711 47.0844 68.2733 46.761 64.0023 47.0686C57.8795 47.5096 56.2417 47.2813 50.1068 46.9369C43.8479 46.5855 41.1907 46.5546 35.118 45.2277C30.3243 44.1802 31.4584 44.5519 25.8503 42.5756C24.2322 42.0053 21.3828 40.4115 20.7685 39.0371C19.9488 37.2031 20.115 36.0292 20.1335 34.0738C20.1503 32.3069 20.2966 30.7341 21.2034 29.1403Z" fill="#F3C66D"/>
<path fill-rule="evenodd" clip-rule="evenodd" d="M29.0914 43.7119C28.6667 43.567 28.1708 43.3938 27.5661 43.1811L26.7295 39.8772L26.768 35.8175L27.7536 30.7695L30.0018 27.443L30.3927 27.4467C30.7191 27.5062 31.0321 27.5716 31.3355 27.6421L29.2002 31.0681L28.0467 35.8296L28.0075 39.9605L29.0914 43.7119ZM38.1619 45.8387C37.6207 45.7418 37.0551 45.6334 36.4565 45.5116L35.5019 40.8151L35.5607 34.6187L36.659 29.3082C37.1035 29.4462 37.5717 29.5834 38.0734 29.7175L37.0126 34.3475L37.1216 40.8305L38.1619 45.8387ZM47.3386 46.7867C46.7659 46.7553 46.2224 46.7245 45.699 46.6924L45.0389 42.0452L45.0929 36.3474L45.8802 31.148C46.4668 31.2459 47.0034 31.3315 47.5035 31.4055L46.8013 36.0074L46.7472 41.7053L47.3386 46.7867ZM58.4263 47.3131C57.9963 47.314 57.5782 47.3097 57.161 47.3007L57.9966 42.1681L58.0324 38.3932L57.1829 31.5067C57.529 31.4767 57.8649 31.4446 58.1924 31.4108L59.5817 36.8409L59.5385 41.3992L58.4263 47.3131ZM69.6686 46.8194C69.0251 46.8545 68.3776 46.8788 67.7267 46.9013L68.9084 42.2716L69.641 36.9363L67.6627 30.3004C67.6894 30.2986 67.7161 30.2968 67.743 30.295C68.2633 30.2607 68.785 30.2152 69.3074 30.165C69.8935 31.4038 71.2109 34.4021 71.3493 36.5963C71.4392 38.0215 71.2564 38.9816 71.0321 40.1592C70.9536 40.5717 70.87 41.0108 70.7912 41.5059C70.5115 43.2644 69.9262 45.7544 69.6686 46.8194ZM78.6519 44.8928C78.5414 44.9257 78.4283 44.9589 78.3123 44.9929C77.8368 45.1322 77.3121 45.286 76.7146 45.4977C76.8586 44.6968 77.0469 43.5309 77.0888 42.7053C77.1587 41.3288 77.1347 37.8621 77.1347 37.8621C77.1347 37.8621 76.7572 35.7216 76.6502 35.0083C76.5433 34.295 74.7361 30.0753 74.7361 30.0753L75.8322 29.7633C75.9799 29.7701 76.1274 29.7787 76.2747 29.7894C76.6245 30.3182 77.9542 32.3792 78.4513 33.8857C78.8717 35.1601 78.9498 35.9469 79.074 37.1976L79.0995 37.4533C79.2913 39.3665 79.2455 40.4557 79.0529 42.3677C78.9758 43.133 78.8068 44.097 78.6519 44.8928Z" fill="#E2AE4A"/>
<path fill-rule="evenodd" clip-rule="evenodd" d="M24.1205 27.1728C22.6362 27.5002 21.862 27.9817 21.2032 29.1396C20.2964 30.7334 20.1501 32.3063 20.1334 34.0732C20.1307 34.3491 20.1252 34.6096 20.1199 34.8584C20.0875 36.3731 20.0643 37.4613 20.7683 39.0364C21.3826 40.4109 24.232 42.0046 25.8501 42.5749C28.872 43.6398 29.9363 44.023 31.0252 44.3138C31.9572 44.5627 32.9072 44.744 35.1179 45.227C40.5737 46.4192 43.2727 46.5652 48.3036 46.8374C48.8723 46.8681 49.4709 46.9005 50.1067 46.9362C50.963 46.9843 51.7318 47.0301 52.4373 47.0721C56.2328 47.2983 58.1995 47.4155 62.1407 47.1895C64.4487 46.2043 66.74 44.8929 67.9604 43.2592C68.17 42.9786 68.38 42.7106 68.5837 42.4507C69.7539 40.9574 70.718 39.7271 70.2282 37.8672C69.9121 36.6672 69.2668 36.043 68.3707 35.1762C68.264 35.073 68.1537 34.9663 68.0401 34.8548C65.9926 32.847 61.1681 31.2994 61.1681 31.2994L60.3542 31.1534C59.2358 31.2999 58.0613 31.4367 56.7321 31.5421C51.821 31.9317 50.3218 31.901 45.4827 31.0793C44.7056 30.9474 43.9897 30.8382 43.3021 30.7334C41.5594 30.4676 39.9983 30.2296 38.0831 29.7185C36.793 29.3742 35.724 29.0088 34.7124 28.663C32.8763 28.0353 31.229 27.4722 28.7915 27.2171C28.5535 27.1922 28.3412 27.1661 28.1491 27.1399L24.4383 27.1047C24.3372 27.1257 24.2315 27.1484 24.1205 27.1728Z" fill="#F7D674"/>
<path fill-rule="evenodd" clip-rule="evenodd" d="M30.4024 27.4471L30.0014 27.4433C30.0014 27.4433 28.3882 29.3749 27.7532 30.7697C27.0424 32.3309 26.958 33.4189 26.8431 34.8997C26.8207 35.1886 26.7971 35.4925 26.7675 35.8177L26.7517 35.9909C26.6169 37.4661 26.5353 38.3588 26.729 39.8775C26.8704 40.986 27.3441 42.546 27.5434 43.1719C28.146 43.3838 28.6409 43.5567 29.0651 43.7016C28.8196 43.0382 28.1836 41.2398 28.0071 39.9608C27.7857 38.3575 27.8612 37.4352 28.0462 35.8299C28.2639 33.9408 28.4167 32.8483 29.1997 31.0684C29.7416 29.8365 30.9218 28.1787 31.3179 27.6366C31.023 27.5684 30.719 27.5049 30.4024 27.4471ZM36.6433 29.302C36.4165 30.1792 35.7632 32.7981 35.5602 34.619C35.2916 37.0278 35.2491 38.4039 35.5015 40.8154C35.663 42.3588 36.1791 44.5222 36.4261 45.504C37.0263 45.6263 37.5932 45.7352 38.1357 45.8326C37.8816 44.8253 37.3181 42.4883 37.1212 40.8308C36.8218 38.3104 36.7119 36.8664 37.0121 34.3478C37.1972 32.7953 37.7932 30.6072 38.0494 29.7097C37.5509 29.5761 37.0854 29.4394 36.6433 29.302ZM45.8719 31.1452C45.7296 31.8928 45.2402 34.5401 45.0925 36.3476C44.911 38.5672 44.8824 39.8236 45.0384 42.0455C45.1466 43.586 45.5192 45.7804 45.6813 46.6899C46.2063 46.7221 46.7515 46.753 47.3259 46.7845C47.1926 45.8886 46.8405 43.4167 46.7468 41.7056C46.625 39.4822 46.6081 38.2266 46.8008 36.0077C46.9404 34.3994 47.3771 32.0362 47.4972 31.4031C46.9965 31.329 46.4592 31.2433 45.8719 31.1452ZM57.1911 31.5044C57.334 32.3284 57.9428 35.9518 58.0319 38.3935C58.0857 39.8672 58.0952 40.6967 57.9961 42.1684C57.8862 43.8014 57.4672 46.0334 57.209 47.3002C57.6248 47.3088 58.0418 47.3128 58.4711 47.3115C58.7824 46.0088 59.3822 43.3274 59.538 41.3995L59.543 41.338C59.6835 39.6002 59.7647 38.5946 59.5812 36.8412C59.3865 34.9805 58.5384 32.3451 58.2215 31.4062C57.8874 31.4408 57.5445 31.4737 57.1911 31.5044ZM69.6091 36.5229C69.6235 36.6635 69.6341 36.8016 69.6405 36.9365C69.7159 38.5289 69.4839 39.5857 69.1935 40.9089L69.1935 40.9089L69.1935 40.909L69.1935 40.9092L69.1934 40.9094C69.1214 41.2373 69.0459 41.5816 68.9705 41.9544C69.9534 40.6722 70.6632 39.5177 70.2286 37.8676C70.0864 37.3276 69.8775 36.9042 69.6091 36.5229Z" fill="#F3C66D"/>
</svg>
