<svg width="151" height="167" viewBox="0 0 151 167" fill="none" xmlns="http://www.w3.org/2000/svg">
<path d="M0.750389 89.7242C-1.29286 101.334 10.6891 107.745 20.1286 110.434C23.3158 111.342 26.5572 109.717 28.4683 107.009C28.803 106.535 29.1499 106.059 29.5033 105.592C30.9923 103.626 31.9328 101.171 31.2966 98.7883C30.1748 94.5876 28.3149 91.4765 27.3316 90.2477C26.8672 75.4961 19.739 72.4229 15.3672 72.7167C14.6304 72.7662 13.8909 72.8206 13.1575 72.9062C9.3778 73.347 2.97715 77.0717 0.750389 89.7242Z" fill="#50776F"/>
<path d="M14.2313 97.688C22.8597 102.105 27.3449 94.5455 27.2087 90.2185C37.831 106.152 27.2087 107.096 27.2087 107.096C27.2087 107.096 13.9463 105.562 11.5112 99.7787C8.67859 93.0512 9.66515 86.2475 15.1542 86.9633C9.65347 89.917 11.6292 96.3559 14.2313 97.688Z" fill="#3E5155"/>
<path d="M111.991 149.404C102.199 148.561 103.268 139.304 101.24 138.173C106.576 135.438 113.572 122.803 116.964 119.269C116.915 122.633 117.861 136.261 116.517 142.932C115.173 149.603 114.259 149.599 111.991 149.404Z" fill="#50776F"/>
<path d="M109.31 133.892C102.015 140.467 89.3469 140.111 82.4924 141.298C76.9773 142.253 67.648 143.101 60.8277 142.514C55.6537 142.069 47.3338 140.737 38.0429 137.473C28.7519 134.21 24.4156 126.508 23.4088 123.064C23.1484 121.816 23.0031 120.575 22.9581 119.353C22.6115 109.949 28.2007 101.623 32.9522 98.8902C38.6662 95.6037 39.4276 94.7152 40.6494 93.2894L40.6616 93.2751C84.1254 99.195 103.072 95.3289 110.877 90.9066C112.042 102.142 116.874 103.269 117.214 117.751C117.443 127.484 113.933 129.725 109.31 133.892Z" fill="#50776F"/>
<path d="M95.5421 139.697C95.2285 139.73 90.719 140.306 86.8931 140.79C83.7513 141.187 80.365 141.177 77.865 139.234C72.0144 134.685 71.8392 125.71 68.7154 118.211C62.1963 104.487 60.7337 100.926 62.691 98.7386C64.426 96.7999 95.5803 92.8002 102.638 91.9162L102.725 91.9053C103.651 91.7892 104.568 91.6741 105.499 91.7462C107.436 91.8962 107.616 93.4067 106.033 106.103C105.32 111.828 104.932 108.963 105.569 118.383C106.753 135.899 101.957 138.116 101.957 138.116C101.957 138.116 99.2482 139.305 95.5421 139.697Z" fill="#FCEDC6"/>
<path d="M51.939 132.469L51.5287 132.367C47.0814 131.262 42.7351 134.502 42.525 139.08C49.6164 142.295 55.6577 142.595 58.2421 142.279L57.6008 138.559C57.0883 135.586 54.867 133.197 51.939 132.469Z" fill="#FCEDC6"/>
<path d="M29.4677 85.6783C35.8331 92.1018 45.2276 95.7217 49.1292 96.7288C54.8718 98.3681 69.4494 101.226 81.8196 99.5419C94.1898 97.8581 109.612 92.733 114.376 90.142C120.093 87.0405 130.28 79.3326 130.921 68.584C131.562 57.8354 128.257 56.864 123.446 45.3145C122.955 35.6058 122.16 31.622 121.982 29.5534C121.729 27.9126 120.818 23.8984 115.255 22.4719C109.692 21.0454 104.696 25.5095 103.688 27.1207L95.8416 35.7129C83.3584 29.9001 63.7594 32.7151 55.5204 34.8492C48.8777 29.4443 43.0378 27.1016 40.9481 26.6059C38.8652 26.0318 34.0188 26.4598 31.2965 32.7646C28.5743 39.0695 29.9333 49.9823 30.9532 54.6506C30.0933 57.3012 28.0991 63.3133 27.0014 66.1568C25.6294 69.711 21.5109 77.6489 29.4677 85.6783Z" fill="#50776F"/>
<path d="M45.5531 70.8333C37.096 67.3262 29.1318 70.4853 25.9042 72.9271C25.2103 73.452 24.7382 74.2157 24.6621 75.0825C24.5822 75.9928 24.6418 77.2464 25.0956 78.6682C26.0287 81.5916 27.2311 82.7613 28.823 84.9121C30.0964 86.6328 33.6171 89.3129 35.2183 90.4379C36.4118 91.2513 40.4734 93.5199 47.1707 96.0864C55.5424 99.2946 69.3289 100.478 75.9464 100.34C82.5922 100.201 89.7191 98.629 92.9682 98.0136C95.9788 97.4435 104.662 94.2814 108.812 92.8616C112.962 91.4418 120.335 86.9824 125.447 81.2623C127.887 78.5318 129.261 75.4227 129.979 72.8814C130.675 70.419 129.269 68.0175 126.861 67.1523C124.278 66.2245 121.163 65.3751 118.894 65.1798C109.912 64.4069 102.156 71.0842 97.5173 68.5526C93.806 66.5274 92.1531 60.6806 89.2419 58.7189C79.5678 52.2002 69.8204 56.8107 66.156 59.9308C61.0429 64.2843 55.0695 74.7796 45.5531 70.8333Z" fill="#FCEDC6"/>
<path d="M38.0655 95.7657C38.8209 95.2936 39.9933 93.9166 40.544 93.2871C49.396 97.418 54.5892 98.5983 62.1428 99.5425C61.4818 100.298 61.9854 102.532 62.2608 103.437C46.2093 101.549 37.1213 96.3558 38.0655 95.7657Z" fill="#3E5155"/>
<path d="M62.3797 103.438C61.6243 101.644 61.9076 100.054 62.1436 99.5428C79.0449 102.659 99.0858 96.8675 106.994 93.5234C107.182 94.09 107.072 96.3561 106.994 97.4183C87.7317 106.011 69.2252 105.011 62.3797 103.438Z" fill="#EBDBB0"/>
<path d="M46.0514 49.908C43.043 51.8288 44.4138 53.7948 46.5305 53.977C49.3566 54.2202 51.5071 53.6067 52.9626 52.6509C55.0765 51.2628 53.8143 48.4534 51.2855 48.47C49.5417 48.4814 47.6134 48.9107 46.0514 49.908Z" fill="#FBEDC6"/>
<path d="M109.371 47.8139C112.007 50.2204 110.321 51.9233 108.204 51.7412C105.378 51.498 103.364 50.5261 102.093 49.3357C100.247 47.6068 101.971 45.0544 104.46 45.5028C106.176 45.8119 108.002 46.5644 109.371 47.8139Z" fill="#FBEDC6"/>
<path d="M42.4847 34.9118C36.0889 31.0444 37.1111 41.8335 38.4217 47.7114L49.7436 40.038C49.9889 39.9406 48.8806 38.7791 42.4847 34.9118Z" fill="#FCDB8A"/>
<path d="M115.124 27.7769C112.44 25.9347 107.958 33.0438 106.053 36.8286L117.342 37.8C117.721 35.2265 117.809 29.619 115.124 27.7769Z" fill="#FCDB8A"/>
<ellipse cx="50.6202" cy="60.134" rx="4.48499" ry="4.13091" transform="rotate(4.91842 50.6202 60.134)" fill="#562528"/>
<ellipse cx="107.1" cy="59.0705" rx="4.48499" ry="4.13091" transform="rotate(4.91842 107.1 59.0705)" fill="#562528"/>
<path d="M75.5599 83.2866C72.2068 82.9981 71.0044 79.7975 70.9956 77.2981C71.7149 77.2584 74.292 77.4792 75.6971 76.1226C77.1857 74.6856 80.7908 75.4636 82.6964 76.2695C83.2741 76.5139 83.8864 76.5976 84.5128 76.4165C84.3481 81.0071 82.9214 81.3511 82.1618 81.9996C81.4975 82.6564 78.913 83.5752 75.5599 83.2866Z" fill="#FE71A6"/>
<path d="M78.2201 74.5316C78.3735 74.685 78.2649 74.9472 78.048 74.9472C77.8311 74.9472 77.7225 74.685 77.8759 74.5316C77.9709 74.4366 78.1251 74.4366 78.2201 74.5316Z" fill="#FE71A6"/>
<path d="M75.5599 83.2866C72.2068 82.9981 71.0044 79.7975 70.9956 77.2981C71.7149 77.2584 74.292 77.4792 75.6971 76.1226C77.1857 74.6856 80.7908 75.4636 82.6964 76.2695C83.2741 76.5139 83.8864 76.5976 84.5128 76.4165C84.3481 81.0071 82.9214 81.3511 82.1618 81.9996C81.4975 82.6564 78.913 83.5752 75.5599 83.2866Z" stroke="#FE71A6" stroke-linecap="round"/>
<path d="M78.2201 74.5316C78.3735 74.685 78.2649 74.9472 78.048 74.9472C77.8311 74.9472 77.7225 74.685 77.8759 74.5316C77.9709 74.4366 78.1251 74.4366 78.2201 74.5316Z" stroke="#FE71A6" stroke-linecap="round"/>
<path d="M77.9043 76.2275L78.0947 79.3815" stroke="#C44B78" stroke-width="4" stroke-linecap="round"/>
<path d="M77.9497 70.1851L77.9218 73.2627M77.9218 73.2627C77.0139 75.5538 75.2361 76.9408 69.6486 77.1708C65.5144 77.3409 63.0634 76.6041 62.6513 73.1332M77.9218 73.2627C79.0534 75.2555 81.1294 77.2864 88.4709 75.9474C91.1186 75.4645 93.5615 74.6086 93.4655 70.2172" stroke="#562528" stroke-width="1.5" stroke-linecap="round"/>
<path d="M74.8335 66.9367C76.4119 69.1692 79.7328 69.1427 81.2753 66.8853C83.0377 64.3062 81.2255 60.8022 78.1023 60.7498C74.8906 60.696 72.9791 64.3139 74.8335 66.9367Z" fill="#562528"/>
<path d="M27.1681 148.409C21.3905 139.806 22.1569 122.242 23.3614 114.058C27.3984 119.416 33.176 123.351 38.1082 125.899C42.3319 128.081 45.2557 132.478 43.4603 136.88C42.5431 139.129 41.2876 141.65 39.6019 144.242C36.3565 149.231 32.8081 150.474 30.4189 150.427C29.0687 150.4 27.9211 149.53 27.1681 148.409Z" fill="#50776F"/>
<path d="M32.3464 140.337C29.6021 140.29 25.1637 138.455 23.3564 137.431C23.3261 137.783 23.2813 139.13 25.024 144.208C26.7667 149.286 28.4116 150.27 29.467 150.395C35.9166 151.16 39.3836 145.286 40.7017 142.359C39.0601 141.704 35.0907 140.383 32.3464 140.337Z" fill="#FCEDC6"/>
<path d="M73.623 156.517C59.6601 155.863 54.6982 134.196 54.4768 125.455C65.3951 119.964 67.8902 129.189 72.6849 131.369C74.0262 139.185 75.0821 136.551 79.3241 140.944C78.0932 156.845 76.532 156.653 73.623 156.517Z" fill="#50776F"/>
<path d="M69.5008 149.102C65.3859 148.463 63.0017 149.372 62.3239 149.906C62.9586 150.789 63.6155 151.416 64.1509 152.077C66.1102 154.496 69.8547 156.003 71.9511 156.42C74.0475 156.838 75.2639 156.468 75.7646 156.156C77.5323 154.887 77.9981 151.768 78.2026 149.851C77.1142 149.283 75.8946 149.139 75.4209 149.137C74.355 149.134 73.6158 149.74 69.5008 149.102Z" fill="#FCEDC6"/>
<path d="M110.264 144.044C108.184 144.561 105.221 144.116 104 143.829C105.04 146.756 107.782 147.81 109.318 148.348C110.225 148.666 112.391 148.958 113.336 148.994C114.376 149.08 115.018 148.258 115.345 147.81C115.818 147.165 116.764 143.829 117 142C115.621 142.466 112.344 143.528 110.264 144.044Z" fill="#FCEDC6"/>
<path d="M107 98C107.125 97.6087 107.083 95.0435 107 93.6957C107.625 93.4348 110.042 92.5652 111.25 92C111.35 92.9391 111.792 95.1739 112 96.1739C112 96.487 108.667 97.4783 107 98Z" fill="#3E5155"/>
<circle cx="53" cy="59" r="1" fill="white"/>
<ellipse cx="109.5" cy="58" rx="1.5" ry="1" fill="white"/>
<path d="M55.0477 14.085C54.0143 18.4202 54.8451 35.4521 54.8451 35.4521L102.017 35.8993C102.017 35.8993 102.536 21.3734 101.517 16.0927C100.499 10.812 100.358 9.52854 96.5053 5.28944C92.6523 1.05035 84.0332 0.327543 78.0032 0.270379C71.9732 0.213215 66.2408 0.977945 61.1648 4.95436C56.0889 8.93077 55.534 12.0449 55.0477 14.085Z" fill="#F3C66D"/>
<path fill-rule="evenodd" clip-rule="evenodd" d="M64.8023 31.9138C64.8023 31.9138 64.8379 24.2104 64.8962 22.0137C64.9097 21.5045 64.9197 21.0114 64.9296 20.5299L64.9296 20.5299L64.9296 20.5299L64.9296 20.5298L64.9296 20.5298C64.9858 17.775 65.0343 15.3999 65.673 12.5475C66.2201 10.1038 66.909 8.4858 67.7721 6.4586L67.7721 6.45852L67.7722 6.45824L67.7723 6.45813C68.0008 5.9214 68.2415 5.35598 68.4951 4.73896C68.7545 4.10764 69.016 3.28641 69.2762 2.46931L69.2762 2.46928C69.4405 1.95356 69.6042 1.4395 69.7665 0.975873C70.0908 0.905205 70.4166 0.840878 70.7438 0.782447C70.3765 2.20847 69.8679 4.17957 69.4786 5.67427C69.2037 6.72959 68.9374 7.61197 68.6851 8.44767L68.685 8.4478L68.685 8.4479L68.685 8.44794L68.685 8.44798C68.2338 9.94253 67.8276 11.2878 67.4988 13.2059C67.0318 15.9293 66.9892 17.7298 66.9329 20.1029L66.9329 20.103L66.9329 20.103C66.9187 20.7017 66.9037 21.3369 66.8807 22.0325C66.8083 24.2288 66.7869 31.9326 66.7869 31.9326L64.8023 31.9138ZM74.3779 0.356821C74.4636 1.60109 74.5756 3.42774 74.6014 4.79686C74.6228 5.93328 74.6056 6.74598 74.5863 7.65491L74.5863 7.65497L74.5863 7.65503L74.5863 7.65509L74.5863 7.65514L74.5863 7.65518C74.5758 8.14759 74.5647 8.66825 74.5589 9.28393L74.4799 17.6171C74.3347 19.5152 74.0381 23.9524 74.0381 23.9524C74.0381 23.9524 72.945 31.896 72.7284 33.2711L74.7102 33.5748C74.7102 33.5748 75.7518 25.9485 75.87 23.9697C75.9658 22.3667 75.9527 21.2179 75.9381 19.933C75.9302 19.2369 75.9219 18.5008 75.9301 17.6308C75.941 16.4873 75.9767 15.5199 76.0104 14.6049L76.0104 14.6048L76.0104 14.6048L76.0104 14.6047L76.0104 14.6046L76.0104 14.6046C76.0728 12.9157 76.1285 11.4057 76.0091 9.29769C75.9096 7.53968 75.8065 6.55562 75.5937 4.80626C75.425 3.41903 75.1179 1.57153 74.9014 0.327035C74.7266 0.335865 74.5521 0.345773 74.3779 0.356821ZM79.1709 0.289912C79.6807 1.52914 80.4268 3.41689 80.8604 4.8562C81.5106 7.01409 81.7457 8.28765 82.1434 10.4419L82.1797 10.6383C82.5665 12.7325 82.7177 14.0306 82.941 15.9471L82.941 15.9471C82.9716 16.2093 83.0035 16.4832 83.0375 16.7722C83.0976 17.2827 83.1552 17.7488 83.2094 18.1882L83.2094 18.1886C83.4296 19.9734 83.5955 21.318 83.6617 23.4025C83.7164 25.1264 83.7961 33.376 83.7961 33.376L85.5578 32.7516C85.5648 32.0146 85.5262 30.0503 85.4875 28.0859L85.4875 28.0854L85.4875 28.0854L85.4875 28.0853L85.4875 28.0852C85.4489 26.1207 85.4103 24.1562 85.4173 23.4192C85.4173 23.4192 85.0223 19.3683 84.6404 16.7874C84.2637 14.2411 84.0013 12.8189 83.4806 10.2945C83.3587 9.7031 83.263 9.18076 83.1731 8.69045C82.9398 7.41678 82.746 6.35935 82.2344 4.86923C81.7331 3.40944 80.7859 1.54917 80.1226 0.318983C79.8007 0.307004 79.4832 0.297429 79.1709 0.289912ZM85.3547 0.74731C86.1176 1.82232 87.4842 3.81569 88.2603 5.35374C89.2775 7.36941 89.6662 8.58061 90.3469 10.7158C91.3042 13.7186 91.74 15.4541 92.1045 18.5677C92.338 20.562 93.061 30.4009 93.061 30.4009L95.1239 30.2068C95.1239 30.2068 94.2137 20.0142 93.8675 17.8009L93.8306 17.565C93.3355 14.3968 93.04 12.5066 91.8093 9.4475C90.9562 7.32697 90.3906 6.14714 89.1107 4.22213C88.3903 3.13854 87.2504 1.79365 86.4749 0.913898C86.1026 0.853083 85.7288 0.797702 85.3547 0.74731ZM92.6639 2.64659C93.2634 3.57361 94.0744 4.87792 94.5909 5.91238C95.9971 8.7283 96.4742 10.4543 97.1909 13.4874C97.5254 14.9033 97.6646 15.8914 97.8309 17.0722C97.8975 17.5453 97.9685 18.0493 98.0582 18.6242C98.1942 19.4964 98.3304 20.2583 98.4582 20.9736C98.7784 22.765 99.0463 24.264 99.1288 26.4696C99.184 27.943 99.0931 30.2445 99.0931 30.2445L100.77 30.474L100.808 26.4855C100.808 26.4855 99.9486 20.5178 99.5159 17.8545L99.5105 17.8216L99.5105 17.8215C99.0826 15.1877 99.0157 14.7761 98.4945 12.8587C98.443 12.669 98.393 12.4843 98.3443 12.3041C97.6253 9.64573 97.1659 7.94688 95.6643 5.42394C95.3155 4.83795 94.8408 4.16715 94.3746 3.54691C93.8403 3.215 93.2674 2.91594 92.6639 2.64659ZM65.6396 2.28917C65.0365 3.35836 64.3705 4.59612 63.9066 5.62144C62.6199 8.46499 61.9817 10.1231 61.3161 13.1472C60.8597 15.2211 60.8102 16.7741 60.7565 18.4565C60.7226 19.5216 60.6869 20.6386 60.5454 21.9724C60.3388 23.9195 59.9517 28.235 59.9517 28.235L58.7304 28.2235C58.7304 28.2235 59.0543 23.9058 59.2478 21.9601C59.3705 20.7264 59.4085 19.6773 59.4445 18.6838C59.509 16.9029 59.567 15.3009 60.0948 13.1357C60.8369 10.0914 61.4689 8.39238 62.9906 5.61275C63.5064 4.67047 64.2433 3.58118 64.9504 2.60268C65.1791 2.49346 65.4089 2.38902 65.6396 2.28917Z" fill="#E2AE4A"/>
<path fill-rule="evenodd" clip-rule="evenodd" d="M54.5421 25.2293C57.5927 25.8666 62.3865 26.7686 65.9862 26.9825C67.1505 27.0517 68.2431 27.1374 69.2858 27.2192C74.3308 27.615 78.2078 27.9192 83.379 25.8154C87.6453 24.0798 90.3751 22.7966 92.9307 19.1676C94.9114 16.3549 95.2026 15.4113 95.2196 12.0437C95.2299 10.0001 94.5748 8.73119 93.7434 7.12078C93.5242 6.69608 93.2926 6.24761 93.0578 5.75492C92.2898 4.14349 90.7708 2.68474 88.9777 1.4183C85.3441 0.530378 81.2889 0.301532 78.0027 0.270379C71.9727 0.213215 66.2403 0.977945 61.1644 4.95436C56.2954 8.76867 55.5863 11.7896 55.1073 13.8302C55.087 13.9169 55.0671 14.0018 55.0472 14.085C54.572 16.0786 54.491 20.7569 54.5421 25.2293Z" fill="#F7D674"/>
<path fill-rule="evenodd" clip-rule="evenodd" d="M75.5447 27.4885C74.8882 27.5096 74.2301 27.5068 73.5628 27.4872C73.7806 25.9386 74.0378 23.9529 74.0378 23.9529C74.0378 23.9529 74.3344 19.5157 74.4796 17.6176L74.5586 9.28444C74.5644 8.66873 74.5755 8.14806 74.586 7.65564L74.586 7.65559L74.586 7.65553L74.586 7.65547L74.586 7.65542C74.6053 6.74648 74.6226 5.93378 74.6011 4.79736C74.5753 3.42778 74.4632 1.60035 74.3776 0.356061C74.5517 0.345015 74.7261 0.335108 74.9009 0.326279C75.1174 1.57078 75.4246 3.41907 75.5934 4.80677C75.8062 6.55612 75.9093 7.54018 76.0089 9.29819C76.1282 11.4062 76.0725 12.9162 76.0102 14.6051L76.0102 14.6051L76.0102 14.6052L76.0102 14.6053L76.0102 14.6053C75.9764 15.5203 75.9407 16.4878 75.9298 17.6313C75.9216 18.5013 75.93 19.2374 75.9379 19.9335C75.9524 21.2184 75.9655 22.3672 75.8697 23.9702C75.8057 25.0426 75.6625 26.4365 75.5447 27.4885ZM85.4023 24.9669C84.8538 25.2076 84.2779 25.4479 83.6704 25.6963C83.681 24.9328 83.6832 24.0908 83.6614 23.403C83.5952 21.3185 83.4293 19.9739 83.2091 18.1892L83.2091 18.1891C83.1549 17.7496 83.0974 17.2833 83.0372 16.7727C83.0032 16.4837 82.9713 16.2098 82.9407 15.9475L82.9407 15.9475C82.7174 14.0311 82.5662 12.733 82.1794 10.6388L82.1431 10.4424C81.7454 8.28813 81.5103 7.01458 80.8601 4.8567C80.4263 3.4169 79.6799 1.52834 79.1701 0.289127C79.4823 0.29664 79.7998 0.306212 80.1216 0.318185C80.7849 1.54836 81.7327 3.40942 82.2341 4.86973C82.7457 6.35985 82.9395 7.41728 83.1728 8.69096C83.2627 9.18126 83.3584 9.70361 83.4803 10.295C84.001 12.8194 84.2634 14.2416 84.6402 16.7879C85.0221 19.3688 85.417 23.4197 85.417 23.4197L85.4023 24.9669ZM93.8632 17.7755C93.604 18.1938 93.2963 18.6487 92.9313 19.1671C92.7011 19.494 92.4695 19.8019 92.2354 20.0927C92.2015 19.5586 92.1586 19.0325 92.1042 18.5682C91.7397 15.4546 91.304 13.7191 90.3466 10.7163C89.6659 8.58112 89.2772 7.36992 88.26 5.35424C87.4835 3.81552 86.1161 1.82108 85.3534 0.746397C85.7274 0.796765 86.1011 0.852119 86.4733 0.912904C87.2488 1.79262 88.3896 3.13843 89.1105 4.22263C90.3903 6.14764 90.9559 7.32747 91.809 9.448C93.0397 12.5071 93.3352 14.3973 93.8303 17.5655L93.8632 17.7755ZM70.7439 0.781628C70.3765 2.20776 69.8677 4.17961 69.4783 5.67477C69.2034 6.7302 68.937 7.61265 68.6847 8.44842L68.6847 8.44844L68.6847 8.44848L68.6847 8.44849C68.2335 9.94304 67.8274 11.2883 67.4985 13.2064C67.0315 15.9298 66.9889 17.7303 66.9326 20.1034L66.9326 20.1035L66.9326 20.1035C66.9184 20.7022 66.9034 21.3374 66.8804 22.033C66.827 23.6529 66.8234 25.9441 66.8252 27.0352C66.5498 27.0167 66.2704 26.9988 65.9869 26.982C65.6171 26.96 65.2347 26.9308 64.843 26.8953C64.845 25.763 64.8545 23.5767 64.8959 22.0142C64.9094 21.505 64.9195 21.0119 64.9293 20.5304L64.9293 20.5304L64.9293 20.5304L64.9293 20.5303L64.9293 20.5303C64.9855 17.7755 65.034 15.4004 65.6727 12.548C66.2198 10.1043 66.9087 8.4863 67.7718 6.4591C68.0004 5.92223 68.2412 5.35666 68.4948 4.73946C68.7542 4.10814 69.0157 3.28691 69.2759 2.46981L69.276 2.46978C69.4403 1.95356 69.6042 1.43899 69.7667 0.975013C70.0909 0.904361 70.4167 0.840047 70.7439 0.781628ZM64.9515 2.60129C65.1801 2.49216 65.4097 2.3878 65.6403 2.28803C65.0369 3.3576 64.3704 4.5961 63.9063 5.62194C62.6196 8.46549 61.9814 10.1236 61.3158 13.1477C60.8594 15.2216 60.8099 16.7746 60.7562 18.457C60.7223 19.5221 60.6867 20.6391 60.5451 21.9729C60.3997 23.3434 60.1709 25.2521 60.0481 26.2624C59.6392 26.1955 59.2332 26.1264 58.833 26.0562C58.94 25.0092 59.1196 23.2468 59.2475 21.9606C59.3702 20.7269 59.4082 19.6778 59.4442 18.6843C59.5087 16.9034 59.5668 15.3014 60.0946 13.1362C60.8366 10.0919 61.4686 8.39288 62.9903 5.61326C63.5065 4.67036 64.2439 3.58027 64.9515 2.60129Z" fill="#F3C66D"/>
<path d="M50.0952 29.1393C50.6862 27.9807 51.3799 27.4984 52.7093 27.1696C54.9282 26.6208 54.8366 26.9713 56.8916 27.2093C60.2762 27.6012 61.958 28.7358 65.2087 29.7014C67.5993 30.4115 69.374 30.5912 71.8328 31.0549C76.1649 31.8717 77.5072 31.901 81.9049 31.5065C85.6455 31.171 88.0183 30.5272 91.7642 30.2466C94.9602 30.0073 98.2168 29.2448 101.308 30.0437C103.085 30.5029 103.226 30.7072 104.629 31.8248C106.063 32.9668 106.236 34.3911 106.498 36.5341L106.513 36.6547C106.798 38.9894 105.981 40.8464 104.525 42.7616C103.007 44.7598 101.876 44.5577 99.4816 45.563C95.9819 47.0324 92.2235 46.7131 88.399 47.025C82.9163 47.4721 81.4501 47.2453 75.9573 46.907C70.3535 46.5619 67.9743 46.5336 62.5382 45.2127C58.247 44.17 59.2621 44.5406 54.2426 42.5698C52.7944 42.0012 50.2447 40.4102 49.696 39.0364C48.9638 37.2033 49.1138 36.0292 49.1324 34.0738C49.1491 32.3069 49.2817 30.7339 50.0952 29.1393Z" fill="#F3C66D"/>
<path fill-rule="evenodd" clip-rule="evenodd" d="M57.1431 43.7022C56.763 43.5577 56.3192 43.385 55.7779 43.1729L55.0322 39.8704L55.0707 35.8106L55.9583 30.7617L57.9746 27.433L58.3269 27.4364C58.6183 27.4954 58.8979 27.5604 59.1688 27.6304L57.2532 31.0589L56.2156 35.8215L56.1765 39.9524L57.1431 43.7022ZM65.2627 45.82C64.7782 45.7236 64.2718 45.6158 63.736 45.4945L62.886 40.7996L62.9448 34.6031L63.9336 29.2912C64.3314 29.4287 64.7505 29.5655 65.1996 29.6991L64.2451 34.3306L64.3363 40.8133L65.2627 45.82ZM73.4784 46.7589C72.9657 46.728 72.4791 46.6978 72.0104 46.6663L71.4241 42.0202L71.4781 36.3223L72.1883 31.1218C72.7134 31.2192 73.1938 31.3042 73.6415 31.3776L73.0081 35.9807L72.9541 41.6786L73.4784 46.7589ZM83.4059 47.2743C83.0208 47.2756 82.6465 47.2717 82.2729 47.2632L83.0261 42.1302L83.0619 38.3554L82.3081 31.4692C82.618 31.4389 82.9188 31.4065 83.212 31.3724L84.4507 36.8015L84.4075 41.3598L83.4059 47.2743ZM93.4726 46.7694C92.8964 46.8051 92.3166 46.8301 91.7338 46.8532L92.7963 42.2229L93.4576 36.8869L91.6926 30.2526C91.7166 30.2508 91.7406 30.2489 91.7646 30.2471C92.2305 30.2122 92.6976 30.1662 93.1654 30.1156C93.6889 31.3534 94.8658 34.3509 94.9875 36.5452C95.0666 37.9703 94.902 38.9306 94.7 40.1084C94.6293 40.5209 94.554 40.9601 94.483 41.4553C94.2308 43.2138 93.7044 45.7039 93.4726 46.7694ZM101.518 44.8339C101.419 44.8669 101.318 44.9002 101.214 44.9343C100.788 45.0741 100.318 45.2284 99.7828 45.4407C99.9125 44.6397 100.082 43.4739 100.121 42.6485C100.184 41.272 100.166 37.8053 100.166 37.8053C100.166 37.8053 99.8305 35.6652 99.7355 34.952C99.6405 34.2388 98.0265 30.0209 98.0265 30.0209L99.0095 29.7075C99.1412 29.7141 99.2728 29.7226 99.4041 29.733C99.7163 30.2606 100.906 32.3212 101.349 33.8276C101.724 35.1015 101.794 35.8883 101.904 37.1389L101.926 37.3946C102.096 39.3075 102.054 40.3968 101.879 42.309C101.81 43.0741 101.657 44.038 101.518 44.8339Z" fill="#E2AE4A"/>
<path fill-rule="evenodd" clip-rule="evenodd" d="M52.7091 27.1694C51.3797 27.4982 50.686 27.9805 50.095 29.1391C49.2815 30.7337 49.1489 32.3067 49.1322 34.0737C49.1295 34.3496 49.1243 34.61 49.1193 34.8589C49.0889 36.3736 49.067 37.4618 49.6958 39.0362C50.2445 40.41 52.7942 42.001 54.2425 42.5696C56.9544 43.6344 57.9048 44.0157 58.8823 44.3058C59.714 44.5525 60.5653 44.7332 62.538 45.2125C67.422 46.3993 69.8384 46.5426 74.3428 46.8098C74.852 46.84 75.3879 46.8718 75.9571 46.9068C76.7239 46.9541 77.4122 46.9991 78.0439 47.0405C81.4416 47.2629 83.2024 47.3781 86.7305 47.1482C88.7985 46.1608 90.852 44.8469 91.9465 43.2117C92.1345 42.9308 92.3228 42.6627 92.5055 42.4025C93.5547 40.9081 94.4192 39.6769 93.9824 37.8175C93.7006 36.6178 93.1234 35.9942 92.3219 35.1283C92.2265 35.0252 92.1279 34.9187 92.0262 34.8073C90.1949 32.8015 85.8766 31.2587 85.8766 31.2587L85.1496 31.1139C84.1476 31.2615 83.0955 31.3995 81.9047 31.5063C77.507 31.9008 76.1647 31.8716 71.8326 31.0547C71.137 30.9235 70.4961 30.8151 69.8805 30.7109C68.3203 30.4469 66.9228 30.2104 65.2085 29.7012C64.0537 29.3582 63.0969 28.9938 62.1914 28.649C60.548 28.0232 59.0737 27.4618 56.8914 27.2091C56.6768 27.1842 56.4856 27.1582 56.3128 27.132L52.9957 27.1006C52.9046 27.1217 52.8092 27.1447 52.7091 27.1694Z" fill="#F7D674"/>
<path fill-rule="evenodd" clip-rule="evenodd" d="M58.3316 27.4366L57.974 27.4332C57.974 27.4332 56.5278 29.3664 55.9577 30.7619C55.3197 32.3237 55.2431 33.4118 55.1388 34.8926C55.1184 35.1816 55.097 35.4855 55.0702 35.8108L55.0558 35.984C54.9337 37.4593 54.8598 38.3521 55.0317 39.8705C55.1572 40.9791 55.5799 42.5389 55.7577 43.1644C56.297 43.3757 56.74 43.5481 57.1197 43.6926C56.9006 43.0296 56.3328 41.2316 56.1759 39.9526C55.9794 38.3495 56.0479 37.4272 56.2151 35.8216C56.4119 33.9323 56.5498 32.8397 57.2526 31.0591C57.739 29.8268 58.7971 28.1682 59.1525 27.6255C58.8881 27.5574 58.6155 27.4942 58.3316 27.4366ZM63.9192 29.2855C63.7152 30.1633 63.1278 32.7824 62.9442 34.6033C62.7014 37.0123 62.6619 38.3885 62.8855 40.7997C63.0286 42.3431 63.4886 44.5062 63.7088 45.4876C64.2461 45.6094 64.7536 45.7177 65.2392 45.8146C65.0127 44.8077 64.5104 42.471 64.3357 40.8135C64.0702 38.2934 63.9732 36.8495 64.2445 34.3307C64.4118 32.7782 64.9475 30.5897 65.1778 29.6919C64.7316 29.5588 64.3149 29.4225 63.9192 29.2855ZM72.1806 31.1196C72.0523 31.8677 71.6116 34.5151 71.4776 36.3225C71.3129 38.5422 71.286 39.7986 71.4235 42.0204C71.5189 43.5609 71.8504 45.7553 71.9946 46.6644C72.4646 46.6961 72.9528 46.7264 73.467 46.7574C73.3486 45.8619 73.0357 43.39 72.9535 41.6787C72.8467 39.4555 72.8328 38.1999 73.0075 35.9808C73.1341 34.3727 73.5274 32.0096 73.6356 31.3759C73.1874 31.3023 72.7064 31.2171 72.1806 31.1196ZM82.3154 31.4676C82.4426 32.2922 82.984 35.9143 83.0614 38.3555C83.1081 39.8292 83.1157 40.6586 83.0256 42.1304C82.9255 43.7637 82.5481 45.9962 82.3157 47.2633C82.6879 47.2714 83.0613 47.275 83.4457 47.2733C83.7257 45.9705 84.2655 43.2881 84.407 41.3599L84.4115 41.2984C84.539 39.5605 84.6127 38.5548 84.4502 36.8016C84.2777 34.9414 83.521 32.3073 83.2382 31.3685C82.9389 31.4034 82.6319 31.4366 82.3154 31.4676ZM93.4293 36.4734C93.4421 36.614 93.4514 36.7521 93.457 36.887C93.5229 38.4793 93.3142 39.5364 93.0528 40.8599L93.0528 40.8599L93.0528 40.86L93.0528 40.8601C92.988 41.1881 92.9201 41.5323 92.8522 41.9052C93.7334 40.622 94.3701 39.4669 93.9826 37.8173C93.8558 37.2776 93.6692 36.8544 93.4293 36.4734Z" fill="#F3C66D"/>
</svg>
