<svg width="151" height="167" viewBox="0 0 151 167" fill="none" xmlns="http://www.w3.org/2000/svg">
<path d="M-4916 -2837H3436V-2839H-4916V-2837ZM3437 -2836V671H3439V-2836H3437ZM3436 672H-4916V674H3436V672ZM-4917 671V-2836H-4919V671H-4917ZM-4916 672C-4916.55 672 -4917 671.552 -4917 671H-4919C-4919 672.657 -4917.66 674 -4916 674V672ZM3437 671C3437 671.552 3436.55 672 3436 672V674C3437.66 674 3439 672.657 3439 671H3437ZM3436 -2837C3436.55 -2837 3437 -2836.55 3437 -2836H3439C3439 -2837.66 3437.66 -2839 3436 -2839V-2837ZM-4916 -2839C-4917.66 -2839 -4919 -2837.66 -4919 -2836H-4917C-4917 -2836.55 -4916.55 -2837 -4916 -2837V-2839Z" fill="black" fill-opacity="0.1"/>
<path d="M0.750389 85.7242C-1.29286 97.334 10.6891 103.745 20.1286 106.434C23.3158 107.342 26.5572 105.717 28.4683 103.009C28.803 102.535 29.1499 102.059 29.5033 101.592C30.9923 99.6265 31.9328 97.1707 31.2966 94.7883C30.1748 90.5876 28.3149 87.4765 27.3316 86.2477C26.8672 71.4961 19.739 68.4229 15.3672 68.7167C14.6304 68.7662 13.8909 68.8206 13.1575 68.9062C9.3778 69.347 2.97715 73.0717 0.750389 85.7242Z" fill="#FEA34A"/>
<path d="M14.2313 93.688C22.8597 98.105 27.3449 90.5455 27.2087 86.2185C37.831 102.152 27.2087 103.096 27.2087 103.096C27.2087 103.096 13.9463 101.562 11.5112 95.7787C8.67859 89.0512 9.66515 82.2475 15.1542 82.9633C9.65347 85.917 11.6292 92.3559 14.2313 93.688Z" fill="#DB924A"/>
<path d="M111.991 145.404C102.199 144.561 103.268 135.304 101.24 134.173C106.576 131.438 113.572 118.803 116.964 115.269C116.915 118.633 117.861 132.261 116.517 138.932C115.173 145.603 114.259 145.599 111.991 145.404Z" fill="#FEA34A"/>
<path d="M109.31 129.892C102.015 136.467 89.3469 136.111 82.4924 137.298C76.9773 138.253 67.648 139.101 60.8277 138.514C55.6537 138.069 47.3338 136.737 38.0429 133.473C28.7519 130.21 24.4156 122.508 23.4088 119.064C23.1484 117.816 23.0031 116.575 22.9581 115.353C22.6115 105.949 28.2007 97.6231 32.9522 94.8902C38.6662 91.6037 39.4276 90.7152 40.6494 89.2894L40.6616 89.2751C84.1254 95.195 103.072 91.3289 110.877 86.9066C112.042 98.1423 116.874 99.2689 117.214 113.751C117.443 123.484 113.933 125.725 109.31 129.892Z" fill="#FEA34A"/>
<path d="M95.5421 135.697C95.2285 135.73 90.719 136.306 86.8931 136.79C83.7513 137.187 80.365 137.177 77.865 135.234C72.0144 130.685 71.8392 121.71 68.7154 114.211C62.1963 100.487 60.7337 96.9258 62.691 94.7386C64.426 92.7999 95.5803 88.8002 102.638 87.9162L102.725 87.9053C103.651 87.7892 104.568 87.6741 105.499 87.7462C107.436 87.8962 107.616 89.4067 106.033 102.103C105.32 107.828 104.932 104.963 105.569 114.383C106.753 131.899 101.957 134.116 101.957 134.116C101.957 134.116 99.2482 135.305 95.5421 135.697Z" fill="#FCEDC6"/>
<path d="M51.939 128.469L51.5287 128.367C47.0814 127.262 42.7351 130.502 42.525 135.08C49.6164 138.295 55.6577 138.595 58.2421 138.279L57.6008 134.559C57.0883 131.586 54.867 129.197 51.939 128.469Z" fill="#FCEDC6"/>
<path d="M29.4677 81.6783C35.8331 88.1018 45.2276 91.7217 49.1292 92.7288C54.8718 94.3681 69.4494 97.2257 81.8196 95.5419C94.1898 93.8581 109.612 88.733 114.376 86.142C120.093 83.0405 130.28 75.3326 130.921 64.584C131.562 53.8354 128.257 52.864 123.446 41.3145C122.955 31.6058 122.16 27.622 121.982 25.5534C121.729 23.9126 120.818 19.8984 115.255 18.4719C109.692 17.0454 104.696 21.5095 103.688 23.1207L95.8416 31.7129C83.3584 25.9001 63.7594 28.7151 55.5204 30.8492C48.8777 25.4443 43.0378 23.1016 40.9481 22.6059C38.8652 22.0318 34.0188 22.4598 31.2965 28.7646C28.5743 35.0695 29.9333 45.9823 30.9532 50.6506C30.0933 53.3012 28.0991 59.3133 27.0014 62.1568C25.6294 65.711 21.5109 73.6489 29.4677 81.6783Z" fill="#FEA34A"/>
<path d="M45.5531 66.8333C37.096 63.3262 29.1318 66.4853 25.9042 68.9271C25.2103 69.452 24.7382 70.2157 24.6621 71.0825C24.5822 71.9928 24.6418 73.2464 25.0956 74.6682C26.0287 77.5916 27.2311 78.7613 28.823 80.9121C30.0964 82.6328 33.6171 85.3129 35.2183 86.4379C36.4118 87.2513 40.4734 89.5199 47.1707 92.0864C55.5424 95.2946 69.3289 96.4779 75.9464 96.3396C82.5922 96.2008 89.7191 94.629 92.9682 94.0136C95.9788 93.4435 104.662 90.2814 108.812 88.8616C112.962 87.4418 120.335 82.9824 125.447 77.2623C127.887 74.5318 129.261 71.4227 129.979 68.8814C130.675 66.419 129.269 64.0175 126.861 63.1523C124.278 62.2245 121.163 61.3751 118.894 61.1798C109.912 60.4069 102.156 67.0842 97.5173 64.5526C93.806 62.5274 92.1531 56.6806 89.2419 54.7189C79.5678 48.2002 69.8204 52.8107 66.156 55.9308C61.0429 60.2843 55.0695 70.7796 45.5531 66.8333Z" fill="#FCEDC6"/>
<path d="M38.0655 91.7657C38.8209 91.2936 39.9933 89.9166 40.544 89.2871C49.396 93.418 54.5892 94.5983 62.1428 95.5425C61.4818 96.2979 61.9854 98.5325 62.2608 99.4373C46.2093 97.5489 37.1213 92.3558 38.0655 91.7657Z" fill="#DB924A"/>
<path d="M62.3797 99.4376C61.6243 97.6436 61.9076 96.0542 62.1436 95.5428C79.0449 98.6586 99.0858 92.8675 106.994 89.5234C107.182 90.09 107.072 92.3561 106.994 93.4183C87.7317 102.011 69.2252 101.011 62.3797 99.4376Z" fill="#EBDBB0"/>
<path d="M46.0514 45.908C43.043 47.8288 44.4138 49.7948 46.5305 49.977C49.3566 50.2202 51.5071 49.6067 52.9626 48.6509C55.0765 47.2628 53.8143 44.4534 51.2855 44.47C49.5417 44.4814 47.6134 44.9107 46.0514 45.908Z" fill="#FBEDC6"/>
<path d="M109.371 43.8139C112.007 46.2204 110.321 47.9233 108.204 47.7412C105.378 47.498 103.364 46.5261 102.093 45.3357C100.247 43.6068 101.971 41.0544 104.46 41.5028C106.176 41.8119 108.002 42.5644 109.371 43.8139Z" fill="#FBEDC6"/>
<path d="M42.4847 30.9118C36.0889 27.0444 37.1111 37.8335 38.4217 43.7114L49.7436 36.038C49.9889 35.9406 48.8806 34.7791 42.4847 30.9118Z" fill="#FCDB8A"/>
<path d="M115.124 23.7769C112.44 21.9347 107.958 29.0438 106.053 32.8286L117.342 33.8C117.721 31.2265 117.809 25.619 115.124 23.7769Z" fill="#FCDB8A"/>
<ellipse cx="50.6202" cy="56.134" rx="4.48499" ry="4.13091" transform="rotate(4.91842 50.6202 56.134)" fill="#562528"/>
<ellipse cx="107.1" cy="55.0705" rx="4.48499" ry="4.13091" transform="rotate(4.91842 107.1 55.0705)" fill="#562528"/>
<path d="M75.5599 79.2866C72.2068 78.9981 71.0044 75.7975 70.9956 73.2981C71.7149 73.2584 74.292 73.4792 75.6971 72.1226C77.1857 70.6856 80.7908 71.4636 82.6964 72.2695C83.2741 72.5139 83.8864 72.5976 84.5128 72.4165C84.3481 77.0071 82.9214 77.3511 82.1618 77.9996C81.4975 78.6564 78.913 79.5752 75.5599 79.2866Z" fill="#FE71A6"/>
<path d="M78.2201 70.5316C78.3735 70.685 78.2649 70.9472 78.048 70.9472C77.8311 70.9472 77.7225 70.685 77.8759 70.5316C77.9709 70.4366 78.1251 70.4366 78.2201 70.5316Z" fill="#FE71A6"/>
<path d="M75.5599 79.2866C72.2068 78.9981 71.0044 75.7975 70.9956 73.2981C71.7149 73.2584 74.292 73.4792 75.6971 72.1226C77.1857 70.6856 80.7908 71.4636 82.6964 72.2695C83.2741 72.5139 83.8864 72.5976 84.5128 72.4165C84.3481 77.0071 82.9214 77.3511 82.1618 77.9996C81.4975 78.6564 78.913 79.5752 75.5599 79.2866Z" stroke="#FE71A6" stroke-linecap="round"/>
<path d="M78.2201 70.5316C78.3735 70.685 78.2649 70.9472 78.048 70.9472C77.8311 70.9472 77.7225 70.685 77.8759 70.5316C77.9709 70.4366 78.1251 70.4366 78.2201 70.5316Z" stroke="#FE71A6" stroke-linecap="round"/>
<path d="M77.9043 72.2275L78.0947 75.3815" stroke="#C44B78" stroke-width="4" stroke-linecap="round"/>
<path d="M77.9497 66.1851L77.9218 69.2627M77.9218 69.2627C77.0139 71.5538 75.2361 72.9408 69.6486 73.1708C65.5144 73.3409 63.0634 72.6041 62.6513 69.1332M77.9218 69.2627C79.0534 71.2555 81.1294 73.2864 88.4709 71.9474C91.1186 71.4645 93.5615 70.6086 93.4655 66.2172" stroke="#562528" stroke-width="1.5" stroke-linecap="round"/>
<path d="M74.8335 62.9367C76.4119 65.1692 79.7328 65.1427 81.2753 62.8853C83.0377 60.3062 81.2255 56.8022 78.1023 56.7498C74.8906 56.696 72.9791 60.3139 74.8335 62.9367Z" fill="#562528"/>
<path d="M27.1681 144.409C21.3905 135.806 22.1569 118.242 23.3614 110.058C27.3984 115.416 33.176 119.351 38.1082 121.899C42.3319 124.081 45.2557 128.478 43.4603 132.88C42.5431 135.129 41.2876 137.65 39.6019 140.242C36.3565 145.231 32.8081 146.474 30.4189 146.427C29.0687 146.4 27.9211 145.53 27.1681 144.409Z" fill="#FEA34A"/>
<path d="M32.3464 136.337C29.6021 136.29 25.1637 134.455 23.3564 133.431C23.3261 133.783 23.2813 135.13 25.024 140.208C26.7667 145.286 28.4116 146.27 29.467 146.395C35.9166 147.16 39.3836 141.286 40.7017 138.359C39.0601 137.704 35.0907 136.383 32.3464 136.337Z" fill="#FCEDC6"/>
<path d="M73.623 152.517C59.6601 151.863 54.6982 130.196 54.4768 121.455C65.3951 115.964 67.8902 125.189 72.6849 127.369C74.0262 135.185 75.0821 132.551 79.3241 136.944C78.0932 152.845 76.532 152.653 73.623 152.517Z" fill="#FEA34A"/>
<path d="M69.5008 145.102C65.3859 144.463 63.0017 145.372 62.3239 145.906C62.9586 146.789 63.6155 147.416 64.1509 148.077C66.1102 150.496 69.8547 152.003 71.9511 152.42C74.0475 152.838 75.2639 152.468 75.7646 152.156C77.5323 150.887 77.9981 147.768 78.2026 145.851C77.1142 145.283 75.8946 145.139 75.4209 145.137C74.355 145.134 73.6158 145.74 69.5008 145.102Z" fill="#FCEDC6"/>
<path d="M110.264 140.044C108.184 140.561 105.221 140.116 104 139.829C105.04 142.756 107.782 143.81 109.318 144.348C110.225 144.666 112.391 144.958 113.336 144.994C114.376 145.08 115.018 144.258 115.345 143.81C115.818 143.165 116.764 139.829 117 138C115.621 138.466 112.344 139.528 110.264 140.044Z" fill="#FCEDC6"/>
<path d="M107 94C107.125 93.6087 107.083 91.0435 107 89.6957C107.625 89.4348 110.042 88.5652 111.25 88C111.35 88.9391 111.792 91.1739 112 92.1739C112 92.487 108.667 93.4783 107 94Z" fill="#DB924A"/>
<circle cx="53" cy="55" r="1" fill="white"/>
<ellipse cx="109.5" cy="54" rx="1.5" ry="1" fill="white"/>
<path d="M53.4675 14.1608C58.3752 9.31768 69.6273 7.04808 69.6273 7.04808C69.6273 7.04808 76.2148 6.14299 80.4368 6.38985C86.3558 6.73594 87.3234 6.96963 92.1218 7.87843C100.079 9.52045 106.888 14.5138 111.315 20.3575C113.464 23.1934 113.306 28.3091 113.089 30.3388C112.838 32.6808 106.407 36.671 100.428 38.695C91.686 41.6542 86.0571 40.3399 76.8325 40.0365C69.2326 39.7866 67.8939 40.1845 59.7358 38.2051C56.2291 37.3543 52.4995 35.05 50.3565 32.1468C48.0761 29.0577 47.1254 25.9575 47.4789 23.6265C48.1349 19.3017 50.3541 17.2334 53.4675 14.1608Z" fill="#F4B396"/>
<path fill-rule="evenodd" clip-rule="evenodd" d="M58.0421 37.3898C58.0421 37.3898 58.0806 33.513 58.1585 31.039C58.3802 23.9936 61.6278 19.7032 61.6278 19.7032C61.6278 19.7032 64.174 15.4747 66.2992 13.415C68.5425 11.2408 71.8738 8.73972 71.8738 8.73972C71.8738 8.73972 66.3079 10.6557 62.9959 13.5697C60.4829 15.7806 59.726 16.4894 58.1675 19.4514C56.2362 23.122 55.4462 26.623 56.0745 30.7228C56.4867 33.4124 58.0421 37.3898 58.0421 37.3898Z" fill="#F29D77"/>
<path fill-rule="evenodd" clip-rule="evenodd" d="M98.0676 12.3271C99.907 13.9998 101.595 15.9211 102.446 17.8795C104.528 22.6686 104.489 25.3584 102.649 28.4504C101.155 30.9607 99.2935 31.762 96.9116 32.7876C96.4904 32.9689 96.0529 33.1573 95.5983 33.3634C92.3956 34.815 90.0116 34.9351 87.0518 35.0843C86.1225 35.1311 85.1365 35.1807 84.0505 35.2754C78.9355 35.7212 75.7969 35.5226 71.1139 35.2264C70.5396 35.19 69.9419 35.1522 69.3146 35.1139C67.857 35.025 66.5618 35.0036 65.3443 34.9836C62.1691 34.9312 59.5224 34.8875 55.9014 33.6771C53.7339 32.9526 51.1557 31.5205 49.1314 30.278C47.8048 27.8218 47.2889 25.4506 47.5686 23.5738C48.1914 19.3959 50.1793 17.3185 52.9792 14.3926C53.0698 14.2979 53.1612 14.2024 53.2535 14.1059C57.8942 9.25023 68.4799 6.91967 68.4799 6.91967C68.4799 6.91967 74.6747 5.97735 78.6399 6.19732C84.1989 6.50571 87.4031 7.23114 92.521 9.49494C92.7215 9.58364 92.9178 9.66999 93.1103 9.75473C94.9269 10.554 96.4165 11.2094 98.0676 12.3271Z" fill="#F8C5AF"/>
<path fill-rule="evenodd" clip-rule="evenodd" d="M58.0846 34.2984C57.6892 34.2056 57.2842 34.0994 56.8671 33.9777C56.5374 32.8946 56.2274 31.7202 56.0745 30.7228C55.4462 26.623 56.2362 23.122 58.1675 19.4514C59.726 16.4894 60.4829 15.7806 62.9959 13.5697C66.3079 10.6557 71.8738 8.73972 71.8738 8.73972C71.8738 8.73972 68.5425 11.2408 66.2992 13.415C64.174 15.4747 61.6278 19.7032 61.6278 19.7032C61.6278 19.7032 58.3802 23.9936 58.1585 31.039C58.1278 32.0152 58.1031 33.2098 58.0846 34.2984Z" fill="#F4B396"/>
<path fill-rule="evenodd" clip-rule="evenodd" d="M97.9656 12.2951C97.7492 11.9561 95.1095 9.96248 93.8168 9.00805L92.1622 7.87451C89.3399 7.30981 86.4797 6.87973 83.239 6.59473L90.4711 11.4923L97.9656 12.2951Z" fill="#F8C5AF"/>
<path d="M79.971 7.04503L79.1903 6.96141C79.1903 6.96141 79.5722 6.48807 79.5862 6.21419C79.5989 5.96731 79.4776 5.83443 79.3325 5.63427C79.107 5.3232 78.6633 5.24674 78.273 5.20493C77.9321 5.16842 77.3327 5.36323 76.9905 5.3834C76.0034 5.44156 75.447 5.46401 74.4589 5.42806C73.1719 5.38125 72.4268 5.39911 71.18 5.07683C70.4168 4.87956 70.0521 4.55085 69.2785 4.39937C68.83 4.31155 68.5701 4.29802 68.1162 4.27438L68.1075 4.27393C67.5834 4.24664 67.2056 4.57095 66.7637 4.2879C66.508 4.1242 66.2757 3.6829 66.2757 3.6829L66.8807 3.19497C66.8807 3.19497 67.4243 2.52317 67.9179 2.35852C68.1296 2.28789 68.2622 2.30471 68.4811 2.26092C69.8257 1.99194 70.4084 1.18729 71.771 1.03409C72.9898 0.897074 73.6945 1.11168 74.8937 1.3686C75.9638 1.59785 76.7131 1.52387 77.5675 2.20775C78.0753 2.6142 78.2048 2.9979 78.6131 3.50419C79.212 4.24675 79.9517 4.4718 80.1466 5.40563C80.2782 6.03594 79.971 7.04503 79.971 7.04503Z" fill="#9DBE98"/>
<path fill-rule="evenodd" clip-rule="evenodd" d="M66.3945 3.87947L68.7794 3.16682L71.8213 2.782L75.1001 3.13323L77.6345 3.79952L79.1903 4.7558L79.9403 5.86266L79.5823 7.00352L79.1911 6.96162C79.1911 6.96162 79.573 6.48829 79.587 6.2144C79.5983 5.99375 79.5026 5.86415 79.3786 5.6962C79.3638 5.67624 79.3487 5.65574 79.3333 5.63449C79.1078 5.32342 78.6641 5.24696 78.2738 5.20514C78.0714 5.18346 77.7778 5.24334 77.5011 5.29979C77.3117 5.3384 77.1303 5.37542 76.9912 5.38361C76.0042 5.44177 75.4478 5.46422 74.4596 5.42827C74.2951 5.42229 74.1395 5.41736 73.9905 5.41265C72.974 5.38047 72.2683 5.35813 71.1808 5.07705C70.828 4.98585 70.5603 4.86656 70.2981 4.74968C69.993 4.61373 69.6953 4.48104 69.2793 4.39958C68.8308 4.31176 68.5709 4.29823 68.117 4.2746L68.1083 4.27414C67.9079 4.26371 67.7289 4.30468 67.5595 4.34344C67.2859 4.40606 67.0374 4.46293 66.7644 4.28811C66.6217 4.19673 66.4863 4.01881 66.3945 3.87947Z" fill="#90AE8B"/>
<path d="M81.3961 5.54483C81.1167 6.13777 80.9082 7.15078 80.9082 7.15078L81.6889 7.2344C81.6889 7.2344 81.9845 6.75309 82.2409 6.50391C82.65 6.10647 82.9808 5.99786 83.5039 5.77062C84.42 5.37269 85.0269 5.43829 86.0076 5.24919C87.4468 4.97168 88.2866 4.97877 89.7074 4.619C90.6793 4.37293 91.1573 3.91234 92.1582 3.85501C92.8316 3.81644 93.2328 4.24335 93.8756 4.03899C94.4542 3.85508 95.0857 3.06313 95.0857 3.06313L95.1442 2.51667C95.1442 2.51667 94.4721 2.92261 93.9927 2.94606C93.7477 2.95804 93.6107 2.91624 93.3682 2.87916C91.9687 2.66511 91.425 1.75689 90.0503 1.41827C88.9785 1.15426 88.3323 0.95916 87.2399 1.11722C85.7332 1.33521 85.0032 2.02129 83.805 2.96022C82.7189 3.81124 81.9842 4.29668 81.3961 5.54483Z" fill="#9DBE98"/>
<path fill-rule="evenodd" clip-rule="evenodd" d="M94.9344 3.23536L93.6988 3.46626L92.0845 3.05644L90.6263 2.66335L87.3754 2.78889L84.6653 3.76199L82.3038 5.16724L81.2501 7.1861L81.4817 7.21091L81.7306 7.16473C81.8219 7.02303 82.0423 6.69409 82.2395 6.50246C82.5971 6.15506 82.8948 6.02834 83.3135 5.85018C83.3738 5.82451 83.4366 5.79778 83.5025 5.76917C84.117 5.50222 84.5924 5.44388 85.1349 5.3773C85.4011 5.34464 85.6834 5.30999 86.0062 5.24774C86.6022 5.13282 87.0954 5.0667 87.5696 5.00313C88.2406 4.91319 88.8736 4.82833 89.706 4.61755C90.0993 4.51796 90.4118 4.38324 90.7107 4.25433C91.1504 4.06472 91.561 3.88769 92.1568 3.85357C92.4513 3.8367 92.6937 3.90885 92.9271 3.9783C93.2273 4.06765 93.5125 4.15253 93.8742 4.03754C94.2805 3.90839 94.7129 3.47939 94.9344 3.23536Z" fill="#90AE8B"/>
<path d="M79.95 4.19419C80.0952 5.32087 79.6401 7.08655 79.6401 7.08655C79.6401 7.08655 80.0511 7.41951 80.3687 7.47255C80.7417 7.53484 81.3147 7.26593 81.3147 7.26593C81.3147 7.26593 81.4667 5.47378 81.32 4.34095C81.223 3.59092 81.1076 3.17812 80.9068 2.44896C80.715 1.75244 80.325 0.692901 80.325 0.692901C80.325 0.692901 79.7774 0.7083 79.5313 0.915826C79.1198 1.26266 79.3845 2.28589 79.3845 2.28589C79.3845 2.28589 79.8506 3.4233 79.95 4.19419Z" fill="#D29A81"/>
</svg>
