<svg width="136" height="156" viewBox="0 0 136 156" fill="none" xmlns="http://www.w3.org/2000/svg">
<path d="M0.750877 88.7242C-1.29238 100.334 10.6896 106.745 20.1291 109.434C23.3163 110.342 26.5577 108.717 28.4688 106.009C28.8035 105.535 29.1504 105.059 29.5038 104.592C30.9927 102.626 31.9333 100.171 31.2971 97.7883C30.1752 93.5876 28.3154 90.4765 27.3321 89.2477C26.8677 74.4961 19.7395 71.4229 15.3677 71.7167C14.6309 71.7662 13.8914 71.8206 13.158 71.9062C9.37829 72.347 2.97764 76.0717 0.750877 88.7242Z" fill="#50776F"/>
<path d="M14.2318 96.688C22.8602 101.105 27.3454 93.5455 27.2091 89.2185C37.8315 105.152 27.2091 106.096 27.2091 106.096C27.2091 106.096 13.9467 104.562 11.5117 98.7787C8.67908 92.0512 9.66564 85.2475 15.1547 85.9633C9.65396 88.917 11.6297 95.3559 14.2318 96.688Z" fill="#3E5155"/>
<path d="M111.991 148.404C102.199 147.561 103.268 138.304 101.24 137.173C106.576 134.438 113.572 121.803 116.964 118.269C116.915 121.633 117.861 135.261 116.517 141.932C115.173 148.603 114.259 148.599 111.991 148.404Z" fill="#50776F"/>
<path d="M109.31 132.892C102.015 139.467 89.3469 139.111 82.4924 140.298C76.9773 141.253 67.648 142.101 60.8277 141.514C55.6537 141.069 47.3338 139.737 38.0429 136.473C28.7519 133.21 24.4156 125.508 23.4088 122.064C23.1484 120.816 23.0031 119.575 22.9581 118.353C22.6115 108.949 28.2007 100.623 32.9522 97.8902C38.6662 94.6037 39.4276 93.7152 40.6494 92.2894L40.6616 92.2751C84.1254 98.195 103.072 94.3289 110.877 89.9066C112.042 101.142 116.874 102.269 117.214 116.751C117.443 126.484 113.933 128.725 109.31 132.892Z" fill="#50776F"/>
<path d="M95.5421 138.697C95.2285 138.73 90.719 139.306 86.8931 139.79C83.7513 140.187 80.365 140.177 77.865 138.234C72.0144 133.685 71.8392 124.71 68.7154 117.211C62.1963 103.487 60.7337 99.9258 62.691 97.7386C64.426 95.7999 95.5803 91.8002 102.638 90.9162L102.725 90.9053C103.651 90.7892 104.568 90.6741 105.499 90.7462C107.436 90.8962 107.616 92.4067 106.033 105.103C105.32 110.828 104.932 107.963 105.569 117.383C106.753 134.899 101.957 137.116 101.957 137.116C101.957 137.116 99.2482 138.305 95.5421 138.697Z" fill="#FCEDC6"/>
<path d="M51.9385 131.469L51.5282 131.367C47.0809 130.262 42.7346 133.502 42.5245 138.08C49.6159 141.295 55.6572 141.595 58.2416 141.279L57.6003 137.559C57.0878 134.586 54.8666 132.197 51.9385 131.469Z" fill="#FCEDC6"/>
<path d="M29.4677 84.6783C35.8331 91.1018 45.2276 94.7217 49.1292 95.7288C54.8718 97.3681 69.4494 100.226 81.8196 98.5419C94.1898 96.8581 109.612 91.733 114.376 89.142C120.093 86.0405 130.28 78.3326 130.921 67.584C131.562 56.8354 128.257 55.864 123.446 44.3145C122.955 34.6058 122.16 30.622 121.982 28.5534C121.729 26.9126 120.818 22.8984 115.255 21.4719C109.692 20.0454 104.696 24.5095 103.688 26.1207L95.8416 34.7129C83.3584 28.9001 63.7594 31.7151 55.5204 33.8492C48.8777 28.4443 43.0378 26.1016 40.9481 25.6059C38.8652 25.0318 34.0188 25.4598 31.2965 31.7646C28.5743 38.0695 29.9333 48.9823 30.9532 53.6506C30.0933 56.3012 28.0991 62.3133 27.0014 65.1568C25.6294 68.711 21.5109 76.6489 29.4677 84.6783Z" fill="#50776F"/>
<path d="M45.5526 69.8333C37.0955 66.3262 29.1313 69.4853 25.9037 71.9271C25.2098 72.452 24.7377 73.2157 24.6616 74.0825C24.5817 74.9928 24.6413 76.2464 25.0951 77.6682C26.0282 80.5916 27.2306 81.7613 28.8225 83.9121C30.0959 85.6328 33.6166 88.3129 35.2178 89.4379C36.4114 90.2513 40.4729 92.5199 47.1702 95.0864C55.5419 98.2946 69.3284 99.4779 75.9459 99.3396C82.5917 99.2008 89.7186 97.629 92.9677 97.0136C95.9783 96.4435 104.661 93.2814 108.811 91.8616C112.961 90.4418 120.334 85.9824 125.446 80.2623C127.887 77.5318 129.26 74.4227 129.979 71.8814C130.675 69.419 129.268 67.0175 126.86 66.1523C124.277 65.2245 121.162 64.3751 118.893 64.1798C109.912 63.4069 102.156 70.0842 97.5168 67.5526C93.8055 65.5274 92.1526 59.6806 89.2414 57.7189C79.5673 51.2002 69.8199 55.8107 66.1555 58.9308C61.0424 63.2843 55.069 73.7796 45.5526 69.8333Z" fill="#FCEDC6"/>
<path d="M38.066 94.7657C38.8214 94.2936 39.9937 92.9166 40.5445 92.2871C49.3965 96.418 54.5897 97.5983 62.1433 98.5425C61.4823 99.2979 61.9859 101.532 62.2613 102.437C46.2098 100.549 37.1218 95.3558 38.066 94.7657Z" fill="#3E5155"/>
<path d="M62.3797 102.438C61.6243 100.644 61.9076 99.0542 62.1436 98.5428C79.0449 101.659 99.0858 95.8675 106.994 92.5234C107.182 93.09 107.072 95.3561 106.994 96.4183C87.7317 105.011 69.2252 104.011 62.3797 102.438Z" fill="#EBDBB0"/>
<path d="M46.0514 48.908C43.043 50.8288 44.4138 52.7948 46.5305 52.977C49.3566 53.2202 51.5071 52.6067 52.9626 51.6509C55.0765 50.2628 53.8143 47.4534 51.2855 47.47C49.5417 47.4814 47.6134 47.9107 46.0514 48.908Z" fill="#FBEDC6"/>
<path d="M109.371 46.8139C112.007 49.2204 110.321 50.9233 108.204 50.7412C105.378 50.498 103.364 49.5261 102.093 48.3357C100.247 46.6068 101.971 44.0544 104.46 44.5028C106.176 44.8119 108.002 45.5644 109.371 46.8139Z" fill="#FBEDC6"/>
<path d="M42.4847 33.9118C36.0889 30.0444 37.1111 40.8335 38.4217 46.7114L49.7436 39.038C49.9889 38.9406 48.8806 37.7791 42.4847 33.9118Z" fill="#FCDB8A"/>
<path d="M115.124 26.7769C112.44 24.9347 107.958 32.0438 106.053 35.8286L117.342 36.8C117.721 34.2265 117.809 28.619 115.124 26.7769Z" fill="#FCDB8A"/>
<ellipse cx="50.6202" cy="59.134" rx="4.48499" ry="4.13091" transform="rotate(4.91842 50.6202 59.134)" fill="#562528"/>
<ellipse cx="107.1" cy="58.0705" rx="4.48499" ry="4.13091" transform="rotate(4.91842 107.1 58.0705)" fill="#562528"/>
<path d="M75.5599 82.2866C72.2068 81.9981 71.0044 78.7975 70.9956 76.2981C71.7149 76.2584 74.292 76.4792 75.6971 75.1226C77.1857 73.6856 80.7908 74.4636 82.6964 75.2695C83.2741 75.5139 83.8864 75.5976 84.5128 75.4165C84.3481 80.0071 82.9214 80.3511 82.1618 80.9996C81.4975 81.6564 78.913 82.5752 75.5599 82.2866Z" fill="#FE71A6"/>
<path d="M78.2201 73.5316C78.3735 73.685 78.2649 73.9472 78.048 73.9472C77.8311 73.9472 77.7225 73.685 77.8759 73.5316C77.9709 73.4366 78.1251 73.4366 78.2201 73.5316Z" fill="#FE71A6"/>
<path d="M75.5599 82.2866C72.2068 81.9981 71.0044 78.7975 70.9956 76.2981C71.7149 76.2584 74.292 76.4792 75.6971 75.1226C77.1857 73.6856 80.7908 74.4636 82.6964 75.2695C83.2741 75.5139 83.8864 75.5976 84.5128 75.4165C84.3481 80.0071 82.9214 80.3511 82.1618 80.9996C81.4975 81.6564 78.913 82.5752 75.5599 82.2866Z" stroke="#FE71A6" stroke-linecap="round"/>
<path d="M78.2201 73.5316C78.3735 73.685 78.2649 73.9472 78.048 73.9472C77.8311 73.9472 77.7225 73.685 77.8759 73.5316C77.9709 73.4366 78.1251 73.4366 78.2201 73.5316Z" stroke="#FE71A6" stroke-linecap="round"/>
<path d="M77.9043 75.2275L78.0947 78.3815" stroke="#C44B78" stroke-width="4" stroke-linecap="round"/>
<path d="M77.9497 69.1851L77.9218 72.2627M77.9218 72.2627C77.0139 74.5538 75.2361 75.9408 69.6486 76.1708C65.5144 76.3409 63.0634 75.6041 62.6513 72.1332M77.9218 72.2627C79.0534 74.2555 81.1294 76.2864 88.4709 74.9474C91.1186 74.4645 93.5615 73.6086 93.4655 69.2172" stroke="#562528" stroke-width="1.5" stroke-linecap="round"/>
<path d="M74.8335 65.9367C76.4119 68.1692 79.7328 68.1427 81.2753 65.8853C83.0377 63.3062 81.2255 59.8022 78.1023 59.7498C74.8906 59.696 72.9791 63.3139 74.8335 65.9367Z" fill="#562528"/>
<path d="M27.1681 147.409C21.3905 138.806 22.1569 121.242 23.3614 113.058C27.3984 118.416 33.176 122.351 38.1082 124.899C42.3319 127.081 45.2557 131.478 43.4603 135.88C42.5431 138.129 41.2876 140.65 39.6019 143.242C36.3565 148.231 32.8081 149.474 30.4189 149.427C29.0687 149.4 27.9211 148.53 27.1681 147.409Z" fill="#50776F"/>
<path d="M32.3464 139.337C29.6021 139.29 25.1637 137.455 23.3564 136.431C23.3261 136.783 23.2813 138.13 25.024 143.208C26.7667 148.286 28.4116 149.27 29.467 149.395C35.9166 150.16 39.3836 144.286 40.7017 141.359C39.0601 140.704 35.0907 139.383 32.3464 139.337Z" fill="#FCEDC6"/>
<path d="M73.623 155.517C59.6601 154.863 54.6982 133.196 54.4768 124.455C65.3951 118.964 67.8902 128.189 72.6849 130.369C74.0262 138.185 75.0821 135.551 79.3241 139.944C78.0932 155.845 76.532 155.653 73.623 155.517Z" fill="#50776F"/>
<path d="M69.5003 148.102C65.3854 147.463 63.0012 148.372 62.3234 148.906C62.9581 149.789 63.615 150.416 64.1505 151.077C66.1097 153.496 69.8542 155.003 71.9506 155.42C74.047 155.838 75.2634 155.468 75.7641 155.156C77.5318 153.887 77.9976 150.768 78.2021 148.851C77.1137 148.283 75.8941 148.139 75.4204 148.137C74.3545 148.134 73.6153 148.74 69.5003 148.102Z" fill="#FCEDC6"/>
<path d="M110.264 143.044C108.184 143.561 105.221 143.116 104 142.829C105.04 145.756 107.782 146.81 109.318 147.348C110.225 147.666 112.391 147.958 113.336 147.994C114.376 148.08 115.018 147.258 115.345 146.81C115.818 146.165 116.764 142.829 117 141C115.621 141.466 112.344 142.528 110.264 143.044Z" fill="#FCEDC6"/>
<path d="M107 97C107.125 96.6087 107.083 94.0435 107 92.6957C107.625 92.4348 110.042 91.5652 111.25 91C111.35 91.9391 111.792 94.1739 112 95.1739C112 95.487 108.667 96.4783 107 97Z" fill="#3E5155"/>
<circle cx="53" cy="58" r="1" fill="white"/>
<ellipse cx="109.5" cy="57" rx="1.5" ry="1" fill="white"/>
<path d="M53.4671 14.1608C58.3747 9.31768 69.6268 7.04808 69.6268 7.04808C69.6268 7.04808 76.2143 6.14299 80.4363 6.38985C86.3553 6.73594 87.3229 6.96963 92.1213 7.87843C100.079 9.52045 106.887 14.5138 111.315 20.3575C113.464 23.1934 113.306 28.3091 113.088 30.3388C112.838 32.6808 106.407 36.671 100.428 38.695C91.6855 41.6542 86.0567 40.3399 76.832 40.0365C69.2321 39.7866 67.8934 40.1845 59.7353 38.2051C56.2286 37.3543 52.499 35.05 50.356 32.1468C48.0756 29.0577 47.1249 25.9575 47.4784 23.6265C48.1344 19.3017 50.3536 17.2334 53.4671 14.1608Z" fill="#F4B396"/>
<path fill-rule="evenodd" clip-rule="evenodd" d="M58.0421 37.3898C58.0421 37.3898 58.0806 33.513 58.1585 31.039C58.3802 23.9936 61.6278 19.7032 61.6278 19.7032C61.6278 19.7032 64.174 15.4747 66.2992 13.415C68.5425 11.2408 71.8738 8.73972 71.8738 8.73972C71.8738 8.73972 66.3079 10.6557 62.9959 13.5697C60.4829 15.7806 59.726 16.4894 58.1675 19.4514C56.2362 23.122 55.4462 26.623 56.0745 30.7228C56.4867 33.4124 58.0421 37.3898 58.0421 37.3898Z" fill="#F29D77"/>
<path fill-rule="evenodd" clip-rule="evenodd" d="M98.0681 12.3271C99.9075 13.9998 101.596 15.9211 102.447 17.8795C104.529 22.6686 104.489 25.3584 102.649 28.4504C101.155 30.9607 99.294 31.762 96.9121 32.7876C96.4909 32.9689 96.0534 33.1573 95.5988 33.3634C92.396 34.815 90.0121 34.9351 87.0523 35.0843C86.123 35.1311 85.137 35.1807 84.051 35.2754C78.9359 35.7212 75.7974 35.5226 71.1144 35.2264C70.54 35.19 69.9424 35.1522 69.315 35.1139C67.8575 35.025 66.5623 35.0036 65.3448 34.9836C62.1696 34.9312 59.5229 34.8875 55.9019 33.6771C53.7344 32.9526 51.1562 31.5205 49.1319 30.278C47.8053 27.8218 47.2894 25.4506 47.5691 23.5738C48.1919 19.3959 50.1798 17.3185 52.9797 14.3926C53.0703 14.2979 53.1617 14.2024 53.254 14.1059C57.8947 9.25023 68.4804 6.91967 68.4804 6.91967C68.4804 6.91967 74.6752 5.97735 78.6404 6.19732C84.1994 6.50571 87.4035 7.23114 92.5215 9.49494C92.722 9.58364 92.9182 9.66999 93.1108 9.75473C94.9274 10.554 96.417 11.2094 98.0681 12.3271Z" fill="#F8C5AF"/>
<path fill-rule="evenodd" clip-rule="evenodd" d="M58.0846 34.2984C57.6892 34.2056 57.2842 34.0994 56.8671 33.9777C56.5374 32.8946 56.2274 31.7202 56.0745 30.7228C55.4462 26.623 56.2362 23.122 58.1675 19.4514C59.726 16.4894 60.4829 15.7806 62.9959 13.5697C66.3079 10.6557 71.8738 8.73972 71.8738 8.73972C71.8738 8.73972 68.5425 11.2408 66.2992 13.415C64.174 15.4747 61.6278 19.7032 61.6278 19.7032C61.6278 19.7032 58.3802 23.9936 58.1585 31.039C58.1278 32.0152 58.1031 33.2098 58.0846 34.2984Z" fill="#F4B396"/>
<path fill-rule="evenodd" clip-rule="evenodd" d="M97.9651 12.2951C97.7487 11.9561 95.1091 9.96248 93.8163 9.00805L92.1617 7.87451C89.3394 7.30981 86.4792 6.87973 83.2386 6.59473L90.4706 11.4923L97.9651 12.2951Z" fill="#F8C5AF"/>
<path d="M79.971 7.04503L79.1903 6.96141C79.1903 6.96141 79.5722 6.48807 79.5862 6.21419C79.5989 5.96731 79.4776 5.83443 79.3325 5.63427C79.107 5.3232 78.6633 5.24674 78.273 5.20493C77.9321 5.16842 77.3327 5.36323 76.9905 5.3834C76.0034 5.44156 75.447 5.46401 74.4589 5.42806C73.1719 5.38125 72.4268 5.39911 71.18 5.07683C70.4168 4.87956 70.0521 4.55085 69.2785 4.39937C68.83 4.31155 68.5701 4.29802 68.1162 4.27438L68.1075 4.27393C67.5834 4.24664 67.2056 4.57095 66.7637 4.2879C66.508 4.1242 66.2757 3.6829 66.2757 3.6829L66.8807 3.19497C66.8807 3.19497 67.4243 2.52317 67.9179 2.35852C68.1296 2.28789 68.2622 2.30471 68.4811 2.26092C69.8257 1.99194 70.4084 1.18729 71.771 1.03409C72.9898 0.897074 73.6945 1.11168 74.8937 1.3686C75.9638 1.59785 76.7131 1.52387 77.5675 2.20775C78.0753 2.6142 78.2048 2.9979 78.6131 3.50419C79.212 4.24675 79.9517 4.4718 80.1466 5.40563C80.2782 6.03594 79.971 7.04503 79.971 7.04503Z" fill="#9DBE98"/>
<path fill-rule="evenodd" clip-rule="evenodd" d="M66.3945 3.87947L68.7794 3.16682L71.8213 2.782L75.1001 3.13323L77.6345 3.79952L79.1903 4.7558L79.9403 5.86266L79.5823 7.00352L79.1911 6.96162C79.1911 6.96162 79.573 6.48829 79.587 6.2144C79.5983 5.99375 79.5026 5.86415 79.3786 5.6962C79.3638 5.67624 79.3487 5.65574 79.3333 5.63449C79.1078 5.32342 78.6641 5.24696 78.2738 5.20514C78.0714 5.18346 77.7778 5.24334 77.5011 5.29979C77.3117 5.3384 77.1303 5.37542 76.9912 5.38361C76.0042 5.44177 75.4478 5.46422 74.4596 5.42827C74.2951 5.42229 74.1395 5.41736 73.9905 5.41265C72.974 5.38047 72.2683 5.35813 71.1808 5.07705C70.828 4.98585 70.5603 4.86656 70.2981 4.74968C69.993 4.61373 69.6953 4.48104 69.2793 4.39958C68.8308 4.31176 68.5709 4.29823 68.117 4.2746L68.1083 4.27414C67.9079 4.26371 67.7289 4.30468 67.5595 4.34344C67.2859 4.40606 67.0374 4.46293 66.7644 4.28811C66.6217 4.19673 66.4863 4.01881 66.3945 3.87947Z" fill="#90AE8B"/>
<path d="M81.3956 5.54483C81.1162 6.13777 80.9077 7.15078 80.9077 7.15078L81.6884 7.2344C81.6884 7.2344 81.984 6.75309 82.2404 6.50391C82.6495 6.10647 82.9803 5.99786 83.5034 5.77062C84.4195 5.37269 85.0265 5.43829 86.0071 5.24919C87.4463 4.97168 88.2861 4.97877 89.7069 4.619C90.6788 4.37293 91.1568 3.91234 92.1577 3.85501C92.8311 3.81644 93.2323 4.24335 93.8752 4.03899C94.4537 3.85508 95.0852 3.06313 95.0852 3.06313L95.1437 2.51667C95.1437 2.51667 94.4716 2.92261 93.9922 2.94606C93.7472 2.95804 93.6102 2.91624 93.3677 2.87916C91.9682 2.66511 91.4245 1.75689 90.0498 1.41827C88.978 1.15426 88.3318 0.95916 87.2394 1.11722C85.7328 1.33521 85.0027 2.02129 83.8045 2.96022C82.7184 3.81124 81.9837 4.29668 81.3956 5.54483Z" fill="#9DBE98"/>
<path fill-rule="evenodd" clip-rule="evenodd" d="M94.9349 3.23536L93.6993 3.46626L92.085 3.05644L90.6268 2.66335L87.3758 2.78889L84.6658 3.76199L82.3043 5.16724L81.2506 7.1861L81.4822 7.21091L81.7311 7.16473C81.8224 7.02303 82.0428 6.69409 82.24 6.50246C82.5975 6.15506 82.8953 6.02834 83.314 5.85018C83.3743 5.82451 83.4371 5.79778 83.503 5.76917C84.1175 5.50222 84.5929 5.44388 85.1354 5.3773C85.4016 5.34464 85.6839 5.30999 86.0067 5.24774C86.6027 5.13282 87.0959 5.0667 87.5701 5.00313C88.2411 4.91319 88.8741 4.82833 89.7065 4.61755C90.0998 4.51796 90.4123 4.38324 90.7112 4.25433C91.1509 4.06472 91.5615 3.88769 92.1572 3.85357C92.4518 3.8367 92.6942 3.90885 92.9275 3.9783C93.2278 4.06765 93.513 4.15253 93.8747 4.03754C94.281 3.90839 94.7134 3.47939 94.9349 3.23536Z" fill="#90AE8B"/>
<path d="M79.95 4.19419C80.0952 5.32087 79.6401 7.08655 79.6401 7.08655C79.6401 7.08655 80.0511 7.41951 80.3687 7.47255C80.7417 7.53484 81.3147 7.26593 81.3147 7.26593C81.3147 7.26593 81.4667 5.47378 81.32 4.34095C81.223 3.59092 81.1076 3.17812 80.9068 2.44896C80.715 1.75244 80.325 0.692901 80.325 0.692901C80.325 0.692901 79.7774 0.7083 79.5313 0.915826C79.1198 1.26266 79.3845 2.28589 79.3845 2.28589C79.3845 2.28589 79.8506 3.4233 79.95 4.19419Z" fill="#D29A81"/>
</svg>
