<svg width="151" height="167" viewBox="0 0 151 167" fill="none" xmlns="http://www.w3.org/2000/svg">
<path d="M-6607 -2822H1745V-2824H-6607V-2822ZM1746 -2821V686H1748V-2821H1746ZM1745 687H-6607V689H1745V687ZM-6608 686V-2821H-6610V686H-6608ZM-6607 687C-6607.55 687 -6608 686.552 -6608 686H-6610C-6610 687.657 -6608.66 689 -6607 689V687ZM1746 686C1746 686.552 1745.55 687 1745 687V689C1746.66 689 1748 687.657 1748 686H1746ZM1745 -2822C1745.55 -2822 1746 -2821.55 1746 -2821H1748C1748 -2822.66 1746.66 -2824 1745 -2824V-2822ZM-6607 -2824C-6608.66 -2824 -6610 -2822.66 -6610 -2821H-6608C-6608 -2821.55 -6607.55 -2822 -6607 -2822V-2824Z" fill="black" fill-opacity="0.1"/>
<path d="M0.750389 89.7242C-1.29286 101.334 10.6891 107.745 20.1286 110.434C23.3158 111.342 26.5572 109.717 28.4683 107.009C28.803 106.535 29.1499 106.059 29.5033 105.592C30.9923 103.626 31.9328 101.171 31.2966 98.7883C30.1748 94.5876 28.3149 91.4765 27.3316 90.2477C26.8672 75.4961 19.739 72.4229 15.3672 72.7167C14.6304 72.7662 13.8909 72.8206 13.1575 72.9062C9.3778 73.347 2.97715 77.0717 0.750389 89.7242Z" fill="#FEA34A"/>
<path d="M14.2313 97.688C22.8597 102.105 27.3449 94.5455 27.2087 90.2185C37.831 106.152 27.2087 107.096 27.2087 107.096C27.2087 107.096 13.9463 105.562 11.5112 99.7787C8.67859 93.0512 9.66515 86.2475 15.1542 86.9633C9.65347 89.917 11.6292 96.3559 14.2313 97.688Z" fill="#DB924A"/>
<path d="M111.991 149.404C102.199 148.561 103.268 139.304 101.24 138.173C106.576 135.438 113.572 122.803 116.964 119.269C116.915 122.633 117.861 136.261 116.517 142.932C115.173 149.603 114.259 149.599 111.991 149.404Z" fill="#FEA34A"/>
<path d="M109.31 133.892C102.015 140.467 89.3469 140.111 82.4924 141.298C76.9773 142.253 67.648 143.101 60.8277 142.514C55.6537 142.069 47.3338 140.737 38.0429 137.473C28.7519 134.21 24.4156 126.508 23.4088 123.064C23.1484 121.816 23.0031 120.575 22.9581 119.353C22.6115 109.949 28.2007 101.623 32.9522 98.8902C38.6662 95.6037 39.4276 94.7152 40.6494 93.2894L40.6616 93.2751C84.1254 99.195 103.072 95.3289 110.877 90.9066C112.042 102.142 116.874 103.269 117.214 117.751C117.443 127.484 113.933 129.725 109.31 133.892Z" fill="#FEA34A"/>
<path d="M95.5421 139.697C95.2285 139.73 90.719 140.306 86.8931 140.79C83.7513 141.187 80.365 141.177 77.865 139.234C72.0144 134.685 71.8392 125.71 68.7154 118.211C62.1963 104.487 60.7337 100.926 62.691 98.7386C64.426 96.7999 95.5803 92.8002 102.638 91.9162L102.725 91.9053C103.651 91.7892 104.568 91.6741 105.499 91.7462C107.436 91.8962 107.616 93.4067 106.033 106.103C105.32 111.828 104.932 108.963 105.569 118.383C106.753 135.899 101.957 138.116 101.957 138.116C101.957 138.116 99.2482 139.305 95.5421 139.697Z" fill="#FCEDC6"/>
<path d="M51.939 132.469L51.5287 132.367C47.0814 131.262 42.7351 134.502 42.525 139.08C49.6164 142.295 55.6577 142.595 58.2421 142.279L57.6008 138.559C57.0883 135.586 54.867 133.197 51.939 132.469Z" fill="#FCEDC6"/>
<path d="M29.4677 85.6783C35.8331 92.1018 45.2276 95.7217 49.1292 96.7288C54.8718 98.3681 69.4494 101.226 81.8196 99.5419C94.1898 97.8581 109.612 92.733 114.376 90.142C120.093 87.0405 130.28 79.3326 130.921 68.584C131.562 57.8354 128.257 56.864 123.446 45.3145C122.955 35.6058 122.16 31.622 121.982 29.5534C121.729 27.9126 120.818 23.8984 115.255 22.4719C109.692 21.0454 104.696 25.5095 103.688 27.1207L95.8416 35.7129C83.3584 29.9001 63.7594 32.7151 55.5204 34.8492C48.8777 29.4443 43.0378 27.1016 40.9481 26.6059C38.8652 26.0318 34.0188 26.4598 31.2965 32.7646C28.5743 39.0695 29.9333 49.9823 30.9532 54.6506C30.0933 57.3012 28.0991 63.3133 27.0014 66.1568C25.6294 69.711 21.5109 77.6489 29.4677 85.6783Z" fill="#FEA34A"/>
<path d="M45.5531 70.8333C37.096 67.3262 29.1318 70.4853 25.9042 72.9271C25.2103 73.452 24.7382 74.2157 24.6621 75.0825C24.5822 75.9928 24.6418 77.2464 25.0956 78.6682C26.0287 81.5916 27.2311 82.7613 28.823 84.9121C30.0964 86.6328 33.6171 89.3129 35.2183 90.4379C36.4118 91.2513 40.4734 93.5199 47.1707 96.0864C55.5424 99.2946 69.3289 100.478 75.9464 100.34C82.5922 100.201 89.7191 98.629 92.9682 98.0136C95.9788 97.4435 104.662 94.2814 108.812 92.8616C112.962 91.4418 120.335 86.9824 125.447 81.2623C127.887 78.5318 129.261 75.4227 129.979 72.8814C130.675 70.419 129.269 68.0175 126.861 67.1523C124.278 66.2245 121.163 65.3751 118.894 65.1798C109.912 64.4069 102.156 71.0842 97.5173 68.5526C93.806 66.5274 92.1531 60.6806 89.2419 58.7189C79.5678 52.2002 69.8204 56.8107 66.156 59.9308C61.0429 64.2843 55.0695 74.7796 45.5531 70.8333Z" fill="#FCEDC6"/>
<path d="M38.0655 95.7657C38.8209 95.2936 39.9933 93.9166 40.544 93.2871C49.396 97.418 54.5892 98.5983 62.1428 99.5425C61.4818 100.298 61.9854 102.532 62.2608 103.437C46.2093 101.549 37.1213 96.3558 38.0655 95.7657Z" fill="#DB924A"/>
<path d="M62.3797 103.438C61.6243 101.644 61.9076 100.054 62.1436 99.5428C79.0449 102.659 99.0858 96.8675 106.994 93.5234C107.182 94.09 107.072 96.3561 106.994 97.4183C87.7317 106.011 69.2252 105.011 62.3797 103.438Z" fill="#EBDBB0"/>
<path d="M46.0514 49.908C43.043 51.8288 44.4138 53.7948 46.5305 53.977C49.3566 54.2202 51.5071 53.6067 52.9626 52.6509C55.0765 51.2628 53.8143 48.4534 51.2855 48.47C49.5417 48.4814 47.6134 48.9107 46.0514 49.908Z" fill="#FBEDC6"/>
<path d="M109.371 47.8139C112.007 50.2204 110.321 51.9233 108.204 51.7412C105.378 51.498 103.364 50.5261 102.093 49.3357C100.247 47.6068 101.971 45.0544 104.46 45.5028C106.176 45.8119 108.002 46.5644 109.371 47.8139Z" fill="#FBEDC6"/>
<path d="M42.4847 34.9118C36.0889 31.0444 37.1111 41.8335 38.4217 47.7114L49.7436 40.038C49.9889 39.9406 48.8806 38.7791 42.4847 34.9118Z" fill="#FCDB8A"/>
<path d="M115.124 27.7769C112.44 25.9347 107.958 33.0438 106.053 36.8286L117.342 37.8C117.721 35.2265 117.809 29.619 115.124 27.7769Z" fill="#FCDB8A"/>
<ellipse cx="50.6202" cy="60.134" rx="4.48499" ry="4.13091" transform="rotate(4.91842 50.6202 60.134)" fill="#562528"/>
<ellipse cx="107.1" cy="59.0705" rx="4.48499" ry="4.13091" transform="rotate(4.91842 107.1 59.0705)" fill="#562528"/>
<path d="M75.5599 83.2866C72.2068 82.9981 71.0044 79.7975 70.9956 77.2981C71.7149 77.2584 74.292 77.4792 75.6971 76.1226C77.1857 74.6856 80.7908 75.4636 82.6964 76.2695C83.2741 76.5139 83.8864 76.5976 84.5128 76.4165C84.3481 81.0071 82.9214 81.3511 82.1618 81.9996C81.4975 82.6564 78.913 83.5752 75.5599 83.2866Z" fill="#FE71A6"/>
<path d="M78.2201 74.5316C78.3735 74.685 78.2649 74.9472 78.048 74.9472C77.8311 74.9472 77.7225 74.685 77.8759 74.5316C77.9709 74.4366 78.1251 74.4366 78.2201 74.5316Z" fill="#FE71A6"/>
<path d="M75.5599 83.2866C72.2068 82.9981 71.0044 79.7975 70.9956 77.2981C71.7149 77.2584 74.292 77.4792 75.6971 76.1226C77.1857 74.6856 80.7908 75.4636 82.6964 76.2695C83.2741 76.5139 83.8864 76.5976 84.5128 76.4165C84.3481 81.0071 82.9214 81.3511 82.1618 81.9996C81.4975 82.6564 78.913 83.5752 75.5599 83.2866Z" stroke="#FE71A6" stroke-linecap="round"/>
<path d="M78.2201 74.5316C78.3735 74.685 78.2649 74.9472 78.048 74.9472C77.8311 74.9472 77.7225 74.685 77.8759 74.5316C77.9709 74.4366 78.1251 74.4366 78.2201 74.5316Z" stroke="#FE71A6" stroke-linecap="round"/>
<path d="M77.9043 76.2275L78.0947 79.3815" stroke="#C44B78" stroke-width="4" stroke-linecap="round"/>
<path d="M77.9497 70.1851L77.9218 73.2627M77.9218 73.2627C77.0139 75.5538 75.2361 76.9408 69.6486 77.1708C65.5144 77.3409 63.0634 76.6041 62.6513 73.1332M77.9218 73.2627C79.0534 75.2555 81.1294 77.2864 88.4709 75.9474C91.1186 75.4645 93.5615 74.6086 93.4655 70.2172" stroke="#562528" stroke-width="1.5" stroke-linecap="round"/>
<path d="M74.8335 66.9367C76.4119 69.1692 79.7328 69.1427 81.2753 66.8853C83.0377 64.3062 81.2255 60.8022 78.1023 60.7498C74.8906 60.696 72.9791 64.3139 74.8335 66.9367Z" fill="#562528"/>
<path d="M27.1681 148.409C21.3905 139.806 22.1569 122.242 23.3614 114.058C27.3984 119.416 33.176 123.351 38.1082 125.899C42.3319 128.081 45.2557 132.478 43.4603 136.88C42.5431 139.129 41.2876 141.65 39.6019 144.242C36.3565 149.231 32.8081 150.474 30.4189 150.427C29.0687 150.4 27.9211 149.53 27.1681 148.409Z" fill="#FEA34A"/>
<path d="M32.3464 140.337C29.6021 140.29 25.1637 138.455 23.3564 137.431C23.3261 137.783 23.2813 139.13 25.024 144.208C26.7667 149.286 28.4116 150.27 29.467 150.395C35.9166 151.16 39.3836 145.286 40.7017 142.359C39.0601 141.704 35.0907 140.383 32.3464 140.337Z" fill="#FCEDC6"/>
<path d="M73.623 156.517C59.6601 155.863 54.6982 134.196 54.4768 125.455C65.3951 119.964 67.8902 129.189 72.6849 131.369C74.0262 139.185 75.0821 136.551 79.3241 140.944C78.0932 156.845 76.532 156.653 73.623 156.517Z" fill="#FEA34A"/>
<path d="M69.5008 149.102C65.3859 148.463 63.0017 149.372 62.3239 149.906C62.9586 150.789 63.6155 151.416 64.1509 152.077C66.1102 154.496 69.8547 156.003 71.9511 156.42C74.0475 156.838 75.2639 156.468 75.7646 156.156C77.5323 154.887 77.9981 151.768 78.2026 149.851C77.1142 149.283 75.8946 149.139 75.4209 149.137C74.355 149.134 73.6158 149.74 69.5008 149.102Z" fill="#FCEDC6"/>
<path d="M110.264 144.044C108.184 144.561 105.221 144.116 104 143.829C105.04 146.756 107.782 147.81 109.318 148.348C110.225 148.666 112.391 148.958 113.336 148.994C114.376 149.08 115.018 148.258 115.345 147.81C115.818 147.165 116.764 143.829 117 142C115.621 142.466 112.344 143.528 110.264 144.044Z" fill="#FCEDC6"/>
<path d="M107 98C107.125 97.6087 107.083 95.0435 107 93.6957C107.625 93.4348 110.042 92.5652 111.25 92C111.35 92.9391 111.792 95.1739 112 96.1739C112 96.487 108.667 97.4783 107 98Z" fill="#DB924A"/>
<circle cx="53" cy="59" r="1" fill="white"/>
<ellipse cx="109.5" cy="58" rx="1.5" ry="1" fill="white"/>
<path d="M54.0477 14.085C53.0143 18.4202 53.8451 35.4521 53.8451 35.4521L101.017 35.8993C101.017 35.8993 101.536 21.3734 100.517 16.0927C99.4987 10.812 99.3582 9.52854 95.5053 5.28944C91.6523 1.05035 83.0332 0.327543 77.0032 0.270379C70.9732 0.213215 65.2408 0.977945 60.1648 4.95436C55.0889 8.93077 54.534 12.0449 54.0477 14.085Z" fill="#F3C66D"/>
<path fill-rule="evenodd" clip-rule="evenodd" d="M63.8023 31.9138C63.8023 31.9138 63.8379 24.2104 63.8962 22.0137C63.9097 21.5045 63.9197 21.0114 63.9296 20.5299L63.9296 20.5299L63.9296 20.5299L63.9296 20.5298L63.9296 20.5298C63.9858 17.775 64.0343 15.3999 64.673 12.5475C65.2201 10.1038 65.909 8.4858 66.7721 6.4586L66.7721 6.45852L66.7722 6.45824L66.7723 6.45813C67.0008 5.9214 67.2415 5.35598 67.4951 4.73896C67.7545 4.10764 68.016 3.28641 68.2762 2.46931L68.2762 2.46928C68.4405 1.95356 68.6042 1.4395 68.7665 0.975873C69.0908 0.905205 69.4166 0.840878 69.7438 0.782447C69.3765 2.20847 68.8679 4.17957 68.4786 5.67427C68.2037 6.72959 67.9374 7.61197 67.6851 8.44767L67.685 8.4478L67.685 8.4479L67.685 8.44794L67.685 8.44798C67.2338 9.94253 66.8276 11.2878 66.4988 13.2059C66.0318 15.9293 65.9892 17.7298 65.9329 20.1029L65.9329 20.103L65.9329 20.103C65.9187 20.7017 65.9037 21.3369 65.8807 22.0325C65.8083 24.2288 65.7869 31.9326 65.7869 31.9326L63.8023 31.9138ZM73.3779 0.356821C73.4636 1.60109 73.5756 3.42774 73.6014 4.79686C73.6228 5.93328 73.6056 6.74598 73.5863 7.65491L73.5863 7.65497L73.5863 7.65503L73.5863 7.65509L73.5863 7.65514L73.5863 7.65518C73.5758 8.14759 73.5647 8.66825 73.5589 9.28393L73.4799 17.6171C73.3347 19.5152 73.0381 23.9524 73.0381 23.9524C73.0381 23.9524 71.945 31.896 71.7284 33.2711L73.7102 33.5748C73.7102 33.5748 74.7518 25.9485 74.87 23.9697C74.9658 22.3667 74.9527 21.2179 74.9381 19.933C74.9302 19.2369 74.9219 18.5008 74.9301 17.6308C74.941 16.4873 74.9767 15.5199 75.0104 14.6049L75.0104 14.6048L75.0104 14.6048L75.0104 14.6047L75.0104 14.6046L75.0104 14.6046C75.0728 12.9157 75.1285 11.4057 75.0091 9.29769C74.9096 7.53968 74.8065 6.55562 74.5937 4.80626C74.425 3.41903 74.1179 1.57153 73.9014 0.327035C73.7266 0.335865 73.5521 0.345773 73.3779 0.356821ZM78.1709 0.289912C78.6807 1.52914 79.4268 3.41689 79.8604 4.8562C80.5106 7.01409 80.7457 8.28765 81.1434 10.4419L81.1797 10.6383C81.5665 12.7325 81.7177 14.0306 81.941 15.9471L81.941 15.9471C81.9716 16.2093 82.0035 16.4832 82.0375 16.7722C82.0976 17.2827 82.1552 17.7488 82.2094 18.1882L82.2094 18.1886C82.4296 19.9734 82.5955 21.318 82.6617 23.4025C82.7164 25.1264 82.7961 33.376 82.7961 33.376L84.5578 32.7516C84.5648 32.0146 84.5262 30.0503 84.4875 28.0859L84.4875 28.0854L84.4875 28.0854L84.4875 28.0853L84.4875 28.0852C84.4489 26.1207 84.4103 24.1562 84.4173 23.4192C84.4173 23.4192 84.0223 19.3683 83.6404 16.7874C83.2637 14.2411 83.0013 12.8189 82.4806 10.2945C82.3587 9.7031 82.263 9.18076 82.1731 8.69045C81.9398 7.41678 81.746 6.35935 81.2344 4.86923C80.7331 3.40944 79.7859 1.54917 79.1226 0.318983C78.8007 0.307004 78.4832 0.297429 78.1709 0.289912ZM84.3547 0.74731C85.1176 1.82232 86.4842 3.81569 87.2603 5.35374C88.2775 7.36941 88.6662 8.58061 89.3469 10.7158C90.3042 13.7186 90.74 15.4541 91.1045 18.5677C91.338 20.562 92.061 30.4009 92.061 30.4009L94.1239 30.2068C94.1239 30.2068 93.2137 20.0142 92.8675 17.8009L92.8306 17.565C92.3355 14.3968 92.04 12.5066 90.8093 9.4475C89.9562 7.32697 89.3906 6.14714 88.1107 4.22213C87.3903 3.13854 86.2504 1.79365 85.4749 0.913898C85.1026 0.853083 84.7288 0.797702 84.3547 0.74731ZM91.6639 2.64659C92.2634 3.57361 93.0744 4.87792 93.5909 5.91238C94.9971 8.7283 95.4742 10.4543 96.1909 13.4874C96.5254 14.9033 96.6646 15.8914 96.8309 17.0722C96.8975 17.5453 96.9685 18.0493 97.0582 18.6242C97.1942 19.4964 97.3304 20.2583 97.4582 20.9736C97.7784 22.765 98.0463 24.264 98.1288 26.4696C98.184 27.943 98.0931 30.2445 98.0931 30.2445L99.7703 30.474L99.8081 26.4855C99.8081 26.4855 98.9486 20.5178 98.5159 17.8545L98.5105 17.8216L98.5105 17.8215C98.0826 15.1877 98.0157 14.7761 97.4945 12.8587C97.443 12.669 97.393 12.4843 97.3443 12.3041C96.6253 9.64573 96.1659 7.94688 94.6643 5.42394C94.3155 4.83795 93.8408 4.16715 93.3746 3.54691C92.8403 3.215 92.2674 2.91594 91.6639 2.64659ZM64.6396 2.28917C64.0365 3.35836 63.3705 4.59612 62.9066 5.62144C61.6199 8.46499 60.9817 10.1231 60.3161 13.1472C59.8597 15.2211 59.8102 16.7741 59.7565 18.4565C59.7226 19.5216 59.6869 20.6386 59.5454 21.9724C59.3388 23.9195 58.9517 28.235 58.9517 28.235L57.7304 28.2235C57.7304 28.2235 58.0543 23.9058 58.2478 21.9601C58.3705 20.7264 58.4085 19.6773 58.4445 18.6838C58.509 16.9029 58.567 15.3009 59.0948 13.1357C59.8369 10.0914 60.4689 8.39238 61.9906 5.61275C62.5064 4.67047 63.2433 3.58118 63.9504 2.60268C64.1791 2.49346 64.4089 2.38902 64.6396 2.28917Z" fill="#E2AE4A"/>
<path fill-rule="evenodd" clip-rule="evenodd" d="M53.5421 25.2293C56.5927 25.8666 61.3865 26.7686 64.9862 26.9825C66.1505 27.0517 67.2431 27.1374 68.2858 27.2192C73.3308 27.615 77.2078 27.9192 82.379 25.8154C86.6453 24.0798 89.3751 22.7966 91.9307 19.1676C93.9114 16.3549 94.2026 15.4113 94.2196 12.0437C94.2299 10.0001 93.5748 8.73119 92.7434 7.12078C92.5242 6.69608 92.2926 6.24761 92.0578 5.75492C91.2898 4.14349 89.7708 2.68474 87.9777 1.4183C84.3441 0.530378 80.2889 0.301532 77.0027 0.270379C70.9727 0.213215 65.2403 0.977945 60.1644 4.95436C55.2954 8.76867 54.5863 11.7896 54.1073 13.8302C54.087 13.9169 54.0671 14.0018 54.0472 14.085C53.572 16.0786 53.491 20.7569 53.5421 25.2293Z" fill="#F7D674"/>
<path fill-rule="evenodd" clip-rule="evenodd" d="M74.5447 27.4885C73.8882 27.5096 73.2301 27.5068 72.5628 27.4872C72.7806 25.9386 73.0378 23.9529 73.0378 23.9529C73.0378 23.9529 73.3344 19.5157 73.4796 17.6176L73.5586 9.28444C73.5644 8.66873 73.5755 8.14806 73.586 7.65564L73.586 7.65559L73.586 7.65553L73.586 7.65547L73.586 7.65542C73.6053 6.74648 73.6226 5.93378 73.6011 4.79736C73.5753 3.42778 73.4632 1.60035 73.3776 0.356061C73.5517 0.345015 73.7261 0.335108 73.9009 0.326279C74.1174 1.57078 74.4246 3.41907 74.5934 4.80677C74.8062 6.55612 74.9093 7.54018 75.0089 9.29819C75.1282 11.4062 75.0725 12.9162 75.0102 14.6051L75.0102 14.6051L75.0102 14.6052L75.0102 14.6053L75.0102 14.6053C74.9764 15.5203 74.9407 16.4878 74.9298 17.6313C74.9216 18.5013 74.93 19.2374 74.9379 19.9335C74.9524 21.2184 74.9655 22.3672 74.8697 23.9702C74.8057 25.0426 74.6625 26.4365 74.5447 27.4885ZM84.4023 24.9669C83.8538 25.2076 83.2779 25.4479 82.6704 25.6963C82.681 24.9328 82.6832 24.0908 82.6614 23.403C82.5952 21.3185 82.4293 19.9739 82.2091 18.1892L82.2091 18.1891C82.1549 17.7496 82.0974 17.2833 82.0372 16.7727C82.0032 16.4837 81.9713 16.2098 81.9407 15.9475L81.9407 15.9475C81.7174 14.0311 81.5662 12.733 81.1794 10.6388L81.1431 10.4424C80.7454 8.28813 80.5103 7.01458 79.8601 4.8567C79.4263 3.4169 78.6799 1.52834 78.1701 0.289127C78.4823 0.29664 78.7998 0.306212 79.1216 0.318185C79.7849 1.54836 80.7327 3.40942 81.2341 4.86973C81.7457 6.35985 81.9395 7.41728 82.1728 8.69096C82.2627 9.18126 82.3584 9.70361 82.4803 10.295C83.001 12.8194 83.2634 14.2416 83.6402 16.7879C84.0221 19.3688 84.417 23.4197 84.417 23.4197L84.4023 24.9669ZM92.8632 17.7755C92.604 18.1938 92.2963 18.6487 91.9313 19.1671C91.7011 19.494 91.4695 19.8019 91.2354 20.0927C91.2015 19.5586 91.1586 19.0325 91.1042 18.5682C90.7397 15.4546 90.304 13.7191 89.3466 10.7163C88.6659 8.58112 88.2772 7.36992 87.26 5.35424C86.4835 3.81552 85.1161 1.82108 84.3534 0.746397C84.7274 0.796765 85.1011 0.852119 85.4733 0.912904C86.2488 1.79262 87.3896 3.13843 88.1105 4.22263C89.3903 6.14764 89.9559 7.32747 90.809 9.448C92.0397 12.5071 92.3352 14.3973 92.8303 17.5655L92.8632 17.7755ZM69.7439 0.781628C69.3765 2.20776 68.8677 4.17961 68.4783 5.67477C68.2034 6.7302 67.937 7.61265 67.6847 8.44842L67.6847 8.44844L67.6847 8.44848L67.6847 8.44849C67.2335 9.94304 66.8274 11.2883 66.4985 13.2064C66.0315 15.9298 65.9889 17.7303 65.9326 20.1034L65.9326 20.1035L65.9326 20.1035C65.9184 20.7022 65.9034 21.3374 65.8804 22.033C65.827 23.6529 65.8234 25.9441 65.8252 27.0352C65.5498 27.0167 65.2704 26.9988 64.9869 26.982C64.6171 26.96 64.2347 26.9308 63.843 26.8953C63.845 25.763 63.8545 23.5767 63.8959 22.0142C63.9094 21.505 63.9195 21.0119 63.9293 20.5304L63.9293 20.5304L63.9293 20.5304L63.9293 20.5303L63.9293 20.5303C63.9855 17.7755 64.034 15.4004 64.6727 12.548C65.2198 10.1043 65.9087 8.4863 66.7718 6.4591C67.0004 5.92223 67.2412 5.35666 67.4948 4.73946C67.7542 4.10814 68.0157 3.28691 68.2759 2.46981L68.276 2.46978C68.4403 1.95356 68.6042 1.43899 68.7667 0.975013C69.0909 0.904361 69.4167 0.840047 69.7439 0.781628ZM63.9515 2.60129C64.1801 2.49216 64.4097 2.3878 64.6403 2.28803C64.0369 3.3576 63.3704 4.5961 62.9063 5.62194C61.6196 8.46549 60.9814 10.1236 60.3158 13.1477C59.8594 15.2216 59.8099 16.7746 59.7562 18.457C59.7223 19.5221 59.6867 20.6391 59.5451 21.9729C59.3997 23.3434 59.1709 25.2521 59.0481 26.2624C58.6392 26.1955 58.2332 26.1264 57.833 26.0562C57.94 25.0092 58.1196 23.2468 58.2475 21.9606C58.3702 20.7269 58.4082 19.6778 58.4442 18.6843C58.5087 16.9034 58.5668 15.3014 59.0946 13.1362C59.8366 10.0919 60.4686 8.39288 61.9903 5.61326C62.5065 4.67036 63.2439 3.58027 63.9515 2.60129Z" fill="#F3C66D"/>
<path d="M49.0952 29.1393C49.6862 27.9807 50.3799 27.4984 51.7093 27.1696C53.9282 26.6208 53.8366 26.9713 55.8916 27.2093C59.2762 27.6012 60.958 28.7358 64.2087 29.7014C66.5993 30.4115 68.374 30.5912 70.8328 31.0549C75.1649 31.8717 76.5072 31.901 80.9049 31.5065C84.6455 31.171 87.0183 30.5272 90.7642 30.2466C93.9602 30.0073 97.2168 29.2448 100.308 30.0437C102.085 30.5029 102.226 30.7072 103.629 31.8248C105.063 32.9668 105.236 34.3911 105.498 36.5341L105.513 36.6547C105.798 38.9894 104.981 40.8464 103.525 42.7616C102.007 44.7598 100.876 44.5577 98.4816 45.563C94.9819 47.0324 91.2235 46.7131 87.399 47.025C81.9163 47.4721 80.4501 47.2453 74.9573 46.907C69.3535 46.5619 66.9743 46.5336 61.5382 45.2127C57.247 44.17 58.2621 44.5406 53.2426 42.5698C51.7944 42.0012 49.2447 40.4102 48.696 39.0364C47.9638 37.2033 48.1138 36.0292 48.1324 34.0738C48.1491 32.3069 48.2817 30.7339 49.0952 29.1393Z" fill="#F3C66D"/>
<path fill-rule="evenodd" clip-rule="evenodd" d="M56.1431 43.7022C55.763 43.5577 55.3192 43.385 54.7779 43.1729L54.0322 39.8704L54.0707 35.8106L54.9583 30.7617L56.9746 27.433L57.3269 27.4364C57.6183 27.4954 57.8979 27.5604 58.1688 27.6304L56.2532 31.0589L55.2156 35.8215L55.1765 39.9524L56.1431 43.7022ZM64.2627 45.82C63.7782 45.7236 63.2718 45.6158 62.736 45.4945L61.886 40.7996L61.9448 34.6031L62.9336 29.2912C63.3314 29.4287 63.7505 29.5655 64.1996 29.6991L63.2451 34.3306L63.3363 40.8133L64.2627 45.82ZM72.4784 46.7589C71.9657 46.728 71.4791 46.6978 71.0104 46.6663L70.4241 42.0202L70.4781 36.3223L71.1883 31.1218C71.7134 31.2192 72.1938 31.3042 72.6415 31.3776L72.0081 35.9807L71.9541 41.6786L72.4784 46.7589ZM82.4059 47.2743C82.0208 47.2756 81.6465 47.2717 81.2729 47.2632L82.0261 42.1302L82.0619 38.3554L81.3081 31.4692C81.618 31.4389 81.9188 31.4065 82.212 31.3724L83.4507 36.8015L83.4075 41.3598L82.4059 47.2743ZM92.4726 46.7694C91.8964 46.8051 91.3166 46.8301 90.7338 46.8532L91.7963 42.2229L92.4576 36.8869L90.6926 30.2526C90.7166 30.2508 90.7406 30.2489 90.7646 30.2471C91.2305 30.2122 91.6976 30.1662 92.1654 30.1156C92.6889 31.3534 93.8658 34.3509 93.9875 36.5452C94.0666 37.9703 93.902 38.9306 93.7 40.1084C93.6293 40.5209 93.554 40.9601 93.483 41.4553C93.2308 43.2138 92.7044 45.7039 92.4726 46.7694ZM100.518 44.8339C100.419 44.8669 100.318 44.9002 100.214 44.9343C99.7879 45.0741 99.3179 45.2284 98.7828 45.4407C98.9125 44.6397 99.0822 43.4739 99.1205 42.6485C99.1845 41.272 99.1664 37.8053 99.1664 37.8053C99.1664 37.8053 98.8305 35.6652 98.7355 34.952C98.6405 34.2388 97.0265 30.0209 97.0265 30.0209L98.0095 29.7075C98.1412 29.7141 98.2728 29.7226 98.4041 29.733C98.7163 30.2606 99.9055 32.3212 100.349 33.8276C100.724 35.1015 100.794 35.8883 100.904 37.1389L100.926 37.3946C101.096 39.3075 101.054 40.3968 100.879 42.309C100.81 43.0741 100.657 44.038 100.518 44.8339Z" fill="#E2AE4A"/>
<path fill-rule="evenodd" clip-rule="evenodd" d="M51.7091 27.1694C50.3797 27.4982 49.686 27.9805 49.095 29.1391C48.2815 30.7337 48.1489 32.3067 48.1322 34.0737C48.1295 34.3496 48.1243 34.61 48.1193 34.8589C48.0889 36.3736 48.067 37.4618 48.6958 39.0362C49.2445 40.41 51.7942 42.001 53.2425 42.5696C55.9544 43.6344 56.9048 44.0157 57.8823 44.3058C58.714 44.5525 59.5653 44.7332 61.538 45.2125C66.422 46.3993 68.8384 46.5426 73.3428 46.8098C73.852 46.84 74.3879 46.8718 74.9571 46.9068C75.7239 46.9541 76.4122 46.9991 77.0439 47.0405C80.4416 47.2629 82.2024 47.3781 85.7305 47.1482C87.7985 46.1608 89.852 44.8469 90.9465 43.2117C91.1345 42.9308 91.3228 42.6627 91.5055 42.4025C92.5547 40.9081 93.4192 39.6769 92.9824 37.8175C92.7006 36.6178 92.1234 35.9942 91.3219 35.1283C91.2265 35.0252 91.1279 34.9187 91.0262 34.8073C89.1949 32.8015 84.8766 31.2587 84.8766 31.2587L84.1496 31.1139C83.1476 31.2615 82.0955 31.3995 80.9047 31.5063C76.507 31.9008 75.1647 31.8716 70.8326 31.0547C70.137 30.9235 69.4961 30.8151 68.8805 30.7109C67.3203 30.4469 65.9228 30.2104 64.2085 29.7012C63.0537 29.3582 62.0969 28.9938 61.1914 28.649C59.548 28.0232 58.0737 27.4618 55.8914 27.2091C55.6768 27.1842 55.4856 27.1582 55.3128 27.132L51.9957 27.1006C51.9046 27.1217 51.8092 27.1447 51.7091 27.1694Z" fill="#F7D674"/>
<path fill-rule="evenodd" clip-rule="evenodd" d="M57.3316 27.4366L56.974 27.4332C56.974 27.4332 55.5278 29.3664 54.9577 30.7619C54.3197 32.3237 54.2431 33.4118 54.1388 34.8926C54.1184 35.1816 54.097 35.4855 54.0702 35.8108L54.0558 35.984C53.9337 37.4593 53.8598 38.3521 54.0317 39.8705C54.1572 40.9791 54.5799 42.5389 54.7577 43.1644C55.297 43.3757 55.74 43.5481 56.1197 43.6926C55.9006 43.0296 55.3328 41.2316 55.1759 39.9526C54.9794 38.3495 55.0479 37.4272 55.2151 35.8216C55.4119 33.9323 55.5498 32.8397 56.2526 31.0591C56.739 29.8268 57.7971 28.1682 58.1525 27.6255C57.8881 27.5574 57.6155 27.4942 57.3316 27.4366ZM62.9192 29.2855C62.7152 30.1633 62.1278 32.7824 61.9442 34.6033C61.7014 37.0123 61.6619 38.3885 61.8855 40.7997C62.0286 42.3431 62.4886 44.5062 62.7088 45.4876C63.2461 45.6094 63.7536 45.7177 64.2392 45.8146C64.0127 44.8077 63.5104 42.471 63.3357 40.8135C63.0702 38.2934 62.9732 36.8495 63.2445 34.3307C63.4118 32.7782 63.9475 30.5897 64.1778 29.6919C63.7316 29.5588 63.3149 29.4225 62.9192 29.2855ZM71.1806 31.1196C71.0523 31.8677 70.6116 34.5151 70.4776 36.3225C70.3129 38.5422 70.286 39.7986 70.4235 42.0204C70.5189 43.5609 70.8504 45.7553 70.9946 46.6644C71.4646 46.6961 71.9528 46.7264 72.467 46.7574C72.3486 45.8619 72.0357 43.39 71.9535 41.6787C71.8467 39.4555 71.8328 38.1999 72.0075 35.9808C72.1341 34.3727 72.5274 32.0096 72.6356 31.3759C72.1874 31.3023 71.7064 31.2171 71.1806 31.1196ZM81.3154 31.4676C81.4426 32.2922 81.984 35.9143 82.0614 38.3555C82.1081 39.8292 82.1157 40.6586 82.0256 42.1304C81.9255 43.7637 81.5481 45.9962 81.3157 47.2633C81.6879 47.2714 82.0613 47.275 82.4457 47.2733C82.7257 45.9705 83.2655 43.2881 83.407 41.3599L83.4115 41.2984C83.539 39.5605 83.6127 38.5548 83.4502 36.8016C83.2777 34.9414 82.521 32.3073 82.2382 31.3685C81.9389 31.4034 81.6319 31.4366 81.3154 31.4676ZM92.4293 36.4734C92.4421 36.614 92.4514 36.7521 92.457 36.887C92.5229 38.4793 92.3142 39.5364 92.0528 40.8599L92.0528 40.8599L92.0528 40.86L92.0528 40.8601C91.988 41.1881 91.9201 41.5323 91.8522 41.9052C92.7334 40.622 93.3701 39.4669 92.9826 37.8173C92.8558 37.2776 92.6692 36.8544 92.4293 36.4734Z" fill="#F3C66D"/>
</svg>
