<svg width="133" height="158" viewBox="0 0 133 158" fill="none" xmlns="http://www.w3.org/2000/svg">
<path d="M0.750877 89.7242C-1.29238 101.334 10.6896 107.745 20.1291 110.434C23.3163 111.342 26.5577 109.717 28.4688 107.009C28.8035 106.535 29.1504 106.059 29.5038 105.592C30.9927 103.626 31.9333 101.171 31.2971 98.7883C30.1752 94.5876 28.3154 91.4765 27.3321 90.2477C26.8677 75.4961 19.7395 72.4229 15.3677 72.7167C14.6309 72.7662 13.8914 72.8206 13.158 72.9062C9.37829 73.347 2.97764 77.0717 0.750877 89.7242Z" fill="#CC554E"/>
<path d="M14.2318 97.688C22.8602 102.105 27.3454 94.5455 27.2091 90.2185C37.8315 106.152 27.2091 107.096 27.2091 107.096C27.2091 107.096 13.9467 105.562 11.5117 99.7787C8.67908 93.0512 9.66564 86.2475 15.1547 86.9633C9.65396 89.917 11.6297 96.3559 14.2318 97.688Z" fill="#623F33"/>
<path d="M111.991 149.404C102.199 148.561 103.268 139.304 101.24 138.173C106.576 135.438 113.572 122.803 116.964 119.269C116.915 122.633 117.861 136.261 116.517 142.932C115.173 149.603 114.259 149.599 111.991 149.404Z" fill="#CC554E"/>
<path d="M109.31 133.892C102.015 140.467 89.3469 140.111 82.4924 141.298C76.9773 142.253 67.648 143.101 60.8277 142.514C55.6537 142.069 47.3338 140.737 38.0429 137.473C28.7519 134.21 24.4156 126.508 23.4088 123.064C23.1484 121.816 23.0031 120.575 22.9581 119.353C22.6115 109.949 28.2007 101.623 32.9522 98.8902C38.6662 95.6037 39.4276 94.7152 40.6494 93.2894L40.6616 93.2751C84.1254 99.195 103.072 95.3289 110.877 90.9066C112.042 102.142 116.874 103.269 117.214 117.751C117.443 127.484 113.933 129.725 109.31 133.892Z" fill="#CC554E"/>
<path d="M95.5421 139.697C95.2285 139.73 90.719 140.306 86.8931 140.79C83.7513 141.187 80.365 141.177 77.865 139.234C72.0144 134.685 71.8392 125.71 68.7154 118.211C62.1963 104.487 60.7337 100.926 62.691 98.7386C64.426 96.7999 95.5803 92.8002 102.638 91.9162L102.725 91.9053C103.651 91.7892 104.568 91.6741 105.499 91.7462C107.436 91.8962 107.616 93.4067 106.033 106.103C105.32 111.828 104.932 108.963 105.569 118.383C106.753 135.899 101.957 138.116 101.957 138.116C101.957 138.116 99.2482 139.305 95.5421 139.697Z" fill="#F4F4F4"/>
<path d="M51.9385 132.469L51.5282 132.367C47.0809 131.262 42.7346 134.502 42.5245 139.08C49.6159 142.295 55.6572 142.595 58.2416 142.279L57.6003 138.559C57.0878 135.586 54.8666 133.197 51.9385 132.469Z" fill="#F4F4F4"/>
<path d="M29.4677 85.6783C35.8331 92.1018 45.2276 95.7217 49.1292 96.7288C54.8718 98.3681 69.4494 101.226 81.8196 99.5419C94.1898 97.8581 109.612 92.733 114.376 90.142C120.093 87.0405 130.28 79.3326 130.921 68.584C131.562 57.8354 128.257 56.864 123.446 45.3145C122.955 35.6058 122.16 31.622 121.982 29.5534C121.729 27.9126 120.818 23.8984 115.255 22.4719C109.692 21.0454 104.696 25.5095 103.688 27.1207L95.8416 35.7129C83.3584 29.9001 63.7594 32.7151 55.5204 34.8492C48.8777 29.4443 43.0378 27.1016 40.9481 26.6059C38.8652 26.0318 34.0188 26.4598 31.2965 32.7646C28.5743 39.0695 29.9333 49.9823 30.9532 54.6506C30.0933 57.3012 28.0991 63.3133 27.0014 66.1568C25.6294 69.711 21.5109 77.6489 29.4677 85.6783Z" fill="#CC554E"/>
<path d="M45.5526 70.8333C37.0955 67.3262 29.1313 70.4853 25.9037 72.9271C25.2098 73.452 24.7377 74.2157 24.6616 75.0825C24.5817 75.9928 24.6413 77.2464 25.0951 78.6682C26.0282 81.5916 27.2306 82.7613 28.8225 84.9121C30.0959 86.6328 33.6166 89.3129 35.2178 90.4379C36.4114 91.2513 40.4729 93.5199 47.1702 96.0864C55.5419 99.2946 69.3284 100.478 75.9459 100.34C82.5917 100.201 89.7186 98.629 92.9677 98.0136C95.9783 97.4435 104.661 94.2814 108.811 92.8616C112.961 91.4418 120.334 86.9824 125.446 81.2623C127.887 78.5318 129.26 75.4227 129.979 72.8814C130.675 70.419 129.268 68.0175 126.86 67.1523C124.277 66.2245 121.162 65.3751 118.893 65.1798C109.912 64.4069 102.156 71.0842 97.5168 68.5526C93.8055 66.5274 92.1526 60.6806 89.2414 58.7189C79.5673 52.2002 69.8199 56.8107 66.1555 59.9308C61.0424 64.2843 55.069 74.7796 45.5526 70.8333Z" fill="#F4F4F4"/>
<path d="M38.066 95.7657C38.8214 95.2936 39.9937 93.9166 40.5445 93.2871C49.3965 97.418 54.5897 98.5983 62.1433 99.5425C61.4823 100.298 61.9859 102.532 62.2613 103.437C46.2098 101.549 37.1218 96.3558 38.066 95.7657Z" fill="#623F33"/>
<path d="M62.3797 103.438C61.6243 101.644 61.9076 100.054 62.1436 99.5428C79.0449 102.659 99.0858 96.8675 106.994 93.5234C107.182 94.09 107.072 96.3561 106.994 97.4183C87.7317 106.011 69.2252 105.011 62.3797 103.438Z" fill="#CED2CE"/>
<path d="M46.0514 49.908C43.043 51.8288 44.4138 53.7948 46.5305 53.977C49.3566 54.2202 51.5071 53.6067 52.9626 52.6509C55.0765 51.2628 53.8143 48.4534 51.2855 48.47C49.5417 48.4814 47.6134 48.9107 46.0514 49.908Z" fill="#FBFAF4"/>
<path d="M109.371 47.8139C112.007 50.2204 110.321 51.9233 108.204 51.7412C105.378 51.498 103.364 50.5261 102.093 49.3357C100.247 47.6068 101.971 45.0544 104.46 45.5028C106.176 45.8119 108.002 46.5644 109.371 47.8139Z" fill="#FBFAF4"/>
<path d="M42.4847 34.9118C36.0889 31.0444 37.1111 41.8335 38.4217 47.7114L49.7436 40.038C49.9889 39.9406 48.8806 38.7791 42.4847 34.9118Z" fill="#F4F4F4"/>
<path d="M115.124 27.7769C112.44 25.9347 107.958 33.0438 106.053 36.8286L117.342 37.8C117.721 35.2265 117.809 29.619 115.124 27.7769Z" fill="#F4F4F4"/>
<ellipse cx="50.6202" cy="60.134" rx="4.48499" ry="4.13091" transform="rotate(4.91842 50.6202 60.134)" fill="#562528"/>
<ellipse cx="107.1" cy="59.0705" rx="4.48499" ry="4.13091" transform="rotate(4.91842 107.1 59.0705)" fill="#562528"/>
<path d="M75.5599 83.2866C72.2068 82.9981 71.0044 79.7975 70.9956 77.2981C71.7149 77.2584 74.292 77.4792 75.6971 76.1226C77.1857 74.6856 80.7908 75.4636 82.6964 76.2695C83.2741 76.5139 83.8864 76.5976 84.5128 76.4165C84.3481 81.0071 82.9214 81.3511 82.1618 81.9996C81.4975 82.6564 78.913 83.5752 75.5599 83.2866Z" fill="#FE71A6"/>
<path d="M78.2201 74.5316C78.3735 74.685 78.2649 74.9472 78.048 74.9472C77.8311 74.9472 77.7225 74.685 77.8759 74.5316C77.9709 74.4366 78.1251 74.4366 78.2201 74.5316Z" fill="#FE71A6"/>
<path d="M75.5599 83.2866C72.2068 82.9981 71.0044 79.7975 70.9956 77.2981C71.7149 77.2584 74.292 77.4792 75.6971 76.1226C77.1857 74.6856 80.7908 75.4636 82.6964 76.2695C83.2741 76.5139 83.8864 76.5976 84.5128 76.4165C84.3481 81.0071 82.9214 81.3511 82.1618 81.9996C81.4975 82.6564 78.913 83.5752 75.5599 83.2866Z" stroke="#FE71A6" stroke-linecap="round"/>
<path d="M78.2201 74.5316C78.3735 74.685 78.2649 74.9472 78.048 74.9472C77.8311 74.9472 77.7225 74.685 77.8759 74.5316C77.9709 74.4366 78.1251 74.4366 78.2201 74.5316Z" stroke="#FE71A6" stroke-linecap="round"/>
<path d="M77.9043 76.2275L78.0947 79.3815" stroke="#C44B78" stroke-width="4" stroke-linecap="round"/>
<path d="M77.9497 70.1851L77.9218 73.2627M77.9218 73.2627C77.0139 75.5538 75.2361 76.9408 69.6486 77.1708C65.5144 77.3409 63.0634 76.6041 62.6513 73.1332M77.9218 73.2627C79.0534 75.2555 81.1294 77.2864 88.4709 75.9474C91.1186 75.4645 93.5615 74.6086 93.4655 70.2172" stroke="#562528" stroke-width="1.5" stroke-linecap="round"/>
<path d="M74.8335 66.9367C76.4119 69.1692 79.7328 69.1427 81.2753 66.8853C83.0377 64.3062 81.2255 60.8022 78.1023 60.7498C74.8906 60.696 72.9791 64.3139 74.8335 66.9367Z" fill="#562528"/>
<path d="M27.1681 148.409C21.3905 139.806 22.1569 122.242 23.3614 114.058C27.3984 119.416 33.176 123.351 38.1082 125.899C42.3319 128.081 45.2557 132.478 43.4603 136.88C42.5431 139.129 41.2876 141.65 39.6019 144.242C36.3565 149.231 32.8081 150.474 30.4189 150.427C29.0687 150.4 27.9211 149.53 27.1681 148.409Z" fill="#CC554E"/>
<path d="M32.3464 140.337C29.6021 140.29 25.1637 138.455 23.3564 137.431C23.3261 137.783 23.2813 139.13 25.024 144.208C26.7667 149.286 28.4116 150.27 29.467 150.395C35.9166 151.16 39.3836 145.286 40.7017 142.359C39.0601 141.704 35.0907 140.383 32.3464 140.337Z" fill="#FBFAF4"/>
<path d="M73.623 156.517C59.6601 155.863 54.6982 134.196 54.4768 125.455C65.3951 119.964 67.8902 129.189 72.6849 131.369C74.0262 139.185 75.0821 136.551 79.3241 140.944C78.0932 156.845 76.532 156.653 73.623 156.517Z" fill="#CC554E"/>
<path d="M69.5003 149.102C65.3854 148.463 63.0012 149.372 62.3234 149.906C62.9581 150.789 63.615 151.416 64.1505 152.077C66.1097 154.496 69.8542 156.003 71.9506 156.42C74.047 156.838 75.2634 156.468 75.7641 156.156C77.5318 154.887 77.9976 151.768 78.2021 149.851C77.1137 149.283 75.8941 149.139 75.4204 149.137C74.3545 149.134 73.6153 149.74 69.5003 149.102Z" fill="#FBFAF4"/>
<path d="M110.264 144.044C108.184 144.561 105.221 144.116 104 143.829C105.04 146.756 107.782 147.81 109.318 148.348C110.225 148.666 112.391 148.958 113.336 148.994C114.376 149.08 115.018 148.258 115.345 147.81C115.818 147.165 116.764 143.829 117 142C115.621 142.466 112.344 143.528 110.264 144.044Z" fill="#FBFAF4"/>
<path d="M107 98C107.125 97.6087 107.083 95.0435 107 93.6957C107.625 93.4348 110.042 92.5652 111.25 92C111.35 92.9391 111.792 95.1739 112 96.1739C112 96.487 108.667 97.4783 107 98Z" fill="#623F33"/>
<circle cx="53" cy="59" r="1" fill="white"/>
<ellipse cx="109.5" cy="58" rx="1.5" ry="1" fill="white"/>
<path d="M50.4671 14.1608C55.3747 9.31768 66.6268 7.04808 66.6268 7.04808C66.6268 7.04808 73.2143 6.14299 77.4363 6.38985C83.3553 6.73594 84.3229 6.96963 89.1213 7.87843C97.0786 9.52045 103.887 14.5138 108.315 20.3575C110.464 23.1934 110.306 28.3091 110.088 30.3388C109.838 32.6808 103.407 36.671 97.4278 38.695C88.6855 41.6542 83.0567 40.3399 73.832 40.0365C66.2321 39.7866 64.8934 40.1845 56.7353 38.2051C53.2286 37.3543 49.499 35.05 47.356 32.1468C45.0756 29.0577 44.1249 25.9575 44.4784 23.6265C45.1344 19.3017 47.3536 17.2334 50.4671 14.1608Z" fill="#F4B396"/>
<path fill-rule="evenodd" clip-rule="evenodd" d="M55.0421 37.3898C55.0421 37.3898 55.0806 33.513 55.1585 31.039C55.3802 23.9936 58.6278 19.7032 58.6278 19.7032C58.6278 19.7032 61.174 15.4747 63.2992 13.415C65.5425 11.2408 68.8738 8.73972 68.8738 8.73972C68.8738 8.73972 63.3079 10.6557 59.9959 13.5697C57.4829 15.7806 56.726 16.4894 55.1675 19.4514C53.2362 23.122 52.4462 26.623 53.0745 30.7228C53.4867 33.4124 55.0421 37.3898 55.0421 37.3898Z" fill="#F29D77"/>
<path fill-rule="evenodd" clip-rule="evenodd" d="M95.0681 12.3271C96.9075 13.9998 98.5956 15.9211 99.447 17.8795C101.529 22.6686 101.489 25.3584 99.6491 28.4504C98.1551 30.9607 96.294 31.762 93.9121 32.7876C93.4909 32.9689 93.0534 33.1573 92.5988 33.3634C89.396 34.815 87.0121 34.9351 84.0523 35.0843C83.123 35.1311 82.137 35.1807 81.051 35.2754C75.9359 35.7212 72.7974 35.5226 68.1144 35.2264C67.54 35.19 66.9424 35.1522 66.315 35.1139C64.8575 35.025 63.5623 35.0036 62.3448 34.9836C59.1696 34.9312 56.5229 34.8875 52.9019 33.6771C50.7344 32.9526 48.1562 31.5205 46.1319 30.278C44.8053 27.8218 44.2894 25.4506 44.5691 23.5738C45.1919 19.3959 47.1798 17.3185 49.9797 14.3926C50.0703 14.2979 50.1617 14.2024 50.254 14.1059C54.8947 9.25023 65.4804 6.91967 65.4804 6.91967C65.4804 6.91967 71.6752 5.97735 75.6404 6.19732C81.1994 6.50571 84.4035 7.23114 89.5215 9.49494C89.722 9.58364 89.9182 9.66999 90.1108 9.75473C91.9274 10.554 93.417 11.2094 95.0681 12.3271Z" fill="#F8C5AF"/>
<path fill-rule="evenodd" clip-rule="evenodd" d="M55.0846 34.2984C54.6892 34.2056 54.2842 34.0994 53.8671 33.9777C53.5374 32.8946 53.2274 31.7202 53.0745 30.7228C52.4462 26.623 53.2362 23.122 55.1675 19.4514C56.726 16.4894 57.4829 15.7806 59.9959 13.5697C63.3079 10.6557 68.8738 8.73972 68.8738 8.73972C68.8738 8.73972 65.5425 11.2408 63.2992 13.415C61.174 15.4747 58.6278 19.7032 58.6278 19.7032C58.6278 19.7032 55.3802 23.9936 55.1585 31.039C55.1278 32.0152 55.1031 33.2098 55.0846 34.2984Z" fill="#F4B396"/>
<path fill-rule="evenodd" clip-rule="evenodd" d="M94.9651 12.2951C94.7487 11.9561 92.1091 9.96248 90.8163 9.00805L89.1617 7.87451C86.3394 7.30981 83.4792 6.87973 80.2386 6.59473L87.4706 11.4923L94.9651 12.2951Z" fill="#F8C5AF"/>
<path d="M76.971 7.04503L76.1903 6.96141C76.1903 6.96141 76.5722 6.48807 76.5862 6.21419C76.5989 5.96731 76.4776 5.83443 76.3325 5.63427C76.107 5.3232 75.6633 5.24674 75.273 5.20493C74.9321 5.16842 74.3327 5.36323 73.9905 5.3834C73.0034 5.44156 72.447 5.46401 71.4589 5.42806C70.1719 5.38125 69.4268 5.39911 68.18 5.07683C67.4168 4.87956 67.0521 4.55085 66.2785 4.39937C65.83 4.31155 65.5701 4.29802 65.1162 4.27438L65.1075 4.27393C64.5834 4.24664 64.2056 4.57095 63.7637 4.2879C63.508 4.1242 63.2757 3.6829 63.2757 3.6829L63.8807 3.19497C63.8807 3.19497 64.4243 2.52317 64.9179 2.35852C65.1296 2.28789 65.2622 2.30471 65.4811 2.26092C66.8257 1.99194 67.4084 1.18729 68.771 1.03409C69.9898 0.897074 70.6945 1.11168 71.8937 1.3686C72.9638 1.59785 73.7131 1.52387 74.5675 2.20775C75.0753 2.6142 75.2048 2.9979 75.6131 3.50419C76.212 4.24675 76.9517 4.4718 77.1466 5.40563C77.2782 6.03594 76.971 7.04503 76.971 7.04503Z" fill="#9DBE98"/>
<path fill-rule="evenodd" clip-rule="evenodd" d="M63.3945 3.87947L65.7794 3.16682L68.8213 2.782L72.1001 3.13323L74.6345 3.79952L76.1903 4.7558L76.9403 5.86266L76.5823 7.00352L76.1911 6.96162C76.1911 6.96162 76.573 6.48829 76.587 6.2144C76.5983 5.99375 76.5026 5.86415 76.3786 5.6962C76.3638 5.67624 76.3487 5.65574 76.3333 5.63449C76.1078 5.32342 75.6641 5.24696 75.2738 5.20514C75.0714 5.18346 74.7778 5.24334 74.5011 5.29979C74.3117 5.3384 74.1303 5.37542 73.9912 5.38361C73.0042 5.44177 72.4478 5.46422 71.4596 5.42827C71.2951 5.42229 71.1395 5.41736 70.9905 5.41265C69.974 5.38047 69.2683 5.35813 68.1808 5.07705C67.828 4.98585 67.5603 4.86656 67.2981 4.74968C66.993 4.61373 66.6953 4.48104 66.2793 4.39958C65.8308 4.31176 65.5709 4.29823 65.117 4.2746L65.1083 4.27414C64.9079 4.26371 64.7289 4.30468 64.5595 4.34344C64.2859 4.40606 64.0374 4.46293 63.7644 4.28811C63.6217 4.19673 63.4863 4.01881 63.3945 3.87947Z" fill="#90AE8B"/>
<path d="M78.3956 5.54483C78.1162 6.13777 77.9077 7.15078 77.9077 7.15078L78.6884 7.2344C78.6884 7.2344 78.984 6.75309 79.2404 6.50391C79.6495 6.10647 79.9803 5.99786 80.5034 5.77062C81.4195 5.37269 82.0265 5.43829 83.0071 5.24919C84.4463 4.97168 85.2861 4.97877 86.7069 4.619C87.6788 4.37293 88.1568 3.91234 89.1577 3.85501C89.8311 3.81644 90.2323 4.24335 90.8752 4.03899C91.4537 3.85508 92.0852 3.06313 92.0852 3.06313L92.1437 2.51667C92.1437 2.51667 91.4716 2.92261 90.9922 2.94606C90.7472 2.95804 90.6102 2.91624 90.3677 2.87916C88.9682 2.66511 88.4245 1.75689 87.0498 1.41827C85.978 1.15426 85.3318 0.95916 84.2394 1.11722C82.7328 1.33521 82.0027 2.02129 80.8045 2.96022C79.7184 3.81124 78.9837 4.29668 78.3956 5.54483Z" fill="#9DBE98"/>
<path fill-rule="evenodd" clip-rule="evenodd" d="M91.9349 3.23536L90.6993 3.46626L89.085 3.05644L87.6268 2.66335L84.3758 2.78889L81.6658 3.76199L79.3043 5.16724L78.2506 7.1861L78.4822 7.21091L78.7311 7.16473C78.8224 7.02303 79.0428 6.69409 79.24 6.50246C79.5975 6.15506 79.8953 6.02834 80.314 5.85018C80.3743 5.82451 80.4371 5.79778 80.503 5.76917C81.1175 5.50222 81.5929 5.44388 82.1354 5.3773C82.4016 5.34464 82.6839 5.30999 83.0067 5.24774C83.6027 5.13282 84.0959 5.0667 84.5701 5.00313C85.2411 4.91319 85.8741 4.82833 86.7065 4.61755C87.0998 4.51796 87.4123 4.38324 87.7112 4.25433C88.1509 4.06472 88.5615 3.88769 89.1572 3.85357C89.4518 3.8367 89.6942 3.90885 89.9275 3.9783C90.2278 4.06765 90.513 4.15253 90.8747 4.03754C91.281 3.90839 91.7134 3.47939 91.9349 3.23536Z" fill="#90AE8B"/>
<path d="M76.95 4.19419C77.0952 5.32087 76.6401 7.08655 76.6401 7.08655C76.6401 7.08655 77.0511 7.41951 77.3687 7.47255C77.7417 7.53484 78.3147 7.26593 78.3147 7.26593C78.3147 7.26593 78.4667 5.47378 78.32 4.34095C78.223 3.59092 78.1076 3.17812 77.9068 2.44896C77.715 1.75244 77.325 0.692901 77.325 0.692901C77.325 0.692901 76.7774 0.7083 76.5313 0.915826C76.1198 1.26266 76.3845 2.28589 76.3845 2.28589C76.3845 2.28589 76.8506 3.4233 76.95 4.19419Z" fill="#D29A81"/>
</svg>
