<svg width="151" height="167" viewBox="0 0 151 167" fill="none" xmlns="http://www.w3.org/2000/svg">
<path d="M0.750389 89.7242C-1.29286 101.334 10.6891 107.745 20.1286 110.434C23.3158 111.342 26.5572 109.717 28.4683 107.009C28.803 106.535 29.1499 106.059 29.5033 105.592C30.9923 103.626 31.9328 101.171 31.2966 98.7883C30.1748 94.5876 28.3149 91.4765 27.3316 90.2477C26.8672 75.4961 19.739 72.4229 15.3672 72.7167C14.6304 72.7662 13.8909 72.8206 13.1575 72.9062C9.3778 73.347 2.97715 77.0717 0.750389 89.7242Z" fill="#CC554E"/>
<path d="M14.2313 97.688C22.8597 102.105 27.3449 94.5455 27.2087 90.2185C37.831 106.152 27.2087 107.096 27.2087 107.096C27.2087 107.096 13.9463 105.562 11.5112 99.7787C8.67859 93.0512 9.66515 86.2475 15.1542 86.9633C9.65347 89.917 11.6292 96.3559 14.2313 97.688Z" fill="#623F33"/>
<path d="M111.991 149.404C102.199 148.561 103.268 139.304 101.24 138.173C106.576 135.438 113.572 122.803 116.964 119.269C116.915 122.633 117.861 136.261 116.517 142.932C115.173 149.603 114.259 149.599 111.991 149.404Z" fill="#CC554E"/>
<path d="M109.31 133.892C102.015 140.467 89.3469 140.111 82.4924 141.298C76.9773 142.253 67.648 143.101 60.8277 142.514C55.6537 142.069 47.3338 140.737 38.0429 137.473C28.7519 134.21 24.4156 126.508 23.4088 123.064C23.1484 121.816 23.0031 120.575 22.9581 119.353C22.6115 109.949 28.2007 101.623 32.9522 98.8902C38.6662 95.6037 39.4276 94.7152 40.6494 93.2894L40.6616 93.2751C84.1254 99.195 103.072 95.3289 110.877 90.9066C112.042 102.142 116.874 103.269 117.214 117.751C117.443 127.484 113.933 129.725 109.31 133.892Z" fill="#CC554E"/>
<path d="M95.5421 139.697C95.2285 139.73 90.719 140.306 86.8931 140.79C83.7513 141.187 80.365 141.177 77.865 139.234C72.0144 134.685 71.8392 125.71 68.7154 118.211C62.1963 104.487 60.7337 100.926 62.691 98.7386C64.426 96.7999 95.5803 92.8002 102.638 91.9162L102.725 91.9053C103.651 91.7892 104.568 91.6741 105.499 91.7462C107.436 91.8962 107.616 93.4067 106.033 106.103C105.32 111.828 104.932 108.963 105.569 118.383C106.753 135.899 101.957 138.116 101.957 138.116C101.957 138.116 99.2482 139.305 95.5421 139.697Z" fill="#F4F4F4"/>
<path d="M51.939 132.469L51.5287 132.367C47.0814 131.262 42.7351 134.502 42.525 139.08C49.6164 142.295 55.6577 142.595 58.2421 142.279L57.6008 138.559C57.0883 135.586 54.867 133.197 51.939 132.469Z" fill="#F4F4F4"/>
<path d="M29.4677 85.6783C35.8331 92.1018 45.2276 95.7217 49.1292 96.7288C54.8718 98.3681 69.4494 101.226 81.8196 99.5419C94.1898 97.8581 109.612 92.733 114.376 90.142C120.093 87.0405 130.28 79.3326 130.921 68.584C131.562 57.8354 128.257 56.864 123.446 45.3145C122.955 35.6058 122.16 31.622 121.982 29.5534C121.729 27.9126 120.818 23.8984 115.255 22.4719C109.692 21.0454 104.696 25.5095 103.688 27.1207L95.8416 35.7129C83.3584 29.9001 63.7594 32.7151 55.5204 34.8492C48.8777 29.4443 43.0378 27.1016 40.9481 26.6059C38.8652 26.0318 34.0188 26.4598 31.2965 32.7646C28.5743 39.0695 29.9333 49.9823 30.9532 54.6506C30.0933 57.3012 28.0991 63.3133 27.0014 66.1568C25.6294 69.711 21.5109 77.6489 29.4677 85.6783Z" fill="#CC554E"/>
<path d="M45.5531 70.8333C37.096 67.3262 29.1318 70.4853 25.9042 72.9271C25.2103 73.452 24.7382 74.2157 24.6621 75.0825C24.5822 75.9928 24.6418 77.2464 25.0956 78.6682C26.0287 81.5916 27.2311 82.7613 28.823 84.9121C30.0964 86.6328 33.6171 89.3129 35.2183 90.4379C36.4118 91.2513 40.4734 93.5199 47.1707 96.0864C55.5424 99.2946 69.3289 100.478 75.9464 100.34C82.5922 100.201 89.7191 98.629 92.9682 98.0136C95.9788 97.4435 104.662 94.2814 108.812 92.8616C112.962 91.4418 120.335 86.9824 125.447 81.2623C127.887 78.5318 129.261 75.4227 129.979 72.8814C130.675 70.419 129.269 68.0175 126.861 67.1523C124.278 66.2245 121.163 65.3751 118.894 65.1798C109.912 64.4069 102.156 71.0842 97.5173 68.5526C93.806 66.5274 92.1531 60.6806 89.2419 58.7189C79.5678 52.2002 69.8204 56.8107 66.156 59.9308C61.0429 64.2843 55.0695 74.7796 45.5531 70.8333Z" fill="#F4F4F4"/>
<path d="M38.0655 95.7657C38.8209 95.2936 39.9933 93.9166 40.544 93.2871C49.396 97.418 54.5892 98.5983 62.1428 99.5425C61.4818 100.298 61.9854 102.532 62.2608 103.437C46.2093 101.549 37.1213 96.3558 38.0655 95.7657Z" fill="#623F33"/>
<path d="M62.3797 103.438C61.6243 101.644 61.9076 100.054 62.1436 99.5428C79.0449 102.659 99.0858 96.8675 106.994 93.5234C107.182 94.09 107.072 96.3561 106.994 97.4183C87.7317 106.011 69.2252 105.011 62.3797 103.438Z" fill="#CED2CE"/>
<path d="M46.0514 49.908C43.043 51.8288 44.4138 53.7948 46.5305 53.977C49.3566 54.2202 51.5071 53.6067 52.9626 52.6509C55.0765 51.2628 53.8143 48.4534 51.2855 48.47C49.5417 48.4814 47.6134 48.9107 46.0514 49.908Z" fill="#FBFAF4"/>
<path d="M109.371 47.8139C112.007 50.2204 110.321 51.9233 108.204 51.7412C105.378 51.498 103.364 50.5261 102.093 49.3357C100.247 47.6068 101.971 45.0544 104.46 45.5028C106.176 45.8119 108.002 46.5644 109.371 47.8139Z" fill="#FBFAF4"/>
<path d="M42.4847 34.9118C36.0889 31.0444 37.1111 41.8335 38.4217 47.7114L49.7436 40.038C49.9889 39.9406 48.8806 38.7791 42.4847 34.9118Z" fill="#F4F4F4"/>
<path d="M115.124 27.7769C112.44 25.9347 107.958 33.0438 106.053 36.8286L117.342 37.8C117.721 35.2265 117.809 29.619 115.124 27.7769Z" fill="#F4F4F4"/>
<ellipse cx="50.6202" cy="60.134" rx="4.48499" ry="4.13091" transform="rotate(4.91842 50.6202 60.134)" fill="#562528"/>
<ellipse cx="107.1" cy="59.0705" rx="4.48499" ry="4.13091" transform="rotate(4.91842 107.1 59.0705)" fill="#562528"/>
<path d="M75.5599 83.2866C72.2068 82.9981 71.0044 79.7975 70.9956 77.2981C71.7149 77.2584 74.292 77.4792 75.6971 76.1226C77.1857 74.6856 80.7908 75.4636 82.6964 76.2695C83.2741 76.5139 83.8864 76.5976 84.5128 76.4165C84.3481 81.0071 82.9214 81.3511 82.1618 81.9996C81.4975 82.6564 78.913 83.5752 75.5599 83.2866Z" fill="#FE71A6"/>
<path d="M78.2201 74.5316C78.3735 74.685 78.2649 74.9472 78.048 74.9472C77.8311 74.9472 77.7225 74.685 77.8759 74.5316C77.9709 74.4366 78.1251 74.4366 78.2201 74.5316Z" fill="#FE71A6"/>
<path d="M75.5599 83.2866C72.2068 82.9981 71.0044 79.7975 70.9956 77.2981C71.7149 77.2584 74.292 77.4792 75.6971 76.1226C77.1857 74.6856 80.7908 75.4636 82.6964 76.2695C83.2741 76.5139 83.8864 76.5976 84.5128 76.4165C84.3481 81.0071 82.9214 81.3511 82.1618 81.9996C81.4975 82.6564 78.913 83.5752 75.5599 83.2866Z" stroke="#FE71A6" stroke-linecap="round"/>
<path d="M78.2201 74.5316C78.3735 74.685 78.2649 74.9472 78.048 74.9472C77.8311 74.9472 77.7225 74.685 77.8759 74.5316C77.9709 74.4366 78.1251 74.4366 78.2201 74.5316Z" stroke="#FE71A6" stroke-linecap="round"/>
<path d="M77.9043 76.2275L78.0947 79.3815" stroke="#C44B78" stroke-width="4" stroke-linecap="round"/>
<path d="M77.9497 70.1851L77.9218 73.2627M77.9218 73.2627C77.0139 75.5538 75.2361 76.9408 69.6486 77.1708C65.5144 77.3409 63.0634 76.6041 62.6513 73.1332M77.9218 73.2627C79.0534 75.2555 81.1294 77.2864 88.4709 75.9474C91.1186 75.4645 93.5615 74.6086 93.4655 70.2172" stroke="#562528" stroke-width="1.5" stroke-linecap="round"/>
<path d="M74.8335 66.9367C76.4119 69.1692 79.7328 69.1427 81.2753 66.8853C83.0377 64.3062 81.2255 60.8022 78.1023 60.7498C74.8906 60.696 72.9791 64.3139 74.8335 66.9367Z" fill="#562528"/>
<path d="M27.1681 148.409C21.3905 139.806 22.1569 122.242 23.3614 114.058C27.3984 119.416 33.176 123.351 38.1082 125.899C42.3319 128.081 45.2557 132.478 43.4603 136.88C42.5431 139.129 41.2876 141.65 39.6019 144.242C36.3565 149.231 32.8081 150.474 30.4189 150.427C29.0687 150.4 27.9211 149.53 27.1681 148.409Z" fill="#CC554E"/>
<path d="M32.3464 140.337C29.6021 140.29 25.1637 138.455 23.3564 137.431C23.3261 137.783 23.2813 139.13 25.024 144.208C26.7667 149.286 28.4116 150.27 29.467 150.395C35.9166 151.16 39.3836 145.286 40.7017 142.359C39.0601 141.704 35.0907 140.383 32.3464 140.337Z" fill="#FBFAF4"/>
<path d="M73.623 156.517C59.6601 155.863 54.6982 134.196 54.4768 125.455C65.3951 119.964 67.8902 129.189 72.6849 131.369C74.0262 139.185 75.0821 136.551 79.3241 140.944C78.0932 156.845 76.532 156.653 73.623 156.517Z" fill="#CC554E"/>
<path d="M69.5008 149.102C65.3859 148.463 63.0017 149.372 62.3239 149.906C62.9586 150.789 63.6155 151.416 64.1509 152.077C66.1102 154.496 69.8547 156.003 71.9511 156.42C74.0475 156.838 75.2639 156.468 75.7646 156.156C77.5323 154.887 77.9981 151.768 78.2026 149.851C77.1142 149.283 75.8946 149.139 75.4209 149.137C74.355 149.134 73.6158 149.74 69.5008 149.102Z" fill="#FBFAF4"/>
<path d="M110.264 144.044C108.184 144.561 105.221 144.116 104 143.829C105.04 146.756 107.782 147.81 109.318 148.348C110.225 148.666 112.391 148.958 113.336 148.994C114.376 149.08 115.018 148.258 115.345 147.81C115.818 147.165 116.764 143.829 117 142C115.621 142.466 112.344 143.528 110.264 144.044Z" fill="#FBFAF4"/>
<path d="M107 98C107.125 97.6087 107.083 95.0435 107 93.6957C107.625 93.4348 110.042 92.5652 111.25 92C111.35 92.9391 111.792 95.1739 112 96.1739C112 96.487 108.667 97.4783 107 98Z" fill="#623F33"/>
<circle cx="53" cy="59" r="1" fill="white"/>
<ellipse cx="109.5" cy="58" rx="1.5" ry="1" fill="white"/>
<path d="M56.0477 14.085C55.0143 18.4202 55.8451 35.4521 55.8451 35.4521L103.017 35.8993C103.017 35.8993 103.536 21.3734 102.517 16.0927C101.499 10.812 101.358 9.52854 97.5053 5.28944C93.6523 1.05035 85.0332 0.327543 79.0032 0.270379C72.9732 0.213215 67.2408 0.977945 62.1648 4.95436C57.0889 8.93077 56.534 12.0449 56.0477 14.085Z" fill="#F3C66D"/>
<path fill-rule="evenodd" clip-rule="evenodd" d="M65.8023 31.9138C65.8023 31.9138 65.8379 24.2104 65.8962 22.0137C65.9097 21.5045 65.9197 21.0114 65.9296 20.5299L65.9296 20.5299L65.9296 20.5299L65.9296 20.5298L65.9296 20.5298L65.9296 20.5298L65.9296 20.5298C65.9858 17.775 66.0343 15.3999 66.673 12.5475C67.2201 10.1038 67.909 8.4858 68.7721 6.4586L68.7721 6.45853L68.7722 6.45824L68.7723 6.45813C69.0008 5.9214 69.2415 5.35599 69.4951 4.73896C69.7545 4.10764 70.016 3.28641 70.2762 2.46931L70.2762 2.46928C70.4405 1.95356 70.6042 1.4395 70.7665 0.975875C71.0908 0.905207 71.4166 0.84088 71.7438 0.782449C71.3765 2.20848 70.8679 4.17957 70.4786 5.67427C70.2037 6.7297 69.9373 7.61215 69.685 8.44792L69.685 8.44794L69.685 8.44798L69.685 8.44799C69.2338 9.94254 68.8276 11.2878 68.4988 13.2059C68.0318 15.9293 67.9892 17.7298 67.9329 20.1029L67.9329 20.103L67.9329 20.103C67.9187 20.7017 67.9037 21.3369 67.8807 22.0325C67.8083 24.2288 67.7869 31.9326 67.7869 31.9326L65.8023 31.9138ZM75.3779 0.356823C75.4636 1.60109 75.5756 3.42774 75.6014 4.79686C75.6228 5.93328 75.6056 6.74598 75.5863 7.65492L75.5863 7.65497L75.5863 7.65503L75.5863 7.65509L75.5863 7.65514L75.5863 7.65518C75.5758 8.14759 75.5647 8.66825 75.5589 9.28394L75.4799 17.6171C75.3347 19.5152 75.0381 23.9524 75.0381 23.9524C75.0381 23.9524 73.945 31.896 73.7284 33.2711L75.7102 33.5748C75.7102 33.5748 76.7518 25.9485 76.87 23.9697C76.9658 22.3667 76.9527 21.2179 76.9381 19.933C76.9302 19.2369 76.9219 18.5008 76.9301 17.6308C76.941 16.4873 76.9767 15.5199 77.0104 14.6049L77.0104 14.6048L77.0104 14.6048L77.0104 14.6047L77.0104 14.6046L77.0104 14.6046C77.0728 12.9157 77.1285 11.4057 77.0091 9.29769C76.9096 7.53968 76.8065 6.55562 76.5937 4.80627C76.425 3.41903 76.1179 1.57153 75.9014 0.327037C75.7266 0.335866 75.5521 0.345775 75.3779 0.356823ZM80.1709 0.289912C80.6807 1.52914 81.4268 3.41689 81.8604 4.8562C82.5106 7.01409 82.7457 8.28765 83.1434 10.4419L83.1797 10.6383C83.5665 12.7325 83.7177 14.0306 83.941 15.9471C83.9716 16.2094 84.0035 16.4832 84.0375 16.7722C84.0976 17.2827 84.1552 17.7488 84.2094 18.1882L84.2094 18.1886C84.4296 19.9734 84.5955 21.318 84.6617 23.4025C84.7164 25.1264 84.7961 33.376 84.7961 33.376L86.5578 32.7516C86.5648 32.0146 86.5262 30.0503 86.4875 28.0859L86.4875 28.0854L86.4875 28.0854L86.4875 28.0853L86.4875 28.0852C86.4489 26.1207 86.4103 24.1562 86.4173 23.4192C86.4173 23.4192 86.0223 19.3683 85.6404 16.7874C85.2637 14.2411 85.0013 12.8189 84.4806 10.2945C84.3587 9.70311 84.263 9.18076 84.1731 8.69046C83.9398 7.41678 83.746 6.35935 83.2344 4.86923C82.7331 3.40944 81.7859 1.54918 81.1226 0.318985C80.8007 0.307006 80.4832 0.297429 80.1709 0.289912ZM86.3547 0.747311C87.1176 1.82232 88.4842 3.8157 89.2603 5.35374C90.2775 7.36942 90.6662 8.58062 91.3469 10.7158C92.3042 13.7186 92.74 15.4541 93.1045 18.5677C93.338 20.562 94.061 30.401 94.061 30.401L96.1239 30.2068C96.1239 30.2068 95.2137 20.0142 94.8675 17.8009L94.8306 17.565C94.3355 14.3968 94.04 12.5066 92.8093 9.4475C91.9562 7.32697 91.3906 6.14714 90.1107 4.22213C89.3903 3.13855 88.2504 1.79365 87.4749 0.9139C87.1026 0.853084 86.7288 0.797703 86.3547 0.747311ZM93.6639 2.64659C94.2634 3.57361 95.0744 4.87793 95.5909 5.91238C96.9971 8.7283 97.4742 10.4543 98.1909 13.4874C98.5254 14.9033 98.6646 15.8915 98.8309 17.0722C98.8975 17.5453 98.9685 18.0493 99.0582 18.6242C99.1942 19.4964 99.3304 20.2583 99.4582 20.9736C99.7784 22.765 100.046 24.264 100.129 26.4696C100.184 27.943 100.093 30.2445 100.093 30.2445L101.77 30.474L101.808 26.4855C101.808 26.4855 100.949 20.5178 100.516 17.8545L100.511 17.8216L100.511 17.8215C100.083 15.1877 100.016 14.7761 99.4945 12.8587C99.443 12.669 99.393 12.4844 99.3443 12.3041L99.3443 12.304L99.3443 12.304C98.6253 9.64571 98.1659 7.94686 96.6643 5.42395C96.3155 4.83795 95.8408 4.16715 95.3746 3.54691C94.8403 3.215 94.2674 2.91594 93.6639 2.64659ZM66.6396 2.28917C66.0365 3.35837 65.3705 4.59612 64.9066 5.62144C63.6199 8.46499 62.9817 10.1231 62.3161 13.1472C61.8597 15.2211 61.8102 16.7741 61.7565 18.4565C61.7226 19.5216 61.6869 20.6386 61.5454 21.9724C61.3388 23.9195 60.9517 28.235 60.9517 28.235L59.7304 28.2235C59.7304 28.2235 60.0543 23.9058 60.2478 21.9601C60.3705 20.7264 60.4085 19.6773 60.4445 18.6838C60.509 16.9029 60.567 15.3009 61.0948 13.1357C61.8369 10.0914 62.4689 8.39238 63.9906 5.61276C64.5064 4.67047 65.2433 3.58118 65.9504 2.60268C66.1791 2.49347 66.4089 2.38902 66.6396 2.28917Z" fill="#E2AE4A"/>
<path fill-rule="evenodd" clip-rule="evenodd" d="M55.5421 25.2293C58.5927 25.8666 63.3865 26.7686 66.9862 26.9825C68.1505 27.0517 69.2431 27.1374 70.2858 27.2192C75.3308 27.615 79.2078 27.9192 84.379 25.8154C88.6453 24.0798 91.3751 22.7966 93.9307 19.1676C95.9114 16.3549 96.2026 15.4113 96.2196 12.0437C96.2299 10.0001 95.5748 8.73119 94.7434 7.12078C94.5242 6.69608 94.2926 6.24761 94.0578 5.75492C93.2898 4.14349 91.7708 2.68474 89.9777 1.4183C86.3441 0.530378 82.2889 0.301532 79.0027 0.270379C72.9727 0.213215 67.2403 0.977945 62.1644 4.95436C57.2954 8.76867 56.5863 11.7896 56.1073 13.8302C56.087 13.9169 56.0671 14.0018 56.0472 14.085C55.572 16.0786 55.491 20.7569 55.5421 25.2293Z" fill="#F7D674"/>
<path fill-rule="evenodd" clip-rule="evenodd" d="M76.5447 27.4885C75.8882 27.5096 75.2301 27.5068 74.5628 27.4872C74.7806 25.9386 75.0378 23.9529 75.0378 23.9529C75.0378 23.9529 75.3344 19.5157 75.4796 17.6176L75.5586 9.28444C75.5644 8.66873 75.5755 8.14806 75.586 7.65564L75.586 7.65559L75.586 7.65553L75.586 7.65547L75.586 7.65542C75.6053 6.74648 75.6226 5.93378 75.6011 4.79736C75.5753 3.42778 75.4632 1.60035 75.3776 0.356061C75.5517 0.345015 75.7261 0.335108 75.9009 0.32628C76.1174 1.57078 76.4246 3.41907 76.5934 4.80677C76.8062 6.55612 76.9093 7.54019 77.0089 9.29819C77.1282 11.4062 77.0725 12.9162 77.0102 14.6051L77.0102 14.6051L77.0102 14.6052L77.0102 14.6053L77.0102 14.6053C76.9764 15.5203 76.9407 16.4878 76.9298 17.6313C76.9216 18.5013 76.93 19.2374 76.9379 19.9335C76.9524 21.2184 76.9655 22.3672 76.8697 23.9702C76.8057 25.0426 76.6625 26.4365 76.5447 27.4885ZM86.4023 24.9669C85.8538 25.2076 85.2779 25.4479 84.6704 25.6963C84.681 24.9328 84.6832 24.0908 84.6614 23.403C84.5952 21.3185 84.4293 19.9739 84.2091 18.1892L84.2091 18.1891L84.2091 18.1889L84.2089 18.1872C84.1547 17.7482 84.0973 17.2826 84.0372 16.7727C84.0032 16.4837 83.9713 16.2098 83.9407 15.9475L83.9407 15.9475C83.7174 14.0311 83.5662 12.733 83.1794 10.6388L83.1431 10.4424C82.7454 8.28814 82.5103 7.01458 81.8601 4.8567C81.4263 3.4169 80.6799 1.52834 80.1701 0.289127C80.4823 0.29664 80.7998 0.306212 81.1216 0.318185C81.7849 1.54837 82.7327 3.40942 83.2341 4.86973C83.7457 6.35985 83.9395 7.41728 84.1728 8.69096C84.2627 9.18126 84.3584 9.70361 84.4803 10.295C85.001 12.8194 85.2634 14.2416 85.6402 16.7879C86.0221 19.3688 86.417 23.4197 86.417 23.4197L86.4023 24.9669ZM94.8632 17.7755C94.604 18.1938 94.2963 18.6487 93.9313 19.1671C93.7011 19.494 93.4695 19.8019 93.2354 20.0927C93.2015 19.5586 93.1586 19.0325 93.1042 18.5682C92.7397 15.4546 92.304 13.7191 91.3466 10.7163C90.6659 8.58112 90.2772 7.36992 89.26 5.35424C88.4835 3.81552 87.1161 1.82108 86.3534 0.746397C86.7274 0.796765 87.1011 0.852119 87.4733 0.912904C88.2488 1.79262 89.3896 3.13843 90.1105 4.22263C91.3903 6.14764 91.9559 7.32748 92.809 9.448C94.0397 12.5071 94.3352 14.3973 94.8303 17.5655L94.8632 17.7755ZM71.7439 0.781628C71.3765 2.20776 70.8677 4.17961 70.4783 5.67477C70.2034 6.7302 69.937 7.61265 69.6847 8.44842L69.6847 8.44844L69.6847 8.44848L69.6847 8.44849C69.2335 9.94304 68.8274 11.2883 68.4985 13.2064C68.0315 15.9298 67.9889 17.7303 67.9326 20.1035L67.9326 20.1035C67.9184 20.7022 67.9034 21.3374 67.8804 22.033C67.827 23.6529 67.8234 25.9441 67.8252 27.0352C67.5498 27.0167 67.2704 26.9988 66.9869 26.982C66.6171 26.96 66.2347 26.9308 65.843 26.8953C65.845 25.763 65.8545 23.5767 65.8959 22.0142C65.9094 21.505 65.9195 21.0119 65.9293 20.5304L65.9293 20.5304L65.9293 20.5304L65.9293 20.5303L65.9293 20.5303C65.9855 17.7755 66.034 15.4004 66.6727 12.548C67.2198 10.1043 67.9087 8.4863 68.7718 6.4591L68.7718 6.45899L68.7719 6.45894L68.772 6.4586L68.7722 6.45816L68.7724 6.45779C69.0008 5.92131 69.2414 5.35616 69.4948 4.73946C69.7542 4.10814 70.0157 3.28691 70.2759 2.46981L70.276 2.46978C70.4403 1.95356 70.6042 1.43899 70.7667 0.975013C71.0909 0.904361 71.4167 0.840047 71.7439 0.781628ZM65.9515 2.60129C66.1801 2.49216 66.4097 2.3878 66.6403 2.28803C66.0369 3.3576 65.3704 4.5961 64.9063 5.62194C63.6196 8.46549 62.9814 10.1236 62.3158 13.1477C61.8594 15.2216 61.8099 16.7746 61.7562 18.457C61.7223 19.5221 61.6867 20.6391 61.5451 21.9729C61.3997 23.3434 61.1709 25.2521 61.0481 26.2624C60.6392 26.1955 60.2332 26.1264 59.833 26.0562C59.94 25.0092 60.1196 23.2468 60.2475 21.9606C60.3702 20.7269 60.4082 19.6778 60.4442 18.6843C60.5087 16.9034 60.5668 15.3014 61.0946 13.1362C61.8366 10.0919 62.4686 8.39288 63.9903 5.61326C64.5065 4.67036 65.2439 3.58027 65.9515 2.60129Z" fill="#F3C66D"/>
<path d="M51.0952 29.1393C51.6862 27.9807 52.3799 27.4984 53.7093 27.1696C55.9282 26.6208 55.8366 26.9713 57.8916 27.2093C61.2762 27.6012 62.958 28.7358 66.2087 29.7014C68.5993 30.4115 70.374 30.5912 72.8328 31.0549C77.1649 31.8717 78.5072 31.901 82.9049 31.5065C86.6455 31.171 89.0183 30.5272 92.7642 30.2466C95.9602 30.0073 99.2168 29.2448 102.308 30.0437C104.085 30.5029 104.226 30.7072 105.629 31.8248C107.063 32.9668 107.236 34.3911 107.498 36.5341L107.513 36.6547C107.798 38.9894 106.981 40.8464 105.525 42.7616C104.007 44.7598 102.876 44.5577 100.482 45.563C96.9819 47.0324 93.2235 46.7131 89.399 47.025C83.9163 47.4721 82.4501 47.2453 76.9573 46.907C71.3535 46.5619 68.9743 46.5336 63.5382 45.2127C59.247 44.17 60.2621 44.5406 55.2426 42.5698C53.7944 42.0012 51.2447 40.4102 50.696 39.0364C49.9638 37.2033 50.1138 36.0292 50.1324 34.0738C50.1491 32.3069 50.2817 30.7339 51.0952 29.1393Z" fill="#F3C66D"/>
<path fill-rule="evenodd" clip-rule="evenodd" d="M58.1431 43.7022C57.763 43.5577 57.3192 43.385 56.7779 43.1729L56.0322 39.8704L56.0707 35.8106L56.9583 30.7617L58.9746 27.433L59.3269 27.4364C59.6183 27.4954 59.8979 27.5604 60.1688 27.6304L58.2532 31.0589L57.2156 35.8215L57.1765 39.9524L58.1431 43.7022ZM66.2627 45.82C65.7782 45.7236 65.2718 45.6158 64.736 45.4945L63.886 40.7996L63.9448 34.6031L64.9336 29.2912C65.3314 29.4287 65.7505 29.5655 66.1996 29.6991L65.2451 34.3306L65.3363 40.8133L66.2627 45.82ZM74.4784 46.7589C73.9657 46.728 73.4791 46.6978 73.0104 46.6663L72.4241 42.0202L72.4781 36.3223L73.1883 31.1218C73.7134 31.2192 74.1938 31.3042 74.6415 31.3776L74.0081 35.9807L73.9541 41.6786L74.4784 46.7589ZM84.4059 47.2743C84.0208 47.2756 83.6465 47.2717 83.2729 47.2632L84.0261 42.1302L84.0619 38.3554L83.3081 31.4692C83.618 31.4389 83.9188 31.4065 84.212 31.3724L85.4507 36.8015L85.4075 41.3598L84.4059 47.2743ZM94.4726 46.7694C93.8964 46.8051 93.3166 46.8301 92.7338 46.8532L93.7963 42.2229L94.4576 36.8869L92.6926 30.2526C92.7166 30.2508 92.7406 30.2489 92.7646 30.2471C93.2305 30.2122 93.6976 30.1662 94.1654 30.1156C94.6889 31.3534 95.8658 34.3509 95.9875 36.5452C96.0666 37.9703 95.902 38.9306 95.7 40.1084C95.6293 40.5209 95.554 40.9601 95.483 41.4553C95.2308 43.2138 94.7044 45.7039 94.4726 46.7694ZM102.518 44.8339C102.419 44.8669 102.318 44.9002 102.214 44.9343C101.788 45.0741 101.318 45.2284 100.783 45.4407C100.912 44.6397 101.082 43.4739 101.121 42.6485C101.184 41.272 101.166 37.8053 101.166 37.8053C101.166 37.8053 100.83 35.6652 100.735 34.952C100.64 34.2388 99.0265 30.0209 99.0265 30.0209L100.009 29.7075C100.141 29.7141 100.273 29.7226 100.404 29.733C100.716 30.2606 101.906 32.3212 102.349 33.8276C102.724 35.1015 102.794 35.8883 102.904 37.1389L102.926 37.3946C103.096 39.3075 103.054 40.3968 102.879 42.309C102.81 43.0741 102.657 44.038 102.518 44.8339Z" fill="#E2AE4A"/>
<path fill-rule="evenodd" clip-rule="evenodd" d="M53.7091 27.1694C52.3797 27.4982 51.686 27.9805 51.095 29.1391C50.2815 30.7337 50.1489 32.3067 50.1322 34.0737C50.1295 34.3496 50.1243 34.61 50.1193 34.8589C50.0889 36.3736 50.067 37.4618 50.6958 39.0362C51.2445 40.41 53.7942 42.001 55.2425 42.5696C57.9544 43.6344 58.9048 44.0157 59.8823 44.3058C60.714 44.5525 61.5653 44.7332 63.538 45.2125C68.422 46.3993 70.8384 46.5426 75.3428 46.8098C75.852 46.84 76.3879 46.8718 76.9571 46.9068C77.7239 46.9541 78.4122 46.9991 79.0439 47.0405C82.4416 47.2629 84.2024 47.3781 87.7305 47.1482C89.7985 46.1608 91.852 44.8469 92.9465 43.2117C93.1345 42.9308 93.3228 42.6627 93.5055 42.4025C94.5547 40.9081 95.4192 39.6769 94.9824 37.8175C94.7006 36.6178 94.1234 35.9942 93.3219 35.1283C93.2265 35.0252 93.1279 34.9187 93.0262 34.8073C91.1949 32.8015 86.8766 31.2587 86.8766 31.2587L86.1496 31.1139C85.1476 31.2615 84.0955 31.3995 82.9047 31.5063C78.507 31.9008 77.1647 31.8716 72.8326 31.0547C72.137 30.9235 71.4961 30.8151 70.8805 30.7109C69.3203 30.4469 67.9228 30.2104 66.2085 29.7012C65.0537 29.3582 64.0969 28.9938 63.1914 28.649C61.548 28.0232 60.0737 27.4618 57.8914 27.2091C57.6768 27.1842 57.4856 27.1582 57.3128 27.132L53.9957 27.1006C53.9046 27.1217 53.8092 27.1447 53.7091 27.1694Z" fill="#F7D674"/>
<path fill-rule="evenodd" clip-rule="evenodd" d="M59.3316 27.4366L58.974 27.4332C58.974 27.4332 57.5278 29.3664 56.9577 30.7619C56.3197 32.3237 56.2431 33.4118 56.1388 34.8926C56.1184 35.1816 56.097 35.4855 56.0702 35.8108L56.0558 35.984C55.9337 37.4593 55.8598 38.3521 56.0317 39.8705C56.1572 40.9791 56.5799 42.5389 56.7577 43.1644C57.297 43.3757 57.74 43.5481 58.1197 43.6926C57.9006 43.0296 57.3328 41.2316 57.1759 39.9526C56.9794 38.3495 57.0479 37.4272 57.2151 35.8216C57.4119 33.9323 57.5498 32.8397 58.2526 31.0591C58.739 29.8268 59.7971 28.1682 60.1525 27.6255C59.8881 27.5574 59.6155 27.4942 59.3316 27.4366ZM64.9192 29.2855C64.7152 30.1633 64.1278 32.7824 63.9442 34.6033C63.7014 37.0123 63.6619 38.3885 63.8855 40.7997C64.0286 42.3431 64.4886 44.5062 64.7088 45.4876C65.2461 45.6094 65.7536 45.7178 66.2392 45.8146C66.0127 44.8077 65.5104 42.471 65.3357 40.8135C65.0702 38.2934 64.9732 36.8495 65.2445 34.3307C65.4118 32.7782 65.9475 30.5897 66.1778 29.6919C65.7316 29.5588 65.3149 29.4225 64.9192 29.2855ZM73.1806 31.1196C73.0523 31.8677 72.6116 34.5151 72.4776 36.3225C72.3129 38.5422 72.286 39.7986 72.4235 42.0204C72.5189 43.5609 72.8504 45.7553 72.9946 46.6644C73.4646 46.6961 73.9528 46.7264 74.467 46.7574C74.3486 45.8619 74.0357 43.39 73.9535 41.6787C73.8467 39.4555 73.8328 38.1999 74.0075 35.9808C74.1341 34.3727 74.5274 32.0096 74.6356 31.3759C74.1874 31.3023 73.7064 31.2171 73.1806 31.1196ZM83.3154 31.4676C83.4426 32.2922 83.984 35.9143 84.0614 38.3555C84.1081 39.8292 84.1157 40.6586 84.0256 42.1304C83.9255 43.7637 83.5481 45.9962 83.3157 47.2633C83.6879 47.2714 84.0613 47.275 84.4457 47.2733C84.7257 45.9705 85.2655 43.2881 85.407 41.3599L85.4115 41.2984C85.539 39.5605 85.6127 38.5548 85.4502 36.8016C85.2777 34.9414 84.521 32.3073 84.2382 31.3685C83.9389 31.4034 83.6319 31.4366 83.3154 31.4676ZM94.4293 36.4733C94.4421 36.614 94.4514 36.7521 94.457 36.887C94.5229 38.4793 94.3142 39.5364 94.0528 40.8599L94.0528 40.8599L94.0528 40.86L94.0528 40.8601C93.988 41.1881 93.9201 41.5323 93.8522 41.9052C94.7334 40.622 95.3701 39.4669 94.9826 37.8173C94.8558 37.2776 94.6692 36.8544 94.4293 36.4733Z" fill="#F3C66D"/>
</svg>
