<svg width="150" height="150" viewBox="-2 0 140 145" fill="none" xmlns="http://www.w3.org/2000/svg">
<path d="M0.750389 74.7242C-1.29286 86.334 10.6891 92.7448 20.1286 95.4339C23.3158 96.3418 26.5572 94.7167 28.4683 92.0093C28.803 91.5352 29.1499 91.0586 29.5033 90.5921C30.9923 88.6265 31.9328 86.1707 31.2966 83.7883C30.1748 79.5876 28.3149 76.4765 27.3316 75.2477C26.8672 60.4961 19.739 57.4229 15.3672 57.7167C14.6304 57.7662 13.8909 57.8206 13.1575 57.9062C9.3778 58.347 2.97715 62.0717 0.750389 74.7242Z" fill="#CC554E"/>
<path d="M14.2313 82.688C22.8597 87.105 27.3449 79.5455 27.2087 75.2185C37.831 91.152 27.2087 92.0963 27.2087 92.0963C27.2087 92.0963 13.9463 90.562 11.5112 84.7787C8.67859 78.0512 9.66515 71.2475 15.1542 71.9633C9.65347 74.917 11.6292 81.3559 14.2313 82.688Z" fill="#623F33"/>
<path d="M111.991 134.404C102.199 133.561 103.268 124.304 101.24 123.173C106.576 120.438 113.572 107.803 116.964 104.269C116.915 107.633 117.861 121.261 116.517 127.932C115.173 134.603 114.259 134.599 111.991 134.404Z" fill="#CC554E"/>
<path d="M109.31 118.892C102.015 125.467 89.3469 125.111 82.4924 126.298C76.9773 127.253 67.648 128.101 60.8277 127.514C55.6537 127.069 47.3338 125.737 38.0429 122.473C28.7519 119.21 24.4156 111.508 23.4088 108.064C23.1484 106.816 23.0031 105.575 22.9581 104.353C22.6115 94.9494 28.2007 86.6231 32.9522 83.8902C38.6662 80.6037 39.4276 79.7152 40.6494 78.2894L40.6616 78.2751C84.1254 84.195 103.072 80.3289 110.877 75.9066C112.042 87.1423 116.874 88.2689 117.214 102.751C117.443 112.484 113.933 114.725 109.31 118.892Z" fill="#CC554E"/>
<path d="M95.5421 124.697C95.2285 124.73 90.719 125.306 86.8931 125.79C83.7513 126.187 80.365 126.177 77.865 124.234C72.0144 119.685 71.8392 110.71 68.7154 103.211C62.1963 89.487 60.7337 85.9258 62.691 83.7386C64.426 81.7999 95.5803 77.8002 102.638 76.9162L102.725 76.9053C103.651 76.7892 104.568 76.6741 105.499 76.7462C107.436 76.8962 107.616 78.4067 106.033 91.1031C105.32 96.8282 104.932 93.9626 105.569 103.383C106.753 120.899 101.957 123.116 101.957 123.116C101.957 123.116 99.2482 124.305 95.5421 124.697Z" fill="#F4F4F4"/>
<path d="M51.939 117.469L51.5287 117.367C47.0814 116.262 42.7351 119.502 42.525 124.08C49.6164 127.295 55.6577 127.595 58.2421 127.279L57.6008 123.559C57.0883 120.586 54.867 118.197 51.939 117.469Z" fill="#F4F4F4"/>
<path d="M29.4677 70.6783C35.8331 77.1018 45.2276 80.7217 49.1292 81.7288C54.8718 83.3681 69.4494 86.2257 81.8196 84.5419C94.1898 82.8581 109.612 77.733 114.376 75.142C120.093 72.0405 130.28 64.3326 130.921 53.584C131.562 42.8354 128.257 41.864 123.446 30.3145C122.955 20.6058 122.16 16.622 121.982 14.5534C121.729 12.9126 120.818 8.89835 115.255 7.4719C109.692 6.04545 104.696 10.5095 103.688 12.1207L95.8416 20.7129C83.3584 14.9001 63.7594 17.7151 55.5204 19.8492C48.8777 14.4443 43.0378 12.1016 40.9481 11.6059C38.8652 11.0318 34.0188 11.4598 31.2965 17.7646C28.5743 24.0695 29.9333 34.9823 30.9532 39.6506C30.0933 42.3012 28.0991 48.3133 27.0014 51.1568C25.6294 54.711 21.5109 62.6489 29.4677 70.6783Z" fill="#CC554E"/>
<path d="M45.5531 55.8333C37.096 52.3262 29.1318 55.4853 25.9042 57.9271C25.2103 58.452 24.7382 59.2157 24.6621 60.0825C24.5822 60.9928 24.6418 62.2464 25.0956 63.6682C26.0287 66.5916 27.2311 67.7613 28.823 69.9121C30.0964 71.6328 33.6171 74.3129 35.2183 75.4379C36.4118 76.2513 40.4734 78.5199 47.1707 81.0864C55.5424 84.2946 69.3289 85.4779 75.9464 85.3396C82.5922 85.2008 89.7191 83.629 92.9682 83.0136C95.9788 82.4435 104.662 79.2814 108.812 77.8616C112.962 76.4418 120.335 71.9824 125.447 66.2623C127.887 63.5318 129.261 60.4227 129.979 57.8814C130.675 55.419 129.269 53.0175 126.861 52.1523C124.278 51.2245 121.163 50.3751 118.894 50.1798C109.912 49.4069 102.156 56.0842 97.5173 53.5526C93.806 51.5274 92.1531 45.6806 89.2419 43.7189C79.5678 37.2002 69.8204 41.8107 66.156 44.9308C61.0429 49.2843 55.0695 59.7796 45.5531 55.8333Z" fill="#F4F4F4"/>
<path d="M38.0655 80.7657C38.8209 80.2936 39.9933 78.9166 40.544 78.2871C49.396 82.418 54.5892 83.5983 62.1428 84.5425C61.4818 85.2979 61.9854 87.5325 62.2608 88.4373C46.2093 86.5489 37.1213 81.3558 38.0655 80.7657Z" fill="#623F33"/>
<path d="M62.3797 88.4376C61.6243 86.6436 61.9076 85.0542 62.1436 84.5428C79.0449 87.6586 99.0858 81.8675 106.994 78.5234C107.182 79.09 107.072 81.3561 106.994 82.4183C87.7317 91.0106 69.2252 90.0113 62.3797 88.4376Z" fill="#CED2CE"/>
<path d="M46.0514 34.908C43.043 36.8288 44.4138 38.7948 46.5305 38.977C49.3566 39.2202 51.5071 38.6067 52.9626 37.6509C55.0765 36.2628 53.8143 33.4534 51.2855 33.47C49.5417 33.4814 47.6134 33.9107 46.0514 34.908Z" fill="#FBFAF4"/>
<path d="M109.371 32.8139C112.007 35.2204 110.321 36.9233 108.204 36.7412C105.378 36.498 103.364 35.5261 102.093 34.3357C100.247 32.6068 101.971 30.0544 104.46 30.5028C106.176 30.8119 108.002 31.5644 109.371 32.8139Z" fill="#FBFAF4"/>
<path d="M42.4847 19.9118C36.0889 16.0444 37.1111 26.8335 38.4217 32.7114L49.7436 25.038C49.9889 24.9406 48.8806 23.7791 42.4847 19.9118Z" fill="#F4F4F4"/>
<path d="M115.124 12.7769C112.44 10.9347 107.958 18.0438 106.053 21.8286L117.342 22.8C117.721 20.2265 117.809 14.619 115.124 12.7769Z" fill="#F4F4F4"/>
<ellipse cx="50.6202" cy="45.134" rx="4.48499" ry="4.13091" transform="rotate(4.91842 50.6202 45.134)" fill="#562528"/>
<ellipse cx="107.1" cy="44.0705" rx="4.48499" ry="4.13091" transform="rotate(4.91842 107.1 44.0705)" fill="#562528"/>
<path d="M75.5599 68.2866C72.2068 67.9981 71.0044 64.7975 70.9956 62.2981C71.7149 62.2584 74.292 62.4792 75.6971 61.1226C77.1857 59.6856 80.7908 60.4636 82.6964 61.2695C83.2741 61.5139 83.8864 61.5976 84.5128 61.4165C84.3481 66.0071 82.9214 66.3511 82.1618 66.9996C81.4975 67.6564 78.913 68.5752 75.5599 68.2866Z" fill="#FE71A6"/>
<path d="M78.2201 59.5316C78.3735 59.685 78.2649 59.9472 78.048 59.9472C77.8311 59.9472 77.7225 59.685 77.8759 59.5316C77.9709 59.4366 78.1251 59.4366 78.2201 59.5316Z" fill="#FE71A6"/>
<path d="M75.5599 68.2866C72.2068 67.9981 71.0044 64.7975 70.9956 62.2981C71.7149 62.2584 74.292 62.4792 75.6971 61.1226C77.1857 59.6856 80.7908 60.4636 82.6964 61.2695C83.2741 61.5139 83.8864 61.5976 84.5128 61.4165C84.3481 66.0071 82.9214 66.3511 82.1618 66.9996C81.4975 67.6564 78.913 68.5752 75.5599 68.2866Z" stroke="#FE71A6" stroke-linecap="round"/>
<path d="M78.2201 59.5316C78.3735 59.685 78.2649 59.9472 78.048 59.9472C77.8311 59.9472 77.7225 59.685 77.8759 59.5316C77.9709 59.4366 78.1251 59.4366 78.2201 59.5316Z" stroke="#FE71A6" stroke-linecap="round"/>
<path d="M77.9043 61.2275L78.0947 64.3815" stroke="#C44B78" stroke-width="4" stroke-linecap="round"/>
<path d="M77.9497 55.1851L77.9218 58.2627M77.9218 58.2627C77.0139 60.5538 75.2361 61.9408 69.6486 62.1708C65.5144 62.3409 63.0634 61.6041 62.6513 58.1332M77.9218 58.2627C79.0534 60.2555 81.1294 62.2864 88.4709 60.9474C91.1186 60.4645 93.5615 59.6086 93.4655 55.2172" stroke="#562528" stroke-width="1.5" stroke-linecap="round"/>
<path d="M74.8335 51.9367C76.4119 54.1692 79.7328 54.1427 81.2753 51.8853C83.0377 49.3062 81.2255 45.8022 78.1023 45.7498C74.8906 45.696 72.9791 49.3139 74.8335 51.9367Z" fill="#562528"/>
<path d="M27.1681 133.409C21.3905 124.806 22.1569 107.242 23.3614 99.0576C27.3984 104.416 33.176 108.351 38.1082 110.899C42.3319 113.081 45.2557 117.478 43.4603 121.88C42.5431 124.129 41.2876 126.65 39.6019 129.242C36.3565 134.231 32.8081 135.474 30.4189 135.427C29.0687 135.4 27.9211 134.53 27.1681 133.409Z" fill="#CC554E"/>
<path d="M32.3464 125.337C29.6021 125.29 25.1637 123.455 23.3564 122.431C23.3261 122.783 23.2813 124.13 25.024 129.208C26.7667 134.286 28.4116 135.27 29.467 135.395C35.9166 136.16 39.3836 130.286 40.7017 127.359C39.0601 126.704 35.0907 125.383 32.3464 125.337Z" fill="#FBFAF4"/>
<path d="M73.623 141.517C59.6601 140.863 54.6982 119.196 54.4768 110.455C65.3951 104.964 67.8902 114.189 72.6849 116.369C74.0262 124.185 75.0821 121.551 79.3241 125.944C78.0932 141.845 76.532 141.653 73.623 141.517Z" fill="#CC554E"/>
<path d="M69.5008 134.102C65.3859 133.463 63.0017 134.372 62.3239 134.906C62.9586 135.789 63.6155 136.416 64.1509 137.077C66.1102 139.496 69.8547 141.003 71.9511 141.42C74.0475 141.838 75.2639 141.468 75.7646 141.156C77.5323 139.887 77.9981 136.768 78.2026 134.851C77.1142 134.283 75.8946 134.139 75.4209 134.137C74.355 134.134 73.6158 134.74 69.5008 134.102Z" fill="#FBFAF4"/>
<path d="M110.264 129.044C108.184 129.561 105.221 129.116 104 128.829C105.04 131.756 107.782 132.81 109.318 133.348C110.225 133.666 112.391 133.958 113.336 133.994C114.376 134.08 115.018 133.258 115.345 132.81C115.818 132.165 116.764 128.829 117 127C115.621 127.466 112.344 128.528 110.264 129.044Z" fill="#FBFAF4"/>
<path d="M107 83C107.125 82.6087 107.083 80.0435 107 78.6957C107.625 78.4348 110.042 77.5652 111.25 77C111.35 77.9391 111.792 80.1739 112 81.1739C112 81.487 108.667 82.4783 107 83Z" fill="#623F33"/>
<circle cx="53" cy="44" r="1" fill="white"/>
<ellipse cx="109.5" cy="43" rx="1.5" ry="1" fill="white"/>
<path d="M53.7726 81.6578C57.1577 82.1645 62.4726 82.7277 62.4726 82.7277L64.4617 85.4511C64.4617 85.4511 58.1634 85.0455 54.2355 84.1935C48.4197 82.932 40 79 40 79C40 79 48.3524 80.8464 53.7726 81.6578Z" fill="#E8AFC5"/>
<path d="M83.6795 90.704L91.3624 85.0372L92.0709 85.6627L91.5282 87.7052L93.6113 91.5933L94.641 97.3882C94.641 97.3882 94.9295 98.7973 94.838 100.557C94.7475 102.295 94.1898 106.288 94.1898 106.288C93.7902 109.085 93.6867 111.007 92.968 113.562C92.3702 115.688 91.6195 118.8 90.8398 119.721C90.2416 120.428 81.0352 112.798 81.0352 112.798C81.0352 112.798 69.6589 116.126 68.9554 115.055C68.2158 113.929 70.94 108.681 72.3253 104.634C73.0828 102.421 78.6128 95.3713 78.6128 95.3713L83.6795 90.704Z" fill="#E8AFC5"/>
<path d="M107.4 90.5026L98.7322 86.5021L98.1645 87.2577L99.108 89.1488C99.108 89.1488 98.7826 91.2605 98.5191 92.9628C98.1676 95.2343 98.4128 98.8284 98.4128 98.8284C98.4128 98.8284 99.4124 102.893 99.857 104.598C100.415 106.739 101.567 109.178 101.567 109.178C102.523 111.837 103.587 113.147 104.806 115.506C105.82 117.467 107.169 119.577 108.119 120.322C108.847 120.893 114.447 111.608 114.447 111.608C114.447 111.608 126.261 112.573 126.734 111.382C127.231 110.131 123.504 105.54 121.331 101.856C120.143 99.8413 113.304 94.0518 113.304 94.0518L107.4 90.5026Z" fill="#E8AFC5"/>
<path d="M62.6694 89.3328C62.0457 84.6844 60.8452 76.1434 62.4658 75.284C63.5384 74.7152 66.3938 74.4185 68.9381 74.3795C72.8142 74.3203 74.7102 74.8131 78.4111 75.9669C81.7799 77.0172 84.8308 78.9239 88.3315 79.3678C90.0145 79.5813 91.0307 79.7023 91.0307 79.7023L92.3949 82.798L91.5178 87.5397L83.5636 94.2278L76.2765 100.875C76.2765 100.875 71.3766 105.531 70.0218 105.281C69.3444 105.156 67.0117 99.9438 67.0117 99.9438C67.0117 99.9438 63.2648 93.7704 62.6694 89.3328Z" fill="#F5C6D8"/>
<path d="M128.139 84.6841C128.08 79.9945 128.025 71.3697 126.297 70.7552C125.153 70.3484 121.957 70.4069 119.434 70.7385C115.59 71.2437 114.114 72.0704 110.62 73.7503C107.44 75.2795 104.699 77.6097 101.3 78.5582C99.6663 79.0142 98.6785 79.2817 98.6785 79.2817L97.7791 82.543L99.3366 87.1066L108.179 92.5665L116.356 98.0825C116.356 98.0825 121.881 101.977 123.185 101.532C123.837 101.31 125.386 95.8139 125.386 95.8139C125.386 95.8139 128.195 89.1612 128.139 84.6841Z" fill="#F5C6D8"/>
<path d="M89.6757 79.4506C89.6757 79.4506 90.7325 78.8729 91.4686 78.6695C94.5954 77.8056 100.953 77.7452 101.14 78.0684C101.328 78.3915 101.369 79.0585 101.369 79.0585C101.369 79.0585 101.738 83.4984 101.513 84.0715C101.289 84.6447 101.026 84.9011 100.763 85.4574C100.555 85.8959 99.6359 88.8754 99.6359 88.8754L92.163 89.842C92.163 89.842 91.2771 88.5579 91.2152 88.0596C91.1328 87.3951 91.6988 86.3555 91.7579 86.0171C91.817 85.6786 90.7903 81.2227 90.7696 80.8892C90.7385 80.3889 89.6757 79.4506 89.6757 79.4506Z" fill="#E8AFC5"/>
<path d="M81.6713 82.6266C85.3443 82.0108 91.2177 82.7028 91.2177 82.7028C91.2177 82.7028 88.6795 83.3916 87.1214 84.1292C85.0743 85.0982 84.1694 86.3637 81.92 86.6287C81.0777 86.7279 80.5734 86.9759 79.7522 86.7634C78.9812 86.5639 78.3458 86.423 78.0122 85.6998C77.6404 84.8939 77.9812 84.1763 78.5444 83.4905C79.341 82.5207 80.4335 82.8341 81.6713 82.6266Z" fill="#E8AFC5"/>
<path d="M110.024 80.9498C106.303 80.7936 100.561 82.2076 100.561 82.2076C100.561 82.2076 103.165 82.5768 104.802 83.1157C106.954 83.8238 108.008 84.9675 110.273 84.9519C111.121 84.946 111.652 85.1297 112.441 84.8171C113.181 84.5237 113.794 84.3052 114.036 83.5462C114.305 82.7005 113.878 82.0306 113.234 81.4199C112.324 80.5561 111.278 81.0024 110.024 80.9498Z" fill="#E8AFC5"/>
</svg>
