<svg width="507" height="507" viewBox="0 0 507 507" fill="none" xmlns="http://www.w3.org/2000/svg">
<mask id="mask0_5402_3203" style="mask-type:alpha" maskUnits="userSpaceOnUse" x="0" y="0" width="507" height="507">
<circle cx="253.5" cy="253.5" r="253.5" fill="#DAE5D7"/>
</mask>
<g mask="url(#mask0_5402_3203)">
<circle cx="253.5" cy="253.5" r="253.5" fill="#DAE5D7"/>
<path d="M66.0005 449.5C68.0999 421.939 85.5006 356.5 108.5 323.5L349.535 294H387.5C400.783 323.466 418.324 354.27 424 369.5C429.677 384.73 444.5 416 444.5 437.5C444.5 464 400.19 504.849 380.188 531.5C360.187 558.151 331.512 561.776 314.199 570.013C289.506 581.761 240.546 584 209.042 584C179.022 584 152.277 570.479 142.627 564.884C130.706 557.973 115.115 540.145 103.033 524.788C79.1921 494.482 63.4458 483.04 66.0005 449.5Z" fill="#FAE6AE"/>
<path d="M77.5189 175C56.2141 234.113 67.1112 296.632 90 310.5C178.366 378.773 356.803 348.167 393.95 288.428C423.668 240.637 386.449 144.291 367.5 121C386.5 86.5 369.082 68.2664 346.5 86.5C365.898 50.4891 328.105 41.3226 309 67C321.124 41.9918 308.897 33.8194 296.5 30.9998C287.12 28.8663 258.031 44.2322 247 56.5C235.408 69.3922 229.635 74.4887 213.5 80.0003C196.99 83.5562 187.297 83.9696 136.866 107.012C117.529 115.847 89.957 140.489 77.5189 175Z" fill="#FAE6AE"/>
<path d="M195 341.487C168.734 353.277 148.382 348.778 138.5 337C130.598 341.365 112.096 325.472 107.5 322.501C201.5 399 280.5 422.5 388 298C364.055 324 346.296 333.312 331.5 329C313.489 357.338 283.741 349.862 266.5 341.487C248.636 365.949 207.767 349.811 195 341.487Z" fill="#EFD89B"/>
<path d="M392.191 386.758C377.473 307.839 407.024 320.23 423.64 336.291C430.859 343.269 441.612 354.401 454.141 371.469C459.212 378.377 473.274 393.371 481.918 419.427C490.562 445.482 480.96 449.3 475.398 447.004C492.611 478.885 485.159 485.015 479.281 484.095C486.997 502.861 483.635 512.044 480.283 514.275C476.931 516.505 463.416 512.071 436.173 476.491C408.929 440.911 396.373 409.178 392.191 386.758Z" fill="#FFEFC1"/>
<path d="M104.475 402.758C119.193 323.839 89.6421 336.23 73.0267 352.291C65.8076 359.269 55.0541 370.401 42.5254 387.469C37.4547 394.377 23.3919 409.371 14.7483 435.427C6.10468 461.482 15.7058 465.3 21.2682 463.004C4.05543 494.885 11.5073 501.015 17.3848 500.095C9.66905 518.861 13.0309 528.044 16.383 530.275C19.7351 532.505 33.2504 528.071 60.4935 492.491C87.7368 456.911 100.294 425.178 104.475 402.758Z" fill="#FFEFC1"/>
</g>
<path d="M210.377 235.228C207.601 236.386 194.188 245.213 194.188 250.423C194.188 255.632 205.173 263.218 208.064 264.315C215.002 266.946 228.601 271.782 242.292 268.656C255.983 265.53 260.793 263.88 265.419 258.671C270.044 253.461 273.113 248.713 266.806 242.201C260.499 235.689 242.754 227.848 231.589 228.743C221.079 229.586 218.702 231.755 210.377 235.228Z" fill="#FEA34A"/>
<path d="M263.936 249.673C251.03 256.524 215.945 258.029 202.772 251.452" stroke="#B0661E" stroke-width="5" stroke-linecap="round"/>
<ellipse cx="18.5557" cy="16.9247" rx="18.5557" ry="16.9247" transform="matrix(0.928977 -0.370138 0.375032 0.927012 117 210.736)" fill="#562528"/>
<ellipse cx="18.5094" cy="16.9677" rx="18.5094" ry="16.9677" transform="matrix(-0.91062 -0.413244 -0.422365 0.906426 347.707 212.298)" fill="#562528"/>
<circle cx="148.89" cy="214.951" r="4" fill="white"/>
<circle cx="329.89" cy="214.951" r="4" fill="white"/>
<path d="M162.894 55.9182C159.798 70.4462 162.894 127.367 162.894 127.367H310.079C310.079 127.367 311.27 78.7819 307.936 61.1578C304.601 43.5337 304.125 39.2468 291.979 25.1951C279.832 11.1435 252.92 8.99997 234.105 9C215.29 9.00003 197.428 11.7387 181.709 25.1951C165.99 38.6515 164.351 49.0814 162.894 55.9182Z" fill="#F3C66D"/>
<path fill-rule="evenodd" clip-rule="evenodd" d="M193.856 115.221C193.856 115.221 193.739 89.4626 193.856 82.1158C193.883 80.4126 193.9 78.7635 193.916 77.1532C194.01 67.9404 194.091 59.9975 196 50.4401C197.634 42.252 199.736 36.8203 202.369 30.0148C203.066 28.2125 203.8 26.3138 204.573 24.2421C205.364 22.123 206.156 19.3688 206.943 16.6286L206.943 16.6285C207.441 14.8982 207.936 13.1735 208.429 11.6177C209.439 11.3711 210.453 11.1458 211.473 10.9401C210.369 15.7199 208.84 22.3276 207.67 27.3382C206.843 30.8759 206.038 33.835 205.276 36.6375C203.912 41.649 202.685 46.1598 201.715 52.5836C200.339 61.7045 200.259 67.726 200.154 75.6625L200.154 75.6628L200.154 75.6632C200.127 77.6653 200.099 79.7894 200.048 82.1158C199.887 89.4617 200.048 115.221 200.048 115.221H193.856ZM222.798 9.40195C223.102 13.5596 223.505 19.6646 223.626 24.2421C223.727 28.0412 223.697 30.759 223.664 33.7988C223.646 35.4458 223.626 37.1872 223.626 39.2464V67.1115C223.23 73.4625 222.436 88.3081 222.436 88.3081C222.436 88.3081 219.26 114.903 218.625 119.507L224.817 120.46C224.817 120.46 227.841 94.928 228.152 88.3081C228.403 82.9452 228.328 79.1044 228.245 74.8089V74.8087V74.8085V74.8084V74.8082V74.8081C228.199 72.4809 228.152 70.0202 228.152 67.1115C228.152 63.2874 228.234 60.0511 228.313 56.9904V56.9903C228.457 51.3415 228.586 46.2908 228.152 39.2464C227.789 33.3715 227.438 30.0845 226.723 24.2421C226.155 19.6085 225.142 13.44 224.43 9.28579C223.885 9.32085 223.341 9.3595 222.798 9.40195ZM237.749 9.02637C239.376 13.1537 241.76 19.4428 243.156 24.2421C245.248 31.4366 246.019 35.6874 247.324 42.8777L247.443 43.5333C248.712 50.5231 249.222 54.8586 249.975 61.2593L249.975 61.2594L249.977 61.2716C250.079 62.1438 250.187 63.0545 250.301 64.0154C250.504 65.7207 250.697 67.2779 250.879 68.7459C251.619 74.7064 252.176 79.1969 252.444 86.1646C252.666 91.9269 253.159 119.507 253.159 119.507L258.636 117.364C258.636 114.899 258.458 108.332 258.279 101.764L258.279 101.762C258.101 95.1953 257.922 88.629 257.922 86.1646C257.922 86.1646 256.57 72.6327 255.302 64.0154C254.051 55.5133 253.191 50.7665 251.492 42.3425C251.094 40.3702 250.78 38.6277 250.485 36.992L250.485 36.9891L250.485 36.9889L250.485 36.9888C249.719 32.7376 249.083 29.2082 247.443 24.2421C245.836 19.3765 242.825 13.1856 240.719 9.0934C239.714 9.06355 238.724 9.0416 237.749 9.02637ZM257.055 10.3597C259.467 13.9295 263.79 20.5524 266.258 25.6711C269.491 32.3784 270.739 36.4158 272.926 43.5333C276.002 53.5431 277.413 59.3321 278.642 69.7313C279.43 76.3919 281.977 109.266 281.977 109.266L288.407 108.552C288.407 108.552 285.266 74.501 284.12 67.1115L283.998 66.3239C282.359 55.7465 281.382 49.4356 277.451 39.2464C274.727 32.1833 272.928 28.2563 268.878 21.8605C266.597 18.2596 263 13.798 260.555 10.8811C259.392 10.6896 258.224 10.5163 257.055 10.3597ZM279.916 16.4784C281.814 19.5591 284.383 23.8953 286.025 27.3382C290.496 36.7089 292.035 42.4649 294.361 52.5836C295.447 57.3073 295.91 60.6067 296.464 64.5492C296.686 66.129 296.922 67.812 297.219 69.7313C297.669 72.6428 298.116 75.1859 298.536 77.5733L298.537 77.5738L298.537 77.5742L298.537 77.5743C299.588 83.5538 300.469 88.5573 300.791 95.9293C301.007 100.854 300.791 108.552 300.791 108.552L306.031 109.266V95.9293C306.031 95.9293 303.173 76.003 301.744 67.1115L301.726 67.0017C300.313 58.2088 300.092 56.8345 298.41 50.4401C298.245 49.813 298.085 49.2022 297.929 48.6059L297.925 48.5933L297.925 48.5905C295.603 39.7249 294.119 34.0592 289.36 25.6711C288.254 23.7223 286.752 21.4938 285.279 19.4344C283.603 18.3416 281.806 17.3599 279.916 16.4784ZM195.594 16.1389C193.743 19.7336 191.701 23.8944 190.284 27.3382C186.353 36.8867 184.411 42.4509 182.424 52.5836C181.062 59.5321 180.953 64.7261 180.835 70.3534C180.761 73.9156 180.683 77.6514 180.281 82.1158C179.694 88.6325 178.614 103.074 178.614 103.074H174.803C174.803 103.074 175.686 88.6274 176.232 82.1158C176.578 77.9869 176.666 74.4777 176.749 71.1547C176.897 65.1982 177.031 59.8401 178.614 52.5836C180.839 42.3811 182.76 36.6804 187.426 27.3382C189.008 24.1702 191.275 20.5034 193.453 17.2085C194.163 16.8362 194.877 16.4799 195.594 16.1389Z" fill="#E2AE4A"/>
<path fill-rule="evenodd" clip-rule="evenodd" d="M161.648 93.198C171.184 95.232 186.167 98.0959 197.404 98.697C201.038 98.8914 204.45 99.1433 207.705 99.3838C223.457 100.547 235.562 101.441 251.634 94.2433C264.893 88.3049 273.372 83.9279 281.237 71.7131C287.334 62.2456 288.215 59.0813 288.168 47.8208C288.14 40.9877 286.059 36.7658 283.417 31.4076C282.72 29.9945 281.985 28.5024 281.237 26.8624C278.793 21.4976 274.009 16.6674 268.376 12.4891C257.014 9.63642 244.357 8.99998 234.105 9C215.29 9.00003 197.428 11.7387 181.709 25.1951C166.631 38.103 164.508 48.226 163.074 55.0642C163.013 55.3548 162.954 55.6395 162.894 55.9182C161.47 62.5991 161.356 78.2452 161.648 93.198Z" fill="#F7D674"/>
<path fill-rule="evenodd" clip-rule="evenodd" d="M227.241 100.087C225.194 100.178 223.14 100.19 221.058 100.145C221.692 94.96 222.436 88.3089 222.436 88.3089C222.436 88.3089 223.23 73.4634 223.627 67.1123V39.2472C223.627 37.188 223.646 35.4466 223.664 33.7996C223.697 30.7598 223.727 28.042 223.627 24.2429C223.506 19.6655 223.102 13.5607 222.798 9.40304C223.341 9.36058 223.885 9.32192 224.43 9.28686C225.142 13.4411 226.155 19.6094 226.723 24.2429C227.438 30.0853 227.789 33.3723 228.152 39.2472C228.586 46.2916 228.457 51.3423 228.313 56.9911V56.9912C228.235 60.0519 228.152 63.2882 228.152 67.1123C228.152 70.021 228.2 72.4818 228.245 74.809V74.8092V74.8093V74.8095V74.8097C228.328 79.1052 228.403 82.946 228.152 88.3089C227.984 91.8977 227.578 96.565 227.241 100.087ZM257.922 91.3421C256.218 92.1642 254.428 92.986 252.54 93.8359C252.551 91.2818 252.533 88.4654 252.444 86.1654C252.176 79.1976 251.619 74.7072 250.879 68.7465C250.697 67.2786 250.504 65.7214 250.301 64.0162C250.186 63.0508 250.079 62.1362 249.975 61.2602C249.222 54.8595 248.712 50.524 247.443 43.5341L247.324 42.8784C246.02 35.6881 245.248 31.4373 243.156 24.2429C241.76 19.4437 239.376 13.1546 237.749 9.02734C238.724 9.04257 239.715 9.06452 240.719 9.09436C242.825 13.1866 245.836 19.3773 247.443 24.2429C249.083 29.209 249.719 32.7385 250.485 36.9898C250.78 38.6263 251.094 40.3698 251.492 42.3433C253.191 50.7673 254.051 55.5141 255.302 64.0162C256.57 72.6335 257.922 86.1654 257.922 86.1654V91.3421ZM284.107 67.0259C283.31 68.4338 282.363 69.9658 281.238 71.7123C280.531 72.8115 279.818 73.8472 279.097 74.8263C278.975 73.0412 278.826 71.2829 278.642 69.7321C277.413 59.3329 276.002 53.5439 272.926 43.5341C270.739 36.4166 269.491 32.3792 266.258 25.6719C263.79 20.5532 259.467 13.9304 257.055 10.3605C258.224 10.5171 259.392 10.6904 260.555 10.8819C263 13.7988 266.598 18.2604 268.878 21.8613C272.928 28.2571 274.727 32.1841 277.452 39.2472C281.382 49.4364 282.36 55.7474 283.998 66.3249L284.107 67.0259ZM211.473 10.9413C210.369 15.7211 208.84 22.3285 207.67 27.339C206.843 30.8767 206.038 33.8358 205.276 36.6383C203.912 41.6498 202.685 46.1606 201.716 52.5844C200.339 61.7053 200.259 67.7268 200.154 75.6633L200.154 75.6636L200.154 75.664C200.128 77.6661 200.099 79.7902 200.048 82.1166C199.93 87.5367 199.986 95.2014 200.024 98.8477C199.164 98.7944 198.291 98.7436 197.405 98.6962C196.251 98.6345 195.058 98.549 193.835 98.4429C193.808 94.6582 193.773 87.3441 193.856 82.1166C193.883 80.4133 193.9 78.7643 193.917 77.154C194.011 67.9412 194.092 59.9983 196 50.4409C197.634 42.2528 199.736 36.8211 202.369 30.0156C203.066 28.2133 203.801 26.3146 204.574 24.2429C205.364 22.1238 206.156 19.3696 206.944 16.6294L206.944 16.6293C207.441 14.8992 207.936 13.1747 208.429 11.619C209.439 11.3724 210.453 11.147 211.473 10.9413ZM193.452 17.2105C194.163 16.8382 194.876 16.4818 195.593 16.1407C193.743 19.7351 191.701 23.8955 190.284 27.339C186.354 36.8875 184.411 42.4517 182.424 52.5844C181.062 59.5329 180.953 64.7269 180.836 70.3542C180.761 73.9164 180.683 77.6522 180.281 82.1166C179.868 86.7053 179.21 93.0979 178.857 96.4787C177.579 96.268 176.31 96.05 175.06 95.828C175.363 92.3243 175.871 86.4227 176.232 82.1166C176.578 77.9877 176.666 74.4785 176.749 71.1555C176.897 65.199 177.031 59.8409 178.614 52.5844C180.839 42.3819 182.761 36.6812 187.426 27.339C189.008 24.1714 191.275 20.5051 193.452 17.2105Z" fill="#F3C66D"/>
<path d="M147.89 106.408C149.7 102.516 151.85 100.881 155.988 99.7395C162.895 97.8342 162.619 99.009 169.038 99.7395C179.609 100.943 184.89 104.683 195.06 107.809C202.54 110.107 208.082 110.652 215.767 112.124C229.307 114.718 233.496 114.773 247.205 113.315C258.865 112.074 266.249 109.847 277.928 108.79C287.892 107.888 298.03 105.235 307.698 107.809C313.256 109.288 313.702 109.966 318.112 113.659C322.618 117.432 323.203 122.188 324.082 129.345L324.131 129.748C325.091 137.545 322.597 143.78 318.112 150.23C313.432 156.959 309.899 156.319 302.458 159.757C291.583 164.781 279.848 163.832 267.925 164.996C250.832 166.665 246.251 165.953 229.104 164.996C211.61 164.02 204.187 164.001 187.187 159.757C173.768 156.406 176.946 157.613 161.228 151.183C156.692 149.327 148.69 144.089 146.938 139.513C144.599 133.407 145.032 129.476 145.032 122.938C145.032 117.029 145.4 111.766 147.89 106.408Z" fill="#F3C66D"/>
<path fill-rule="evenodd" clip-rule="evenodd" d="M170.307 154.876C169.117 154.405 167.727 153.842 166.032 153.15L163.609 142.134V128.558L166.229 111.649L172.421 100.455L173.532 100.455C174.439 100.643 175.31 100.85 176.154 101.075L170.277 112.601L167.181 128.558V142.372L170.307 154.876ZM195.703 161.7C194.188 161.393 192.605 161.048 190.93 160.66L188.14 144.992V124.271L191.068 106.477C192.313 106.924 193.625 107.368 195.03 107.8L192.188 123.319L192.665 144.992L195.703 161.7ZM221.363 164.579C219.763 164.492 218.244 164.406 216.781 164.316L214.814 148.802V129.749L216.876 112.336C218.517 112.645 220.019 112.914 221.418 113.145L219.577 128.558V147.611L221.363 164.579ZM252.352 165.988C251.151 166.004 249.983 166.003 248.817 165.986L251.015 148.802V136.18L248.459 113.177C249.425 113.066 250.362 112.948 251.276 112.824L255.302 130.94V146.182L252.352 165.988ZM283.745 163.98C281.948 164.118 280.14 164.22 278.322 164.316L281.5 148.802L283.405 130.94L277.702 108.811C277.777 108.804 277.852 108.798 277.928 108.791C279.379 108.659 280.835 108.491 282.292 108.307C283.962 112.428 287.724 122.415 288.168 129.749C288.457 134.511 287.972 137.727 287.377 141.672C287.168 143.054 286.946 144.525 286.739 146.182C286.005 152.069 284.437 160.409 283.745 163.98ZM308.789 157.254C308.481 157.367 308.166 157.482 307.843 157.599C306.518 158.08 305.056 158.611 303.393 159.338C303.774 156.655 304.268 152.754 304.363 149.993C304.522 145.389 304.363 133.798 304.363 133.798C304.363 133.798 303.252 126.653 302.934 124.271C302.617 121.89 297.457 107.838 297.457 107.838L300.52 106.757C300.929 106.775 301.337 106.799 301.745 106.829C302.732 108.58 306.506 115.436 307.936 120.461C309.144 124.708 309.383 127.337 309.763 131.515L309.81 132.029L309.841 132.369C310.428 138.76 310.329 142.403 309.841 148.802C309.646 151.362 309.2 154.589 308.789 157.254Z" fill="#E2AE4A"/>
<path fill-rule="evenodd" clip-rule="evenodd" d="M155.987 99.7407C151.849 100.882 149.699 102.517 147.89 106.409C145.399 111.767 145.032 117.031 145.032 122.939C145.032 123.862 145.023 124.733 145.015 125.565C144.965 130.63 144.929 134.27 146.937 139.514C148.689 144.09 156.691 149.329 161.227 151.184C169.736 154.665 172.707 155.908 175.772 156.847C178.368 157.643 181.032 158.221 187.187 159.758C202.459 163.571 210.003 163.974 224.064 164.724C225.653 164.809 227.326 164.898 229.103 164.997C231.497 165.131 233.646 165.26 235.618 165.378C246.226 166.014 251.722 166.344 262.724 165.463C269.147 162.096 275.514 157.638 278.88 152.136C279.458 151.191 280.038 150.289 280.6 149.413C283.829 144.383 286.49 140.239 285.072 134.036C284.158 130.033 282.338 127.967 279.812 125.097C279.511 124.755 279.201 124.402 278.88 124.033C273.107 117.384 259.589 112.363 259.589 112.363L257.315 111.901C254.193 112.426 250.915 112.921 247.204 113.316C233.495 114.774 229.306 114.719 215.766 112.125C213.592 111.709 211.589 111.366 209.666 111.038C204.79 110.204 200.423 109.458 195.059 107.81C191.446 106.699 188.45 105.512 185.615 104.387C180.469 102.347 175.853 100.516 169.037 99.7407C168.368 99.6646 167.772 99.5837 167.233 99.502L156.877 99.502C156.594 99.5755 156.298 99.655 155.987 99.7407Z" fill="#F7D674"/>
<path fill-rule="evenodd" clip-rule="evenodd" d="M173.531 100.455H172.42C172.42 100.455 167.965 106.965 166.228 111.649C164.283 116.891 164.076 120.532 163.795 125.486C163.74 126.453 163.682 127.47 163.608 128.558L163.568 129.138C163.231 134.075 163.027 137.062 163.608 142.134C164.032 145.837 165.398 151.04 165.971 153.125C167.66 153.814 169.047 154.377 170.236 154.848C169.533 152.639 167.707 146.644 167.18 142.372C166.52 137.018 166.706 133.932 167.18 128.558C167.738 122.235 168.136 118.578 170.276 112.601C171.757 108.466 175.009 102.888 176.102 101.061C175.274 100.842 174.42 100.639 173.531 100.455ZM191.023 106.461C190.412 109.403 188.658 118.178 188.139 124.271C187.452 132.334 187.37 136.937 188.139 144.992C188.631 150.148 190.13 157.367 190.846 160.641C192.526 161.031 194.113 161.377 195.631 161.686C194.894 158.327 193.258 150.529 192.664 144.992C191.761 136.574 191.415 131.749 192.187 123.319C192.663 118.123 194.27 110.79 194.962 107.78C193.566 107.349 192.262 106.906 191.023 106.461ZM216.852 112.332C216.474 114.838 215.178 123.702 214.813 129.749C214.365 137.176 214.318 141.378 214.813 148.802C215.156 153.951 216.255 161.278 216.732 164.313C218.2 164.404 219.723 164.49 221.329 164.577C220.933 161.588 219.883 153.331 219.576 147.611C219.177 140.181 219.097 135.984 219.576 128.558C219.924 123.178 221.08 115.266 221.399 113.142C219.999 112.911 218.496 112.641 216.852 112.332ZM248.483 113.174C248.905 115.929 250.7 128.021 251.014 136.18C251.203 141.105 251.252 143.879 251.014 148.802C250.75 154.267 249.638 161.745 248.951 165.988C250.112 166.004 251.277 166.004 252.476 165.986C253.311 161.621 254.917 152.635 255.301 146.182L255.313 145.977C255.659 140.162 255.86 136.797 255.301 130.94C254.708 124.726 252.27 115.944 251.359 112.813C250.426 112.94 249.47 113.06 248.483 113.174ZM283.305 129.557C283.349 130.027 283.383 130.489 283.404 130.94C283.657 136.262 283.037 139.803 282.261 144.236L282.26 144.237L282.26 144.238C282.068 145.338 281.866 146.492 281.665 147.743C284.377 143.423 286.331 139.54 285.073 134.036C284.661 132.234 284.066 130.824 283.305 129.557Z" fill="#F3C66D"/>
</svg>
