<svg width="507" height="507" viewBox="0 0 507 507" fill="none" xmlns="http://www.w3.org/2000/svg">
<mask id="mask0_5450_5815" style="mask-type:alpha" maskUnits="userSpaceOnUse" x="0" y="0" width="507" height="507">
<circle cx="253.5" cy="253.5" r="253.5" fill="#DAE5D7"/>
</mask>
<g mask="url(#mask0_5450_5815)">
<circle cx="253.5" cy="253.5" r="253.5" fill="#DAE5D7"/>
<path d="M66.0005 449.5C68.0999 421.939 85.5006 356.5 108.5 323.5L349.535 294H387.5C400.783 323.466 418.324 354.27 424 369.5C429.677 384.73 444.5 416 444.5 437.5C444.5 464 400.19 504.849 380.188 531.5C360.187 558.151 331.512 561.776 314.199 570.013C289.506 581.761 240.546 584 209.042 584C179.022 584 152.277 570.479 142.627 564.884C130.706 557.973 115.115 540.145 103.033 524.788C79.1921 494.482 63.4458 483.04 66.0005 449.5Z" fill="#D67C77"/>
<path d="M77.5189 175C56.2141 234.113 67.1112 296.632 90 310.5C178.366 378.773 356.803 348.167 393.95 288.428C423.668 240.637 386.449 144.291 367.5 121C386.5 86.5 369.082 68.2664 346.5 86.5C365.898 50.4891 328.105 41.3226 309 67C321.124 41.9918 308.897 33.8194 296.5 30.9998C287.12 28.8663 258.031 44.2322 247 56.5C235.408 69.3922 229.635 74.4887 213.5 80.0003C196.99 83.5562 187.297 83.9696 136.866 107.012C117.529 115.847 89.957 140.489 77.5189 175Z" fill="#D67C77"/>
<path d="M195 341.487C168.734 353.277 148.382 348.778 138.5 337C130.597 341.365 112.096 325.472 107.5 322.501C201.5 399 280.5 422.5 388 298C364.055 324 346.296 333.312 331.5 329C313.489 357.338 283.741 349.862 266.5 341.487C248.636 365.949 207.767 349.811 195 341.487Z" fill="#B96C67"/>
<path d="M392.191 386.758C377.473 307.839 407.024 320.23 423.64 336.291C430.859 343.269 441.612 354.401 454.141 371.469C459.212 378.377 473.274 393.371 481.918 419.427C490.562 445.482 480.96 449.3 475.398 447.004C492.611 478.885 485.159 485.015 479.281 484.095C486.997 502.861 483.635 512.044 480.283 514.275C476.931 516.505 463.416 512.071 436.173 476.491C408.929 440.911 396.373 409.178 392.191 386.758Z" fill="#DE9591"/>
<path d="M104.475 402.758C119.193 323.839 89.6421 336.23 73.0267 352.291C65.8076 359.269 55.0541 370.401 42.5254 387.469C37.4547 394.377 23.3919 409.371 14.7483 435.427C6.10468 461.482 15.7058 465.3 21.2682 463.004C4.05543 494.885 11.5073 501.015 17.3848 500.095C9.66905 518.861 13.0309 528.044 16.383 530.275C19.7351 532.505 33.2504 528.071 60.4935 492.491C87.7368 456.911 100.294 425.178 104.475 402.758Z" fill="#DE9591"/>
</g>
<path d="M210.377 235.228C207.601 236.386 194.188 245.213 194.188 250.423C194.188 255.632 205.173 263.218 208.064 264.315C215.002 266.946 228.601 271.782 242.292 268.656C255.983 265.53 260.793 263.88 265.419 258.671C270.044 253.461 273.113 248.713 266.806 242.201C260.499 235.689 242.754 227.848 231.589 228.743C221.079 229.586 218.702 231.755 210.377 235.228Z" fill="#FEA34A"/>
<path d="M263.936 249.673C251.03 256.524 215.945 258.029 202.772 251.452" stroke="#B0661E" stroke-width="5" stroke-linecap="round"/>
<ellipse cx="18.5557" cy="16.9247" rx="18.5557" ry="16.9247" transform="matrix(0.928977 -0.370138 0.375032 0.927012 117 210.736)" fill="#562528"/>
<ellipse cx="18.5094" cy="16.9677" rx="18.5094" ry="16.9677" transform="matrix(-0.91062 -0.413244 -0.422365 0.906426 347.707 212.298)" fill="#562528"/>
<circle cx="148.89" cy="214.951" r="4" fill="white"/>
<circle cx="329.89" cy="214.951" r="4" fill="white"/>
<path d="M159.264 342.458C164.1 343.267 171.712 344.083 171.712 344.083L174.363 349.299C174.363 349.299 165.322 348.844 159.731 347.389C151.452 345.235 139.633 338.001 139.633 338.001C139.633 338.001 151.52 341.162 159.264 342.458Z" fill="#E8AFC5"/>
<path d="M237.243 366.773L262.559 348.389L264.865 350.456L263.037 357.137L269.769 369.929L273.002 388.945C273.002 388.945 273.913 393.57 273.57 399.333C273.231 405.029 271.306 418.101 271.306 418.101C269.928 427.257 269.543 433.552 267.125 441.91C265.114 448.86 262.578 459.041 260 462.041C258.022 464.342 228.038 439.112 228.038 439.112C228.038 439.112 190.675 449.742 188.396 446.215C185.999 442.508 195.055 425.374 199.693 412.147C202.23 404.914 220.525 381.945 220.525 381.945L237.243 366.773Z" fill="#E8AFC5"/>
<path d="M314.986 366.689L286.676 353.367L284.797 355.83L287.843 362.05C287.843 362.05 286.725 368.963 285.82 374.535C284.613 381.97 285.329 393.755 285.329 393.755C285.329 393.755 288.505 407.099 289.921 412.696C291.699 419.728 295.413 427.75 295.413 427.75C298.48 436.486 301.935 440.807 305.874 448.564C309.15 455.016 313.518 461.964 316.612 464.428C318.985 466.319 337.565 436.028 337.565 436.028C337.565 436.028 376.257 439.478 377.836 435.587C379.496 431.497 367.394 416.361 360.363 404.235C356.517 397.604 334.247 378.464 334.247 378.464L314.986 366.689Z" fill="#E8AFC5"/>
<path d="M168.423 361.762C166.492 346.513 162.766 318.494 168.098 315.717C171.627 313.879 180.992 312.976 189.331 312.911C202.035 312.811 208.236 314.473 220.336 318.344C231.351 321.868 241.303 328.191 252.764 329.731C258.274 330.472 261.602 330.893 261.602 330.893L265.997 341.072L263.007 356.59L236.777 378.314L212.733 399.918C212.733 399.918 196.562 415.06 192.128 414.206C189.912 413.778 182.394 396.642 182.394 396.642C182.394 396.642 170.266 376.319 168.423 361.762Z" fill="#F5C6D8"/>
<path d="M383.089 348.126C383.01 332.756 383.041 304.49 377.392 302.434C373.653 301.073 363.178 301.187 354.901 302.212C342.293 303.774 337.435 306.447 325.945 311.867C315.485 316.801 306.446 324.371 295.284 327.396C289.918 328.85 286.674 329.703 286.674 329.703L283.647 340.369L288.64 355.363L317.485 373.471L344.146 391.747C344.146 391.747 362.158 404.645 366.442 403.219C368.584 402.505 373.797 384.533 373.797 384.533C373.797 384.533 383.165 362.8 383.089 348.126Z" fill="#F5C6D8"/>
<path d="M257.168 330.039C257.168 330.039 260.645 328.172 263.062 327.524C273.331 324.769 294.166 324.726 294.773 325.789C295.379 326.853 295.499 329.04 295.499 329.04C295.499 329.04 296.599 343.599 295.849 345.472C295.099 347.345 294.232 348.179 293.355 349.995C292.663 351.427 289.579 361.169 289.579 361.169L265.066 364.155C265.066 364.155 262.194 359.925 262.003 358.29C261.749 356.11 263.629 352.717 263.831 351.61C264.033 350.502 260.777 335.874 260.717 334.781C260.628 333.14 257.168 330.039 257.168 330.039Z" fill="#E8AFC5"/>
<path d="M230.857 340.251C242.909 338.323 262.14 340.734 262.14 340.734C262.14 340.734 253.805 342.929 248.681 345.308C241.949 348.434 238.953 352.559 231.575 353.373C228.812 353.677 227.153 354.478 224.467 353.761C221.945 353.089 219.866 352.611 218.791 350.233C217.592 347.583 218.726 345.24 220.589 343.006C223.223 339.847 226.796 340.901 230.857 340.251Z" fill="#E8AFC5"/>
<path d="M323.816 335.447C311.626 334.845 292.772 339.338 292.772 339.338C292.772 339.338 301.297 340.612 306.65 342.418C313.683 344.791 317.111 348.565 324.534 348.569C327.314 348.57 329.05 349.185 331.641 348.18C334.075 347.236 336.09 346.535 336.899 344.054C337.802 341.289 336.419 339.083 334.324 337.066C331.361 334.213 327.924 335.65 323.816 335.447Z" fill="#E8AFC5"/>
</svg>
