<svg width="507" height="507" viewBox="0 0 507 507" fill="none" xmlns="http://www.w3.org/2000/svg">
<mask id="mask0_5450_5845" style="mask-type:alpha" maskUnits="userSpaceOnUse" x="0" y="0" width="507" height="507">
<circle cx="253.5" cy="253.5" r="253.5" fill="#DAE5D7"/>
</mask>
<g mask="url(#mask0_5450_5845)">
<circle cx="253.5" cy="253.5" r="253.5" fill="#DAE5D7"/>
<path d="M66.0005 449.5C68.0999 421.939 85.5006 356.5 108.5 323.5L349.535 294H387.5C400.783 323.466 418.324 354.27 424 369.5C429.677 384.73 444.5 416 444.5 437.5C444.5 464 400.19 504.849 380.188 531.5C360.187 558.151 331.512 561.776 314.199 570.013C289.506 581.761 240.546 584 209.042 584C179.022 584 152.277 570.479 142.627 564.884C130.706 557.973 115.115 540.145 103.033 524.788C79.1921 494.482 63.4458 483.04 66.0005 449.5Z" fill="#D67C77"/>
<path d="M77.5189 175C56.2141 234.113 67.1112 296.632 90 310.5C178.366 378.773 356.803 348.167 393.95 288.428C423.668 240.637 386.449 144.291 367.5 121C386.5 86.5 369.082 68.2664 346.5 86.5C365.898 50.4891 328.105 41.3226 309 67C321.124 41.9918 308.897 33.8194 296.5 30.9998C287.12 28.8663 258.031 44.2322 247 56.5C235.408 69.3922 229.635 74.4887 213.5 80.0003C196.99 83.5562 187.297 83.9696 136.866 107.012C117.529 115.847 89.957 140.489 77.5189 175Z" fill="#D67C77"/>
<path d="M195 341.487C168.734 353.277 148.382 348.778 138.5 337C130.597 341.365 112.096 325.472 107.5 322.501C201.5 399 280.5 422.5 388 298C364.055 324 346.296 333.312 331.5 329C313.489 357.338 283.741 349.862 266.5 341.487C248.636 365.949 207.767 349.811 195 341.487Z" fill="#B96C67"/>
<path d="M392.191 386.758C377.473 307.839 407.024 320.23 423.64 336.291C430.859 343.269 441.612 354.401 454.141 371.469C459.212 378.377 473.274 393.371 481.918 419.427C490.562 445.482 480.96 449.3 475.398 447.004C492.611 478.885 485.159 485.015 479.281 484.095C486.997 502.861 483.635 512.044 480.283 514.275C476.931 516.505 463.416 512.071 436.173 476.491C408.929 440.911 396.373 409.178 392.191 386.758Z" fill="#DE9591"/>
<path d="M104.475 402.758C119.193 323.839 89.6421 336.23 73.0267 352.291C65.8076 359.269 55.0541 370.401 42.5254 387.469C37.4547 394.377 23.3919 409.371 14.7483 435.427C6.10468 461.482 15.7058 465.3 21.2682 463.004C4.05543 494.885 11.5073 501.015 17.3848 500.095C9.66905 518.861 13.0309 528.044 16.383 530.275C19.7351 532.505 33.2504 528.071 60.4935 492.491C87.7368 456.911 100.294 425.178 104.475 402.758Z" fill="#DE9591"/>
</g>
<path d="M210.377 235.228C207.601 236.386 194.188 245.213 194.188 250.423C194.188 255.632 205.173 263.218 208.064 264.315C215.002 266.946 228.601 271.782 242.292 268.656C255.983 265.53 260.793 263.88 265.419 258.671C270.044 253.461 273.113 248.713 266.806 242.201C260.499 235.689 242.754 227.848 231.589 228.743C221.079 229.586 218.702 231.755 210.377 235.228Z" fill="#FEA34A"/>
<path d="M263.936 249.673C251.03 256.524 215.945 258.029 202.772 251.452" stroke="#B0661E" stroke-width="5" stroke-linecap="round"/>
<ellipse cx="18.5557" cy="16.9247" rx="18.5557" ry="16.9247" transform="matrix(0.928977 -0.370138 0.375032 0.927012 117 210.736)" fill="#562528"/>
<ellipse cx="18.5094" cy="16.9677" rx="18.5094" ry="16.9677" transform="matrix(-0.91062 -0.413244 -0.422365 0.906426 347.707 212.298)" fill="#562528"/>
<circle cx="148.89" cy="214.951" r="4" fill="white"/>
<circle cx="329.89" cy="214.951" r="4" fill="white"/>
<path d="M179.24 63.9098C190.026 49.5779 217.082 40.3018 217.082 40.3018C217.082 40.3018 233.034 36.0021 243.475 35.4538C258.112 34.6851 260.552 35.0322 272.584 36.0861C292.572 38.194 310.62 49.5764 323.04 63.9098C329.067 70.8657 330.026 84.5667 330.026 90.0471C330.026 96.3707 315.273 108.861 301.111 115.974C280.405 126.373 266.225 124.474 243.475 126.302C224.731 127.808 221.546 129.253 200.975 126.302C192.133 125.034 182.36 119.949 176.329 112.812C169.912 105.218 166.759 97.2138 167.014 90.8902C167.488 79.1579 172.397 73.0021 179.24 63.9098Z" fill="#F4B396"/>
<path fill-rule="evenodd" clip-rule="evenodd" d="M196.598 124.612C196.598 124.612 195.673 114.253 195.213 107.626C193.903 88.7554 200.755 76.3739 200.755 76.3739C200.755 76.3739 205.899 64.3582 210.58 58.252C215.521 51.8067 223.049 44.1777 223.049 44.1777C223.049 44.1777 209.875 50.8839 202.502 59.6097C196.908 66.2302 195.235 68.3386 192.184 76.6913C188.404 87.0419 187.384 96.6135 190.008 107.378C191.729 114.44 196.598 124.612 196.598 124.612Z" fill="#F29D77"/>
<path fill-rule="evenodd" clip-rule="evenodd" d="M288.37 46.2621C293.331 50.2011 297.985 54.8466 300.592 59.8306C306.969 72.0195 307.58 79.2112 303.872 87.9911C300.861 95.1195 296.498 97.7907 290.914 101.21C289.927 101.814 288.901 102.442 287.838 103.122C280.35 107.913 274.522 108.915 267.288 110.16C265.016 110.55 262.606 110.965 259.962 111.528C247.508 114.181 239.743 114.548 228.156 115.097C226.734 115.164 225.256 115.234 223.704 115.311C220.098 115.49 216.91 115.804 213.912 116.098C206.095 116.866 199.579 117.507 190.361 115.311C184.843 113.997 178.129 110.91 172.827 108.173C168.92 101.995 167.028 95.8133 167.222 90.7233C167.652 79.3926 171.991 73.2788 178.102 64.6674C178.3 64.3889 178.499 64.1077 178.7 63.8237C188.827 49.5348 214.229 40.2866 214.229 40.2866C214.229 40.2866 229.206 35.9997 239.009 35.453C252.752 34.6867 260.817 35.707 273.991 40.2866C274.507 40.466 275.012 40.6404 275.508 40.8115C280.183 42.426 284.017 43.7498 288.37 46.2621Z" fill="#F8C5AF"/>
<path fill-rule="evenodd" clip-rule="evenodd" d="M192.813 115.842C191.718 113.045 190.646 109.997 190.008 107.378C187.384 96.6135 188.404 87.0419 192.184 76.6913C195.235 68.3386 196.908 66.2302 202.502 59.6097C209.875 50.8839 223.049 44.1777 223.049 44.1777C223.049 44.1777 215.521 51.8067 210.58 58.252C205.899 64.3582 200.755 76.3739 200.755 76.3739C200.755 76.3739 193.903 88.7554 195.213 107.626C195.394 110.241 195.648 113.438 195.889 116.35C194.893 116.215 193.87 116.048 192.813 115.842Z" fill="#F4B396"/>
<path fill-rule="evenodd" clip-rule="evenodd" d="M288.109 46.2039C287.488 45.3608 280.476 40.7937 277.047 38.6156L272.681 36.0622C265.597 35.3618 258.454 35.0316 250.415 35.1975L269.479 46.2039H288.109Z" fill="#F8C5AF"/>
<path d="M242.504 37.3376H240.564C240.564 37.3376 241.378 35.9648 241.34 35.2297C241.306 34.5671 240.973 34.247 240.564 33.7542C239.928 32.9883 238.817 32.9111 237.847 32.9111C237 32.9111 235.578 33.6025 234.742 33.7542C232.331 34.1917 230.97 34.4107 228.532 34.5974C225.357 34.8404 223.53 35.1011 220.381 34.5974C218.454 34.289 217.471 33.5158 215.53 33.3326C214.404 33.2265 213.762 33.2647 212.64 33.3314L212.619 33.3326C211.324 33.4097 210.481 34.3834 209.32 33.7542C208.649 33.3903 207.961 32.2787 207.961 32.2787L209.32 30.8032C209.32 30.8032 210.479 28.8545 211.649 28.2738C212.15 28.0247 212.481 28.0317 213.007 27.8522C216.241 26.7497 217.461 24.4351 220.769 23.6365C223.729 22.9222 225.517 23.2936 228.532 23.6365C231.222 23.9425 233.044 23.5307 235.324 25.112C236.679 26.0518 237.098 27.039 238.235 28.2738C239.902 30.0848 241.779 30.474 242.504 32.9111C242.994 34.556 242.504 37.3376 242.504 37.3376Z" fill="#9DBE98"/>
<path fill-rule="evenodd" clip-rule="evenodd" d="M208.302 32.7689L213.977 30.1842L221.351 28.2871H229.502L235.906 29.341L239.981 31.4489L242.116 34.1891L241.536 37.3376H240.563C240.563 37.3376 241.377 35.9648 241.34 35.2297C241.309 34.6374 241.04 34.3189 240.691 33.906C240.649 33.8569 240.607 33.8065 240.563 33.7542C239.927 32.9883 238.817 32.9111 237.847 32.9111C237.343 32.9111 236.638 33.1548 235.972 33.3847C235.517 33.5419 235.081 33.6926 234.742 33.7542C232.331 34.1917 230.97 34.4107 228.532 34.5974C228.126 34.6284 227.742 34.6598 227.375 34.6898C224.868 34.8945 223.128 35.0367 220.381 34.5974C219.49 34.4548 218.801 34.2129 218.125 33.9759C217.34 33.7002 216.573 33.4311 215.529 33.3326C214.404 33.2265 213.762 33.2647 212.64 33.3314L212.619 33.3326C212.123 33.3621 211.694 33.5226 211.288 33.6746C210.632 33.92 210.036 34.1428 209.32 33.7542C208.945 33.551 208.565 33.1146 208.302 32.7689Z" fill="#90AE8B"/>
<path d="M245.609 32.9239C245.079 34.5867 244.833 37.3504 244.833 37.3504H246.774C246.774 37.3504 247.373 35.9811 247.938 35.2426C248.839 34.0647 249.623 33.6801 250.849 32.9239C252.995 31.5997 254.504 31.6013 256.865 30.8161C260.329 29.6638 262.394 29.4425 265.792 28.0759C268.115 27.1411 269.169 25.7749 271.613 25.3357C273.258 25.0401 274.357 26.065 275.883 25.3357C277.256 24.6793 278.6 22.3847 278.6 22.3847V20.9092C278.6 20.9092 277.055 22.185 275.883 22.3847C275.284 22.4867 274.936 22.4143 274.33 22.3847C270.835 22.2135 269.259 19.9445 265.792 19.4337C263.088 19.0354 261.449 18.6994 258.805 19.4337C255.16 20.4464 253.547 22.4866 250.849 25.3357C248.404 27.918 246.726 29.4239 245.609 32.9239Z" fill="#9DBE98"/>
<path fill-rule="evenodd" clip-rule="evenodd" d="M278.277 22.8904L275.301 23.8604L271.225 23.2281L267.538 22.5957L259.582 23.8604L253.178 27.233L247.744 31.6595L245.686 37.3503H246.26L246.862 37.1552C247.049 36.7505 247.504 35.8101 247.938 35.2425C248.725 34.2129 249.424 33.7894 250.406 33.1941C250.547 33.1084 250.695 33.019 250.849 32.9238C252.289 32.0355 253.442 31.7438 254.758 31.411C255.403 31.2477 256.088 31.0744 256.865 30.816C258.299 30.3388 259.494 30.0213 260.643 29.7159C262.268 29.284 263.801 28.8765 265.792 28.0758C266.732 27.6975 267.464 27.2485 268.165 26.8189C269.196 26.187 270.158 25.597 271.613 25.3356C272.333 25.2063 272.948 25.3296 273.539 25.4483C274.301 25.6009 275.024 25.746 275.883 25.3356C276.848 24.8745 277.798 23.605 278.277 22.8904Z" fill="#90AE8B"/>
<path d="M241.7 29.7301C242.354 32.6962 241.7 37.5397 241.7 37.5397C241.7 37.5397 242.798 38.311 243.592 38.3617C244.525 38.4213 245.863 37.5397 245.863 37.5397C245.863 37.5397 245.765 32.7122 245.106 29.7301C244.67 27.7557 244.278 26.6867 243.592 24.7977C242.938 22.9932 241.7 20.2764 241.7 20.2764C241.7 20.2764 240.359 20.4741 239.808 21.0984C238.888 22.1419 239.808 24.7977 239.808 24.7977C239.808 24.7977 241.253 27.7006 241.7 29.7301Z" fill="#D29A81"/>
</svg>
