<svg width="507" height="507" viewBox="0 0 507 507" fill="none" xmlns="http://www.w3.org/2000/svg">
<mask id="mask0_5453_6182" style="mask-type:alpha" maskUnits="userSpaceOnUse" x="0" y="0" width="507" height="507">
<circle cx="253.5" cy="253.5" r="253.5" fill="#DAE5D7"/>
</mask>
<g mask="url(#mask0_5453_6182)">
<circle cx="253.5" cy="253.5" r="253.5" fill="#DAE5D7"/>
<path d="M66.0005 449.5C68.0999 421.939 85.5006 356.5 108.5 323.5L349.535 294H387.5C400.783 323.466 418.324 354.27 424 369.5C429.677 384.73 444.5 416 444.5 437.5C444.5 464 400.19 504.849 380.188 531.5C360.187 558.151 331.512 561.776 314.199 570.013C289.506 581.761 240.546 584 209.042 584C179.022 584 152.277 570.479 142.627 564.884C130.706 557.973 115.115 540.145 103.033 524.788C79.1921 494.482 63.4458 483.04 66.0005 449.5Z" fill="#4F6DB5"/>
<path d="M77.5189 175C56.2141 234.113 67.1112 296.632 90 310.5C178.366 378.773 356.803 348.167 393.95 288.428C423.668 240.637 386.449 144.291 367.5 121C386.5 86.5 369.082 68.2664 346.5 86.5C365.898 50.4891 328.105 41.3226 309 67C321.124 41.9918 308.897 33.8194 296.5 30.9998C287.12 28.8663 258.031 44.2322 247 56.5C235.408 69.3922 229.635 74.4887 213.5 80.0003C196.99 83.5562 187.297 83.9696 136.866 107.012C117.529 115.847 89.957 140.489 77.5189 175Z" fill="#4F6DB5"/>
<path d="M195 341.487C168.734 353.277 148.382 348.778 138.5 337C130.597 341.365 112.096 325.472 107.5 322.501C201.5 399 280.5 422.5 388 298C364.055 324 346.296 333.312 331.5 329C313.489 357.338 283.741 349.862 266.5 341.487C248.636 365.949 207.767 349.811 195 341.487Z" fill="#0F1F56"/>
<path d="M392.191 386.758C377.473 307.839 407.024 320.23 423.64 336.291C430.859 343.269 441.612 354.401 454.141 371.469C459.212 378.377 473.274 393.371 481.918 419.427C490.562 445.482 480.96 449.3 475.398 447.004C492.611 478.885 485.159 485.015 479.281 484.095C486.997 502.861 483.635 512.044 480.283 514.275C476.931 516.505 463.416 512.071 436.173 476.491C408.929 440.911 396.373 409.178 392.191 386.758Z" fill="#657DB7"/>
<path d="M104.475 402.758C119.194 323.839 89.6424 336.23 73.027 352.291C65.8078 359.269 55.0544 370.401 42.5257 387.469C37.455 394.377 23.3922 409.371 14.7486 435.427C6.10493 461.482 15.7061 465.3 21.2684 463.004C4.05568 494.885 11.5076 501.015 17.3851 500.095C9.6693 518.861 13.0311 528.044 16.3833 530.275C19.7354 532.505 33.2506 528.071 60.4938 492.491C87.737 456.911 100.294 425.178 104.475 402.758Z" fill="#657DB7"/>
</g>
<path d="M210.377 235.228C207.601 236.386 194.188 245.213 194.188 250.423C194.188 255.632 205.173 263.218 208.064 264.315C215.002 266.946 228.601 271.782 242.292 268.656C255.983 265.53 260.793 263.88 265.419 258.671C270.044 253.461 273.113 248.713 266.806 242.201C260.499 235.689 242.754 227.848 231.589 228.743C221.079 229.586 218.702 231.755 210.377 235.228Z" fill="#AEC4D1"/>
<path d="M263.936 249.673C251.03 256.524 215.945 258.029 202.772 251.452" stroke="#364C66" stroke-width="5" stroke-linecap="round"/>
<ellipse cx="18.5557" cy="16.9247" rx="18.5557" ry="16.9247" transform="matrix(0.928977 -0.370138 0.375032 0.927012 117 210.736)" fill="#562528"/>
<ellipse cx="18.5094" cy="16.9677" rx="18.5094" ry="16.9677" transform="matrix(-0.91062 -0.413244 -0.422365 0.906426 347.707 212.298)" fill="#562528"/>
<circle cx="148.89" cy="214.951" r="4" fill="white"/>
<circle cx="329.89" cy="214.951" r="4" fill="white"/>
<path d="M197.436 219.023C197.436 249.831 171.77 274.9 139.991 274.9C108.212 274.9 82.5463 249.831 82.5463 219.023C82.5463 188.215 108.212 163.145 139.991 163.145C171.77 163.145 197.436 188.215 197.436 219.023Z" fill="#D9D9D9" fill-opacity="0.4" stroke="#6C6C6C" stroke-width="4.2"/>
<path d="M383.382 217.978C383.382 248.786 357.717 273.855 325.938 273.855C294.159 273.855 268.493 248.786 268.493 217.978C268.493 187.17 294.159 162.1 325.938 162.1C357.717 162.1 383.382 187.17 383.382 217.978Z" fill="#D9D9D9" fill-opacity="0.4" stroke="#6C6C6C" stroke-width="4.2"/>
<path d="M195.879 212.232C195.879 212.232 206.326 202.308 230.875 202.308C255.424 202.308 269.004 214.321 269.004 214.321" stroke="#6C6C6C" stroke-width="4.2"/>
<path d="M388.094 210.664C385.616 209.16 383.393 204.919 383.393 204.919L384.96 223.723C384.96 223.723 386.1 219.966 388.094 219.022C389.753 218.236 396.451 218.499 396.451 218.499V212.231C396.451 212.231 389.748 211.669 388.094 210.664Z" fill="#6C6C6C"/>
<path d="M78.3571 208.577C80.8351 207.072 83.058 202.831 83.058 202.831L81.4911 221.635C81.4911 221.635 80.3511 217.878 78.3571 216.934C76.698 216.148 70 216.411 70 216.411V210.144C70 210.144 76.7031 209.581 78.3571 208.577Z" fill="#6C6C6C"/>
</svg>
