<svg width="507" height="507" viewBox="0 0 507 507" fill="none" xmlns="http://www.w3.org/2000/svg">
<mask id="mask0_5402_3285" style="mask-type:alpha" maskUnits="userSpaceOnUse" x="0" y="0" width="507" height="507">
<circle cx="253.5" cy="253.5" r="253.5" fill="#DAE5D7"/>
</mask>
<g mask="url(#mask0_5402_3285)">
<circle cx="253.5" cy="253.5" r="253.5" fill="#DAE5D7"/>
<path d="M66.0005 449.5C68.0999 421.939 85.5006 356.5 108.5 323.5L349.535 294H387.5C400.783 323.466 418.324 354.27 424 369.5C429.677 384.73 444.5 416 444.5 437.5C444.5 464 400.19 504.849 380.188 531.5C360.187 558.151 331.512 561.776 314.199 570.013C289.506 581.761 240.546 584 209.042 584C179.022 584 152.277 570.479 142.627 564.884C130.706 557.973 115.115 540.145 103.033 524.788C79.1921 494.482 63.4458 483.04 66.0005 449.5Z" fill="#FAE6AE"/>
<path d="M77.5189 175C56.2141 234.113 67.1112 296.632 90 310.5C178.366 378.773 356.803 348.167 393.95 288.428C423.668 240.637 386.449 144.291 367.5 121C386.5 86.5 369.082 68.2664 346.5 86.5C365.898 50.4891 328.105 41.3226 309 67C321.124 41.9918 308.897 33.8194 296.5 30.9998C287.12 28.8663 258.031 44.2322 247 56.5C235.408 69.3922 229.635 74.4887 213.5 80.0003C196.99 83.5562 187.297 83.9696 136.866 107.012C117.529 115.847 89.957 140.489 77.5189 175Z" fill="#FAE6AE"/>
<path d="M195 341.487C168.734 353.277 148.382 348.778 138.5 337C130.598 341.365 112.096 325.472 107.5 322.501C201.5 399 280.5 422.5 388 298C364.055 324 346.296 333.312 331.5 329C313.489 357.338 283.741 349.862 266.5 341.487C248.636 365.949 207.767 349.811 195 341.487Z" fill="#EFD89B"/>
<path d="M392.191 386.758C377.473 307.839 407.024 320.23 423.64 336.291C430.859 343.269 441.612 354.401 454.141 371.469C459.212 378.377 473.274 393.371 481.918 419.427C490.562 445.482 480.96 449.3 475.398 447.004C492.611 478.885 485.159 485.015 479.281 484.095C486.997 502.861 483.635 512.044 480.283 514.275C476.931 516.505 463.416 512.071 436.173 476.491C408.929 440.911 396.373 409.178 392.191 386.758Z" fill="#FFEFC1"/>
<path d="M104.475 402.758C119.193 323.839 89.6421 336.23 73.0267 352.291C65.8076 359.269 55.0541 370.401 42.5254 387.469C37.4547 394.377 23.3919 409.371 14.7483 435.427C6.10468 461.482 15.7058 465.3 21.2682 463.004C4.05543 494.885 11.5073 501.015 17.3848 500.095C9.66905 518.861 13.0309 528.044 16.383 530.275C19.7351 532.505 33.2504 528.071 60.4935 492.491C87.7368 456.911 100.294 425.178 104.475 402.758Z" fill="#FFEFC1"/>
</g>
<path d="M210.377 235.228C207.601 236.386 194.188 245.213 194.188 250.423C194.188 255.632 205.173 263.218 208.064 264.315C215.002 266.946 228.601 271.782 242.292 268.656C255.983 265.53 260.793 263.88 265.419 258.671C270.044 253.461 273.113 248.713 266.806 242.201C260.499 235.689 242.754 227.848 231.589 228.743C221.079 229.586 218.702 231.755 210.377 235.228Z" fill="#FEA34A"/>
<path d="M263.936 249.673C251.03 256.524 215.945 258.029 202.772 251.452" stroke="#B0661E" stroke-width="5" stroke-linecap="round"/>
<ellipse cx="18.5557" cy="16.9247" rx="18.5557" ry="16.9247" transform="matrix(0.928977 -0.370138 0.375032 0.927012 117 210.736)" fill="#562528"/>
<ellipse cx="18.5094" cy="16.9677" rx="18.5094" ry="16.9677" transform="matrix(-0.91062 -0.413244 -0.422365 0.906426 347.707 212.298)" fill="#562528"/>
<circle cx="148.89" cy="214.951" r="4" fill="white"/>
<circle cx="329.89" cy="214.951" r="4" fill="white"/>
<path d="M172.24 70.9098C183.026 56.5779 210.082 47.3018 210.082 47.3018C210.082 47.3018 226.034 43.0021 236.475 42.4538C251.112 41.6851 253.552 42.0322 265.584 43.0861C285.572 45.194 303.62 56.5764 316.04 70.9098C322.067 77.8657 323.026 91.5667 323.026 97.0471C323.026 103.371 308.273 115.861 294.111 122.974C273.405 133.373 259.225 131.474 236.475 133.302C217.731 134.808 214.546 136.253 193.975 133.302C185.133 132.034 175.36 126.949 169.329 119.812C162.912 112.218 159.759 104.214 160.014 97.8902C160.488 86.1579 165.397 80.0021 172.24 70.9098Z" fill="#F4B396"/>
<path fill-rule="evenodd" clip-rule="evenodd" d="M189.598 131.612C189.598 131.612 188.672 121.253 188.213 114.626C186.903 95.7554 193.755 83.3739 193.755 83.3739C193.755 83.3739 198.899 71.3582 203.58 65.252C208.52 58.8067 216.049 51.1777 216.049 51.1777C216.049 51.1777 202.875 57.8839 195.502 66.6097C189.908 73.2302 188.235 75.3386 185.184 83.6913C181.404 94.0419 180.384 103.614 183.008 114.378C184.729 121.44 189.598 131.612 189.598 131.612Z" fill="#F29D77"/>
<path fill-rule="evenodd" clip-rule="evenodd" d="M281.37 53.2621C286.331 57.2011 290.985 61.8466 293.592 66.8306C299.969 79.0195 300.58 86.2112 296.872 94.9911C293.861 102.12 289.498 104.791 283.914 108.21C282.927 108.814 281.901 109.442 280.838 110.122C273.349 114.913 267.522 115.915 260.287 117.16C258.016 117.55 255.606 117.965 252.962 118.528C240.508 121.181 232.742 121.548 221.155 122.097C219.734 122.164 218.256 122.234 216.704 122.311C213.098 122.49 209.91 122.804 206.912 123.098C199.095 123.866 192.579 124.507 183.361 122.311C177.843 120.997 171.129 117.91 165.827 115.173C161.92 108.995 160.028 102.813 160.222 97.7233C160.652 86.3926 164.991 80.2788 171.102 71.6674C171.299 71.3889 171.499 71.1077 171.7 70.8237C181.827 56.5348 207.229 47.2866 207.229 47.2866C207.229 47.2866 222.206 42.9997 232.009 42.453C245.752 41.6867 253.817 42.707 266.991 47.2866C267.507 47.466 268.012 47.6404 268.508 47.8115C273.183 49.426 277.017 50.7498 281.37 53.2621Z" fill="#F8C5AF"/>
<path fill-rule="evenodd" clip-rule="evenodd" d="M185.813 122.842C184.718 120.045 183.646 116.997 183.008 114.378C180.384 103.614 181.404 94.0419 185.184 83.6913C188.235 75.3386 189.908 73.2302 195.502 66.6097C202.875 57.8839 216.049 51.1777 216.049 51.1777C216.049 51.1777 208.52 58.8067 203.58 65.252C198.899 71.3582 193.755 83.3739 193.755 83.3739C193.755 83.3739 186.903 95.7554 188.213 114.626C188.394 117.241 188.648 120.438 188.889 123.35C187.893 123.215 186.87 123.048 185.813 122.842Z" fill="#F4B396"/>
<path fill-rule="evenodd" clip-rule="evenodd" d="M281.109 53.2039C280.488 52.3608 273.476 47.7937 270.047 45.6156L265.682 43.0622C258.597 42.3618 251.454 42.0316 243.415 42.1975L262.479 53.2039H281.109Z" fill="#F8C5AF"/>
<path d="M235.504 44.3376H233.564C233.564 44.3376 234.378 42.9648 234.34 42.2297C234.306 41.5671 233.973 41.247 233.564 40.7542C232.928 39.9883 231.817 39.9111 230.847 39.9111C230 39.9111 228.578 40.6025 227.742 40.7542C225.331 41.1917 223.97 41.4107 221.532 41.5974C218.357 41.8404 216.53 42.1011 213.381 41.5974C211.454 41.289 210.471 40.5158 208.53 40.3326C207.404 40.2265 206.762 40.2647 205.64 40.3314L205.619 40.3326C204.324 40.4097 203.481 41.3834 202.32 40.7542C201.649 40.3903 200.961 39.2787 200.961 39.2787L202.32 37.8032C202.32 37.8032 203.479 35.8545 204.649 35.2738C205.15 35.0247 205.481 35.0317 206.007 34.8522C209.241 33.7497 210.461 31.4351 213.769 30.6365C216.729 29.9222 218.517 30.2936 221.532 30.6365C224.222 30.9425 226.044 30.5307 228.324 32.112C229.679 33.0518 230.098 34.039 231.235 35.2738C232.902 37.0848 234.779 37.474 235.504 39.9111C235.994 41.556 235.504 44.3376 235.504 44.3376Z" fill="#9DBE98"/>
<path fill-rule="evenodd" clip-rule="evenodd" d="M201.303 39.7689L206.977 37.1842L214.351 35.2871H222.502L228.906 36.341L232.981 38.4489L235.116 41.1891L234.536 44.3376H233.563C233.563 44.3376 234.377 42.9648 234.34 42.2297C234.309 41.6374 234.04 41.3189 233.691 40.906C233.65 40.8569 233.607 40.8065 233.563 40.7542C232.927 39.9883 231.817 39.9111 230.847 39.9111C230.343 39.9111 229.638 40.1548 228.973 40.3847C228.517 40.5419 228.081 40.6926 227.742 40.7542C225.331 41.1917 223.97 41.4107 221.532 41.5974C221.126 41.6284 220.742 41.6598 220.375 41.6898C217.868 41.8945 216.128 42.0367 213.381 41.5974C212.49 41.4548 211.801 41.2129 211.125 40.9759C210.34 40.7002 209.573 40.4311 208.53 40.3326C207.404 40.2265 206.762 40.2647 205.64 40.3314L205.619 40.3326C205.123 40.3621 204.694 40.5226 204.288 40.6746C203.632 40.92 203.036 41.1428 202.32 40.7542C201.945 40.551 201.565 40.1146 201.303 39.7689Z" fill="#90AE8B"/>
<path d="M238.609 39.9239C238.079 41.5867 237.833 44.3504 237.833 44.3504H239.774C239.774 44.3504 240.373 42.9811 240.938 42.2426C241.839 41.0647 242.623 40.6801 243.849 39.9239C245.995 38.5997 247.504 38.6013 249.865 37.8161C253.329 36.6638 255.394 36.4425 258.792 35.0759C261.115 34.1411 262.169 32.7749 264.613 32.3357C266.258 32.0401 267.357 33.065 268.883 32.3357C270.256 31.6793 271.6 29.3847 271.6 29.3847V27.9092C271.6 27.9092 270.055 29.185 268.883 29.3847C268.284 29.4867 267.936 29.4143 267.33 29.3847C263.835 29.2135 262.259 26.9445 258.792 26.4337C256.088 26.0354 254.449 25.6994 251.805 26.4337C248.16 27.4464 246.547 29.4866 243.849 32.3357C241.404 34.918 239.726 36.4239 238.609 39.9239Z" fill="#9DBE98"/>
<path fill-rule="evenodd" clip-rule="evenodd" d="M271.277 29.8904L268.301 30.8604L264.225 30.2281L260.538 29.5957L252.582 30.8604L246.178 34.233L240.744 38.6595L238.686 44.3503H239.26L239.862 44.1552C240.049 43.7505 240.504 42.8101 240.938 42.2425C241.725 41.2129 242.424 40.7894 243.406 40.1941C243.547 40.1084 243.695 40.019 243.849 39.9238C245.289 39.0355 246.442 38.7438 247.758 38.411C248.403 38.2477 249.088 38.0744 249.865 37.816C251.299 37.3388 252.494 37.0213 253.643 36.7159C255.268 36.284 256.801 35.8765 258.792 35.0758C259.732 34.6975 260.464 34.2485 261.165 33.8189C262.196 33.187 263.158 32.597 264.613 32.3356C265.333 32.2063 265.948 32.3296 266.539 32.4483C267.301 32.6009 268.024 32.746 268.883 32.3356C269.848 31.8745 270.798 30.605 271.277 29.8904Z" fill="#90AE8B"/>
<path d="M234.7 36.7301C235.354 39.6962 234.7 44.5397 234.7 44.5397C234.7 44.5397 235.798 45.311 236.592 45.3617C237.525 45.4213 238.863 44.5397 238.863 44.5397C238.863 44.5397 238.765 39.7122 238.106 36.7301C237.67 34.7557 237.278 33.6867 236.592 31.7977C235.938 29.9932 234.7 27.2764 234.7 27.2764C234.7 27.2764 233.359 27.4741 232.808 28.0984C231.888 29.1419 232.808 31.7977 232.808 31.7977C232.808 31.7977 234.253 34.7006 234.7 36.7301Z" fill="#D29A81"/>
</svg>
