<svg width="507" height="507" viewBox="0 0 507 507" fill="none" xmlns="http://www.w3.org/2000/svg">
<mask id="mask0_5402_3121" style="mask-type:alpha" maskUnits="userSpaceOnUse" x="0" y="0" width="507" height="507">
<circle cx="253.5" cy="253.5" r="253.5" fill="#DAE5D7"/>
</mask>
<g mask="url(#mask0_5402_3121)">
<circle cx="253.5" cy="253.5" r="253.5" fill="#DAE5D7"/>
<path d="M66.0005 449.5C68.0999 421.939 85.5006 356.5 108.5 323.5L349.535 294H387.5C400.783 323.466 418.324 354.27 424 369.5C429.677 384.73 444.5 416 444.5 437.5C444.5 464 400.19 504.849 380.188 531.5C360.187 558.151 331.512 561.776 314.199 570.013C289.506 581.761 240.546 584 209.042 584C179.022 584 152.277 570.479 142.627 564.884C130.706 557.973 115.115 540.145 103.033 524.788C79.1921 494.482 63.4458 483.04 66.0005 449.5Z" fill="#FAE6AE"/>
<path d="M77.5189 175C56.2141 234.113 67.1112 296.632 90 310.5C178.366 378.773 356.803 348.167 393.95 288.428C423.668 240.637 386.449 144.291 367.5 121C386.5 86.5 369.082 68.2664 346.5 86.5C365.898 50.4891 328.105 41.3226 309 67C321.124 41.9918 308.897 33.8194 296.5 30.9998C287.12 28.8663 258.031 44.2322 247 56.5C235.408 69.3922 229.635 74.4887 213.5 80.0003C196.99 83.5562 187.297 83.9696 136.866 107.012C117.529 115.847 89.957 140.489 77.5189 175Z" fill="#FAE6AE"/>
<path d="M195 341.487C168.734 353.277 148.382 348.778 138.5 337C130.598 341.365 112.096 325.472 107.5 322.501C201.5 399 280.5 422.5 388 298C364.055 324 346.296 333.312 331.5 329C313.489 357.338 283.741 349.862 266.5 341.487C248.636 365.949 207.767 349.811 195 341.487Z" fill="#EFD89B"/>
<path d="M392.191 386.758C377.473 307.839 407.024 320.23 423.64 336.291C430.859 343.269 441.612 354.401 454.141 371.469C459.212 378.377 473.274 393.371 481.918 419.427C490.562 445.482 480.96 449.3 475.398 447.004C492.611 478.885 485.159 485.015 479.281 484.095C486.997 502.861 483.635 512.044 480.283 514.275C476.931 516.505 463.416 512.071 436.173 476.491C408.929 440.911 396.373 409.178 392.191 386.758Z" fill="#FFEFC1"/>
<path d="M104.475 402.758C119.193 323.839 89.6421 336.23 73.0267 352.291C65.8076 359.269 55.0541 370.401 42.5254 387.469C37.4547 394.377 23.3919 409.371 14.7483 435.427C6.10468 461.482 15.7058 465.3 21.2682 463.004C4.05543 494.885 11.5073 501.015 17.3848 500.095C9.66905 518.861 13.0309 528.044 16.383 530.275C19.7351 532.505 33.2504 528.071 60.4935 492.491C87.7368 456.911 100.294 425.178 104.475 402.758Z" fill="#FFEFC1"/>
</g>
<path d="M210.377 235.228C207.601 236.386 194.188 245.213 194.188 250.423C194.188 255.632 205.173 263.218 208.064 264.315C215.002 266.946 228.601 271.782 242.292 268.656C255.983 265.53 260.793 263.88 265.419 258.671C270.044 253.461 273.113 248.713 266.806 242.201C260.499 235.689 242.754 227.848 231.589 228.743C221.079 229.586 218.702 231.755 210.377 235.228Z" fill="#FEA34A"/>
<path d="M263.936 249.673C251.03 256.524 215.945 258.029 202.772 251.452" stroke="#B0661E" stroke-width="5" stroke-linecap="round"/>
<ellipse cx="18.5557" cy="16.9247" rx="18.5557" ry="16.9247" transform="matrix(0.928977 -0.370138 0.375032 0.927012 117 210.736)" fill="#562528"/>
<ellipse cx="18.5094" cy="16.9677" rx="18.5094" ry="16.9677" transform="matrix(-0.91062 -0.413244 -0.422365 0.906426 347.707 212.298)" fill="#562528"/>
<circle cx="148.89" cy="214.951" r="4" fill="white"/>
<circle cx="329.89" cy="214.951" r="4" fill="white"/>
<path d="M213.631 348.458C218.467 349.267 226.079 350.083 226.079 350.083L228.73 355.299C228.73 355.299 219.689 354.844 214.097 353.389C205.819 351.235 194 344.001 194 344.001C194 344.001 205.886 347.162 213.631 348.458Z" fill="#E8AFC5"/>
<path d="M291.61 372.773L316.926 354.389L319.232 356.456L317.404 363.137L324.136 375.929L327.369 394.945C327.369 394.945 328.28 399.57 327.937 405.333C327.598 411.029 325.673 424.101 325.673 424.101C324.295 433.257 323.909 439.552 321.492 447.91C319.481 454.86 316.945 465.041 314.367 468.041C312.389 470.342 282.405 445.112 282.405 445.112C282.405 445.112 245.042 455.742 242.762 452.215C240.366 448.508 249.422 431.374 254.06 418.147C256.597 410.914 274.891 387.945 274.891 387.945L291.61 372.773Z" fill="#E8AFC5"/>
<path d="M369.352 372.689L341.043 359.367L339.164 361.83L342.21 368.05C342.21 368.05 341.092 374.963 340.187 380.535C338.98 387.97 339.696 399.755 339.696 399.755C339.696 399.755 342.872 413.099 344.288 418.696C346.066 425.728 349.78 433.75 349.78 433.75C352.847 442.486 356.301 446.807 360.241 454.564C363.517 461.016 367.885 467.964 370.979 470.428C373.352 472.319 391.932 442.028 391.932 442.028C391.932 442.028 430.623 445.478 432.203 441.587C433.863 437.497 421.761 422.361 414.729 410.235C410.884 403.604 388.614 384.464 388.614 384.464L369.352 372.689Z" fill="#E8AFC5"/>
<path d="M222.789 367.762C220.859 352.513 217.133 324.494 222.465 321.717C225.994 319.879 235.359 318.976 243.698 318.911C256.402 318.811 262.603 320.473 274.703 324.344C285.718 327.868 295.67 334.191 307.131 335.731C312.641 336.472 315.969 336.893 315.969 336.893L320.364 347.072L317.374 362.59L291.144 384.314L267.1 405.918C267.1 405.918 250.929 421.06 246.495 420.206C244.278 419.778 236.761 402.642 236.761 402.642C236.761 402.642 224.633 382.319 222.789 367.762Z" fill="#F5C6D8"/>
<path d="M437.456 354.126C437.376 338.756 437.407 310.49 431.758 308.434C428.019 307.073 417.544 307.187 409.268 308.212C396.66 309.774 391.802 312.447 380.312 317.867C369.852 322.801 360.812 330.371 349.651 333.396C344.285 334.85 341.041 335.703 341.041 335.703L338.014 346.369L343.007 361.363L371.852 379.471L398.513 397.747C398.513 397.747 416.525 410.645 420.809 409.219C422.951 408.505 428.164 390.533 428.164 390.533C428.164 390.533 437.531 368.8 437.456 354.126Z" fill="#F5C6D8"/>
<path d="M311.535 336.039C311.535 336.039 315.012 334.172 317.429 333.524C327.697 330.769 348.533 330.726 349.14 331.789C349.746 332.853 349.866 335.04 349.866 335.04C349.866 335.04 350.965 349.599 350.216 351.472C349.466 353.345 348.598 354.179 347.721 355.995C347.03 357.427 343.946 367.169 343.946 367.169L319.432 370.155C319.432 370.155 316.56 365.925 316.37 364.29C316.116 362.11 317.996 358.717 318.198 357.61C318.4 356.502 315.144 341.874 315.084 340.781C314.994 339.14 311.535 336.039 311.535 336.039Z" fill="#E8AFC5"/>
<path d="M285.224 346.251C297.276 344.323 316.507 346.734 316.507 346.734C316.507 346.734 308.172 348.929 303.048 351.308C296.316 354.434 293.32 358.559 285.942 359.373C283.179 359.677 281.52 360.478 278.834 359.761C276.312 359.089 274.233 358.611 273.158 356.233C271.959 353.583 273.093 351.24 274.956 349.006C277.59 345.847 281.163 346.901 285.224 346.251Z" fill="#E8AFC5"/>
<path d="M378.183 341.447C365.993 340.845 347.139 345.338 347.139 345.338C347.139 345.338 355.664 346.612 361.017 348.418C368.05 350.791 371.478 354.565 378.901 354.569C381.68 354.57 383.416 355.185 386.008 354.18C388.442 353.236 390.456 352.535 391.266 350.054C392.169 347.289 390.786 345.083 388.691 343.066C385.728 340.213 382.291 341.65 378.183 341.447Z" fill="#E8AFC5"/>
</svg>
