<svg width="507" height="507" viewBox="0 0 507 507" fill="none" xmlns="http://www.w3.org/2000/svg">
<mask id="mask0_5450_5830" style="mask-type:alpha" maskUnits="userSpaceOnUse" x="0" y="0" width="507" height="507">
<circle cx="253.5" cy="253.5" r="253.5" fill="#DAE5D7"/>
</mask>
<g mask="url(#mask0_5450_5830)">
<circle cx="253.5" cy="253.5" r="253.5" fill="#DAE5D7"/>
<path d="M66.0005 449.5C68.0999 421.939 85.5006 356.5 108.5 323.5L349.535 294H387.5C400.783 323.466 418.324 354.27 424 369.5C429.677 384.73 444.5 416 444.5 437.5C444.5 464 400.19 504.849 380.188 531.5C360.187 558.151 331.512 561.776 314.199 570.013C289.506 581.761 240.546 584 209.042 584C179.022 584 152.277 570.479 142.627 564.884C130.706 557.973 115.115 540.145 103.033 524.788C79.1921 494.482 63.4458 483.04 66.0005 449.5Z" fill="#D67C77"/>
<path d="M77.5189 175C56.2141 234.113 67.1112 296.632 90 310.5C178.366 378.773 356.803 348.167 393.95 288.428C423.668 240.637 386.449 144.291 367.5 121C386.5 86.5 369.082 68.2664 346.5 86.5C365.898 50.4891 328.105 41.3226 309 67C321.124 41.9918 308.897 33.8194 296.5 30.9998C287.12 28.8663 258.031 44.2322 247 56.5C235.408 69.3922 229.635 74.4887 213.5 80.0003C196.99 83.5562 187.297 83.9696 136.866 107.012C117.529 115.847 89.957 140.489 77.5189 175Z" fill="#D67C77"/>
<path d="M195 341.487C168.734 353.277 148.382 348.778 138.5 337C130.597 341.365 112.096 325.472 107.5 322.501C201.5 399 280.5 422.5 388 298C364.055 324 346.296 333.312 331.5 329C313.489 357.338 283.741 349.862 266.5 341.487C248.636 365.949 207.767 349.811 195 341.487Z" fill="#B96C67"/>
<path d="M392.191 386.758C377.473 307.839 407.024 320.23 423.64 336.291C430.859 343.269 441.612 354.401 454.141 371.469C459.212 378.377 473.274 393.371 481.918 419.427C490.562 445.482 480.96 449.3 475.398 447.004C492.611 478.885 485.159 485.015 479.281 484.095C486.997 502.861 483.635 512.044 480.283 514.275C476.931 516.505 463.416 512.071 436.173 476.491C408.929 440.911 396.373 409.178 392.191 386.758Z" fill="#DE9591"/>
<path d="M104.475 402.758C119.193 323.839 89.6421 336.23 73.0267 352.291C65.8076 359.269 55.0541 370.401 42.5254 387.469C37.4547 394.377 23.3919 409.371 14.7483 435.427C6.10468 461.482 15.7058 465.3 21.2682 463.004C4.05543 494.885 11.5073 501.015 17.3848 500.095C9.66905 518.861 13.0309 528.044 16.383 530.275C19.7351 532.505 33.2504 528.071 60.4935 492.491C87.7368 456.911 100.294 425.178 104.475 402.758Z" fill="#DE9591"/>
</g>
<path d="M210.377 235.228C207.601 236.386 194.188 245.213 194.188 250.423C194.188 255.632 205.173 263.218 208.064 264.315C215.002 266.946 228.601 271.782 242.292 268.656C255.983 265.53 260.793 263.88 265.419 258.671C270.044 253.461 273.113 248.713 266.806 242.201C260.499 235.689 242.754 227.848 231.589 228.743C221.079 229.586 218.702 231.755 210.377 235.228Z" fill="#FEA34A"/>
<path d="M263.936 249.673C251.03 256.524 215.945 258.029 202.772 251.452" stroke="#B0661E" stroke-width="5" stroke-linecap="round"/>
<ellipse cx="18.5557" cy="16.9247" rx="18.5557" ry="16.9247" transform="matrix(0.928977 -0.370138 0.375032 0.927012 117 210.736)" fill="#562528"/>
<ellipse cx="18.5094" cy="16.9677" rx="18.5094" ry="16.9677" transform="matrix(-0.91062 -0.413244 -0.422365 0.906426 347.707 212.298)" fill="#562528"/>
<circle cx="148.89" cy="214.951" r="4" fill="white"/>
<circle cx="329.89" cy="214.951" r="4" fill="white"/>
<path d="M168.894 46.9182C165.798 61.4462 168.894 118.367 168.894 118.367H316.079C316.079 118.367 317.27 69.7819 313.936 52.1578C310.602 34.5337 310.125 30.2468 297.979 16.1951C285.833 2.14347 258.92 -3.36092e-05 240.105 0C221.29 3.361e-05 203.428 2.73871 187.709 16.1951C171.99 29.6515 170.351 40.0814 168.894 46.9182Z" fill="#F3C66D"/>
<path fill-rule="evenodd" clip-rule="evenodd" d="M199.856 106.221C199.856 106.221 199.739 80.4626 199.856 73.1158C199.883 71.4126 199.9 69.7635 199.916 68.1532C200.01 58.9404 200.091 50.9975 202 41.4401C203.634 33.252 205.736 27.8203 208.369 21.0148C209.066 19.2125 209.8 17.3138 210.573 15.2421C211.364 13.123 212.156 10.3688 212.943 7.62856L212.943 7.62851C213.441 5.89824 213.936 4.1735 214.429 2.61767C215.439 2.37114 216.453 2.14577 217.473 1.94006C216.369 6.71989 214.84 13.3276 213.67 18.3382C212.843 21.8759 212.038 24.8349 211.276 27.6373L211.276 27.6375L211.276 27.6375C209.912 32.649 208.685 37.1598 207.715 43.5836C206.339 52.7045 206.259 58.726 206.154 66.6625L206.154 66.6628L206.154 66.6632C206.127 68.6653 206.099 70.7894 206.048 73.1158C205.887 80.4617 206.048 106.221 206.048 106.221H199.856ZM228.798 0.401954C229.102 4.55959 229.505 10.6646 229.626 15.2421C229.727 19.0412 229.697 21.759 229.664 24.7988C229.646 26.4458 229.626 28.1872 229.626 30.2464V58.1115C229.23 64.4625 228.436 79.3081 228.436 79.3081C228.436 79.3081 225.26 105.903 224.625 110.507L230.817 111.46C230.817 111.46 233.841 85.928 234.152 79.3081C234.403 73.9452 234.328 70.1044 234.245 65.8089V65.8087V65.8085V65.8084V65.8082V65.8081C234.199 63.4809 234.152 61.0202 234.152 58.1115C234.152 54.2874 234.234 51.0511 234.313 47.9904V47.9903C234.457 42.3415 234.586 37.2908 234.152 30.2464C233.789 24.3715 233.438 21.0845 232.723 15.2421C232.155 10.6085 231.142 4.44001 230.43 0.285791C229.885 0.320848 229.341 0.3595 228.798 0.401954ZM243.749 0.0263672C245.376 4.15365 247.76 10.4428 249.156 15.2421C251.248 22.4366 252.019 26.6874 253.324 33.8777L253.443 34.5333C254.712 41.5231 255.222 45.8586 255.975 52.2593L255.975 52.2594L255.977 52.2716C256.079 53.1438 256.187 54.0545 256.301 55.0154C256.504 56.7207 256.697 58.2779 256.879 59.7459C257.619 65.7064 258.176 70.1969 258.444 77.1646C258.666 82.9269 259.159 110.507 259.159 110.507L264.636 108.364C264.636 105.899 264.458 99.3318 264.279 92.7643L264.279 92.7621C264.101 86.1953 263.922 79.629 263.922 77.1646C263.922 77.1646 262.57 63.6327 261.302 55.0154C260.051 46.5133 259.191 41.7665 257.492 33.3425C257.094 31.3691 256.78 29.6257 256.485 27.9893L256.485 27.9892L256.485 27.9889L256.485 27.9888C255.719 23.7376 255.083 20.2082 253.443 15.2421C251.836 10.3765 248.825 4.18561 246.719 0.093403C245.714 0.0635529 244.724 0.0415993 243.749 0.0263672ZM263.055 1.35967C265.467 4.92953 269.79 11.5524 272.258 16.6711C275.491 23.3784 276.739 27.4158 278.926 34.5333C282.002 44.5431 283.413 50.3321 284.642 60.7313C285.43 67.3919 287.977 100.266 287.977 100.266L294.407 99.5519C294.407 99.5519 291.266 65.501 290.12 58.1115L289.998 57.3239C288.359 46.7465 287.382 40.4356 283.451 30.2464C280.727 23.1833 278.928 19.2563 274.878 12.8605C272.597 9.25961 269 4.79802 266.555 1.88111C265.392 1.68959 264.224 1.51629 263.055 1.35967ZM285.916 7.47841C287.814 10.5591 290.383 14.8953 292.025 18.3382C296.496 27.7089 298.035 33.4649 300.361 43.5836C301.447 48.3073 301.91 51.6067 302.464 55.5492C302.686 57.129 302.922 58.812 303.219 60.7313C303.669 63.6428 304.116 66.1859 304.536 68.5733L304.537 68.5738L304.537 68.5742L304.537 68.5743C305.588 74.5538 306.469 79.5573 306.791 86.9293C307.007 91.854 306.791 99.5519 306.791 99.5519L312.031 100.266V86.9293C312.031 86.9293 309.173 67.003 307.744 58.1115L307.726 58.0017C306.313 49.2088 306.092 47.8345 304.41 41.4401C304.244 40.8086 304.083 40.1936 303.925 39.5933L303.925 39.5905C301.603 30.7249 300.119 25.0592 295.36 16.6711C294.254 14.7223 292.752 12.4938 291.279 10.4344C289.603 9.34157 287.806 8.35986 285.916 7.47841ZM201.594 7.13889C199.743 10.7336 197.701 14.8944 196.284 18.3382C192.353 27.8867 190.411 33.4509 188.424 43.5836C187.062 50.5321 186.953 55.7261 186.835 61.3534C186.761 64.9156 186.683 68.6514 186.281 73.1158C185.694 79.6325 184.614 94.0742 184.614 94.0742H180.803C180.803 94.0742 181.686 79.6274 182.232 73.1158C182.578 68.9869 182.666 65.4777 182.749 62.1547C182.897 56.1982 183.031 50.8401 184.614 43.5836C186.839 33.3811 188.76 27.6804 193.426 18.3382C195.008 15.1702 197.275 11.5034 199.453 8.2085C200.163 7.83624 200.877 7.47991 201.594 7.13889Z" fill="#E2AE4A"/>
<path fill-rule="evenodd" clip-rule="evenodd" d="M167.648 84.198C177.185 86.232 192.167 89.0959 203.404 89.697C207.038 89.8914 210.45 90.1433 213.705 90.3838C229.457 91.5472 241.562 92.4413 257.634 85.2433C270.893 79.3049 279.372 74.9279 287.238 62.7131C293.334 53.2456 294.215 50.0813 294.168 38.8208C294.14 31.9877 292.059 27.7658 289.417 22.4076C288.72 20.9945 287.985 19.5024 287.238 17.8624C284.793 12.4976 280.009 7.66735 274.376 3.48911C263.014 0.636416 250.357 -1.83132e-05 240.105 3.95222e-10C221.29 3.36103e-05 203.428 2.73871 187.709 16.1951C172.631 29.103 170.508 39.226 169.074 46.0642C169.013 46.3548 168.954 46.6395 168.894 46.9182C167.471 53.5991 167.356 69.2452 167.648 84.198Z" fill="#F7D674"/>
<path fill-rule="evenodd" clip-rule="evenodd" d="M233.241 91.0868C231.194 91.1782 229.14 91.1896 227.058 91.1452C227.692 85.96 228.436 79.3089 228.436 79.3089C228.436 79.3089 229.23 64.4634 229.627 58.1123V30.2472C229.627 28.188 229.646 26.4466 229.664 24.7996C229.697 21.7598 229.727 19.042 229.627 15.2429C229.506 10.6655 229.102 4.56067 228.798 0.403038C229.341 0.360578 229.885 0.32192 230.43 0.286857C231.142 4.44107 232.155 10.6094 232.723 15.2429C233.438 21.0853 233.789 24.3723 234.152 30.2472C234.586 37.2916 234.457 42.3423 234.313 47.9911V47.9912C234.235 51.0519 234.152 54.2882 234.152 58.1123C234.152 61.021 234.2 63.4818 234.245 65.809V65.8092V65.8093V65.8095V65.8097C234.328 70.1052 234.403 73.946 234.152 79.3089C233.984 82.8977 233.578 87.565 233.241 91.0868ZM263.922 82.3421C262.218 83.1642 260.428 83.986 258.54 84.8359C258.551 82.2818 258.533 79.4654 258.444 77.1654C258.176 70.1976 257.619 65.7072 256.879 59.7465C256.697 58.2786 256.504 56.7214 256.301 55.0162C256.186 54.0508 256.079 53.1362 255.975 52.2602C255.222 45.8595 254.712 41.524 253.443 34.5341L253.324 33.8784C252.02 26.6881 251.248 22.4373 249.156 15.2429C247.76 10.4437 245.376 4.15463 243.749 0.0273438C244.724 0.042571 245.715 0.0645199 246.719 0.0943647C248.825 4.18658 251.836 10.3773 253.443 15.2429C255.083 20.209 255.719 23.7385 256.485 27.9898C256.78 29.6263 257.094 31.3698 257.492 33.3433C259.191 41.7673 260.051 46.5141 261.302 55.0162C262.57 63.6335 263.922 77.1654 263.922 77.1654V82.3421ZM290.107 58.0259C289.31 59.4338 288.363 60.9658 287.238 62.7123C286.531 63.8115 285.818 64.8472 285.097 65.8263C284.975 64.0412 284.826 62.2829 284.642 60.7321C283.413 50.3329 282.002 44.5439 278.926 34.5341C276.739 27.4166 275.491 23.3792 272.258 16.6719C269.79 11.5532 265.467 4.93038 263.055 1.36051C264.224 1.51712 265.392 1.69041 266.555 1.88191C269 4.79882 272.598 9.26041 274.878 12.8613C278.928 19.2571 280.727 23.1841 283.452 30.2472C287.382 40.4364 288.36 46.7474 289.998 57.3249L290.107 58.0259ZM217.473 1.94131C216.369 6.72111 214.84 13.3285 213.67 18.339C212.843 21.8767 212.038 24.8358 211.276 27.6383C209.912 32.6498 208.685 37.1606 207.716 43.5844C206.339 52.7053 206.259 58.7268 206.154 66.6633L206.154 66.6636L206.154 66.664C206.128 68.6661 206.099 70.7902 206.048 73.1166C205.93 78.5367 205.986 86.2014 206.024 89.8477C205.164 89.7944 204.291 89.7436 203.405 89.6962C202.251 89.6345 201.058 89.549 199.835 89.4429C199.808 85.6582 199.773 78.3441 199.856 73.1166C199.883 71.4133 199.9 69.7643 199.917 68.154C200.011 58.9412 200.092 50.9983 202 41.4409C203.634 33.2528 205.736 27.8211 208.369 21.0156C209.066 19.2133 209.801 17.3146 210.574 15.2429C211.364 13.1238 212.156 10.3696 212.944 7.62936L212.944 7.62932C213.441 5.89924 213.936 4.17469 214.429 2.61899C215.439 2.37244 216.453 2.14704 217.473 1.94131ZM199.452 8.21054C200.163 7.83819 200.876 7.48178 201.593 7.14068C199.743 10.7351 197.701 14.8955 196.284 18.339C192.354 27.8875 190.411 33.4517 188.424 43.5844C187.062 50.5329 186.953 55.7269 186.836 61.3542C186.761 64.9164 186.683 68.6522 186.281 73.1166C185.868 77.7053 185.21 84.0979 184.857 87.4787C183.579 87.268 182.31 87.05 181.06 86.828C181.363 83.3243 181.871 77.4227 182.232 73.1166C182.578 68.9877 182.666 65.4785 182.749 62.1555C182.897 56.199 183.031 50.8409 184.614 43.5844C186.839 33.3819 188.761 27.6812 193.426 18.339C195.008 15.1714 197.275 11.5051 199.452 8.21054Z" fill="#F3C66D"/>
<path d="M153.89 97.4081C155.7 93.5157 157.85 91.8811 161.988 90.7395C168.895 88.8342 168.619 90.009 175.038 90.7395C185.609 91.9427 190.89 95.6832 201.06 98.8085C208.54 101.107 214.082 101.652 221.767 103.124C235.307 105.718 239.496 105.773 253.204 104.315C264.865 103.074 272.249 100.847 283.928 99.7897C293.892 98.8881 304.03 96.2355 313.698 98.8085C319.256 100.288 319.702 100.966 324.112 104.659C328.618 108.432 329.203 113.188 330.082 120.345L330.131 120.748C331.091 128.545 328.597 134.78 324.112 141.23C319.432 147.959 315.899 147.319 308.458 150.757C297.583 155.781 285.848 154.832 273.925 155.996C256.832 157.665 252.251 156.953 235.104 155.996C217.61 155.02 210.187 155.001 193.187 150.757C179.768 147.406 182.946 148.613 167.227 142.183C162.692 140.327 154.69 135.089 152.938 130.513C150.599 124.407 151.032 120.476 151.032 113.938C151.032 108.029 151.4 102.766 153.89 97.4081Z" fill="#F3C66D"/>
<path fill-rule="evenodd" clip-rule="evenodd" d="M176.307 145.876C175.117 145.405 173.727 144.842 172.032 144.15L169.609 133.134V119.558L172.229 102.649L178.421 91.4551H179.532C180.439 91.6427 181.31 91.8503 182.154 92.0749L176.277 103.601L173.181 119.558V133.372L176.307 145.876ZM201.703 152.7C200.188 152.393 198.605 152.048 196.93 151.66L194.14 135.992V115.271L197.068 97.4765C198.313 97.9239 199.625 98.3679 201.03 98.8003L198.188 114.319L198.665 135.992L201.703 152.7ZM227.363 155.579C225.763 155.492 224.244 155.406 222.781 155.316L220.814 139.802V120.749L222.876 103.336C224.517 103.645 226.019 103.914 227.418 104.145L225.577 119.558V138.611L227.363 155.579ZM258.352 156.988C257.151 157.004 255.983 157.003 254.817 156.986L257.015 139.802V127.18L254.459 104.177C255.425 104.066 256.362 103.948 257.276 103.824L261.302 121.94V137.182L258.352 156.988ZM289.745 154.98C287.948 155.118 286.14 155.22 284.322 155.316L287.5 139.802L289.405 121.94L283.702 99.8114C283.777 99.8045 283.852 99.7976 283.928 99.7908C285.379 99.6594 286.835 99.4908 288.292 99.3067C289.962 103.428 293.724 113.415 294.168 120.749C294.457 125.511 293.972 128.727 293.377 132.672C293.168 134.054 292.946 135.525 292.739 137.182C292.005 143.069 290.437 151.409 289.745 154.98ZM314.789 148.254C314.481 148.367 314.166 148.482 313.843 148.599C312.518 149.08 311.056 149.611 309.393 150.338C309.774 147.655 310.268 143.754 310.363 140.993C310.522 136.389 310.363 124.798 310.363 124.798C310.363 124.798 309.252 117.653 308.934 115.271C308.617 112.89 303.457 98.8381 303.457 98.8381L306.52 97.7569C306.929 97.7748 307.337 97.7988 307.745 97.8293C308.732 99.5797 312.506 106.436 313.936 111.461C315.144 115.708 315.383 118.337 315.763 122.515L315.81 123.029L315.841 123.369C316.428 129.76 316.329 133.403 315.841 139.802C315.646 142.362 315.2 145.589 314.789 148.254Z" fill="#E2AE4A"/>
<path fill-rule="evenodd" clip-rule="evenodd" d="M161.987 90.7407C157.849 91.8822 155.699 93.5169 153.89 97.4093C151.399 102.767 151.032 108.031 151.032 113.939C151.032 114.862 151.023 115.733 151.015 116.565C150.965 121.63 150.929 125.27 152.937 130.514C154.689 135.09 162.691 140.329 167.227 142.184C175.736 145.665 178.707 146.908 181.772 147.847C184.368 148.643 187.032 149.221 193.187 150.758C208.459 154.571 216.003 154.974 230.064 155.724C231.653 155.809 233.326 155.898 235.103 155.997C237.497 156.131 239.646 156.26 241.618 156.378C252.226 157.014 257.722 157.344 268.724 156.463C275.147 153.096 281.514 148.638 284.88 143.136C285.458 142.191 286.038 141.289 286.6 140.413C289.829 135.383 292.49 131.239 291.072 125.036C290.158 121.033 288.338 118.967 285.812 116.097C285.511 115.755 285.201 115.402 284.88 115.033C279.107 108.384 265.589 103.363 265.589 103.363L263.315 102.901C260.193 103.426 256.915 103.921 253.204 104.316C239.495 105.774 235.306 105.719 221.766 103.125C219.592 102.709 217.589 102.366 215.666 102.038C210.79 101.204 206.423 100.458 201.059 98.8097C197.446 97.6994 194.45 96.5115 191.615 95.3873C186.469 93.347 181.853 91.5165 175.037 90.7407C174.368 90.6646 173.772 90.5837 173.233 90.502H162.877C162.594 90.5755 162.298 90.655 161.987 90.7407Z" fill="#F7D674"/>
<path fill-rule="evenodd" clip-rule="evenodd" d="M179.531 91.4551H178.42C178.42 91.4551 173.965 97.9648 172.228 102.649C170.283 107.891 170.077 111.532 169.795 116.486C169.74 117.453 169.682 118.47 169.608 119.558L169.568 120.138C169.231 125.075 169.027 128.062 169.608 133.134C170.032 136.837 171.398 142.04 171.971 144.125C173.66 144.814 175.047 145.377 176.236 145.848C175.533 143.639 173.708 137.644 173.18 133.372C172.52 128.018 172.706 124.932 173.18 119.558C173.738 113.235 174.136 109.578 176.277 103.601C177.757 99.4665 181.009 93.8881 182.102 92.0614C181.274 91.842 180.42 91.6389 179.531 91.4551ZM197.023 97.4608C196.413 100.403 194.658 109.178 194.139 115.271C193.452 123.334 193.37 127.937 194.139 135.992C194.631 141.148 196.131 148.367 196.846 151.641C198.526 152.031 200.113 152.377 201.631 152.686C200.895 149.327 199.258 141.529 198.664 135.992C197.761 127.574 197.416 122.749 198.188 114.319C198.663 109.123 200.27 101.79 200.962 98.7797C199.566 98.3488 198.262 97.9064 197.023 97.4608ZM222.852 103.332C222.474 105.838 221.178 114.702 220.813 120.749C220.365 128.176 220.318 132.378 220.813 139.802C221.156 144.951 222.255 152.278 222.732 155.313C224.2 155.404 225.723 155.49 227.329 155.577C226.933 152.588 225.883 144.331 225.576 138.611C225.177 131.181 225.097 126.984 225.576 119.558C225.924 114.178 227.08 106.266 227.399 104.142C225.999 103.911 224.496 103.641 222.852 103.332ZM254.483 104.174C254.905 106.929 256.7 119.021 257.014 127.18C257.203 132.105 257.252 134.879 257.014 139.802C256.75 145.267 255.638 152.745 254.951 156.988C256.112 157.004 257.277 157.004 258.476 156.986C259.312 152.621 260.917 143.635 261.301 137.182L261.313 136.977C261.66 131.162 261.86 127.797 261.301 121.94C260.708 115.726 258.27 106.944 257.359 103.813C256.427 103.94 255.47 104.06 254.483 104.174ZM289.305 120.557C289.349 121.027 289.383 121.489 289.404 121.94C289.657 127.262 289.037 130.803 288.261 135.236L288.261 135.237L288.26 135.238C288.068 136.338 287.866 137.492 287.665 138.743C290.377 134.423 292.331 130.54 291.073 125.036C290.661 123.234 290.066 121.824 289.305 120.557Z" fill="#F3C66D"/>
</svg>
