<svg width="507" height="507" viewBox="0 0 507 507" fill="none" xmlns="http://www.w3.org/2000/svg">
<mask id="mask0_5453_5884" style="mask-type:alpha" maskUnits="userSpaceOnUse" x="0" y="0" width="507" height="507">
<circle cx="253.5" cy="253.5" r="253.5" fill="#DAE5D7"/>
</mask>
<g mask="url(#mask0_5453_5884)">
<circle cx="244" cy="225" r="282" fill="#DAE5D7"/>
<path d="M66.0001 473.5C62.1577 461.089 72.5 406.5 133 355L369 339.5C448.5 402.5 446.256 459.566 445 473.5C421.64 610.45 104.893 599.127 66.0001 473.5Z" fill="#753F3C"/>
<path d="M277.292 360.679C274.834 360.976 226.218 365.759 206.39 367.794C203.239 368.117 200.176 369.064 197.517 370.784C150.65 401.088 166.22 459.634 157.237 512.206C138.756 595.643 135.215 617.007 148.696 626.537C161.575 635.64 364.815 614.896 382.959 613.023C383.916 612.925 384.726 612.776 385.666 612.57C402.191 608.944 406.041 611.204 377.053 531.658C365.942 501.169 367.42 517.366 359.065 464.919C343.529 367.402 314.447 361.279 314.447 361.279C314.447 361.279 298.104 358.169 277.292 360.679Z" fill="#FCEDC6"/>
<path d="M330 373.5C255.5 369 224.5 360.5 184.5 381.5C180.5 385.5 177.5 390 174.5 395C191.667 406.833 229.5 417.5 256.5 417.5C294.634 417.5 327.333 401.333 340.5 395.5C337 385.5 334.882 382.091 330 373.5Z" fill="#EBDBB0"/>
<path d="M126.5 361C135 366 181.667 372.333 190.5 375.5C190.5 377.5 177.5 387.5 175 395C138.5 379.5 127 363.833 126.5 361Z" fill="#471411"/>
<path d="M384.5 352C376 357 339.833 371.833 331 375C334.5 381 338 389 341 395.5C372.5 375 383 362 384.5 352Z" fill="#471411"/>
<mask id="mask1_5453_5884" style="mask-type:alpha" maskUnits="userSpaceOnUse" x="66" y="86" width="376" height="301">
<path d="M434.492 205.049C421.715 176.301 362.758 70.8885 231.052 87.8321C170.992 95.5585 145.464 115.42 106.471 151.366C55.5645 198.295 65.7813 266.582 69.1171 288.049C73.5276 316.433 80.8419 332.049 92.7243 345.549C104.607 359.049 128.249 368.026 169.731 376.771C253.913 394.517 349.899 385.721 383.522 362.049C399.082 351.095 418.049 340.549 425.908 325.549C443.919 291.174 446.732 232.587 434.492 205.049Z" fill="#504949"/>
</mask>
<g mask="url(#mask1_5453_5884)">
<path d="M214.811 70.4653C66.5645 84.266 36.8189 217.408 46.6874 281.184C51.293 310.948 72.6318 352.579 83.7795 365.299C94.9272 378.02 112.837 388.823 169.854 400.846C257.765 419.384 363.386 399.444 395.802 371.605C473.105 305.215 451.723 211.99 432.534 177.663C419.194 147.517 363.057 56.6646 214.811 70.4653Z" fill="#753F3C"/>
<path d="M132.964 201.549C104.353 219.193 96.507 261.826 94.8703 280.549C90.9366 325.549 120.088 352.049 164.083 373.549C174.267 378.526 174.653 380.314 205.395 383.549C258.294 389.115 241.538 402.674 300.897 389.549C326.803 383.821 320.749 389.549 349.185 375.549L349.615 375.337C375.467 362.611 407.69 346.748 411.958 292.723C413.194 277.079 411.958 253.605 402.815 230.484C398.413 219.351 388.947 205.118 365.227 194.051C341.506 182.983 315.142 178.061 293.605 182.918C278.235 186.385 265.017 190.573 256.027 199.125C251.67 203.269 242.609 203.531 238.037 199.626C228.81 191.744 216.405 188.857 203.698 185.986C185.919 181.969 154.298 188.392 132.964 201.549Z" fill="#FCEDC6"/>
<path d="M228.487 293.277C225.711 294.435 212.298 303.262 212.298 308.471C212.298 313.681 223.283 321.267 226.174 322.363C233.112 324.995 246.711 329.83 260.402 326.705C274.093 323.579 278.903 321.929 283.528 316.72C288.154 311.51 291.223 306.762 284.916 300.25C278.609 293.738 260.864 285.897 249.698 286.792C239.189 287.634 236.812 289.804 228.487 293.277Z" fill="#DBA26D"/>
<path d="M282.046 307.722C269.14 314.573 234.055 316.078 220.882 309.501" stroke="#B0661E" stroke-width="5" stroke-linecap="round"/>
<ellipse cx="18.5557" cy="16.9247" rx="18.5557" ry="16.9247" transform="matrix(0.928977 -0.370138 0.375032 0.927012 135.11 268.785)" fill="#562528"/>
<ellipse cx="18.5094" cy="16.9677" rx="18.5094" ry="16.9677" transform="matrix(-0.91062 -0.413244 -0.422365 0.906426 365.817 270.347)" fill="#562528"/>
</g>
<circle cx="167" cy="273" r="4" fill="white"/>
<circle cx="348" cy="273" r="4" fill="white"/>
<path d="M194.03 381.912C201.914 383.197 214.312 384.559 214.312 384.559L218.748 392.159C218.748 392.159 204.035 391.283 194.908 389.046C181.394 385.735 162 375 162 375C162 375 181.406 379.853 194.03 381.912Z" fill="#E8AFC5"/>
<path d="M281.61 409.771L306.926 391.387L309.233 393.454L307.404 400.135L314.136 412.927L317.369 431.943C317.369 431.943 318.28 436.568 317.937 442.331C317.598 448.027 315.673 461.099 315.673 461.099C314.296 470.255 313.91 476.55 311.492 484.908C309.481 491.858 306.945 502.039 304.367 505.039C302.389 507.34 272.405 482.11 272.405 482.11C272.405 482.11 235.042 492.74 232.763 489.213C230.366 485.506 239.422 468.372 244.06 455.145C246.597 447.912 264.892 424.943 264.892 424.943L281.61 409.771Z" fill="#E8AFC5"/>
<path d="M359.353 409.687L331.043 396.365L329.164 398.828L332.21 405.048C332.21 405.048 331.092 411.961 330.187 417.533C328.98 424.968 329.696 436.753 329.696 436.753C329.696 436.753 332.872 450.097 334.288 455.694C336.066 462.726 339.78 470.748 339.78 470.748C342.847 479.484 346.302 483.805 350.241 491.562C353.517 498.014 357.885 504.962 360.979 507.426C363.352 509.317 381.932 479.026 381.932 479.026C381.932 479.026 420.624 482.476 422.203 478.585C423.863 474.495 411.761 459.359 404.729 447.233C400.884 440.602 378.614 421.462 378.614 421.462L359.353 409.687Z" fill="#E8AFC5"/>
<path d="M212.79 404.761C210.859 389.512 207.133 361.493 212.465 358.716C215.994 356.878 225.359 355.975 233.698 355.91C246.402 355.81 252.603 357.472 264.703 361.343C275.718 364.867 285.67 371.19 297.131 372.731C302.641 373.471 305.969 373.892 305.969 373.892L310.364 384.071L307.374 399.589L281.144 421.313L257.1 442.917C257.1 442.917 240.929 458.059 236.495 457.205C234.279 456.777 226.761 439.641 226.761 439.641C226.761 439.641 214.633 419.318 212.79 404.761Z" fill="#F5C6D8"/>
<path d="M427.456 391.125C427.377 375.755 427.408 347.489 421.759 345.433C418.02 344.072 407.545 344.186 399.269 345.211C386.661 346.773 381.803 349.446 370.312 354.866C359.853 359.8 350.813 367.37 339.651 370.395C334.285 371.849 331.042 372.702 331.042 372.702L328.015 383.368L333.007 398.362L361.852 416.47L388.514 434.746C388.514 434.746 406.526 447.644 410.809 446.218C412.951 445.504 418.164 427.532 418.164 427.532C418.164 427.532 427.532 405.799 427.456 391.125Z" fill="#F5C6D8"/>
<path d="M301.535 373.037C301.535 373.037 305.012 371.17 307.429 370.522C317.698 367.767 338.533 367.724 339.14 368.788C339.746 369.851 339.866 372.038 339.866 372.038C339.866 372.038 340.966 386.597 340.216 388.47C339.466 390.343 338.599 391.177 337.722 392.993C337.03 394.425 333.946 404.167 333.946 404.167L309.432 407.153C309.432 407.153 306.561 402.923 306.37 401.288C306.116 399.108 307.996 395.715 308.198 394.608C308.4 393.5 305.144 378.872 305.084 377.779C304.995 376.138 301.535 373.037 301.535 373.037Z" fill="#E8AFC5"/>
<path d="M275.225 383.249C287.277 381.321 306.508 383.732 306.508 383.732C306.508 383.732 298.173 385.927 293.049 388.306C286.316 391.432 283.32 395.557 275.942 396.371C273.179 396.675 271.521 397.476 268.835 396.759C266.313 396.087 264.234 395.609 263.158 393.231C261.96 390.581 263.094 388.238 264.956 386.004C267.591 382.845 271.163 383.899 275.225 383.249Z" fill="#E8AFC5"/>
<path d="M368.183 378.446C355.993 377.844 337.139 382.337 337.139 382.337C337.139 382.337 345.664 383.611 351.017 385.417C358.05 387.79 361.478 391.564 368.901 391.568C371.681 391.569 373.417 392.184 376.008 391.179C378.442 390.235 380.456 389.534 381.266 387.053C382.169 384.288 380.786 382.082 378.691 380.065C375.728 377.212 372.291 378.649 368.183 378.446Z" fill="#E8AFC5"/>
</g>
</svg>
