<svg width="507" height="507" viewBox="0 0 507 507" fill="none" xmlns="http://www.w3.org/2000/svg">
<mask id="mask0_5402_3103" style="mask-type:alpha" maskUnits="userSpaceOnUse" x="0" y="0" width="507" height="507">
<circle cx="253.5" cy="253.5" r="253.5" fill="#DAE5D7"/>
</mask>
<g mask="url(#mask0_5402_3103)">
<circle cx="244" cy="225" r="282" fill="#DAE5D7"/>
<path d="M66.0002 473.5C62.1579 461.089 72.5001 406.5 133 355L369 339.5C448.5 402.5 446.256 459.566 445 473.5C421.64 610.45 104.893 599.127 66.0002 473.5Z" fill="#504949"/>
<path d="M277.292 360.679C274.834 360.976 226.218 365.759 206.39 367.794C203.239 368.117 200.176 369.064 197.517 370.784C150.65 401.088 166.22 459.634 157.237 512.206C138.756 595.643 135.215 617.007 148.696 626.537C161.575 635.64 364.815 614.896 382.959 613.023C383.916 612.925 384.726 612.776 385.666 612.57C402.191 608.944 406.041 611.204 377.053 531.658C365.942 501.169 367.42 517.366 359.065 464.919C343.529 367.402 314.447 361.279 314.447 361.279C314.447 361.279 298.104 358.169 277.292 360.679Z" fill="#FCEDC6"/>
<path d="M330 373.5C255.5 369 224.5 360.5 184.5 381.5C180.5 385.5 177.5 390 174.5 395C191.667 406.833 229.5 417.5 256.5 417.5C294.634 417.5 327.333 401.333 340.5 395.5C337 385.5 334.882 382.091 330 373.5Z" fill="#EBDBB0"/>
<path d="M126.5 361C135 366 181.667 372.333 190.5 375.5C190.5 377.5 177.5 387.5 175 395C138.5 379.5 127 363.833 126.5 361Z" fill="#3C3333"/>
<path d="M384.5 352C376 357 339.833 371.833 331 375C334.5 381 338 389 341 395.5C372.5 375 383 362 384.5 352Z" fill="#3C3333"/>
<mask id="mask1_5402_3103" style="mask-type:alpha" maskUnits="userSpaceOnUse" x="66" y="86" width="376" height="301">
<path d="M434.492 205.049C421.715 176.301 362.758 70.8885 231.052 87.8321C170.992 95.5585 145.464 115.42 106.471 151.366C55.5645 198.295 65.7813 266.582 69.1171 288.049C73.5276 316.433 80.8419 332.049 92.7243 345.549C104.607 359.049 128.249 368.026 169.731 376.771C253.913 394.517 349.899 385.721 383.522 362.049C399.082 351.095 418.049 340.549 425.908 325.549C443.919 291.174 446.732 232.587 434.492 205.049Z" fill="#504949"/>
</mask>
<g mask="url(#mask1_5402_3103)">
<path d="M214.811 70.4653C66.5646 84.266 36.819 217.408 46.6875 281.184C51.2932 310.948 72.6319 352.579 83.7796 365.299C94.9273 378.02 112.837 388.823 169.855 400.846C257.765 419.384 363.386 399.444 395.802 371.605C473.105 305.215 451.723 211.99 432.535 177.663C419.194 147.517 363.057 56.6646 214.811 70.4653Z" fill="#504949"/>
<path d="M132.964 201.549C104.353 219.193 96.507 261.826 94.8703 280.549C90.9366 325.549 120.088 352.049 164.083 373.549C174.267 378.526 174.653 380.314 205.395 383.549C258.294 389.115 241.538 402.674 300.897 389.549C326.803 383.821 320.749 389.549 349.185 375.549L349.615 375.337C375.467 362.611 407.69 346.748 411.958 292.723C413.194 277.079 411.958 253.605 402.815 230.484C398.413 219.351 388.947 205.118 365.227 194.051C341.506 182.983 315.142 178.061 293.605 182.918C278.235 186.385 265.017 190.573 256.027 199.125C251.67 203.269 242.609 203.531 238.037 199.626C228.81 191.744 216.405 188.857 203.698 185.986C185.919 181.969 154.298 188.392 132.964 201.549Z" fill="#FCEDC6"/>
<path d="M228.486 293.277C225.711 294.435 212.298 303.262 212.298 308.471C212.298 313.681 223.283 321.267 226.174 322.363C233.112 324.995 246.71 329.83 260.401 326.705C274.092 323.579 278.903 321.929 283.528 316.72C288.154 311.51 291.223 306.762 284.916 300.25C278.608 293.738 260.864 285.897 249.698 286.792C239.189 287.634 236.812 289.804 228.486 293.277Z" fill="#FEA34A"/>
<path d="M282.046 307.722C269.14 314.573 234.055 316.078 220.882 309.501" stroke="#B0661E" stroke-width="5" stroke-linecap="round"/>
<ellipse cx="18.5557" cy="16.9247" rx="18.5557" ry="16.9247" transform="matrix(0.928977 -0.370138 0.375032 0.927012 135.11 268.785)" fill="#562528"/>
<ellipse cx="18.5094" cy="16.9677" rx="18.5094" ry="16.9677" transform="matrix(-0.91062 -0.413244 -0.422365 0.906426 365.817 270.347)" fill="#562528"/>
</g>
<circle cx="167" cy="273" r="4" fill="white"/>
<circle cx="348" cy="273" r="4" fill="white"/>
<path d="M215.957 385.092C227.991 387.026 246.904 389.133 246.904 389.133L253.773 399.969C253.773 399.969 231.337 398.519 217.396 395.22C196.754 390.335 167.046 374.842 167.046 374.842C167.046 374.842 196.688 381.996 215.957 385.092Z" fill="#E8AFC5"/>
<path d="M316.61 417.771L341.926 399.387L344.232 401.454L342.404 408.135L349.136 420.927L352.369 439.943C352.369 439.943 353.28 444.568 352.937 450.331C352.598 456.027 350.673 469.099 350.673 469.099C349.295 478.255 348.91 484.55 346.492 492.908C344.481 499.858 341.945 510.039 339.367 513.039C337.389 515.34 307.405 490.11 307.405 490.11C307.405 490.11 270.042 500.74 267.763 497.213C265.366 493.506 274.422 476.372 279.06 463.145C281.597 455.912 299.892 432.943 299.892 432.943L316.61 417.771Z" fill="#E8AFC5"/>
<path d="M394.353 417.687L366.043 404.365L364.164 406.828L367.21 413.048C367.21 413.048 366.092 419.961 365.187 425.533C363.98 432.968 364.696 444.753 364.696 444.753C364.696 444.753 367.872 458.097 369.288 463.694C371.066 470.726 374.78 478.748 374.78 478.748C377.847 487.484 381.302 491.805 385.241 499.562C388.517 506.014 392.885 512.962 395.979 515.426C398.352 517.317 416.932 487.026 416.932 487.026C416.932 487.026 455.624 490.476 457.203 486.585C458.863 482.495 446.761 467.359 439.729 455.233C435.884 448.602 413.614 429.462 413.614 429.462L394.353 417.687Z" fill="#E8AFC5"/>
<path d="M247.79 412.761C245.859 397.512 242.133 369.493 247.465 366.716C250.994 364.878 260.359 363.975 268.698 363.91C281.402 363.81 287.603 365.472 299.703 369.343C310.718 372.867 320.67 379.19 332.131 380.731C337.641 381.471 340.969 381.892 340.969 381.892L345.364 392.071L342.374 407.589L316.144 429.313L292.1 450.917C292.1 450.917 275.929 466.059 271.495 465.205C269.279 464.777 261.761 447.641 261.761 447.641C261.761 447.641 249.633 427.318 247.79 412.761Z" fill="#F5C6D8"/>
<path d="M462.456 399.125C462.377 383.755 462.408 355.489 456.759 353.433C453.02 352.072 442.545 352.186 434.268 353.211C421.66 354.773 416.802 357.446 405.312 362.866C394.852 367.8 385.813 375.37 374.651 378.395C369.285 379.849 366.041 380.702 366.041 380.702L363.014 391.368L368.007 406.362L396.852 424.47L423.513 442.746C423.513 442.746 441.525 455.644 445.809 454.218C447.951 453.504 453.164 435.532 453.164 435.532C453.164 435.532 462.532 413.799 462.456 399.125Z" fill="#F5C6D8"/>
<path d="M336.535 381.037C336.535 381.037 340.012 379.17 342.429 378.522C352.698 375.767 373.533 375.724 374.14 376.788C374.746 377.851 374.866 380.038 374.866 380.038C374.866 380.038 375.966 394.597 375.216 396.47C374.466 398.343 373.599 399.177 372.722 400.993C372.03 402.425 368.946 412.167 368.946 412.167L344.432 415.153C344.432 415.153 341.561 410.923 341.37 409.288C341.116 407.108 342.996 403.715 343.198 402.608C343.4 401.5 340.144 386.872 340.084 385.779C339.995 384.138 336.535 381.037 336.535 381.037Z" fill="#E8AFC5"/>
<path d="M310.224 391.25C322.276 389.322 341.508 391.733 341.508 391.733C341.508 391.733 333.173 393.928 328.049 396.307C321.316 399.433 318.32 403.558 310.942 404.372C308.179 404.676 306.52 405.477 303.834 404.76C301.312 404.088 299.233 403.61 298.158 401.232C296.959 398.582 298.093 396.239 299.956 394.005C302.59 390.846 306.163 391.9 310.224 391.25Z" fill="#E8AFC5"/>
<path d="M403.183 386.446C390.993 385.844 372.139 390.337 372.139 390.337C372.139 390.337 380.664 391.611 386.017 393.417C393.05 395.79 396.478 399.564 403.901 399.568C406.68 399.569 408.416 400.184 411.008 399.179C413.442 398.235 415.456 397.534 416.266 395.053C417.169 392.288 415.786 390.082 413.691 388.065C410.728 385.212 407.291 386.649 403.183 386.446Z" fill="#E8AFC5"/>
</g>
</svg>
