<svg width="507" height="507" viewBox="0 0 507 507" fill="none" xmlns="http://www.w3.org/2000/svg">
<mask id="mask0_5453_5920" style="mask-type:alpha" maskUnits="userSpaceOnUse" x="0" y="0" width="507" height="507">
<circle cx="253.5" cy="253.5" r="253.5" fill="#DAE5D7"/>
</mask>
<g mask="url(#mask0_5453_5920)">
<circle cx="244" cy="225" r="282" fill="#DAE5D7"/>
<path d="M66.0001 473.5C62.1577 461.089 72.5 406.5 133 355L369 339.5C448.5 402.5 446.256 459.566 445 473.5C421.64 610.45 104.893 599.127 66.0001 473.5Z" fill="#753F3C"/>
<path d="M277.292 360.679C274.834 360.976 226.218 365.759 206.39 367.794C203.239 368.117 200.176 369.064 197.517 370.784C150.65 401.088 166.22 459.634 157.237 512.206C138.756 595.643 135.215 617.007 148.696 626.537C161.575 635.64 364.815 614.896 382.959 613.023C383.916 612.925 384.726 612.776 385.666 612.57C402.191 608.944 406.041 611.204 377.053 531.658C365.942 501.169 367.42 517.366 359.065 464.919C343.529 367.402 314.447 361.279 314.447 361.279C314.447 361.279 298.104 358.169 277.292 360.679Z" fill="#FCEDC6"/>
<path d="M330 373.5C255.5 369 224.5 360.5 184.5 381.5C180.5 385.5 177.5 390 174.5 395C191.667 406.833 229.5 417.5 256.5 417.5C294.634 417.5 327.333 401.333 340.5 395.5C337 385.5 334.882 382.091 330 373.5Z" fill="#EBDBB0"/>
<path d="M126.5 361C135 366 181.667 372.333 190.5 375.5C190.5 377.5 177.5 387.5 175 395C138.5 379.5 127 363.833 126.5 361Z" fill="#471411"/>
<path d="M384.5 352C376 357 339.833 371.833 331 375C334.5 381 338 389 341 395.5C372.5 375 383 362 384.5 352Z" fill="#471411"/>
<mask id="mask1_5453_5920" style="mask-type:alpha" maskUnits="userSpaceOnUse" x="66" y="86" width="376" height="301">
<path d="M434.492 205.049C421.715 176.301 362.758 70.8885 231.052 87.8321C170.992 95.5585 145.464 115.42 106.471 151.366C55.5645 198.295 65.7813 266.582 69.1171 288.049C73.5276 316.433 80.8419 332.049 92.7243 345.549C104.607 359.049 128.249 368.026 169.731 376.771C253.913 394.517 349.899 385.721 383.522 362.049C399.082 351.095 418.049 340.549 425.908 325.549C443.919 291.174 446.732 232.587 434.492 205.049Z" fill="#504949"/>
</mask>
<g mask="url(#mask1_5453_5920)">
<path d="M214.811 70.4653C66.5645 84.266 36.8189 217.408 46.6874 281.184C51.293 310.948 72.6318 352.579 83.7795 365.299C94.9272 378.02 112.837 388.823 169.854 400.846C257.765 419.384 363.386 399.444 395.802 371.605C473.105 305.215 451.723 211.99 432.534 177.663C419.194 147.517 363.057 56.6646 214.811 70.4653Z" fill="#753F3C"/>
<path d="M132.964 201.549C104.353 219.193 96.507 261.826 94.8703 280.549C90.9366 325.549 120.088 352.049 164.083 373.549C174.267 378.526 174.653 380.314 205.395 383.549C258.294 389.115 241.538 402.674 300.897 389.549C326.803 383.821 320.749 389.549 349.185 375.549L349.615 375.337C375.467 362.611 407.69 346.748 411.958 292.723C413.194 277.079 411.958 253.605 402.815 230.484C398.413 219.351 388.947 205.118 365.227 194.051C341.506 182.983 315.142 178.061 293.605 182.918C278.235 186.385 265.017 190.573 256.027 199.125C251.67 203.269 242.609 203.531 238.037 199.626C228.81 191.744 216.405 188.857 203.698 185.986C185.919 181.969 154.298 188.392 132.964 201.549Z" fill="#FCEDC6"/>
<path d="M228.487 293.277C225.711 294.435 212.298 303.262 212.298 308.471C212.298 313.681 223.283 321.267 226.174 322.363C233.112 324.995 246.711 329.83 260.402 326.705C274.093 323.579 278.903 321.929 283.528 316.72C288.154 311.51 291.223 306.762 284.916 300.25C278.609 293.738 260.864 285.897 249.698 286.792C239.189 287.634 236.812 289.804 228.487 293.277Z" fill="#DBA26D"/>
<path d="M282.046 307.722C269.14 314.573 234.055 316.078 220.882 309.501" stroke="#B0661E" stroke-width="5" stroke-linecap="round"/>
<ellipse cx="18.5557" cy="16.9247" rx="18.5557" ry="16.9247" transform="matrix(0.928977 -0.370138 0.375032 0.927012 135.11 268.785)" fill="#562528"/>
<ellipse cx="18.5094" cy="16.9677" rx="18.5094" ry="16.9677" transform="matrix(-0.91062 -0.413244 -0.422365 0.906426 365.817 270.347)" fill="#562528"/>
</g>
<circle cx="167" cy="273" r="4" fill="white"/>
<circle cx="348" cy="273" r="4" fill="white"/>
<path d="M187.24 76.9098C198.026 62.5779 225.082 53.3018 225.082 53.3018C225.082 53.3018 241.034 49.0021 251.475 48.4538C266.112 47.6851 268.552 48.0322 280.584 49.0861C300.572 51.194 318.62 62.5764 331.04 76.9098C337.067 83.8657 338.026 97.5667 338.026 103.047C338.026 109.371 323.273 121.861 309.111 128.974C288.405 139.373 274.225 137.474 251.475 139.302C232.731 140.808 229.546 142.253 208.975 139.302C200.133 138.034 190.36 132.949 184.329 125.812C177.912 118.218 174.759 110.214 175.014 103.89C175.488 92.1579 180.397 86.0021 187.24 76.9098Z" fill="#F4B396"/>
<path fill-rule="evenodd" clip-rule="evenodd" d="M204.598 137.612C204.598 137.612 203.673 127.253 203.213 120.626C201.903 101.755 208.755 89.3739 208.755 89.3739C208.755 89.3739 213.899 77.3582 218.58 71.252C223.521 64.8067 231.049 57.1777 231.049 57.1777C231.049 57.1777 217.875 63.8839 210.502 72.6097C204.908 79.2302 203.235 81.3386 200.184 89.6913C196.404 100.042 195.384 109.614 198.008 120.378C199.729 127.44 204.598 137.612 204.598 137.612Z" fill="#F29D77"/>
<path fill-rule="evenodd" clip-rule="evenodd" d="M296.37 59.2621C301.331 63.2011 305.985 67.8466 308.592 72.8306C314.969 85.0195 315.58 92.2112 311.872 100.991C308.861 108.12 304.498 110.791 298.914 114.21C297.927 114.814 296.901 115.442 295.838 116.122C288.349 120.913 282.522 121.915 275.287 123.16C273.016 123.55 270.606 123.965 267.962 124.528C255.508 127.181 247.742 127.548 236.155 128.097C234.734 128.164 233.255 128.234 231.704 128.311C228.098 128.49 224.909 128.804 221.912 129.098C214.095 129.866 207.579 130.507 198.361 128.311C192.843 126.997 186.129 123.91 180.827 121.173C176.92 114.995 175.028 108.813 175.221 103.723C175.652 92.3926 179.991 86.2788 186.102 77.6674C186.299 77.3889 186.499 77.1077 186.7 76.8237C196.827 62.5348 222.229 53.2866 222.229 53.2866C222.229 53.2866 237.206 48.9997 247.008 48.453C260.752 47.6867 268.817 48.707 281.991 53.2866C282.507 53.466 283.012 53.6404 283.508 53.8115C288.183 55.426 292.017 56.7498 296.37 59.2621Z" fill="#F8C5AF"/>
<path fill-rule="evenodd" clip-rule="evenodd" d="M200.813 128.842C199.718 126.045 198.646 122.997 198.008 120.378C195.384 109.614 196.404 100.042 200.184 89.6913C203.235 81.3386 204.908 79.2302 210.502 72.6097C217.875 63.8839 231.049 57.1777 231.049 57.1777C231.049 57.1777 223.521 64.8067 218.58 71.252C213.899 77.3582 208.755 89.3739 208.755 89.3739C208.755 89.3739 201.903 101.755 203.213 120.626C203.394 123.241 203.648 126.438 203.889 129.35C202.893 129.215 201.87 129.048 200.813 128.842Z" fill="#F4B396"/>
<path fill-rule="evenodd" clip-rule="evenodd" d="M296.109 59.2039C295.488 58.3608 288.476 53.7937 285.048 51.6156L280.682 49.0622C273.597 48.3618 266.454 48.0316 258.415 48.1975L277.479 59.2039H296.109Z" fill="#F8C5AF"/>
<path d="M250.504 50.3376H248.564C248.564 50.3376 249.378 48.9648 249.34 48.2297C249.306 47.5671 248.973 47.247 248.564 46.7542C247.928 45.9883 246.817 45.9111 245.847 45.9111C245 45.9111 243.578 46.6025 242.742 46.7542C240.331 47.1917 238.97 47.4107 236.532 47.5974C233.357 47.8404 231.53 48.1011 228.381 47.5974C226.454 47.289 225.471 46.5158 223.53 46.3326C222.404 46.2265 221.762 46.2647 220.64 46.3314L220.619 46.3326C219.324 46.4097 218.481 47.3834 217.32 46.7542C216.649 46.3903 215.961 45.2787 215.961 45.2787L217.32 43.8032C217.32 43.8032 218.479 41.8545 219.649 41.2738C220.15 41.0247 220.481 41.0317 221.007 40.8522C224.241 39.7497 225.461 37.4351 228.769 36.6365C231.729 35.9222 233.517 36.2936 236.532 36.6365C239.222 36.9425 241.044 36.5307 243.324 38.112C244.679 39.0518 245.098 40.039 246.235 41.2738C247.902 43.0848 249.779 43.474 250.504 45.9111C250.994 47.556 250.504 50.3376 250.504 50.3376Z" fill="#9DBE98"/>
<path fill-rule="evenodd" clip-rule="evenodd" d="M216.303 45.7689L221.977 43.1842L229.352 41.2871H237.502L243.906 42.341L247.981 44.4489L250.116 47.1891L249.536 50.3376H248.564C248.564 50.3376 249.377 48.9648 249.34 48.2297C249.31 47.6374 249.04 47.3189 248.691 46.906C248.65 46.8569 248.607 46.8065 248.564 46.7542C247.928 45.9883 246.817 45.9111 245.847 45.9111C245.344 45.9111 244.638 46.1548 243.973 46.3847C243.518 46.5419 243.081 46.6926 242.742 46.7542C240.331 47.1917 238.97 47.4107 236.532 47.5974C236.126 47.6284 235.742 47.6598 235.375 47.6898C232.868 47.8945 231.128 48.0367 228.381 47.5974C227.49 47.4548 226.801 47.2129 226.126 46.9759C225.34 46.7002 224.573 46.4311 223.53 46.3326C222.404 46.2265 221.762 46.2647 220.64 46.3314L220.619 46.3326C220.124 46.3621 219.694 46.5226 219.288 46.6746C218.632 46.92 218.037 47.1428 217.32 46.7542C216.945 46.551 216.565 46.1146 216.303 45.7689Z" fill="#90AE8B"/>
<path d="M253.609 45.9239C253.079 47.5867 252.833 50.3504 252.833 50.3504H254.774C254.774 50.3504 255.373 48.9811 255.938 48.2426C256.839 47.0647 257.623 46.6801 258.849 45.9239C260.995 44.5997 262.504 44.6013 264.865 43.8161C268.329 42.6638 270.394 42.4425 273.792 41.0759C276.115 40.1411 277.169 38.7749 279.613 38.3357C281.258 38.0401 282.357 39.065 283.883 38.3357C285.256 37.6793 286.6 35.3847 286.6 35.3847V33.9092C286.6 33.9092 285.055 35.185 283.883 35.3847C283.284 35.4867 282.936 35.4143 282.33 35.3847C278.835 35.2135 277.259 32.9445 273.792 32.4337C271.088 32.0354 269.449 31.6994 266.805 32.4337C263.16 33.4464 261.547 35.4866 258.849 38.3357C256.404 40.918 254.726 42.4239 253.609 45.9239Z" fill="#9DBE98"/>
<path fill-rule="evenodd" clip-rule="evenodd" d="M286.277 35.8904L283.301 36.8604L279.225 36.2281L275.538 35.5957L267.582 36.8604L261.178 40.233L255.744 44.6595L253.686 50.3503H254.26L254.862 50.1552C255.049 49.7505 255.504 48.8101 255.938 48.2425C256.725 47.2129 257.424 46.7894 258.406 46.1941C258.547 46.1084 258.695 46.019 258.849 45.9238C260.289 45.0355 261.442 44.7438 262.758 44.411C263.403 44.2477 264.088 44.0744 264.865 43.816C266.299 43.3388 267.494 43.0213 268.643 42.7159C270.268 42.284 271.801 41.8765 273.792 41.0758C274.732 40.6975 275.464 40.2485 276.165 39.8189C277.196 39.187 278.158 38.597 279.613 38.3356C280.333 38.2063 280.948 38.3296 281.539 38.4483C282.301 38.6009 283.024 38.746 283.883 38.3356C284.848 37.8745 285.798 36.605 286.277 35.8904Z" fill="#90AE8B"/>
<path d="M249.7 42.7301C250.354 45.6962 249.7 50.5397 249.7 50.5397C249.7 50.5397 250.798 51.311 251.592 51.3617C252.525 51.4213 253.863 50.5397 253.863 50.5397C253.863 50.5397 253.765 45.7122 253.106 42.7301C252.67 40.7557 252.278 39.6867 251.592 37.7977C250.938 35.9932 249.7 33.2764 249.7 33.2764C249.7 33.2764 248.359 33.4741 247.808 34.0984C246.888 35.1419 247.808 37.7977 247.808 37.7977C247.808 37.7977 249.253 40.7006 249.7 42.7301Z" fill="#D29A81"/>
</g>
</svg>
