<svg width="507" height="507" viewBox="0 0 507 507" fill="none" xmlns="http://www.w3.org/2000/svg">
<mask id="mask0_5453_5902" style="mask-type:alpha" maskUnits="userSpaceOnUse" x="0" y="0" width="507" height="507">
<circle cx="253.5" cy="253.5" r="253.5" fill="#DAE5D7"/>
</mask>
<g mask="url(#mask0_5453_5902)">
<circle cx="244" cy="225" r="282" fill="#DAE5D7"/>
<path d="M66.0001 473.5C62.1577 461.089 72.5 406.5 133 355L369 339.5C448.5 402.5 446.256 459.566 445 473.5C421.64 610.45 104.893 599.127 66.0001 473.5Z" fill="#753F3C"/>
<path d="M277.292 360.679C274.834 360.976 226.218 365.759 206.39 367.794C203.239 368.117 200.176 369.064 197.517 370.784C150.65 401.088 166.22 459.634 157.237 512.206C138.756 595.643 135.215 617.007 148.696 626.537C161.575 635.64 364.815 614.896 382.959 613.023C383.916 612.925 384.726 612.776 385.666 612.57C402.191 608.944 406.041 611.204 377.053 531.658C365.942 501.169 367.42 517.366 359.065 464.919C343.529 367.402 314.447 361.279 314.447 361.279C314.447 361.279 298.104 358.169 277.292 360.679Z" fill="#FCEDC6"/>
<path d="M330 373.5C255.5 369 224.5 360.5 184.5 381.5C180.5 385.5 177.5 390 174.5 395C191.667 406.833 229.5 417.5 256.5 417.5C294.634 417.5 327.333 401.333 340.5 395.5C337 385.5 334.882 382.091 330 373.5Z" fill="#EBDBB0"/>
<path d="M126.5 361C135 366 181.667 372.333 190.5 375.5C190.5 377.5 177.5 387.5 175 395C138.5 379.5 127 363.833 126.5 361Z" fill="#471411"/>
<path d="M384.5 352C376 357 339.833 371.833 331 375C334.5 381 338 389 341 395.5C372.5 375 383 362 384.5 352Z" fill="#471411"/>
<mask id="mask1_5453_5902" style="mask-type:alpha" maskUnits="userSpaceOnUse" x="66" y="86" width="376" height="301">
<path d="M434.492 205.049C421.715 176.301 362.758 70.8885 231.052 87.8321C170.992 95.5585 145.464 115.42 106.471 151.366C55.5645 198.295 65.7813 266.582 69.1171 288.049C73.5276 316.433 80.8419 332.049 92.7243 345.549C104.607 359.049 128.249 368.026 169.731 376.771C253.913 394.517 349.899 385.721 383.522 362.049C399.082 351.095 418.049 340.549 425.908 325.549C443.919 291.174 446.732 232.587 434.492 205.049Z" fill="#504949"/>
</mask>
<g mask="url(#mask1_5453_5902)">
<path d="M214.811 70.4653C66.5645 84.266 36.8189 217.408 46.6874 281.184C51.293 310.948 72.6318 352.579 83.7795 365.299C94.9272 378.02 112.837 388.823 169.854 400.846C257.765 419.384 363.386 399.444 395.802 371.605C473.105 305.215 451.723 211.99 432.534 177.663C419.194 147.517 363.057 56.6646 214.811 70.4653Z" fill="#753F3C"/>
<path d="M132.964 201.549C104.353 219.193 96.507 261.826 94.8703 280.549C90.9366 325.549 120.088 352.049 164.083 373.549C174.267 378.526 174.653 380.314 205.395 383.549C258.294 389.115 241.538 402.674 300.897 389.549C326.803 383.821 320.749 389.549 349.185 375.549L349.615 375.337C375.467 362.611 407.69 346.748 411.958 292.723C413.194 277.079 411.958 253.605 402.815 230.484C398.413 219.351 388.947 205.118 365.227 194.051C341.506 182.983 315.142 178.061 293.605 182.918C278.235 186.385 265.017 190.573 256.027 199.125C251.67 203.269 242.609 203.531 238.037 199.626C228.81 191.744 216.405 188.857 203.698 185.986C185.919 181.969 154.298 188.392 132.964 201.549Z" fill="#FCEDC6"/>
<path d="M228.487 293.277C225.711 294.435 212.298 303.262 212.298 308.471C212.298 313.681 223.283 321.267 226.174 322.363C233.112 324.995 246.711 329.83 260.402 326.705C274.093 323.579 278.903 321.929 283.528 316.72C288.154 311.51 291.223 306.762 284.916 300.25C278.609 293.738 260.864 285.897 249.698 286.792C239.189 287.634 236.812 289.804 228.487 293.277Z" fill="#DBA26D"/>
<path d="M282.046 307.722C269.14 314.573 234.055 316.078 220.882 309.501" stroke="#B0661E" stroke-width="5" stroke-linecap="round"/>
<ellipse cx="18.5557" cy="16.9247" rx="18.5557" ry="16.9247" transform="matrix(0.928977 -0.370138 0.375032 0.927012 135.11 268.785)" fill="#562528"/>
<ellipse cx="18.5094" cy="16.9677" rx="18.5094" ry="16.9677" transform="matrix(-0.91062 -0.413244 -0.422365 0.906426 365.817 270.347)" fill="#562528"/>
</g>
<circle cx="167" cy="273" r="4" fill="white"/>
<circle cx="348" cy="273" r="4" fill="white"/>
<path d="M180.894 58.9182C177.798 73.4462 180.894 130.367 180.894 130.367H328.079C328.079 130.367 329.27 81.7819 325.936 64.1578C322.601 46.5337 322.125 42.2468 309.979 28.1951C297.832 14.1435 270.92 12 252.105 12C233.29 12 215.428 14.7387 199.709 28.1951C183.99 41.6515 182.351 52.0814 180.894 58.9182Z" fill="#F3C66D"/>
<path fill-rule="evenodd" clip-rule="evenodd" d="M211.856 118.221C211.856 118.221 211.739 92.4626 211.856 85.1158C211.883 83.4126 211.9 81.7635 211.916 80.1532C212.01 70.9404 212.091 62.9975 213.999 53.4401C215.634 45.252 217.735 39.8203 220.368 33.0148C221.066 31.2125 221.8 29.3138 222.573 27.2421C223.364 25.123 224.155 22.3688 224.943 19.6286L224.943 19.6285C225.44 17.8983 225.936 16.1735 226.429 14.6177C227.439 14.3712 228.453 14.1458 229.472 13.9401C228.369 18.7199 226.84 25.3276 225.669 30.3382C224.843 33.8759 224.038 36.835 223.275 39.6375C221.912 44.649 220.685 49.1598 219.715 55.5836C218.339 64.7045 218.259 70.726 218.154 78.6625L218.154 78.6628L218.154 78.6632C218.127 80.6653 218.099 82.7894 218.048 85.1158C217.887 92.4617 218.048 118.221 218.048 118.221H211.856ZM240.798 12.402C241.102 16.5596 241.505 22.6646 241.626 27.2421C241.727 31.0412 241.697 33.759 241.663 36.7988C241.645 38.4458 241.626 40.1872 241.626 42.2464V70.1115C241.229 76.4625 240.435 91.3081 240.435 91.3081C240.435 91.3081 237.26 117.903 236.625 122.507L242.817 123.46C242.817 123.46 245.841 97.928 246.151 91.3081C246.403 85.9452 246.328 82.1044 246.244 77.8089V77.8087V77.8085V77.8084V77.8082V77.8081C246.199 75.4809 246.151 73.0202 246.151 70.1115C246.151 66.2874 246.234 63.0511 246.312 59.9904V59.9903C246.457 54.3415 246.586 49.2908 246.151 42.2464C245.789 36.3715 245.438 33.0845 244.722 27.2421C244.155 22.6085 243.142 16.44 242.43 12.2858C241.885 12.3209 241.34 12.3595 240.798 12.402ZM255.749 12.0264C257.376 16.1537 259.76 22.4428 261.156 27.2421C263.248 34.4366 264.019 38.6874 265.324 45.8777L265.443 46.5333C266.711 53.5231 267.222 57.8586 267.975 64.2593L267.975 64.2594L267.976 64.2716C268.079 65.1438 268.186 66.0545 268.301 67.0154C268.503 68.7207 268.697 70.2779 268.879 71.7459C269.618 77.7064 270.176 82.1969 270.444 89.1646C270.666 94.9269 271.158 122.507 271.158 122.507L276.636 120.364C276.636 117.899 276.458 111.332 276.279 104.764L276.279 104.762C276.1 98.1953 275.922 91.629 275.922 89.1646C275.922 89.1646 274.57 75.6327 273.302 67.0154C272.051 58.5133 271.19 53.7665 269.491 45.3425C269.093 43.3691 268.779 41.6257 268.485 39.9893L268.485 39.9892L268.484 39.9889L268.484 39.9888C267.719 35.7376 267.083 32.2082 265.443 27.2421C263.835 22.3765 260.824 16.1856 258.719 12.0934C257.714 12.0636 256.723 12.0416 255.749 12.0264ZM275.055 13.3597C277.467 16.9295 281.79 23.5524 284.257 28.6711C287.491 35.3784 288.739 39.4158 290.926 46.5333C294.002 56.5431 295.413 62.3321 296.642 72.7313C297.429 79.3919 299.976 112.266 299.976 112.266L306.407 111.552C306.407 111.552 303.265 77.501 302.12 70.1115L301.998 69.3239C300.359 58.7465 299.381 52.4356 295.451 42.2464C292.727 35.1833 290.927 31.2563 286.877 24.8605C284.597 21.2596 281 16.798 278.555 13.8811C277.391 13.6896 276.224 13.5163 275.055 13.3597ZM297.915 19.4783C299.813 22.559 302.383 26.8953 304.025 30.3382C308.495 39.7089 310.035 45.4649 312.361 55.5836C313.446 60.3073 313.91 63.6067 314.464 67.5492C314.686 69.129 314.922 70.812 315.219 72.7313C315.669 75.6428 316.116 78.1859 316.536 80.5733L316.536 80.5738L316.536 80.5742L316.536 80.5743C317.588 86.5538 318.468 91.5573 318.791 98.9293C319.007 103.854 318.791 111.552 318.791 111.552L324.031 112.266V98.9293C324.031 98.9293 321.173 79.003 319.744 70.1115L319.726 70.0017C318.313 61.2088 318.092 59.8345 316.41 53.4401C316.243 52.8086 316.082 52.1936 315.925 51.5933L315.924 51.5905C313.603 42.7249 312.119 37.0592 307.359 28.6711C306.254 26.7223 304.752 24.4937 303.279 22.4342C301.602 21.3415 299.806 20.3598 297.915 19.4783ZM213.593 19.139C211.743 22.7336 209.701 26.8945 208.283 30.3382C204.353 39.8867 202.411 45.4509 200.424 55.5836C199.061 62.5321 198.953 67.7261 198.835 73.3534C198.761 76.9156 198.683 80.6514 198.28 85.1158C197.693 91.6325 196.613 106.074 196.613 106.074H192.803C192.803 106.074 193.685 91.6274 194.232 85.1158C194.578 80.9869 194.666 77.4777 194.748 74.1547C194.897 68.1982 195.031 62.8401 196.613 55.5836C198.838 45.3811 200.76 39.6804 205.425 30.3382C207.007 27.1703 209.275 23.5035 211.453 20.2086C212.163 19.8363 212.876 19.48 213.593 19.139Z" fill="#E2AE4A"/>
<path fill-rule="evenodd" clip-rule="evenodd" d="M179.648 96.198C189.184 98.232 204.167 101.096 215.404 101.697C219.038 101.891 222.45 102.143 225.705 102.384C241.457 103.547 253.562 104.441 269.634 97.2433C282.893 91.3049 291.372 86.9279 299.237 74.7131C305.334 65.2456 306.214 62.0813 306.168 50.8208C306.14 43.9877 304.058 39.7658 301.417 34.4076C300.72 32.9945 299.985 31.5024 299.237 29.8624C296.793 24.4976 292.009 19.6674 286.375 15.4891C275.014 12.6364 262.357 12 252.105 12C233.29 12 215.428 14.7387 199.709 28.1951C184.631 41.103 182.508 51.226 181.074 58.0642C181.013 58.3548 180.953 58.6395 180.894 58.9182C179.47 65.5991 179.356 81.2452 179.648 96.198Z" fill="#F7D674"/>
<path fill-rule="evenodd" clip-rule="evenodd" d="M245.241 103.087C243.194 103.178 241.14 103.19 239.058 103.145C239.692 97.96 240.436 91.3089 240.436 91.3089C240.436 91.3089 241.23 76.4634 241.627 70.1123V42.2472C241.627 40.188 241.646 38.4466 241.664 36.7996C241.697 33.7598 241.727 31.042 241.627 27.2429C241.506 22.6655 241.102 16.5607 240.798 12.403C241.341 12.3606 241.885 12.3219 242.43 12.2869C243.142 16.4411 244.155 22.6094 244.723 27.2429C245.438 33.0853 245.789 36.3723 246.152 42.2472C246.586 49.2916 246.457 54.3423 246.313 59.9911V59.9912C246.235 63.0519 246.152 66.2882 246.152 70.1123C246.152 73.021 246.2 75.4818 246.245 77.809V77.8092V77.8093V77.8095V77.8097C246.328 82.1052 246.403 85.946 246.152 91.3089C245.984 94.8977 245.578 99.565 245.241 103.087ZM275.922 94.3421C274.218 95.1642 272.428 95.986 270.54 96.8359C270.551 94.2818 270.533 91.4654 270.444 89.1654C270.176 82.1976 269.619 77.7072 268.879 71.7465C268.697 70.2786 268.504 68.7214 268.301 67.0162C268.186 66.0508 268.079 65.1362 267.975 64.2602C267.222 57.8595 266.712 53.524 265.443 46.5341L265.324 45.8784C264.02 38.6881 263.248 34.4373 261.156 27.2429C259.76 22.4437 257.376 16.1546 255.749 12.0273C256.724 12.0426 257.715 12.0645 258.719 12.0944C260.825 16.1866 263.836 22.3773 265.443 27.2429C267.083 32.209 267.719 35.7385 268.485 39.9898C268.78 41.6263 269.094 43.3698 269.492 45.3433C271.191 53.7673 272.051 58.5141 273.302 67.0162C274.57 75.6335 275.922 89.1654 275.922 89.1654V94.3421ZM302.107 70.0259C301.31 71.4338 300.363 72.9658 299.238 74.7123C298.531 75.8115 297.818 76.8472 297.097 77.8263C296.975 76.0412 296.826 74.2829 296.642 72.7321C295.413 62.3329 294.002 56.5439 290.926 46.5341C288.739 39.4166 287.491 35.3792 284.258 28.6719C281.79 23.5532 277.467 16.9304 275.055 13.3605C276.224 13.5171 277.392 13.6904 278.555 13.8819C281 16.7988 284.598 21.2604 286.878 24.8613C290.928 31.2571 292.727 35.1841 295.452 42.2472C299.382 52.4364 300.36 58.7474 301.998 69.3249L302.107 70.0259ZM229.473 13.9413C228.369 18.7211 226.84 25.3285 225.67 30.339C224.843 33.8767 224.038 36.8358 223.276 39.6383C221.912 44.6498 220.685 49.1606 219.716 55.5844C218.339 64.7053 218.259 70.7268 218.154 78.6633L218.154 78.6636L218.154 78.664C218.128 80.6661 218.099 82.7902 218.048 85.1166C217.93 90.5367 217.986 98.2014 218.024 101.848C217.164 101.794 216.291 101.744 215.405 101.696C214.251 101.635 213.058 101.549 211.835 101.443C211.808 97.6582 211.773 90.3441 211.856 85.1166C211.883 83.4133 211.9 81.7643 211.917 80.154C212.011 70.9412 212.092 62.9983 214 53.4409C215.634 45.2528 217.736 39.8211 220.369 33.0156C221.066 31.2133 221.801 29.3146 222.574 27.2429C223.364 25.1238 224.156 22.3696 224.944 19.6294L224.944 19.6293C225.441 17.8992 225.936 16.1747 226.429 14.619C227.439 14.3724 228.453 14.147 229.473 13.9413ZM211.452 20.2105C212.163 19.8382 212.876 19.4818 213.593 19.1407C211.743 22.7351 209.701 26.8955 208.284 30.339C204.354 39.8875 202.411 45.4517 200.424 55.5844C199.062 62.5329 198.953 67.7269 198.836 73.3542C198.761 76.9164 198.683 80.6522 198.281 85.1166C197.868 89.7053 197.21 96.0979 196.857 99.4787C195.579 99.268 194.31 99.05 193.06 98.828C193.363 95.3243 193.871 89.4227 194.232 85.1166C194.578 80.9877 194.666 77.4785 194.749 74.1555C194.897 68.199 195.031 62.8409 196.614 55.5844C198.839 45.3819 200.761 39.6812 205.426 30.339C207.008 27.1714 209.275 23.5051 211.452 20.2105Z" fill="#F3C66D"/>
<path d="M165.891 109.408C167.7 105.516 169.85 103.881 173.988 102.74C180.895 100.834 180.619 102.009 187.038 102.74C197.609 103.943 202.89 107.683 213.06 110.809C220.54 113.107 226.082 113.652 233.767 115.124C247.307 117.718 251.496 117.773 265.205 116.315C276.865 115.074 284.249 112.847 295.928 111.79C305.892 110.888 316.03 108.235 325.698 110.809C331.256 112.288 331.702 112.966 336.112 116.659C340.618 120.432 341.203 125.188 342.082 132.345L342.132 132.748C343.091 140.545 340.597 146.78 336.112 153.23C331.433 159.959 327.899 159.319 320.459 162.757C309.583 167.781 297.848 166.832 285.925 167.996C268.833 169.665 264.251 168.953 247.104 167.996C229.61 167.02 222.187 167.001 205.188 162.757C191.768 159.406 194.947 160.613 179.228 154.183C174.692 152.327 166.69 147.089 164.938 142.513C162.599 136.407 163.033 132.476 163.033 125.938C163.033 120.029 163.4 114.766 165.891 109.408Z" fill="#F3C66D"/>
<path fill-rule="evenodd" clip-rule="evenodd" d="M188.307 157.876C187.117 157.405 185.727 156.842 184.032 156.15L181.609 145.134V131.558L184.229 114.649L190.421 103.455H191.532C192.439 103.643 193.31 103.85 194.154 104.075L188.277 115.601L185.181 131.558V145.372L188.307 157.876ZM213.703 164.7C212.188 164.393 210.605 164.048 208.93 163.66L206.14 147.992V127.271L209.068 109.477C210.313 109.924 211.625 110.368 213.03 110.8L210.188 126.319L210.665 147.992L213.703 164.7ZM239.363 167.579C237.763 167.492 236.244 167.406 234.781 167.316L232.814 151.802V132.749L234.876 115.336C236.517 115.645 238.019 115.914 239.418 116.145L237.577 131.558V150.611L239.363 167.579ZM270.352 168.988C269.151 169.004 267.983 169.003 266.817 168.986L269.015 151.802V139.18L266.459 116.177C267.425 116.066 268.362 115.948 269.276 115.824L273.302 133.94V149.182L270.352 168.988ZM301.745 166.98C299.948 167.118 298.14 167.22 296.322 167.316L299.5 151.802L301.405 133.94L295.702 111.811C295.777 111.804 295.852 111.798 295.928 111.791C297.379 111.659 298.835 111.491 300.292 111.307C301.962 115.428 305.724 125.415 306.168 132.749C306.457 137.511 305.972 140.727 305.377 144.672C305.168 146.054 304.946 147.525 304.739 149.182C304.005 155.069 302.437 163.409 301.745 166.98ZM326.789 160.254C326.481 160.367 326.166 160.482 325.843 160.599C324.518 161.08 323.056 161.611 321.393 162.338C321.774 159.655 322.268 155.754 322.363 152.993C322.522 148.389 322.363 136.798 322.363 136.798C322.363 136.798 321.252 129.653 320.934 127.271C320.617 124.89 315.457 110.838 315.457 110.838L318.52 109.757C318.929 109.775 319.337 109.799 319.745 109.829C320.732 111.58 324.506 118.436 325.936 123.461C327.144 127.708 327.383 130.337 327.763 134.515L327.81 135.029L327.841 135.369C328.428 141.76 328.329 145.403 327.841 151.802C327.646 154.362 327.2 157.589 326.789 160.254Z" fill="#E2AE4A"/>
<path fill-rule="evenodd" clip-rule="evenodd" d="M173.987 102.741C169.849 103.882 167.699 105.517 165.89 109.409C163.399 114.767 163.032 120.031 163.032 125.939C163.032 126.862 163.023 127.733 163.015 128.565C162.965 133.63 162.929 137.27 164.937 142.514C166.689 147.09 174.691 152.329 179.227 154.184C187.736 157.665 190.707 158.908 193.772 159.847C196.368 160.643 199.032 161.221 205.187 162.758C220.459 166.571 228.003 166.974 242.064 167.724C243.653 167.809 245.326 167.898 247.103 167.997C249.497 168.131 251.646 168.26 253.618 168.378C264.226 169.014 269.722 169.344 280.724 168.463C287.147 165.096 293.514 160.638 296.88 155.136C297.458 154.191 298.038 153.289 298.6 152.413C301.829 147.383 304.49 143.239 303.072 137.036C302.158 133.033 300.338 130.967 297.812 128.097C297.511 127.755 297.201 127.402 296.88 127.033C291.107 120.384 277.589 115.363 277.589 115.363L275.315 114.901C272.193 115.426 268.915 115.921 265.204 116.316C251.495 117.774 247.306 117.719 233.766 115.125C231.592 114.709 229.589 114.366 227.666 114.038C222.79 113.204 218.423 112.458 213.059 110.81C209.446 109.699 206.45 108.512 203.615 107.387C198.469 105.347 193.853 103.516 187.037 102.741C186.368 102.665 185.772 102.584 185.233 102.502H174.877C174.594 102.576 174.298 102.655 173.987 102.741Z" fill="#F7D674"/>
<path fill-rule="evenodd" clip-rule="evenodd" d="M191.531 103.455H190.42C190.42 103.455 185.965 109.965 184.228 114.649C182.283 119.891 182.076 123.532 181.795 128.486C181.74 129.453 181.682 130.47 181.608 131.558L181.568 132.138C181.231 137.075 181.026 140.062 181.608 145.134C182.032 148.837 183.398 154.04 183.971 156.125C185.659 156.814 187.047 157.377 188.235 157.848C187.533 155.639 185.707 149.644 185.18 145.372C184.519 140.018 184.706 136.932 185.18 131.558C185.738 125.235 186.136 121.578 188.276 115.601C189.757 111.466 193.009 105.888 194.102 104.061C193.274 103.842 192.42 103.639 191.531 103.455ZM209.023 109.461C208.412 112.403 206.657 121.178 206.139 127.271C205.452 135.334 205.37 139.937 206.139 147.992C206.631 153.148 208.13 160.367 208.846 163.641C210.526 164.031 212.113 164.377 213.631 164.686C212.894 161.327 211.258 153.529 210.664 147.992C209.761 139.574 209.415 134.749 210.187 126.319C210.663 121.123 212.269 113.79 212.962 110.78C211.566 110.349 210.262 109.906 209.023 109.461ZM234.852 115.332C234.474 117.838 233.178 126.702 232.813 132.749C232.365 140.176 232.318 144.378 232.813 151.802C233.156 156.951 234.255 164.278 234.732 167.313C236.199 167.404 237.723 167.49 239.329 167.577C238.933 164.588 237.883 156.331 237.576 150.611C237.177 143.181 237.097 138.984 237.576 131.558C237.923 126.178 239.08 118.266 239.399 116.142C237.999 115.911 236.495 115.641 234.852 115.332ZM266.483 116.174C266.904 118.929 268.7 131.021 269.014 139.18C269.203 144.105 269.251 146.879 269.014 151.802C268.75 157.267 267.638 164.745 266.95 168.988C268.112 169.004 269.277 169.004 270.476 168.986C271.311 164.621 272.916 155.635 273.301 149.182L273.313 148.977C273.659 143.162 273.86 139.797 273.301 133.94C272.708 127.726 270.27 118.944 269.359 115.813C268.426 115.94 267.469 116.06 266.483 116.174ZM301.305 132.557C301.349 133.027 301.383 133.489 301.404 133.94C301.657 139.262 301.037 142.803 300.26 147.236L300.26 147.237L300.26 147.238C300.068 148.338 299.865 149.492 299.665 150.743C302.377 146.423 304.33 142.54 303.072 137.036C302.661 135.234 302.066 133.824 301.305 132.557Z" fill="#F3C66D"/>
</g>
</svg>
