<svg width="507" height="507" viewBox="0 0 507 507" fill="none" xmlns="http://www.w3.org/2000/svg">
<mask id="mask0_5402_3185" style="mask-type:alpha" maskUnits="userSpaceOnUse" x="0" y="0" width="507" height="507">
<circle cx="253.5" cy="253.5" r="253.5" fill="#DAE5D7"/>
</mask>
<g mask="url(#mask0_5402_3185)">
<circle cx="244" cy="225" r="282" fill="#DAE5D7"/>
<path d="M66.0002 473.5C62.1579 461.089 72.5001 406.5 133 355L369 339.5C448.5 402.5 446.256 459.566 445 473.5C421.64 610.45 104.893 599.127 66.0002 473.5Z" fill="#504949"/>
<path d="M277.292 360.679C274.834 360.976 226.218 365.759 206.39 367.794C203.239 368.117 200.176 369.064 197.517 370.784C150.65 401.088 166.22 459.634 157.237 512.206C138.756 595.643 135.215 617.007 148.696 626.537C161.575 635.64 364.815 614.896 382.959 613.023C383.916 612.925 384.726 612.776 385.666 612.57C402.191 608.944 406.041 611.204 377.053 531.658C365.942 501.169 367.42 517.366 359.065 464.919C343.529 367.402 314.447 361.279 314.447 361.279C314.447 361.279 298.104 358.169 277.292 360.679Z" fill="#FCEDC6"/>
<path d="M330 373.5C255.5 369 224.5 360.5 184.5 381.5C180.5 385.5 177.5 390 174.5 395C191.667 406.833 229.5 417.5 256.5 417.5C294.634 417.5 327.333 401.333 340.5 395.5C337 385.5 334.882 382.091 330 373.5Z" fill="#EBDBB0"/>
<path d="M126.5 361C135 366 181.667 372.333 190.5 375.5C190.5 377.5 177.5 387.5 175 395C138.5 379.5 127 363.833 126.5 361Z" fill="#3C3333"/>
<path d="M384.5 352C376 357 339.833 371.833 331 375C334.5 381 338 389 341 395.5C372.5 375 383 362 384.5 352Z" fill="#3C3333"/>
<mask id="mask1_5402_3185" style="mask-type:alpha" maskUnits="userSpaceOnUse" x="66" y="86" width="376" height="301">
<path d="M434.492 205.049C421.715 176.301 362.758 70.8885 231.052 87.8321C170.992 95.5585 145.464 115.42 106.471 151.366C55.5645 198.295 65.7813 266.582 69.1171 288.049C73.5276 316.433 80.8419 332.049 92.7243 345.549C104.607 359.049 128.249 368.026 169.731 376.771C253.913 394.517 349.899 385.721 383.522 362.049C399.082 351.095 418.049 340.549 425.908 325.549C443.919 291.174 446.732 232.587 434.492 205.049Z" fill="#504949"/>
</mask>
<g mask="url(#mask1_5402_3185)">
<path d="M214.811 70.4653C66.5646 84.266 36.819 217.408 46.6875 281.184C51.2932 310.948 72.6319 352.579 83.7796 365.299C94.9273 378.02 112.837 388.823 169.855 400.846C257.765 419.384 363.386 399.444 395.802 371.605C473.105 305.215 451.723 211.99 432.535 177.663C419.194 147.517 363.057 56.6646 214.811 70.4653Z" fill="#504949"/>
<path d="M132.964 201.549C104.353 219.193 96.507 261.826 94.8703 280.549C90.9366 325.549 120.088 352.049 164.083 373.549C174.267 378.526 174.653 380.314 205.395 383.549C258.294 389.115 241.538 402.674 300.897 389.549C326.803 383.821 320.749 389.549 349.185 375.549L349.615 375.337C375.467 362.611 407.69 346.748 411.958 292.723C413.194 277.079 411.958 253.605 402.815 230.484C398.413 219.351 388.947 205.118 365.227 194.051C341.506 182.983 315.142 178.061 293.605 182.918C278.235 186.385 265.017 190.573 256.027 199.125C251.67 203.269 242.609 203.531 238.037 199.626C228.81 191.744 216.405 188.857 203.698 185.986C185.919 181.969 154.298 188.392 132.964 201.549Z" fill="#FCEDC6"/>
<path d="M228.486 293.277C225.711 294.435 212.298 303.262 212.298 308.471C212.298 313.681 223.283 321.267 226.174 322.363C233.112 324.995 246.71 329.83 260.401 326.705C274.092 323.579 278.903 321.929 283.528 316.72C288.154 311.51 291.223 306.762 284.916 300.25C278.608 293.738 260.864 285.897 249.698 286.792C239.189 287.634 236.812 289.804 228.486 293.277Z" fill="#FEA34A"/>
<path d="M282.046 307.722C269.14 314.573 234.055 316.078 220.882 309.501" stroke="#B0661E" stroke-width="5" stroke-linecap="round"/>
<ellipse cx="18.5557" cy="16.9247" rx="18.5557" ry="16.9247" transform="matrix(0.928977 -0.370138 0.375032 0.927012 135.11 268.785)" fill="#562528"/>
<ellipse cx="18.5094" cy="16.9677" rx="18.5094" ry="16.9677" transform="matrix(-0.91062 -0.413244 -0.422365 0.906426 365.817 270.347)" fill="#562528"/>
</g>
<circle cx="167" cy="273" r="4" fill="white"/>
<circle cx="348" cy="273" r="4" fill="white"/>
<path d="M180.894 67.9182C177.798 82.4462 180.894 139.367 180.894 139.367H328.079C328.079 139.367 329.27 90.7819 325.936 73.1578C322.601 55.5337 322.125 51.2468 309.979 37.1951C297.832 23.1435 270.92 21 252.105 21C233.29 21 215.428 23.7387 199.709 37.1951C183.99 50.6515 182.351 61.0814 180.894 67.9182Z" fill="#F3C66D"/>
<path fill-rule="evenodd" clip-rule="evenodd" d="M211.856 127.221C211.856 127.221 211.739 101.463 211.856 94.1158C211.883 92.4126 211.9 90.7635 211.916 89.1532C212.01 79.9404 212.091 71.9975 214 62.4401C215.634 54.252 217.736 48.8203 220.369 42.0148C221.066 40.2125 221.8 38.3138 222.573 36.2421C223.364 34.123 224.156 31.3688 224.943 28.6286L224.943 28.6285C225.441 26.8983 225.936 25.1735 226.429 23.6177C227.439 23.3712 228.453 23.1458 229.473 22.9401C228.369 27.7199 226.84 34.3276 225.67 39.3382C224.843 42.8759 224.038 45.835 223.276 48.6375C221.912 53.649 220.685 58.1598 219.715 64.5836C218.339 73.7045 218.259 79.726 218.154 87.6625L218.154 87.6628L218.154 87.6632C218.127 89.6653 218.099 91.7894 218.048 94.1158C217.887 101.462 218.048 127.221 218.048 127.221H211.856ZM240.798 21.402C241.102 25.5596 241.505 31.6646 241.626 36.2421C241.727 40.0412 241.697 42.759 241.664 45.7988C241.646 47.4458 241.626 49.1872 241.626 51.2464V79.1115C241.23 85.4625 240.436 100.308 240.436 100.308C240.436 100.308 237.26 126.903 236.625 131.507L242.817 132.46C242.817 132.46 245.841 106.928 246.152 100.308C246.403 94.9452 246.328 91.1044 246.245 86.8089V86.8087V86.8085V86.8084V86.8082V86.8081C246.199 84.4809 246.152 82.0202 246.152 79.1115C246.152 75.2874 246.234 72.0511 246.313 68.9904V68.9903C246.457 63.3415 246.586 58.2908 246.152 51.2464C245.789 45.3715 245.438 42.0845 244.723 36.2421C244.155 31.6085 243.142 25.44 242.43 21.2858C241.885 21.3209 241.341 21.3595 240.798 21.402ZM255.749 21.0264C257.376 25.1537 259.76 31.4428 261.156 36.2421C263.248 43.4366 264.019 47.6874 265.324 54.8777L265.443 55.5333C266.712 62.5231 267.222 66.8586 267.975 73.2593L267.975 73.2594L267.977 73.2716C268.079 74.1438 268.187 75.0545 268.301 76.0154C268.504 77.7207 268.697 79.2779 268.879 80.7459C269.619 86.7064 270.176 91.1969 270.444 98.1646C270.666 103.927 271.159 131.507 271.159 131.507L276.636 129.364C276.636 126.899 276.458 120.332 276.279 113.764L276.279 113.762C276.101 107.195 275.922 100.629 275.922 98.1646C275.922 98.1646 274.57 84.6327 273.302 76.0154C272.051 67.5133 271.191 62.7665 269.492 54.3425C269.094 52.3702 268.78 50.6277 268.485 48.992L268.485 48.9891L268.485 48.9889L268.485 48.9888C267.719 44.7376 267.083 41.2082 265.443 36.2421C263.836 31.3765 260.825 25.1856 258.719 21.0934C257.714 21.0636 256.724 21.0416 255.749 21.0264ZM275.055 22.3597C277.467 25.9295 281.79 32.5524 284.258 37.6711C287.491 44.3784 288.739 48.4158 290.926 55.5333C294.002 65.5431 295.413 71.3321 296.642 81.7313C297.43 88.3919 299.977 121.266 299.977 121.266L306.407 120.552C306.407 120.552 303.266 86.501 302.12 79.1115L301.998 78.3239C300.359 67.7465 299.382 61.4356 295.451 51.2464C292.727 44.1833 290.928 40.2563 286.878 33.8605C284.597 30.2596 281 25.798 278.555 22.8811C277.392 22.6896 276.224 22.5163 275.055 22.3597ZM297.915 28.4783C299.814 31.559 302.383 35.8953 304.025 39.3382C308.496 48.7089 310.035 54.4649 312.361 64.5836C313.447 69.3073 313.91 72.6067 314.464 76.5492C314.686 78.129 314.922 79.812 315.219 81.7313C315.669 84.6428 316.116 87.1859 316.536 89.5733L316.537 89.5738L316.537 89.5742L316.537 89.5743C317.588 95.5538 318.469 100.557 318.791 107.929C319.007 112.854 318.791 120.552 318.791 120.552L324.031 121.266V107.929C324.031 107.929 321.173 88.003 319.744 79.1115L319.726 79.0017C318.313 70.2088 318.092 68.8345 316.41 62.4401C316.245 61.813 316.085 61.2022 315.929 60.6059L315.925 60.5933L315.925 60.5905C313.603 51.7249 312.119 46.0592 307.36 37.6711C306.254 35.7223 304.752 33.4937 303.279 31.4342C301.603 30.3414 299.806 29.3598 297.915 28.4783ZM213.593 28.139C211.743 31.7336 209.701 35.8945 208.284 39.3382C204.353 48.8867 202.411 54.4509 200.424 64.5836C199.062 71.5321 198.953 76.7261 198.835 82.3534C198.761 85.9156 198.683 89.6514 198.281 94.1158C197.694 100.633 196.614 115.074 196.614 115.074H192.803C192.803 115.074 193.686 100.627 194.232 94.1158C194.578 89.9869 194.666 86.4777 194.749 83.1547C194.897 77.1982 195.031 71.8401 196.614 64.5836C198.839 54.3811 200.76 48.6804 205.426 39.3382C207.008 36.1703 209.275 32.5035 211.453 29.2086C212.163 28.8363 212.877 28.48 213.593 28.139Z" fill="#E2AE4A"/>
<path fill-rule="evenodd" clip-rule="evenodd" d="M179.648 105.198C189.184 107.232 204.167 110.096 215.404 110.697C219.038 110.891 222.45 111.143 225.705 111.384C241.457 112.547 253.562 113.441 269.634 106.243C282.893 100.305 291.372 95.9279 299.237 83.7131C305.334 74.2456 306.215 71.0813 306.168 59.8208C306.14 52.9877 304.059 48.7658 301.417 43.4076C300.72 41.9945 299.985 40.5024 299.237 38.8624C296.793 33.4976 292.009 28.6674 286.376 24.4891C275.014 21.6364 262.357 21 252.105 21C233.29 21 215.428 23.7387 199.709 37.1951C184.631 50.103 182.508 60.226 181.074 67.0642C181.013 67.3548 180.954 67.6395 180.894 67.9182C179.47 74.5991 179.356 90.2452 179.648 105.198Z" fill="#F7D674"/>
<path fill-rule="evenodd" clip-rule="evenodd" d="M245.241 112.087C243.194 112.178 241.14 112.19 239.058 112.145C239.692 106.96 240.436 100.309 240.436 100.309C240.436 100.309 241.23 85.4634 241.627 79.1123V51.2472C241.627 49.188 241.646 47.4466 241.664 45.7996C241.697 42.7598 241.727 40.042 241.627 36.2429C241.506 31.6655 241.102 25.5607 240.798 21.403C241.341 21.3606 241.885 21.3219 242.43 21.2869C243.142 25.4411 244.155 31.6094 244.723 36.2429C245.438 42.0853 245.789 45.3723 246.152 51.2472C246.586 58.2916 246.457 63.3423 246.313 68.9911V68.9912C246.235 72.0519 246.152 75.2882 246.152 79.1123C246.152 82.021 246.2 84.4818 246.245 86.809V86.8092V86.8093V86.8095V86.8097C246.328 91.1052 246.403 94.946 246.152 100.309C245.984 103.898 245.578 108.565 245.241 112.087ZM275.922 103.342C274.218 104.164 272.428 104.986 270.54 105.836C270.551 103.282 270.533 100.465 270.444 98.1654C270.176 91.1976 269.619 86.7072 268.879 80.7465C268.697 79.2786 268.504 77.7214 268.301 76.0162C268.186 75.0508 268.079 74.1362 267.975 73.2602C267.222 66.8595 266.712 62.524 265.443 55.5341L265.324 54.8784C264.02 47.6881 263.248 43.4373 261.156 36.2429C259.76 31.4437 257.376 25.1546 255.749 21.0273C256.724 21.0426 257.715 21.0645 258.719 21.0944C260.825 25.1866 263.836 31.3773 265.443 36.2429C267.083 41.209 267.719 44.7385 268.485 48.9898C268.78 50.6263 269.094 52.3698 269.492 54.3433C271.191 62.7673 272.051 67.5141 273.302 76.0162C274.57 84.6335 275.922 98.1654 275.922 98.1654V103.342ZM302.107 79.0259C301.31 80.4338 300.363 81.9658 299.238 83.7123C298.531 84.8115 297.818 85.8472 297.097 86.8263C296.975 85.0412 296.826 83.2829 296.642 81.7321C295.413 71.3329 294.002 65.5439 290.926 55.5341C288.739 48.4166 287.491 44.3792 284.258 37.6719C281.79 32.5532 277.467 25.9304 275.055 22.3605C276.224 22.5171 277.392 22.6904 278.555 22.8819C281 25.7988 284.598 30.2604 286.878 33.8613C290.928 40.2571 292.727 44.1841 295.452 51.2472C299.382 61.4364 300.36 67.7474 301.998 78.3249L302.107 79.0259ZM229.473 22.9413C228.369 27.7211 226.84 34.3285 225.67 39.339C224.843 42.8767 224.038 45.8358 223.276 48.6383C221.912 53.6498 220.685 58.1606 219.716 64.5844C218.339 73.7053 218.259 79.7268 218.154 87.6633L218.154 87.6636L218.154 87.664C218.128 89.6661 218.099 91.7902 218.048 94.1166C217.93 99.5367 217.986 107.201 218.024 110.848C217.164 110.794 216.291 110.744 215.405 110.696C214.251 110.635 213.058 110.549 211.835 110.443C211.808 106.658 211.773 99.3441 211.856 94.1166C211.883 92.4133 211.9 90.7643 211.917 89.154C212.011 79.9412 212.092 71.9983 214 62.4409C215.634 54.2528 217.736 48.8211 220.369 42.0156C221.066 40.2133 221.801 38.3146 222.574 36.2429C223.364 34.1238 224.156 31.3696 224.944 28.6294L224.944 28.6293C225.441 26.8992 225.936 25.1747 226.429 23.619C227.439 23.3724 228.453 23.147 229.473 22.9413ZM211.452 29.2105C212.163 28.8382 212.876 28.4818 213.593 28.1407C211.743 31.7351 209.701 35.8955 208.284 39.339C204.354 48.8875 202.411 54.4517 200.424 64.5844C199.062 71.5329 198.953 76.7269 198.836 82.3542C198.761 85.9164 198.683 89.6522 198.281 94.1166C197.868 98.7053 197.21 105.098 196.857 108.479C195.579 108.268 194.31 108.05 193.06 107.828C193.363 104.324 193.871 98.4227 194.232 94.1166C194.578 89.9877 194.666 86.4785 194.749 83.1555C194.897 77.199 195.031 71.8409 196.614 64.5844C198.839 54.3819 200.761 48.6812 205.426 39.339C207.008 36.1714 209.275 32.5051 211.452 29.2105Z" fill="#F3C66D"/>
<path d="M165.89 118.408C167.7 114.516 169.85 112.881 173.988 111.74C180.895 109.834 180.619 111.009 187.038 111.74C197.609 112.943 202.89 116.683 213.06 119.809C220.54 122.107 226.082 122.652 233.767 124.124C247.307 126.718 251.496 126.773 265.204 125.315C276.865 124.074 284.249 121.847 295.928 120.79C305.892 119.888 316.03 117.235 325.698 119.809C331.256 121.288 331.702 121.966 336.112 125.659C340.618 129.432 341.203 134.188 342.082 141.345L342.131 141.748C343.091 149.545 340.597 155.78 336.112 162.23C331.432 168.959 327.899 168.319 320.458 171.757C309.583 176.781 297.848 175.832 285.925 176.996C268.832 178.665 264.251 177.953 247.104 176.996C229.61 176.02 222.187 176.001 205.187 171.757C191.768 168.406 194.946 169.613 179.227 163.183C174.692 161.327 166.69 156.089 164.938 151.513C162.599 145.407 163.032 141.476 163.032 134.938C163.032 129.029 163.4 123.766 165.89 118.408Z" fill="#F3C66D"/>
<path fill-rule="evenodd" clip-rule="evenodd" d="M188.307 166.876C187.117 166.405 185.727 165.842 184.032 165.15L181.609 154.134V140.558L184.229 123.649L190.421 112.455H191.532C192.439 112.643 193.31 112.85 194.154 113.075L188.277 124.601L185.181 140.558V154.372L188.307 166.876ZM213.703 173.7C212.188 173.393 210.605 173.048 208.93 172.66L206.14 156.992V136.271L209.068 118.477C210.313 118.924 211.625 119.368 213.03 119.8L210.188 135.319L210.665 156.992L213.703 173.7ZM239.363 176.579C237.763 176.492 236.244 176.406 234.781 176.316L232.814 160.802V141.749L234.876 124.336C236.517 124.645 238.019 124.914 239.418 125.145L237.577 140.558V159.611L239.363 176.579ZM270.352 177.988C269.151 178.004 267.983 178.003 266.817 177.986L269.015 160.802V148.18L266.459 125.177C267.425 125.066 268.362 124.948 269.276 124.824L273.302 142.94V158.182L270.352 177.988ZM301.745 175.98C299.948 176.118 298.14 176.22 296.322 176.316L299.5 160.802L301.405 142.94L295.702 120.811C295.777 120.804 295.852 120.798 295.928 120.791C297.379 120.659 298.835 120.491 300.292 120.307C301.962 124.428 305.724 134.415 306.168 141.749C306.457 146.511 305.972 149.727 305.377 153.672C305.168 155.054 304.946 156.525 304.739 158.182C304.005 164.069 302.437 172.409 301.745 175.98ZM326.789 169.254C326.481 169.367 326.166 169.482 325.843 169.599C324.518 170.08 323.056 170.611 321.393 171.338C321.774 168.655 322.268 164.754 322.363 161.993C322.522 157.389 322.363 145.798 322.363 145.798C322.363 145.798 321.252 138.653 320.934 136.271C320.617 133.89 315.457 119.838 315.457 119.838L318.52 118.757C318.929 118.775 319.337 118.799 319.745 118.829C320.732 120.58 324.506 127.436 325.936 132.461C327.144 136.708 327.383 139.337 327.763 143.515L327.81 144.029L327.841 144.369C328.428 150.76 328.329 154.403 327.841 160.802C327.646 163.362 327.2 166.589 326.789 169.254Z" fill="#E2AE4A"/>
<path fill-rule="evenodd" clip-rule="evenodd" d="M173.987 111.741C169.849 112.882 167.699 114.517 165.89 118.409C163.399 123.767 163.032 129.031 163.032 134.939C163.032 135.862 163.023 136.733 163.015 137.565C162.965 142.63 162.929 146.27 164.937 151.514C166.689 156.09 174.691 161.329 179.227 163.184C187.736 166.665 190.707 167.908 193.772 168.847C196.368 169.643 199.032 170.221 205.187 171.758C220.459 175.571 228.003 175.974 242.064 176.724C243.653 176.809 245.326 176.898 247.103 176.997C249.497 177.131 251.646 177.26 253.618 177.378C264.226 178.014 269.722 178.344 280.724 177.463C287.147 174.096 293.514 169.638 296.88 164.136C297.458 163.191 298.038 162.289 298.6 161.413C301.829 156.383 304.49 152.239 303.072 146.036C302.158 142.033 300.338 139.967 297.812 137.097C297.511 136.755 297.201 136.402 296.88 136.033C291.107 129.384 277.589 124.363 277.589 124.363L275.315 123.901C272.193 124.426 268.915 124.921 265.204 125.316C251.495 126.774 247.306 126.719 233.766 124.125C231.592 123.709 229.589 123.366 227.666 123.038C222.79 122.204 218.423 121.458 213.059 119.81C209.446 118.699 206.45 117.512 203.615 116.387C198.469 114.347 193.853 112.516 187.037 111.741C186.368 111.665 185.772 111.584 185.233 111.502H174.877C174.594 111.576 174.298 111.655 173.987 111.741Z" fill="#F7D674"/>
<path fill-rule="evenodd" clip-rule="evenodd" d="M191.531 112.455H190.42C190.42 112.455 185.965 118.965 184.228 123.649C182.283 128.891 182.076 132.532 181.795 137.486C181.74 138.453 181.682 139.47 181.608 140.558L181.568 141.138C181.231 146.075 181.027 149.062 181.608 154.134C182.032 157.837 183.398 163.04 183.971 165.125C185.66 165.814 187.047 166.377 188.236 166.848C187.533 164.639 185.707 158.644 185.18 154.372C184.52 149.018 184.706 145.932 185.18 140.558C185.738 134.235 186.136 130.578 188.276 124.601C189.757 120.466 193.009 114.888 194.102 113.061C193.274 112.842 192.42 112.639 191.531 112.455ZM209.023 118.461C208.412 121.403 206.658 130.178 206.139 136.271C205.452 144.334 205.37 148.937 206.139 156.992C206.631 162.148 208.13 169.367 208.846 172.641C210.526 173.031 212.113 173.377 213.631 173.686C212.894 170.327 211.258 162.529 210.664 156.992C209.761 148.574 209.415 143.749 210.187 135.319C210.663 130.123 212.27 122.79 212.962 119.78C211.566 119.349 210.262 118.906 209.023 118.461ZM234.852 124.332C234.474 126.838 233.178 135.702 232.813 141.749C232.365 149.176 232.318 153.378 232.813 160.802C233.156 165.951 234.255 173.278 234.732 176.313C236.2 176.404 237.723 176.49 239.329 176.577C238.933 173.588 237.883 165.331 237.576 159.611C237.177 152.181 237.097 147.984 237.576 140.558C237.924 135.178 239.08 127.266 239.399 125.142C237.999 124.911 236.496 124.641 234.852 124.332ZM266.483 125.174C266.905 127.929 268.7 140.021 269.014 148.18C269.203 153.105 269.252 155.879 269.014 160.802C268.75 166.267 267.638 173.745 266.951 177.988C268.112 178.004 269.277 178.004 270.476 177.986C271.311 173.621 272.917 164.635 273.301 158.182L273.313 157.977C273.659 152.162 273.86 148.797 273.301 142.94C272.708 136.726 270.27 127.944 269.359 124.813C268.426 124.94 267.47 125.06 266.483 125.174ZM301.305 141.557C301.349 142.027 301.383 142.489 301.404 142.94C301.657 148.262 301.037 151.803 300.261 156.236L300.26 156.237L300.26 156.238C300.068 157.338 299.866 158.492 299.665 159.743C302.377 155.423 304.331 151.54 303.073 146.036C302.661 144.234 302.066 142.824 301.305 141.557Z" fill="#F3C66D"/>
</g>
</svg>
