<svg width="507" height="507" viewBox="0 0 507 507" fill="none" xmlns="http://www.w3.org/2000/svg">
<mask id="mask0_5450_5293" style="mask-type:alpha" maskUnits="userSpaceOnUse" x="0" y="0" width="507" height="507">
<circle cx="253.5" cy="253.5" r="253.5" fill="#DAE5D7"/>
</mask>
<g mask="url(#mask0_5450_5293)">
<circle cx="244" cy="225" r="282" fill="#DAE5D7"/>
<path d="M66.0001 473.5C62.1577 461.089 72.5 406.5 133 355L369 339.5C448.5 402.5 446.256 459.566 445 473.5C421.64 610.45 104.893 599.127 66.0001 473.5Z" fill="#24205C"/>
<path d="M277.292 360.679C274.834 360.976 226.218 365.759 206.39 367.794C203.239 368.117 200.176 369.064 197.517 370.784C150.65 401.088 166.22 459.634 157.237 512.206C138.756 595.643 135.215 617.007 148.696 626.537C161.575 635.64 364.815 614.896 382.959 613.023C383.916 612.925 384.726 612.776 385.666 612.57C402.191 608.944 406.041 611.204 377.053 531.658C365.942 501.169 367.42 517.366 359.065 464.919C343.529 367.402 314.447 361.279 314.447 361.279C314.447 361.279 298.104 358.169 277.292 360.679Z" fill="#FCEDC6"/>
<path d="M330 373.5C255.5 369 224.5 360.5 184.5 381.5C180.5 385.5 177.5 390 174.5 395C191.667 406.833 229.5 417.5 256.5 417.5C294.634 417.5 327.333 401.333 340.5 395.5C337 385.5 334.882 382.091 330 373.5Z" fill="#EBDBB0"/>
<path d="M126.5 361C135 366 181.667 372.333 190.5 375.5C190.5 377.5 177.5 387.5 175 395C138.5 379.5 127 363.833 126.5 361Z" fill="#24205C"/>
<path d="M384.5 352C376 357 339.833 371.833 331 375C334.5 381 338 389 341 395.5C372.5 375 383 362 384.5 352Z" fill="#24205C"/>
<mask id="mask1_5450_5293" style="mask-type:alpha" maskUnits="userSpaceOnUse" x="66" y="86" width="376" height="301">
<path d="M434.492 205.049C421.715 176.301 362.758 70.8885 231.052 87.8321C170.992 95.5585 145.464 115.42 106.471 151.366C55.5645 198.295 65.7813 266.582 69.1171 288.049C73.5276 316.433 80.8419 332.049 92.7243 345.549C104.607 359.049 128.249 368.026 169.731 376.771C253.913 394.517 349.899 385.721 383.522 362.049C399.082 351.095 418.049 340.549 425.908 325.549C443.919 291.174 446.732 232.587 434.492 205.049Z" fill="#504949"/>
</mask>
<g mask="url(#mask1_5450_5293)">
<path d="M214.811 70.4653C66.5645 84.266 36.8189 217.408 46.6874 281.184C51.293 310.948 72.6318 352.579 83.7795 365.299C94.9272 378.02 112.837 388.823 169.854 400.846C257.765 419.384 363.386 399.444 395.802 371.605C473.105 305.215 451.723 211.99 432.534 177.663C419.194 147.517 363.057 56.6646 214.811 70.4653Z" fill="#24205C"/>
<path d="M132.964 201.549C104.353 219.193 96.507 261.826 94.8703 280.549C90.9366 325.549 120.088 352.049 164.083 373.549C174.267 378.526 174.653 380.314 205.395 383.549C258.294 389.115 241.538 402.674 300.897 389.549C326.803 383.821 320.749 389.549 349.185 375.549L349.615 375.337C375.467 362.611 407.69 346.748 411.958 292.723C413.194 277.079 411.958 253.605 402.815 230.484C398.413 219.351 388.947 205.118 365.227 194.051C341.506 182.983 315.142 178.061 293.605 182.918C278.235 186.385 265.017 190.573 256.027 199.125C251.67 203.269 242.609 203.531 238.037 199.626C228.81 191.744 216.405 188.857 203.698 185.986C185.919 181.969 154.298 188.392 132.964 201.549Z" fill="#FCEDC6"/>
<path d="M228.486 293.277C225.711 294.435 212.298 303.262 212.298 308.471C212.298 313.681 223.283 321.267 226.174 322.363C233.112 324.995 246.71 329.83 260.401 326.705C274.092 323.579 278.903 321.929 283.528 316.72C288.154 311.51 291.223 306.762 284.916 300.25C278.608 293.738 260.864 285.897 249.698 286.792C239.189 287.634 236.812 289.804 228.486 293.277Z" fill="#BC544B"/>
<path d="M282.046 307.722C269.14 314.573 234.055 316.078 220.882 309.501" stroke="#562528" stroke-width="5" stroke-linecap="round"/>
<ellipse cx="18.5557" cy="16.9247" rx="18.5557" ry="16.9247" transform="matrix(0.928977 -0.370138 0.375032 0.927012 135.11 268.785)" fill="#562528"/>
<ellipse cx="18.5094" cy="16.9677" rx="18.5094" ry="16.9677" transform="matrix(-0.91062 -0.413244 -0.422365 0.906426 365.817 270.347)" fill="#562528"/>
</g>
<circle cx="167" cy="273" r="4" fill="white"/>
<circle cx="348" cy="273" r="4" fill="white"/>
<path d="M180.894 75.9182C177.798 90.4462 180.894 147.367 180.894 147.367H328.079C328.079 147.367 329.27 98.7819 325.936 81.1578C322.602 63.5337 322.125 59.2468 309.979 45.1951C297.833 31.1435 270.92 29 252.105 29C233.29 29 215.428 31.7387 199.709 45.1951C183.99 58.6515 182.351 69.0814 180.894 75.9182Z" fill="#F3C66D"/>
<path fill-rule="evenodd" clip-rule="evenodd" d="M211.856 135.221C211.856 135.221 211.739 109.463 211.856 102.116C211.883 100.413 211.9 98.7635 211.916 97.1532C212.01 87.9404 212.091 79.9975 214 70.4401C215.634 62.252 217.736 56.8203 220.369 50.0148C221.066 48.2125 221.8 46.3138 222.573 44.2421C223.364 42.123 224.156 39.3688 224.943 36.6286L224.943 36.6285C225.441 34.8983 225.936 33.1735 226.429 31.6177C227.439 31.3712 228.453 31.1458 229.473 30.9401C228.369 35.7199 226.84 42.3276 225.67 47.3382C224.843 50.8759 224.038 53.835 223.276 56.6375C221.912 61.649 220.685 66.1598 219.715 72.5836C218.339 81.7045 218.259 87.726 218.154 95.6625L218.154 95.6628L218.154 95.6632C218.127 97.6653 218.099 99.7894 218.048 102.116C217.887 109.462 218.048 135.221 218.048 135.221H211.856ZM240.798 29.402C241.102 33.5596 241.505 39.6646 241.626 44.2421C241.727 48.0412 241.697 50.759 241.664 53.7988C241.646 55.4458 241.626 57.1872 241.626 59.2464V87.1115C241.23 93.4625 240.436 108.308 240.436 108.308C240.436 108.308 237.26 134.903 236.625 139.507L242.817 140.46C242.817 140.46 245.841 114.928 246.152 108.308C246.403 102.945 246.328 99.1044 246.245 94.8089V94.8087V94.8085V94.8084V94.8082V94.8081C246.199 92.4809 246.152 90.0202 246.152 87.1115C246.152 83.2874 246.234 80.0511 246.313 76.9904V76.9903C246.457 71.3415 246.586 66.2908 246.152 59.2464C245.789 53.3715 245.438 50.0845 244.723 44.2421C244.155 39.6085 243.142 33.44 242.43 29.2858C241.885 29.3209 241.341 29.3595 240.798 29.402ZM255.749 29.0264C257.376 33.1537 259.76 39.4428 261.156 44.2421C263.248 51.4366 264.019 55.6874 265.324 62.8777L265.443 63.5333C266.712 70.5231 267.222 74.8586 267.975 81.2593L267.975 81.2594L267.977 81.2716C268.079 82.1438 268.187 83.0545 268.301 84.0154C268.504 85.7207 268.697 87.2779 268.879 88.7459C269.619 94.7064 270.176 99.1969 270.444 106.165C270.666 111.927 271.159 139.507 271.159 139.507L276.636 137.364C276.636 134.899 276.458 128.332 276.279 121.764L276.279 121.762C276.101 115.195 275.922 108.629 275.922 106.165C275.922 106.165 274.57 92.6327 273.302 84.0154C272.051 75.5133 271.191 70.7665 269.492 62.3425C269.094 60.3691 268.78 58.6257 268.485 56.9893L268.485 56.9892L268.485 56.9889L268.485 56.9888C267.719 52.7376 267.083 49.2082 265.443 44.2421C263.836 39.3765 260.825 33.1856 258.719 29.0934C257.714 29.0636 256.724 29.0416 255.749 29.0264ZM275.055 30.3597C277.467 33.9295 281.79 40.5524 284.258 45.6711C287.491 52.3784 288.739 56.4158 290.926 63.5333C294.002 73.5431 295.413 79.3321 296.642 89.7313C297.43 96.3919 299.977 129.266 299.977 129.266L306.407 128.552C306.407 128.552 303.266 94.501 302.12 87.1115L301.998 86.3239C300.359 75.7465 299.382 69.4356 295.451 59.2464C292.727 52.1833 290.928 48.2563 286.878 41.8605C284.597 38.2596 281 33.798 278.555 30.8811C277.392 30.6896 276.224 30.5163 275.055 30.3597ZM297.915 36.4783C299.814 39.559 302.383 43.8953 304.025 47.3382C308.496 56.7089 310.035 62.4649 312.361 72.5836C313.447 77.3073 313.91 80.6067 314.464 84.5492C314.686 86.129 314.922 87.812 315.219 89.7313C315.669 92.6428 316.116 95.1859 316.536 97.5733L316.537 97.5738L316.537 97.5742L316.537 97.5743C317.588 103.554 318.469 108.557 318.791 115.929C319.007 120.854 318.791 128.552 318.791 128.552L324.031 129.266V115.929C324.031 115.929 321.173 96.003 319.744 87.1115L319.726 87.0017C318.313 78.2088 318.092 76.8345 316.41 70.4401C316.244 69.8086 316.083 69.1936 315.925 68.5933L315.925 68.5905C313.603 59.7249 312.119 54.0592 307.36 45.6711C306.254 43.7223 304.752 41.4937 303.279 39.4342C301.603 38.3415 299.806 37.3598 297.915 36.4783ZM213.593 36.139C211.743 39.7336 209.701 43.8945 208.284 47.3382C204.353 56.8867 202.411 62.4509 200.424 72.5836C199.062 79.5321 198.953 84.7261 198.835 90.3534C198.761 93.9156 198.683 97.6514 198.281 102.116C197.694 108.633 196.614 123.074 196.614 123.074H192.803C192.803 123.074 193.686 108.627 194.232 102.116C194.578 97.9869 194.666 94.4777 194.749 91.1547C194.897 85.1982 195.031 79.8401 196.614 72.5836C198.839 62.3811 200.76 56.6804 205.426 47.3382C207.008 44.1703 209.275 40.5035 211.453 37.2086C212.163 36.8363 212.877 36.48 213.593 36.139Z" fill="#E2AE4A"/>
<path fill-rule="evenodd" clip-rule="evenodd" d="M179.648 113.198C189.185 115.232 204.167 118.096 215.404 118.697C219.038 118.891 222.45 119.143 225.705 119.384C241.457 120.547 253.562 121.441 269.634 114.243C282.893 108.305 291.372 103.928 299.238 91.7131C305.334 82.2456 306.215 79.0813 306.168 67.8208C306.14 60.9877 304.059 56.7658 301.417 51.4076C300.72 49.9945 299.985 48.5024 299.238 46.8624C296.793 41.4976 292.009 36.6674 286.376 32.4891C275.014 29.6364 262.357 29 252.105 29C233.29 29 215.428 31.7387 199.709 45.1951C184.631 58.103 182.508 68.226 181.074 75.0642C181.013 75.3548 180.954 75.6395 180.894 75.9182C179.471 82.5991 179.356 98.2452 179.648 113.198Z" fill="#F7D674"/>
<path fill-rule="evenodd" clip-rule="evenodd" d="M245.241 120.087C243.194 120.178 241.14 120.19 239.058 120.145C239.692 114.96 240.436 108.309 240.436 108.309C240.436 108.309 241.23 93.4634 241.627 87.1123V59.2472C241.627 57.188 241.646 55.4466 241.664 53.7996C241.697 50.7598 241.727 48.042 241.627 44.2429C241.506 39.6655 241.102 33.5607 240.798 29.403C241.341 29.3606 241.885 29.3219 242.43 29.2869C243.142 33.4411 244.155 39.6094 244.723 44.2429C245.438 50.0853 245.789 53.3723 246.152 59.2472C246.586 66.2916 246.457 71.3423 246.313 76.9911V76.9912C246.235 80.0519 246.152 83.2882 246.152 87.1123C246.152 90.021 246.2 92.4818 246.245 94.809V94.8092V94.8093V94.8095V94.8097C246.328 99.1052 246.403 102.946 246.152 108.309C245.984 111.898 245.578 116.565 245.241 120.087ZM275.922 111.342C274.218 112.164 272.428 112.986 270.54 113.836C270.551 111.282 270.533 108.465 270.444 106.165C270.176 99.1976 269.619 94.7072 268.879 88.7465C268.697 87.2786 268.504 85.7214 268.301 84.0162C268.186 83.0508 268.079 82.1362 267.975 81.2602C267.222 74.8595 266.712 70.524 265.443 63.5341L265.324 62.8784C264.02 55.6881 263.248 51.4373 261.156 44.2429C259.76 39.4437 257.376 33.1546 255.749 29.0273C256.724 29.0426 257.715 29.0645 258.719 29.0944C260.825 33.1866 263.836 39.3773 265.443 44.2429C267.083 49.209 267.719 52.7385 268.485 56.9898C268.78 58.6263 269.094 60.3698 269.492 62.3433C271.191 70.7673 272.051 75.5141 273.302 84.0162C274.57 92.6335 275.922 106.165 275.922 106.165V111.342ZM302.107 87.0259C301.31 88.4338 300.363 89.9658 299.238 91.7123C298.531 92.8115 297.818 93.8472 297.097 94.8263C296.975 93.0412 296.826 91.2829 296.642 89.7321C295.413 79.3329 294.002 73.5439 290.926 63.5341C288.739 56.4166 287.491 52.3792 284.258 45.6719C281.79 40.5532 277.467 33.9304 275.055 30.3605C276.224 30.5171 277.392 30.6904 278.555 30.8819C281 33.7988 284.598 38.2604 286.878 41.8613C290.928 48.2571 292.727 52.1841 295.452 59.2472C299.382 69.4364 300.36 75.7474 301.998 86.3249L302.107 87.0259ZM229.473 30.9413C228.369 35.7211 226.84 42.3285 225.67 47.339C224.843 50.8767 224.038 53.8358 223.276 56.6383C221.912 61.6498 220.685 66.1606 219.716 72.5844C218.339 81.7053 218.259 87.7268 218.154 95.6633L218.154 95.6636L218.154 95.664C218.128 97.6661 218.099 99.7902 218.048 102.117C217.93 107.537 217.986 115.201 218.024 118.848C217.164 118.794 216.291 118.744 215.405 118.696C214.251 118.635 213.058 118.549 211.835 118.443C211.808 114.658 211.773 107.344 211.856 102.117C211.883 100.413 211.9 98.7643 211.917 97.154C212.011 87.9412 212.092 79.9983 214 70.4409C215.634 62.2528 217.736 56.8211 220.369 50.0156C221.066 48.2133 221.801 46.3146 222.574 44.2429C223.364 42.1238 224.156 39.3696 224.944 36.6294L224.944 36.6293C225.441 34.8992 225.936 33.1747 226.429 31.619C227.439 31.3724 228.453 31.147 229.473 30.9413ZM211.452 37.2105C212.163 36.8382 212.876 36.4818 213.593 36.1407C211.743 39.7351 209.701 43.8955 208.284 47.339C204.354 56.8875 202.411 62.4517 200.424 72.5844C199.062 79.5329 198.953 84.7269 198.836 90.3542C198.761 93.9164 198.683 97.6522 198.281 102.117C197.868 106.705 197.21 113.098 196.857 116.479C195.579 116.268 194.31 116.05 193.06 115.828C193.363 112.324 193.871 106.423 194.232 102.117C194.578 97.9877 194.666 94.4785 194.749 91.1555C194.897 85.199 195.031 79.8409 196.614 72.5844C198.839 62.3819 200.761 56.6812 205.426 47.339C207.008 44.1714 209.275 40.5051 211.452 37.2105Z" fill="#F3C66D"/>
<path d="M165.89 126.408C167.7 122.516 169.85 120.881 173.988 119.74C180.895 117.834 180.619 119.009 187.038 119.74C197.609 120.943 202.89 124.683 213.06 127.809C220.54 130.107 226.082 130.652 233.767 132.124C247.307 134.718 251.496 134.773 265.204 133.315C276.865 132.074 284.249 129.847 295.928 128.79C305.892 127.888 316.03 125.235 325.698 127.809C331.256 129.288 331.702 129.966 336.112 133.659C340.618 137.432 341.203 142.188 342.082 149.345L342.131 149.748C343.091 157.545 340.597 163.78 336.112 170.23C331.432 176.959 327.899 176.319 320.458 179.757C309.583 184.781 297.848 183.832 285.925 184.996C268.832 186.665 264.251 185.953 247.104 184.996C229.61 184.02 222.187 184.001 205.187 179.757C191.768 176.406 194.946 177.613 179.227 171.183C174.692 169.327 166.69 164.089 164.938 159.513C162.599 153.407 163.032 149.476 163.032 142.938C163.032 137.029 163.4 131.766 165.89 126.408Z" fill="#F3C66D"/>
<path fill-rule="evenodd" clip-rule="evenodd" d="M188.307 174.876C187.117 174.405 185.727 173.842 184.032 173.15L181.609 162.134V148.558L184.229 131.649L190.421 120.455H191.532C192.439 120.643 193.31 120.85 194.154 121.075L188.277 132.601L185.181 148.558V162.372L188.307 174.876ZM213.703 181.7C212.188 181.393 210.605 181.048 208.93 180.66L206.14 164.992V144.271L209.068 126.477C210.313 126.924 211.625 127.368 213.03 127.8L210.188 143.319L210.665 164.992L213.703 181.7ZM239.363 184.579C237.763 184.492 236.244 184.406 234.781 184.316L232.814 168.802V149.749L234.876 132.336C236.517 132.645 238.019 132.914 239.418 133.145L237.577 148.558V167.611L239.363 184.579ZM270.352 185.988C269.151 186.004 267.983 186.003 266.817 185.986L269.015 168.802V156.18L266.459 133.177C267.425 133.066 268.362 132.948 269.276 132.824L273.302 150.94V166.182L270.352 185.988ZM301.745 183.98C299.948 184.118 298.14 184.22 296.322 184.316L299.5 168.802L301.405 150.94L295.702 128.811C295.777 128.804 295.852 128.798 295.928 128.791C297.379 128.659 298.835 128.491 300.292 128.307C301.962 132.428 305.724 142.415 306.168 149.749C306.457 154.511 305.972 157.727 305.377 161.672C305.168 163.054 304.946 164.525 304.739 166.182C304.005 172.069 302.437 180.409 301.745 183.98ZM326.789 177.254C326.481 177.367 326.166 177.482 325.843 177.599C324.518 178.08 323.056 178.611 321.393 179.338C321.774 176.655 322.268 172.754 322.363 169.993C322.522 165.389 322.363 153.798 322.363 153.798C322.363 153.798 321.252 146.653 320.934 144.271C320.617 141.89 315.457 127.838 315.457 127.838L318.52 126.757C318.929 126.775 319.337 126.799 319.745 126.829C320.732 128.58 324.506 135.436 325.936 140.461C327.144 144.708 327.383 147.337 327.763 151.515L327.81 152.029L327.841 152.369C328.428 158.76 328.329 162.403 327.841 168.802C327.646 171.362 327.2 174.589 326.789 177.254Z" fill="#E2AE4A"/>
<path fill-rule="evenodd" clip-rule="evenodd" d="M173.987 119.741C169.849 120.882 167.699 122.517 165.89 126.409C163.399 131.767 163.032 137.031 163.032 142.939C163.032 143.862 163.023 144.733 163.015 145.565C162.965 150.63 162.929 154.27 164.937 159.514C166.689 164.09 174.691 169.329 179.227 171.184C187.736 174.665 190.707 175.908 193.772 176.847C196.368 177.643 199.032 178.221 205.187 179.758C220.459 183.571 228.003 183.974 242.064 184.724C243.653 184.809 245.326 184.898 247.103 184.997C249.497 185.131 251.646 185.26 253.618 185.378C264.226 186.014 269.722 186.344 280.724 185.463C287.147 182.096 293.514 177.638 296.88 172.136C297.458 171.191 298.038 170.289 298.6 169.413C301.829 164.383 304.49 160.239 303.072 154.036C302.158 150.033 300.338 147.967 297.812 145.097C297.511 144.755 297.201 144.402 296.88 144.033C291.107 137.384 277.589 132.363 277.589 132.363L275.315 131.901C272.193 132.426 268.915 132.921 265.204 133.316C251.495 134.774 247.306 134.719 233.766 132.125C231.592 131.709 229.589 131.366 227.666 131.038C222.79 130.204 218.423 129.458 213.059 127.81C209.446 126.699 206.45 125.512 203.615 124.387C198.469 122.347 193.853 120.516 187.037 119.741C186.368 119.665 185.772 119.584 185.233 119.502H174.877C174.594 119.576 174.298 119.655 173.987 119.741Z" fill="#F7D674"/>
<path fill-rule="evenodd" clip-rule="evenodd" d="M191.531 120.455H190.42C190.42 120.455 185.965 126.965 184.228 131.649C182.283 136.891 182.077 140.532 181.795 145.486C181.74 146.453 181.682 147.47 181.608 148.558L181.568 149.138C181.231 154.075 181.027 157.062 181.608 162.134C182.032 165.837 183.398 171.04 183.971 173.125C185.66 173.814 187.047 174.377 188.236 174.848C187.533 172.639 185.708 166.644 185.18 162.372C184.52 157.018 184.706 153.932 185.18 148.558C185.738 142.235 186.136 138.578 188.277 132.601C189.757 128.466 193.009 122.888 194.102 121.061C193.274 120.842 192.42 120.639 191.531 120.455ZM209.023 126.461C208.413 129.403 206.658 138.178 206.139 144.271C205.452 152.334 205.37 156.937 206.139 164.992C206.631 170.148 208.131 177.367 208.846 180.641C210.526 181.031 212.113 181.377 213.631 181.686C212.895 178.327 211.258 170.529 210.664 164.992C209.761 156.574 209.416 151.749 210.188 143.319C210.663 138.123 212.27 130.79 212.962 127.78C211.566 127.349 210.262 126.906 209.023 126.461ZM234.852 132.332C234.474 134.838 233.178 143.702 232.813 149.749C232.365 157.176 232.318 161.378 232.813 168.802C233.156 173.951 234.255 181.278 234.732 184.313C236.2 184.404 237.723 184.49 239.329 184.577C238.933 181.588 237.883 173.331 237.576 167.611C237.177 160.181 237.097 155.984 237.576 148.558C237.924 143.178 239.08 135.266 239.399 133.142C237.999 132.911 236.496 132.641 234.852 132.332ZM266.483 133.174C266.905 135.929 268.7 148.021 269.014 156.18C269.203 161.105 269.252 163.879 269.014 168.802C268.75 174.267 267.638 181.745 266.951 185.988C268.112 186.004 269.277 186.004 270.476 185.986C271.312 181.621 272.917 172.635 273.301 166.182L273.313 165.977C273.66 160.162 273.86 156.797 273.301 150.94C272.708 144.726 270.27 135.944 269.359 132.813C268.427 132.94 267.47 133.06 266.483 133.174ZM301.305 149.557C301.349 150.027 301.383 150.489 301.404 150.94C301.657 156.262 301.037 159.803 300.261 164.236L300.261 164.237L300.26 164.238C300.068 165.338 299.866 166.492 299.665 167.743C302.377 163.423 304.331 159.54 303.073 154.036C302.661 152.234 302.066 150.824 301.305 149.557Z" fill="#F3C66D"/>
</g>
</svg>
