<svg width="507" height="507" viewBox="0 0 507 507" fill="none" xmlns="http://www.w3.org/2000/svg">
<mask id="mask0_5450_5275" style="mask-type:alpha" maskUnits="userSpaceOnUse" x="0" y="0" width="507" height="507">
<circle cx="253.5" cy="253.5" r="253.5" fill="#DAE5D7"/>
</mask>
<g mask="url(#mask0_5450_5275)">
<circle cx="244" cy="225" r="282" fill="#DAE5D7"/>
<path d="M66.0001 473.5C62.1577 461.089 72.5 406.5 133 355L369 339.5C448.5 402.5 446.256 459.566 445 473.5C421.64 610.45 104.893 599.127 66.0001 473.5Z" fill="#24205C"/>
<path d="M277.292 360.679C274.834 360.976 226.218 365.759 206.39 367.794C203.239 368.117 200.176 369.064 197.517 370.784C150.65 401.088 166.22 459.634 157.237 512.206C138.756 595.643 135.215 617.007 148.696 626.537C161.575 635.64 364.815 614.896 382.959 613.023C383.916 612.925 384.726 612.776 385.666 612.57C402.191 608.944 406.041 611.204 377.053 531.658C365.942 501.169 367.42 517.366 359.065 464.919C343.529 367.402 314.447 361.279 314.447 361.279C314.447 361.279 298.104 358.169 277.292 360.679Z" fill="#FCEDC6"/>
<path d="M330 373.5C255.5 369 224.5 360.5 184.5 381.5C180.5 385.5 177.5 390 174.5 395C191.667 406.833 229.5 417.5 256.5 417.5C294.634 417.5 327.333 401.333 340.5 395.5C337 385.5 334.882 382.091 330 373.5Z" fill="#EBDBB0"/>
<path d="M126.5 361C135 366 181.667 372.333 190.5 375.5C190.5 377.5 177.5 387.5 175 395C138.5 379.5 127 363.833 126.5 361Z" fill="#24205C"/>
<path d="M384.5 352C376 357 339.833 371.833 331 375C334.5 381 338 389 341 395.5C372.5 375 383 362 384.5 352Z" fill="#24205C"/>
<mask id="mask1_5450_5275" style="mask-type:alpha" maskUnits="userSpaceOnUse" x="66" y="86" width="376" height="301">
<path d="M434.492 205.049C421.715 176.301 362.758 70.8885 231.052 87.8321C170.992 95.5585 145.464 115.42 106.471 151.366C55.5645 198.295 65.7813 266.582 69.1171 288.049C73.5276 316.433 80.8419 332.049 92.7243 345.549C104.607 359.049 128.249 368.026 169.731 376.771C253.913 394.517 349.899 385.721 383.522 362.049C399.082 351.095 418.049 340.549 425.908 325.549C443.919 291.174 446.732 232.587 434.492 205.049Z" fill="#504949"/>
</mask>
<g mask="url(#mask1_5450_5275)">
<path d="M214.811 70.4653C66.5645 84.266 36.8189 217.408 46.6874 281.184C51.293 310.948 72.6318 352.579 83.7795 365.299C94.9272 378.02 112.837 388.823 169.854 400.846C257.765 419.384 363.386 399.444 395.802 371.605C473.105 305.215 451.723 211.99 432.534 177.663C419.194 147.517 363.057 56.6646 214.811 70.4653Z" fill="#24205C"/>
<path d="M132.964 201.549C104.353 219.193 96.507 261.826 94.8703 280.549C90.9366 325.549 120.088 352.049 164.083 373.549C174.267 378.526 174.653 380.314 205.395 383.549C258.294 389.115 241.538 402.674 300.897 389.549C326.803 383.821 320.749 389.549 349.185 375.549L349.615 375.337C375.467 362.611 407.69 346.748 411.958 292.723C413.194 277.079 411.958 253.605 402.815 230.484C398.413 219.351 388.947 205.118 365.227 194.051C341.506 182.983 315.142 178.061 293.605 182.918C278.235 186.385 265.017 190.573 256.027 199.125C251.67 203.269 242.609 203.531 238.037 199.626C228.81 191.744 216.405 188.857 203.698 185.986C185.919 181.969 154.298 188.392 132.964 201.549Z" fill="#FCEDC6"/>
<path d="M228.486 293.277C225.711 294.435 212.298 303.262 212.298 308.471C212.298 313.681 223.283 321.267 226.174 322.363C233.112 324.995 246.71 329.83 260.401 326.705C274.092 323.579 278.903 321.929 283.528 316.72C288.154 311.51 291.223 306.762 284.916 300.25C278.608 293.738 260.864 285.897 249.698 286.792C239.189 287.634 236.812 289.804 228.486 293.277Z" fill="#BC544B"/>
<path d="M282.046 307.722C269.14 314.573 234.055 316.078 220.882 309.501" stroke="#562528" stroke-width="5" stroke-linecap="round"/>
<ellipse cx="18.5557" cy="16.9247" rx="18.5557" ry="16.9247" transform="matrix(0.928977 -0.370138 0.375032 0.927012 135.11 268.785)" fill="#562528"/>
<ellipse cx="18.5094" cy="16.9677" rx="18.5094" ry="16.9677" transform="matrix(-0.91062 -0.413244 -0.422365 0.906426 365.817 270.347)" fill="#562528"/>
</g>
<circle cx="167" cy="273" r="4" fill="white"/>
<circle cx="348" cy="273" r="4" fill="white"/>
<path d="M180.957 397.092C192.991 399.026 211.905 401.133 211.905 401.133L218.773 411.969C218.773 411.969 196.337 410.519 182.396 407.22C161.754 402.335 132.046 386.842 132.046 386.842C132.046 386.842 161.688 393.996 180.957 397.092Z" fill="#E8AFC5"/>
<path d="M281.61 429.771L306.926 411.387L309.232 413.454L307.404 420.135L314.136 432.927L317.369 451.943C317.369 451.943 318.28 456.568 317.937 462.331C317.598 468.027 315.673 481.099 315.673 481.099C314.295 490.255 313.909 496.55 311.492 504.908C309.481 511.858 306.945 522.039 304.367 525.039C302.389 527.34 272.405 502.11 272.405 502.11C272.405 502.11 235.042 512.74 232.762 509.213C230.366 505.506 239.422 488.372 244.06 475.145C246.597 467.912 264.891 444.943 264.891 444.943L281.61 429.771Z" fill="#E8AFC5"/>
<path d="M359.353 429.687L331.043 416.365L329.164 418.828L332.21 425.048C332.21 425.048 331.092 431.961 330.187 437.533C328.98 444.968 329.696 456.753 329.696 456.753C329.696 456.753 332.872 470.097 334.288 475.694C336.066 482.726 339.78 490.748 339.78 490.748C342.847 499.484 346.302 503.805 350.241 511.562C353.517 518.014 357.885 524.962 360.979 527.426C363.352 529.317 381.932 499.026 381.932 499.026C381.932 499.026 420.624 502.476 422.203 498.585C423.863 494.495 411.761 479.359 404.729 467.233C400.884 460.602 378.614 441.462 378.614 441.462L359.353 429.687Z" fill="#E8AFC5"/>
<path d="M212.79 424.761C210.859 409.512 207.133 381.493 212.465 378.716C215.994 376.878 225.359 375.975 233.698 375.91C246.402 375.81 252.603 377.472 264.703 381.343C275.718 384.867 285.67 391.19 297.131 392.731C302.641 393.471 305.969 393.892 305.969 393.892L310.364 404.071L307.374 419.589L281.144 441.313L257.1 462.917C257.1 462.917 240.929 478.059 236.495 477.205C234.279 476.777 226.761 459.641 226.761 459.641C226.761 459.641 214.633 439.318 212.79 424.761Z" fill="#F5C6D8"/>
<path d="M427.456 411.125C427.377 395.755 427.408 367.489 421.759 365.433C418.02 364.072 407.545 364.186 399.268 365.211C386.66 366.773 381.802 369.446 370.312 374.866C359.852 379.8 350.813 387.37 339.651 390.395C334.285 391.849 331.041 392.702 331.041 392.702L328.014 403.368L333.007 418.362L361.852 436.47L388.513 454.746C388.513 454.746 406.525 467.644 410.809 466.218C412.951 465.504 418.164 447.532 418.164 447.532C418.164 447.532 427.532 425.799 427.456 411.125Z" fill="#F5C6D8"/>
<path d="M301.535 393.037C301.535 393.037 305.012 391.17 307.429 390.522C317.698 387.767 338.533 387.724 339.14 388.788C339.746 389.851 339.866 392.038 339.866 392.038C339.866 392.038 340.966 406.597 340.216 408.47C339.466 410.343 338.599 411.177 337.722 412.993C337.03 414.425 333.946 424.167 333.946 424.167L309.432 427.153C309.432 427.153 306.561 422.923 306.37 421.288C306.116 419.108 307.996 415.715 308.198 414.608C308.4 413.5 305.144 398.872 305.084 397.779C304.995 396.138 301.535 393.037 301.535 393.037Z" fill="#E8AFC5"/>
<path d="M275.224 403.25C287.276 401.322 306.507 403.733 306.507 403.733C306.507 403.733 298.172 405.928 293.048 408.307C286.316 411.433 283.32 415.558 275.942 416.372C273.179 416.676 271.52 417.477 268.834 416.76C266.312 416.088 264.233 415.61 263.158 413.232C261.959 410.582 263.093 408.239 264.956 406.005C267.59 402.846 271.163 403.9 275.224 403.25Z" fill="#E8AFC5"/>
<path d="M368.183 398.446C355.993 397.844 337.139 402.337 337.139 402.337C337.139 402.337 345.664 403.611 351.017 405.417C358.05 407.79 361.478 411.564 368.901 411.568C371.681 411.569 373.417 412.184 376.008 411.179C378.442 410.235 380.456 409.534 381.266 407.053C382.169 404.288 380.786 402.082 378.691 400.065C375.728 397.212 372.291 398.649 368.183 398.446Z" fill="#E8AFC5"/>
</g>
</svg>
