<svg width="507" height="507" viewBox="0 0 507 507" fill="none" xmlns="http://www.w3.org/2000/svg">
<mask id="mask0_5402_3267" style="mask-type:alpha" maskUnits="userSpaceOnUse" x="0" y="0" width="507" height="507">
<circle cx="253.5" cy="253.5" r="253.5" fill="#DAE5D7"/>
</mask>
<g mask="url(#mask0_5402_3267)">
<circle cx="244" cy="225" r="282" fill="#DAE5D7"/>
<path d="M66.0002 473.5C62.1579 461.089 72.5001 406.5 133 355L369 339.5C448.5 402.5 446.256 459.566 445 473.5C421.64 610.45 104.893 599.127 66.0002 473.5Z" fill="#504949"/>
<path d="M277.292 360.679C274.834 360.976 226.218 365.759 206.39 367.794C203.239 368.117 200.176 369.064 197.517 370.784C150.65 401.088 166.22 459.634 157.237 512.206C138.756 595.643 135.215 617.007 148.696 626.537C161.575 635.64 364.815 614.896 382.959 613.023C383.916 612.925 384.726 612.776 385.666 612.57C402.191 608.944 406.041 611.204 377.053 531.658C365.942 501.169 367.42 517.366 359.065 464.919C343.529 367.402 314.447 361.279 314.447 361.279C314.447 361.279 298.104 358.169 277.292 360.679Z" fill="#FCEDC6"/>
<path d="M330 373.5C255.5 369 224.5 360.5 184.5 381.5C180.5 385.5 177.5 390 174.5 395C191.667 406.833 229.5 417.5 256.5 417.5C294.634 417.5 327.333 401.333 340.5 395.5C337 385.5 334.882 382.091 330 373.5Z" fill="#EBDBB0"/>
<path d="M126.5 361C135 366 181.667 372.333 190.5 375.5C190.5 377.5 177.5 387.5 175 395C138.5 379.5 127 363.833 126.5 361Z" fill="#3C3333"/>
<path d="M384.5 352C376 357 339.833 371.833 331 375C334.5 381 338 389 341 395.5C372.5 375 383 362 384.5 352Z" fill="#3C3333"/>
<mask id="mask1_5402_3267" style="mask-type:alpha" maskUnits="userSpaceOnUse" x="66" y="86" width="376" height="301">
<path d="M434.492 205.049C421.715 176.301 362.758 70.8885 231.052 87.8321C170.992 95.5585 145.464 115.42 106.471 151.366C55.5645 198.295 65.7813 266.582 69.1171 288.049C73.5276 316.433 80.8419 332.049 92.7243 345.549C104.607 359.049 128.249 368.026 169.731 376.771C253.913 394.517 349.899 385.721 383.522 362.049C399.082 351.095 418.049 340.549 425.908 325.549C443.919 291.174 446.732 232.587 434.492 205.049Z" fill="#504949"/>
</mask>
<g mask="url(#mask1_5402_3267)">
<path d="M214.811 70.4653C66.5646 84.266 36.819 217.408 46.6875 281.184C51.2932 310.948 72.6319 352.579 83.7796 365.299C94.9273 378.02 112.837 388.823 169.855 400.846C257.765 419.384 363.386 399.444 395.802 371.605C473.105 305.215 451.723 211.99 432.535 177.663C419.194 147.517 363.057 56.6646 214.811 70.4653Z" fill="#504949"/>
<path d="M132.964 201.549C104.353 219.193 96.507 261.826 94.8703 280.549C90.9366 325.549 120.088 352.049 164.083 373.549C174.267 378.526 174.653 380.314 205.395 383.549C258.294 389.115 241.538 402.674 300.897 389.549C326.803 383.821 320.749 389.549 349.185 375.549L349.615 375.337C375.467 362.611 407.69 346.748 411.958 292.723C413.194 277.079 411.958 253.605 402.815 230.484C398.413 219.351 388.947 205.118 365.227 194.051C341.506 182.983 315.142 178.061 293.605 182.918C278.235 186.385 265.017 190.573 256.027 199.125C251.67 203.269 242.609 203.531 238.037 199.626C228.81 191.744 216.405 188.857 203.698 185.986C185.919 181.969 154.298 188.392 132.964 201.549Z" fill="#FCEDC6"/>
<path d="M228.486 293.277C225.711 294.435 212.298 303.262 212.298 308.471C212.298 313.681 223.283 321.267 226.174 322.363C233.112 324.995 246.71 329.83 260.401 326.705C274.092 323.579 278.903 321.929 283.528 316.72C288.154 311.51 291.223 306.762 284.916 300.25C278.608 293.738 260.864 285.897 249.698 286.792C239.189 287.634 236.812 289.804 228.486 293.277Z" fill="#FEA34A"/>
<path d="M282.046 307.722C269.14 314.573 234.055 316.078 220.882 309.501" stroke="#B0661E" stroke-width="5" stroke-linecap="round"/>
<ellipse cx="18.5557" cy="16.9247" rx="18.5557" ry="16.9247" transform="matrix(0.928977 -0.370138 0.375032 0.927012 135.11 268.785)" fill="#562528"/>
<ellipse cx="18.5094" cy="16.9677" rx="18.5094" ry="16.9677" transform="matrix(-0.91062 -0.413244 -0.422365 0.906426 365.817 270.347)" fill="#562528"/>
</g>
<circle cx="167" cy="273" r="4" fill="white"/>
<circle cx="348" cy="273" r="4" fill="white"/>
<path d="M183.24 83.9098C194.026 69.5779 221.082 60.3018 221.082 60.3018C221.082 60.3018 237.034 56.0021 247.475 55.4538C262.112 54.6851 264.552 55.0322 276.584 56.0861C296.572 58.194 314.62 69.5764 327.04 83.9098C333.067 90.8657 334.026 104.567 334.026 110.047C334.026 116.371 319.273 128.861 305.111 135.974C284.405 146.373 270.225 144.474 247.475 146.302C228.731 147.808 225.546 149.253 204.975 146.302C196.133 145.034 186.36 139.949 180.329 132.812C173.912 125.218 170.759 117.214 171.014 110.89C171.488 99.1579 176.397 93.0021 183.24 83.9098Z" fill="#F4B396"/>
<path fill-rule="evenodd" clip-rule="evenodd" d="M200.598 144.612C200.598 144.612 199.672 134.253 199.212 127.626C197.903 108.755 204.754 96.3739 204.754 96.3739C204.754 96.3739 209.899 84.3582 214.58 78.252C219.52 71.8067 227.049 64.1777 227.049 64.1777C227.049 64.1777 213.874 70.8839 206.502 79.6097C200.908 86.2302 199.234 88.3386 196.184 96.6913C192.404 107.042 191.384 116.614 194.007 127.378C195.729 134.44 200.598 144.612 200.598 144.612Z" fill="#F29D77"/>
<path fill-rule="evenodd" clip-rule="evenodd" d="M292.37 66.2621C297.331 70.2011 301.985 74.8466 304.592 79.8306C310.969 92.0195 311.58 99.2112 307.872 107.991C304.861 115.12 300.498 117.791 294.914 121.21C293.927 121.814 292.901 122.442 291.838 123.122C284.35 127.913 278.522 128.915 271.288 130.16C269.016 130.55 266.606 130.965 263.962 131.528C251.508 134.181 243.743 134.548 232.156 135.097C230.734 135.164 229.256 135.234 227.704 135.311C224.098 135.49 220.91 135.804 217.912 136.098C210.095 136.866 203.579 137.507 194.361 135.311C188.843 133.997 182.129 130.91 176.827 128.173C172.92 121.995 171.028 115.813 171.222 110.723C171.652 99.3926 175.991 93.2788 182.102 84.6674C182.3 84.3889 182.499 84.1077 182.7 83.8237C192.827 69.5348 218.229 60.2866 218.229 60.2866C218.229 60.2866 233.206 55.9997 243.009 55.453C256.752 54.6867 264.817 55.707 277.991 60.2866C278.507 60.466 279.012 60.6404 279.508 60.8115C284.183 62.426 288.017 63.7498 292.37 66.2621Z" fill="#F8C5AF"/>
<path fill-rule="evenodd" clip-rule="evenodd" d="M196.813 135.842C195.717 133.045 194.646 129.997 194.007 127.378C191.384 116.614 192.404 107.042 196.184 96.6913C199.234 88.3386 200.908 86.2302 206.502 79.6097C213.874 70.8839 227.049 64.1777 227.049 64.1777C227.049 64.1777 219.52 71.8067 214.58 78.252C209.899 84.3582 204.754 96.3739 204.754 96.3739C204.754 96.3739 197.903 108.755 199.212 127.626C199.394 130.241 199.648 133.438 199.889 136.35C198.893 136.215 197.87 136.048 196.813 135.842Z" fill="#F4B396"/>
<path fill-rule="evenodd" clip-rule="evenodd" d="M292.109 66.2039C291.488 65.3608 284.476 60.7937 281.047 58.6156L276.681 56.0622C269.597 55.3618 262.454 55.0316 254.415 55.1975L273.479 66.2039H292.109Z" fill="#F8C5AF"/>
<path d="M246.504 57.3376H244.564C244.564 57.3376 245.378 55.9648 245.34 55.2297C245.306 54.5671 244.973 54.247 244.564 53.7542C243.928 52.9883 242.817 52.9111 241.847 52.9111C241 52.9111 239.578 53.6025 238.742 53.7542C236.331 54.1917 234.97 54.4107 232.532 54.5974C229.357 54.8404 227.53 55.1011 224.381 54.5974C222.454 54.289 221.471 53.5158 219.53 53.3326C218.404 53.2265 217.762 53.2647 216.64 53.3314L216.619 53.3326C215.324 53.4097 214.481 54.3834 213.32 53.7542C212.649 53.3903 211.961 52.2787 211.961 52.2787L213.32 50.8032C213.32 50.8032 214.479 48.8545 215.649 48.2738C216.15 48.0247 216.481 48.0317 217.007 47.8522C220.241 46.7497 221.461 44.4351 224.769 43.6365C227.729 42.9222 229.517 43.2936 232.532 43.6365C235.222 43.9425 237.044 43.5307 239.324 45.112C240.679 46.0518 241.098 47.039 242.235 48.2738C243.902 50.0848 245.779 50.474 246.504 52.9111C246.994 54.556 246.504 57.3376 246.504 57.3376Z" fill="#9DBE98"/>
<path fill-rule="evenodd" clip-rule="evenodd" d="M212.303 52.7689L217.977 50.1842L225.351 48.2871H233.502L239.906 49.341L243.981 51.4489L246.116 54.1891L245.536 57.3376H244.563C244.563 57.3376 245.377 55.9648 245.34 55.2297C245.309 54.6374 245.04 54.3189 244.691 53.906C244.65 53.8569 244.607 53.8065 244.563 53.7542C243.927 52.9883 242.817 52.9111 241.847 52.9111C241.344 52.9111 240.638 53.1548 239.973 53.3847C239.517 53.5419 239.081 53.6926 238.742 53.7542C236.331 54.1917 234.97 54.4107 232.532 54.5974C232.126 54.6284 231.742 54.6598 231.375 54.6898C228.868 54.8945 227.128 55.0367 224.381 54.5974C223.49 54.4548 222.801 54.2129 222.126 53.9759C221.34 53.7002 220.573 53.4311 219.53 53.3326C218.404 53.2265 217.762 53.2647 216.64 53.3314L216.619 53.3326C216.123 53.3621 215.694 53.5226 215.288 53.6746C214.632 53.92 214.037 54.1428 213.32 53.7542C212.945 53.551 212.565 53.1146 212.303 52.7689Z" fill="#90AE8B"/>
<path d="M249.609 52.9239C249.079 54.5867 248.833 57.3504 248.833 57.3504H250.774C250.774 57.3504 251.373 55.9811 251.938 55.2426C252.839 54.0647 253.623 53.6801 254.849 52.9239C256.995 51.5997 258.504 51.6013 260.865 50.8161C264.329 49.6638 266.394 49.4425 269.792 48.0759C272.115 47.1411 273.169 45.7749 275.613 45.3357C277.258 45.0401 278.357 46.065 279.883 45.3357C281.256 44.6793 282.6 42.3847 282.6 42.3847V40.9092C282.6 40.9092 281.055 42.185 279.883 42.3847C279.284 42.4867 278.936 42.4143 278.33 42.3847C274.835 42.2135 273.259 39.9445 269.792 39.4337C267.088 39.0354 265.449 38.6994 262.805 39.4337C259.16 40.4464 257.547 42.4866 254.849 45.3357C252.404 47.918 250.726 49.4239 249.609 52.9239Z" fill="#9DBE98"/>
<path fill-rule="evenodd" clip-rule="evenodd" d="M282.277 42.8904L279.301 43.8604L275.225 43.2281L271.538 42.5957L263.582 43.8604L257.178 47.233L251.744 51.6595L249.686 57.3503H250.26L250.862 57.1552C251.049 56.7505 251.504 55.8101 251.938 55.2425C252.725 54.2129 253.424 53.7894 254.406 53.1941C254.547 53.1084 254.695 53.019 254.849 52.9238C256.289 52.0355 257.442 51.7438 258.758 51.411C259.403 51.2477 260.088 51.0744 260.865 50.816C262.299 50.3388 263.494 50.0213 264.643 49.7159C266.268 49.284 267.801 48.8765 269.792 48.0758C270.732 47.6975 271.464 47.2485 272.165 46.8189C273.196 46.187 274.158 45.597 275.613 45.3356C276.333 45.2063 276.948 45.3296 277.539 45.4483C278.301 45.6009 279.024 45.746 279.883 45.3356C280.848 44.8745 281.798 43.605 282.277 42.8904Z" fill="#90AE8B"/>
<path d="M245.7 49.7301C246.354 52.6962 245.7 57.5397 245.7 57.5397C245.7 57.5397 246.798 58.311 247.592 58.3617C248.525 58.4213 249.863 57.5397 249.863 57.5397C249.863 57.5397 249.765 52.7122 249.106 49.7301C248.67 47.7557 248.278 46.6867 247.592 44.7977C246.938 42.9932 245.7 40.2764 245.7 40.2764C245.7 40.2764 244.359 40.4741 243.808 41.0984C242.888 42.1419 243.808 44.7977 243.808 44.7977C243.808 44.7977 245.253 47.7006 245.7 49.7301Z" fill="#D29A81"/>
</g>
</svg>
