<svg width="507" height="507" viewBox="0 0 507 507" fill="none" xmlns="http://www.w3.org/2000/svg">
<mask id="mask0_5450_5311" style="mask-type:alpha" maskUnits="userSpaceOnUse" x="0" y="0" width="507" height="507">
<circle cx="253.5" cy="253.5" r="253.5" fill="#DAE5D7"/>
</mask>
<g mask="url(#mask0_5450_5311)">
<circle cx="244" cy="225" r="282" fill="#DAE5D7"/>
<path d="M66.0001 473.5C62.1577 461.089 72.5 406.5 133 355L369 339.5C448.5 402.5 446.256 459.566 445 473.5C421.64 610.45 104.893 599.127 66.0001 473.5Z" fill="#24205C"/>
<path d="M277.292 360.679C274.834 360.976 226.218 365.759 206.39 367.794C203.239 368.117 200.176 369.064 197.517 370.784C150.65 401.088 166.22 459.634 157.237 512.206C138.756 595.643 135.215 617.007 148.696 626.537C161.575 635.64 364.815 614.896 382.959 613.023C383.916 612.925 384.726 612.776 385.666 612.57C402.191 608.944 406.041 611.204 377.053 531.658C365.942 501.169 367.42 517.366 359.065 464.919C343.529 367.402 314.447 361.279 314.447 361.279C314.447 361.279 298.104 358.169 277.292 360.679Z" fill="#FCEDC6"/>
<path d="M330 373.5C255.5 369 224.5 360.5 184.5 381.5C180.5 385.5 177.5 390 174.5 395C191.667 406.833 229.5 417.5 256.5 417.5C294.634 417.5 327.333 401.333 340.5 395.5C337 385.5 334.882 382.091 330 373.5Z" fill="#EBDBB0"/>
<path d="M126.5 361C135 366 181.667 372.333 190.5 375.5C190.5 377.5 177.5 387.5 175 395C138.5 379.5 127 363.833 126.5 361Z" fill="#24205C"/>
<path d="M384.5 352C376 357 339.833 371.833 331 375C334.5 381 338 389 341 395.5C372.5 375 383 362 384.5 352Z" fill="#24205C"/>
<mask id="mask1_5450_5311" style="mask-type:alpha" maskUnits="userSpaceOnUse" x="66" y="86" width="376" height="301">
<path d="M434.492 205.049C421.715 176.301 362.758 70.8885 231.052 87.8321C170.992 95.5585 145.464 115.42 106.471 151.366C55.5645 198.295 65.7813 266.582 69.1171 288.049C73.5276 316.433 80.8419 332.049 92.7243 345.549C104.607 359.049 128.249 368.026 169.731 376.771C253.913 394.517 349.899 385.721 383.522 362.049C399.082 351.095 418.049 340.549 425.908 325.549C443.919 291.174 446.732 232.587 434.492 205.049Z" fill="#504949"/>
</mask>
<g mask="url(#mask1_5450_5311)">
<path d="M214.811 70.4653C66.5645 84.266 36.8189 217.408 46.6874 281.184C51.293 310.948 72.6318 352.579 83.7795 365.299C94.9272 378.02 112.837 388.823 169.854 400.846C257.765 419.384 363.386 399.444 395.802 371.605C473.105 305.215 451.723 211.99 432.534 177.663C419.194 147.517 363.057 56.6646 214.811 70.4653Z" fill="#24205C"/>
<path d="M132.964 201.549C104.353 219.193 96.507 261.826 94.8703 280.549C90.9366 325.549 120.088 352.049 164.083 373.549C174.267 378.526 174.653 380.314 205.395 383.549C258.294 389.115 241.538 402.674 300.897 389.549C326.803 383.821 320.749 389.549 349.185 375.549L349.615 375.337C375.467 362.611 407.69 346.748 411.958 292.723C413.194 277.079 411.958 253.605 402.815 230.484C398.413 219.351 388.947 205.118 365.227 194.051C341.506 182.983 315.142 178.061 293.605 182.918C278.235 186.385 265.017 190.573 256.027 199.125C251.67 203.269 242.609 203.531 238.037 199.626C228.81 191.744 216.405 188.857 203.698 185.986C185.919 181.969 154.298 188.392 132.964 201.549Z" fill="#FCEDC6"/>
<path d="M228.486 293.277C225.711 294.435 212.298 303.262 212.298 308.471C212.298 313.681 223.283 321.267 226.174 322.363C233.112 324.995 246.71 329.83 260.401 326.705C274.092 323.579 278.903 321.929 283.528 316.72C288.154 311.51 291.223 306.762 284.916 300.25C278.608 293.738 260.864 285.897 249.698 286.792C239.189 287.634 236.812 289.804 228.486 293.277Z" fill="#BC544B"/>
<path d="M282.046 307.722C269.14 314.573 234.055 316.078 220.882 309.501" stroke="#562528" stroke-width="5" stroke-linecap="round"/>
<ellipse cx="18.5557" cy="16.9247" rx="18.5557" ry="16.9247" transform="matrix(0.928977 -0.370138 0.375032 0.927012 135.11 268.785)" fill="#562528"/>
<ellipse cx="18.5094" cy="16.9677" rx="18.5094" ry="16.9677" transform="matrix(-0.91062 -0.413244 -0.422365 0.906426 365.817 270.347)" fill="#562528"/>
</g>
<circle cx="167" cy="273" r="4" fill="white"/>
<circle cx="348" cy="273" r="4" fill="white"/>
<path d="M187.24 105.91C198.026 91.5779 225.082 82.3018 225.082 82.3018C225.082 82.3018 241.034 78.0021 251.475 77.4538C266.112 76.6851 268.552 77.0322 280.584 78.0861C300.572 80.194 318.62 91.5764 331.04 105.91C337.067 112.866 338.026 126.567 338.026 132.047C338.026 138.371 323.273 150.861 309.111 157.974C288.405 168.373 274.225 166.474 251.475 168.302C232.731 169.808 229.546 171.253 208.975 168.302C200.133 167.034 190.36 161.949 184.329 154.812C177.912 147.218 174.759 139.214 175.014 132.89C175.488 121.158 180.397 115.002 187.24 105.91Z" fill="#F4B396"/>
<path fill-rule="evenodd" clip-rule="evenodd" d="M204.598 166.612C204.598 166.612 203.673 156.253 203.213 149.626C201.903 130.755 208.755 118.374 208.755 118.374C208.755 118.374 213.899 106.358 218.58 100.252C223.521 93.8067 231.049 86.1777 231.049 86.1777C231.049 86.1777 217.875 92.8839 210.502 101.61C204.908 108.23 203.235 110.339 200.184 118.691C196.404 129.042 195.384 138.614 198.008 149.378C199.729 156.44 204.598 166.612 204.598 166.612Z" fill="#F29D77"/>
<path fill-rule="evenodd" clip-rule="evenodd" d="M296.37 88.2621C301.331 92.2011 305.985 96.8466 308.592 101.831C314.969 114.019 315.58 121.211 311.872 129.991C308.861 137.12 304.498 139.791 298.914 143.21C297.927 143.814 296.901 144.442 295.838 145.122C288.35 149.913 282.522 150.915 275.288 152.16C273.016 152.55 270.606 152.965 267.962 153.528C255.508 156.181 247.743 156.548 236.156 157.097C234.734 157.164 233.256 157.234 231.704 157.311C228.098 157.49 224.91 157.804 221.912 158.098C214.095 158.866 207.579 159.507 198.361 157.311C192.843 155.997 186.129 152.91 180.827 150.173C176.92 143.995 175.028 137.813 175.222 132.723C175.652 121.393 179.991 115.279 186.102 106.667C186.3 106.389 186.499 106.108 186.7 105.824C196.827 91.5348 222.229 82.2866 222.229 82.2866C222.229 82.2866 237.206 77.9997 247.009 77.453C260.752 76.6867 268.817 77.707 281.991 82.2866C282.507 82.466 283.012 82.6404 283.508 82.8115C288.183 84.426 292.017 85.7498 296.37 88.2621Z" fill="#F8C5AF"/>
<path fill-rule="evenodd" clip-rule="evenodd" d="M200.813 157.842C199.718 155.045 198.646 151.997 198.008 149.378C195.384 138.614 196.404 129.042 200.184 118.691C203.235 110.339 204.908 108.23 210.502 101.61C217.875 92.8839 231.049 86.1777 231.049 86.1777C231.049 86.1777 223.521 93.8067 218.58 100.252C213.899 106.358 208.755 118.374 208.755 118.374C208.755 118.374 201.903 130.755 203.213 149.626C203.394 152.241 203.648 155.438 203.889 158.35C202.893 158.215 201.87 158.048 200.813 157.842Z" fill="#F4B396"/>
<path fill-rule="evenodd" clip-rule="evenodd" d="M296.109 88.2039C295.488 87.3608 288.476 82.7937 285.047 80.6156L280.681 78.0622C273.597 77.3618 266.454 77.0316 258.415 77.1975L277.479 88.2039H296.109Z" fill="#F8C5AF"/>
<path d="M250.504 79.3376H248.564C248.564 79.3376 249.378 77.9648 249.34 77.2297C249.306 76.5671 248.973 76.247 248.564 75.7542C247.928 74.9883 246.817 74.9111 245.847 74.9111C245 74.9111 243.578 75.6025 242.742 75.7542C240.331 76.1917 238.97 76.4107 236.532 76.5974C233.357 76.8404 231.53 77.1011 228.381 76.5974C226.454 76.289 225.471 75.5158 223.53 75.3326C222.404 75.2265 221.762 75.2647 220.64 75.3314L220.619 75.3326C219.324 75.4097 218.481 76.3834 217.32 75.7542C216.649 75.3903 215.961 74.2787 215.961 74.2787L217.32 72.8032C217.32 72.8032 218.479 70.8545 219.649 70.2738C220.15 70.0247 220.481 70.0317 221.007 69.8522C224.241 68.7497 225.461 66.4351 228.769 65.6365C231.729 64.9222 233.517 65.2936 236.532 65.6365C239.222 65.9425 241.044 65.5307 243.324 67.112C244.679 68.0518 245.098 69.039 246.235 70.2738C247.902 72.0848 249.779 72.474 250.504 74.9111C250.994 76.556 250.504 79.3376 250.504 79.3376Z" fill="#9DBE98"/>
<path fill-rule="evenodd" clip-rule="evenodd" d="M216.302 74.7689L221.977 72.1842L229.351 70.2871H237.502L243.906 71.341L247.981 73.4489L250.116 76.1891L249.536 79.3376H248.563C248.563 79.3376 249.377 77.9648 249.34 77.2297C249.309 76.6374 249.04 76.3189 248.691 75.906C248.649 75.8569 248.607 75.8065 248.563 75.7542C247.927 74.9883 246.817 74.9111 245.847 74.9111C245.343 74.9111 244.638 75.1548 243.972 75.3847C243.517 75.5419 243.081 75.6926 242.742 75.7542C240.331 76.1917 238.97 76.4107 236.532 76.5974C236.126 76.6284 235.742 76.6598 235.375 76.6898C232.868 76.8945 231.128 77.0367 228.381 76.5974C227.49 76.4548 226.801 76.2129 226.125 75.9759C225.34 75.7002 224.573 75.4311 223.529 75.3326C222.404 75.2265 221.762 75.2647 220.64 75.3314L220.619 75.3326C220.123 75.3621 219.694 75.5226 219.288 75.6746C218.632 75.92 218.036 76.1428 217.32 75.7542C216.945 75.551 216.565 75.1146 216.302 74.7689Z" fill="#90AE8B"/>
<path d="M253.609 74.9239C253.079 76.5867 252.833 79.3504 252.833 79.3504H254.774C254.774 79.3504 255.373 77.9811 255.938 77.2426C256.839 76.0647 257.623 75.6801 258.849 74.9239C260.995 73.5997 262.504 73.6013 264.865 72.8161C268.329 71.6638 270.394 71.4425 273.792 70.0759C276.115 69.1411 277.169 67.7749 279.613 67.3357C281.258 67.0401 282.357 68.065 283.883 67.3357C285.256 66.6793 286.6 64.3847 286.6 64.3847V62.9092C286.6 62.9092 285.055 64.185 283.883 64.3847C283.284 64.4867 282.936 64.4143 282.33 64.3847C278.835 64.2135 277.259 61.9445 273.792 61.4337C271.088 61.0354 269.449 60.6994 266.805 61.4337C263.16 62.4464 261.547 64.4866 258.849 67.3357C256.404 69.918 254.726 71.4239 253.609 74.9239Z" fill="#9DBE98"/>
<path fill-rule="evenodd" clip-rule="evenodd" d="M286.277 64.8904L283.301 65.8604L279.225 65.2281L275.538 64.5957L267.582 65.8604L261.178 69.233L255.744 73.6595L253.686 79.3503H254.26L254.862 79.1552C255.049 78.7505 255.504 77.8101 255.938 77.2425C256.725 76.2129 257.424 75.7894 258.406 75.1941C258.547 75.1084 258.695 75.019 258.849 74.9238C260.289 74.0355 261.442 73.7438 262.758 73.411C263.403 73.2477 264.088 73.0744 264.865 72.816C266.299 72.3388 267.494 72.0213 268.643 71.7159C270.268 71.284 271.801 70.8765 273.792 70.0758C274.732 69.6975 275.464 69.2485 276.165 68.8189C277.196 68.187 278.158 67.597 279.613 67.3356C280.333 67.2063 280.948 67.3296 281.539 67.4483C282.301 67.6009 283.024 67.746 283.883 67.3356C284.848 66.8745 285.798 65.605 286.277 64.8904Z" fill="#90AE8B"/>
<path d="M249.7 71.7301C250.354 74.6962 249.7 79.5397 249.7 79.5397C249.7 79.5397 250.798 80.311 251.592 80.3617C252.525 80.4213 253.863 79.5397 253.863 79.5397C253.863 79.5397 253.765 74.7122 253.106 71.7301C252.67 69.7557 252.278 68.6867 251.592 66.7977C250.938 64.9932 249.7 62.2764 249.7 62.2764C249.7 62.2764 248.359 62.4741 247.808 63.0984C246.888 64.1419 247.808 66.7977 247.808 66.7977C247.808 66.7977 249.253 69.7006 249.7 71.7301Z" fill="#D29A81"/>
</g>
</svg>
