<svg width="507" height="507" viewBox="0 0 507 507" fill="none" xmlns="http://www.w3.org/2000/svg">
<mask id="mask0_5450_5467" style="mask-type:alpha" maskUnits="userSpaceOnUse" x="0" y="0" width="507" height="507">
<circle cx="253.5" cy="253.5" r="253.5" fill="#DAE5D7"/>
</mask>
<g mask="url(#mask0_5450_5467)">
<circle cx="253.5" cy="253.5" r="253.5" fill="#DAE5D7"/>
<path d="M46 522.5C41.2085 510.052 111 387 128.5 356.5L392.5 349.5C414 389.5 455.066 508.524 453.5 522.5C424.37 659.857 94.5001 648.5 46 522.5Z" fill="#50776F"/>
<path d="M83.582 349.732C105.211 375.399 138.046 390.84 151.76 395.351C171.92 402.593 223.301 415.985 267.543 411.615C311.784 407.245 367.414 390.211 384.756 381.089C405.562 370.172 442.983 342.368 446.937 301.315C450.891 260.262 439.295 255.987 423.993 210.952C423.76 173.692 424.281 149.098 423.973 141.147C423.327 134.821 422.057 123.897 402.5 117.5C382.943 111.103 361.621 129.042 357.788 135.043L327.349 169.547C283.875 145.191 213.757 152.678 184.132 159.466C161.359 137.653 140.962 127.701 133.61 125.452C126.295 122.904 108.998 123.728 98.3363 147.415C87.6747 171.101 90.8046 213.118 93.7022 231.166C90.2316 241.172 82.2042 263.859 77.8584 274.563C72.4263 287.943 56.546 317.648 83.582 349.732Z" fill="#50776F"/>
<path d="M143.084 295.587C110.942 279.418 79.6454 293.609 70.1548 302.586C69.5554 303.153 69.1025 303.856 68.8727 304.653C67.9647 307.805 67.1397 314.252 69.1313 322.153C71.9926 333.505 76.0851 338.185 81.409 346.689C85.6682 353.492 97.767 364.347 103.284 368.924C107.401 372.239 121.486 381.609 144.897 392.562C174.16 406.253 222.989 413.101 246.538 413.683C270.187 414.267 295.769 409.446 307.417 407.635C318.209 405.958 349.572 395.308 364.547 390.568C379.523 385.828 406.431 369.99 425.498 348.944C438.749 334.318 444.087 316.24 445.572 306.106C445.934 303.634 444.717 301.211 442.522 299.977C433.117 294.691 416.029 287.848 404.709 286.258C372.898 281.79 344.283 306.056 328.185 295.583C315.306 287.204 310.342 264.537 300.297 256.536C266.92 229.948 231.547 245.966 218.033 257.298C199.175 273.111 176.302 312.297 143.084 295.587Z" fill="#FCEDC6"/>
<path d="M279.121 577.764C277.304 577.717 242.306 577.597 226.634 577.486C223.467 577.463 220.319 576.825 217.538 575.309C181.429 555.629 188.695 511.108 178.316 472.696C158.518 411.452 154.343 395.685 163.772 387.58C172.706 379.902 324.105 380.904 340.013 381.031C340.976 381.039 341.844 381.111 342.801 381.224C355.144 382.692 357.668 381.336 341.748 442.462C335.588 466.114 335.543 453.864 333.012 493.783C328.306 568.007 306.936 574.669 306.936 574.669C306.936 574.669 294.904 578.164 279.121 577.764Z" fill="#FCEDC6"/>
<path d="M148.116 215.542C137.121 222.392 141.688 230.151 149.185 231.204C165.995 233.565 176.407 226.354 179.716 218.885C180.704 216.656 179.625 214.089 177.368 213.104C169.999 209.891 157.439 209.734 148.116 215.542Z" fill="#FBEDC6"/>
<path d="M372.749 215.142C383.671 222.552 378.957 230.028 371.414 230.672C354.5 232.117 344.169 224.378 340.972 216.766C340.018 214.494 341.144 211.997 343.427 211.139C350.878 208.337 363.487 208.858 372.749 215.142Z" fill="#FBEDC6"/>
<path d="M137.776 157.517C115.64 141.633 117.592 183.12 121.335 205.848L162.783 178.366C163.671 178.034 159.911 173.4 137.776 157.517Z" fill="#FCDB8A"/>
<path d="M397.137 142.396C387.88 134.891 370.838 161.361 363.475 175.534L403.457 181.15C405.208 171.359 406.394 149.901 397.137 142.396Z" fill="#FCDB8A"/>
<ellipse cx="15.9819" cy="15.8156" rx="15.9819" ry="15.8156" transform="matrix(0.990278 0.139104 -0.120201 0.99275 148.841 237.542)" fill="#562528"/>
<ellipse cx="15.9819" cy="15.8156" rx="15.9819" ry="15.8156" transform="matrix(0.990278 0.139104 -0.120201 0.99275 349.804 242.96)" fill="#562528"/>
<path d="M257.781 292.5L257.781 310.329M257.781 310.329C254.195 318.95 247.659 323.963 227.758 323.905C213.033 323.862 204.435 320.629 203.511 307.268M257.781 310.329C261.493 318.151 268.557 326.277 294.866 322.382C304.355 320.978 313.173 318.11 313.517 301.278" stroke="#562528" stroke-width="8" stroke-linecap="round"/>
<path d="M267.941 262.939L251.289 261.851C243.444 261.338 238.55 270.115 242.755 277.156L250.794 290.619C254.538 296.888 263.074 297.429 267.095 291.651L275.708 279.277C280.214 272.802 275.769 263.451 267.941 262.939Z" fill="#562528"/>
<path d="M352.5 395C289.7 432.6 196.667 412.167 158.5 398L161.5 420.5C178.667 432.333 220.5 451.7 258.5 448.5C296.5 445.3 332.333 432.833 345.5 427L352.5 395Z" fill="#EBDBB0"/>
<path d="M124 382.5C132.5 387.5 149.667 395.333 158.5 398.5C158.5 400.5 160.833 414.667 162 421.5C132.8 397.1 124.5 385.333 124 382.5Z" fill="#3E5155"/>
<path d="M387.5 380C379 385 361.333 392.333 352.5 395.5C352.5 397.5 347.167 420.167 346 427C375.2 402.6 387 382.833 387.5 380Z" fill="#3E5155"/>
<circle cx="168" cy="250" r="4" fill="white"/>
<circle cx="369" cy="254" r="4" fill="white"/>
<path d="M187.24 127.91C198.026 113.578 225.082 104.302 225.082 104.302C225.082 104.302 241.034 100.002 251.475 99.4538C266.112 98.6851 268.552 99.0322 280.584 100.086C300.572 102.194 318.62 113.576 331.04 127.91C337.067 134.866 338.026 148.567 338.026 154.047C338.026 160.371 323.273 172.861 309.111 179.974C288.405 190.373 274.225 188.474 251.475 190.302C232.731 191.808 229.546 193.253 208.975 190.302C200.133 189.034 190.36 183.949 184.329 176.812C177.912 169.218 174.759 161.214 175.014 154.89C175.488 143.158 180.397 137.002 187.24 127.91Z" fill="#F4B396"/>
<path fill-rule="evenodd" clip-rule="evenodd" d="M204.598 188.612C204.598 188.612 203.672 178.253 203.213 171.626C201.903 152.755 208.755 140.374 208.755 140.374C208.755 140.374 213.899 128.358 218.58 122.252C223.52 115.807 231.049 108.178 231.049 108.178C231.049 108.178 217.875 114.884 210.502 123.61C204.908 130.23 203.235 132.339 200.184 140.691C196.404 151.042 195.384 160.614 198.008 171.378C199.729 178.44 204.598 188.612 204.598 188.612Z" fill="#F29D77"/>
<path fill-rule="evenodd" clip-rule="evenodd" d="M296.37 110.262C301.331 114.201 305.985 118.847 308.592 123.831C314.969 136.019 315.58 143.211 311.872 151.991C308.861 159.12 304.498 161.791 298.914 165.21C297.927 165.814 296.901 166.442 295.838 167.122C288.35 171.913 282.522 172.915 275.288 174.16C273.016 174.55 270.606 174.965 267.962 175.528C255.508 178.181 247.743 178.548 236.156 179.097C234.734 179.164 233.256 179.234 231.704 179.311C228.098 179.49 224.91 179.804 221.912 180.098C214.095 180.866 207.579 181.507 198.361 179.311C192.843 177.997 186.129 174.91 180.827 172.173C176.92 165.995 175.028 159.813 175.222 154.723C175.652 143.393 179.991 137.279 186.102 128.667C186.3 128.389 186.499 128.108 186.7 127.824C196.827 113.535 222.229 104.287 222.229 104.287C222.229 104.287 237.206 99.9997 247.009 99.453C260.752 98.6867 268.817 99.707 281.991 104.287C282.507 104.466 283.012 104.64 283.508 104.812C288.183 106.426 292.017 107.75 296.37 110.262Z" fill="#F8C5AF"/>
<path fill-rule="evenodd" clip-rule="evenodd" d="M200.813 179.842C199.718 177.045 198.646 173.997 198.008 171.378C195.384 160.614 196.404 151.042 200.184 140.691C203.235 132.339 204.908 130.23 210.502 123.61C217.875 114.884 231.049 108.178 231.049 108.178C231.049 108.178 223.52 115.807 218.58 122.252C213.899 128.358 208.755 140.374 208.755 140.374C208.755 140.374 201.903 152.755 203.213 171.626C203.394 174.241 203.648 177.438 203.889 180.35C202.893 180.215 201.87 180.048 200.813 179.842Z" fill="#F4B396"/>
<path fill-rule="evenodd" clip-rule="evenodd" d="M296.109 110.204C295.488 109.361 288.476 104.794 285.047 102.616L280.681 100.062C273.597 99.3618 266.454 99.0316 258.415 99.1975L277.479 110.204H296.109Z" fill="#F8C5AF"/>
<path d="M250.504 101.338H248.564C248.564 101.338 249.377 99.9648 249.34 99.2297C249.306 98.5671 248.973 98.247 248.564 97.7542C247.928 96.9883 246.817 96.9111 245.847 96.9111C244.999 96.9111 243.577 97.6025 242.742 97.7542C240.331 98.1917 238.97 98.4107 236.532 98.5974C233.357 98.8404 231.53 99.1011 228.381 98.5974C226.454 98.289 225.471 97.5158 223.53 97.3326C222.404 97.2265 221.762 97.2647 220.64 97.3314L220.619 97.3326C219.323 97.4097 218.48 98.3834 217.32 97.7542C216.648 97.3903 215.961 96.2787 215.961 96.2787L217.32 94.8032C217.32 94.8032 218.479 92.8545 219.648 92.2738C220.15 92.0247 220.48 92.0317 221.007 91.8522C224.241 90.7497 225.461 88.4351 228.769 87.6365C231.729 86.9222 233.517 87.2936 236.532 87.6365C239.222 87.9425 241.044 87.5307 243.324 89.112C244.679 90.0518 245.098 91.039 246.235 92.2738C247.902 94.0848 249.779 94.474 250.504 96.9111C250.993 98.556 250.504 101.338 250.504 101.338Z" fill="#9DBE98"/>
<path fill-rule="evenodd" clip-rule="evenodd" d="M216.303 96.7689L221.977 94.1842L229.351 92.2871H237.502L243.906 93.341L247.981 95.4489L250.116 98.1891L249.536 101.338H248.563C248.563 101.338 249.377 99.9648 249.34 99.2297C249.309 98.6374 249.04 98.3189 248.691 97.906C248.65 97.8569 248.607 97.8065 248.563 97.7542C247.927 96.9883 246.817 96.9111 245.847 96.9111C245.344 96.9111 244.638 97.1548 243.973 97.3847C243.517 97.5419 243.081 97.6926 242.742 97.7542C240.331 98.1917 238.97 98.4107 236.532 98.5974C236.126 98.6284 235.742 98.6598 235.375 98.6898C232.868 98.8945 231.128 99.0367 228.381 98.5974C227.49 98.4548 226.801 98.2129 226.126 97.9759C225.34 97.7002 224.573 97.4311 223.53 97.3326C222.404 97.2265 221.762 97.2647 220.64 97.3314L220.619 97.3326C220.123 97.3621 219.694 97.5226 219.288 97.6746C218.632 97.92 218.037 98.1428 217.32 97.7542C216.945 97.551 216.565 97.1146 216.303 96.7689Z" fill="#90AE8B"/>
<path d="M253.609 96.9239C253.079 98.5867 252.833 101.35 252.833 101.35H254.774C254.774 101.35 255.373 99.9811 255.938 99.2426C256.839 98.0647 257.623 97.6801 258.849 96.9239C260.995 95.5997 262.504 95.6013 264.865 94.8161C268.329 93.6638 270.394 93.4425 273.792 92.0759C276.115 91.1411 277.169 89.7749 279.613 89.3357C281.258 89.0401 282.357 90.065 283.883 89.3357C285.256 88.6793 286.6 86.3847 286.6 86.3847V84.9092C286.6 84.9092 285.055 86.185 283.883 86.3847C283.284 86.4867 282.936 86.4143 282.33 86.3847C278.835 86.2135 277.259 83.9445 273.792 83.4337C271.088 83.0354 269.449 82.6994 266.805 83.4337C263.16 84.4464 261.547 86.4866 258.849 89.3357C256.404 91.918 254.726 93.4239 253.609 96.9239Z" fill="#9DBE98"/>
<path fill-rule="evenodd" clip-rule="evenodd" d="M286.277 86.8904L283.301 87.8604L279.225 87.2281L275.538 86.5957L267.582 87.8604L261.178 91.233L255.744 95.6595L253.686 101.35H254.26L254.862 101.155C255.049 100.751 255.504 99.8101 255.938 99.2425C256.725 98.2129 257.424 97.7894 258.406 97.1941C258.547 97.1084 258.695 97.019 258.849 96.9238C260.289 96.0355 261.442 95.7438 262.758 95.411C263.403 95.2477 264.088 95.0744 264.865 94.816C266.299 94.3388 267.494 94.0213 268.643 93.7159C270.268 93.284 271.801 92.8765 273.792 92.0758C274.732 91.6975 275.464 91.2485 276.165 90.8189C277.196 90.187 278.158 89.597 279.613 89.3356C280.333 89.2063 280.948 89.3296 281.539 89.4483C282.301 89.6009 283.024 89.746 283.883 89.3356C284.848 88.8745 285.798 87.605 286.277 86.8904Z" fill="#90AE8B"/>
<path d="M249.7 93.7301C250.354 96.6962 249.7 101.54 249.7 101.54C249.7 101.54 250.798 102.311 251.592 102.362C252.525 102.421 253.863 101.54 253.863 101.54C253.863 101.54 253.765 96.7122 253.106 93.7301C252.67 91.7557 252.278 90.6867 251.592 88.7977C250.938 86.9932 249.7 84.2764 249.7 84.2764C249.7 84.2764 248.359 84.4741 247.808 85.0984C246.888 86.1419 247.808 88.7977 247.808 88.7977C247.808 88.7977 249.253 91.7006 249.7 93.7301Z" fill="#D29A81"/>
</g>
</svg>
