<svg width="507" height="507" viewBox="0 0 507 507" fill="none" xmlns="http://www.w3.org/2000/svg">
<mask id="mask0_5402_3218" style="mask-type:alpha" maskUnits="userSpaceOnUse" x="0" y="0" width="507" height="507">
<circle cx="253.5" cy="253.5" r="253.5" fill="#DAE5D7"/>
</mask>
<g mask="url(#mask0_5402_3218)">
<circle cx="253.5" cy="253.5" r="253.5" fill="#DAE5D7"/>
<path d="M45.9999 522.5C41.2084 510.052 111 387 128.5 356.5L392.5 349.5C414 389.5 455.066 508.524 453.5 522.5C424.369 659.857 94.5 648.5 45.9999 522.5Z" fill="#FEA34A"/>
<path d="M83.5818 349.732C105.211 375.399 138.046 390.84 151.759 395.351C171.92 402.593 223.301 415.985 267.543 411.615C311.784 407.245 367.414 390.211 384.755 381.089C405.561 370.172 442.983 342.368 446.937 301.315C450.891 260.262 439.295 255.987 423.992 210.952C423.76 173.692 424.281 149.098 423.973 141.147C423.327 134.821 422.057 123.897 402.5 117.5C382.943 111.103 361.621 129.042 357.788 135.043L327.349 169.547C283.875 145.191 213.757 152.678 184.132 159.466C161.359 137.653 140.962 127.701 133.61 125.452C126.295 122.904 108.998 123.728 98.3362 147.415C87.6746 171.101 90.8044 213.118 93.7021 231.166C90.2315 241.172 82.204 263.859 77.8583 274.563C72.4261 287.943 56.5459 317.648 83.5818 349.732Z" fill="#FEA34A"/>
<path d="M143.084 295.587C110.942 279.418 79.6453 293.609 70.1547 302.586C69.5552 303.153 69.1024 303.856 68.8726 304.653C67.9646 307.805 67.1395 314.252 69.1312 322.153C71.9925 333.505 76.085 338.185 81.4089 346.689C85.668 353.492 97.7668 364.347 103.284 368.924C107.4 372.239 121.486 381.609 144.897 392.562C174.159 406.253 222.989 413.101 246.537 413.683C270.187 414.267 295.769 409.446 307.417 407.635C318.209 405.958 349.572 395.308 364.547 390.568C379.522 385.828 406.431 369.99 425.498 348.944C438.749 334.318 444.086 316.24 445.572 306.106C445.934 303.634 444.717 301.211 442.522 299.977C433.117 294.691 416.029 287.848 404.709 286.258C372.898 281.79 344.283 306.056 328.184 295.583C315.306 287.204 310.341 264.537 300.297 256.536C266.92 229.948 231.547 245.966 218.032 257.298C199.175 273.111 176.302 312.297 143.084 295.587Z" fill="#FCEDC6"/>
<path d="M279.121 577.764C277.304 577.717 242.306 577.597 226.634 577.486C223.467 577.463 220.319 576.825 217.538 575.309C181.429 555.629 188.695 511.108 178.316 472.696C158.518 411.452 154.343 395.685 163.772 387.58C172.706 379.902 324.105 380.904 340.013 381.031C340.976 381.039 341.844 381.111 342.801 381.224C355.144 382.692 357.668 381.336 341.748 442.462C335.588 466.114 335.543 453.864 333.012 493.783C328.306 568.007 306.936 574.669 306.936 574.669C306.936 574.669 294.904 578.164 279.121 577.764Z" fill="#FCEDC6"/>
<path d="M148.116 215.542C137.121 222.392 141.688 230.151 149.185 231.204C165.995 233.565 176.407 226.354 179.716 218.885C180.704 216.656 179.625 214.089 177.368 213.104C169.999 209.891 157.439 209.734 148.116 215.542Z" fill="#FBEDC6"/>
<path d="M372.748 215.142C383.671 222.552 378.957 230.028 371.414 230.672C354.5 232.117 344.169 224.378 340.972 216.766C340.018 214.494 341.144 211.997 343.427 211.139C350.877 208.337 363.487 208.858 372.748 215.142Z" fill="#FBEDC6"/>
<path d="M137.776 157.517C115.64 141.633 117.592 183.12 121.335 205.848L162.784 178.366C163.671 178.034 159.912 173.4 137.776 157.517Z" fill="#FCDB8A"/>
<path d="M397.137 142.396C387.88 134.891 370.838 161.361 363.475 175.534L403.457 181.15C405.208 171.359 406.394 149.901 397.137 142.396Z" fill="#FCDB8A"/>
<ellipse cx="15.9819" cy="15.8156" rx="15.9819" ry="15.8156" transform="matrix(0.990278 0.139104 -0.120201 0.99275 148.841 237.542)" fill="#562528"/>
<ellipse cx="15.9819" cy="15.8156" rx="15.9819" ry="15.8156" transform="matrix(0.990278 0.139104 -0.120201 0.99275 349.804 242.96)" fill="#562528"/>
<path d="M257.781 292.5L257.781 310.329M257.781 310.329C254.196 318.95 247.659 323.963 227.758 323.905C213.034 323.862 204.435 320.629 203.511 307.268M257.781 310.329C261.493 318.151 268.557 326.277 294.866 322.382C304.355 320.978 313.173 318.11 313.517 301.278" stroke="#562528" stroke-width="8" stroke-linecap="round"/>
<path d="M267.941 262.939L251.289 261.851C243.444 261.338 238.55 270.115 242.755 277.156L250.794 290.619C254.538 296.888 263.074 297.429 267.095 291.651L275.708 279.277C280.214 272.802 275.769 263.451 267.941 262.939Z" fill="#562528"/>
<path d="M352.5 395C289.7 432.6 196.667 412.167 158.5 398L161.5 420.5C178.667 432.333 220.5 451.7 258.5 448.5C296.5 445.3 332.333 432.833 345.5 427L352.5 395Z" fill="#EBDBB0"/>
<path d="M124 382.5C132.5 387.5 149.667 395.333 158.5 398.5C158.5 400.5 160.833 414.667 162 421.5C132.8 397.1 124.5 385.333 124 382.5Z" fill="#DB924A"/>
<path d="M387.5 380C379 385 361.333 392.333 352.5 395.5C352.5 397.5 347.167 420.167 346 427C375.2 402.6 387 382.833 387.5 380Z" fill="#DB924A"/>
<circle cx="168" cy="250" r="4" fill="white"/>
<circle cx="369" cy="254" r="4" fill="white"/>
<path d="M183.24 129.91C194.026 115.578 221.082 106.302 221.082 106.302C221.082 106.302 237.034 102.002 247.475 101.454C262.112 100.685 264.552 101.032 276.584 102.086C296.572 104.194 314.62 115.576 327.04 129.91C333.067 136.866 334.026 150.567 334.026 156.047C334.026 162.371 319.273 174.861 305.111 181.974C284.405 192.373 270.225 190.474 247.475 192.302C228.731 193.808 225.546 195.253 204.975 192.302C196.133 191.034 186.36 185.949 180.329 178.812C173.912 171.218 170.759 163.214 171.014 156.89C171.488 145.158 176.397 139.002 183.24 129.91Z" fill="#F4B396"/>
<path fill-rule="evenodd" clip-rule="evenodd" d="M200.598 190.612C200.598 190.612 199.673 180.253 199.213 173.626C197.903 154.755 204.755 142.374 204.755 142.374C204.755 142.374 209.899 130.358 214.58 124.252C219.521 117.807 227.049 110.178 227.049 110.178C227.049 110.178 213.875 116.884 206.502 125.61C200.908 132.23 199.235 134.339 196.184 142.691C192.404 153.042 191.384 162.614 194.008 173.378C195.729 180.44 200.598 190.612 200.598 190.612Z" fill="#F29D77"/>
<path fill-rule="evenodd" clip-rule="evenodd" d="M292.37 112.262C297.331 116.201 301.985 120.847 304.592 125.831C310.969 138.019 311.58 145.211 307.872 153.991C304.861 161.12 300.498 163.791 294.914 167.21C293.927 167.814 292.901 168.442 291.838 169.122C284.35 173.913 278.522 174.915 271.288 176.16C269.016 176.55 266.606 176.965 263.962 177.528C251.508 180.181 243.743 180.548 232.156 181.097C230.734 181.164 229.256 181.234 227.704 181.311C224.098 181.49 220.91 181.804 217.912 182.098C210.095 182.866 203.579 183.507 194.361 181.311C188.843 179.997 182.129 176.91 176.827 174.173C172.92 167.995 171.028 161.813 171.222 156.723C171.652 145.393 175.991 139.279 182.102 130.667C182.3 130.389 182.499 130.108 182.7 129.824C192.827 115.535 218.229 106.287 218.229 106.287C218.229 106.287 233.206 102 243.009 101.453C256.752 100.687 264.817 101.707 277.991 106.287C278.507 106.466 279.012 106.64 279.508 106.812C284.183 108.426 288.017 109.75 292.37 112.262Z" fill="#F8C5AF"/>
<path fill-rule="evenodd" clip-rule="evenodd" d="M196.813 181.842C195.718 179.045 194.646 175.997 194.008 173.378C191.384 162.614 192.404 153.042 196.184 142.691C199.235 134.339 200.908 132.23 206.502 125.61C213.875 116.884 227.049 110.178 227.049 110.178C227.049 110.178 219.521 117.807 214.58 124.252C209.899 130.358 204.755 142.374 204.755 142.374C204.755 142.374 197.903 154.755 199.213 173.626C199.394 176.241 199.648 179.438 199.889 182.35C198.893 182.215 197.87 182.048 196.813 181.842Z" fill="#F4B396"/>
<path fill-rule="evenodd" clip-rule="evenodd" d="M292.109 112.204C291.488 111.361 284.476 106.794 281.047 104.616L276.681 102.062C269.597 101.362 262.454 101.032 254.415 101.197L273.479 112.204H292.109Z" fill="#F8C5AF"/>
<path d="M246.504 103.338H244.564C244.564 103.338 245.378 101.965 245.34 101.23C245.306 100.567 244.973 100.247 244.564 99.7542C243.928 98.9883 242.817 98.9111 241.847 98.9111C241 98.9111 239.578 99.6025 238.742 99.7542C236.331 100.192 234.97 100.411 232.532 100.597C229.357 100.84 227.53 101.101 224.381 100.597C222.454 100.289 221.471 99.5158 219.53 99.3326C218.404 99.2265 217.762 99.2647 216.64 99.3314L216.619 99.3326C215.324 99.4097 214.481 100.383 213.32 99.7542C212.649 99.3903 211.961 98.2787 211.961 98.2787L213.32 96.8032C213.32 96.8032 214.479 94.8545 215.649 94.2738C216.15 94.0247 216.481 94.0317 217.007 93.8522C220.241 92.7497 221.461 90.4351 224.769 89.6365C227.729 88.9222 229.517 89.2936 232.532 89.6365C235.222 89.9425 237.044 89.5307 239.324 91.112C240.679 92.0518 241.098 93.039 242.235 94.2738C243.902 96.0848 245.779 96.474 246.504 98.9111C246.994 100.556 246.504 103.338 246.504 103.338Z" fill="#9DBE98"/>
<path fill-rule="evenodd" clip-rule="evenodd" d="M212.302 98.7689L217.977 96.1842L225.351 94.2871H233.502L239.906 95.341L243.981 97.4489L246.116 100.189L245.536 103.338H244.563C244.563 103.338 245.377 101.965 245.34 101.23C245.309 100.637 245.04 100.319 244.691 99.906C244.649 99.8569 244.607 99.8065 244.563 99.7542C243.927 98.9883 242.817 98.9111 241.847 98.9111C241.343 98.9111 240.638 99.1548 239.972 99.3847C239.517 99.5419 239.081 99.6926 238.742 99.7542C236.331 100.192 234.97 100.411 232.532 100.597C232.126 100.628 231.742 100.66 231.375 100.69C228.868 100.895 227.128 101.037 224.381 100.597C223.49 100.455 222.801 100.213 222.125 99.9759C221.34 99.7002 220.573 99.4311 219.529 99.3326C218.404 99.2265 217.762 99.2647 216.64 99.3314L216.619 99.3326C216.123 99.3621 215.694 99.5226 215.288 99.6746C214.632 99.92 214.036 100.143 213.32 99.7542C212.945 99.551 212.565 99.1146 212.302 98.7689Z" fill="#90AE8B"/>
<path d="M249.609 98.9239C249.079 100.587 248.833 103.35 248.833 103.35H250.774C250.774 103.35 251.373 101.981 251.938 101.243C252.839 100.065 253.623 99.6801 254.849 98.9239C256.995 97.5997 258.504 97.6013 260.865 96.8161C264.329 95.6638 266.394 95.4425 269.792 94.0759C272.115 93.1411 273.169 91.7749 275.613 91.3357C277.258 91.0401 278.357 92.065 279.883 91.3357C281.256 90.6793 282.6 88.3847 282.6 88.3847V86.9092C282.6 86.9092 281.055 88.185 279.883 88.3847C279.284 88.4867 278.936 88.4143 278.33 88.3847C274.835 88.2135 273.259 85.9445 269.792 85.4337C267.088 85.0354 265.449 84.6994 262.805 85.4337C259.16 86.4464 257.547 88.4866 254.849 91.3357C252.404 93.918 250.726 95.4239 249.609 98.9239Z" fill="#9DBE98"/>
<path fill-rule="evenodd" clip-rule="evenodd" d="M282.277 88.8904L279.301 89.8604L275.225 89.2281L271.538 88.5957L263.582 89.8604L257.178 93.233L251.744 97.6595L249.686 103.35H250.26L250.862 103.155C251.049 102.751 251.504 101.81 251.938 101.242C252.725 100.213 253.424 99.7894 254.406 99.1941C254.547 99.1084 254.695 99.019 254.849 98.9238C256.289 98.0355 257.442 97.7438 258.758 97.411C259.403 97.2477 260.088 97.0744 260.865 96.816C262.299 96.3388 263.494 96.0213 264.643 95.7159C266.268 95.284 267.801 94.8765 269.792 94.0758C270.732 93.6975 271.464 93.2485 272.165 92.8189C273.196 92.187 274.158 91.597 275.613 91.3356C276.333 91.2063 276.948 91.3296 277.539 91.4483C278.301 91.6009 279.024 91.746 279.883 91.3356C280.848 90.8745 281.798 89.605 282.277 88.8904Z" fill="#90AE8B"/>
<path d="M245.7 95.7301C246.354 98.6962 245.7 103.54 245.7 103.54C245.7 103.54 246.798 104.311 247.592 104.362C248.525 104.421 249.863 103.54 249.863 103.54C249.863 103.54 249.765 98.7122 249.106 95.7301C248.67 93.7557 248.278 92.6867 247.592 90.7977C246.938 88.9932 245.7 86.2764 245.7 86.2764C245.7 86.2764 244.359 86.4741 243.808 87.0984C242.888 88.1419 243.808 90.7977 243.808 90.7977C243.808 90.7977 245.253 93.7006 245.7 95.7301Z" fill="#D29A81"/>
</g>
</svg>
