<svg width="507" height="507" viewBox="0 0 507 507" fill="none" xmlns="http://www.w3.org/2000/svg">
<mask id="mask0_5402_3054" style="mask-type:alpha" maskUnits="userSpaceOnUse" x="0" y="0" width="507" height="507">
<circle cx="253.5" cy="253.5" r="253.5" fill="#DAE5D7"/>
</mask>
<g mask="url(#mask0_5402_3054)">
<circle cx="253.5" cy="253.5" r="253.5" fill="#DAE5D7"/>
<path d="M45.9999 522.5C41.2084 510.052 111 387 128.5 356.5L392.5 349.5C414 389.5 455.066 508.524 453.5 522.5C424.369 659.857 94.5 648.5 45.9999 522.5Z" fill="#FEA34A"/>
<path d="M83.5818 349.732C105.211 375.399 138.046 390.84 151.759 395.351C171.92 402.593 223.301 415.985 267.543 411.615C311.784 407.245 367.414 390.211 384.755 381.089C405.561 370.172 442.983 342.368 446.937 301.315C450.891 260.262 439.295 255.987 423.992 210.952C423.76 173.692 424.281 149.098 423.973 141.147C423.327 134.821 422.057 123.897 402.5 117.5C382.943 111.103 361.621 129.042 357.788 135.043L327.349 169.547C283.875 145.191 213.757 152.678 184.132 159.466C161.359 137.653 140.962 127.701 133.61 125.452C126.295 122.904 108.998 123.728 98.3362 147.415C87.6746 171.101 90.8044 213.118 93.7021 231.166C90.2315 241.172 82.204 263.859 77.8583 274.563C72.4261 287.943 56.5459 317.648 83.5818 349.732Z" fill="#FEA34A"/>
<path d="M143.084 295.587C110.942 279.418 79.6453 293.609 70.1547 302.586C69.5552 303.153 69.1024 303.856 68.8726 304.653C67.9646 307.805 67.1395 314.252 69.1312 322.153C71.9925 333.505 76.085 338.185 81.4089 346.689C85.668 353.492 97.7668 364.347 103.284 368.924C107.4 372.239 121.486 381.609 144.897 392.562C174.159 406.253 222.989 413.101 246.537 413.683C270.187 414.267 295.769 409.446 307.417 407.635C318.209 405.958 349.572 395.308 364.547 390.568C379.522 385.828 406.431 369.99 425.498 348.944C438.749 334.318 444.086 316.24 445.572 306.106C445.934 303.634 444.717 301.211 442.522 299.977C433.117 294.691 416.029 287.848 404.709 286.258C372.898 281.79 344.283 306.056 328.184 295.583C315.306 287.204 310.341 264.537 300.297 256.536C266.92 229.948 231.547 245.966 218.032 257.298C199.175 273.111 176.302 312.297 143.084 295.587Z" fill="#FCEDC6"/>
<path d="M279.121 577.764C277.304 577.717 242.306 577.597 226.634 577.486C223.467 577.463 220.319 576.825 217.538 575.309C181.429 555.629 188.695 511.108 178.316 472.696C158.518 411.452 154.343 395.685 163.772 387.58C172.706 379.902 324.105 380.904 340.013 381.031C340.976 381.039 341.844 381.111 342.801 381.224C355.144 382.692 357.668 381.336 341.748 442.462C335.588 466.114 335.543 453.864 333.012 493.783C328.306 568.007 306.936 574.669 306.936 574.669C306.936 574.669 294.904 578.164 279.121 577.764Z" fill="#FCEDC6"/>
<path d="M148.116 215.542C137.121 222.392 141.688 230.151 149.185 231.204C165.995 233.565 176.407 226.354 179.716 218.885C180.704 216.656 179.625 214.089 177.368 213.104C169.999 209.891 157.439 209.734 148.116 215.542Z" fill="#FBEDC6"/>
<path d="M372.748 215.142C383.671 222.552 378.957 230.028 371.414 230.672C354.5 232.117 344.169 224.378 340.972 216.766C340.018 214.494 341.144 211.997 343.427 211.139C350.877 208.337 363.487 208.858 372.748 215.142Z" fill="#FBEDC6"/>
<path d="M137.776 157.517C115.64 141.633 117.592 183.12 121.335 205.848L162.784 178.366C163.671 178.034 159.912 173.4 137.776 157.517Z" fill="#FCDB8A"/>
<path d="M397.137 142.396C387.88 134.891 370.838 161.361 363.475 175.534L403.457 181.15C405.208 171.359 406.394 149.901 397.137 142.396Z" fill="#FCDB8A"/>
<ellipse cx="15.9819" cy="15.8156" rx="15.9819" ry="15.8156" transform="matrix(0.990278 0.139104 -0.120201 0.99275 148.841 237.542)" fill="#562528"/>
<ellipse cx="15.9819" cy="15.8156" rx="15.9819" ry="15.8156" transform="matrix(0.990278 0.139104 -0.120201 0.99275 349.804 242.96)" fill="#562528"/>
<path d="M257.781 292.5L257.781 310.329M257.781 310.329C254.196 318.95 247.659 323.963 227.758 323.905C213.034 323.862 204.435 320.629 203.511 307.268M257.781 310.329C261.493 318.151 268.557 326.277 294.866 322.382C304.355 320.978 313.173 318.11 313.517 301.278" stroke="#562528" stroke-width="8" stroke-linecap="round"/>
<path d="M267.941 262.939L251.289 261.851C243.444 261.338 238.55 270.115 242.755 277.156L250.794 290.619C254.538 296.888 263.074 297.429 267.095 291.651L275.708 279.277C280.214 272.802 275.769 263.451 267.941 262.939Z" fill="#562528"/>
<path d="M352.5 395C289.7 432.6 196.667 412.167 158.5 398L161.5 420.5C178.667 432.333 220.5 451.7 258.5 448.5C296.5 445.3 332.333 432.833 345.5 427L352.5 395Z" fill="#EBDBB0"/>
<path d="M124 382.5C132.5 387.5 149.667 395.333 158.5 398.5C158.5 400.5 160.833 414.667 162 421.5C132.8 397.1 124.5 385.333 124 382.5Z" fill="#DB924A"/>
<path d="M387.5 380C379 385 361.333 392.333 352.5 395.5C352.5 397.5 347.167 420.167 346 427C375.2 402.6 387 382.833 387.5 380Z" fill="#DB924A"/>
<circle cx="168" cy="250" r="4" fill="white"/>
<circle cx="369" cy="254" r="4" fill="white"/>
<path d="M206.957 409.092C218.991 411.026 237.905 413.133 237.905 413.133L244.773 423.969C244.773 423.969 222.337 422.519 208.396 419.22C187.754 414.335 158.046 398.842 158.046 398.842C158.046 398.842 187.688 405.996 206.957 409.092Z" fill="#E8AFC5"/>
<path d="M307.61 441.771L332.926 423.387L335.232 425.454L333.404 432.135L340.136 444.927L343.369 463.943C343.369 463.943 344.28 468.568 343.937 474.331C343.598 480.027 341.673 493.099 341.673 493.099C340.295 502.255 339.909 508.55 337.492 516.908C335.481 523.858 332.945 534.039 330.367 537.039C328.389 539.34 298.405 514.11 298.405 514.11C298.405 514.11 261.042 524.74 258.762 521.213C256.366 517.506 265.422 500.372 270.06 487.145C272.597 479.912 290.891 456.943 290.891 456.943L307.61 441.771Z" fill="#E8AFC5"/>
<path d="M385.353 441.687L357.043 428.365L355.164 430.828L358.21 437.048C358.21 437.048 357.092 443.961 356.187 449.533C354.98 456.968 355.696 468.753 355.696 468.753C355.696 468.753 358.872 482.097 360.288 487.694C362.066 494.726 365.78 502.748 365.78 502.748C368.847 511.484 372.302 515.805 376.241 523.562C379.517 530.014 383.885 536.962 386.979 539.426C389.352 541.317 407.932 511.026 407.932 511.026C407.932 511.026 446.624 514.476 448.203 510.585C449.863 506.495 437.761 491.359 430.729 479.233C426.884 472.602 404.614 453.462 404.614 453.462L385.353 441.687Z" fill="#E8AFC5"/>
<path d="M238.79 436.761C236.859 421.512 233.133 393.493 238.465 390.716C241.994 388.878 251.359 387.975 259.698 387.91C272.402 387.81 278.603 389.472 290.703 393.343C301.718 396.867 311.67 403.19 323.131 404.731C328.641 405.471 331.969 405.892 331.969 405.892L336.364 416.071L333.374 431.589L307.144 453.313L283.1 474.917C283.1 474.917 266.929 490.059 262.495 489.205C260.279 488.777 252.761 471.641 252.761 471.641C252.761 471.641 240.633 451.318 238.79 436.761Z" fill="#F5C6D8"/>
<path d="M453.456 423.125C453.377 407.755 453.408 379.489 447.759 377.433C444.02 376.072 433.545 376.186 425.268 377.211C412.66 378.773 407.802 381.446 396.312 386.866C385.852 391.8 376.813 399.37 365.651 402.395C360.285 403.849 357.041 404.702 357.041 404.702L354.014 415.368L359.007 430.362L387.852 448.47L414.513 466.746C414.513 466.746 432.525 479.644 436.809 478.218C438.951 477.504 444.164 459.532 444.164 459.532C444.164 459.532 453.532 437.799 453.456 423.125Z" fill="#F5C6D8"/>
<path d="M327.535 405.037C327.535 405.037 331.012 403.17 333.429 402.522C343.698 399.767 364.533 399.724 365.14 400.788C365.746 401.851 365.866 404.038 365.866 404.038C365.866 404.038 366.966 418.597 366.216 420.47C365.466 422.343 364.599 423.177 363.722 424.993C363.03 426.425 359.946 436.167 359.946 436.167L335.432 439.153C335.432 439.153 332.561 434.923 332.37 433.288C332.116 431.108 333.996 427.715 334.198 426.608C334.4 425.5 331.144 410.872 331.084 409.779C330.995 408.138 327.535 405.037 327.535 405.037Z" fill="#E8AFC5"/>
<path d="M301.224 415.25C313.276 413.322 332.507 415.733 332.507 415.733C332.507 415.733 324.172 417.928 319.048 420.307C312.316 423.433 309.32 427.558 301.942 428.372C299.179 428.676 297.52 429.477 294.834 428.76C292.312 428.088 290.233 427.61 289.158 425.232C287.959 422.582 289.093 420.239 290.956 418.005C293.59 414.846 297.163 415.9 301.224 415.25Z" fill="#E8AFC5"/>
<path d="M394.183 410.446C381.993 409.844 363.139 414.337 363.139 414.337C363.139 414.337 371.664 415.611 377.017 417.417C384.05 419.79 387.478 423.564 394.901 423.568C397.681 423.569 399.417 424.184 402.008 423.179C404.442 422.235 406.456 421.534 407.266 419.053C408.169 416.288 406.786 414.082 404.691 412.065C401.728 409.212 398.291 410.649 394.183 410.446Z" fill="#E8AFC5"/>
</g>
</svg>
