<svg width="507" height="507" viewBox="0 0 507 507" fill="none" xmlns="http://www.w3.org/2000/svg">
<mask id="mask0_5402_3136" style="mask-type:alpha" maskUnits="userSpaceOnUse" x="0" y="0" width="507" height="507">
<circle cx="253.5" cy="253.5" r="253.5" fill="#DAE5D7"/>
</mask>
<g mask="url(#mask0_5402_3136)">
<circle cx="253.5" cy="253.5" r="253.5" fill="#DAE5D7"/>
<path d="M45.9999 522.5C41.2084 510.052 111 387 128.5 356.5L392.5 349.5C414 389.5 455.066 508.524 453.5 522.5C424.369 659.857 94.5 648.5 45.9999 522.5Z" fill="#FEA34A"/>
<path d="M83.5818 349.732C105.211 375.399 138.046 390.84 151.759 395.351C171.92 402.593 223.301 415.985 267.543 411.615C311.784 407.245 367.414 390.211 384.755 381.089C405.561 370.172 442.983 342.368 446.937 301.315C450.891 260.262 439.295 255.987 423.992 210.952C423.76 173.692 424.281 149.098 423.973 141.147C423.327 134.821 422.057 123.897 402.5 117.5C382.943 111.103 361.621 129.042 357.788 135.043L327.349 169.547C283.875 145.191 213.757 152.678 184.132 159.466C161.359 137.653 140.962 127.701 133.61 125.452C126.295 122.904 108.998 123.728 98.3362 147.415C87.6746 171.101 90.8044 213.118 93.7021 231.166C90.2315 241.172 82.204 263.859 77.8583 274.563C72.4261 287.943 56.5459 317.648 83.5818 349.732Z" fill="#FEA34A"/>
<path d="M143.084 295.587C110.942 279.418 79.6453 293.609 70.1547 302.586C69.5552 303.153 69.1024 303.856 68.8726 304.653C67.9646 307.805 67.1395 314.252 69.1312 322.153C71.9925 333.505 76.085 338.185 81.4089 346.689C85.668 353.492 97.7668 364.347 103.284 368.924C107.4 372.239 121.486 381.609 144.897 392.562C174.159 406.253 222.989 413.101 246.537 413.683C270.187 414.267 295.769 409.446 307.417 407.635C318.209 405.958 349.572 395.308 364.547 390.568C379.522 385.828 406.431 369.99 425.498 348.944C438.749 334.318 444.086 316.24 445.572 306.106C445.934 303.634 444.717 301.211 442.522 299.977C433.117 294.691 416.029 287.848 404.709 286.258C372.898 281.79 344.283 306.056 328.184 295.583C315.306 287.204 310.341 264.537 300.297 256.536C266.92 229.948 231.547 245.966 218.032 257.298C199.175 273.111 176.302 312.297 143.084 295.587Z" fill="#FCEDC6"/>
<path d="M279.121 577.764C277.304 577.717 242.306 577.597 226.634 577.486C223.467 577.463 220.319 576.825 217.538 575.309C181.429 555.629 188.695 511.108 178.316 472.696C158.518 411.452 154.343 395.685 163.772 387.58C172.706 379.902 324.105 380.904 340.013 381.031C340.976 381.039 341.844 381.111 342.801 381.224C355.144 382.692 357.668 381.336 341.748 442.462C335.588 466.114 335.543 453.864 333.012 493.783C328.306 568.007 306.936 574.669 306.936 574.669C306.936 574.669 294.904 578.164 279.121 577.764Z" fill="#FCEDC6"/>
<path d="M148.116 215.542C137.121 222.392 141.688 230.151 149.185 231.204C165.995 233.565 176.407 226.354 179.716 218.885C180.704 216.656 179.625 214.089 177.368 213.104C169.999 209.891 157.439 209.734 148.116 215.542Z" fill="#FBEDC6"/>
<path d="M372.748 215.142C383.671 222.552 378.957 230.028 371.414 230.672C354.5 232.117 344.169 224.378 340.972 216.766C340.018 214.494 341.144 211.997 343.427 211.139C350.877 208.337 363.487 208.858 372.748 215.142Z" fill="#FBEDC6"/>
<path d="M137.776 157.517C115.64 141.633 117.592 183.12 121.335 205.848L162.784 178.366C163.671 178.034 159.912 173.4 137.776 157.517Z" fill="#FCDB8A"/>
<path d="M397.137 142.396C387.88 134.891 370.838 161.361 363.475 175.534L403.457 181.15C405.208 171.359 406.394 149.901 397.137 142.396Z" fill="#FCDB8A"/>
<ellipse cx="15.9819" cy="15.8156" rx="15.9819" ry="15.8156" transform="matrix(0.990278 0.139104 -0.120201 0.99275 148.841 237.542)" fill="#562528"/>
<ellipse cx="15.9819" cy="15.8156" rx="15.9819" ry="15.8156" transform="matrix(0.990278 0.139104 -0.120201 0.99275 349.804 242.96)" fill="#562528"/>
<path d="M257.781 292.5L257.781 310.329M257.781 310.329C254.196 318.95 247.659 323.963 227.758 323.905C213.034 323.862 204.435 320.629 203.511 307.268M257.781 310.329C261.493 318.151 268.557 326.277 294.866 322.382C304.355 320.978 313.173 318.11 313.517 301.278" stroke="#562528" stroke-width="8" stroke-linecap="round"/>
<path d="M267.941 262.939L251.289 261.851C243.444 261.338 238.55 270.115 242.755 277.156L250.794 290.619C254.538 296.888 263.074 297.429 267.095 291.651L275.708 279.277C280.214 272.802 275.769 263.451 267.941 262.939Z" fill="#562528"/>
<path d="M352.5 395C289.7 432.6 196.667 412.167 158.5 398L161.5 420.5C178.667 432.333 220.5 451.7 258.5 448.5C296.5 445.3 332.333 432.833 345.5 427L352.5 395Z" fill="#EBDBB0"/>
<path d="M124 382.5C132.5 387.5 149.667 395.333 158.5 398.5C158.5 400.5 160.833 414.667 162 421.5C132.8 397.1 124.5 385.333 124 382.5Z" fill="#DB924A"/>
<path d="M387.5 380C379 385 361.333 392.333 352.5 395.5C352.5 397.5 347.167 420.167 346 427C375.2 402.6 387 382.833 387.5 380Z" fill="#DB924A"/>
<circle cx="168" cy="250" r="4" fill="white"/>
<circle cx="369" cy="254" r="4" fill="white"/>
<path d="M188.894 83.9182C185.798 98.4462 188.894 155.367 188.894 155.367H336.079C336.079 155.367 337.27 106.782 333.936 89.1578C330.602 71.5337 330.125 67.2468 317.979 53.1951C305.833 39.1435 278.92 37 260.105 37C241.29 37 223.428 39.7387 207.709 53.1951C191.99 66.6515 190.351 77.0814 188.894 83.9182Z" fill="#F3C66D"/>
<path fill-rule="evenodd" clip-rule="evenodd" d="M219.856 143.221C219.856 143.221 219.739 117.463 219.856 110.116C219.883 108.413 219.9 106.763 219.916 105.153C220.01 95.9404 220.091 87.9975 222 78.4401C223.634 70.252 225.736 64.8203 228.369 58.0148C229.066 56.2125 229.8 54.3138 230.573 52.2421C231.364 50.123 232.156 47.3688 232.943 44.6286L232.943 44.6285C233.441 42.8983 233.936 41.1735 234.429 39.6177C235.439 39.3712 236.453 39.1458 237.473 38.9401C236.369 43.7199 234.84 50.3276 233.67 55.3382C232.843 58.8759 232.038 61.835 231.276 64.6375C229.912 69.649 228.685 74.1598 227.715 80.5836C226.339 89.7045 226.259 95.726 226.154 103.663L226.154 103.663L226.154 103.663C226.127 105.665 226.099 107.789 226.048 110.116C225.887 117.462 226.048 143.221 226.048 143.221H219.856ZM248.798 37.402C249.102 41.5596 249.505 47.6646 249.626 52.2421C249.727 56.0412 249.697 58.759 249.664 61.7988C249.646 63.4458 249.626 65.1872 249.626 67.2464V95.1115C249.23 101.463 248.436 116.308 248.436 116.308C248.436 116.308 245.26 142.903 244.625 147.507L250.817 148.46C250.817 148.46 253.841 122.928 254.152 116.308C254.403 110.945 254.328 107.104 254.245 102.809V102.809V102.809V102.808V102.808V102.808C254.199 100.481 254.152 98.0202 254.152 95.1115C254.152 91.2874 254.234 88.0511 254.313 84.9904V84.9903C254.457 79.3415 254.586 74.2908 254.152 67.2464C253.789 61.3715 253.438 58.0845 252.723 52.2421C252.155 47.6085 251.142 41.44 250.43 37.2858C249.885 37.3209 249.341 37.3595 248.798 37.402ZM263.749 37.0264C265.376 41.1537 267.76 47.4428 269.156 52.2421C271.248 59.4366 272.019 63.6874 273.324 70.8777L273.443 71.5333C274.712 78.5231 275.222 82.8586 275.975 89.2593L275.975 89.2594L275.977 89.2716C276.079 90.1438 276.187 91.0545 276.301 92.0154C276.504 93.7207 276.697 95.2779 276.879 96.7459C277.619 102.706 278.176 107.197 278.444 114.165C278.666 119.927 279.159 147.507 279.159 147.507L284.636 145.364C284.636 142.899 284.458 136.332 284.279 129.764L284.279 129.762C284.101 123.195 283.922 116.629 283.922 114.165C283.922 114.165 282.57 100.633 281.302 92.0154C280.051 83.5133 279.191 78.7665 277.492 70.3425C277.094 68.3702 276.78 66.6277 276.485 64.992L276.485 64.9891L276.485 64.9889L276.485 64.9888C275.719 60.7376 275.083 57.2082 273.443 52.2421C271.836 47.3765 268.825 41.1856 266.719 37.0934C265.714 37.0636 264.724 37.0416 263.749 37.0264ZM283.055 38.3597C285.467 41.9295 289.79 48.5524 292.258 53.6711C295.491 60.3784 296.739 64.4158 298.926 71.5333C302.002 81.5431 303.413 87.3321 304.642 97.7313C305.43 104.392 307.977 137.266 307.977 137.266L314.407 136.552C314.407 136.552 311.266 102.501 310.12 95.1115L309.998 94.3239C308.359 83.7465 307.382 77.4356 303.451 67.2464C300.727 60.1833 298.928 56.2563 294.878 49.8605C292.597 46.2596 289 41.798 286.555 38.8811C285.392 38.6896 284.224 38.5163 283.055 38.3597ZM305.915 44.4783C307.814 47.559 310.383 51.8953 312.025 55.3382C316.496 64.7089 318.035 70.4649 320.361 80.5836C321.447 85.3073 321.91 88.6067 322.464 92.5492C322.686 94.129 322.922 95.812 323.219 97.7313C323.669 100.643 324.116 103.186 324.536 105.573L324.537 105.574L324.537 105.574L324.537 105.574C325.588 111.554 326.469 116.557 326.791 123.929C327.007 128.854 326.791 136.552 326.791 136.552L332.031 137.266V123.929C332.031 123.929 329.173 104.003 327.744 95.1115L327.726 95.0017C326.313 86.2088 326.092 84.8345 324.41 78.4401C324.245 77.813 324.085 77.2022 323.929 76.6059L323.925 76.5933L323.925 76.5905C321.603 67.7249 320.119 62.0592 315.36 53.6711C314.254 51.7223 312.752 49.4937 311.279 47.4342C309.603 46.3414 307.806 45.3598 305.915 44.4783ZM221.593 44.139C219.743 47.7336 217.701 51.8945 216.284 55.3382C212.353 64.8867 210.411 70.4509 208.424 80.5836C207.062 87.5321 206.953 92.7261 206.835 98.3534C206.761 101.916 206.683 105.651 206.281 110.116C205.694 116.633 204.614 131.074 204.614 131.074H200.803C200.803 131.074 201.686 116.627 202.232 110.116C202.578 105.987 202.666 102.478 202.749 99.1547C202.897 93.1982 203.031 87.8401 204.614 80.5836C206.839 70.3811 208.76 64.6804 213.426 55.3382C215.008 52.1703 217.275 48.5035 219.453 45.2086C220.163 44.8363 220.877 44.48 221.593 44.139Z" fill="#E2AE4A"/>
<path fill-rule="evenodd" clip-rule="evenodd" d="M187.648 121.198C197.185 123.232 212.167 126.096 223.404 126.697C227.038 126.891 230.45 127.143 233.705 127.384C249.457 128.547 261.562 129.441 277.634 122.243C290.893 116.305 299.372 111.928 307.238 99.7131C313.334 90.2456 314.215 87.0813 314.168 75.8208C314.14 68.9877 312.059 64.7658 309.417 59.4076C308.72 57.9945 307.985 56.5024 307.238 54.8624C304.793 49.4976 300.009 44.6674 294.376 40.4891C283.014 37.6364 270.357 37 260.105 37C241.29 37 223.428 39.7387 207.709 53.1951C192.631 66.103 190.508 76.226 189.074 83.0642C189.013 83.3548 188.954 83.6395 188.894 83.9182C187.471 90.5991 187.356 106.245 187.648 121.198Z" fill="#F7D674"/>
<path fill-rule="evenodd" clip-rule="evenodd" d="M253.241 128.087C251.194 128.178 249.14 128.19 247.058 128.145C247.692 122.96 248.436 116.309 248.436 116.309C248.436 116.309 249.23 101.463 249.627 95.1123V67.2472C249.627 65.188 249.646 63.4466 249.664 61.7996C249.697 58.7598 249.727 56.042 249.627 52.2429C249.506 47.6655 249.102 41.5607 248.798 37.403C249.341 37.3606 249.885 37.3219 250.43 37.2869C251.142 41.4411 252.155 47.6094 252.723 52.2429C253.438 58.0853 253.789 61.3723 254.152 67.2472C254.586 74.2916 254.457 79.3423 254.313 84.9911V84.9912C254.235 88.0519 254.152 91.2882 254.152 95.1123C254.152 98.021 254.2 100.482 254.245 102.809V102.809V102.809V102.809V102.81C254.328 107.105 254.403 110.946 254.152 116.309C253.984 119.898 253.578 124.565 253.241 128.087ZM283.922 119.342C282.218 120.164 280.428 120.986 278.54 121.836C278.551 119.282 278.533 116.465 278.444 114.165C278.176 107.198 277.619 102.707 276.879 96.7465C276.697 95.2786 276.504 93.7214 276.301 92.0162C276.186 91.0508 276.079 90.1362 275.975 89.2602C275.222 82.8595 274.712 78.524 273.443 71.5341L273.324 70.8784C272.02 63.6881 271.248 59.4373 269.156 52.2429C267.76 47.4437 265.376 41.1546 263.749 37.0273C264.724 37.0426 265.715 37.0645 266.719 37.0944C268.825 41.1866 271.836 47.3773 273.443 52.2429C275.083 57.209 275.719 60.7385 276.485 64.9898C276.78 66.6263 277.094 68.3698 277.492 70.3433C279.191 78.7673 280.051 83.5141 281.302 92.0162C282.57 100.634 283.922 114.165 283.922 114.165V119.342ZM310.107 95.0259C309.31 96.4338 308.363 97.9658 307.238 99.7123C306.531 100.811 305.818 101.847 305.097 102.826C304.975 101.041 304.826 99.2829 304.642 97.7321C303.413 87.3329 302.002 81.5439 298.926 71.5341C296.739 64.4166 295.491 60.3792 292.258 53.6719C289.79 48.5532 285.467 41.9304 283.055 38.3605C284.224 38.5171 285.392 38.6904 286.555 38.8819C289 41.7988 292.598 46.2604 294.878 49.8613C298.928 56.2571 300.727 60.1841 303.452 67.2472C307.382 77.4364 308.36 83.7474 309.998 94.3249L310.107 95.0259ZM237.473 38.9413C236.369 43.7211 234.84 50.3285 233.67 55.339C232.843 58.8767 232.038 61.8358 231.276 64.6383C229.912 69.6498 228.685 74.1606 227.716 80.5844C226.339 89.7053 226.259 95.7268 226.154 103.663L226.154 103.664L226.154 103.664C226.128 105.666 226.099 107.79 226.048 110.117C225.93 115.537 225.986 123.201 226.024 126.848C225.164 126.794 224.291 126.744 223.405 126.696C222.251 126.635 221.058 126.549 219.835 126.443C219.808 122.658 219.773 115.344 219.856 110.117C219.883 108.413 219.9 106.764 219.917 105.154C220.011 95.9412 220.092 87.9983 222 78.4409C223.634 70.2528 225.736 64.8211 228.369 58.0156C229.066 56.2133 229.801 54.3146 230.574 52.2429C231.364 50.1238 232.156 47.3696 232.944 44.6294L232.944 44.6293C233.441 42.8992 233.936 41.1747 234.429 39.619C235.439 39.3724 236.453 39.147 237.473 38.9413ZM219.452 45.2105C220.163 44.8382 220.876 44.4818 221.593 44.1407C219.743 47.7351 217.701 51.8955 216.284 55.339C212.354 64.8875 210.411 70.4517 208.424 80.5844C207.062 87.5329 206.953 92.7269 206.836 98.3542C206.761 101.916 206.683 105.652 206.281 110.117C205.868 114.705 205.21 121.098 204.857 124.479C203.579 124.268 202.31 124.05 201.06 123.828C201.363 120.324 201.871 114.423 202.232 110.117C202.578 105.988 202.666 102.479 202.749 99.1555C202.897 93.199 203.031 87.8409 204.614 80.5844C206.839 70.3819 208.761 64.6812 213.426 55.339C215.008 52.1714 217.275 48.5051 219.452 45.2105Z" fill="#F3C66D"/>
<path d="M173.89 134.408C175.7 130.516 177.85 128.881 181.988 127.74C188.895 125.834 188.619 127.009 195.038 127.74C205.609 128.943 210.89 132.683 221.06 135.809C228.54 138.107 234.082 138.652 241.767 140.124C255.307 142.718 259.496 142.773 273.204 141.315C284.865 140.074 292.249 137.847 303.928 136.79C313.892 135.888 324.03 133.235 333.698 135.809C339.256 137.288 339.702 137.966 344.112 141.659C348.618 145.432 349.203 150.188 350.082 157.345L350.131 157.748C351.091 165.545 348.597 171.78 344.112 178.23C339.432 184.959 335.899 184.319 328.458 187.757C317.583 192.781 305.848 191.832 293.925 192.996C276.832 194.665 272.251 193.953 255.104 192.996C237.61 192.02 230.187 192.001 213.187 187.757C199.768 184.406 202.946 185.613 187.227 179.183C182.692 177.327 174.69 172.089 172.938 167.513C170.599 161.407 171.032 157.476 171.032 150.938C171.032 145.029 171.4 139.766 173.89 134.408Z" fill="#F3C66D"/>
<path fill-rule="evenodd" clip-rule="evenodd" d="M196.307 182.876C195.117 182.405 193.727 181.842 192.032 181.15L189.609 170.134V156.558L192.229 139.649L198.421 128.455H199.532C200.439 128.643 201.31 128.85 202.154 129.075L196.277 140.601L193.181 156.558V170.372L196.307 182.876ZM221.703 189.7C220.188 189.393 218.605 189.048 216.93 188.66L214.14 172.992V152.271L217.068 134.477C218.313 134.924 219.625 135.368 221.03 135.8L218.188 151.319L218.665 172.992L221.703 189.7ZM247.363 192.579C245.763 192.492 244.244 192.406 242.781 192.316L240.814 176.802V157.749L242.876 140.336C244.517 140.645 246.019 140.914 247.418 141.145L245.577 156.558V175.611L247.363 192.579ZM278.352 193.988C277.151 194.004 275.983 194.003 274.817 193.986L277.015 176.802V164.18L274.459 141.177C275.425 141.066 276.362 140.948 277.276 140.824L281.302 158.94V174.182L278.352 193.988ZM309.745 191.98C307.948 192.118 306.14 192.22 304.322 192.316L307.5 176.802L309.405 158.94L303.702 136.811C303.777 136.804 303.852 136.798 303.928 136.791C305.379 136.659 306.835 136.491 308.292 136.307C309.962 140.428 313.724 150.415 314.168 157.749C314.457 162.511 313.972 165.727 313.377 169.672C313.168 171.054 312.946 172.525 312.739 174.182C312.005 180.069 310.437 188.409 309.745 191.98ZM334.789 185.254C334.481 185.367 334.166 185.482 333.843 185.599C332.518 186.08 331.056 186.611 329.393 187.338C329.774 184.655 330.268 180.754 330.363 177.993C330.522 173.389 330.363 161.798 330.363 161.798C330.363 161.798 329.252 154.653 328.934 152.271C328.617 149.89 323.457 135.838 323.457 135.838L326.52 134.757C326.929 134.775 327.337 134.799 327.745 134.829C328.732 136.58 332.506 143.436 333.936 148.461C335.144 152.708 335.383 155.337 335.763 159.515L335.81 160.029L335.841 160.369C336.428 166.76 336.329 170.403 335.841 176.802C335.646 179.362 335.2 182.589 334.789 185.254Z" fill="#E2AE4A"/>
<path fill-rule="evenodd" clip-rule="evenodd" d="M181.987 127.741C177.849 128.882 175.699 130.517 173.89 134.409C171.399 139.767 171.032 145.031 171.032 150.939C171.032 151.862 171.023 152.733 171.015 153.565C170.965 158.63 170.929 162.27 172.937 167.514C174.689 172.09 182.691 177.329 187.227 179.184C195.736 182.665 198.707 183.908 201.772 184.847C204.368 185.643 207.032 186.221 213.187 187.758C228.459 191.571 236.003 191.974 250.064 192.724C251.653 192.809 253.326 192.898 255.103 192.997C257.497 193.131 259.646 193.26 261.618 193.378C272.226 194.014 277.722 194.344 288.724 193.463C295.147 190.096 301.514 185.638 304.88 180.136C305.458 179.191 306.038 178.289 306.6 177.413C309.829 172.383 312.49 168.239 311.072 162.036C310.158 158.033 308.338 155.967 305.812 153.097C305.511 152.755 305.201 152.402 304.88 152.033C299.107 145.384 285.589 140.363 285.589 140.363L283.315 139.901C280.193 140.426 276.915 140.921 273.204 141.316C259.495 142.774 255.306 142.719 241.766 140.125C239.592 139.709 237.589 139.366 235.666 139.038C230.79 138.204 226.423 137.458 221.059 135.81C217.446 134.699 214.45 133.512 211.615 132.387C206.469 130.347 201.853 128.516 195.037 127.741C194.368 127.665 193.772 127.584 193.233 127.502H182.877C182.594 127.576 182.298 127.655 181.987 127.741Z" fill="#F7D674"/>
<path fill-rule="evenodd" clip-rule="evenodd" d="M199.531 128.455H198.42C198.42 128.455 193.965 134.965 192.228 139.649C190.283 144.891 190.077 148.532 189.795 153.486C189.74 154.453 189.682 155.47 189.608 156.558L189.568 157.138C189.231 162.075 189.027 165.062 189.608 170.134C190.032 173.837 191.398 179.04 191.971 181.125C193.66 181.814 195.047 182.377 196.236 182.848C195.533 180.639 193.708 174.644 193.18 170.372C192.52 165.018 192.706 161.932 193.18 156.558C193.738 150.235 194.136 146.578 196.277 140.601C197.757 136.466 201.009 130.888 202.102 129.061C201.274 128.842 200.42 128.639 199.531 128.455ZM217.023 134.461C216.413 137.403 214.658 146.178 214.139 152.271C213.452 160.334 213.37 164.937 214.139 172.992C214.631 178.148 216.131 185.367 216.846 188.641C218.526 189.031 220.113 189.377 221.631 189.686C220.895 186.327 219.258 178.529 218.664 172.992C217.761 164.574 217.416 159.749 218.188 151.319C218.663 146.123 220.27 138.79 220.962 135.78C219.566 135.349 218.262 134.906 217.023 134.461ZM242.852 140.332C242.474 142.838 241.178 151.702 240.813 157.749C240.365 165.176 240.318 169.378 240.813 176.802C241.156 181.951 242.255 189.278 242.732 192.313C244.2 192.404 245.723 192.49 247.329 192.577C246.933 189.588 245.883 181.331 245.576 175.611C245.177 168.181 245.097 163.984 245.576 156.558C245.924 151.178 247.08 143.266 247.399 141.142C245.999 140.911 244.496 140.641 242.852 140.332ZM274.483 141.174C274.905 143.929 276.7 156.021 277.014 164.18C277.203 169.105 277.252 171.879 277.014 176.802C276.75 182.267 275.638 189.745 274.951 193.988C276.112 194.004 277.277 194.004 278.476 193.986C279.312 189.621 280.917 180.635 281.301 174.182L281.313 173.977C281.66 168.162 281.86 164.797 281.301 158.94C280.708 152.726 278.27 143.944 277.359 140.813C276.427 140.94 275.47 141.06 274.483 141.174ZM309.305 157.557C309.349 158.027 309.383 158.489 309.404 158.94C309.657 164.262 309.037 167.803 308.261 172.236L308.261 172.237L308.26 172.238C308.068 173.338 307.866 174.492 307.665 175.743C310.377 171.423 312.331 167.54 311.073 162.036C310.661 160.234 310.066 158.824 309.305 157.557Z" fill="#F3C66D"/>
</g>
</svg>
