<svg width="507" height="507" viewBox="0 0 507 507" fill="none" xmlns="http://www.w3.org/2000/svg">
<mask id="mask0_5450_5134" style="mask-type:alpha" maskUnits="userSpaceOnUse" x="0" y="0" width="507" height="507">
<circle cx="253.5" cy="253.5" r="253.5" fill="#DAE5D7"/>
</mask>
<g mask="url(#mask0_5450_5134)">
<circle cx="253.5" cy="253.5" r="253.5" fill="#DAE5D7"/>
<path d="M45.9999 522.5C41.2084 510.052 111 387 128.5 356.5L392.5 349.5C414 389.5 455.066 508.524 453.5 522.5C424.369 659.857 94.5 648.5 45.9999 522.5Z" fill="#CC554E"/>
<path d="M83.5823 349.732C105.211 375.399 138.046 390.84 151.76 395.351C171.92 402.593 223.302 415.985 267.543 411.615C311.785 407.245 367.415 390.211 384.756 381.089C405.562 370.172 442.984 342.368 446.938 301.315C450.892 260.262 439.295 255.987 423.993 210.952C423.76 173.692 424.282 149.098 423.974 141.147C423.328 134.821 422.057 123.897 402.5 117.5C382.944 111.103 361.621 129.042 357.789 135.043L327.35 169.547C283.875 145.191 213.757 152.678 184.133 159.466C161.36 137.653 140.963 127.701 133.611 125.452C126.295 122.904 108.998 123.728 98.3367 147.415C87.6751 171.101 90.8049 213.118 93.7025 231.166C90.232 241.172 82.2045 263.859 77.8588 274.563C72.4266 287.943 56.5464 317.648 83.5823 349.732Z" fill="#CC554E"/>
<path d="M143.084 295.587C110.943 279.418 79.6458 293.609 70.1552 302.586C69.5557 303.153 69.1029 303.856 68.8731 304.653C67.9651 307.805 67.14 314.252 69.1317 322.153C71.993 333.505 76.0855 338.185 81.4094 346.689C85.6685 353.492 97.7673 364.347 103.284 368.924C107.401 372.239 121.487 381.609 144.897 392.562C174.16 406.253 222.99 413.101 246.538 413.683C270.187 414.267 295.77 409.446 307.417 407.635C318.209 405.958 349.572 395.308 364.548 390.568C379.523 385.828 406.431 369.99 425.499 348.944C438.75 334.318 444.087 316.24 445.572 306.106C445.935 303.634 444.718 301.211 442.523 299.977C433.117 294.691 416.029 287.848 404.709 286.258C372.899 281.79 344.283 306.056 328.185 295.583C315.306 287.204 310.342 264.537 300.298 256.536C266.921 229.948 231.547 245.966 218.033 257.298C199.176 273.111 176.302 312.297 143.084 295.587Z" fill="#FBFAF4"/>
<path d="M279.121 577.764C277.304 577.717 242.306 577.597 226.634 577.486C223.467 577.463 220.319 576.825 217.538 575.309C181.429 555.629 188.695 511.108 178.316 472.696C158.518 411.452 154.343 395.685 163.772 387.58C172.706 379.902 324.105 380.904 340.013 381.031C340.976 381.039 341.844 381.111 342.801 381.224C355.144 382.692 357.668 381.336 341.748 442.462C335.588 466.114 335.543 453.864 333.012 493.783C328.306 568.007 306.936 574.669 306.936 574.669C306.936 574.669 294.904 578.164 279.121 577.764Z" fill="#FBFAF4"/>
<path d="M148.116 215.542C137.121 222.392 141.688 230.151 149.185 231.204C165.995 233.565 176.407 226.354 179.716 218.885C180.704 216.656 179.625 214.089 177.368 213.104C169.999 209.891 157.439 209.734 148.116 215.542Z" fill="#FBEDC6"/>
<path d="M372.748 215.142C383.671 222.552 378.957 230.028 371.414 230.672C354.5 232.117 344.169 224.378 340.972 216.766C340.018 214.494 341.144 211.997 343.427 211.139C350.877 208.337 363.487 208.858 372.748 215.142Z" fill="#FBEDC6"/>
<path d="M137.776 157.517C115.64 141.633 117.592 183.12 121.335 205.848L162.783 178.366C163.671 178.034 159.911 173.4 137.776 157.517Z" fill="#FBFAF4"/>
<path d="M397.137 142.396C387.88 134.891 370.838 161.361 363.475 175.534L403.457 181.15C405.208 171.359 406.394 149.901 397.137 142.396Z" fill="#FBFAF4"/>
<ellipse cx="15.9819" cy="15.8156" rx="15.9819" ry="15.8156" transform="matrix(0.990278 0.139104 -0.120201 0.99275 148.841 237.542)" fill="#562528"/>
<ellipse cx="15.9819" cy="15.8156" rx="15.9819" ry="15.8156" transform="matrix(0.990278 0.139104 -0.120201 0.99275 349.805 242.96)" fill="#562528"/>
<path d="M257.781 292.5L257.781 310.329M257.781 310.329C254.196 318.95 247.659 323.963 227.758 323.905C213.034 323.862 204.435 320.629 203.511 307.268M257.781 310.329C261.493 318.151 268.557 326.277 294.866 322.382C304.355 320.978 313.173 318.11 313.517 301.278" stroke="#562528" stroke-width="8" stroke-linecap="round"/>
<path d="M267.941 262.939L251.289 261.851C243.444 261.338 238.55 270.115 242.755 277.156L250.794 290.619C254.538 296.888 263.074 297.429 267.095 291.651L275.708 279.277C280.214 272.802 275.769 263.451 267.941 262.939Z" fill="#562528"/>
<path d="M352.5 395C289.7 432.6 196.667 412.167 158.5 398L161.5 420.5C178.667 432.333 220.5 451.7 258.5 448.5C296.5 445.3 332.333 432.833 345.5 427L352.5 395Z" fill="#CED2CE"/>
<path d="M124 382.5C132.5 387.5 149.667 395.333 158.5 398.5C158.5 400.5 160.833 414.667 162 421.5C132.8 397.1 124.5 385.333 124 382.5Z" fill="#623F33"/>
<path d="M387.5 380C379 385 361.333 392.333 352.5 395.5C352.5 397.5 347.167 420.167 346 427C375.2 402.6 387 382.833 387.5 380Z" fill="#623F33"/>
<circle cx="168" cy="250" r="4" fill="white"/>
<circle cx="369" cy="254" r="4" fill="white"/>
<path d="M180.957 397.092C192.991 399.026 211.904 401.133 211.904 401.133L218.773 411.969C218.773 411.969 196.337 410.519 182.396 407.22C161.753 402.335 132.045 386.842 132.045 386.842C132.045 386.842 161.688 393.996 180.957 397.092Z" fill="#E8AFC5"/>
<path d="M281.61 429.771L306.926 411.387L309.233 413.454L307.404 420.135L314.136 432.927L317.369 451.943C317.369 451.943 318.28 456.568 317.937 462.331C317.598 468.027 315.673 481.099 315.673 481.099C314.296 490.255 313.91 496.55 311.492 504.908C309.481 511.858 306.945 522.039 304.367 525.039C302.389 527.34 272.405 502.11 272.405 502.11C272.405 502.11 235.042 512.74 232.763 509.213C230.366 505.506 239.422 488.372 244.06 475.145C246.597 467.912 264.892 444.943 264.892 444.943L281.61 429.771Z" fill="#E8AFC5"/>
<path d="M359.353 429.687L331.043 416.365L329.164 418.828L332.21 425.048C332.21 425.048 331.092 431.961 330.187 437.533C328.98 444.968 329.696 456.753 329.696 456.753C329.696 456.753 332.872 470.097 334.288 475.694C336.066 482.726 339.78 490.748 339.78 490.748C342.847 499.484 346.302 503.805 350.241 511.562C353.517 518.014 357.885 524.962 360.979 527.426C363.352 529.317 381.932 499.026 381.932 499.026C381.932 499.026 420.624 502.476 422.203 498.585C423.863 494.495 411.761 479.359 404.729 467.233C400.884 460.602 378.614 441.462 378.614 441.462L359.353 429.687Z" fill="#E8AFC5"/>
<path d="M212.79 424.761C210.859 409.512 207.133 381.493 212.465 378.716C215.994 376.878 225.359 375.975 233.698 375.91C246.402 375.81 252.603 377.472 264.703 381.343C275.718 384.867 285.67 391.19 297.131 392.731C302.641 393.471 305.969 393.892 305.969 393.892L310.364 404.071L307.374 419.589L281.144 441.313L257.1 462.917C257.1 462.917 240.929 478.059 236.495 477.205C234.279 476.777 226.761 459.641 226.761 459.641C226.761 459.641 214.633 439.318 212.79 424.761Z" fill="#F5C6D8"/>
<path d="M427.456 411.125C427.377 395.755 427.408 367.489 421.759 365.433C418.02 364.072 407.545 364.186 399.268 365.211C386.66 366.773 381.802 369.446 370.312 374.866C359.852 379.8 350.813 387.37 339.651 390.395C334.285 391.849 331.041 392.702 331.041 392.702L328.014 403.368L333.007 418.362L361.852 436.47L388.513 454.746C388.513 454.746 406.525 467.644 410.809 466.218C412.951 465.504 418.164 447.532 418.164 447.532C418.164 447.532 427.532 425.799 427.456 411.125Z" fill="#F5C6D8"/>
<path d="M301.535 393.037C301.535 393.037 305.012 391.17 307.429 390.522C317.698 387.767 338.533 387.724 339.14 388.788C339.746 389.851 339.866 392.038 339.866 392.038C339.866 392.038 340.966 406.597 340.216 408.47C339.466 410.343 338.599 411.177 337.722 412.993C337.03 414.425 333.946 424.167 333.946 424.167L309.432 427.153C309.432 427.153 306.561 422.923 306.37 421.288C306.116 419.108 307.996 415.715 308.198 414.608C308.4 413.5 305.144 398.872 305.084 397.779C304.995 396.138 301.535 393.037 301.535 393.037Z" fill="#E8AFC5"/>
<path d="M275.224 403.25C287.276 401.322 306.507 403.733 306.507 403.733C306.507 403.733 298.172 405.928 293.048 408.307C286.316 411.433 283.32 415.558 275.942 416.372C273.179 416.676 271.52 417.477 268.834 416.76C266.312 416.088 264.233 415.61 263.158 413.232C261.959 410.582 263.093 408.239 264.956 406.005C267.59 402.846 271.163 403.9 275.224 403.25Z" fill="#E8AFC5"/>
<path d="M368.183 398.446C355.993 397.844 337.139 402.337 337.139 402.337C337.139 402.337 345.664 403.611 351.017 405.417C358.05 407.79 361.478 411.564 368.901 411.568C371.681 411.569 373.417 412.184 376.008 411.179C378.442 410.235 380.456 409.534 381.266 407.053C382.169 404.288 380.786 402.082 378.691 400.065C375.728 397.212 372.291 398.649 368.183 398.446Z" fill="#E8AFC5"/>
</g>
</svg>
