<svg width="507" height="507" viewBox="0 0 507 507" fill="none" xmlns="http://www.w3.org/2000/svg">
<mask id="mask0_5450_5211" style="mask-type:alpha" maskUnits="userSpaceOnUse" x="0" y="0" width="507" height="507">
<circle cx="253.5" cy="253.5" r="253.5" fill="#DAE5D7"/>
</mask>
<g mask="url(#mask0_5450_5211)">
<circle cx="253.5" cy="253.5" r="253.5" fill="#DAE5D7"/>
<path d="M45.9999 522.5C41.2084 510.052 111 387 128.5 356.5L392.5 349.5C414 389.5 455.066 508.524 453.5 522.5C424.369 659.857 94.5 648.5 45.9999 522.5Z" fill="#CC554E"/>
<path d="M83.5823 349.732C105.211 375.399 138.046 390.84 151.76 395.351C171.92 402.593 223.302 415.985 267.543 411.615C311.785 407.245 367.415 390.211 384.756 381.089C405.562 370.172 442.984 342.368 446.938 301.315C450.892 260.262 439.295 255.987 423.993 210.952C423.76 173.692 424.282 149.098 423.974 141.147C423.328 134.821 422.057 123.897 402.5 117.5C382.944 111.103 361.621 129.042 357.789 135.043L327.35 169.547C283.875 145.191 213.757 152.678 184.133 159.466C161.36 137.653 140.963 127.701 133.611 125.452C126.295 122.904 108.998 123.728 98.3367 147.415C87.6751 171.101 90.8049 213.118 93.7025 231.166C90.232 241.172 82.2045 263.859 77.8588 274.563C72.4266 287.943 56.5464 317.648 83.5823 349.732Z" fill="#CC554E"/>
<path d="M143.084 295.587C110.943 279.418 79.6458 293.609 70.1552 302.586C69.5557 303.153 69.1029 303.856 68.8731 304.653C67.9651 307.805 67.14 314.252 69.1317 322.153C71.993 333.505 76.0855 338.185 81.4094 346.689C85.6685 353.492 97.7673 364.347 103.284 368.924C107.401 372.239 121.487 381.609 144.897 392.562C174.16 406.253 222.99 413.101 246.538 413.683C270.187 414.267 295.77 409.446 307.417 407.635C318.209 405.958 349.572 395.308 364.548 390.568C379.523 385.828 406.431 369.99 425.499 348.944C438.75 334.318 444.087 316.24 445.572 306.106C445.935 303.634 444.718 301.211 442.523 299.977C433.117 294.691 416.029 287.848 404.709 286.258C372.899 281.79 344.283 306.056 328.185 295.583C315.306 287.204 310.342 264.537 300.298 256.536C266.921 229.948 231.547 245.966 218.033 257.298C199.176 273.111 176.302 312.297 143.084 295.587Z" fill="#FBFAF4"/>
<path d="M279.121 577.764C277.304 577.717 242.306 577.597 226.634 577.486C223.467 577.463 220.319 576.825 217.538 575.309C181.429 555.629 188.695 511.108 178.316 472.696C158.518 411.452 154.343 395.685 163.772 387.58C172.706 379.902 324.105 380.904 340.013 381.031C340.976 381.039 341.844 381.111 342.801 381.224C355.144 382.692 357.668 381.336 341.748 442.462C335.588 466.114 335.543 453.864 333.012 493.783C328.306 568.007 306.936 574.669 306.936 574.669C306.936 574.669 294.904 578.164 279.121 577.764Z" fill="#FBFAF4"/>
<path d="M148.116 215.542C137.121 222.392 141.688 230.151 149.185 231.204C165.995 233.565 176.407 226.354 179.716 218.885C180.704 216.656 179.625 214.089 177.368 213.104C169.999 209.891 157.439 209.734 148.116 215.542Z" fill="#FBEDC6"/>
<path d="M372.748 215.142C383.671 222.552 378.957 230.028 371.414 230.672C354.5 232.117 344.169 224.378 340.972 216.766C340.018 214.494 341.144 211.997 343.427 211.139C350.877 208.337 363.487 208.858 372.748 215.142Z" fill="#FBEDC6"/>
<path d="M137.776 157.517C115.64 141.633 117.592 183.12 121.335 205.848L162.783 178.366C163.671 178.034 159.911 173.4 137.776 157.517Z" fill="#FBFAF4"/>
<path d="M397.137 142.396C387.88 134.891 370.838 161.361 363.475 175.534L403.457 181.15C405.208 171.359 406.394 149.901 397.137 142.396Z" fill="#FBFAF4"/>
<ellipse cx="15.9819" cy="15.8156" rx="15.9819" ry="15.8156" transform="matrix(0.990278 0.139104 -0.120201 0.99275 148.841 237.542)" fill="#562528"/>
<ellipse cx="15.9819" cy="15.8156" rx="15.9819" ry="15.8156" transform="matrix(0.990278 0.139104 -0.120201 0.99275 349.805 242.96)" fill="#562528"/>
<path d="M257.781 292.5L257.781 310.329M257.781 310.329C254.196 318.95 247.659 323.963 227.758 323.905C213.034 323.862 204.435 320.629 203.511 307.268M257.781 310.329C261.493 318.151 268.557 326.277 294.866 322.382C304.355 320.978 313.173 318.11 313.517 301.278" stroke="#562528" stroke-width="8" stroke-linecap="round"/>
<path d="M267.941 262.939L251.289 261.851C243.444 261.338 238.55 270.115 242.755 277.156L250.794 290.619C254.538 296.888 263.074 297.429 267.095 291.651L275.708 279.277C280.214 272.802 275.769 263.451 267.941 262.939Z" fill="#562528"/>
<path d="M352.5 395C289.7 432.6 196.667 412.167 158.5 398L161.5 420.5C178.667 432.333 220.5 451.7 258.5 448.5C296.5 445.3 332.333 432.833 345.5 427L352.5 395Z" fill="#CED2CE"/>
<path d="M124 382.5C132.5 387.5 149.667 395.333 158.5 398.5C158.5 400.5 160.833 414.667 162 421.5C132.8 397.1 124.5 385.333 124 382.5Z" fill="#623F33"/>
<path d="M387.5 380C379 385 361.333 392.333 352.5 395.5C352.5 397.5 347.167 420.167 346 427C375.2 402.6 387 382.833 387.5 380Z" fill="#623F33"/>
<circle cx="168" cy="250" r="4" fill="white"/>
<circle cx="369" cy="254" r="4" fill="white"/>
<path d="M187.24 121.91C198.026 107.578 225.082 98.3018 225.082 98.3018C225.082 98.3018 241.034 94.0021 251.475 93.4538C266.112 92.6851 268.552 93.0322 280.584 94.0861C300.572 96.194 318.62 107.576 331.04 121.91C337.067 128.866 338.026 142.567 338.026 148.047C338.026 154.371 323.273 166.861 309.111 173.974C288.405 184.373 274.225 182.474 251.475 184.302C232.731 185.808 229.546 187.253 208.975 184.302C200.133 183.034 190.36 177.949 184.329 170.812C177.912 163.218 174.759 155.214 175.014 148.89C175.488 137.158 180.397 131.002 187.24 121.91Z" fill="#F4B396"/>
<path fill-rule="evenodd" clip-rule="evenodd" d="M204.598 182.612C204.598 182.612 203.673 172.253 203.213 165.626C201.903 146.755 208.755 134.374 208.755 134.374C208.755 134.374 213.899 122.358 218.58 116.252C223.521 109.807 231.049 102.178 231.049 102.178C231.049 102.178 217.875 108.884 210.502 117.61C204.908 124.23 203.235 126.339 200.184 134.691C196.404 145.042 195.384 154.614 198.008 165.378C199.729 172.44 204.598 182.612 204.598 182.612Z" fill="#F29D77"/>
<path fill-rule="evenodd" clip-rule="evenodd" d="M296.37 104.262C301.331 108.201 305.985 112.847 308.592 117.831C314.969 130.019 315.58 137.211 311.872 145.991C308.861 153.12 304.498 155.791 298.914 159.21C297.927 159.814 296.901 160.442 295.838 161.122C288.349 165.913 282.522 166.915 275.287 168.16C273.016 168.55 270.606 168.965 267.962 169.528C255.508 172.181 247.742 172.548 236.155 173.097C234.734 173.164 233.255 173.234 231.704 173.311C228.098 173.49 224.909 173.804 221.912 174.098C214.095 174.866 207.579 175.507 198.361 173.311C192.843 171.997 186.129 168.91 180.827 166.173C176.92 159.995 175.028 153.813 175.221 148.723C175.652 137.393 179.991 131.279 186.102 122.667C186.299 122.389 186.499 122.108 186.7 121.824C196.827 107.535 222.229 98.2866 222.229 98.2866C222.229 98.2866 237.206 93.9997 247.008 93.453C260.752 92.6867 268.817 93.707 281.991 98.2866C282.507 98.466 283.012 98.6404 283.508 98.8115C288.183 100.426 292.017 101.75 296.37 104.262Z" fill="#F8C5AF"/>
<path fill-rule="evenodd" clip-rule="evenodd" d="M200.813 173.842C199.718 171.045 198.646 167.997 198.008 165.378C195.384 154.614 196.404 145.042 200.184 134.691C203.235 126.339 204.908 124.23 210.502 117.61C217.875 108.884 231.049 102.178 231.049 102.178C231.049 102.178 223.521 109.807 218.58 116.252C213.899 122.358 208.755 134.374 208.755 134.374C208.755 134.374 201.903 146.755 203.213 165.626C203.394 168.241 203.648 171.438 203.889 174.35C202.893 174.215 201.87 174.048 200.813 173.842Z" fill="#F4B396"/>
<path fill-rule="evenodd" clip-rule="evenodd" d="M296.109 104.204C295.488 103.361 288.476 98.7937 285.048 96.6156L280.682 94.0622C273.597 93.3618 266.454 93.0316 258.415 93.1975L277.479 104.204H296.109Z" fill="#F8C5AF"/>
<path d="M250.504 95.3376H248.564C248.564 95.3376 249.378 93.9648 249.34 93.2297C249.306 92.5671 248.973 92.247 248.564 91.7542C247.928 90.9883 246.817 90.9111 245.847 90.9111C245 90.9111 243.578 91.6025 242.742 91.7542C240.331 92.1917 238.97 92.4107 236.532 92.5974C233.357 92.8404 231.53 93.1011 228.381 92.5974C226.454 92.289 225.471 91.5158 223.53 91.3326C222.404 91.2265 221.762 91.2647 220.64 91.3314L220.619 91.3326C219.324 91.4097 218.481 92.3834 217.32 91.7542C216.649 91.3903 215.961 90.2787 215.961 90.2787L217.32 88.8032C217.32 88.8032 218.479 86.8545 219.649 86.2738C220.15 86.0247 220.481 86.0317 221.007 85.8522C224.241 84.7497 225.461 82.4351 228.769 81.6365C231.729 80.9222 233.517 81.2936 236.532 81.6365C239.222 81.9425 241.044 81.5307 243.324 83.112C244.679 84.0518 245.098 85.039 246.235 86.2738C247.902 88.0848 249.779 88.474 250.504 90.9111C250.994 92.556 250.504 95.3376 250.504 95.3376Z" fill="#9DBE98"/>
<path fill-rule="evenodd" clip-rule="evenodd" d="M216.303 90.7689L221.977 88.1842L229.352 86.2871H237.502L243.906 87.341L247.981 89.4489L250.116 92.1891L249.536 95.3376H248.564C248.564 95.3376 249.377 93.9648 249.34 93.2297C249.31 92.6374 249.04 92.3189 248.691 91.906C248.65 91.8569 248.607 91.8065 248.564 91.7542C247.928 90.9883 246.817 90.9111 245.847 90.9111C245.344 90.9111 244.638 91.1548 243.973 91.3847C243.518 91.5419 243.081 91.6926 242.742 91.7542C240.331 92.1917 238.97 92.4107 236.532 92.5974C236.126 92.6284 235.742 92.6598 235.375 92.6898C232.868 92.8945 231.128 93.0367 228.381 92.5974C227.49 92.4548 226.801 92.2129 226.126 91.9759C225.34 91.7002 224.573 91.4311 223.53 91.3326C222.404 91.2265 221.762 91.2647 220.64 91.3314L220.619 91.3326C220.124 91.3621 219.694 91.5226 219.288 91.6746C218.632 91.92 218.037 92.1428 217.32 91.7542C216.945 91.551 216.565 91.1146 216.303 90.7689Z" fill="#90AE8B"/>
<path d="M253.609 90.9239C253.079 92.5867 252.833 95.3504 252.833 95.3504H254.774C254.774 95.3504 255.373 93.9811 255.938 93.2426C256.839 92.0647 257.623 91.6801 258.849 90.9239C260.995 89.5997 262.504 89.6013 264.865 88.8161C268.329 87.6638 270.394 87.4425 273.792 86.0759C276.115 85.1411 277.169 83.7749 279.613 83.3357C281.258 83.0401 282.357 84.065 283.883 83.3357C285.256 82.6793 286.6 80.3847 286.6 80.3847V78.9092C286.6 78.9092 285.055 80.185 283.883 80.3847C283.284 80.4867 282.936 80.4143 282.33 80.3847C278.835 80.2135 277.259 77.9445 273.792 77.4337C271.088 77.0354 269.449 76.6994 266.805 77.4337C263.16 78.4464 261.547 80.4866 258.849 83.3357C256.404 85.918 254.726 87.4239 253.609 90.9239Z" fill="#9DBE98"/>
<path fill-rule="evenodd" clip-rule="evenodd" d="M286.277 80.8904L283.301 81.8604L279.225 81.2281L275.538 80.5957L267.582 81.8604L261.178 85.233L255.744 89.6595L253.686 95.3503H254.26L254.862 95.1552C255.049 94.7505 255.504 93.8101 255.938 93.2425C256.725 92.2129 257.424 91.7894 258.406 91.1941C258.547 91.1084 258.695 91.019 258.849 90.9238C260.289 90.0355 261.442 89.7438 262.758 89.411C263.403 89.2477 264.088 89.0744 264.865 88.816C266.299 88.3388 267.494 88.0213 268.643 87.7159C270.268 87.284 271.801 86.8765 273.792 86.0758C274.732 85.6975 275.464 85.2485 276.165 84.8189C277.196 84.187 278.158 83.597 279.613 83.3356C280.333 83.2063 280.948 83.3296 281.539 83.4483C282.301 83.6009 283.024 83.746 283.883 83.3356C284.848 82.8745 285.798 81.605 286.277 80.8904Z" fill="#90AE8B"/>
<path d="M249.7 87.7301C250.354 90.6962 249.7 95.5397 249.7 95.5397C249.7 95.5397 250.798 96.311 251.592 96.3617C252.525 96.4213 253.863 95.5397 253.863 95.5397C253.863 95.5397 253.765 90.7122 253.106 87.7301C252.67 85.7557 252.278 84.6867 251.592 82.7977C250.938 80.9932 249.7 78.2764 249.7 78.2764C249.7 78.2764 248.359 78.4741 247.808 79.0984C246.888 80.1419 247.808 82.7977 247.808 82.7977C247.808 82.7977 249.253 85.7006 249.7 87.7301Z" fill="#D29A81"/>
</g>
</svg>
