<svg width="507" height="507" viewBox="0 0 507 507" fill="none" xmlns="http://www.w3.org/2000/svg">
<mask id="mask0_5450_5446" style="mask-type:alpha" maskUnits="userSpaceOnUse" x="0" y="0" width="507" height="507">
<circle cx="253.5" cy="253.5" r="253.5" fill="#DAE5D7"/>
</mask>
<g mask="url(#mask0_5450_5446)">
<circle cx="253.5" cy="253.5" r="253.5" fill="#DAE5D7"/>
<path d="M46 522.5C41.2085 510.052 111 387 128.5 356.5L392.5 349.5C414 389.5 455.066 508.524 453.5 522.5C424.37 659.857 94.5001 648.5 46 522.5Z" fill="#50776F"/>
<path d="M83.582 349.732C105.211 375.399 138.046 390.84 151.76 395.351C171.92 402.593 223.301 415.985 267.543 411.615C311.784 407.245 367.414 390.211 384.756 381.089C405.562 370.172 442.983 342.368 446.937 301.315C450.891 260.262 439.295 255.987 423.993 210.952C423.76 173.692 424.281 149.098 423.973 141.147C423.327 134.821 422.057 123.897 402.5 117.5C382.943 111.103 361.621 129.042 357.788 135.043L327.349 169.547C283.875 145.191 213.757 152.678 184.132 159.466C161.359 137.653 140.962 127.701 133.61 125.452C126.295 122.904 108.998 123.728 98.3363 147.415C87.6747 171.101 90.8046 213.118 93.7022 231.166C90.2316 241.172 82.2042 263.859 77.8584 274.563C72.4263 287.943 56.546 317.648 83.582 349.732Z" fill="#50776F"/>
<path d="M143.084 295.587C110.942 279.418 79.6454 293.609 70.1548 302.586C69.5554 303.153 69.1025 303.856 68.8727 304.653C67.9647 307.805 67.1397 314.252 69.1313 322.153C71.9926 333.505 76.0851 338.185 81.409 346.689C85.6682 353.492 97.767 364.347 103.284 368.924C107.401 372.239 121.486 381.609 144.897 392.562C174.16 406.253 222.989 413.101 246.538 413.683C270.187 414.267 295.769 409.446 307.417 407.635C318.209 405.958 349.572 395.308 364.547 390.568C379.523 385.828 406.431 369.99 425.498 348.944C438.749 334.318 444.087 316.24 445.572 306.106C445.934 303.634 444.717 301.211 442.522 299.977C433.117 294.691 416.029 287.848 404.709 286.258C372.898 281.79 344.283 306.056 328.185 295.583C315.306 287.204 310.342 264.537 300.297 256.536C266.92 229.948 231.547 245.966 218.033 257.298C199.175 273.111 176.302 312.297 143.084 295.587Z" fill="#FCEDC6"/>
<path d="M279.121 577.764C277.304 577.717 242.306 577.597 226.634 577.486C223.467 577.463 220.319 576.825 217.538 575.309C181.429 555.629 188.695 511.108 178.316 472.696C158.518 411.452 154.343 395.685 163.772 387.58C172.706 379.902 324.105 380.904 340.013 381.031C340.976 381.039 341.844 381.111 342.801 381.224C355.144 382.692 357.668 381.336 341.748 442.462C335.588 466.114 335.543 453.864 333.012 493.783C328.306 568.007 306.936 574.669 306.936 574.669C306.936 574.669 294.904 578.164 279.121 577.764Z" fill="#FCEDC6"/>
<path d="M148.116 215.542C137.121 222.392 141.688 230.151 149.185 231.204C165.995 233.565 176.407 226.354 179.716 218.885C180.704 216.656 179.625 214.089 177.368 213.104C169.999 209.891 157.439 209.734 148.116 215.542Z" fill="#FBEDC6"/>
<path d="M372.749 215.142C383.671 222.552 378.957 230.028 371.414 230.672C354.5 232.117 344.169 224.378 340.972 216.766C340.018 214.494 341.144 211.997 343.427 211.139C350.878 208.337 363.487 208.858 372.749 215.142Z" fill="#FBEDC6"/>
<path d="M137.776 157.517C115.64 141.633 117.592 183.12 121.335 205.848L162.783 178.366C163.671 178.034 159.911 173.4 137.776 157.517Z" fill="#FCDB8A"/>
<path d="M397.137 142.396C387.88 134.891 370.838 161.361 363.475 175.534L403.457 181.15C405.208 171.359 406.394 149.901 397.137 142.396Z" fill="#FCDB8A"/>
<ellipse cx="15.9819" cy="15.8156" rx="15.9819" ry="15.8156" transform="matrix(0.990278 0.139104 -0.120201 0.99275 148.841 237.542)" fill="#562528"/>
<ellipse cx="15.9819" cy="15.8156" rx="15.9819" ry="15.8156" transform="matrix(0.990278 0.139104 -0.120201 0.99275 349.804 242.96)" fill="#562528"/>
<path d="M257.781 292.5L257.781 310.329M257.781 310.329C254.195 318.95 247.659 323.963 227.758 323.905C213.033 323.862 204.435 320.629 203.511 307.268M257.781 310.329C261.493 318.151 268.557 326.277 294.866 322.382C304.355 320.978 313.173 318.11 313.517 301.278" stroke="#562528" stroke-width="8" stroke-linecap="round"/>
<path d="M267.941 262.939L251.289 261.851C243.444 261.338 238.55 270.115 242.755 277.156L250.794 290.619C254.538 296.888 263.074 297.429 267.095 291.651L275.708 279.277C280.214 272.802 275.769 263.451 267.941 262.939Z" fill="#562528"/>
<path d="M352.5 395C289.7 432.6 196.667 412.167 158.5 398L161.5 420.5C178.667 432.333 220.5 451.7 258.5 448.5C296.5 445.3 332.333 432.833 345.5 427L352.5 395Z" fill="#EBDBB0"/>
<path d="M124 382.5C132.5 387.5 149.667 395.333 158.5 398.5C158.5 400.5 160.833 414.667 162 421.5C132.8 397.1 124.5 385.333 124 382.5Z" fill="#3E5155"/>
<path d="M387.5 380C379 385 361.333 392.333 352.5 395.5C352.5 397.5 347.167 420.167 346 427C375.2 402.6 387 382.833 387.5 380Z" fill="#3E5155"/>
<circle cx="168" cy="250" r="4" fill="white"/>
<circle cx="369" cy="254" r="4" fill="white"/>
<path d="M180.894 83.9182C177.798 98.4462 180.894 155.367 180.894 155.367H328.079C328.079 155.367 329.27 106.782 325.936 89.1578C322.601 71.5337 322.125 67.2468 309.979 53.1951C297.832 39.1435 270.92 37 252.105 37C233.29 37 215.428 39.7387 199.709 53.1951C183.99 66.6515 182.351 77.0814 180.894 83.9182Z" fill="#F3C66D"/>
<path fill-rule="evenodd" clip-rule="evenodd" d="M211.856 143.221C211.856 143.221 211.739 117.463 211.856 110.116C211.883 108.413 211.9 106.763 211.916 105.153C212.01 95.9404 212.091 87.9975 214 78.4401C215.634 70.252 217.736 64.8203 220.369 58.0148C221.066 56.2125 221.8 54.3138 222.573 52.2421C223.364 50.123 224.156 47.3688 224.943 44.6286L224.943 44.6285C225.441 42.8983 225.936 41.1735 226.429 39.6177C227.439 39.3712 228.453 39.1458 229.473 38.9401C228.369 43.7199 226.84 50.3276 225.67 55.3382C224.843 58.8759 224.038 61.835 223.276 64.6375C221.912 69.649 220.685 74.1598 219.715 80.5836C218.339 89.7045 218.259 95.726 218.154 103.663L218.154 103.663L218.154 103.663C218.127 105.665 218.099 107.789 218.048 110.116C217.887 117.462 218.048 143.221 218.048 143.221H211.856ZM240.798 37.402C241.102 41.5596 241.505 47.6646 241.626 52.2421C241.727 56.0412 241.697 58.759 241.664 61.7988C241.646 63.4458 241.626 65.1872 241.626 67.2464V95.1115C241.23 101.463 240.436 116.308 240.436 116.308C240.436 116.308 237.26 142.903 236.625 147.507L242.817 148.46C242.817 148.46 245.841 122.928 246.152 116.308C246.403 110.945 246.328 107.104 246.245 102.809V102.809V102.809V102.808V102.808V102.808C246.199 100.481 246.152 98.0202 246.152 95.1115C246.152 91.2874 246.234 88.0511 246.313 84.9904V84.9903C246.457 79.3415 246.586 74.2908 246.152 67.2464C245.789 61.3715 245.438 58.0845 244.723 52.2421C244.155 47.6085 243.142 41.44 242.43 37.2858C241.885 37.3209 241.341 37.3595 240.798 37.402ZM255.749 37.0264C257.376 41.1537 259.76 47.4428 261.156 52.2421C263.248 59.4366 264.019 63.6874 265.324 70.8777L265.443 71.5333C266.712 78.5231 267.222 82.8586 267.975 89.2593L267.975 89.2594L267.977 89.2716C268.079 90.1438 268.187 91.0545 268.301 92.0154C268.504 93.7207 268.697 95.2779 268.879 96.7459C269.619 102.706 270.176 107.197 270.444 114.165C270.666 119.927 271.159 147.507 271.159 147.507L276.636 145.364C276.636 142.899 276.458 136.332 276.279 129.764L276.279 129.762C276.101 123.195 275.922 116.629 275.922 114.165C275.922 114.165 274.57 100.633 273.302 92.0154C272.051 83.5133 271.191 78.7665 269.492 70.3425C269.094 68.3691 268.78 66.6257 268.485 64.9893L268.485 64.9892L268.485 64.9889L268.485 64.9888C267.719 60.7376 267.083 57.2082 265.443 52.2421C263.836 47.3765 260.825 41.1856 258.719 37.0934C257.714 37.0636 256.724 37.0416 255.749 37.0264ZM275.055 38.3597C277.467 41.9295 281.79 48.5524 284.258 53.6711C287.491 60.3784 288.739 64.4158 290.926 71.5333C294.002 81.5431 295.413 87.3321 296.642 97.7313C297.43 104.392 299.977 137.266 299.977 137.266L306.407 136.552C306.407 136.552 303.266 102.501 302.12 95.1115L301.998 94.3239C300.359 83.7465 299.382 77.4356 295.451 67.2464C292.727 60.1833 290.928 56.2563 286.878 49.8605C284.597 46.2596 281 41.798 278.555 38.8811C277.392 38.6896 276.224 38.5163 275.055 38.3597ZM297.915 44.4783C299.814 47.559 302.383 51.8953 304.025 55.3382C308.496 64.7089 310.035 70.4649 312.361 80.5836C313.447 85.3073 313.91 88.6067 314.464 92.5492C314.686 94.129 314.922 95.812 315.219 97.7313C315.669 100.643 316.116 103.186 316.536 105.573L316.537 105.574L316.537 105.574L316.537 105.574C317.588 111.554 318.469 116.557 318.791 123.929C319.007 128.854 318.791 136.552 318.791 136.552L324.031 137.266V123.929C324.031 123.929 321.173 104.003 319.744 95.1115L319.726 95.0017C318.313 86.2088 318.092 84.8345 316.41 78.4401C316.244 77.8086 316.083 77.1936 315.925 76.5933L315.925 76.5905C313.603 67.7249 312.119 62.0592 307.36 53.6711C306.254 51.7223 304.752 49.4937 303.279 47.4342C301.603 46.3415 299.806 45.3598 297.915 44.4783ZM213.593 44.139C211.743 47.7336 209.701 51.8945 208.284 55.3382C204.353 64.8867 202.411 70.4509 200.424 80.5836C199.062 87.5321 198.953 92.7261 198.835 98.3534C198.761 101.916 198.683 105.651 198.281 110.116C197.694 116.633 196.614 131.074 196.614 131.074H192.803C192.803 131.074 193.686 116.627 194.232 110.116C194.578 105.987 194.666 102.478 194.749 99.1547C194.897 93.1982 195.031 87.8401 196.614 80.5836C198.839 70.3811 200.76 64.6804 205.426 55.3382C207.008 52.1703 209.275 48.5035 211.453 45.2086C212.163 44.8363 212.877 44.48 213.593 44.139Z" fill="#E2AE4A"/>
<path fill-rule="evenodd" clip-rule="evenodd" d="M179.648 121.198C189.184 123.232 204.167 126.096 215.404 126.697C219.038 126.891 222.45 127.143 225.705 127.384C241.457 128.547 253.562 129.441 269.634 122.243C282.893 116.305 291.372 111.928 299.237 99.7131C305.334 90.2456 306.215 87.0813 306.168 75.8208C306.14 68.9877 304.059 64.7658 301.417 59.4076C300.72 57.9945 299.985 56.5024 299.237 54.8624C296.793 49.4976 292.009 44.6674 286.376 40.4891C275.014 37.6364 262.357 37 252.105 37C233.29 37 215.428 39.7387 199.709 53.1951C184.631 66.103 182.508 76.226 181.074 83.0642C181.013 83.3548 180.954 83.6395 180.894 83.9182C179.47 90.5991 179.356 106.245 179.648 121.198Z" fill="#F7D674"/>
<path fill-rule="evenodd" clip-rule="evenodd" d="M245.241 128.087C243.194 128.178 241.14 128.19 239.058 128.145C239.692 122.96 240.436 116.309 240.436 116.309C240.436 116.309 241.23 101.463 241.627 95.1123V67.2472C241.627 65.188 241.646 63.4466 241.664 61.7996C241.697 58.7598 241.727 56.042 241.627 52.2429C241.506 47.6655 241.102 41.5607 240.798 37.403C241.341 37.3606 241.885 37.3219 242.43 37.2869C243.142 41.4411 244.155 47.6094 244.723 52.2429C245.438 58.0853 245.789 61.3723 246.152 67.2472C246.586 74.2916 246.457 79.3423 246.313 84.9911V84.9912C246.235 88.0519 246.152 91.2882 246.152 95.1123C246.152 98.021 246.2 100.482 246.245 102.809V102.809V102.809V102.809V102.81C246.328 107.105 246.403 110.946 246.152 116.309C245.984 119.898 245.578 124.565 245.241 128.087ZM275.922 119.342C274.218 120.164 272.428 120.986 270.54 121.836C270.551 119.282 270.533 116.465 270.444 114.165C270.176 107.198 269.619 102.707 268.879 96.7465C268.697 95.2786 268.504 93.7214 268.301 92.0162C268.186 91.0508 268.079 90.1362 267.975 89.2602C267.222 82.8595 266.712 78.524 265.443 71.5341L265.324 70.8784C264.02 63.6881 263.248 59.4373 261.156 52.2429C259.76 47.4437 257.376 41.1546 255.749 37.0273C256.724 37.0426 257.715 37.0645 258.719 37.0944C260.825 41.1866 263.836 47.3773 265.443 52.2429C267.083 57.209 267.719 60.7385 268.485 64.9898C268.78 66.6263 269.094 68.3698 269.492 70.3433C271.191 78.7673 272.051 83.5141 273.302 92.0162C274.57 100.634 275.922 114.165 275.922 114.165V119.342ZM302.107 95.0259C301.31 96.4338 300.363 97.9658 299.238 99.7123C298.531 100.811 297.818 101.847 297.097 102.826C296.975 101.041 296.826 99.2829 296.642 97.7321C295.413 87.3329 294.002 81.5439 290.926 71.5341C288.739 64.4166 287.491 60.3792 284.258 53.6719C281.79 48.5532 277.467 41.9304 275.055 38.3605C276.224 38.5171 277.392 38.6904 278.555 38.8819C281 41.7988 284.598 46.2604 286.878 49.8613C290.928 56.2571 292.727 60.1841 295.452 67.2472C299.382 77.4364 300.36 83.7474 301.998 94.3249L302.107 95.0259ZM229.473 38.9413C228.369 43.7211 226.84 50.3285 225.67 55.339C224.843 58.8767 224.038 61.8358 223.276 64.6383C221.912 69.6498 220.685 74.1606 219.716 80.5844C218.339 89.7053 218.259 95.7268 218.154 103.663L218.154 103.664L218.154 103.664C218.128 105.666 218.099 107.79 218.048 110.117C217.93 115.537 217.986 123.201 218.024 126.848C217.164 126.794 216.291 126.744 215.405 126.696C214.251 126.635 213.058 126.549 211.835 126.443C211.808 122.658 211.773 115.344 211.856 110.117C211.883 108.413 211.9 106.764 211.917 105.154C212.011 95.9412 212.092 87.9983 214 78.4409C215.634 70.2528 217.736 64.8211 220.369 58.0156C221.066 56.2133 221.801 54.3146 222.574 52.2429C223.364 50.1238 224.156 47.3696 224.944 44.6294L224.944 44.6293C225.441 42.8992 225.936 41.1747 226.429 39.619C227.439 39.3724 228.453 39.147 229.473 38.9413ZM211.452 45.2105C212.163 44.8382 212.876 44.4818 213.593 44.1407C211.743 47.7351 209.701 51.8955 208.284 55.339C204.354 64.8875 202.411 70.4517 200.424 80.5844C199.062 87.5329 198.953 92.7269 198.836 98.3542C198.761 101.916 198.683 105.652 198.281 110.117C197.868 114.705 197.21 121.098 196.857 124.479C195.579 124.268 194.31 124.05 193.06 123.828C193.363 120.324 193.871 114.423 194.232 110.117C194.578 105.988 194.666 102.479 194.749 99.1555C194.897 93.199 195.031 87.8409 196.614 80.5844C198.839 70.3819 200.761 64.6812 205.426 55.339C207.008 52.1714 209.275 48.5051 211.452 45.2105Z" fill="#F3C66D"/>
<path d="M165.89 134.408C167.7 130.516 169.85 128.881 173.988 127.74C180.895 125.834 180.619 127.009 187.038 127.74C197.609 128.943 202.89 132.683 213.06 135.809C220.54 138.107 226.082 138.652 233.767 140.124C247.307 142.718 251.496 142.773 265.204 141.315C276.865 140.074 284.249 137.847 295.928 136.79C305.892 135.888 316.03 133.235 325.698 135.809C331.256 137.288 331.702 137.966 336.112 141.659C340.618 145.432 341.203 150.188 342.082 157.345L342.131 157.748C343.091 165.545 340.597 171.78 336.112 178.23C331.432 184.959 327.899 184.319 320.458 187.757C309.583 192.781 297.848 191.832 285.925 192.996C268.832 194.665 264.251 193.953 247.104 192.996C229.61 192.02 222.187 192.001 205.187 187.757C191.768 184.406 194.946 185.613 179.227 179.183C174.692 177.327 166.69 172.089 164.938 167.513C162.599 161.407 163.032 157.476 163.032 150.938C163.032 145.029 163.4 139.766 165.89 134.408Z" fill="#F3C66D"/>
<path fill-rule="evenodd" clip-rule="evenodd" d="M188.307 182.876C187.117 182.405 185.727 181.842 184.032 181.15L181.609 170.134V156.558L184.229 139.649L190.421 128.455H191.532C192.439 128.643 193.31 128.85 194.154 129.075L188.277 140.601L185.181 156.558V170.372L188.307 182.876ZM213.703 189.7C212.188 189.393 210.605 189.048 208.93 188.66L206.14 172.992V152.271L209.068 134.477C210.313 134.924 211.625 135.368 213.03 135.8L210.188 151.319L210.665 172.992L213.703 189.7ZM239.363 192.579C237.763 192.492 236.244 192.406 234.781 192.316L232.814 176.802V157.749L234.876 140.336C236.517 140.645 238.019 140.914 239.418 141.145L237.577 156.558V175.611L239.363 192.579ZM270.352 193.988C269.151 194.004 267.983 194.003 266.817 193.986L269.015 176.802V164.18L266.459 141.177C267.425 141.066 268.362 140.948 269.276 140.824L273.302 158.94V174.182L270.352 193.988ZM301.745 191.98C299.948 192.118 298.14 192.22 296.322 192.316L299.5 176.802L301.405 158.94L295.702 136.811C295.777 136.804 295.852 136.798 295.928 136.791C297.379 136.659 298.835 136.491 300.292 136.307C301.962 140.428 305.724 150.415 306.168 157.749C306.457 162.511 305.972 165.727 305.377 169.672C305.168 171.054 304.946 172.525 304.739 174.182C304.005 180.069 302.437 188.409 301.745 191.98ZM326.789 185.254C326.481 185.367 326.166 185.482 325.843 185.599C324.518 186.08 323.056 186.611 321.393 187.338C321.774 184.655 322.268 180.754 322.363 177.993C322.522 173.389 322.363 161.798 322.363 161.798C322.363 161.798 321.252 154.653 320.934 152.271C320.617 149.89 315.457 135.838 315.457 135.838L318.52 134.757C318.929 134.775 319.337 134.799 319.745 134.829C320.732 136.58 324.506 143.436 325.936 148.461C327.144 152.708 327.383 155.337 327.763 159.515L327.81 160.029L327.841 160.369C328.428 166.76 328.329 170.403 327.841 176.802C327.646 179.362 327.2 182.589 326.789 185.254Z" fill="#E2AE4A"/>
<path fill-rule="evenodd" clip-rule="evenodd" d="M173.987 127.741C169.849 128.882 167.699 130.517 165.89 134.409C163.399 139.767 163.032 145.031 163.032 150.939C163.032 151.862 163.023 152.733 163.015 153.565C162.965 158.63 162.929 162.27 164.937 167.514C166.689 172.09 174.691 177.329 179.227 179.184C187.736 182.665 190.707 183.908 193.772 184.847C196.368 185.643 199.032 186.221 205.187 187.758C220.459 191.571 228.003 191.974 242.064 192.724C243.653 192.809 245.326 192.898 247.103 192.997C249.497 193.131 251.646 193.26 253.618 193.378C264.226 194.014 269.722 194.344 280.724 193.463C287.147 190.096 293.514 185.638 296.88 180.136C297.458 179.191 298.038 178.289 298.6 177.413C301.829 172.383 304.49 168.239 303.072 162.036C302.158 158.033 300.338 155.967 297.812 153.097C297.511 152.755 297.201 152.402 296.88 152.033C291.107 145.384 277.589 140.363 277.589 140.363L275.315 139.901C272.193 140.426 268.915 140.921 265.204 141.316C251.495 142.774 247.306 142.719 233.766 140.125C231.592 139.709 229.589 139.366 227.666 139.038C222.79 138.204 218.423 137.458 213.059 135.81C209.446 134.699 206.45 133.512 203.615 132.387C198.469 130.347 193.853 128.516 187.037 127.741C186.368 127.665 185.772 127.584 185.233 127.502H174.877C174.594 127.576 174.298 127.655 173.987 127.741Z" fill="#F7D674"/>
<path fill-rule="evenodd" clip-rule="evenodd" d="M191.531 128.455H190.42C190.42 128.455 185.965 134.965 184.228 139.649C182.283 144.891 182.076 148.532 181.795 153.486C181.74 154.453 181.682 155.47 181.608 156.558L181.568 157.138C181.231 162.075 181.027 165.062 181.608 170.134C182.032 173.837 183.398 179.04 183.971 181.125C185.66 181.814 187.047 182.377 188.236 182.848C187.533 180.639 185.707 174.644 185.18 170.372C184.52 165.018 184.706 161.932 185.18 156.558C185.738 150.235 186.136 146.578 188.276 140.601C189.757 136.466 193.009 130.888 194.102 129.061C193.274 128.842 192.42 128.639 191.531 128.455ZM209.023 134.461C208.412 137.403 206.658 146.178 206.139 152.271C205.452 160.334 205.37 164.937 206.139 172.992C206.631 178.148 208.13 185.367 208.846 188.641C210.526 189.031 212.113 189.377 213.631 189.686C212.894 186.327 211.258 178.529 210.664 172.992C209.761 164.574 209.415 159.749 210.187 151.319C210.663 146.123 212.27 138.79 212.962 135.78C211.566 135.349 210.262 134.906 209.023 134.461ZM234.852 140.332C234.474 142.838 233.178 151.702 232.813 157.749C232.365 165.176 232.318 169.378 232.813 176.802C233.156 181.951 234.255 189.278 234.732 192.313C236.2 192.404 237.723 192.49 239.329 192.577C238.933 189.588 237.883 181.331 237.576 175.611C237.177 168.181 237.097 163.984 237.576 156.558C237.924 151.178 239.08 143.266 239.399 141.142C237.999 140.911 236.496 140.641 234.852 140.332ZM266.483 141.174C266.905 143.929 268.7 156.021 269.014 164.18C269.203 169.105 269.252 171.879 269.014 176.802C268.75 182.267 267.638 189.745 266.951 193.988C268.112 194.004 269.277 194.004 270.476 193.986C271.311 189.621 272.917 180.635 273.301 174.182L273.313 173.977C273.659 168.162 273.86 164.797 273.301 158.94C272.708 152.726 270.27 143.944 269.359 140.813C268.426 140.94 267.47 141.06 266.483 141.174ZM301.305 157.557C301.349 158.027 301.383 158.489 301.404 158.94C301.657 164.262 301.037 167.803 300.261 172.236L300.26 172.237L300.26 172.238C300.068 173.338 299.866 174.492 299.665 175.743C302.377 171.423 304.331 167.54 303.073 162.036C302.661 160.234 302.066 158.824 301.305 157.557Z" fill="#F3C66D"/>
</g>
</svg>
