<svg width="507" height="507" viewBox="0 0 507 507" fill="none" xmlns="http://www.w3.org/2000/svg">
<mask id="mask0_5450_5164" style="mask-type:alpha" maskUnits="userSpaceOnUse" x="0" y="0" width="507" height="507">
<circle cx="253.5" cy="253.5" r="253.5" fill="#DAE5D7"/>
</mask>
<g mask="url(#mask0_5450_5164)">
<circle cx="253.5" cy="253.5" r="253.5" fill="#DAE5D7"/>
<path d="M45.9999 522.5C41.2084 510.052 111 387 128.5 356.5L392.5 349.5C414 389.5 455.066 508.524 453.5 522.5C424.369 659.857 94.5 648.5 45.9999 522.5Z" fill="#CC554E"/>
<path d="M83.5823 349.732C105.211 375.399 138.046 390.84 151.76 395.351C171.92 402.593 223.302 415.985 267.543 411.615C311.785 407.245 367.415 390.211 384.756 381.089C405.562 370.172 442.984 342.368 446.938 301.315C450.892 260.262 439.295 255.987 423.993 210.952C423.76 173.692 424.282 149.098 423.974 141.147C423.328 134.821 422.057 123.897 402.5 117.5C382.944 111.103 361.621 129.042 357.789 135.043L327.35 169.547C283.875 145.191 213.757 152.678 184.133 159.466C161.36 137.653 140.963 127.701 133.611 125.452C126.295 122.904 108.998 123.728 98.3367 147.415C87.6751 171.101 90.8049 213.118 93.7025 231.166C90.232 241.172 82.2045 263.859 77.8588 274.563C72.4266 287.943 56.5464 317.648 83.5823 349.732Z" fill="#CC554E"/>
<path d="M143.084 295.587C110.943 279.418 79.6458 293.609 70.1552 302.586C69.5557 303.153 69.1029 303.856 68.8731 304.653C67.9651 307.805 67.14 314.252 69.1317 322.153C71.993 333.505 76.0855 338.185 81.4094 346.689C85.6685 353.492 97.7673 364.347 103.284 368.924C107.401 372.239 121.487 381.609 144.897 392.562C174.16 406.253 222.99 413.101 246.538 413.683C270.187 414.267 295.77 409.446 307.417 407.635C318.209 405.958 349.572 395.308 364.548 390.568C379.523 385.828 406.431 369.99 425.499 348.944C438.75 334.318 444.087 316.24 445.572 306.106C445.935 303.634 444.718 301.211 442.523 299.977C433.117 294.691 416.029 287.848 404.709 286.258C372.899 281.79 344.283 306.056 328.185 295.583C315.306 287.204 310.342 264.537 300.298 256.536C266.921 229.948 231.547 245.966 218.033 257.298C199.176 273.111 176.302 312.297 143.084 295.587Z" fill="#FBFAF4"/>
<path d="M279.121 577.764C277.304 577.717 242.306 577.597 226.634 577.486C223.467 577.463 220.319 576.825 217.538 575.309C181.429 555.629 188.695 511.108 178.316 472.696C158.518 411.452 154.343 395.685 163.772 387.58C172.706 379.902 324.105 380.904 340.013 381.031C340.976 381.039 341.844 381.111 342.801 381.224C355.144 382.692 357.668 381.336 341.748 442.462C335.588 466.114 335.543 453.864 333.012 493.783C328.306 568.007 306.936 574.669 306.936 574.669C306.936 574.669 294.904 578.164 279.121 577.764Z" fill="#FBFAF4"/>
<path d="M148.116 215.542C137.121 222.392 141.688 230.151 149.185 231.204C165.995 233.565 176.407 226.354 179.716 218.885C180.704 216.656 179.625 214.089 177.368 213.104C169.999 209.891 157.439 209.734 148.116 215.542Z" fill="#FBEDC6"/>
<path d="M372.748 215.142C383.671 222.552 378.957 230.028 371.414 230.672C354.5 232.117 344.169 224.378 340.972 216.766C340.018 214.494 341.144 211.997 343.427 211.139C350.877 208.337 363.487 208.858 372.748 215.142Z" fill="#FBEDC6"/>
<path d="M137.776 157.517C115.64 141.633 117.592 183.12 121.335 205.848L162.783 178.366C163.671 178.034 159.911 173.4 137.776 157.517Z" fill="#FBFAF4"/>
<path d="M397.137 142.396C387.88 134.891 370.838 161.361 363.475 175.534L403.457 181.15C405.208 171.359 406.394 149.901 397.137 142.396Z" fill="#FBFAF4"/>
<ellipse cx="15.9819" cy="15.8156" rx="15.9819" ry="15.8156" transform="matrix(0.990278 0.139104 -0.120201 0.99275 148.841 237.542)" fill="#562528"/>
<ellipse cx="15.9819" cy="15.8156" rx="15.9819" ry="15.8156" transform="matrix(0.990278 0.139104 -0.120201 0.99275 349.805 242.96)" fill="#562528"/>
<path d="M257.781 292.5L257.781 310.329M257.781 310.329C254.196 318.95 247.659 323.963 227.758 323.905C213.034 323.862 204.435 320.629 203.511 307.268M257.781 310.329C261.493 318.151 268.557 326.277 294.866 322.382C304.355 320.978 313.173 318.11 313.517 301.278" stroke="#562528" stroke-width="8" stroke-linecap="round"/>
<path d="M267.941 262.939L251.289 261.851C243.444 261.338 238.55 270.115 242.755 277.156L250.794 290.619C254.538 296.888 263.074 297.429 267.095 291.651L275.708 279.277C280.214 272.802 275.769 263.451 267.941 262.939Z" fill="#562528"/>
<path d="M352.5 395C289.7 432.6 196.667 412.167 158.5 398L161.5 420.5C178.667 432.333 220.5 451.7 258.5 448.5C296.5 445.3 332.333 432.833 345.5 427L352.5 395Z" fill="#CED2CE"/>
<path d="M124 382.5C132.5 387.5 149.667 395.333 158.5 398.5C158.5 400.5 160.833 414.667 162 421.5C132.8 397.1 124.5 385.333 124 382.5Z" fill="#623F33"/>
<path d="M387.5 380C379 385 361.333 392.333 352.5 395.5C352.5 397.5 347.167 420.167 346 427C375.2 402.6 387 382.833 387.5 380Z" fill="#623F33"/>
<circle cx="168" cy="250" r="4" fill="white"/>
<circle cx="369" cy="254" r="4" fill="white"/>
<path d="M180.894 75.9182C177.798 90.4462 180.894 147.367 180.894 147.367H328.079C328.079 147.367 329.27 98.7819 325.936 81.1578C322.601 63.5337 322.125 59.2468 309.979 45.1951C297.832 31.1435 270.92 29 252.105 29C233.29 29 215.428 31.7387 199.709 45.1951C183.99 58.6515 182.351 69.0814 180.894 75.9182Z" fill="#F3C66D"/>
<path fill-rule="evenodd" clip-rule="evenodd" d="M211.856 135.221C211.856 135.221 211.739 109.463 211.856 102.116C211.883 100.413 211.9 98.7635 211.916 97.1532C212.01 87.9404 212.091 79.9975 213.999 70.4401C215.634 62.252 217.735 56.8203 220.368 50.0148C221.066 48.2125 221.8 46.3138 222.573 44.2421C223.364 42.123 224.155 39.3688 224.943 36.6286L224.943 36.6285C225.44 34.8983 225.936 33.1735 226.429 31.6177C227.439 31.3712 228.453 31.1458 229.472 30.9401C228.369 35.7199 226.84 42.3276 225.669 47.3382C224.843 50.8759 224.038 53.835 223.275 56.6375C221.912 61.649 220.685 66.1598 219.715 72.5836C218.339 81.7045 218.259 87.726 218.154 95.6625L218.154 95.6628L218.154 95.6632C218.127 97.6653 218.099 99.7894 218.048 102.116C217.887 109.462 218.048 135.221 218.048 135.221H211.856ZM240.798 29.402C241.102 33.5596 241.505 39.6646 241.626 44.2421C241.727 48.0412 241.697 50.759 241.663 53.7988C241.645 55.4458 241.626 57.1872 241.626 59.2464V87.1115C241.229 93.4625 240.435 108.308 240.435 108.308C240.435 108.308 237.26 134.903 236.625 139.507L242.817 140.46C242.817 140.46 245.841 114.928 246.151 108.308C246.403 102.945 246.328 99.1044 246.244 94.8089V94.8087V94.8085V94.8084V94.8082V94.8081C246.199 92.4809 246.151 90.0202 246.151 87.1115C246.151 83.2874 246.234 80.0511 246.312 76.9904V76.9903C246.457 71.3415 246.586 66.2908 246.151 59.2464C245.789 53.3715 245.438 50.0845 244.722 44.2421C244.155 39.6085 243.142 33.44 242.43 29.2858C241.885 29.3209 241.34 29.3595 240.798 29.402ZM255.749 29.0264C257.376 33.1537 259.76 39.4428 261.156 44.2421C263.248 51.4366 264.019 55.6874 265.324 62.8777L265.443 63.5333C266.711 70.5231 267.222 74.8586 267.975 81.2593L267.975 81.2594L267.976 81.2716C268.079 82.1438 268.186 83.0545 268.301 84.0154C268.503 85.7207 268.697 87.2779 268.879 88.7459C269.618 94.7064 270.176 99.1969 270.444 106.165C270.666 111.927 271.158 139.507 271.158 139.507L276.636 137.364C276.636 134.899 276.458 128.332 276.279 121.764L276.279 121.762C276.1 115.195 275.922 108.629 275.922 106.165C275.922 106.165 274.57 92.6327 273.302 84.0154C272.051 75.5133 271.19 70.7665 269.491 62.3425C269.093 60.3691 268.779 58.6257 268.485 56.9893L268.485 56.9892L268.484 56.9889L268.484 56.9888C267.719 52.7376 267.083 49.2082 265.443 44.2421C263.835 39.3765 260.824 33.1856 258.719 29.0934C257.714 29.0636 256.723 29.0416 255.749 29.0264ZM275.055 30.3597C277.467 33.9295 281.79 40.5524 284.257 45.6711C287.491 52.3784 288.739 56.4158 290.926 63.5333C294.002 73.5431 295.413 79.3321 296.642 89.7313C297.429 96.3919 299.976 129.266 299.976 129.266L306.407 128.552C306.407 128.552 303.265 94.501 302.12 87.1115L301.998 86.3239C300.359 75.7465 299.381 69.4356 295.451 59.2464C292.727 52.1833 290.927 48.2563 286.877 41.8605C284.597 38.2596 281 33.798 278.555 30.8811C277.391 30.6896 276.224 30.5163 275.055 30.3597ZM297.915 36.4783C299.813 39.559 302.383 43.8953 304.025 47.3382C308.495 56.7089 310.035 62.4649 312.361 72.5836C313.446 77.3073 313.91 80.6067 314.464 84.5492C314.686 86.129 314.922 87.812 315.219 89.7313C315.669 92.6428 316.116 95.1859 316.536 97.5733L316.536 97.5738L316.536 97.5742L316.536 97.5743C317.588 103.554 318.468 108.557 318.791 115.929C319.007 120.854 318.791 128.552 318.791 128.552L324.031 129.266V115.929C324.031 115.929 321.173 96.003 319.744 87.1115L319.726 87.0017C318.313 78.2088 318.092 76.8345 316.41 70.4401C316.243 69.8086 316.082 69.1936 315.925 68.5933L315.924 68.5905C313.603 59.7249 312.119 54.0592 307.359 45.6711C306.254 43.7223 304.752 41.4937 303.279 39.4342C301.602 38.3415 299.806 37.3598 297.915 36.4783ZM213.593 36.139C211.743 39.7336 209.701 43.8945 208.283 47.3382C204.353 56.8867 202.411 62.4509 200.424 72.5836C199.061 79.5321 198.953 84.7261 198.835 90.3534C198.761 93.9156 198.683 97.6514 198.28 102.116C197.693 108.633 196.613 123.074 196.613 123.074H192.803C192.803 123.074 193.685 108.627 194.232 102.116C194.578 97.9869 194.666 94.4777 194.748 91.1547C194.897 85.1982 195.031 79.8401 196.613 72.5836C198.838 62.3811 200.76 56.6804 205.425 47.3382C207.007 44.1703 209.275 40.5035 211.453 37.2086C212.163 36.8363 212.876 36.48 213.593 36.139Z" fill="#E2AE4A"/>
<path fill-rule="evenodd" clip-rule="evenodd" d="M179.648 113.198C189.184 115.232 204.167 118.096 215.404 118.697C219.038 118.891 222.45 119.143 225.705 119.384C241.457 120.547 253.562 121.441 269.634 114.243C282.893 108.305 291.372 103.928 299.237 91.7131C305.334 82.2456 306.214 79.0813 306.168 67.8208C306.14 60.9877 304.058 56.7658 301.417 51.4076C300.72 49.9945 299.985 48.5024 299.237 46.8624C296.793 41.4976 292.009 36.6674 286.375 32.4891C275.014 29.6364 262.357 29 252.105 29C233.29 29 215.428 31.7387 199.709 45.1951C184.631 58.103 182.508 68.226 181.074 75.0642C181.013 75.3548 180.953 75.6395 180.894 75.9182C179.47 82.5991 179.356 98.2452 179.648 113.198Z" fill="#F7D674"/>
<path fill-rule="evenodd" clip-rule="evenodd" d="M245.241 120.087C243.194 120.178 241.14 120.19 239.058 120.145C239.692 114.96 240.436 108.309 240.436 108.309C240.436 108.309 241.23 93.4634 241.627 87.1123V59.2472C241.627 57.188 241.646 55.4466 241.664 53.7996C241.697 50.7598 241.727 48.042 241.627 44.2429C241.506 39.6655 241.102 33.5607 240.798 29.403C241.341 29.3606 241.885 29.3219 242.43 29.2869C243.142 33.4411 244.155 39.6094 244.723 44.2429C245.438 50.0853 245.789 53.3723 246.152 59.2472C246.586 66.2916 246.457 71.3423 246.313 76.9911V76.9912C246.235 80.0519 246.152 83.2882 246.152 87.1123C246.152 90.021 246.2 92.4818 246.245 94.809V94.8092V94.8093V94.8095V94.8097C246.328 99.1052 246.403 102.946 246.152 108.309C245.984 111.898 245.578 116.565 245.241 120.087ZM275.922 111.342C274.218 112.164 272.428 112.986 270.54 113.836C270.551 111.282 270.533 108.465 270.444 106.165C270.176 99.1976 269.619 94.7072 268.879 88.7465C268.697 87.2786 268.504 85.7214 268.301 84.0162C268.186 83.0508 268.079 82.1362 267.975 81.2602C267.222 74.8595 266.712 70.524 265.443 63.5341L265.324 62.8784C264.02 55.6881 263.248 51.4373 261.156 44.2429C259.76 39.4437 257.376 33.1546 255.749 29.0273C256.724 29.0426 257.715 29.0645 258.719 29.0944C260.825 33.1866 263.836 39.3773 265.443 44.2429C267.083 49.209 267.719 52.7385 268.485 56.9898C268.78 58.6263 269.094 60.3698 269.492 62.3433C271.191 70.7673 272.051 75.5141 273.302 84.0162C274.57 92.6335 275.922 106.165 275.922 106.165V111.342ZM302.107 87.0259C301.31 88.4338 300.363 89.9658 299.238 91.7123C298.531 92.8115 297.818 93.8472 297.097 94.8263C296.975 93.0412 296.826 91.2829 296.642 89.7321C295.413 79.3329 294.002 73.5439 290.926 63.5341C288.739 56.4166 287.491 52.3792 284.258 45.6719C281.79 40.5532 277.467 33.9304 275.055 30.3605C276.224 30.5171 277.392 30.6904 278.555 30.8819C281 33.7988 284.598 38.2604 286.878 41.8613C290.928 48.2571 292.727 52.1841 295.452 59.2472C299.382 69.4364 300.36 75.7474 301.998 86.3249L302.107 87.0259ZM229.473 30.9413C228.369 35.7211 226.84 42.3285 225.67 47.339C224.843 50.8767 224.038 53.8358 223.276 56.6383C221.912 61.6498 220.685 66.1606 219.716 72.5844C218.339 81.7053 218.259 87.7268 218.154 95.6633L218.154 95.6636L218.154 95.664C218.128 97.6661 218.099 99.7902 218.048 102.117C217.93 107.537 217.986 115.201 218.024 118.848C217.164 118.794 216.291 118.744 215.405 118.696C214.251 118.635 213.058 118.549 211.835 118.443C211.808 114.658 211.773 107.344 211.856 102.117C211.883 100.413 211.9 98.7643 211.917 97.154C212.011 87.9412 212.092 79.9983 214 70.4409C215.634 62.2528 217.736 56.8211 220.369 50.0156C221.066 48.2133 221.801 46.3146 222.574 44.2429C223.364 42.1238 224.156 39.3696 224.944 36.6294L224.944 36.6293C225.441 34.8992 225.936 33.1747 226.429 31.619C227.439 31.3724 228.453 31.147 229.473 30.9413ZM211.452 37.2105C212.163 36.8382 212.876 36.4818 213.593 36.1407C211.743 39.7351 209.701 43.8955 208.284 47.339C204.354 56.8875 202.411 62.4517 200.424 72.5844C199.062 79.5329 198.953 84.7269 198.836 90.3542C198.761 93.9164 198.683 97.6522 198.281 102.117C197.868 106.705 197.21 113.098 196.857 116.479C195.579 116.268 194.31 116.05 193.06 115.828C193.363 112.324 193.871 106.423 194.232 102.117C194.578 97.9877 194.666 94.4785 194.749 91.1555C194.897 85.199 195.031 79.8409 196.614 72.5844C198.839 62.3819 200.761 56.6812 205.426 47.339C207.008 44.1714 209.275 40.5051 211.452 37.2105Z" fill="#F3C66D"/>
<path d="M165.891 126.408C167.7 122.516 169.85 120.881 173.988 119.74C180.895 117.834 180.619 119.009 187.038 119.74C197.609 120.943 202.89 124.683 213.06 127.809C220.54 130.107 226.082 130.652 233.767 132.124C247.307 134.718 251.496 134.773 265.205 133.315C276.865 132.074 284.249 129.847 295.928 128.79C305.892 127.888 316.03 125.235 325.698 127.809C331.256 129.288 331.702 129.966 336.112 133.659C340.618 137.432 341.203 142.188 342.082 149.345L342.132 149.748C343.091 157.545 340.597 163.78 336.112 170.23C331.433 176.959 327.899 176.319 320.459 179.757C309.583 184.781 297.848 183.832 285.925 184.996C268.833 186.665 264.251 185.953 247.104 184.996C229.61 184.02 222.187 184.001 205.188 179.757C191.768 176.406 194.947 177.613 179.228 171.183C174.692 169.327 166.69 164.089 164.938 159.513C162.599 153.407 163.033 149.476 163.033 142.938C163.033 137.029 163.4 131.766 165.891 126.408Z" fill="#F3C66D"/>
<path fill-rule="evenodd" clip-rule="evenodd" d="M188.307 174.876C187.117 174.405 185.727 173.842 184.032 173.15L181.609 162.134V148.558L184.229 131.649L190.421 120.455H191.532C192.439 120.643 193.31 120.85 194.154 121.075L188.277 132.601L185.181 148.558V162.372L188.307 174.876ZM213.703 181.7C212.188 181.393 210.605 181.048 208.93 180.66L206.14 164.992V144.271L209.068 126.477C210.313 126.924 211.625 127.368 213.03 127.8L210.188 143.319L210.665 164.992L213.703 181.7ZM239.363 184.579C237.763 184.492 236.244 184.406 234.781 184.316L232.814 168.802V149.749L234.876 132.336C236.517 132.645 238.019 132.914 239.418 133.145L237.577 148.558V167.611L239.363 184.579ZM270.352 185.988C269.151 186.004 267.983 186.003 266.817 185.986L269.015 168.802V156.18L266.459 133.177C267.425 133.066 268.362 132.948 269.276 132.824L273.302 150.94V166.182L270.352 185.988ZM301.745 183.98C299.948 184.118 298.14 184.22 296.322 184.316L299.5 168.802L301.405 150.94L295.702 128.811C295.777 128.804 295.852 128.798 295.928 128.791C297.379 128.659 298.835 128.491 300.292 128.307C301.962 132.428 305.724 142.415 306.168 149.749C306.457 154.511 305.972 157.727 305.377 161.672C305.168 163.054 304.946 164.525 304.739 166.182C304.005 172.069 302.437 180.409 301.745 183.98ZM326.789 177.254C326.481 177.367 326.166 177.482 325.843 177.599C324.518 178.08 323.056 178.611 321.393 179.338C321.774 176.655 322.268 172.754 322.363 169.993C322.522 165.389 322.363 153.798 322.363 153.798C322.363 153.798 321.252 146.653 320.934 144.271C320.617 141.89 315.457 127.838 315.457 127.838L318.52 126.757C318.929 126.775 319.337 126.799 319.745 126.829C320.732 128.58 324.506 135.436 325.936 140.461C327.144 144.708 327.383 147.337 327.763 151.515L327.81 152.029L327.841 152.369C328.428 158.76 328.329 162.403 327.841 168.802C327.646 171.362 327.2 174.589 326.789 177.254Z" fill="#E2AE4A"/>
<path fill-rule="evenodd" clip-rule="evenodd" d="M173.987 119.741C169.849 120.882 167.699 122.517 165.89 126.409C163.399 131.767 163.032 137.031 163.032 142.939C163.032 143.862 163.023 144.733 163.015 145.565C162.965 150.63 162.929 154.27 164.937 159.514C166.689 164.09 174.691 169.329 179.227 171.184C187.736 174.665 190.707 175.908 193.772 176.847C196.368 177.643 199.032 178.221 205.187 179.758C220.459 183.571 228.003 183.974 242.064 184.724C243.653 184.809 245.326 184.898 247.103 184.997C249.497 185.131 251.646 185.26 253.618 185.378C264.226 186.014 269.722 186.344 280.724 185.463C287.147 182.096 293.514 177.638 296.88 172.136C297.458 171.191 298.038 170.289 298.6 169.413C301.829 164.383 304.49 160.239 303.072 154.036C302.158 150.033 300.338 147.967 297.812 145.097C297.511 144.755 297.201 144.402 296.88 144.033C291.107 137.384 277.589 132.363 277.589 132.363L275.315 131.901C272.193 132.426 268.915 132.921 265.204 133.316C251.495 134.774 247.306 134.719 233.766 132.125C231.592 131.709 229.589 131.366 227.666 131.038C222.79 130.204 218.423 129.458 213.059 127.81C209.446 126.699 206.45 125.512 203.615 124.387C198.469 122.347 193.853 120.516 187.037 119.741C186.368 119.665 185.772 119.584 185.233 119.502H174.877C174.594 119.576 174.298 119.655 173.987 119.741Z" fill="#F7D674"/>
<path fill-rule="evenodd" clip-rule="evenodd" d="M191.531 120.455H190.42C190.42 120.455 185.965 126.965 184.228 131.649C182.283 136.891 182.076 140.532 181.795 145.486C181.74 146.453 181.682 147.47 181.608 148.558L181.568 149.138C181.231 154.075 181.026 157.062 181.608 162.134C182.032 165.837 183.398 171.04 183.971 173.125C185.659 173.814 187.047 174.377 188.235 174.848C187.533 172.639 185.707 166.644 185.18 162.372C184.519 157.018 184.706 153.932 185.18 148.558C185.738 142.235 186.136 138.578 188.276 132.601C189.757 128.466 193.009 122.888 194.102 121.061C193.274 120.842 192.42 120.639 191.531 120.455ZM209.023 126.461C208.412 129.403 206.657 138.178 206.139 144.271C205.452 152.334 205.37 156.937 206.139 164.992C206.631 170.148 208.13 177.367 208.846 180.641C210.526 181.031 212.113 181.377 213.631 181.686C212.894 178.327 211.258 170.529 210.664 164.992C209.761 156.574 209.415 151.749 210.187 143.319C210.663 138.123 212.269 130.79 212.962 127.78C211.566 127.349 210.262 126.906 209.023 126.461ZM234.852 132.332C234.474 134.838 233.178 143.702 232.813 149.749C232.365 157.176 232.318 161.378 232.813 168.802C233.156 173.951 234.255 181.278 234.732 184.313C236.199 184.404 237.723 184.49 239.329 184.577C238.933 181.588 237.883 173.331 237.576 167.611C237.177 160.181 237.097 155.984 237.576 148.558C237.923 143.178 239.08 135.266 239.399 133.142C237.999 132.911 236.495 132.641 234.852 132.332ZM266.483 133.174C266.904 135.929 268.7 148.021 269.014 156.18C269.203 161.105 269.251 163.879 269.014 168.802C268.75 174.267 267.638 181.745 266.95 185.988C268.112 186.004 269.277 186.004 270.476 185.986C271.311 181.621 272.916 172.635 273.301 166.182L273.313 165.977C273.659 160.162 273.86 156.797 273.301 150.94C272.708 144.726 270.27 135.944 269.359 132.813C268.426 132.94 267.469 133.06 266.483 133.174ZM301.305 149.557C301.349 150.027 301.383 150.489 301.404 150.94C301.657 156.262 301.037 159.803 300.26 164.236L300.26 164.237L300.26 164.238C300.068 165.338 299.865 166.492 299.665 167.743C302.377 163.423 304.33 159.54 303.072 154.036C302.661 152.234 302.066 150.824 301.305 149.557Z" fill="#F3C66D"/>
</g>
</svg>
