<svg width="80" height="49" viewBox="0 0 80 49" fill="none" xmlns="http://www.w3.org/2000/svg">
<g id="rubber car tires">
<g id="Group 290045">
<path id="Vector 77" d="M21.749 1.55693L31.6789 1.19834C33.2044 1.14325 34.4743 2.35834 34.4866 3.88474L34.7321 34.3549C34.7443 35.8711 33.5102 37.1023 31.9941 37.0866L22.4739 36.9878C19.6593 36.9585 16.8165 36.1705 14.8483 34.1583C4.36446 23.4402 10.2016 6.81301 18.1088 2.3867C19.21 1.77027 20.4879 1.60248 21.749 1.55693Z" stroke="#1B453C" stroke-width="1.7"/>
<path id="Ellipse 128" d="M45.8154 19.2227C45.7629 24.2815 44.3472 28.8088 42.1455 32.0383C39.9397 35.2737 37.013 37.126 33.9168 37.0939C30.8205 37.0617 27.9329 35.149 25.7948 31.8686C23.6606 28.5941 22.3391 24.0384 22.3917 18.9795C22.4442 13.9206 23.8599 9.39331 26.0616 6.16385C28.2674 2.92848 31.1941 1.07614 34.2903 1.10828C37.3866 1.14042 40.2742 3.05312 42.4123 6.33358C44.5465 9.60805 45.8679 14.1638 45.8154 19.2227Z" stroke="#1B453C" stroke-width="1.7"/>
<path id="Ellipse 130" d="M44.1453 18.7868C44.1011 23.0452 42.9697 26.849 41.2212 29.5549C39.4656 32.2716 37.1701 33.7777 34.7895 33.753C32.4089 33.7283 30.1451 32.1749 28.4463 29.4223C26.7543 26.6807 25.7021 22.8542 25.7463 18.5958C25.7905 14.3374 26.9219 10.5335 28.6705 7.82759C30.426 5.11089 32.7216 3.60485 35.1022 3.62957C37.4828 3.65428 39.7466 5.20764 41.4453 7.9602C43.1373 10.7018 44.1895 14.5284 44.1453 18.7868Z" stroke="#1B453C" stroke-width="1.7"/>
<line id="Line 63" x1="14.9952" y1="4.23354" x2="27.557" y2="4.36394" stroke="#1B453C" stroke-width="1.7"/>
<line id="Line 64" x1="12.4395" y1="8.39443" x2="24.1639" y2="8.51614" stroke="#1B453C" stroke-width="1.7"/>
<line id="Line 65" x1="10.7207" y1="12.5644" x2="23.2826" y2="12.6948" stroke="#1B453C" stroke-width="1.7"/>
<line id="Line 66" x1="9.83988" y1="16.7428" x2="22.4017" y2="16.8732" stroke="#1B453C" stroke-width="1.7"/>
<line id="Line 67" x1="9.79691" y1="20.9303" x2="22.3587" y2="21.0607" stroke="#1B453C" stroke-width="1.7"/>
<line id="Line 68" x1="9.75296" y1="25.1176" x2="23.1523" y2="25.2567" stroke="#1B453C" stroke-width="1.7"/>
<line id="Line 69" x1="11.3838" y1="29.3222" x2="24.7831" y2="29.4613" stroke="#1B453C" stroke-width="1.7"/>
<line id="Line 70" x1="14.6905" y1="33.5443" x2="27.2523" y2="33.6747" stroke="#1B453C" stroke-width="1.7"/>
<path id="Polygon 14" d="M35.3365 24.3258C35.3517 24.266 35.3741 24.2477 35.3858 24.2393C35.4047 24.2258 35.4385 24.2123 35.4834 24.2128C35.5284 24.2132 35.5619 24.2275 35.5805 24.2414C35.5921 24.25 35.6141 24.2688 35.628 24.3288L36.8401 29.5493C36.8621 29.644 36.7896 29.7342 36.6925 29.7332L34.1601 29.7069C34.0629 29.7059 33.9923 29.6142 34.0163 29.52L35.3365 24.3258Z" stroke="#1B453C" stroke-width="1.7"/>
<path id="Polygon 15" d="M35.2793 12.8701C35.2934 12.9294 35.3153 12.9482 35.3271 12.957C35.3458 12.9708 35.3791 12.9849 35.4237 12.9854C35.4682 12.9858 35.5019 12.9725 35.5209 12.959C35.5328 12.9505 35.5551 12.9321 35.5704 12.8731L36.8819 7.82954C36.9064 7.73515 36.8358 7.64281 36.7382 7.6418L34.2203 7.61566C34.1228 7.61465 34.0502 7.70551 34.0728 7.80038L35.2793 12.8701Z" stroke="#1B453C" stroke-width="1.7"/>
<path id="Polygon 16" d="M38.7773 15.612C38.7552 15.6498 38.7528 15.6765 38.7542 15.6959C38.756 15.7197 38.7654 15.7486 38.7857 15.7762C38.8059 15.8039 38.8305 15.8217 38.8526 15.8306C38.8707 15.8379 38.8968 15.8437 38.9396 15.8341L41.4755 15.2651C41.5595 15.2463 41.6105 15.1608 41.587 15.0779L40.8692 12.5408C40.8571 12.4979 40.8393 12.4778 40.8243 12.4655C40.8059 12.4504 40.7782 12.4372 40.7439 12.4328C40.7095 12.4284 40.6794 12.4343 40.6577 12.4443C40.6402 12.4524 40.6179 12.4674 40.5954 12.5058L38.7773 15.612Z" stroke="#1B453C" stroke-width="1.7"/>
<path id="Polygon 17" d="M32.4363 16.1746C32.4614 16.2137 32.4641 16.2408 32.4631 16.2597C32.4619 16.2836 32.4528 16.3136 32.4319 16.3428C32.411 16.3719 32.3855 16.3902 32.3634 16.399C32.3458 16.4061 32.3193 16.4122 32.2741 16.4011L28.3301 15.4312C28.2401 15.4091 28.1915 15.3114 28.2281 15.2263L29.5632 12.1186C29.6107 12.008 29.7625 11.9956 29.8274 12.097L32.4363 16.1746Z" stroke="#1B453C" stroke-width="1.7"/>
<path id="Polygon 18" d="M32.1982 21.505C32.2281 21.4719 32.2357 21.4461 32.2381 21.4269C32.2411 21.4033 32.2375 21.3728 32.2229 21.3413C32.2082 21.3098 32.1872 21.2874 32.1672 21.2745C32.151 21.264 32.1264 21.2531 32.0818 21.2546L28.3019 21.3817C28.207 21.3849 28.139 21.4742 28.161 21.5664L28.9279 24.7784C28.9559 24.8959 29.1042 24.9338 29.1851 24.8441L32.1982 21.505Z" stroke="#1B453C" stroke-width="1.7"/>
<path id="Polygon 19" d="M39.3816 21.8175C39.3157 21.7115 39.4005 21.5761 39.5246 21.5891L41.7863 21.8253C41.8751 21.8346 41.9362 21.9188 41.9173 22.0061L41.3732 24.5308C41.3634 24.5759 41.3464 24.5971 41.3324 24.6099C41.3148 24.626 41.2873 24.6409 41.2522 24.647C41.2171 24.6531 41.1862 24.6483 41.1642 24.6391C41.1467 24.6318 41.1235 24.6176 41.0992 24.5784L39.3816 21.8175Z" stroke="#1B453C" stroke-width="1.7"/>
<path id="Ellipse 129" d="M36.8947 18.7382C36.8881 19.3725 36.7159 19.9054 36.4878 20.2529C36.2537 20.6096 36.0371 20.6766 35.9294 20.6755C35.8217 20.6744 35.6066 20.6028 35.3799 20.2414C35.159 19.8893 34.9979 19.3529 35.0045 18.7185C35.0111 18.0842 35.1833 17.5513 35.4114 17.2038C35.6456 16.8471 35.8621 16.7801 35.9698 16.7812C36.0776 16.7823 36.2926 16.8539 36.5193 17.2153C36.7402 17.5674 36.9013 18.1038 36.8947 18.7382Z" fill="black" stroke="#1B453C" stroke-width="1.7"/>
</g>
<g id="Group 290043">
<path id="Vector 77_2" d="M39.7015 29.9019L39.3114 23.0265C39.2241 21.4881 40.4354 20.1866 41.9761 20.1633L72.4129 19.7032C73.9255 19.6804 75.1639 20.9002 75.1639 22.4129V28.2076C75.1639 31.4793 74.1265 34.8079 71.4761 36.7261C61.1469 44.2015 45.8765 40.1058 41.0067 34.1259C40.0516 32.9531 39.7872 31.412 39.7015 29.9019Z" stroke="#1B453C" stroke-width="1.7"/>
<path id="Ellipse 128_2" d="M57.1572 10.9002C62.2464 10.9002 66.8116 12.0293 70.0742 13.8123C73.3685 15.6127 75.151 17.9606 75.151 20.3483C75.151 22.7361 73.3685 25.084 70.0742 26.8843C66.8116 28.6674 62.2464 29.7965 57.1572 29.7965C52.0681 29.7965 47.5029 28.6674 44.2403 26.8843C40.9459 25.084 39.1635 22.7361 39.1635 20.3483C39.1635 17.9606 40.9459 15.6127 44.2403 13.8123C47.5029 12.0293 52.0681 10.9002 57.1572 10.9002Z" stroke="#1B453C" stroke-width="1.7"/>
<path id="Ellipse 130_2" d="M56.7387 12.2729C61.0253 12.2729 64.8639 13.1743 67.5997 14.5907C70.3784 16.0293 71.8012 17.8663 71.8012 19.6614C71.8012 21.4565 70.3784 23.2935 67.5997 24.7321C64.8639 26.1485 61.0253 27.0499 56.7387 27.0499C52.4521 27.0499 48.6135 26.1485 45.8776 24.7321C43.099 23.2935 41.6762 21.4565 41.6762 19.6614C41.6762 17.8663 43.099 16.0293 45.8776 14.5907C48.6135 13.1743 52.4521 12.2729 56.7387 12.2729Z" stroke="#1B453C" stroke-width="1.7"/>
<line id="Line 63_2" x1="42.4889" y1="36.1389" x2="42.4889" y2="25.8408" stroke="#1B453C" stroke-width="1.7"/>
<line id="Line 64_2" x1="46.6764" y1="38.1982" x2="46.6764" y2="28.5866" stroke="#1B453C" stroke-width="1.7"/>
<line id="Line 65_2" x1="50.8639" y1="39.571" x2="50.8639" y2="29.2729" stroke="#1B453C" stroke-width="1.7"/>
<line id="Line 66_2" x1="55.0514" y1="40.2581" x2="55.0514" y2="29.9599" stroke="#1B453C" stroke-width="1.7"/>
<line id="Line 67_2" x1="59.2389" y1="40.2576" x2="59.2389" y2="29.9594" stroke="#1B453C" stroke-width="1.7"/>
<line id="Line 68_2" x1="63.4264" y1="40.2581" x2="63.4264" y2="29.2734" stroke="#1B453C" stroke-width="1.7"/>
<line id="Line 69_2" x1="67.6139" y1="38.8848" x2="67.6139" y2="27.9001" stroke="#1B453C" stroke-width="1.7"/>
<line id="Line 70_2" x1="71.8014" y1="36.1389" x2="71.8014" y2="25.8408" stroke="#1B453C" stroke-width="1.7"/>
<path id="Polygon 14_2" d="M63.2582 19.3209C63.1922 19.3077 63.1738 19.2848 63.1664 19.275C63.1528 19.2569 63.1375 19.222 63.1375 19.1738C63.1375 19.1255 63.1528 19.0906 63.1664 19.0726C63.1739 19.0628 63.1922 19.0398 63.2582 19.0267L67.5826 18.1647C67.6754 18.1462 67.7619 18.2172 67.7619 18.3118V20.0357C67.7619 20.1304 67.6754 20.2013 67.5826 20.1828L63.2582 19.3209Z" stroke="#1B453C" stroke-width="1.7"/>
<path id="Polygon 15_2" d="M50.0459 19.4658C50.1112 19.4524 50.1296 19.4296 50.1371 19.4196C50.1508 19.4014 50.1659 19.3666 50.1659 19.3188C50.1659 19.2709 50.1508 19.2362 50.1371 19.218C50.1296 19.208 50.1112 19.1851 50.0459 19.1718L45.8506 18.3156C45.7576 18.2966 45.6706 18.3676 45.6706 18.4625V20.175C45.6706 20.2699 45.7576 20.341 45.8506 20.322L50.0459 19.4658Z" stroke="#1B453C" stroke-width="1.7"/>
<path id="Polygon 16_2" d="M53.5048 16.4339C53.5457 16.453 53.5746 16.4554 53.5959 16.4542C53.6215 16.4527 53.6518 16.4446 53.6803 16.4272C53.7088 16.4098 53.727 16.3883 53.736 16.3686C53.7435 16.3522 53.7489 16.3289 53.7381 16.2914L53.2103 14.4523C53.1878 14.3739 53.09 14.3252 52.9991 14.3472L50.7559 14.8881C50.71 14.8992 50.6891 14.9153 50.6767 14.9289C50.6613 14.9456 50.6486 14.9706 50.6458 15.0017C50.643 15.0329 50.6511 15.0601 50.6632 15.0796C50.673 15.0954 50.6907 15.1155 50.7338 15.1357L53.5048 16.4339Z" stroke="#1B453C" stroke-width="1.7"/>
<path id="Polygon 17_2" d="M54.134 21.8609C54.1759 21.8385 54.205 21.8351 54.2259 21.8355C54.2517 21.836 54.2834 21.8432 54.3138 21.8605C54.3441 21.8779 54.3634 21.8997 54.3728 21.9193C54.3804 21.9352 54.3866 21.9588 54.3752 21.9986L53.519 24.9861C53.4948 25.0705 53.3851 25.1195 53.2918 25.0875L50.4147 24.1032C50.2958 24.0625 50.2877 23.9247 50.4007 23.8641L54.134 21.8609Z" stroke="#1B453C" stroke-width="1.7"/>
<path id="Polygon 18_2" d="M59.6404 21.9826C59.6052 21.9571 59.578 21.9495 59.5568 21.9469C59.5317 21.9437 59.5011 21.9463 59.4706 21.9581C59.44 21.9699 59.4182 21.9875 59.4053 22.0053C59.3945 22.0203 59.3845 22.0423 59.3866 22.0805L59.5395 24.9299C59.5445 25.0222 59.6484 25.0933 59.7486 25.0727L62.6959 24.4693C62.8191 24.4441 62.8451 24.3042 62.7407 24.2286L59.6404 21.9826Z" stroke="#1B453C" stroke-width="1.7"/>
<path id="Polygon 19_2" d="M59.9015 15.8991C59.7874 15.9587 59.6501 15.8905 59.6627 15.7805L59.8493 14.1526C59.859 14.0679 59.9561 14.0053 60.0529 14.0216L62.2722 14.394C62.3204 14.4021 62.3423 14.4173 62.3552 14.4299C62.3716 14.4457 62.3861 14.4706 62.3906 14.5026C62.3952 14.5347 62.3881 14.563 62.3769 14.5833C62.368 14.5994 62.3513 14.6208 62.3074 14.6437L59.9015 15.8991Z" stroke="#1B453C" stroke-width="1.7"/>
<g id="Ellipse 129_2">
<mask id="path-36-inside-1_4548_4055" fill="white">
<ellipse cx="57.1568" cy="18.8436" rx="1.25625" ry="2.93125" transform="rotate(-90 57.1568 18.8436)"/>
</mask>
<path d="M57.1568 19.2874C57.7926 19.2874 58.2874 19.4011 58.5599 19.5178C58.6991 19.5775 58.7032 19.6049 58.6478 19.5488C58.5851 19.4853 58.3881 19.245 58.3881 18.8436H61.7881C61.7881 18.0953 61.427 17.5245 61.0677 17.1605C60.7156 16.8037 60.2904 16.5604 59.8992 16.3928C59.1107 16.0548 58.14 15.8874 57.1568 15.8874V19.2874ZM58.3881 18.8436C58.3881 18.4422 58.5851 18.2019 58.6478 18.1385C58.7032 18.0823 58.6991 18.1097 58.5599 18.1694C58.2874 18.2861 57.7926 18.3999 57.1568 18.3999V21.7999C58.14 21.7999 59.1107 21.6324 59.8992 21.2945C60.2904 21.1268 60.7156 20.8835 61.0677 20.5267C61.427 20.1627 61.7881 19.5919 61.7881 18.8436H58.3881ZM57.1568 18.3999C56.5211 18.3999 56.0262 18.2861 55.7538 18.1694C55.6145 18.1097 55.6105 18.0823 55.6659 18.1385C55.7286 18.2019 55.9256 18.4422 55.9256 18.8436H52.5256C52.5256 19.5919 52.8867 20.1627 53.246 20.5267C53.5981 20.8835 54.0233 21.1268 54.4145 21.2945C55.2029 21.6324 56.1737 21.7999 57.1568 21.7999V18.3999ZM55.9256 18.8436C55.9256 19.245 55.7286 19.4853 55.6659 19.5488C55.6105 19.6049 55.6145 19.5775 55.7538 19.5178C56.0262 19.4011 56.5211 19.2874 57.1568 19.2874V15.8874C56.1737 15.8874 55.2029 16.0548 54.4145 16.3928C54.0233 16.5604 53.5981 16.8037 53.246 17.1605C52.8867 17.5245 52.5256 18.0953 52.5256 18.8436H55.9256Z" fill="#1B453C" mask="url(#path-36-inside-1_4548_4055)"/>
</g>
</g>
</g>
</svg>
