<svg width="107" height="111" viewBox="23 23 60 60" fill="none" xmlns="http://www.w3.org/2000/svg">
<g id="water bottle">
<rect id="Rectangle 2913" x="45.9438" y="26.8656" width="14.7766" height="5.2375" rx="1.86" stroke="#1B453C" stroke-width="1.7" stroke-linejoin="round"/>
<path id="Vector 91" d="M41.625 39.457L47.7688 33.3133C48.277 32.805 48.9663 32.5195 49.685 32.5195H57.3054C58.0869 32.5195 58.8303 32.8569 59.3449 33.445L64.6055 39.457M41.625 39.457V45.4189C41.625 46.9156 42.8383 48.1289 44.335 48.1289H61.8955C63.3922 48.1289 64.6055 46.9156 64.6055 45.4189V39.457M41.625 39.457H48.5625M64.6055 39.457H57.2344" stroke="#1B453C" stroke-width="1.7" stroke-linecap="round"/>
<path id="Vector 92" d="M41.625 52.0312C41.625 50.097 43.0055 48.5079 43.3032 48.1878C43.3393 48.1489 43.3892 48.1289 43.4422 48.1289H62.3732C62.415 48.1289 62.4542 48.1409 62.4876 48.166C62.8488 48.4374 65.039 50.1604 65.039 52.0312C65.039 53.4132 63.3873 54.7952 62.7161 55.2997C62.5933 55.392 62.6051 55.5896 62.7361 55.6697C63.4196 56.0876 65.039 57.2583 65.039 58.9688C65.039 60.3654 63.4727 61.4221 62.7708 61.8254C62.6314 61.9055 62.6227 62.1182 62.7554 62.209C63.46 62.6913 65.0875 63.9711 65.039 65.4727C64.9973 66.7667 63.6596 68.5008 63.3626 68.8703C63.3256 68.9164 63.2705 68.9414 63.2113 68.9414H43.4383C43.3876 68.9414 43.3397 68.9231 43.3036 68.8874C43.0113 68.5989 41.6668 67.2036 41.6249 65.9062C41.5764 64.4004 43.4816 62.8494 44.2974 62.2557C44.4366 62.1544 44.4041 61.9208 44.244 61.8577C43.4125 61.5302 41.625 60.6325 41.625 58.9688C41.6251 57.3674 43.497 56.1419 44.3007 55.6895C44.4454 55.608 44.449 55.3857 44.3064 55.3005C43.5059 54.8227 41.625 53.5394 41.625 52.0312Z" stroke="#1B453C" stroke-width="1.7" stroke-linecap="round"/>
<rect id="Rectangle 2914" x="41.6078" y="69.3578" width="23.4484" height="9.57344" rx="1.86" stroke="#1B453C" stroke-width="1.7"/>
</g>
</svg>
