<svg width="270" height="95" viewBox="0 0 270 95" fill="none" xmlns="http://www.w3.org/2000/svg">
<path d="M23.8235 95H270L246.176 76H0L23.8235 95Z" fill="#B6A58D"/>
<rect x="195.973" y="4" width="16.9087" height="60.5155" fill="#5E5672"/>
<rect x="195.975" y="8.44971" width="16.9087" height="4.44967" fill="#8875B8"/>
<rect x="161.141" y="67" width="57.8457" height="2.6698" transform="rotate(-90 161.141 67)" fill="#3D504C"/>
<path d="M176.234 9L188.734 16.5L188.234 22.5L176.234 15.0344V9Z" fill="#3D504C"/>
<path d="M176.215 15L188.715 22.5L188.215 28.5L176.215 21V15Z" fill="#3D504C"/>
<path d="M161.02 6L173.52 13.5L173.02 19.5L161.02 12.0344V6Z" fill="#753F3C"/>
<path d="M161 12L173.5 19.5L173 25.5L161 18V12Z" fill="#753F3C"/>
<path d="M126.02 11L138.52 18.5L138.02 24.5L126.02 17.0344V11Z" fill="#C25736"/>
<path d="M126 14L138.5 21.5L138 27.5L126 20.0344V14Z" fill="#586E97"/>
<path d="M126 17L138.5 24.5L138 30.5L126 23V17Z" fill="#C25736"/>
<path d="M126.02 11L138.52 18.5L138.02 24.5L126.02 17.0344V11Z" fill="#C25736"/>
<path d="M126 14L138.5 21.5L138 27.5L126 20.0344V14Z" fill="#586E97"/>
<path d="M126 17L138.5 24.5L138 30.5L126 23V17Z" fill="#C25736"/>
<path d="M126.02 11L138.52 18.5L138.02 24.5L126.02 17.0344V11Z" fill="#3E1609"/>
<path d="M126 14L138.5 21.5L138 27.5L126 20.0344V14Z" fill="#919191"/>
<path d="M126 17L138.5 24.5L138 30.5L126 23V17Z" fill="#3E1609"/>
<path d="M125.02 15L137.52 22.5L137.02 28.5L125.02 21.0344V15Z" fill="#3E1609"/>
<path d="M125 18L137.5 25.5L137 31.5L125 24.0344V18Z" fill="#586E97"/>
<path d="M125 21L137.5 28.5L137 34.5L125 27V21Z" fill="#C25736"/>
<path d="M132 15.0002L144.52 23.0002L144.02 29.0002L132.02 21.5347L132 15.0002Z" fill="#9E5C1F"/>
<path d="M132.02 21.5347L144.52 29.0347L144.02 35.0347L132.02 27.5347V21.5347Z" fill="#9E5C1F"/>
<path d="M132 15.0002L144.52 23.0002L144.02 29.0002L132.02 21.5347L132 15.0002Z" fill="#9E5C1F"/>
<path d="M132.02 21.5347L144.52 29.0347L144.02 35.0347L132.02 27.5347V21.5347Z" fill="#9E5C1F"/>
<path d="M114 15.0002L126.52 23.0002L126.02 29.0002L114.02 21.5347L114 15.0002Z" fill="#9E5C1F"/>
<path d="M114.02 21.5347L126.52 29.0347L126.02 35.0347L114.02 27.5347V21.5347Z" fill="#9E5C1F"/>
<rect x="173.361" y="17" width="23" height="50" fill="#586E97"/>
<rect x="181" y="67" width="50" height="2" transform="rotate(-90 181 67)" fill="#7EA4EC"/>
<rect x="184" y="67" width="50" height="2" transform="rotate(-90 184 67)" fill="#7EA4EC"/>
<path d="M159.361 9H176.27V66.8457H159.361V9Z" fill="#50776F"/>
<rect x="143.266" y="6" width="17.8796" height="60.5155" fill="#CC554E"/>
<rect x="143.715" y="8.82471" width="16.9087" height="4.44967" fill="#F79374"/>
<rect x="125.385" y="17" width="17.8796" height="49.5127" fill="#586E97"/>
<path d="M128 35L128 15L132 15L132 35L130 33.5L128 35Z" fill="#DBA26D"/>
<rect x="111" y="11" width="15" height="54" fill="#CD775C"/>
<rect x="111" y="14" width="15" height="2" fill="white"/>
<rect x="111" y="18" width="15" height="2" fill="white"/>
<rect x="195.973" y="4" width="16.9087" height="60.5155" fill="#5E5672"/>
<rect x="195.975" y="8.44971" width="16.9087" height="4.44967" fill="#8875B8"/>
<rect x="161.141" y="67" width="57.8457" height="2.6698" transform="rotate(-90 161.141 67)" fill="#3D504C"/>
<path d="M176.234 9L188.734 16.5L188.234 22.5L176.234 15.0344V9Z" fill="#3D504C"/>
<path d="M176.215 15L188.715 22.5L188.215 28.5L176.215 21V15Z" fill="#3D504C"/>
<path d="M161.02 6L173.52 13.5L173.02 19.5L161.02 12.0344V6Z" fill="#753F3C"/>
<path d="M161 12L173.5 19.5L173 25.5L161 18V12Z" fill="#753F3C"/>
<path d="M126.02 11L138.52 18.5L138.02 24.5L126.02 17.0344V11Z" fill="#C25736"/>
<path d="M126 14L138.5 21.5L138 27.5L126 20.0344V14Z" fill="#586E97"/>
<path d="M126 17L138.5 24.5L138 30.5L126 23V17Z" fill="#C25736"/>
<path d="M126.02 11L138.52 18.5L138.02 24.5L126.02 17.0344V11Z" fill="#C25736"/>
<path d="M126 14L138.5 21.5L138 27.5L126 20.0344V14Z" fill="#586E97"/>
<path d="M126 17L138.5 24.5L138 30.5L126 23V17Z" fill="#C25736"/>
<path d="M126.02 11L138.52 18.5L138.02 24.5L126.02 17.0344V11Z" fill="#3E1609"/>
<path d="M126 14L138.5 21.5L138 27.5L126 20.0344V14Z" fill="#919191"/>
<path d="M126 17L138.5 24.5L138 30.5L126 23V17Z" fill="#3E1609"/>
<path d="M125.02 15L137.52 22.5L137.02 28.5L125.02 21.0344V15Z" fill="#3E1609"/>
<path d="M125 18L137.5 25.5L137 31.5L125 24.0344V18Z" fill="#586E97"/>
<path d="M125 21L137.5 28.5L137 34.5L125 27V21Z" fill="#C25736"/>
<path d="M132 15.0002L144.52 23.0002L144.02 29.0002L132.02 21.5347L132 15.0002Z" fill="#9E5C1F"/>
<path d="M132.02 21.5347L144.52 29.0347L144.02 35.0347L132.02 27.5347V21.5347Z" fill="#9E5C1F"/>
<path d="M132 15.0002L144.52 23.0002L144.02 29.0002L132.02 21.5347L132 15.0002Z" fill="#9E5C1F"/>
<path d="M132.02 21.5347L144.52 29.0347L144.02 35.0347L132.02 27.5347V21.5347Z" fill="#9E5C1F"/>
<path d="M114 15.0002L126.52 23.0002L126.02 29.0002L114.02 21.5347L114 15.0002Z" fill="#9E5C1F"/>
<path d="M114.02 21.5347L126.52 29.0347L126.02 35.0347L114.02 27.5347V21.5347Z" fill="#9E5C1F"/>
<rect x="173.361" y="17" width="23" height="50" fill="#586E97"/>
<rect x="181" y="67" width="50" height="2" transform="rotate(-90 181 67)" fill="#7EA4EC"/>
<rect x="184" y="67" width="50" height="2" transform="rotate(-90 184 67)" fill="#7EA4EC"/>
<path d="M159.361 9H176.27V66.8457H159.361V9Z" fill="#50776F"/>
<rect x="143.266" y="6" width="17.8796" height="60.5155" fill="#CC554E"/>
<rect x="143.715" y="8.82471" width="16.9087" height="4.44967" fill="#F79374"/>
<rect x="125.385" y="17" width="17.8796" height="49.5127" fill="#586E97"/>
<path d="M128 35L128 15L132 15L132 35L130 33.5L128 35Z" fill="#DBA26D"/>
<rect x="111" y="11" width="15" height="54" fill="#CD775C"/>
<rect x="111" y="14" width="15" height="2" fill="white"/>
<rect x="111" y="18" width="15" height="2" fill="white"/>
<path d="M68.3629 12.3996C68.8674 11.2401 68.3387 9.88075 67.1391 9.48097C63.2983 8.20103 59.1993 7.83883 55.1738 8.43817C50.3914 9.15023 45.905 11.1909 42.2255 14.3277C38.5459 17.4646 35.8212 21.5716 34.3614 26.1812C32.9017 30.7907 32.7656 35.7175 33.9687 40.4006C35.1718 45.0837 37.6657 49.3349 41.1665 52.6701C44.6672 56.0052 49.0341 58.2904 53.77 59.2654C58.5058 60.2403 63.4203 59.8659 67.9538 58.1846C71.7696 56.7695 75.1865 54.4765 77.9348 51.5038C78.7932 50.5753 78.6012 49.1295 77.6003 48.3567C76.5995 47.5838 75.1699 47.7789 74.2939 48.6908C72.0824 50.9929 69.373 52.7744 66.3616 53.8912C62.6321 55.2743 58.5893 55.5823 54.6933 54.7803C50.7974 53.9782 47.2049 52.0983 44.3251 49.3547C41.4452 46.611 39.3935 43.1138 38.4038 39.2612C37.4141 35.4087 37.5261 31.3557 38.7269 27.5636C39.9278 23.7716 42.1693 20.393 45.1962 17.8124C48.2232 15.2319 51.9139 13.5532 55.8482 12.9674C59.025 12.4944 62.2576 12.7494 65.3049 13.7006C66.512 14.0773 67.8585 13.5592 68.3629 12.3996Z" fill="#B58B4C"/>
<circle cx="58.3772" cy="60.5765" r="3.14872" fill="#B58B4C"/>
<path d="M50.1895 63.7251L65.3033 63.7251" stroke="#B58B4C" stroke-width="4" stroke-linecap="round"/>
<path d="M46.4121 66.2441H69.0829" stroke="#B58B4C" stroke-width="4" stroke-linecap="round"/>
<path d="M78 33C78 43.4934 69.4934 52 59 52C48.5066 52 40 43.4934 40 33C40 22.5066 48.5066 14 59 14C69.4934 14 78 22.5066 78 33Z" fill="#66647E"/>
<path d="M78 33C78 43.4934 69.4934 52 59 52C48.5066 52 40 43.4934 40 33C40 22.5066 48.5066 14 59 14C69.4934 14 78 22.5066 78 33Z" fill="#66647E"/>
<path d="M44.7785 36.1139L41 31.7057V29.8164L42.2595 24.7785H44.7785L51.0759 21L53.5949 26.038L51.0759 29.1867L54.2246 29.8164V36.7436H50.4462L55.4841 41.7816L49.8164 44.3005L44.7785 36.1139Z" fill="#216355"/>
<path d="M50.7785 41.1139L47 36.7057V34.8164L48.2595 29.7785H50.7785L57.0759 26L59.5949 31.038L57.0759 34.1867L60.2246 34.8164V41.7436H56.4462L61.4841 46.7816L55.8164 49.3005L50.7785 41.1139Z" fill="#216355"/>
<path fill-rule="evenodd" clip-rule="evenodd" d="M77.1366 38.6783C77.6974 36.8853 77.9996 34.9781 77.9996 33.0002C77.9996 31.6957 77.8681 30.4218 77.6177 29.1912L77.4819 29.513L76.0589 26.0127L69.6417 28.6214L70.2441 31.7755L66.3786 30.6277L62.6602 34.8585L68.532 39.2694L69.4806 41.6029L74.622 40.8724L76.3722 40.161L77.1366 38.6783Z" fill="#216355"/>
<path fill-rule="evenodd" clip-rule="evenodd" d="M49.5488 16.5136L53.7256 17.8167L59.3321 16.5622L65.7743 21.3289L66.7975 16.8341L65.5566 15.1617C63.5129 14.4103 61.3042 14 58.9998 14C55.5593 14 52.3324 14.9145 49.5488 16.5136Z" fill="#D9D9D9"/>
<circle cx="45.5" cy="4.5" r="3.5" fill="#B58B4C"/>
<rect x="47" y="11" width="4" height="3.94032" rx="1.97016" transform="rotate(-30 47 11)" fill="#B58B4C"/>
<path d="M74.7745 49.6763C73.7945 47.9788 74.3761 45.8082 76.0736 44.8282L76.1667 44.7744C77.8641 43.7944 80.0347 44.376 81.0147 46.0735C81.9948 47.7709 81.4132 49.9415 79.7157 50.9215L79.6226 50.9753C77.9251 51.9553 75.7546 51.3737 74.7745 49.6763Z" fill="#B58B4C"/>
<circle cx="48" cy="9" r="2" fill="#B58B4C"/>
<circle cx="47" cy="7" r="2" fill="#B58B4C"/>
<path d="M70 25L71.7321 27.25H68.2679L70 25Z" fill="#216355"/>
<path fill-rule="evenodd" clip-rule="evenodd" d="M40.546 23.4161C39.2443 22.5013 38.0255 21.5598 36.8945 20.5937C38.3182 18.2448 40.1143 16.1267 42.2245 14.3277C43.8088 12.9771 45.5427 11.8297 47.3853 10.9041C46.581 10.645 45.9991 9.89047 45.9991 9C45.9991 8.91254 46.0047 8.82638 46.0156 8.74188C45.702 8.56443 45.441 8.30474 45.2621 7.9921C43.4396 7.87025 41.9991 6.35335 41.9991 4.5C41.9991 2.567 43.5661 1 45.4991 1C47.4321 1 48.9991 2.567 48.9991 4.5C48.9991 5.01139 48.8894 5.49716 48.6923 5.93508C48.8866 6.24343 48.9991 6.60858 48.9991 7C48.9991 7.08747 48.9934 7.17362 48.9826 7.25812C49.5894 7.60152 49.9991 8.25293 49.9991 9C49.9991 9.2556 49.9511 9.49998 49.8637 9.72468C49.9281 9.72872 49.9922 9.73592 50.0558 9.74621C51.7049 9.13915 53.419 8.69931 55.1729 8.43817C59.1983 7.83883 63.2973 8.20103 67.1381 9.48097C68.3378 9.88074 68.8664 11.2401 68.362 12.3996C67.8575 13.5592 66.511 14.0773 65.304 13.7006C62.2567 12.7494 59.0241 12.4944 55.8472 12.9674C51.913 13.5532 48.2222 15.2319 45.1953 17.8124C43.3259 19.4061 41.7561 21.3042 40.546 23.4161ZM77.4038 37.7371C63.0917 34.8581 50.864 30.222 42.0376 24.4289C43.7158 21.1145 46.3369 18.3584 49.5481 16.5136C52.3316 14.9145 55.5586 14 58.9991 14C61.0434 14 63.0124 14.3229 64.8577 14.9204C71.4482 17.0545 76.4618 22.692 77.7023 29.6367C77.8973 30.7283 77.9991 31.8523 77.9991 33C77.9991 34.6355 77.7924 36.2228 77.4038 37.7371Z" fill="black" fill-opacity="0.2"/>
<path fill-rule="evenodd" clip-rule="evenodd" d="M67.0249 13.6542C67.6067 13.4343 68.0987 13.0041 68.3618 12.3995C68.8662 11.2399 68.3375 9.88057 67.1379 9.48079C63.5945 8.29994 59.8312 7.90024 56.1088 8.31607C59.3975 10.3183 63.0578 12.1103 67.0249 13.6542ZM48.5246 2.73948C48.0218 2.28907 47.535 1.83203 47.0645 1.36865C47.6742 1.67414 48.1824 2.15251 48.5246 2.73948Z" fill="black" fill-opacity="0.2"/>
<path d="M0 65H248V74C248 75.1046 247.105 76 246 76H2C0.895429 76 0 75.1046 0 74V65Z" fill="#847867"/>
<path fill-rule="evenodd" clip-rule="evenodd" d="M111 41.9993V20V18V16V14V11H126V14L126.02 14.0117V11L136.02 17H143.264V22.1982L143.266 22.199V6H161.02H161.145V6.0754L166.02 9H176.234H176.27V9.02127L188.299 16.2386C180.139 26.3632 163.821 34.5053 143.266 38.763V34.5633L143.264 34.5625V38.7632C133.349 40.8169 122.447 41.9667 111 41.9993Z" fill="#1A1C06" fill-opacity="0.25"/>
<path fill-rule="evenodd" clip-rule="evenodd" d="M153.396 6H143.266V11.8318C146.995 10.1091 150.393 8.15257 153.396 6ZM133.584 15.5386C126.702 17.6882 119.08 19.135 111 19.7149V18V16V14V11H126V14L126.02 14.0117V11L133.584 15.5386Z" fill="#1A1C06" fill-opacity="0.25"/>
</svg>
