<svg width="70" height="44" viewBox="0 0 70 44" fill="none" xmlns="http://www.w3.org/2000/svg">
<g id="bottle caps">
<g id="Group 290036">
<path id="Vector 13" d="M5.21491 25.3802V33.7248M5.21491 25.3802C8.48772 21.2039 26.4882 20.7649 31.9429 25.3802M5.21491 25.3802C11.2151 30.8661 29.2155 29.1093 31.9429 25.3802M5.21491 33.7248C12.8515 36.7992 23.4385 37.8922 31.9429 33.7248M5.21491 33.7248V33.7248C4.66767 33.4259 4 33.8219 4 34.4455V36.4687C4 37.3225 4.53413 38.0885 5.34789 38.3468C14.4052 41.2219 25.5331 41.2538 32.0172 38.4424C32.7339 38.1316 33.1578 37.4048 33.1578 36.6236V33.9825C33.1578 33.5667 32.7133 33.3021 32.3479 33.5003V33.5003L31.9429 33.7248M31.9429 33.7248V25.3802" stroke="#1B453C" stroke-width="1.7" stroke-linecap="round"/>
<path id="Line 28" d="M7.64453 27.3516L7.64453 34.3786" stroke="#1B453C" stroke-linecap="round"/>
<path id="Line 42" d="M10.0752 28.23L10.0752 35.2571" stroke="#1B453C" stroke-linecap="round"/>
<path id="Line 43" d="M12.5039 28.23L12.5039 35.2571" stroke="#1B453C" stroke-linecap="round"/>
<path id="Line 44" d="M14.9346 29.1084L14.9346 36.1355" stroke="#1B453C" stroke-linecap="round"/>
<path id="Line 45" d="M17.3633 29.1084L17.3633 36.1355" stroke="#1B453C" stroke-linecap="round"/>
<path id="Line 46" d="M19.7939 29.1084L19.7939 36.1355" stroke="#1B453C" stroke-linecap="round"/>
<path id="Line 47" d="M22.2236 29.1084L22.2236 36.1355" stroke="#1B453C" stroke-linecap="round"/>
<path id="Line 48" d="M24.6533 28.23L24.6533 35.2571" stroke="#1B453C" stroke-linecap="round"/>
<path id="Line 49" d="M27.083 28.23L27.083 35.2571" stroke="#1B453C" stroke-linecap="round"/>
<path id="Line 50" d="M29.5137 27.3516L29.5137 34.3786" stroke="#1B453C" stroke-linecap="round"/>
</g>
<g id="Group 290037">
<path id="Vector 13_2" d="M41.0567 21.8665V30.2112M41.0567 21.8665C44.3295 17.6902 62.33 17.2513 67.7847 21.8665M41.0567 21.8665C47.0569 27.3524 65.0573 25.5957 67.7847 21.8665M41.0567 30.2112C48.6933 33.2855 59.2803 34.3785 67.7847 30.2112M41.0567 30.2112V30.2112C40.5095 29.9122 39.8418 30.3082 39.8418 30.9318V32.955C39.8418 33.8088 40.3759 34.5748 41.1897 34.8332C50.247 37.7082 61.3749 37.7401 67.859 34.9287C68.5757 34.618 68.9996 33.8911 68.9996 33.1099V30.4688C68.9996 30.053 68.5551 29.7885 68.1897 29.9866V29.9866L67.7847 30.2112M67.7847 30.2112V21.8665" stroke="#1B453C" stroke-width="1.7" stroke-linecap="round"/>
<path id="Line 28_2" d="M43.4863 23.8379L43.4863 30.865" stroke="#1B453C" stroke-linecap="round"/>
<path id="Line 42_2" d="M45.917 24.7163L45.917 31.7434" stroke="#1B453C" stroke-linecap="round"/>
<path id="Line 43_2" d="M48.3457 24.7163L48.3457 31.7434" stroke="#1B453C" stroke-linecap="round"/>
<path id="Line 44_2" d="M50.7764 25.5947L50.7764 32.6218" stroke="#1B453C" stroke-linecap="round"/>
<path id="Line 45_2" d="M53.2051 25.5947L53.2051 32.6218" stroke="#1B453C" stroke-linecap="round"/>
<path id="Line 46_2" d="M55.6357 25.5947L55.6357 32.6218" stroke="#1B453C" stroke-linecap="round"/>
<path id="Line 47_2" d="M58.0654 25.5947L58.0654 32.6218" stroke="#1B453C" stroke-linecap="round"/>
<path id="Line 48_2" d="M60.4951 24.7163L60.4951 31.7434" stroke="#1B453C" stroke-linecap="round"/>
<path id="Line 49_2" d="M62.9248 24.7163L62.9248 31.7434" stroke="#1B453C" stroke-linecap="round"/>
<path id="Line 50_2" d="M65.3555 23.8379L65.3555 30.865" stroke="#1B453C" stroke-linecap="round"/>
</g>
<g id="Group 290038">
<path id="Vector 13_3" d="M15.9493 4.2989V12.6435M15.9493 4.2989C19.2221 0.122579 37.2226 -0.316373 42.6773 4.2989M15.9493 4.2989C21.9494 9.78479 39.9499 8.02803 42.6773 4.2989M15.9493 12.6435C23.5858 15.7179 34.1729 16.8109 42.6773 12.6435M15.9493 12.6435V12.6435C15.402 12.3446 14.7344 12.7406 14.7344 13.3642V15.3874C14.7344 16.2412 15.2685 17.0072 16.0823 17.2655C25.1396 20.1406 36.2675 20.1725 42.7516 17.3611C43.4683 17.0503 43.8922 16.3235 43.8922 15.5423V12.9012C43.8922 12.4854 43.4477 12.2208 43.0822 12.419V12.419L42.6773 12.6435M42.6773 12.6435V4.2989" stroke="#1B453C" stroke-width="1.7" stroke-linecap="round"/>
<path id="Line 28_3" d="M18.3789 6.27026L18.3789 13.2973" stroke="#1B453C" stroke-linecap="round"/>
<path id="Line 42_3" d="M20.8096 7.14868L20.8096 14.1758" stroke="#1B453C" stroke-linecap="round"/>
<path id="Line 43_3" d="M23.2383 7.14868L23.2383 14.1758" stroke="#1B453C" stroke-linecap="round"/>
<path id="Line 44_3" d="M25.6689 8.0271L25.6689 15.0542" stroke="#1B453C" stroke-linecap="round"/>
<path id="Line 45_3" d="M28.0977 8.0271L28.0977 15.0542" stroke="#1B453C" stroke-linecap="round"/>
<path id="Line 46_3" d="M30.5283 8.0271L30.5283 15.0542" stroke="#1B453C" stroke-linecap="round"/>
<path id="Line 47_3" d="M32.958 8.0271L32.958 15.0542" stroke="#1B453C" stroke-linecap="round"/>
<path id="Line 48_3" d="M35.3877 7.14868L35.3877 14.1758" stroke="#1B453C" stroke-linecap="round"/>
<path id="Line 49_3" d="M37.8174 7.14868L37.8174 14.1758" stroke="#1B453C" stroke-linecap="round"/>
<path id="Line 50_3" d="M40.248 6.27026L40.248 13.2973" stroke="#1B453C" stroke-linecap="round"/>
</g>
</g>
</svg>
