<svg width="80" height="49" viewBox="0 0 80 49" fill="none" xmlns="http://www.w3.org/2000/svg">
<g id="rubber car tires">
<g id="Group 290045">
<path id="Vector 77" d="M17.5574 1.67825L28.578 1.28027C30.1034 1.22518 31.3734 2.44027 31.3857 3.96667L31.6529 37.1247C31.6651 38.6409 30.431 39.8721 28.9148 39.8564L18.1558 39.7447C15.3412 39.7155 12.5074 38.9213 10.5111 36.9369C-1.123 25.3718 5.29563 7.17569 13.9134 2.49532C15.0224 1.89302 16.2962 1.72379 17.5574 1.67825Z" stroke="#FBFBF4" stroke-width="1.7"/>
<path id="Ellipse 128" d="M43.6259 20.658C43.5694 26.1052 42.0451 30.983 39.6711 34.4652C37.293 37.9532 34.1303 39.9605 30.7752 39.9257C27.4201 39.8909 24.2997 37.8184 21.9946 34.2817C19.6934 30.751 18.2707 25.8426 18.3273 20.3954C18.3838 14.9482 19.9081 10.0705 22.2821 6.58832C24.6601 3.10025 27.8228 1.09295 31.178 1.12778C34.5331 1.16261 37.6534 3.23513 39.9585 6.77181C42.2598 10.3025 43.6825 15.2109 43.6259 20.658Z" stroke="#FBFBF4" stroke-width="1.7"/>
<path id="Ellipse 130" d="M41.8302 20.1895C41.7826 24.7758 40.5641 28.8756 38.6776 31.795C36.7842 34.7252 34.2997 36.3622 31.712 36.3353C29.1243 36.3085 26.6744 34.6202 24.8422 31.6514C23.0167 28.6935 21.8836 24.5692 21.9312 19.9829C21.9789 15.3966 23.1973 11.2968 25.0838 8.37737C26.9773 5.44719 29.4617 3.8102 32.0494 3.83706C34.6371 3.86392 37.087 5.55214 38.9192 8.52099C40.7447 11.4789 41.8778 15.6032 41.8302 20.1895Z" stroke="#FBFBF4" stroke-width="1.7"/>
<line id="Line 63" x1="10.4405" y1="4.61269" x2="23.9397" y2="4.75282" stroke="#FBFBF4" stroke-width="1.7"/>
<line id="Line 64" x1="7.69437" y1="9.08437" x2="20.2937" y2="9.21516" stroke="#FBFBF4" stroke-width="1.7"/>
<line id="Line 65" x1="5.84769" y1="13.5656" x2="19.347" y2="13.7057" stroke="#FBFBF4" stroke-width="1.7"/>
<line id="Line 66" x1="4.90042" y1="18.0561" x2="18.3997" y2="18.1962" stroke="#FBFBF4" stroke-width="1.7"/>
<line id="Line 67" x1="4.85453" y1="22.5558" x2="18.3538" y2="22.6959" stroke="#FBFBF4" stroke-width="1.7"/>
<line id="Line 68" x1="4.80765" y1="27.0556" x2="19.2069" y2="27.205" stroke="#FBFBF4" stroke-width="1.7"/>
<line id="Line 69" x1="6.56058" y1="31.5739" x2="20.9598" y2="31.7233" stroke="#FBFBF4" stroke-width="1.7"/>
<line id="Line 70" x1="10.1133" y1="36.111" x2="23.6126" y2="36.2511" stroke="#FBFBF4" stroke-width="1.7"/>
<path id="Polygon 14" d="M32.315 25.8281C32.3302 25.7683 32.3526 25.75 32.3643 25.7416C32.3832 25.7281 32.417 25.7146 32.4619 25.715C32.5069 25.7155 32.5404 25.7297 32.559 25.7436C32.5706 25.7522 32.5926 25.771 32.6065 25.8311L34 31.8326C34.022 31.9273 33.9495 32.0175 33.8523 32.0165L30.9411 31.9863C30.8439 31.9853 30.7733 31.8935 30.7973 31.7993L32.315 25.8281Z" stroke="#FBFBF4" stroke-width="1.7"/>
<path id="Polygon 15" d="M32.2471 14.137C32.2612 14.1963 32.2831 14.2152 32.2948 14.2239C32.3135 14.2378 32.3469 14.2518 32.3914 14.2523C32.436 14.2528 32.4696 14.2394 32.4886 14.2259C32.5005 14.2174 32.5228 14.1991 32.5382 14.14L34.047 8.33757C34.0715 8.24318 34.0009 8.15084 33.9033 8.14983L31.0065 8.11976C30.909 8.11875 30.8365 8.2096 30.8591 8.30448L32.2471 14.137Z" stroke="#FBFBF4" stroke-width="1.7"/>
<path id="Polygon 16" d="M35.857 16.8929C35.8348 16.9307 35.8325 16.9574 35.8339 16.9768C35.8357 17.0006 35.8451 17.0295 35.8653 17.0571C35.8856 17.0848 35.9102 17.1026 35.9323 17.1115C35.9503 17.1188 35.9765 17.1246 36.0193 17.115L38.9888 16.4487C39.0728 16.4299 39.1238 16.3444 39.1003 16.2615L38.2598 13.2906C38.2476 13.2477 38.2298 13.2276 38.2149 13.2153C38.1965 13.2002 38.1688 13.187 38.1344 13.1826C38.1 13.1782 38.0699 13.1841 38.0483 13.1941C38.0308 13.2022 38.0085 13.2172 37.986 13.2556L35.857 16.8929Z" stroke="#FBFBF4" stroke-width="1.7"/>
<path id="Polygon 17" d="M29.3381 17.5048C29.3632 17.544 29.3659 17.5711 29.3649 17.5899C29.3637 17.6138 29.3546 17.6438 29.3337 17.673C29.3128 17.7022 29.2873 17.7204 29.2652 17.7293C29.2476 17.7363 29.2211 17.7424 29.1759 17.7313L24.6708 16.6234C24.5808 16.6013 24.5322 16.5037 24.5688 16.4186L26.0938 12.8687C26.1413 12.7581 26.2931 12.7457 26.358 12.847L29.3381 17.5048Z" stroke="#FBFBF4" stroke-width="1.7"/>
<path id="Polygon 18" d="M29.0936 23.0219C29.1235 22.9888 29.1311 22.9629 29.1335 22.9438C29.1364 22.9201 29.1329 22.8896 29.1183 22.8581C29.1036 22.8267 29.0826 22.8043 29.0626 22.7913C29.0464 22.7808 29.0218 22.77 28.9772 22.7715L24.6482 22.917C24.5534 22.9202 24.4853 23.0095 24.5074 23.1017L25.3856 26.7803C25.4137 26.8978 25.562 26.9356 25.6429 26.846L29.0936 23.0219Z" stroke="#FBFBF4" stroke-width="1.7"/>
<path id="Polygon 19" d="M36.5135 23.3498C36.4476 23.2439 36.5323 23.1084 36.6564 23.1214L39.3213 23.3998C39.4101 23.409 39.4712 23.4933 39.4524 23.5805L38.8112 26.5553C38.8014 26.6004 38.7844 26.6216 38.7704 26.6344C38.7528 26.6505 38.7253 26.6654 38.6902 26.6715C38.6551 26.6776 38.6242 26.6728 38.6022 26.6636C38.5847 26.6563 38.5615 26.6421 38.5372 26.603L36.5135 23.3498Z" stroke="#FBFBF4" stroke-width="1.7"/>
<path id="Ellipse 129" d="M34.0394 20.1372C34.0322 20.8292 33.8444 21.4141 33.5917 21.7991C33.3329 22.1933 33.0827 22.2834 32.9379 22.2819C32.7932 22.2804 32.5449 22.1851 32.2943 21.7856C32.0496 21.3955 31.8741 20.8068 31.8813 20.1148C31.8884 19.4228 32.0762 18.8378 32.3289 18.4528C32.5877 18.0587 32.838 17.9686 32.9827 17.9701C33.1274 17.9716 33.3757 18.0668 33.6263 18.4663C33.871 18.8565 34.0465 19.4452 34.0394 20.1372Z" fill="#FBFBF4" stroke="#FBFBF4" stroke-width="1.7"/>
</g>
<g id="Group 290043">
<path id="Vector 77_2" d="M37.0012 32.3036L36.5604 24.5345C36.4731 22.9961 37.6844 21.6946 39.2251 21.6713L72.3494 21.1706C73.862 21.1478 75.1004 22.3676 75.1004 23.8803V30.6906C75.1004 33.9623 74.0589 37.2765 71.443 39.2415C60.2645 47.6386 43.4462 43.0967 38.2869 36.5387C37.3517 35.3499 37.0869 33.8137 37.0012 32.3036Z" stroke="#FBFBF4" stroke-width="1.7"/>
<path id="Ellipse 128_2" d="M55.75 11.6503C61.2274 11.6503 66.1442 12.8654 69.6613 14.7875C73.2101 16.727 75.15 19.267 75.15 21.8669C75.15 24.4669 73.2101 27.0069 69.6613 28.9464C66.1442 30.8684 61.2274 32.0836 55.75 32.0836C50.2726 32.0836 45.3558 30.8684 41.8387 28.9464C38.2899 27.0069 36.35 24.4669 36.35 21.8669C36.35 19.267 38.2899 16.727 41.8387 14.7875C45.3558 12.8654 50.2726 11.6503 55.75 11.6503Z" stroke="#FBFBF4" stroke-width="1.7"/>
<path id="Ellipse 130_2" d="M55.3002 13.1255C59.9147 13.1255 64.0502 14.0957 67.0009 15.6234C69.9945 17.1733 71.5502 19.1639 71.5502 21.1289C71.5502 23.0938 69.9945 25.0844 67.0009 26.6343C64.0502 28.162 59.9147 29.1322 55.3002 29.1322C50.6857 29.1322 46.5502 28.162 43.5995 26.6343C40.6059 25.0844 39.0502 23.0938 39.0502 21.1289C39.0502 19.1639 40.6059 17.1733 43.5995 15.6234C46.5502 14.0957 50.6857 13.1255 55.3002 13.1255Z" stroke="#FBFBF4" stroke-width="1.7"/>
<line id="Line 63_2" x1="40.0504" y1="38.8359" x2="40.0504" y2="27.7693" stroke="#FBFBF4" stroke-width="1.7"/>
<line id="Line 64_2" x1="44.5504" y1="41.0491" x2="44.5504" y2="30.7202" stroke="#FBFBF4" stroke-width="1.7"/>
<line id="Line 65_2" x1="49.0504" y1="42.5242" x2="49.0504" y2="31.4575" stroke="#FBFBF4" stroke-width="1.7"/>
<line id="Line 66_2" x1="53.5504" y1="43.2627" x2="53.5504" y2="32.196" stroke="#FBFBF4" stroke-width="1.7"/>
<line id="Line 67_2" x1="58.0504" y1="43.2622" x2="58.0504" y2="32.1956" stroke="#FBFBF4" stroke-width="1.7"/>
<line id="Line 68_2" x1="62.5504" y1="43.2625" x2="62.5504" y2="31.458" stroke="#FBFBF4" stroke-width="1.7"/>
<line id="Line 69_2" x1="67.0504" y1="41.7866" x2="67.0504" y2="29.9822" stroke="#FBFBF4" stroke-width="1.7"/>
<line id="Line 70_2" x1="71.5504" y1="38.8359" x2="71.5504" y2="27.7693" stroke="#FBFBF4" stroke-width="1.7"/>
<path id="Polygon 14_2" d="M61.9261 20.7517C61.8602 20.7385 61.8418 20.7156 61.8344 20.7058C61.8207 20.6877 61.8055 20.6528 61.8055 20.6045C61.8055 20.5563 61.8207 20.5214 61.8344 20.5033C61.8418 20.4935 61.8602 20.4706 61.9261 20.4574L67.0297 19.4402C67.1225 19.4217 67.209 19.4927 67.209 19.5873V21.6218C67.209 21.7164 67.1225 21.7874 67.0297 21.7689L61.9261 20.7517Z" stroke="#FBFBF4" stroke-width="1.7"/>
<path id="Polygon 15_2" d="M48.4795 20.9078C48.5448 20.8945 48.5632 20.8716 48.5707 20.8616C48.5844 20.8434 48.5995 20.8087 48.5995 20.7608C48.5995 20.7129 48.5844 20.6782 48.5707 20.66C48.5632 20.65 48.5448 20.6271 48.4795 20.6138L43.5232 19.6023C43.4303 19.5833 43.3433 19.6543 43.3433 19.7492V21.7724C43.3433 21.8673 43.4303 21.9383 43.5232 21.9193L48.4795 20.9078Z" stroke="#FBFBF4" stroke-width="1.7"/>
<path id="Polygon 16_2" d="M51.9515 17.7836C51.9924 17.8028 52.0212 17.8052 52.0425 17.804C52.0681 17.8025 52.0985 17.7943 52.127 17.7769C52.1555 17.7595 52.1737 17.738 52.1827 17.7184C52.1902 17.702 52.1956 17.6787 52.1848 17.6411L51.5551 15.4475C51.5326 15.3691 51.4348 15.3204 51.3439 15.3423L48.6683 15.9876C48.6224 15.9986 48.6015 16.0148 48.589 16.0283C48.5737 16.045 48.5609 16.0701 48.5581 16.1012C48.5553 16.1324 48.5634 16.1596 48.5756 16.1791C48.5854 16.1949 48.603 16.215 48.6461 16.2352L51.9515 17.7836Z" stroke="#FBFBF4" stroke-width="1.7"/>
<path id="Polygon 17_2" d="M52.6308 23.3563C52.6726 23.3339 52.7018 23.3305 52.7227 23.3309C52.7485 23.3314 52.7802 23.3386 52.8106 23.3559C52.8409 23.3733 52.8601 23.3951 52.8696 23.4147C52.8772 23.4306 52.8833 23.4542 52.8719 23.494L51.8836 26.9426C51.8594 27.027 51.7497 27.076 51.6564 27.0441L48.3352 25.9078C48.2163 25.8671 48.2082 25.7293 48.3212 25.6687L52.6308 23.3563Z" stroke="#FBFBF4" stroke-width="1.7"/>
<path id="Polygon 18_2" d="M58.3242 23.4819C58.289 23.4565 58.2617 23.4488 58.2406 23.4462C58.2155 23.4431 58.1848 23.4457 58.1543 23.4574C58.1238 23.4692 58.1019 23.4868 58.0891 23.5046C58.0782 23.5196 58.0682 23.5416 58.0703 23.5799L58.2474 26.8791C58.2524 26.9714 58.3563 27.0425 58.4565 27.022L61.8692 26.3233C61.9924 26.2981 62.0184 26.1581 61.914 26.0825L58.3242 23.4819Z" stroke="#FBFBF4" stroke-width="1.7"/>
<path id="Polygon 19_2" d="M58.598 17.2043C58.4839 17.2638 58.3466 17.1956 58.3592 17.0857L58.5837 15.127C58.5935 15.0422 58.6906 14.9797 58.7873 14.9959L61.4577 15.444C61.5059 15.4521 61.5277 15.4673 61.5407 15.4799C61.557 15.4957 61.5716 15.5206 61.5761 15.5527C61.5806 15.5847 61.5736 15.6131 61.5624 15.6333C61.5534 15.6494 61.5368 15.6708 61.4929 15.6937L58.598 17.2043Z" stroke="#FBFBF4" stroke-width="1.7"/>
<g id="Ellipse 129_2">
<mask id="path-36-inside-1_4400_3979" fill="white">
<ellipse cx="55.7496" cy="20.2501" rx="1.35" ry="3.15" transform="rotate(-90 55.7496 20.2501)"/>
</mask>
<path d="M55.7496 20.6001C56.4457 20.6001 56.9953 20.7243 57.3073 20.858C57.4664 20.9262 57.4865 20.9637 57.4421 20.9188C57.3905 20.8665 57.1996 20.6386 57.1996 20.2501H60.5996C60.5996 19.4888 60.2324 18.9058 59.862 18.5305C59.4989 18.1625 59.0577 17.9091 58.6467 17.733C57.8186 17.3781 56.7932 17.2001 55.7496 17.2001V20.6001ZM57.1996 20.2501C57.1996 19.8616 57.3905 19.6337 57.4421 19.5814C57.4865 19.5365 57.4664 19.574 57.3073 19.6421C56.9953 19.7759 56.4457 19.9001 55.7496 19.9001V23.3001C56.7932 23.3001 57.8186 23.1221 58.6467 22.7672C59.0577 22.5911 59.4989 22.3377 59.862 21.9697C60.2324 21.5944 60.5996 21.0114 60.5996 20.2501H57.1996ZM55.7496 19.9001C55.0535 19.9001 54.5039 19.7759 54.1919 19.6421C54.0329 19.574 54.0128 19.5365 54.0571 19.5814C54.1087 19.6337 54.2996 19.8616 54.2996 20.2501H50.8996C50.8996 21.0114 51.2668 21.5944 51.6372 21.9697C52.0003 22.3377 52.4416 22.5911 52.8526 22.7672C53.6806 23.1221 54.706 23.3001 55.7496 23.3001V19.9001ZM54.2996 20.2501C54.2996 20.6386 54.1087 20.8665 54.0571 20.9188C54.0128 20.9637 54.0329 20.9262 54.1919 20.858C54.5039 20.7243 55.0535 20.6001 55.7496 20.6001V17.2001C54.706 17.2001 53.6806 17.3781 52.8526 17.733C52.4416 17.9091 52.0003 18.1625 51.6372 18.5305C51.2668 18.9058 50.8996 19.4888 50.8996 20.2501H54.2996Z" fill="#FBFBF4" mask="url(#path-36-inside-1_4400_3979)"/>
</g>
</g>
</g>
</svg>
