<svg width="257" height="343" viewBox="0 0 257 343" fill="none" xmlns="http://www.w3.org/2000/svg">
<g filter="url(#filter0_d_2342_7402)">
<path d="M203.292 209.83C203.301 209.823 203.308 209.817 203.314 209.812L203.347 209.827C203.387 209.845 203.447 209.872 203.525 209.909C203.681 209.982 203.911 210.092 204.204 210.239C204.789 210.532 205.627 210.971 206.636 211.555C208.655 212.723 211.359 214.471 214.103 216.791C219.591 221.43 225.229 228.351 225.854 237.486C226.965 253.73 218.415 270.404 203.284 278.195C194.642 282.635 188.463 281.155 185.125 277.421C181.782 273.681 181.273 267.667 184.003 263.007C184.684 261.843 185.756 260.599 187.072 259.276C188.388 257.954 189.946 256.554 191.598 255.079C191.706 254.983 191.814 254.887 191.922 254.79C195.14 251.918 198.673 248.765 201.44 245.347C204.3 241.813 206.346 237.99 206.376 233.894C206.405 229.8 204.42 225.446 199.247 220.846C199.25 216.937 200.273 214.174 201.295 212.388C201.806 211.493 202.318 210.844 202.701 210.418C202.893 210.206 203.052 210.049 203.163 209.945C203.219 209.894 203.263 209.855 203.292 209.83Z" fill="#F79374" stroke="#F79374" stroke-width="0.0990012"/>
<path d="M60.1483 197.889C60.1548 197.889 60.1619 197.89 60.1696 197.891C60.2177 197.895 60.2906 197.901 60.3891 197.913C60.5861 197.935 60.8858 197.976 61.2952 198.047C62.1139 198.189 63.3714 198.454 65.1245 198.946C68.6257 199.927 74.1032 201.81 82.0091 205.419C80.6779 214.752 78.5046 221.464 76.3014 225.856C75.1983 228.056 74.0884 229.672 73.0741 230.745C72.0578 231.82 71.1447 232.342 70.4356 232.37C68.9781 232.427 65.4052 232.519 61.5313 232.468C57.6563 232.417 53.4844 232.221 50.8267 231.703C48.1856 231.187 46.8506 229.498 46.246 227.522C45.6404 225.543 45.7687 223.277 46.0587 221.624C46.1293 221.222 46.3515 220.821 46.6937 220.425C47.0358 220.029 47.4956 219.638 48.0371 219.256C49.12 218.492 50.5232 217.764 51.9477 217.086C52.6244 216.764 53.3078 216.452 53.963 216.153C54.6833 215.825 55.3696 215.511 55.9761 215.217C56.5566 214.935 57.0677 214.668 57.4706 214.419C57.872 214.171 58.1721 213.936 58.3245 213.716C58.4767 213.497 58.6163 213.082 58.7458 212.534C58.8759 211.983 58.9974 211.29 59.1101 210.506C59.3355 208.94 59.5262 207.01 59.6803 205.133C59.8345 203.257 59.9521 201.433 60.0311 200.078C60.0706 199.401 60.1005 198.841 60.1205 198.45C60.1305 198.255 60.1381 198.102 60.1431 197.998L60.1483 197.889Z" fill="#F79374" stroke="#F79374" stroke-width="0.0990012"/>
<path d="M87.7458 20.578L87.702 20.601L87.7165 20.6287L87.7477 20.6275L87.7458 20.578ZM87.7458 20.578C87.7477 20.6275 87.7478 20.6275 87.7479 20.6275L87.7484 20.6274L87.7505 20.6274L87.7588 20.627L87.792 20.6258L87.9233 20.6212C88.0392 20.6172 88.2112 20.6116 88.4356 20.6052C88.8843 20.5923 89.5426 20.5758 90.3804 20.5617C92.056 20.5334 94.4498 20.5146 97.3222 20.5519C103.067 20.6267 110.727 20.9264 118.385 21.8265L118.427 21.8315L118.438 21.7902C119.543 17.6862 121.894 12.2578 124.697 7.85207C126.098 5.6492 127.611 3.70398 129.135 2.308C130.66 0.910917 132.191 0.0700512 133.628 0.061805C139.417 0.0285905 144.706 4.79111 146.418 14.4363C147.303 19.4267 149.742 31.1628 152.626 45.0369C155.321 58.0043 158.405 72.8395 160.97 85.7804C152.882 91.2494 139.396 97.0134 123.345 100.879C107.277 104.748 88.6432 106.715 70.2894 104.579C61.1161 103.512 54.3203 100.707 49.3763 96.8556C44.4324 93.0045 41.3376 88.105 39.5697 82.8436C36.0332 72.3188 37.8069 60.3467 40.7143 52.4358C43.6213 44.5259 48.924 36.9984 53.5019 31.4469C55.7906 28.6715 57.8975 26.3908 59.4322 24.8039C60.1995 24.0105 60.8238 23.3906 61.2561 22.9691C61.4723 22.7583 61.6405 22.5972 61.7546 22.4888C61.8117 22.4346 61.8552 22.3935 61.8845 22.3661L61.9176 22.3351L61.9259 22.3273L61.928 22.3254L61.9285 22.3249C61.9286 22.3248 61.9287 22.3248 61.895 22.2885M87.7458 20.578C87.702 20.601 87.7019 20.601 87.7019 20.6009L87.7016 20.6004L87.7005 20.5983L87.6962 20.5901L87.679 20.5576L87.6113 20.4303C87.5517 20.3185 87.4635 20.1541 87.3493 19.9436C87.1209 19.5226 86.7883 18.9172 86.3718 18.1798C85.5389 16.7048 84.3704 14.7018 83.0282 12.5892C81.6859 10.4766 80.1704 8.25516 78.6433 6.34314C77.1155 4.43012 75.5793 2.83075 74.196 1.95841C71.4211 0.208515 69.1235 -0.234159 67.3542 0.210647C65.5864 0.655079 64.3342 1.98855 63.6552 3.81795C63.3159 4.73207 63.0385 6.34219 62.8137 8.24837C62.5892 10.1529 62.4177 12.3478 62.2889 14.4282C62.1601 16.5086 62.074 18.474 62.0201 19.9193C61.9931 20.642 61.9742 21.2346 61.9621 21.6465C61.956 21.8525 61.9516 22.0133 61.9487 22.1226L61.9455 22.2471L61.9447 22.2789L61.9445 22.287L61.9445 22.289L61.9445 22.2895C61.9445 22.2896 61.9445 22.2896 61.895 22.2885M61.895 22.2885L61.9287 22.3248L61.944 22.3105L61.9445 22.2896L61.895 22.2885Z" fill="#FFC397" stroke="#F79374" stroke-width="0.0990012"/>
<path opacity="0.3" d="M131.959 6.38577L131.959 6.38577C132.919 6.40445 133.761 7.16554 134.491 8.41951C135.219 9.6707 135.827 11.3974 136.322 13.3141C137.313 17.1469 137.852 21.727 138.018 24.7499C138.029 24.9573 137.992 25.1644 137.91 25.3552C137.828 25.546 137.703 25.7154 137.545 25.8501C137.387 25.9848 137.2 26.0812 136.999 26.1318C136.797 26.1824 136.587 26.1859 136.384 26.142L136.384 26.142C133.692 25.5677 130.221 24.6701 127.421 23.916C126.022 23.539 124.79 23.1978 123.909 22.951C123.468 22.8275 123.115 22.7277 122.872 22.6586L122.593 22.5792L122.545 22.5655C122.555 22.5346 122.569 22.4893 122.588 22.4305C122.626 22.311 122.682 22.1355 122.756 21.9122C122.903 21.4656 123.118 20.8277 123.39 20.0624C123.934 18.5317 124.704 16.492 125.613 14.4553C126.521 12.4181 127.567 10.3861 128.659 8.86963C129.205 8.11134 129.762 7.48389 130.317 7.04912C130.873 6.61416 131.424 6.37523 131.959 6.38577Z" fill="white" stroke="#F79374" stroke-width="0.0990012"/>
<path opacity="0.3" d="M77.1592 18.9722L77.1137 18.9917C77.1954 19.1827 77.232 19.3899 77.2208 19.5974C77.2095 19.8048 77.1507 20.0069 77.0488 20.188C76.9469 20.369 76.8047 20.5242 76.6332 20.6414C76.4617 20.7587 76.2655 20.8349 76.0598 20.8642L76.0597 20.8642C73.3384 21.2548 69.7741 21.6122 66.8894 21.8719C65.4473 22.0018 64.1752 22.1072 63.2638 22.1802C62.808 22.2167 62.4424 22.245 62.1908 22.2643L61.9017 22.2862L61.8534 22.2898C61.8528 22.2572 61.8519 22.2097 61.8508 22.1482C61.8487 22.0218 61.846 21.8361 61.8439 21.5992C61.8398 21.1255 61.8379 20.4473 61.8472 19.6294C61.8656 17.9935 61.9285 15.7992 62.1058 13.5649C62.2832 11.3301 62.575 9.0575 63.0509 7.26405C63.2889 6.36721 63.5722 5.59251 63.909 5.00289C64.2462 4.41242 64.6332 4.01399 65.0754 3.85854L65.0754 3.85852C65.9805 3.53953 67.0325 3.95934 68.1504 4.88179C69.2658 5.80219 70.4328 7.21185 71.5607 8.83948C73.8163 12.0941 75.9086 16.2093 77.1138 18.9919L77.1592 18.9722ZM77.1592 18.9722C77.2439 19.1702 77.2819 19.385 77.2702 19.6001C77.2585 19.8151 77.1975 20.0246 77.0919 20.2122C76.9863 20.3999 76.8389 20.5607 76.6611 20.6823C76.4833 20.8038 76.28 20.8828 76.0668 20.9132L65.059 3.81184C68.7839 2.49892 74.7472 13.4032 77.1592 18.9722Z" fill="white" stroke="#F79374" stroke-width="0.0990012"/>
<path d="M99.223 222.634L99.182 222.545C94.1144 224.168 85.1063 224.238 76.59 220.766C68.0765 217.296 60.057 210.289 56.9578 197.758C55.7188 192.737 55.724 186.372 56.4828 179.497C57.2415 172.624 58.7533 165.244 60.5248 158.194C63.8779 144.852 68.1605 132.697 70.0261 127.402C70.1319 127.101 70.2299 126.823 70.3195 126.568L70.3195 126.568C73.7318 116.828 75.2832 111.421 73.411 102.617C79.6801 100.857 101.539 96.6738 121.857 92.9266C132.039 91.0487 141.833 89.2804 149.082 87.9816C152.706 87.3322 155.694 86.8001 157.776 86.4305C158.816 86.2456 159.631 86.1014 160.185 86.0033L160.817 85.8916L160.978 85.8631L160.988 85.8615C162.31 91.143 166.839 100.753 172.221 110.962C177.62 121.203 183.879 132.054 188.63 139.761C198.129 155.167 206.516 174.49 205.995 198.908C205.735 211.118 203.302 218.882 199.346 224.056C195.391 229.229 189.907 231.82 183.527 233.673C177.147 235.525 171.991 236.193 167.502 236.52C165.808 236.644 164.208 236.719 162.672 236.791C160.14 236.91 157.783 237.02 155.472 237.326C153.697 237.561 151.903 237.921 150.134 238.277L149.887 238.327C148.038 238.698 146.218 239.057 144.473 239.256C140.983 239.654 137.805 239.407 135.309 237.337C135.131 237.189 134.956 237.044 134.784 236.901C132.527 235.025 130.739 233.539 128.888 232.82C126.889 232.042 124.821 232.16 122.015 233.619C120.624 234.343 118.694 234.838 116.52 235.157C114.346 235.475 111.932 235.618 109.576 235.64C104.863 235.683 100.389 235.241 98.5414 234.758C96.7152 234.281 95.3395 232.208 95.1954 229.767C95.0515 227.331 96.1369 224.537 99.223 222.634Z" fill="#FFC397" stroke="#F79374" stroke-width="0.0990012"/>
<mask id="mask0_2342_7402" style="mask-type:luminance" maskUnits="userSpaceOnUse" x="55" y="85" width="152" height="155">
<path d="M99.223 222.634L99.182 222.545C94.1144 224.168 85.1063 224.238 76.59 220.766C68.0765 217.296 60.057 210.289 56.9578 197.758C55.7188 192.737 55.724 186.372 56.4828 179.497C57.2415 172.624 58.7533 165.244 60.5248 158.194C63.8779 144.852 68.1605 132.697 70.0261 127.402C70.1319 127.101 70.2299 126.823 70.3195 126.568L70.3195 126.568C73.7318 116.828 75.2832 111.421 73.411 102.617C79.6801 100.857 101.539 96.6738 121.857 92.9266C132.039 91.0487 141.833 89.2804 149.082 87.9816C152.706 87.3322 155.694 86.8001 157.776 86.4305C158.816 86.2456 159.631 86.1014 160.185 86.0033L160.817 85.8916L160.978 85.8631L160.988 85.8615C162.31 91.143 166.839 100.753 172.221 110.962C177.62 121.203 183.879 132.054 188.63 139.761C198.129 155.167 206.516 174.49 205.995 198.908C205.735 211.118 203.302 218.882 199.346 224.056C195.391 229.229 189.907 231.82 183.527 233.673C177.147 235.525 171.991 236.193 167.502 236.52C165.808 236.644 164.208 236.719 162.672 236.791C160.14 236.91 157.783 237.02 155.472 237.326C153.697 237.561 151.903 237.921 150.134 238.277L149.887 238.327C148.038 238.698 146.218 239.057 144.473 239.256C140.983 239.654 137.805 239.407 135.309 237.337C135.131 237.189 134.956 237.044 134.784 236.901C132.527 235.025 130.739 233.539 128.888 232.82C126.889 232.042 124.821 232.16 122.015 233.619C120.624 234.343 118.694 234.838 116.52 235.157C114.346 235.475 111.932 235.618 109.576 235.64C104.863 235.683 100.389 235.241 98.5414 234.758C96.7152 234.281 95.3395 232.208 95.1954 229.767C95.0515 227.331 96.1369 224.537 99.223 222.634Z" fill="white" stroke="white" stroke-width="0.0990012"/>
</mask>
<g mask="url(#mask0_2342_7402)">
<path d="M161.073 139.213L161.073 139.213C159.682 131.79 162.327 124.434 165.326 118.93C166.824 116.178 168.41 113.892 169.621 112.292C170.227 111.493 170.739 110.865 171.099 110.438C171.279 110.224 171.422 110.06 171.519 109.95C171.565 109.898 171.601 109.858 171.626 109.83L171.68 109.908C171.738 109.994 171.825 110.122 171.939 110.29C172.167 110.626 172.5 111.122 172.926 111.763C173.777 113.044 174.996 114.903 176.464 117.214C179.401 121.835 183.339 128.261 187.34 135.484C191.342 142.707 195.408 150.725 198.602 158.529C201.791 166.32 204.109 173.894 204.63 180.25C200.541 182.149 196.87 182.652 193.641 182.204C190.404 181.754 187.609 180.346 185.282 178.421C180.627 174.57 177.849 168.651 177.166 164.21C176.822 161.974 175.761 159.94 174.337 157.986C172.992 156.141 171.321 154.365 169.619 152.557C169.52 152.451 169.42 152.345 169.32 152.239C165.709 148.398 162.039 144.385 161.073 139.213Z" fill="#F79374" stroke="#F79374" stroke-width="0.0990012"/>
<path opacity="0.19" d="M194.143 148.178L231.664 201.391L231.657 201.401C231.638 201.426 231.61 201.464 231.572 201.513C231.497 201.613 231.385 201.76 231.238 201.952C230.943 202.335 230.507 202.894 229.942 203.6C228.812 205.012 227.165 207.009 225.099 209.352C220.966 214.037 215.156 220.101 208.445 225.618C201.733 231.136 194.124 236.104 186.393 238.602C178.69 241.09 170.869 241.124 163.694 236.807C184.377 225.818 191.982 203.622 194.416 184.174C195.635 174.437 195.559 165.386 195.178 158.77C194.987 155.461 194.72 152.761 194.501 150.888C194.392 149.952 194.294 149.222 194.224 148.726C194.19 148.489 194.163 148.305 194.143 148.178Z" fill="#FFC397" stroke="#F79374" stroke-width="0.0990012"/>
<path d="M135.075 213.521C136.797 217.39 140.071 221.555 146.277 222.747C146.079 223.114 145.747 223.412 145.311 223.67C144.851 223.941 144.278 224.166 143.631 224.381C143.207 224.522 142.751 224.659 142.274 224.802C141.298 225.095 140.237 225.413 139.194 225.844C137.638 226.488 136.112 227.387 134.943 228.84C133.785 230.28 132.981 232.259 132.84 235.062C132.6 234.912 132.352 234.739 132.092 234.555C132.045 234.521 131.997 234.487 131.949 234.453C131.706 234.28 131.453 234.1 131.186 233.922C130.546 233.494 129.825 233.074 128.977 232.785C127.307 232.216 125.153 232.162 122.166 233.551C126.26 226.633 129.033 219.782 130.785 214.65C131.667 212.067 132.29 209.919 132.693 208.417C132.894 207.666 133.04 207.076 133.136 206.674C133.163 206.562 133.185 206.465 133.204 206.383C133.212 206.465 133.221 206.562 133.233 206.672C133.276 207.069 133.351 207.639 133.48 208.33C133.737 209.712 134.211 211.58 135.075 213.521Z" fill="#F79374" stroke="#F79374" stroke-width="0.0990012"/>
<path opacity="0.3" d="M93.2553 225.615L93.2551 225.614L93.2487 225.617C88.3303 227.526 81.9887 227.144 75.2361 225.491C68.4848 223.837 61.3301 220.915 54.7901 217.752C48.2503 214.59 42.3267 211.188 38.038 208.576C35.8936 207.27 34.1581 206.162 32.9587 205.381C32.359 204.99 31.8934 204.681 31.5777 204.469C31.4198 204.364 31.2994 204.282 31.2186 204.228L31.1304 204.168L69.5278 118.001L69.5316 117.997C69.5397 117.991 69.5521 117.98 69.5688 117.967C69.6024 117.94 69.6535 117.901 69.7232 117.851C69.8626 117.752 70.0761 117.612 70.3714 117.45C70.962 117.124 71.8801 116.708 73.1868 116.347C75.8001 115.625 79.9691 115.124 86.1838 116.015C89.2747 116.458 92.5858 119.017 95.7849 122.956C98.9822 126.892 102.06 132.198 104.688 138.118C109.943 149.96 113.388 164.247 112.377 174.929C112.03 178.589 111.821 182.346 111.612 186.081C111.516 187.805 111.42 189.524 111.311 191.226C110.966 196.621 110.49 201.855 109.459 206.565C108.428 211.276 106.843 215.459 104.284 218.753C101.726 222.047 98.1913 224.456 93.2553 225.615Z" fill="white" stroke="#F79374" stroke-width="0.0990012"/>
</g>
<path d="M112.033 151.716C112.035 151.251 112.216 150.904 112.485 150.674C112.757 150.44 113.121 150.323 113.486 150.323C113.852 150.323 114.216 150.441 114.488 150.674C114.758 150.907 114.94 151.256 114.94 151.725V151.725C114.96 165.053 113.657 178.327 112.357 191.575C112.319 191.956 112.282 192.337 112.245 192.718L112.033 151.716ZM112.033 151.716C112.033 151.719 112.033 151.722 112.033 151.725H111.983C112.002 164.115 110.877 176.458 109.671 188.784C109.617 189.339 109.564 189.893 109.51 190.447C108.97 196.029 108.43 201.622 107.433 207.159L112.033 151.716Z" fill="#F79374" stroke="#F79374" stroke-width="0.0990012"/>
<path d="M131.883 204.64L131.883 204.64L137.548 175.786L137.597 175.791C137.597 175.791 137.597 175.791 137.597 175.791C137.686 174.867 138.457 174.399 139.19 174.397C139.557 174.396 139.908 174.512 140.156 174.742C140.402 174.97 140.551 175.314 140.505 175.781L140.505 175.781C139.523 186.037 137.353 196.12 134.514 206.016C133.094 210.963 131.531 215.863 129.861 220.733L129.861 220.733C129.582 221.552 129.316 222.396 129.047 223.251C128.602 224.667 128.148 226.112 127.61 227.516C126.75 229.766 125.679 231.904 124.102 233.631L124.101 233.631C123.784 233.979 123.421 234.108 123.075 234.088C122.727 234.069 122.391 233.898 122.132 233.64C121.615 233.121 121.421 232.262 122.05 231.573L122.05 231.573C123.602 229.872 124.36 227.715 125.106 225.592C125.137 225.502 125.169 225.412 125.2 225.322C126.004 223.044 126.791 220.761 127.559 218.473C129.099 213.896 130.546 209.288 131.883 204.64Z" fill="#F79374" stroke="#F79374" stroke-width="0.0990012"/>
<path d="M152.846 173.696C148.18 175.938 143.764 179.83 140.327 183.674C136.893 187.514 134.889 192.243 133.761 197.219C132.631 202.201 131.573 207.999 133.515 212.891C135.153 217.017 138.475 220.333 142.375 222.39L142.352 222.434L142.375 222.39C147.732 225.217 153.919 225.745 159.886 225.655H159.887C160.355 225.648 160.704 225.462 160.937 225.187C161.17 224.912 161.288 224.547 161.288 224.181C161.289 223.815 161.172 223.453 160.939 223.185C160.707 222.918 160.358 222.741 159.888 222.747C159.888 222.747 159.888 222.747 159.888 222.747L152.846 173.696ZM152.846 173.696L152.846 173.696C153.686 173.293 154.476 173.715 154.846 174.347C155.031 174.663 155.108 175.027 155.036 175.36C154.964 175.692 154.743 176 154.32 176.203L154.32 176.203C151.477 177.576 149.071 179.524 146.715 181.589C144.437 183.583 142.151 185.642 140.476 188.197C137.236 193.125 135.898 199.372 135.457 205.165C135.015 210.973 137.449 215.864 142.362 219.018L142.388 218.976L152.846 173.696Z" fill="#F79374" stroke="#F79374" stroke-width="0.0990012"/>
<path d="M136.19 226.693L136.19 226.693C138.757 225.503 141.445 224.517 144.123 223.535C145.379 223.074 146.633 222.614 147.871 222.134H147.875L147.884 222.131C148.321 221.961 148.691 222.011 148.975 222.187C149.261 222.364 149.466 222.672 149.563 223.025C149.756 223.734 149.51 224.604 148.646 224.938L148.646 224.938L139.523 228.473L139.523 228.473C138.156 229.002 136.881 229.573 135.987 230.437C135.088 231.305 134.576 232.465 134.727 234.163C134.769 234.631 134.617 234.975 134.369 235.204C134.119 235.433 133.767 235.549 133.401 235.548C132.668 235.546 131.901 235.078 131.819 234.154C131.684 232.611 132.032 231.064 132.815 229.727C133.599 228.391 134.778 227.33 136.19 226.693Z" fill="#F79374" stroke="#F79374" stroke-width="0.0990012"/>
<path d="M102.451 229.324L102.451 229.324C101.841 230.722 101.609 232.256 101.779 233.772C101.822 234.24 101.672 234.586 101.424 234.814C101.176 235.044 100.824 235.159 100.458 235.158C99.725 235.156 98.9565 234.686 98.8708 233.763C98.7028 231.742 99.0653 229.713 99.922 227.877H99.9325L99.9456 227.847C100.105 227.496 100.443 227.273 100.825 227.185C101.208 227.098 101.625 227.147 101.933 227.332L101.933 227.332C102.654 227.763 102.778 228.595 102.451 229.324Z" fill="#F79374" stroke="#F79374" stroke-width="0.0990012"/>
<path d="M109.865 228.008L109.909 228.031C109.909 228.031 109.909 228.031 109.909 228.031L109.865 228.008ZM111.776 234.32C111.776 234.32 111.776 234.32 111.776 234.32L111.826 234.319L111.776 234.32ZM112.417 229.505C112.417 229.505 112.417 229.505 112.417 229.505L112.461 229.528L112.417 229.505Z" fill="#F79374" stroke="#F79374" stroke-width="0.0990012"/>
<path d="M102.241 104.569C118.943 102.596 140.711 97.6734 160.991 85.8777C162.087 89.0349 163.376 92.2856 164.394 94.7518C164.906 95.9923 165.35 97.0344 165.665 97.7664C165.823 98.1325 165.949 98.4209 166.035 98.618C166.078 98.7165 166.111 98.7921 166.134 98.8431L166.15 98.8805L166.138 98.8876C166.121 98.8983 166.098 98.9117 166.071 98.9279C165.993 98.974 165.876 99.0423 165.722 99.1311C165.414 99.3087 164.955 99.5685 164.353 99.8969C163.147 100.554 161.366 101.485 159.064 102.581C154.46 104.775 147.775 107.632 139.447 110.285C122.796 115.589 99.5813 120.076 73.32 116.814C72.8636 116.048 72.6683 114.969 72.6356 113.773C72.6027 112.567 72.7351 111.25 72.9267 110.028C73.1183 108.806 73.3689 107.681 73.5716 106.862C73.6729 106.452 73.7622 106.119 73.8262 105.888C73.8582 105.773 73.8838 105.683 73.9015 105.622L73.9174 105.568L74.0124 105.575C74.1019 105.582 74.2353 105.591 74.4109 105.603C74.7622 105.626 75.2825 105.656 75.9591 105.687C77.3123 105.748 79.2904 105.808 81.7909 105.807C86.7917 105.805 93.882 105.556 102.241 104.569Z" fill="#4F8D7F" stroke="#F79374" stroke-width="0.0990012"/>
<path d="M54.6864 54.2836C54.2971 54.3882 54.0212 54.5031 53.8828 54.6243L54.6864 54.2836ZM54.6864 54.2836C55.0731 54.1798 55.5638 54.0881 56.1243 54.009M54.6864 54.2836L56.1243 54.009M56.1243 54.009C57.2451 53.8507 58.6408 53.7434 60.0334 53.689M56.1243 54.009L60.0334 53.689M60.0334 53.689C61.4258 53.6345 62.8139 53.633 63.9193 53.6861M60.0334 53.689L63.9193 53.6861M63.9193 53.6861C64.472 53.7126 64.9533 53.7528 65.3287 53.8067M63.9193 53.6861L65.3287 53.8067M65.3287 53.8067C65.5164 53.8337 65.6769 53.8639 65.8063 53.8974M65.3287 53.8067L65.8063 53.8974M65.8063 53.8974C65.9365 53.9311 66.0317 53.9672 66.0913 54.0043M65.8063 53.8974L66.0913 54.0043M66.0913 54.0043C66.2058 54.0757 66.2991 54.2418 66.3556 54.4955M66.0913 54.0043L66.3556 54.4955M66.3556 54.4955C66.4115 54.7465 66.429 55.0728 66.4016 55.4489M66.3556 54.4955L66.4016 55.4489M66.4016 55.4489C66.3469 56.2008 66.1133 57.1442 65.6596 58.0676M66.4016 55.4489L65.6596 58.0676M65.6596 58.0676C64.7527 59.9134 62.9701 61.6734 59.9838 61.6734M65.6596 58.0676L59.9838 61.6734M59.9838 61.6734C56.9949 61.6734 55.2481 60.1026 54.3599 58.4324M59.9838 61.6734L54.3599 58.4324M54.3599 58.4324C53.9154 57.5964 53.6864 56.7359 53.6251 56.0359M54.3599 58.4324L53.6251 56.0359M53.6251 56.0359C53.5945 55.6859 53.606 55.3774 53.6526 55.1331M53.6251 56.0359L53.6526 55.1331M53.6526 55.1331C53.6996 54.8869 53.7809 54.7136 53.8828 54.6243L53.6526 55.1331Z" fill="#1B453C" stroke="#F79374" stroke-width="0.0990012"/>
<path d="M97.0228 54.6242C97.1616 54.503 97.4379 54.3882 97.8274 54.2836C98.2145 54.1798 98.7055 54.0881 99.2662 54.009C100.388 53.8507 101.784 53.7434 103.176 53.689C104.569 53.6345 105.957 53.633 107.062 53.6861C107.615 53.7126 108.097 53.7528 108.472 53.8067C108.66 53.8337 108.82 53.8639 108.95 53.8974C109.08 53.9311 109.175 53.9672 109.235 54.0043C109.349 54.0757 109.442 54.2418 109.499 54.4955C109.555 54.7465 109.572 55.0728 109.545 55.4489C109.49 56.2008 109.257 57.1442 108.803 58.0676C107.896 59.9134 106.113 61.6734 103.127 61.6734C100.138 61.6734 98.3913 60.1026 97.5028 58.4324C97.0581 57.5964 96.8287 56.7359 96.767 56.0359C96.7362 55.6858 96.7474 55.3774 96.7937 55.1331C96.8404 54.8869 96.9213 54.7135 97.0228 54.6242Z" fill="#1B453C" stroke="#F79374" stroke-width="0.0990012"/>
<path d="M82.5823 71.0367C82.5823 71.0367 79.8853 75.4937 78.2853 75.3912C76.6853 75.2887 73.0312 70.9978 73.0312 70.9978" stroke="#F79374" stroke-width="0.891011" stroke-miterlimit="10"/>
<path d="M70.0001 82.3635C70.0001 82.3635 75.1697 78.2357 78.0712 78.5286C80.9727 78.8215 87.3547 83.5399 87.3547 83.5399" stroke="#F79374" stroke-width="0.891011" stroke-miterlimit="10"/>
<path d="M44.433 70.3397L44.433 70.3397C40.4446 70.0523 36.4434 69.9853 32.4476 70.1391C31.9772 70.157 31.6291 69.9883 31.398 69.7273C31.1659 69.4652 31.0489 69.1063 31.0495 68.7405C31.0507 68.0083 31.5206 67.2669 32.4514 67.2314L32.4514 67.2314C36.4435 67.0777 40.4411 67.1446 44.4259 67.4317C45.3559 67.4996 45.8248 68.2585 45.8256 68.991C45.826 69.3569 45.7091 69.7113 45.4781 69.9648C45.2482 70.2172 44.9017 70.3737 44.433 70.3397Z" fill="#F79374" stroke="#F79374" stroke-width="0.0990012"/>
<path d="M33.7686 84.9868L33.7686 84.9868C32.922 85.3665 32.1276 84.9315 31.7566 84.2987C31.5713 83.9827 31.4947 83.6217 31.5685 83.2943C31.6419 82.9687 31.8652 82.6702 32.2925 82.478C35.8499 80.8781 39.4891 79.467 43.1951 78.2505C43.6437 78.1037 44.0233 78.1705 44.3145 78.3584C44.607 78.5472 44.8144 78.8609 44.9105 79.2137C45.1029 79.9199 44.847 80.764 43.9628 81.0528C40.4976 82.1831 37.0948 83.4963 33.7686 84.9868Z" fill="#F79374" stroke="#F79374" stroke-width="0.0990012"/>
<path d="M126.173 65.5647C122.594 67.0093 119.137 68.7376 115.833 70.7331C115.429 70.9755 115.037 70.9987 114.701 70.8853C114.363 70.7714 114.078 70.5185 113.893 70.203C113.708 69.8875 113.625 69.5125 113.689 69.1573C113.752 68.8034 113.962 68.4655 114.367 68.2221C117.897 66.1089 121.59 64.2813 125.411 62.7568C125.849 62.5825 126.218 62.6295 126.501 62.8031C126.786 62.9777 126.989 63.284 127.085 63.6375C127.276 64.3454 127.031 65.2205 126.173 65.5647L126.173 65.5647Z" fill="#F79374" stroke="#F79374" stroke-width="0.0990012"/>
<path d="M117.02 79.1325L117.02 79.1324H117.017H117.012C116.082 79.0752 115.613 78.3227 115.612 77.5908C115.612 77.2249 115.729 76.869 115.96 76.6124C116.191 76.357 116.538 76.1962 117.008 76.2246L117.008 76.2246C120.701 76.445 124.354 76.8391 128.028 77.3834C128.492 77.4523 128.784 77.6782 128.939 77.9699C129.094 78.2635 129.112 78.6299 129.014 78.9828C128.817 79.6896 128.159 80.321 127.244 80.1853C123.852 79.6806 120.443 79.3363 117.02 79.1325Z" fill="#F79374" stroke="#F79374" stroke-width="0.0990012"/>
<path d="M78.6234 21.2562L78.6234 21.2562C78.1563 21.3073 77.8129 21.1631 77.5859 20.9197C77.3575 20.675 77.2424 20.3251 77.2438 19.9588C77.2467 19.2253 77.7148 18.4481 78.6341 18.3479C81.397 18.0477 84.1786 17.9573 86.9552 18.0776L86.9573 18.0281L86.9552 18.0776C87.8877 18.1179 88.3569 18.862 88.3573 19.5941C88.3575 19.9599 88.24 20.3182 88.0079 20.5791C87.7768 20.8388 87.4289 21.0056 86.9594 20.9853C84.1779 20.8649 81.3913 20.9554 78.6234 21.2562Z" fill="#F79374" stroke="#F79374" stroke-width="0.0990012"/>
<path d="M119.673 22.4496L119.673 22.4496C119.204 22.4423 118.855 22.2549 118.622 21.9804C118.389 21.7049 118.271 21.3389 118.271 20.9732C118.271 20.6074 118.389 20.2456 118.622 19.9778C118.854 19.7111 119.202 19.5346 119.672 19.5419L119.672 19.5419C121.937 19.5644 124.179 20.0084 126.282 20.8513C127.14 21.1971 127.384 22.073 127.191 22.7809C127.095 23.1344 126.892 23.4405 126.607 23.6148C126.324 23.7879 125.956 23.8343 125.521 23.6593C123.664 22.8946 121.681 22.4843 119.673 22.4496Z" fill="#F79374" stroke="#F79374" stroke-width="0.0990012"/>
<path d="M84.7296 124.519C84.7296 129.296 80.5908 133.175 75.4784 133.175C70.366 133.175 66.2272 129.296 66.2272 124.519C66.2272 119.741 70.366 115.862 75.4784 115.862C80.5908 115.862 84.7296 119.741 84.7296 124.519Z" fill="#FFD3B3" stroke="#F79374" stroke-width="0.0990012"/>
<mask id="mask1_2342_7402" style="mask-type:luminance" maskUnits="userSpaceOnUse" x="66" y="115" width="19" height="19">
<path d="M84.7296 124.519C84.7296 129.296 80.5908 133.175 75.4784 133.175C70.366 133.175 66.2272 129.296 66.2272 124.519C66.2272 119.741 70.366 115.862 75.4784 115.862C80.5908 115.862 84.7296 119.741 84.7296 124.519Z" fill="white" stroke="white" stroke-width="0.0990012"/>
</mask>
<g mask="url(#mask1_2342_7402)">
<path d="M74.7799 121.443C75.9333 121.599 76.9399 122 77.6351 122.52C78.3317 123.042 78.7065 123.675 78.6227 124.295C78.5389 124.916 78.0097 125.427 77.1997 125.745C76.3914 126.062 75.3144 126.182 74.161 126.026C73.0076 125.87 72.001 125.469 71.3059 124.949C70.6092 124.427 70.2344 123.794 70.3182 123.174C70.402 122.553 70.9313 122.042 71.7413 121.724C72.5495 121.407 73.6265 121.287 74.7799 121.443Z" fill="#1B453C" stroke="#F79374" stroke-width="0.0990012"/>
<path d="M74.4763 124.039C73.2627 127.22 72.8899 130.661 73.3939 134.028" stroke="#F79374" stroke-width="0.693009" stroke-miterlimit="10"/>
</g>
</g>
<defs>
<filter id="filter0_d_2342_7402" x="0" y="0" width="257" height="342.98" filterUnits="userSpaceOnUse" color-interpolation-filters="sRGB">
<feFlood flood-opacity="0" result="BackgroundImageFix"/>
<feColorMatrix in="SourceAlpha" type="matrix" values="0 0 0 0 0 0 0 0 0 0 0 0 0 0 0 0 0 0 127 0" result="hardAlpha"/>
<feOffset dy="31"/>
<feGaussianBlur stdDeviation="15.5"/>
<feColorMatrix type="matrix" values="0 0 0 0 0 0 0 0 0 0 0 0 0 0 0 0 0 0 0.09 0"/>
<feBlend mode="normal" in2="BackgroundImageFix" result="effect1_dropShadow_2342_7402"/>
<feBlend mode="normal" in="SourceGraphic" in2="effect1_dropShadow_2342_7402" result="shape"/>
</filter>
</defs>
</svg>
