<svg width="261" height="345" viewBox="0 0 261 345" fill="none" xmlns="http://www.w3.org/2000/svg">
<g filter="url(#filter0_d_2786_5750)">
<path d="M206.124 210.794C206.133 210.787 206.141 210.78 206.147 210.775L206.181 210.791C206.222 210.809 206.283 210.836 206.362 210.873C206.521 210.947 206.754 211.057 207.051 211.204C207.646 211.497 208.496 211.938 209.522 212.523C211.572 213.694 214.319 215.446 217.105 217.771C222.679 222.422 228.405 229.359 229.04 238.515C230.168 254.798 221.485 271.512 206.117 279.322C197.34 283.772 191.063 282.289 187.673 278.545C184.278 274.797 183.761 268.769 186.533 264.098C187.225 262.931 188.314 261.684 189.651 260.358C190.987 259.032 192.57 257.629 194.247 256.151C194.357 256.055 194.466 255.958 194.577 255.861C197.845 252.983 201.433 249.822 204.243 246.395C207.148 242.853 209.226 239.021 209.256 234.915C209.286 230.811 207.27 226.447 202.015 221.836C202.019 217.918 203.058 215.148 204.095 213.358C204.615 212.462 205.134 211.81 205.524 211.384C205.718 211.171 205.88 211.013 205.993 210.91C206.05 210.858 206.094 210.82 206.124 210.794Z" fill="#F79374" stroke="#F79374" stroke-width="0.0990012"/>
<path d="M60.7436 198.824C60.7504 198.825 60.7579 198.825 60.7661 198.826C60.815 198.83 60.889 198.837 60.9891 198.848C61.1892 198.871 61.4936 198.912 61.9094 198.983C62.741 199.125 64.0182 199.391 65.7987 199.884C69.3547 200.867 74.9179 202.755 82.9475 206.373C81.5955 215.728 79.3883 222.455 77.1507 226.858C76.0303 229.063 74.9031 230.683 73.8729 231.759C72.8408 232.837 71.9131 233.36 71.1925 233.388C69.7121 233.445 66.0834 233.538 62.149 233.486C58.2134 233.435 53.9763 233.239 51.2769 232.719C48.5939 232.202 47.2381 230.509 46.624 228.528C46.009 226.544 46.1393 224.273 46.4338 222.616C46.5055 222.213 46.7311 221.812 47.0788 221.414C47.4262 221.017 47.8933 220.626 48.4432 220.243C49.5431 219.477 50.9683 218.747 52.415 218.068C53.1024 217.744 53.7964 217.432 54.4619 217.132C55.1934 216.803 55.8904 216.489 56.5064 216.194C57.096 215.911 57.615 215.644 58.0242 215.394C58.4318 215.145 58.7365 214.91 58.8913 214.689C59.0458 214.469 59.1876 214.054 59.3192 213.504C59.4513 212.952 59.5747 212.257 59.6892 211.472C59.9181 209.902 60.1118 207.967 60.2683 206.086C60.4249 204.205 60.5443 202.377 60.6246 201.019C60.6647 200.34 60.6951 199.779 60.7154 199.387C60.7255 199.192 60.7332 199.038 60.7383 198.934L60.7436 198.824Z" fill="#F79374" stroke="#F79374" stroke-width="0.0990012"/>
<path d="M88.7733 21.0925L88.7296 21.1157L88.7442 21.1431L88.7752 21.1419L88.7733 21.0925ZM88.7733 21.0925C88.7752 21.1419 88.7753 21.1419 88.7754 21.1419L88.7759 21.1419L88.778 21.1418L88.7865 21.1415L88.8202 21.1403L88.9535 21.1356C89.0712 21.1316 89.2459 21.126 89.4738 21.1196C89.9296 21.1066 90.5981 21.0901 91.449 21.076C93.1508 21.0477 95.582 21.0287 98.4994 21.0662C104.334 21.1411 112.113 21.4416 119.891 22.3438L119.933 22.3487L119.945 22.3077C121.066 18.1939 123.454 12.7527 126.301 8.33648C127.724 6.12838 129.26 4.17852 130.808 2.77919C132.358 1.37881 133.912 0.535679 135.372 0.52741C141.253 0.494111 146.624 5.26861 148.363 14.9363C149.262 19.9385 151.739 31.7025 154.668 45.6096C157.405 58.6078 160.537 73.4781 163.143 86.4496C154.928 91.9317 141.231 97.7095 124.929 101.584C108.61 105.463 89.6848 107.434 71.0439 105.293C61.7272 104.223 54.8249 101.412 49.8035 97.5511C44.7823 93.6908 41.6392 88.7796 39.8437 83.5058C36.252 72.9561 38.0534 60.9558 41.0061 53.0261C43.9585 45.0974 49.3441 37.552 53.9936 31.9874C56.318 29.2054 58.4579 26.9192 60.0165 25.3286C60.7959 24.5333 61.4299 23.9119 61.869 23.4894C62.0885 23.2781 62.2594 23.1166 62.3753 23.0079C62.4332 22.9536 62.4774 22.9124 62.5072 22.8849L62.5408 22.8539L62.5492 22.8461L62.5513 22.8441L62.5519 22.8437C62.552 22.8436 62.552 22.8435 62.5186 22.807M88.7733 21.0925C88.7296 21.1157 88.7296 21.1157 88.7295 21.1156L88.7292 21.115L88.7281 21.113L88.7237 21.1048L88.7063 21.0722L88.6376 20.9446C88.577 20.8325 88.4875 20.6678 88.3715 20.4568C88.1395 20.0348 87.8017 19.4279 87.3787 18.6887C86.5327 17.2103 85.346 15.2024 83.9828 13.0849C82.6196 10.9672 81.0803 8.74053 79.5294 6.82395C77.9778 4.90641 76.4174 3.30317 75.0124 2.42869C72.1941 0.674585 69.8602 0.230655 68.0627 0.676647C66.2668 1.12226 64.995 2.45917 64.3055 4.29275C63.961 5.20899 63.6792 6.82289 63.4509 8.7336C63.2228 10.6426 63.0487 12.8427 62.9179 14.9281C62.7871 17.0134 62.6996 18.9835 62.6449 20.4322C62.6175 21.1566 62.5983 21.7506 62.5859 22.1636C62.5798 22.37 62.5753 22.5312 62.5724 22.6407L62.5691 22.7656L62.5683 22.7974L62.5681 22.8055L62.5681 22.8075L62.5681 22.808C62.5681 22.8081 62.5681 22.8082 62.5186 22.807M62.5186 22.807L62.552 22.8435L62.5676 22.8293L62.5681 22.8082L62.5186 22.807Z" fill="#FFC397" stroke="#F79374" stroke-width="0.0990012"/>
<path opacity="0.3" d="M133.677 6.86649L133.677 6.86649C134.653 6.88522 135.508 7.6486 136.249 8.90536C136.989 10.1595 137.606 11.8903 138.11 13.8116C139.116 17.6534 139.663 22.2444 139.831 25.2744C139.842 25.4821 139.805 25.6897 139.722 25.8809C139.639 26.0722 139.512 26.2419 139.351 26.377C139.191 26.5121 139 26.6088 138.796 26.6596C138.591 26.7104 138.377 26.7139 138.171 26.6699L138.171 26.6698C135.437 26.0941 131.911 25.1945 129.068 24.4385C127.647 24.0606 126.396 23.7187 125.501 23.4712C125.053 23.3475 124.695 23.2474 124.448 23.1782L124.164 23.0986L124.115 23.0847C124.125 23.0538 124.139 23.0084 124.158 22.9496C124.197 22.8298 124.255 22.6539 124.329 22.4301C124.479 21.9824 124.697 21.343 124.973 20.5759C125.526 19.0415 126.308 16.997 127.231 14.9555C128.154 12.9134 129.215 10.8766 130.325 9.35655C130.879 8.59646 131.445 7.96747 132.009 7.53163C132.574 7.09561 133.133 6.85591 133.677 6.86649Z" fill="white" stroke="#F79374" stroke-width="0.0990012"/>
<path opacity="0.3" d="M65.748 4.33323L65.748 4.33321C66.668 4.0132 67.7369 4.43448 68.8722 5.35907C70.0051 6.2817 71.1903 7.69474 72.3359 9.32623C74.6267 12.5886 76.7517 16.7135 77.9757 19.5027C78.0586 19.694 78.0958 19.9017 78.0844 20.1095C78.073 20.3173 78.0132 20.5198 77.9097 20.7013C77.8062 20.8828 77.6618 21.0383 77.4875 21.156C77.3132 21.2736 77.1138 21.35 76.9047 21.3794L76.9046 21.3794C74.1407 21.771 70.5207 22.1292 67.591 22.3896C66.1263 22.5197 64.8343 22.6254 63.9086 22.6986C63.4458 22.7351 63.0744 22.7636 62.8189 22.7829L62.5253 22.8048L62.4754 22.8085C62.4747 22.7758 62.4738 22.7282 62.4727 22.6664C62.4705 22.5396 62.4678 22.3535 62.4657 22.1161C62.4615 21.6413 62.4596 20.9615 62.469 20.1416C62.4878 18.5019 62.5516 16.3023 62.7317 14.0628C62.9119 11.8227 63.2082 9.54467 63.6915 7.747C63.9332 6.84806 64.221 6.07154 64.563 5.48052C64.9054 4.88874 65.2986 4.48917 65.748 4.33323Z" fill="white" stroke="#F79374" stroke-width="0.0990012"/>
<path d="M100.429 223.629L100.388 223.539C95.2413 225.166 86.0921 225.236 77.4425 221.756C68.7955 218.278 60.6508 211.253 57.5032 198.694C56.2449 193.66 56.2501 187.281 57.0208 180.39C57.7914 173.499 59.3268 166.102 61.126 159.036C64.5314 145.662 68.881 133.478 70.7757 128.17C70.8831 127.869 70.9827 127.59 71.0737 127.335L71.0737 127.335C74.5393 117.572 76.115 112.151 74.2136 103.326C80.5802 101.562 102.781 97.369 123.417 93.6128C133.758 91.7305 143.705 89.958 151.067 88.6561C154.748 88.0051 157.782 87.4718 159.897 87.1013C160.954 86.916 161.781 86.7714 162.344 86.6731L162.986 86.5611L163.15 86.5325L163.16 86.5308C164.503 91.8248 169.103 101.457 174.569 111.692C180.052 121.957 186.409 132.834 191.235 140.558C200.881 156.001 209.4 175.37 208.871 199.846C208.606 212.085 206.136 219.867 202.118 225.053C198.101 230.239 192.531 232.836 186.052 234.693C179.572 236.551 174.335 237.22 169.775 237.548C168.055 237.672 166.43 237.747 164.87 237.819C162.299 237.938 159.905 238.049 157.558 238.355C155.755 238.591 153.933 238.952 152.136 239.309L151.886 239.358C150.008 239.731 148.159 240.091 146.387 240.29C142.842 240.689 139.614 240.441 137.079 238.366C136.898 238.218 136.72 238.073 136.546 237.929C134.254 236.049 132.438 234.559 130.558 233.838C128.528 233.059 126.428 233.177 123.578 234.64C122.166 235.365 120.205 235.861 117.997 236.181C115.789 236.5 113.337 236.643 110.945 236.665C106.158 236.708 101.614 236.265 99.737 235.781C97.8817 235.303 96.4847 233.225 96.3383 230.778C96.1922 228.337 97.2944 225.536 100.429 223.629Z" fill="#FFC397" stroke="#F79374" stroke-width="0.0990012"/>
<mask id="mask0_2786_5750" style="mask-type:luminance" maskUnits="userSpaceOnUse" x="56" y="86" width="153" height="155">
<path d="M100.429 223.629L100.388 223.539C95.2413 225.166 86.0921 225.236 77.4425 221.756C68.7955 218.278 60.6508 211.253 57.5032 198.694C56.2449 193.66 56.2501 187.281 57.0208 180.39C57.7914 173.499 59.3268 166.102 61.126 159.036C64.5314 145.662 68.881 133.478 70.7757 128.17C70.8831 127.869 70.9827 127.59 71.0737 127.335L71.0737 127.335C74.5393 117.572 76.115 112.151 74.2136 103.326C80.5802 101.562 102.781 97.369 123.417 93.6128C133.758 91.7305 143.705 89.958 151.067 88.6561C154.748 88.0051 157.782 87.4718 159.897 87.1013C160.954 86.916 161.781 86.7714 162.344 86.6731L162.986 86.5611L163.15 86.5325L163.16 86.5308C164.503 91.8248 169.103 101.457 174.569 111.692C180.052 121.957 186.409 132.834 191.235 140.558C200.881 156.001 209.4 175.37 208.871 199.846C208.606 212.085 206.136 219.867 202.118 225.053C198.101 230.239 192.531 232.836 186.052 234.693C179.572 236.551 174.335 237.22 169.775 237.548C168.055 237.672 166.43 237.747 164.87 237.819C162.299 237.938 159.905 238.049 157.558 238.355C155.755 238.591 153.933 238.952 152.136 239.309L151.886 239.358C150.008 239.731 148.159 240.091 146.387 240.29C142.842 240.689 139.614 240.441 137.079 238.366C136.898 238.218 136.72 238.073 136.546 237.929C134.254 236.049 132.438 234.559 130.558 233.838C128.528 233.059 126.428 233.177 123.578 234.64C122.166 235.365 120.205 235.861 117.997 236.181C115.789 236.5 113.337 236.643 110.945 236.665C106.158 236.708 101.614 236.265 99.737 235.781C97.8817 235.303 96.4847 233.225 96.3383 230.778C96.1922 228.337 97.2944 225.536 100.429 223.629Z" fill="white" stroke="white" stroke-width="0.0990012"/>
</mask>
<g mask="url(#mask0_2786_5750)">
<path d="M163.246 140.01L163.246 140.009C161.832 132.569 164.519 125.196 167.564 119.678C169.086 116.921 170.697 114.628 171.927 113.025C172.542 112.224 173.062 111.595 173.428 111.166C173.611 110.952 173.756 110.788 173.854 110.677C173.902 110.624 173.939 110.584 173.964 110.556L174.019 110.635C174.079 110.721 174.167 110.849 174.283 111.018C174.514 111.355 174.853 111.852 175.285 112.494C176.15 113.779 177.387 115.642 178.878 117.958C181.861 122.59 185.86 129.032 189.925 136.272C193.989 143.512 198.119 151.549 201.363 159.372C204.601 167.181 206.956 174.773 207.484 181.144C199.172 184.954 192.551 183.163 187.833 179.31C183.105 175.45 180.284 169.517 179.59 165.066C179.24 162.824 178.163 160.785 176.717 158.827C175.351 156.978 173.653 155.198 171.925 153.385C171.824 153.279 171.723 153.172 171.621 153.066C167.953 149.216 164.226 145.193 163.246 140.01Z" fill="#F79374" stroke="#F79374" stroke-width="0.0990012"/>
<path opacity="0.19" d="M196.832 148.993L234.941 202.335L234.934 202.344C234.914 202.37 234.886 202.408 234.847 202.457C234.771 202.557 234.657 202.705 234.508 202.897C234.209 203.281 233.766 203.841 233.192 204.549C232.044 205.964 230.372 207.966 228.273 210.314C224.076 215.011 218.174 221.089 211.358 226.619C204.542 232.15 196.814 237.131 188.962 239.634C181.138 242.129 173.195 242.163 165.908 237.835C186.913 226.82 194.637 204.571 197.109 185.078C198.348 175.318 198.27 166.245 197.883 159.612C197.689 156.296 197.418 153.59 197.196 151.712C197.084 150.774 196.985 150.042 196.914 149.545C196.879 149.306 196.851 149.121 196.832 148.993Z" fill="#FFC397" stroke="#F79374" stroke-width="0.0990012"/>
<path d="M136.842 214.494C138.591 218.372 141.917 222.547 148.22 223.742C148.019 224.11 147.682 224.408 147.238 224.667C146.771 224.939 146.189 225.164 145.532 225.38C145.101 225.521 144.638 225.659 144.154 225.802C143.163 226.095 142.085 226.414 141.025 226.847C139.445 227.492 137.896 228.393 136.709 229.849C135.533 231.292 134.715 233.276 134.572 236.087C134.328 235.936 134.076 235.762 133.812 235.577C133.763 235.544 133.715 235.509 133.666 235.475C133.42 235.302 133.163 235.122 132.892 234.943C132.241 234.514 131.509 234.093 130.648 233.804C128.952 233.233 126.764 233.179 123.73 234.573C127.889 227.637 130.705 220.77 132.484 215.626C133.38 213.037 134.012 210.884 134.421 209.378C134.626 208.625 134.774 208.034 134.872 207.631C134.899 207.516 134.923 207.417 134.942 207.334C134.95 207.418 134.96 207.516 134.972 207.629C135.015 208.027 135.091 208.598 135.222 209.291C135.484 210.676 135.965 212.548 136.842 214.494Z" fill="#F79374" stroke="#F79374" stroke-width="0.0990012"/>
<path opacity="0.3" d="M94.3689 226.616L94.3688 226.616L94.3624 226.618C89.3668 228.533 82.9258 228.15 76.0676 226.492C69.2107 224.835 61.9441 221.905 55.3019 218.735C48.6599 215.565 42.6437 212.155 38.2879 209.537C36.1101 208.228 34.3474 207.118 33.1293 206.334C32.5202 205.943 32.0473 205.633 31.7266 205.421C31.5663 205.315 31.4441 205.233 31.3619 205.178L31.2724 205.118L70.2696 118.747L70.2735 118.743C70.2817 118.737 70.2943 118.726 70.3114 118.713C70.3455 118.686 70.3974 118.647 70.4682 118.597C70.6097 118.498 70.8266 118.357 71.1266 118.194C71.7265 117.868 72.659 117.451 73.9862 117.089C76.6405 116.365 80.8748 115.863 87.1869 116.756C90.3265 117.2 93.6895 119.766 96.9386 123.714C100.186 127.66 103.312 132.978 105.98 138.912C111.317 150.782 114.816 165.103 113.789 175.81C113.438 179.478 113.225 183.244 113.013 186.989C112.916 188.716 112.818 190.439 112.708 192.146C112.357 197.554 111.873 202.8 110.826 207.522C109.779 212.243 108.17 216.436 105.571 219.738C102.972 223.04 99.3824 225.454 94.3689 226.616Z" fill="white" stroke="#F79374" stroke-width="0.0990012"/>
</g>
<path d="M113.439 152.542C113.441 152.076 113.625 151.729 113.898 151.497C114.174 151.263 114.544 151.145 114.916 151.145C115.288 151.146 115.658 151.264 115.934 151.498C116.209 151.731 116.393 152.081 116.393 152.551V152.551C116.413 165.91 115.09 179.216 113.769 192.495C113.731 192.877 113.693 193.26 113.655 193.642M113.439 152.542L113.655 193.642C113.655 193.642 113.655 193.642 113.655 193.642M113.439 152.542C113.458 164.967 112.315 177.345 111.09 189.703C111.036 190.259 110.981 190.814 110.927 191.37C110.379 196.965 109.829 202.573 108.817 208.125L108.817 208.125C108.76 208.433 108.703 208.757 108.643 209.095C108.27 211.215 107.803 213.864 106.867 216.165C105.782 218.833 104.061 221.048 101.109 221.423C100.179 221.541 99.7055 222.33 99.7022 223.065C99.7005 223.433 99.8167 223.781 100.047 224.021C100.276 224.261 100.624 224.399 101.097 224.338C106.926 223.596 109.538 218.416 110.759 213.275C112.288 206.836 112.994 200.222 113.655 193.642M113.439 152.542L113.655 193.642" fill="#F79374" stroke="#F79374" stroke-width="0.0990012"/>
<path d="M131.594 221.739C131.311 222.557 131.042 223.403 130.769 224.26C129.59 227.957 128.345 231.863 125.734 234.685C124.407 236.122 122.253 233.985 123.576 232.555C125.146 230.858 125.912 228.704 126.67 226.574C126.702 226.485 126.734 226.396 126.765 226.307L131.594 221.739ZM131.594 221.739C133.29 216.857 134.878 211.944 136.32 206.985M131.594 221.739L136.32 206.985M136.32 206.985C139.204 197.062 141.409 186.953 142.407 176.669L136.32 206.985ZM133.599 205.592L133.599 205.592C136.321 196.127 138.449 186.479 139.403 176.674C139.493 175.748 140.276 175.278 141.021 175.277C141.394 175.276 141.751 175.392 142.003 175.622C142.253 175.851 142.404 176.196 142.358 176.664L142.358 176.664C141.361 186.944 139.156 197.051 136.272 206.971C134.831 211.929 133.243 216.841 131.547 221.723L131.547 221.723C131.264 222.544 130.994 223.39 130.721 224.247C130.269 225.666 129.807 227.114 129.261 228.522C128.387 230.778 127.3 232.92 125.698 234.651L125.698 234.651C125.375 235 125.006 235.13 124.654 235.11C124.3 235.09 123.958 234.919 123.696 234.66C123.171 234.14 122.973 233.279 123.612 232.589L123.612 232.589C125.189 230.884 125.959 228.721 126.716 226.593C126.748 226.503 126.78 226.413 126.812 226.323C127.629 224.039 128.427 221.751 129.208 219.458C130.772 214.869 132.241 210.251 133.599 205.592Z" fill="#F79374" stroke="#F79374" stroke-width="0.0990012"/>
<path d="M154.89 174.575C150.151 176.822 145.666 180.722 142.175 184.576C138.688 188.425 136.652 193.165 135.506 198.153C134.359 203.147 133.285 208.959 135.256 213.862C136.92 217.998 140.294 221.322 144.255 223.384L144.232 223.428L144.255 223.384C149.696 226.218 155.98 226.747 162.041 226.656H162.041C162.517 226.65 162.872 226.463 163.108 226.188C163.345 225.912 163.465 225.545 163.466 225.179C163.466 224.812 163.347 224.45 163.111 224.181C162.875 223.913 162.521 223.735 162.042 223.742C162.042 223.742 162.042 223.742 162.042 223.742L154.89 174.575ZM154.89 174.575L154.89 174.575C155.744 174.17 156.546 174.594 156.922 175.227C157.11 175.544 157.189 175.908 157.116 176.242C157.043 176.575 156.818 176.883 156.388 177.087L156.388 177.087C153.501 178.463 151.057 180.416 148.665 182.486C146.351 184.485 144.029 186.548 142.328 189.11C139.037 194.049 137.679 200.311 137.231 206.118C136.781 211.94 139.254 216.843 144.243 220.004L144.269 219.962L154.89 174.575Z" fill="#F79374" stroke="#F79374" stroke-width="0.0990012"/>
<path d="M137.974 227.698L137.974 227.697C140.581 226.504 143.311 225.516 146.031 224.531C147.306 224.07 148.58 223.609 149.838 223.128H149.841L149.85 223.124C150.294 222.953 150.671 223.004 150.96 223.18C151.251 223.358 151.459 223.667 151.556 224.021C151.752 224.73 151.504 225.603 150.625 225.938L150.625 225.938L141.359 229.481L141.359 229.481C139.972 230.012 138.677 230.584 137.768 231.45C136.856 232.32 136.335 233.482 136.489 235.185C136.531 235.653 136.378 235.999 136.126 236.228C135.872 236.458 135.514 236.575 135.142 236.574C134.397 236.572 133.618 236.101 133.534 235.176C133.397 233.629 133.751 232.078 134.546 230.739C135.341 229.399 136.539 228.336 137.974 227.698Z" fill="#F79374" stroke="#F79374" stroke-width="0.0990012"/>
<path d="M103.709 230.334L103.709 230.334C103.089 231.736 102.854 233.273 103.026 234.793C103.07 235.262 102.917 235.608 102.666 235.837C102.413 236.067 102.056 236.183 101.684 236.182C100.939 236.18 100.158 235.709 100.071 234.783C99.9005 232.758 100.269 230.724 101.139 228.883H101.15L101.163 228.854C101.324 228.502 101.668 228.278 102.057 228.19C102.445 228.102 102.87 228.152 103.183 228.337L103.183 228.337C103.915 228.77 104.041 229.603 103.709 230.334Z" fill="#F79374" stroke="#F79374" stroke-width="0.0990012"/>
<path d="M111.238 229.015L111.282 229.038C111.282 229.038 111.282 229.038 111.282 229.038L111.238 229.015ZM113.18 235.342C113.18 235.342 113.18 235.343 113.18 235.343L113.229 235.341L113.18 235.342C113.18 235.342 113.18 235.342 113.18 235.342ZM113.874 230.539L113.83 230.516C113.83 230.516 113.83 230.516 113.83 230.516L113.874 230.539Z" fill="#F79374" stroke="#F79374" stroke-width="0.0990012"/>
<path d="M103.494 105.283C120.458 103.305 142.567 98.3707 163.163 86.5467C164.276 89.7117 165.586 92.9704 166.62 95.4426C167.14 96.6861 167.59 97.7307 167.911 98.4645C168.071 98.8313 168.199 99.1205 168.286 99.318C168.302 99.354 168.317 99.387 168.33 99.4169C168.353 99.4688 168.372 99.5112 168.387 99.5437L168.403 99.581C168.395 99.5856 168.386 99.591 168.376 99.597C168.361 99.606 168.343 99.6165 168.322 99.6285C168.243 99.6747 168.125 99.7431 167.969 99.8322C167.656 100.01 167.19 100.271 166.577 100.6C165.353 101.258 163.544 102.191 161.206 103.291C156.531 105.49 149.74 108.353 141.282 111.013C124.371 116.329 100.793 120.827 74.1212 117.557C73.6576 116.789 73.4592 115.708 73.426 114.509C73.3925 113.3 73.5271 111.98 73.7217 110.755C73.9163 109.53 74.1707 108.403 74.3766 107.581C74.4795 107.171 74.5702 106.837 74.6352 106.605C74.6677 106.49 74.6937 106.4 74.7117 106.339L74.7279 106.284L74.8252 106.291C74.9161 106.298 75.0516 106.308 75.23 106.319C75.5867 106.342 76.1152 106.373 76.8023 106.403C78.1766 106.464 80.1856 106.525 82.7251 106.524C87.804 106.522 95.0051 106.272 103.494 105.283Z" fill="#4F8D7F" stroke="#F79374" stroke-width="0.0990012"/>
<path d="M54.3802 55.2196C54.5209 55.098 54.8013 54.9828 55.1968 54.878C55.5896 54.7739 56.088 54.6819 56.6573 54.6026C57.7957 54.444 59.2133 54.3364 60.6276 54.2818C62.0418 54.2272 63.4516 54.2257 64.5743 54.2789C65.1358 54.3056 65.6246 54.3458 66.0059 54.3999C66.1966 54.4269 66.3597 54.4572 66.4911 54.4908C66.6234 54.5246 66.7203 54.5608 66.7808 54.5981C66.8974 54.6698 66.9921 54.8364 67.0494 55.0905C67.1062 55.3421 67.124 55.6691 67.0962 56.0461C67.0406 56.7997 66.8034 57.7452 66.3426 58.6708C65.4215 60.5208 63.6109 62.2854 60.5773 62.2854C57.541 62.2854 55.7667 60.7105 54.8647 59.0364C54.4133 58.1985 54.1807 57.336 54.1185 56.6345C54.0874 56.2836 54.0991 55.9745 54.1464 55.7296C54.1942 55.4829 54.2766 55.3092 54.3802 55.2196Z" fill="#1B453C" stroke="#F79374" stroke-width="0.0990012"/>
<path d="M98.1943 55.2196C98.3354 55.098 98.6162 54.9828 99.0119 54.878C99.4051 54.7739 99.9038 54.6819 100.473 54.6026C101.612 54.444 103.03 54.3364 104.445 54.2818C105.859 54.2272 107.269 54.2257 108.392 54.2789C108.953 54.3056 109.442 54.3458 109.823 54.3999C110.014 54.4269 110.177 54.4572 110.309 54.4908C110.441 54.5246 110.538 54.5608 110.598 54.5981C110.715 54.6698 110.809 54.8364 110.867 55.0905C110.924 55.3421 110.941 55.6691 110.914 56.0461C110.858 56.7997 110.621 57.7452 110.16 58.6708C109.239 60.5208 107.428 62.2854 104.395 62.2854C101.358 62.2854 99.5841 60.7105 98.6817 59.0364C98.23 58.1985 97.9971 57.336 97.9345 56.6344C97.9032 56.2836 97.9145 55.9744 97.9616 55.7296C98.009 55.4829 98.0911 55.3092 98.1943 55.2196Z" fill="#1B453C" stroke="#F79374" stroke-width="0.0990012"/>
<path d="M83.5289 71.6711C83.5289 71.6711 80.7898 76.1387 79.1648 76.0359C77.5398 75.9332 73.8286 71.6321 73.8286 71.6321" stroke="#F79374" stroke-width="0.891011" stroke-miterlimit="10"/>
<path d="M70.75 83.0247C70.75 83.0247 76.0004 78.8872 78.9472 79.1807C81.894 79.4743 88.3758 84.204 88.3758 84.204" stroke="#F79374" stroke-width="0.891011" stroke-miterlimit="10"/>
<path d="M44.7834 70.9727L44.7834 70.9727C40.7327 70.6846 36.669 70.6175 32.6109 70.7717C32.1327 70.7896 31.7789 70.6204 31.5441 70.3586C31.3083 70.0958 31.1895 69.7361 31.1901 69.3696C31.1914 68.6363 31.6683 67.8924 32.6146 67.8568L32.6146 67.8568C36.6692 67.7028 40.7293 67.7698 44.7763 68.0576C45.7219 68.1257 46.1979 68.8871 46.1987 69.6207C46.1991 69.9873 46.0804 70.3425 45.8457 70.5967C45.6121 70.8498 45.2599 71.0069 44.7834 70.9727Z" fill="#F79374" stroke="#F79374" stroke-width="0.0990012"/>
<path d="M33.9531 85.6542L33.953 85.6542C33.0923 86.0352 32.2849 85.5986 31.9082 84.9643C31.72 84.6475 31.6424 84.2858 31.7173 83.9578C31.7917 83.6316 32.0185 83.3322 32.4528 83.1395C36.0658 81.5358 39.762 80.1213 43.5259 78.9019C43.9819 78.7546 44.3678 78.8217 44.6638 79.0102C44.9611 79.1995 45.1717 79.514 45.2693 79.8675C45.4646 80.5749 45.2051 81.4213 44.3064 81.711C40.7871 82.8439 37.3312 84.1602 33.9531 85.6542Z" fill="#F79374" stroke="#F79374" stroke-width="0.0990012"/>
<path d="M127.801 66.186L127.801 66.1861L117.325 71.4091L117.3 71.3666C117.3 71.3666 117.3 71.3666 117.3 71.3666C116.889 71.6098 116.491 71.6331 116.149 71.5193C115.805 71.405 115.515 71.1513 115.328 70.8351C115.14 70.5189 115.056 70.1432 115.121 69.7872C115.185 69.4326 115.398 69.0939 115.81 68.8498C119.395 66.7315 123.146 64.8996 127.027 63.3715C127.471 63.1965 127.847 63.2436 128.135 63.4179C128.424 63.593 128.631 63.9002 128.728 64.2543C128.922 64.9635 128.673 65.8408 127.801 66.186Z" fill="#F79374" stroke="#F79374" stroke-width="0.0990012"/>
<path d="M118.505 79.7861L118.505 79.786H118.502H118.497C117.551 79.7286 117.075 78.9738 117.074 78.2406C117.074 77.8741 117.192 77.5173 117.428 77.2601C117.662 77.004 118.015 76.8426 118.492 76.8711L118.492 76.8711C122.243 77.092 125.954 77.487 129.685 78.0327C130.156 78.1018 130.454 78.3284 130.611 78.6209C130.768 78.915 130.787 79.2821 130.687 79.6358C130.487 80.3439 129.818 80.9776 128.888 80.8414C125.443 80.3355 121.981 79.9904 118.505 79.7861Z" fill="#F79374" stroke="#F79374" stroke-width="0.0990012"/>
<path d="M79.5189 18.857C82.325 18.5561 85.1502 18.4655 87.9701 18.586L87.9723 18.5365L87.9701 18.586C88.9183 18.6265 89.3945 19.373 89.3949 20.1063C89.3951 20.4728 89.2759 20.8318 89.0401 21.0934C88.8052 21.3538 88.4517 21.5212 87.9744 21.5009C85.1495 21.3802 82.3193 21.4709 79.5083 21.7724L79.5083 21.7724C79.0334 21.8236 78.6843 21.6789 78.4536 21.4349C78.2216 21.1895 78.1048 20.8388 78.1063 20.4718C78.1092 19.7371 78.5843 18.9575 79.5189 18.857ZM79.5189 18.857L79.5136 18.8078M79.5189 18.857L79.5136 18.8078M79.5136 18.8078C82.3222 18.5066 85.1498 18.4159 87.9723 18.5365L79.5136 21.8216C77.5593 22.0326 77.583 19.0154 79.5136 18.8078Z" fill="#F79374" stroke="#F79374" stroke-width="0.0990012"/>
<path d="M121.199 22.9687L121.199 22.9687C120.722 22.9614 120.367 22.7734 120.131 22.4981C119.894 22.2219 119.775 21.8551 119.775 21.4887C119.775 21.1222 119.894 20.7595 120.131 20.4911C120.366 20.2236 120.72 20.0465 121.198 20.0539L121.198 20.0539C123.499 20.0764 125.776 20.5215 127.912 21.3664C128.784 21.7133 129.031 22.5914 128.836 23.3006C128.738 23.6548 128.532 23.9617 128.242 24.1365C127.955 24.3102 127.58 24.3568 127.138 24.1812C125.252 23.4147 123.238 23.0035 121.199 22.9687Z" fill="#F79374" stroke="#F79374" stroke-width="0.0990012"/>
<path d="M85.7106 125.28C85.7106 130.068 81.5074 133.957 76.3141 133.957C71.1208 133.957 66.9176 130.068 66.9176 125.28C66.9176 120.491 71.1208 116.602 76.3141 116.602C81.5074 116.602 85.7106 120.491 85.7106 125.28Z" fill="#FFD3B3" stroke="#F79374" stroke-width="0.0990012"/>
<mask id="mask1_2786_5750" style="mask-type:luminance" maskUnits="userSpaceOnUse" x="66" y="116" width="20" height="19">
<path d="M85.7106 125.28C85.7106 130.068 81.5074 133.957 76.3141 133.957C71.1208 133.957 66.9176 130.068 66.9176 125.28C66.9176 120.491 71.1208 116.602 76.3141 116.602C81.5074 116.602 85.7106 120.491 85.7106 125.28Z" fill="white" stroke="white" stroke-width="0.0990012"/>
</mask>
<g mask="url(#mask1_2786_5750)">
<path d="M75.6047 122.196C76.7764 122.353 77.7989 122.755 78.5051 123.277C79.2129 123.799 79.5934 124.434 79.5083 125.056C79.4233 125.677 78.8859 126.19 78.0629 126.509C77.2418 126.827 76.1478 126.947 74.9762 126.791C73.8045 126.635 72.782 126.232 72.0758 125.711C71.368 125.188 70.9875 124.553 71.0726 123.932C71.1576 123.31 71.695 122.797 72.518 122.479C73.3391 122.161 74.4331 122.04 75.6047 122.196Z" fill="#1B453C" stroke="#F79374" stroke-width="0.0990012"/>
<path d="M75.2964 124.799C74.0638 127.988 73.6852 131.436 74.1971 134.812" stroke="#F79374" stroke-width="0.693009" stroke-miterlimit="10"/>
</g>
</g>
<defs>
<filter id="filter0_d_2786_5750" x="0.140625" y="0.465576" width="260.047" height="343.647" filterUnits="userSpaceOnUse" color-interpolation-filters="sRGB">
<feFlood flood-opacity="0" result="BackgroundImageFix"/>
<feColorMatrix in="SourceAlpha" type="matrix" values="0 0 0 0 0 0 0 0 0 0 0 0 0 0 0 0 0 0 127 0" result="hardAlpha"/>
<feOffset dy="31"/>
<feGaussianBlur stdDeviation="15.5"/>
<feColorMatrix type="matrix" values="0 0 0 0 0 0 0 0 0 0 0 0 0 0 0 0 0 0 0.09 0"/>
<feBlend mode="normal" in2="BackgroundImageFix" result="effect1_dropShadow_2786_5750"/>
<feBlend mode="normal" in="SourceGraphic" in2="effect1_dropShadow_2786_5750" result="shape"/>
</filter>
</defs>
</svg>
