<svg xmlns="http://www.w3.org/2000/svg" width="123" height="176" viewBox="0 0 123 176" fill="none">
  <g filter="url(#filter0_d_2619_16067)">
    <path d="M109.909 96.211C110.359 102.781 106.901 109.524 100.782 112.675C97.2887 114.47 94.8013 113.867 93.4608 112.368C92.1158 110.863 91.9099 108.441 93.0096 106.563C93.2839 106.095 93.716 105.593 94.2487 105.058C94.7811 104.522 95.4116 103.956 96.081 103.358C96.1248 103.319 96.1687 103.28 96.2129 103.241C97.5159 102.078 98.9489 100.799 100.071 99.4121C101.232 97.9785 102.065 96.4232 102.077 94.7541C102.089 93.0872 101.282 91.3186 99.1893 89.4549C99.1931 87.8835 99.6049 86.7733 100.015 86.0561C100.221 85.6957 100.427 85.4342 100.581 85.2632C100.658 85.1777 100.722 85.1148 100.767 85.0735C100.786 85.0559 100.801 85.0421 100.812 85.0323C100.829 85.0396 100.851 85.0501 100.881 85.0639C100.944 85.0934 101.037 85.1379 101.155 85.1971C101.391 85.3156 101.73 85.4931 102.139 85.7294C102.955 86.2021 104.05 86.9093 105.159 87.8475C107.38 89.7249 109.657 92.5219 109.909 96.211Z" fill="#1B453C" stroke="#1B453C" stroke-width="0.0990012"/>
    <path d="M42.8359 80.2001C42.8533 80.2018 42.8754 80.204 42.9022 80.2071C42.9814 80.2162 43.1022 80.2325 43.2675 80.2612C43.5982 80.3186 44.1066 80.4258 44.816 80.6246C46.2297 81.0208 48.441 81.7809 51.6319 83.2364C51.0927 87.0037 50.2146 89.7125 49.3255 91.4851C48.8795 92.3744 48.4314 93.0267 48.023 93.4587C47.6127 93.8928 47.2497 94.0969 46.9744 94.1077C46.3843 94.1306 44.9374 94.1682 43.3686 94.1474C41.7987 94.1266 40.1111 94.0474 39.0373 93.8378C37.9801 93.6316 37.4465 92.9568 37.2041 92.1645C36.9606 91.3689 37.0119 90.4564 37.129 89.7888C37.1564 89.6328 37.243 89.4754 37.3796 89.3171C37.516 89.159 37.7002 89.0026 37.9185 88.8486C38.355 88.5405 38.9216 88.2466 39.4984 87.9719C39.7712 87.8421 40.0481 87.7157 40.3138 87.5944C40.6063 87.461 40.8853 87.3336 41.1306 87.2145C41.3661 87.1001 41.5742 86.9916 41.7387 86.8899C41.9016 86.7891 42.0278 86.6913 42.0933 86.5968C42.1585 86.5028 42.216 86.3297 42.2685 86.1078C42.3214 85.8835 42.3708 85.6016 42.4165 85.2839C42.508 84.6483 42.5853 83.8658 42.6477 83.1054C42.7102 82.3449 42.7579 81.6058 42.7899 81.0569C42.8059 80.7825 42.818 80.5555 42.8261 80.3972C42.8302 80.318 42.8332 80.256 42.8353 80.2137L42.8359 80.2001Z" fill="#1B453C" stroke="#1B453C" stroke-width="0.0990012"/>
    <path d="M53.9893 8.33651L53.9455 8.35953L53.96 8.3872L53.9913 8.38597L53.9893 8.33651ZM53.9893 8.33651L53.9913 8.38597L53.9915 8.38596L53.9924 8.38593L53.9957 8.3858L54.0091 8.3853L54.0622 8.38342C54.1091 8.38182 54.1788 8.37956 54.2696 8.37695C54.4513 8.37171 54.7179 8.36505 55.0571 8.35934C55.7357 8.3479 56.7052 8.34025 57.8685 8.35538C60.1954 8.38565 63.2972 8.50707 66.3983 8.87154L66.4407 8.87653L66.4518 8.83524C66.8984 7.17564 67.8498 4.97927 68.9836 3.19681C69.5505 2.3056 70.1617 1.51988 70.7766 0.956726C71.3927 0.392472 72.0059 0.0577626 72.5772 0.0544848C74.9025 0.0411439 77.0373 1.95379 77.7293 5.85355C78.088 7.87546 79.0764 12.6308 80.2448 18.2521C81.3353 23.4991 82.5826 29.5005 83.6212 34.7377C80.3465 36.9475 74.8937 39.2763 68.4043 40.8391C61.8975 42.4062 54.3521 43.2022 46.9208 42.3375C43.2089 41.9056 40.4611 40.7709 38.4633 39.2146C36.4655 37.6585 35.2149 35.6787 34.5003 33.552C33.0704 29.2965 33.7873 24.4537 34.9637 21.2528C36.1397 18.0529 38.2855 15.0064 40.1393 12.7584C41.0659 11.6348 41.9189 10.7114 42.5402 10.069C42.8508 9.74777 43.1035 9.49684 43.2785 9.32626C43.3659 9.24097 43.434 9.17578 43.4801 9.13194L43.5326 9.08235L43.546 9.06986L43.5493 9.06674L43.5501 9.06598L43.5503 9.06579L43.5167 9.02945M53.9893 8.33651L53.9455 8.35947L53.9454 8.35927L53.9449 8.35844L53.9432 8.35514L53.9362 8.34201L53.9089 8.29052C53.8848 8.2453 53.8491 8.17877 53.8028 8.09356C53.7104 7.92313 53.5757 7.67802 53.4071 7.37942C53.0698 6.78219 52.5967 5.97118 52.0533 5.11591C51.5098 4.26052 50.8965 3.36154 50.2788 2.58809C49.6603 1.81365 49.0404 1.16895 48.4843 0.818293C47.364 0.111763 46.4416 -0.0636109 45.7355 0.113895C45.0309 0.291027 44.53 0.8226 44.2574 1.55696C44.1214 1.92356 44.0092 2.57255 43.9182 3.34501C43.8273 4.11578 43.7579 5.00437 43.7057 5.84694C43.6535 6.68942 43.6187 7.48538 43.5968 8.07076C43.5859 8.36344 43.5783 8.60344 43.5733 8.77026C43.5709 8.85367 43.5691 8.91878 43.5679 8.96302L43.5666 9.01342L43.5663 9.02629L43.5662 9.02953L43.5662 9.03034L43.5662 9.03054L43.5167 9.02945M43.5167 9.02945L43.5504 9.06573L43.5657 9.05151L43.5662 9.03061L43.5167 9.02945Z" fill="#C3CBCD" stroke="#1B453C" stroke-width="0.0990012"/>
    <path opacity="0.3" d="M71.9001 2.61591L71.9002 2.61592C72.2724 2.62316 72.6062 2.91896 72.9009 3.42519C73.194 3.92864 73.4394 4.62513 73.6398 5.40065C74.0406 6.95095 74.2588 8.80439 74.3257 10.0277C74.33 10.1072 74.3158 10.1866 74.2844 10.2597C74.253 10.3328 74.2051 10.3977 74.1446 10.4494C74.084 10.501 74.0123 10.538 73.9351 10.5574C73.8579 10.5768 73.7772 10.5781 73.6994 10.5613L73.6993 10.5613C72.6098 10.3288 71.204 9.96533 70.07 9.65983C69.5031 9.50712 69.0044 9.36895 68.6474 9.26896C68.4689 9.21897 68.3258 9.17852 68.2274 9.15057L68.124 9.12115L68.1322 9.09544C68.1476 9.04707 68.1705 8.97608 68.2002 8.88572C68.2598 8.70498 68.3468 8.44675 68.4569 8.13696C68.677 7.51728 68.989 6.69173 69.3566 5.86756C69.7244 5.04291 70.1469 4.22186 70.5877 3.60994C70.8081 3.30393 71.0317 3.05216 71.2537 2.8784C71.476 2.70444 71.6925 2.61183 71.9001 2.61591Z" fill="white" stroke="#1B453C" stroke-width="0.0990012"/>
    <path opacity="0.3" d="M44.8137 1.58989L44.8137 1.58987C45.1648 1.46614 45.5797 1.62697 46.0309 1.99936C46.4797 2.36969 46.9507 2.93821 47.4071 3.59674C48.3194 4.91314 49.1661 6.57837 49.6538 7.70445C49.6851 7.77766 49.6992 7.85708 49.6948 7.93659C49.6905 8.01612 49.668 8.09359 49.6289 8.16299C49.5898 8.2324 49.5353 8.29188 49.4696 8.33684C49.4038 8.38179 49.3286 8.41101 49.2498 8.42223L49.2497 8.42224C48.1481 8.58039 46.7047 8.72511 45.5362 8.83032C44.9521 8.88292 44.4369 8.92562 44.0677 8.95517C43.8831 8.96995 43.735 8.98144 43.6331 8.98923L43.5275 8.99723L43.5271 8.97108C43.5262 8.91992 43.5251 8.84477 43.5243 8.7489C43.5226 8.55717 43.5218 8.28262 43.5256 7.9515C43.5331 7.28916 43.5585 6.40093 43.6303 5.49666C43.7021 4.5919 43.8202 3.67329 44.0123 2.94929C44.1083 2.58718 44.2223 2.27606 44.357 2.0403C44.4921 1.80372 44.6443 1.64945 44.8137 1.58989Z" fill="white" stroke="#1B453C" stroke-width="0.0990012"/>
    <path d="M58.6532 90.2158L58.6121 90.1266C56.5663 90.7818 52.9241 90.8107 49.4798 89.4068C46.0382 88.004 42.7969 85.1719 41.5439 80.1061C41.0432 78.0768 41.0449 75.5023 41.3522 72.7186C41.6593 69.9356 42.2715 66.9473 42.989 64.0922C44.347 58.6883 46.0816 53.7652 46.8373 51.6201C46.8802 51.4986 46.9199 51.3859 46.9562 51.2826L46.9562 51.2826C48.3354 47.3458 48.9667 45.1496 48.2154 41.5907C50.788 40.8737 59.6088 39.1859 67.8124 37.673C71.9373 36.9122 75.905 36.1958 78.8415 35.6697C80.3097 35.4066 81.5201 35.1911 82.3635 35.0413C82.7852 34.9664 83.1151 34.908 83.3396 34.8683L83.5955 34.823L83.6377 34.8155C84.1829 36.9648 86.0136 40.8458 88.1846 44.9643C90.3719 49.1137 92.908 53.5102 94.8331 56.6327C98.6792 62.8711 102.074 70.6938 101.863 80.5784C101.758 85.5218 100.773 88.6598 99.1759 90.7488C97.5792 92.8371 95.3648 93.8844 92.7826 94.6343C90.2004 95.3843 88.1136 95.6545 86.2965 95.7869C85.6122 95.8368 84.9646 95.8672 84.3427 95.8964C83.3158 95.9445 82.3587 95.9894 81.4214 96.1134C80.7012 96.2087 79.9736 96.355 79.2572 96.499L79.1569 96.5191C78.4075 96.6697 77.6713 96.8151 76.9659 96.8954C75.5543 97.0562 74.2774 96.9551 73.2755 96.1244C73.203 96.0643 73.1317 96.005 73.0614 95.9466C72.149 95.1882 71.4209 94.583 70.6663 94.2896C69.8468 93.971 68.9997 94.0206 67.8575 94.615C67.2984 94.9059 66.5202 95.1057 65.6405 95.2347C64.7617 95.3636 63.7852 95.4213 62.8317 95.43C60.9232 95.4474 59.1138 95.2684 58.369 95.0738C57.6458 94.8849 57.0934 94.0601 57.0354 93.0787C56.9778 92.1024 57.4123 90.9809 58.6532 90.2158Z" fill="#C3CBCD" stroke="#1B453C" stroke-width="0.0990012"/>
    <mask id="mask0_2619_16067" style="mask-type:luminance" maskUnits="userSpaceOnUse" x="41" y="34" width="61" height="64">
      <path d="M58.6537 90.2225L58.6126 90.1333C56.5668 90.7885 52.9246 90.8175 49.4803 89.4135C46.0387 88.0107 42.7974 85.1786 41.5444 80.1128C41.0437 78.0836 41.0454 75.509 41.3527 72.7253C41.6598 69.9424 42.272 66.954 42.9895 64.0989C44.3475 58.695 46.0821 53.7719 46.8378 51.6268C46.8807 51.5053 46.9203 51.3926 46.9566 51.2893L46.9567 51.2893C48.3359 47.3525 48.9672 45.1563 48.2158 41.5974C50.7885 40.8804 59.6093 39.1926 67.8129 37.6797C71.9378 36.9189 75.9055 36.2026 78.842 35.6764C80.3102 35.4133 81.5206 35.1978 82.364 35.048C82.7857 34.9731 83.1156 34.9147 83.3401 34.875L83.596 34.8297L83.6382 34.8223C84.1834 36.9715 86.014 40.8525 88.1851 44.971C90.3724 49.1204 92.9085 53.5169 94.8336 56.6394C98.6797 62.8778 102.075 70.7005 101.864 80.5851C101.758 85.5285 100.774 88.6665 99.1764 90.7555C97.5797 92.8439 95.3653 93.8911 92.7831 94.641C90.2009 95.391 88.1141 95.6612 86.297 95.7937C85.6127 95.8435 84.9651 95.8739 84.3431 95.9031C83.3162 95.9512 82.3592 95.9961 81.4219 96.1201C80.7017 96.2154 79.9741 96.3617 79.2577 96.5057L79.1574 96.5259C78.408 96.6764 77.6718 96.8218 76.9664 96.9021C75.5548 97.0629 74.2778 96.9618 73.276 96.1311C73.2035 96.071 73.1321 96.0117 73.0619 95.9533C72.1495 95.1949 71.4214 94.5897 70.6668 94.2963C69.8473 93.9777 69.0002 94.0274 67.858 94.6217C67.2989 94.9126 66.5207 95.1124 65.641 95.2414C64.7622 95.3703 63.7857 95.428 62.8322 95.4367C60.9237 95.4542 59.1143 95.2751 58.3695 95.0805C57.6463 94.8916 57.0939 94.0668 57.0359 93.0854C56.9783 92.1091 57.4128 90.9876 58.6537 90.2225Z" fill="white" stroke="white" stroke-width="0.0990012"/>
    </mask>
    <g mask="url(#mask0_2619_16067)">
      <path d="M83.725 56.3965L83.725 56.3965C83.163 53.399 84.2311 50.4264 85.4445 48.1989C86.0508 47.0859 86.6924 46.1607 87.1825 45.5137C87.4275 45.1903 87.6345 44.9365 87.7802 44.7636C87.8531 44.6772 87.9106 44.6111 87.9498 44.5665C87.9564 44.559 87.9625 44.5522 87.9681 44.5459L87.9685 44.5465C87.9922 44.5813 88.0275 44.6331 88.0735 44.7012C88.1656 44.8372 88.3008 45.0382 88.4732 45.2977C88.8179 45.8167 89.3114 46.5696 89.9062 47.5054C91.0958 49.3771 92.6906 51.9801 94.3115 54.9055C95.9324 57.831 97.579 61.0782 98.8724 64.2384C100.16 67.3852 101.097 70.4425 101.31 73.0085C99.6661 73.7686 98.1907 73.9692 96.894 73.789C95.5888 73.6076 94.4614 73.0399 93.5222 72.263C91.6424 70.7079 90.5204 68.3171 90.2445 66.5242C90.1042 65.6117 89.6717 64.7833 89.0933 63.9899C88.5473 63.2409 87.869 62.5201 87.18 61.7879C87.1395 61.7449 87.0989 61.7018 87.0583 61.6586C85.5943 60.1016 84.1144 58.4819 83.725 56.3965Z" fill="#1B453C" stroke="#1B453C" stroke-width="0.0990012"/>
      <path opacity="0.19" d="M97.1401 60.1525L112.257 81.591L112.232 81.6233C112.202 81.6635 112.157 81.7232 112.097 81.8007C111.978 81.9557 111.801 82.1822 111.572 82.468C111.115 83.0396 110.448 83.8485 109.611 84.797C107.938 86.6943 105.585 89.1497 102.868 91.3836C100.15 93.6178 97.0707 95.6281 93.9437 96.6382C90.8447 97.6393 87.7023 97.6571 84.8171 95.9405C93.1742 91.4736 96.2476 82.4875 97.2325 74.6204C97.7266 70.6736 97.6956 67.0049 97.5411 64.3232C97.4639 62.9823 97.3557 61.8879 97.2669 61.1286C97.2225 60.7489 97.1829 60.453 97.1544 60.252C97.1492 60.2157 97.1444 60.1825 97.1401 60.1525Z" fill="#C3CBCD" stroke="#1B453C" stroke-width="0.0990012"/>
      <path d="M73.1369 86.5162C73.8332 88.0807 75.1556 89.7674 77.656 90.2629C77.5775 90.3898 77.4552 90.4962 77.2955 90.5905C77.112 90.6987 76.8824 90.7891 76.6206 90.8762C76.4504 90.9327 76.2665 90.9879 76.0739 91.0456C75.6778 91.1644 75.2451 91.2941 74.8211 91.4695C74.1883 91.7313 73.5653 92.0981 73.0875 92.692C72.6209 93.272 72.296 94.0648 72.2316 95.179C72.1483 95.1252 72.0624 95.0652 71.9724 95.0014C71.9533 94.9878 71.934 94.974 71.9144 94.9602C71.8163 94.8904 71.7133 94.8172 71.6048 94.7447C71.3444 94.5706 71.0499 94.3987 70.7031 94.2806C70.0342 94.0528 69.1791 94.0279 68.0071 94.5533C69.6411 91.7757 70.7505 89.0317 71.4538 86.9713C71.8112 85.9242 72.0638 85.0534 72.2271 84.4442C72.3005 84.1703 72.3559 83.9493 72.3946 83.7889C72.4127 83.9462 72.442 84.1571 72.4885 84.4069C72.5933 84.9683 72.7857 85.7272 73.1369 86.5162Z" fill="#1B453C" stroke="#1B453C" stroke-width="0.0990012"/>
      <path opacity="0.3" d="M56.2148 91.3763L56.2147 91.3758L56.2082 91.3783C54.2242 92.1486 51.6623 91.9955 48.9287 91.3261C46.1964 90.657 43.3 89.474 40.6515 88.1931C38.0032 86.9124 35.6043 85.5347 33.8674 84.4771C32.999 83.9483 32.2961 83.4996 31.8105 83.1831C31.5676 83.0249 31.3791 82.8997 31.2513 82.8141C31.1874 82.7713 31.1387 82.7384 31.1059 82.7162L31.0906 82.7058L46.6333 47.8267C46.6361 47.8244 46.6397 47.8215 46.6441 47.8179C46.6573 47.8074 46.6776 47.7918 46.7054 47.7721C46.7609 47.7326 46.8465 47.6765 46.9651 47.6111C47.2024 47.4804 47.5722 47.3126 48.0993 47.167C49.1535 46.8757 50.8383 46.6727 53.3526 47.0332C54.5932 47.2111 55.9285 48.2402 57.2235 49.8345C58.5167 51.4267 59.7625 53.5738 60.8261 55.9706C62.9538 60.7653 64.3476 66.5479 63.9386 70.8684C63.7982 72.3515 63.7133 73.8745 63.6288 75.3882C63.5899 76.0863 63.5511 76.7824 63.507 77.4717C63.3672 79.657 63.1743 81.7755 62.7572 83.6814C62.34 85.5873 61.6994 87.2772 60.6663 88.6072C59.6341 89.936 58.2081 90.9081 56.2148 91.3763Z" fill="white" stroke="#1B453C" stroke-width="0.0990012"/>
    </g>
    <path d="M63.9299 77.608C63.9147 77.7622 63.8996 77.9165 63.8845 78.0707L63.8574 61.4666C63.8574 61.4654 63.8574 61.4642 63.8574 61.463C63.8583 61.2827 63.9282 61.1506 64.0304 61.0628C64.1344 60.9736 64.2747 60.9278 64.4169 60.9279C64.559 60.928 64.6994 60.9739 64.8033 61.0632C64.9063 61.1516 64.9764 61.2848 64.9764 61.4666V61.4667C64.9843 66.8644 64.4566 72.2406 63.9299 77.608Z" fill="#1B453C" stroke="#1B453C" stroke-width="0.0990012"/>
    <path d="M71.8983 82.9112L71.8984 82.911C72.9843 79.0844 73.8337 75.1836 74.2143 71.2184C74.2485 70.8628 74.5446 70.6811 74.8305 70.6805C74.9731 70.6802 75.1078 70.7253 75.2016 70.8122C75.2941 70.8978 75.3514 71.028 75.3339 71.2088L75.3339 71.2089C74.9363 75.3614 74.0574 79.4443 72.9076 83.4523C72.3326 85.4557 71.6995 87.4404 71.023 89.413L71.023 89.4131C70.9097 89.7462 70.8019 90.0888 70.6928 90.4354C70.5127 91.0082 70.3292 91.5916 70.1118 92.1599C69.7636 93.0701 69.3315 93.932 68.696 94.6279L68.696 94.6279C68.5731 94.7627 68.4344 94.811 68.3034 94.8036C68.1708 94.796 68.0412 94.731 67.9408 94.6304C67.7396 94.4287 67.6666 94.0986 67.9083 93.8339L67.9083 93.8339C68.5415 93.1403 68.8502 92.261 69.1517 91.4024C69.1647 91.3654 69.1777 91.3284 69.1907 91.2915C69.5165 90.3683 69.835 89.4432 70.1464 88.5164C70.7705 86.6616 71.3568 84.7945 71.8983 82.9112Z" fill="#1B453C" stroke="#1B453C" stroke-width="0.0990012"/>
    <path d="M80.3744 70.3947C78.4887 71.3004 76.7029 72.8739 75.3119 74.4297C73.9251 75.9808 73.1146 77.8914 72.6584 79.9038C72.2006 81.9234 71.7747 84.2636 72.5573 86.2356C73.2182 87.8997 74.5582 89.2381 76.1331 90.0686L76.11 90.1124L76.1331 90.0686C78.2968 91.2104 80.7971 91.4244 83.2133 91.3879H83.2133C83.3948 91.3854 83.5281 91.3134 83.6167 91.209C83.7061 91.1035 83.7521 90.9624 83.7522 90.8202C83.7524 90.678 83.7067 90.5385 83.6178 90.436C83.5298 90.3346 83.3969 90.2663 83.2148 90.2688M80.3744 70.3947L83.214 90.2193L83.2148 90.2688M80.3744 70.3947L80.3744 70.3947C80.6975 70.2394 81.002 70.4004 81.1463 70.6466C81.2182 70.7694 81.2474 70.9094 81.22 71.036C81.193 71.1609 81.1098 71.2782 80.9459 71.3571L80.9458 71.3571C79.7905 71.9151 78.8132 72.7065 77.8585 73.5434M80.3744 70.3947L76.1249 88.7117M83.2148 90.2688C80.788 90.3054 78.2077 90.107 76.0982 88.7533L76.1249 88.7117M83.2148 90.2688L77.8585 73.5434M76.1249 88.7117C74.1408 87.4381 73.1583 85.4635 73.3369 83.1181C73.5156 80.7726 74.0569 78.2458 75.367 76.2536C76.0437 75.221 76.9681 74.3886 77.8911 73.5807L77.8585 73.5434C77.8585 73.5434 77.8585 73.5434 77.8585 73.5434M76.1249 88.7117L76.0982 88.7533C74.0988 87.4699 73.1075 85.4779 73.2875 83.1143C73.4665 80.7652 74.0089 78.2287 75.3256 76.2264C76.0065 75.1874 76.9359 74.351 77.8585 73.5434" fill="#1B453C" stroke="#1B453C" stroke-width="0.0990012"/>
    <path d="M73.6264 91.8623L73.6264 91.8623L73.6268 91.8621C74.6656 91.3804 75.7524 90.9818 76.8367 90.5841C77.3441 90.398 77.851 90.2121 78.3522 90.0179H78.3536L78.3622 90.0146C78.5314 89.9486 78.6716 89.9688 78.7783 90.0348C78.8866 90.1018 78.9658 90.2195 79.0033 90.3572C79.0786 90.6334 78.9824 90.9683 78.6499 91.097L78.6498 91.097L74.9537 92.5289L74.9537 92.5289C74.4004 92.7434 73.8787 92.9764 73.5114 93.331C73.1409 93.6889 72.9302 94.1676 72.9923 94.864C73.0084 95.0452 72.95 95.1757 72.8566 95.2615C72.762 95.3485 72.6269 95.3937 72.4845 95.3933C72.1989 95.3925 71.9046 95.2106 71.8729 94.8553C71.8188 94.2362 71.9585 93.6156 72.2726 93.0793C72.5868 92.5431 73.0598 92.1178 73.6264 91.8623Z" fill="#1B453C" stroke="#1B453C" stroke-width="0.0990012"/>
    <path d="M59.9198 92.8908L59.9196 92.8912C59.6705 93.4623 59.5759 94.0888 59.6451 94.7079C59.6616 94.8893 59.6036 95.0197 59.5108 95.1054C59.4165 95.1925 59.2816 95.2376 59.1392 95.2371C58.8537 95.2361 58.5586 95.054 58.5256 94.6986C58.4585 93.8915 58.6017 93.0811 58.9409 92.3461H58.9453L58.9585 92.317C59.0182 92.1852 59.1463 92.0994 59.2946 92.0654C59.4433 92.0312 59.6044 92.0509 59.7217 92.1212L59.7217 92.1212C59.9974 92.2861 60.048 92.605 59.9198 92.8908Z" fill="#1B453C" stroke="#1B453C" stroke-width="0.0990012"/>
    <path d="M62.9495 92.3687L62.9934 92.3915L62.9495 92.3687ZM62.9495 92.3687L62.9934 92.3915L62.9495 92.3687ZM63.9572 92.9616L64.0011 92.9845L63.9572 92.9616C63.9572 92.9616 63.9572 92.9616 63.9572 92.9616Z" fill="#1B453C" stroke="#1B453C" stroke-width="0.0990012"/>
    <path d="M59.8647 42.3897C66.6251 41.591 75.4345 39.6001 83.6461 34.8318C84.0876 36.101 84.6047 37.4041 85.0136 38.3946C85.2211 38.8974 85.4008 39.3197 85.5286 39.6164C85.5925 39.7647 85.6435 39.8816 85.6785 39.9615L85.7147 40.0441L85.7049 40.0499C85.6735 40.0685 85.6265 40.0961 85.5641 40.132C85.4395 40.2039 85.2538 40.309 85.0098 40.4419C84.5218 40.7077 83.8007 41.0846 82.8687 41.5287C81.0048 42.417 78.2975 43.5739 74.9252 44.6481C68.1854 46.795 58.7907 48.6113 48.1631 47.2939C47.9872 46.9907 47.9102 46.5647 47.8972 46.0883C47.884 45.6025 47.9374 45.0707 48.0148 44.5766C48.0923 44.0827 48.1936 43.6279 48.2756 43.2965C48.3165 43.1308 48.3527 42.9961 48.3785 42.9028C48.3913 42.8568 48.4015 42.8209 48.4086 42.7963L48.4234 42.7975C48.4597 42.8002 48.5139 42.8041 48.5851 42.8087C48.7276 42.818 48.9386 42.8304 49.2129 42.8428C49.7615 42.8675 50.5633 42.8921 51.5768 42.8916C53.6036 42.8908 56.4772 42.7899 59.8647 42.3897Z" fill="#3C64B1" stroke="#1B453C" stroke-width="0.0990012"/>
    <path d="M41.1822 21.9073C40.9557 21.9393 40.7583 21.9763 40.6032 22.0179L41.1822 21.9073ZM41.1822 21.9073C41.635 21.8434 42.1993 21.8 42.7629 21.778M41.1822 21.9073L42.7629 21.778M42.7629 21.778C43.3263 21.7559 43.8878 21.7553 44.3345 21.7768M42.7629 21.778L44.3345 21.7768M44.3345 21.7768C44.558 21.7875 44.752 21.8037 44.9028 21.8254M44.3345 21.7768L44.9028 21.8254M44.9028 21.8254C44.9782 21.8362 45.0421 21.8483 45.0931 21.8615M44.9028 21.8254L45.0931 21.8615M45.0931 21.8615C45.1449 21.8749 45.18 21.8886 45.2003 21.9013M45.0931 21.8615L45.2003 21.9013M45.2003 21.9013C45.2363 21.9237 45.2718 21.981 45.2942 22.0817C45.3161 22.1797 45.3232 22.3089 45.3122 22.4594C45.2903 22.7601 45.1968 23.1386 45.0146 23.5094C44.6507 24.25 43.9373 24.9537 42.7416 24.9537C41.5433 24.9537 40.8448 24.3249 40.4893 23.6563C40.3111 23.3212 40.2194 22.9764 40.195 22.6968C40.1827 22.5569 40.1874 22.4348 40.2057 22.3391C40.2243 22.2416 40.2555 22.1793 40.2894 22.1496L45.2003 21.9013Z" fill="#1B453C" stroke="#1B453C" stroke-width="0.0990012"/>
    <path d="M57.7665 22.1496C57.8171 22.1054 57.923 22.0602 58.0807 22.0179C58.2359 21.9763 58.4335 21.9393 58.6601 21.9073C59.1131 21.8434 59.6775 21.8 60.2412 21.778C60.8047 21.7559 61.3662 21.7553 61.813 21.7768C62.0365 21.7875 62.2304 21.8037 62.3812 21.8254C62.4567 21.8362 62.5205 21.8483 62.5715 21.8615C62.6234 21.8749 62.6585 21.8886 62.6788 21.9013C62.7148 21.9237 62.7503 21.981 62.7727 22.0817C62.7945 22.1797 62.8017 22.3089 62.7907 22.4594C62.7688 22.7601 62.6752 23.1386 62.493 23.5094C62.1291 24.25 61.4157 24.9537 60.2201 24.9537C59.0218 24.9537 58.3233 24.3249 57.9676 23.6563C57.7893 23.3212 57.6975 22.9764 57.6729 22.6967C57.6605 22.5568 57.6651 22.4347 57.6833 22.3391C57.7018 22.2415 57.7329 22.1792 57.7666 22.1495L57.7339 22.1124L57.7665 22.1496Z" fill="#1B453C" stroke="#1B453C" stroke-width="0.0990012"/>
    <path d="M51.8971 28.7777C51.8971 28.7777 50.8045 30.5833 50.1563 30.5418C49.5081 30.5002 48.0278 28.7619 48.0278 28.7619" stroke="#1B453C" stroke-width="0.891011" stroke-miterlimit="10"/>
    <path d="M53.4409 33.2199C53.4409 33.2199 51.4645 35.03 50.2837 34.9911C49.103 34.9522 46.3941 33.2199 46.3941 33.2199" stroke="#1B453C" stroke-width="0.891011" stroke-miterlimit="10"/>
    <path d="M36.4441 28.4653L36.4441 28.4653C34.8272 28.3488 33.2052 28.3217 31.5853 28.384C31.4031 28.3909 31.2708 28.3259 31.1833 28.2271C31.0948 28.1271 31.0493 27.9891 31.0495 27.8469C31.05 27.5619 31.2317 27.2785 31.5891 27.2649L31.5891 27.2649C33.2053 27.2027 34.8237 27.2297 36.4369 27.346C36.7946 27.3721 36.9764 27.663 36.9767 27.9483C36.9768 28.0906 36.9313 28.2267 36.8435 28.323C36.7569 28.4181 36.6256 28.4785 36.4441 28.4653Z" fill="#1B453C" stroke="#1B453C" stroke-width="0.0990012"/>
    <path d="M32.1096 34.4051L32.1095 34.4051C31.7836 34.5513 31.4766 34.3851 31.3319 34.1383C31.2598 34.0153 31.2311 33.8766 31.259 33.7527C31.2865 33.6307 31.3702 33.5168 31.5357 33.4424L31.5154 33.3973L31.5357 33.4424C32.9759 32.7947 34.4492 32.2234 35.9496 31.7309C36.1234 31.674 36.2679 31.7004 36.3779 31.7714C36.4893 31.8433 36.5696 31.9637 36.607 32.1009C36.6819 32.3758 36.5819 32.6993 36.2423 32.8102C34.8375 33.2684 33.458 33.8008 32.1096 34.4051Z" fill="#1B453C" stroke="#1B453C" stroke-width="0.0990012"/>
    <path d="M65.3781 28.6706L65.3526 28.6282C65.1961 28.7222 65.0462 28.7303 64.9184 28.6872C64.7892 28.6437 64.6789 28.5464 64.6071 28.4238C64.5352 28.3012 64.5037 28.1564 64.5281 28.0203C64.5523 27.8855 64.6319 27.7558 64.7891 27.6615C66.2178 26.8062 67.7125 26.0665 69.259 25.4495C69.4284 25.382 69.5682 25.401 69.6742 25.466C69.7819 25.532 69.8605 25.649 69.8977 25.7866C69.9724 26.0627 69.8761 26.3998 69.5457 26.5323L69.5456 26.5324C68.0943 27.1182 66.6921 27.819 65.3525 28.6283L65.3781 28.6706ZM65.3781 28.6706C64.7041 29.0753 64.087 28.0251 64.7637 27.619L69.5642 26.5783C68.1153 27.1631 66.7155 27.8628 65.3781 28.6706Z" fill="#1B453C" stroke="#1B453C" stroke-width="0.0990012"/>
    <path d="M65.8504 32.0285L65.8504 32.0284H65.8475H65.8463C65.4892 32.006 65.3079 31.7181 65.3076 31.4333C65.3074 31.291 65.353 31.1543 65.4411 31.0567C65.5281 30.9603 65.6599 30.8983 65.8418 30.9093L65.8418 30.9093C67.3371 30.9985 68.8163 31.158 70.3037 31.3785C70.4833 31.4052 70.5933 31.4917 70.651 31.6007C70.7096 31.7116 70.7174 31.8519 70.6791 31.9893C70.6022 32.2651 70.3471 32.5076 69.9948 32.4553C68.6195 32.2507 67.2376 32.1112 65.8504 32.0285Z" fill="#1B453C" stroke="#1B453C" stroke-width="0.0990012"/>
    <path d="M50.2901 8.58317L50.2901 8.58317L50.2901 8.58317ZM50.2901 8.58317C50.1092 8.60296 49.9795 8.54719 49.8945 8.45606C49.8081 8.36351 49.7633 8.22955 49.7639 8.08698C49.765 7.80083 49.9469 7.50209 50.3008 7.46353C51.4186 7.34207 52.544 7.30551 53.6674 7.35415C54.0256 7.36964 54.207 7.65416 54.2072 7.93913C54.2073 8.08136 54.1616 8.21913 54.0731 8.31856C53.9857 8.41682 53.8535 8.48115 53.6716 8.4733L50.2901 8.58317Z" fill="#1B453C" stroke="#1B453C" stroke-width="0.0990012"/>
    <path d="M66.9233 9.06648L66.9232 9.06648C66.7413 9.06366 66.608 8.99144 66.5194 8.88682C66.43 8.78121 66.3842 8.63998 66.3842 8.49781C66.3842 8.35562 66.43 8.21621 66.519 8.11387C66.607 8.0126 66.7398 7.94459 66.9217 7.94741L66.9219 7.94742C67.8361 7.95648 68.7405 8.13564 69.5891 8.47573C69.9195 8.6089 70.0151 8.94627 69.9401 9.22244C69.9027 9.36004 69.824 9.47699 69.7165 9.54284C69.6106 9.60764 69.4713 9.62645 69.3028 9.55871C68.5473 9.24757 67.7402 9.08062 66.9233 9.06648Z" fill="#1B453C" stroke="#1B453C" stroke-width="0.0990012"/>
    <path d="M52.7372 50.4437C52.7372 52.3612 51.0756 53.9212 49.0188 53.9212C46.9621 53.9212 45.3005 52.3612 45.3005 50.4437C45.3005 48.5262 46.9621 46.9662 49.0188 46.9662C51.0756 46.9662 52.7372 48.5262 52.7372 50.4437Z" fill="#FFD3B3" stroke="#1B453C" stroke-width="0.0990012"/>
    <mask id="mask1_2619_16067" style="mask-type:luminance" maskUnits="userSpaceOnUse" x="45" y="46" width="8" height="8">
      <path d="M52.7384 50.446C52.7384 52.3635 51.0768 53.9235 49.0201 53.9235C46.9633 53.9235 45.3017 52.3635 45.3017 50.446C45.3017 48.5285 46.9633 46.9686 49.0201 46.9686C51.0768 46.9686 52.7384 48.5285 52.7384 50.446Z" fill="white" stroke="white" stroke-width="0.0990012"/>
    </mask>
    <g mask="url(#mask1_2619_16067)">
      <path d="M48.7317 49.2281C49.195 49.2906 49.5978 49.4517 49.8747 49.6589C50.1531 49.8673 50.2952 50.1145 50.2633 50.3505C50.2314 50.5865 50.0289 50.7871 49.7052 50.9142C49.3833 51.0406 48.9522 51.089 48.4889 51.0265C48.0257 50.9639 47.6228 50.8029 47.3459 50.5957C47.0675 50.3873 46.9255 50.1401 46.9574 49.9041C46.9892 49.6681 47.1917 49.4674 47.5154 49.3403C47.8374 49.2139 48.2685 49.1655 48.7317 49.2281Z" fill="#1B453C" stroke="#1B453C" stroke-width="0.0990012"/>
      <path d="M48.6126 50.2528C48.1209 51.5416 47.9699 52.9353 48.1741 54.2995" stroke="#1B453C" stroke-width="0.693009" stroke-miterlimit="10"/>
    </g>
  </g>
  <defs>
    <filter id="filter0_d_2619_16067" x="0" y="0" width="140.998" height="175.829" filterUnits="userSpaceOnUse" color-interpolation-filters="sRGB">
      <feFlood flood-opacity="0" result="BackgroundImageFix"/>
      <feColorMatrix in="SourceAlpha" type="matrix" values="0 0 0 0 0 0 0 0 0 0 0 0 0 0 0 0 0 0 127 0" result="hardAlpha"/>
      <feOffset dy="31"/>
      <feGaussianBlur stdDeviation="15.5"/>
      <feColorMatrix type="matrix" values="0 0 0 0 0 0 0 0 0 0 0 0 0 0 0 0 0 0 0.09 0"/>
      <feBlend mode="normal" in2="BackgroundImageFix" result="effect1_dropShadow_2619_16067"/>
      <feBlend mode="normal" in="SourceGraphic" in2="effect1_dropShadow_2619_16067" result="shape"/>
    </filter>
  </defs>
</svg>