<svg xmlns="http://www.w3.org/2000/svg" width="123" height="176" viewBox="0 0 123 176" fill="none">
  <g filter="url(#filter0_d_2619_16107)">
    <path d="M91.9117 96.3805C92.3611 102.951 88.9029 109.694 82.7838 112.845C79.2906 114.64 76.8031 114.038 75.4625 112.538C74.1175 111.033 73.9116 108.611 75.0114 106.733C75.2856 106.265 75.7178 105.763 76.2505 105.227C76.7829 104.692 77.4134 104.126 78.0828 103.528C78.1266 103.489 78.1706 103.45 78.2147 103.41C79.5178 102.247 80.9508 100.969 82.0733 99.5817C83.2336 98.1481 84.0674 96.5928 84.0794 94.9236C84.0915 93.2566 83.284 91.488 81.1912 89.6243C81.1951 88.0528 81.6068 86.9425 82.017 86.2253C82.2232 85.8649 82.4291 85.6034 82.5831 85.4324C82.6601 85.3469 82.7241 85.284 82.7686 85.2427C82.7876 85.225 82.803 85.2113 82.8144 85.2015C82.8305 85.2088 82.8534 85.2193 82.8826 85.233C82.9457 85.2626 83.0385 85.3071 83.1568 85.3663C83.3935 85.4848 83.7323 85.6624 84.1407 85.8986C84.9574 86.3713 86.0516 87.0785 87.1615 88.0168C89.3821 89.8942 91.6593 92.6913 91.9117 96.3805Z" fill="#49437C" stroke="#49437C" stroke-width="0.0990012"/>
    <path d="M24.8361 80.3692C24.8535 80.3708 24.8755 80.3731 24.9023 80.3762C24.9816 80.3853 25.1024 80.4016 25.2677 80.4303C25.5984 80.4877 26.1068 80.5949 26.8162 80.7937C28.23 81.1899 30.4413 81.95 33.6324 83.4056C33.0931 87.173 32.215 89.8819 31.3259 91.6546C30.8799 92.5439 30.4317 93.1962 30.0234 93.6282C29.613 94.0623 29.25 94.2664 28.9747 94.2771C28.3846 94.3001 26.9376 94.3377 25.3688 94.3169C23.7989 94.2961 22.1112 94.2168 21.0373 94.0073C19.9801 93.8011 19.4465 93.1263 19.2041 92.3339C18.9606 91.5383 19.0119 90.6258 19.129 89.9581C19.1564 89.8021 19.243 89.6447 19.3796 89.4865C19.516 89.3284 19.7003 89.1719 19.9185 89.0179C20.3551 88.7098 20.9217 88.4159 21.4985 88.1412C21.7713 88.0114 22.0481 87.885 22.3139 87.7637C22.6064 87.6302 22.8854 87.5029 23.1307 87.3838C23.3662 87.2694 23.5743 87.1609 23.7388 87.0591C23.9018 86.9583 24.028 86.8606 24.0935 86.7661C24.1587 86.672 24.2162 86.499 24.2686 86.2771C24.3216 86.0527 24.371 85.7708 24.4167 85.4531C24.5081 84.8175 24.5855 84.035 24.6479 83.2746C24.7104 82.514 24.758 81.7749 24.7901 81.226C24.8061 80.9515 24.8182 80.7246 24.8263 80.5662C24.8304 80.4871 24.8334 80.425 24.8354 80.3828L24.8361 80.3692Z" fill="#49437C" stroke="#49437C" stroke-width="0.0990012"/>
    <path d="M35.9902 8.50339L35.9464 8.52641L35.9609 8.55408L35.9921 8.55285L35.9902 8.50339ZM35.9902 8.50339L35.9922 8.55285L35.9924 8.55284L35.9932 8.55281L35.9966 8.55268L36.01 8.55218L36.0631 8.55031C36.11 8.5487 36.1796 8.54644 36.2705 8.54383C36.4522 8.5386 36.7187 8.53193 37.058 8.52622C37.7366 8.51478 38.7061 8.50713 39.8695 8.52227C42.1965 8.55254 45.2984 8.67396 48.3995 9.03844L48.442 9.04343L48.4531 9.00214C48.8997 7.34249 49.8511 5.14605 50.9849 3.36354C51.5518 2.47229 52.1631 1.68655 52.778 1.12338C53.3941 0.559109 54.0073 0.224389 54.5786 0.221111C56.904 0.20777 59.0388 2.12047 59.7309 6.02036C60.0897 8.04232 61.078 12.7978 62.2464 18.4192C63.337 23.6664 64.5844 29.668 65.623 34.9054C62.3482 37.1152 56.8952 39.4441 50.4056 41.007C43.8986 42.5741 36.353 43.3701 28.9215 42.5054C25.2094 42.0735 22.4616 40.9388 20.4637 39.3825C18.4659 37.8263 17.2152 35.8464 16.5005 33.7196C15.0706 29.4641 15.7876 24.6211 16.964 21.4201C18.14 18.2201 20.2859 15.1735 22.1397 12.9254C23.0663 11.8018 23.9194 10.8783 24.5407 10.2359C24.8513 9.91469 25.104 9.66375 25.279 9.49317C25.3665 9.40788 25.4345 9.34269 25.4807 9.29884L25.5332 9.24925L25.5465 9.23676L25.5498 9.23365L25.5507 9.23288L25.5509 9.23269L25.5173 9.19635M35.9902 8.50339L35.9463 8.52635L35.9462 8.52615L35.9458 8.52533L35.9441 8.52202L35.9371 8.50889L35.9097 8.4574C35.8856 8.41218 35.8499 8.34564 35.8037 8.26043C35.7112 8.09 35.5766 7.84488 35.4079 7.54628C35.0706 6.94903 34.5975 6.13799 34.0541 5.28269C33.5106 4.42728 32.8972 3.52827 32.2795 2.7548C31.661 1.98033 31.0411 1.33561 30.4851 0.984943C29.3647 0.278391 28.4422 0.103012 27.7361 0.280523C27.0315 0.45766 26.5306 0.989251 26.258 1.72364C26.1219 2.09025 26.0098 2.73925 25.9187 3.51174C25.8278 4.28254 25.7584 5.17115 25.7062 6.01375C25.6541 6.85625 25.6192 7.65224 25.5974 8.23764C25.5865 8.53032 25.5788 8.77033 25.5739 8.93715C25.5714 9.02057 25.5696 9.08568 25.5685 9.12992L25.5672 9.18033L25.5669 9.19319L25.5668 9.19644L25.5668 9.19725L25.5668 9.19745L25.5173 9.19635M25.5173 9.19635L25.5509 9.23264L25.5663 9.21842L25.5668 9.19751L25.5173 9.19635Z" fill="#DAC9FA" stroke="#49437C" stroke-width="0.0990012"/>
    <path opacity="0.3" d="M53.9012 2.78254L53.9012 2.78254C54.2736 2.78979 54.6073 3.0856 54.9021 3.59184C55.1952 4.09531 55.4405 4.79182 55.641 5.56736C56.0417 7.11772 56.26 8.97121 56.3269 10.1946C56.3311 10.274 56.317 10.3534 56.2856 10.4266C56.2542 10.4997 56.2063 10.5646 56.1457 10.6162C56.0851 10.6679 56.0134 10.7048 55.9362 10.7242C55.859 10.7437 55.7784 10.745 55.7006 10.7282L55.7004 10.7281C54.6109 10.4956 53.2051 10.1322 52.071 9.82668C51.5041 9.67396 51.0054 9.53579 50.6484 9.43579C50.4698 9.3858 50.3268 9.34535 50.2283 9.3174L50.125 9.28798L50.1332 9.26226C50.1486 9.2139 50.1715 9.14291 50.2012 9.05254C50.2608 8.8718 50.3478 8.61356 50.4579 8.30376C50.678 7.68405 50.99 6.85848 51.3576 6.03429C51.7254 5.20961 52.1479 4.38854 52.5887 3.7766C52.8091 3.47058 53.0328 3.2188 53.2548 3.04503C53.4771 2.87107 53.6936 2.77845 53.9012 2.78254Z" fill="white" stroke="#49437C" stroke-width="0.0990012"/>
    <path opacity="0.3" d="M26.8142 1.75651L26.8143 1.7565C27.1654 1.63276 27.5802 1.7936 28.0315 2.166C28.4803 2.53634 28.9513 3.10488 29.4077 3.76343C30.32 5.07987 31.1668 6.74515 31.6545 7.87127C31.6858 7.94447 31.6998 8.02391 31.6955 8.10341C31.6912 8.18295 31.6687 8.26042 31.6296 8.32982C31.5905 8.39923 31.536 8.45872 31.4703 8.50368C31.4045 8.54863 31.3293 8.57785 31.2504 8.58907L31.2504 8.58908C30.1487 8.74723 28.7053 8.89196 27.5368 8.99717C26.9526 9.04977 26.4374 9.09248 26.0682 9.12203C25.8836 9.13681 25.7355 9.1483 25.6336 9.15609L25.528 9.16409L25.5275 9.13794C25.5267 9.08677 25.5256 9.01162 25.5248 8.91575C25.5231 8.72401 25.5223 8.44945 25.5261 8.11832C25.5335 7.45597 25.559 6.5677 25.6308 5.66341C25.7026 4.75862 25.8206 3.83998 26.0128 3.11596C26.1088 2.75384 26.2229 2.44271 26.3575 2.20695C26.4926 1.97035 26.6448 1.81608 26.8142 1.75651Z" fill="white" stroke="#49437C" stroke-width="0.0990012"/>
    <path d="M40.6542 90.3853L40.6131 90.296C38.5673 90.9512 34.925 90.9802 31.4806 89.5762C28.0388 88.1734 24.7974 85.3412 23.5444 80.2752C23.0437 78.2459 23.0454 75.6713 23.3527 72.8875C23.6599 70.1044 24.272 67.116 24.9895 64.2609C26.3476 58.8568 28.0822 53.9335 28.838 51.7884C28.8808 51.6668 28.9205 51.5541 28.9568 51.4508L28.9568 51.4508C30.3361 47.5139 30.9674 45.3176 30.2161 41.7586C32.7888 41.0416 41.6099 39.3538 49.8137 37.8408C53.9388 37.08 57.9066 36.3636 60.8431 35.8374C62.3114 35.5743 63.5219 35.3588 64.3653 35.209C64.7869 35.1341 65.1169 35.0757 65.3414 35.036L65.5973 34.9907L65.6395 34.9833C66.1848 37.1326 68.0154 41.0137 70.1865 45.1324C72.3739 49.2819 74.9101 53.6785 76.8353 56.8011C80.6815 63.0397 84.0767 70.8626 83.8658 80.7475C83.7603 85.6911 82.7755 88.8292 81.1782 90.9182C79.5814 93.0067 77.367 94.054 74.7847 94.8039C72.2024 95.5539 70.1156 95.8241 68.2984 95.9565C67.6141 96.0064 66.9665 96.0368 66.3445 96.066C65.3175 96.1141 64.3604 96.159 63.4231 96.283C62.7029 96.3783 61.9752 96.5246 61.2587 96.6687L61.1586 96.6888C60.4091 96.8393 59.6729 96.9847 58.9675 97.065C57.5558 97.2258 56.2789 97.1247 55.277 96.294C55.2045 96.2339 55.1331 96.1746 55.0629 96.1162C54.1504 95.3577 53.4223 94.7525 52.6677 94.4592C51.8481 94.1405 51.0011 94.1902 49.8588 94.7845C49.2997 95.0755 48.5215 95.2753 47.6418 95.4043C46.7629 95.5332 45.7864 95.5909 44.8329 95.5996C42.9243 95.617 41.1149 95.438 40.37 95.2434C39.6468 95.0545 39.0944 94.2296 39.0364 93.2482C38.9788 92.2718 39.4133 91.1504 40.6542 90.3853Z" fill="#DAC9FA" stroke="#49437C" stroke-width="0.0990012"/>
    <mask id="mask0_2619_16107" style="mask-type:luminance" maskUnits="userSpaceOnUse" x="23" y="34" width="61" height="64">
      <path d="M40.6552 90.3915L40.6141 90.3022C38.5683 90.9575 34.9259 90.9864 31.4815 89.5825C28.0398 88.1796 24.7984 85.3474 23.5454 80.2814C23.0446 78.2521 23.0464 75.6775 23.3536 72.8937C23.6608 70.1107 24.273 67.1223 24.9905 64.2671C26.3485 58.863 28.0832 53.9397 28.839 51.7946C28.8818 51.673 28.9215 51.5604 28.9578 51.4571L28.9578 51.457C30.3371 47.5201 30.9684 45.3238 30.217 41.7648C32.7898 41.0478 41.6109 39.36 49.8147 37.847C53.9398 37.0862 57.9076 36.3698 60.8441 35.8436C62.3124 35.5806 63.5229 35.365 64.3662 35.2152C64.7879 35.1404 65.1178 35.0819 65.3423 35.0422L65.5983 34.997L65.6405 34.9895C66.1857 37.1388 68.0164 41.02 70.1875 45.1386C72.3749 49.2881 74.9111 53.6847 76.8362 56.8073C80.6824 63.0459 84.0776 70.8688 83.8668 80.7538C83.7613 85.6973 82.7765 88.8354 81.1792 90.9244C79.5824 93.0129 77.3679 94.0602 74.7857 94.8101C72.2034 95.5601 70.1166 95.8303 68.2994 95.9628C67.6151 96.0127 66.9674 96.043 66.3454 96.0722C65.3185 96.1203 64.3614 96.1652 63.4241 96.2892C62.7038 96.3845 61.9762 96.5308 61.2596 96.6749L61.1596 96.695C60.4101 96.8456 59.6739 96.9909 58.9685 97.0713C57.5568 97.232 56.2798 97.1309 55.2779 96.3002C55.2054 96.2401 55.1341 96.1808 55.0639 96.1224C54.1514 95.364 53.4233 94.7588 52.6687 94.4654C51.8491 94.1467 51.0021 94.1964 49.8598 94.7907C49.3006 95.0817 48.5224 95.2815 47.6428 95.4105C46.7639 95.5394 45.7874 95.5971 44.8339 95.6058C42.9253 95.6233 41.1158 95.4442 40.371 95.2496C39.6478 95.0607 39.0953 94.2358 39.0374 93.2545C38.9797 92.2781 39.4143 91.1566 40.6552 90.3915Z" fill="white" stroke="white" stroke-width="0.0990012"/>
    </mask>
    <g mask="url(#mask0_2619_16107)">
      <path d="M65.7267 56.5648L65.7267 56.5647C65.1647 53.5671 66.2329 50.5944 67.4463 48.3669C68.0526 47.2538 68.6942 46.3286 69.1843 45.6816C69.4293 45.3581 69.6363 45.1043 69.782 44.9315C69.8549 44.8451 69.9124 44.7789 69.9516 44.7344C69.9583 44.7269 69.9644 44.72 69.9699 44.7137L69.9703 44.7144C69.9941 44.7492 70.0294 44.801 70.0754 44.869C70.1675 45.0051 70.3027 45.2061 70.475 45.4656C70.8198 45.9845 71.3133 46.7375 71.9081 47.6734C73.0978 49.5451 74.6926 52.1482 76.3135 55.0737C77.9345 57.9993 79.5811 61.2466 80.8745 64.4068C82.1625 67.5537 83.0989 70.6111 83.3126 73.1773C81.6683 73.9373 80.1929 74.138 78.8961 73.9577C77.5909 73.7763 76.4634 73.2086 75.5242 72.4317C73.6444 70.8766 72.5223 68.4857 72.2465 66.6927C72.1061 65.7802 71.6735 64.9518 71.0952 64.1583C70.5492 63.4094 69.8708 62.6885 69.1818 61.9563C69.1413 61.9132 69.1007 61.8701 69.0601 61.827C67.596 60.2699 66.1161 58.6501 65.7267 56.5648Z" fill="#49437C" stroke="#49437C" stroke-width="0.0990012"/>
      <path opacity="0.19" d="M79.1424 60.3208L94.2594 81.76L94.2351 81.7923C94.2047 81.8325 94.1594 81.8922 94.0997 81.9697C93.9805 82.1247 93.804 82.3512 93.5752 82.637C93.1176 83.2087 92.4507 84.0176 91.6139 84.9661C89.9402 86.8635 87.5874 89.3189 84.8702 91.5529C82.1525 93.7871 79.073 95.7976 75.946 96.8077C72.8468 97.8088 69.7043 97.8266 66.819 96.11C75.1764 91.6429 78.2499 82.6565 79.2348 74.7892C79.729 70.8422 79.698 67.1735 79.5435 64.4917C79.4662 63.1507 79.3581 62.0563 79.2692 61.2969C79.2248 60.9173 79.1852 60.6214 79.1567 60.4203C79.1516 60.3841 79.1468 60.3509 79.1424 60.3208Z" fill="#DAC9FA" stroke="#49437C" stroke-width="0.0990012"/>
      <path d="M55.1385 86.6852C55.8348 88.2497 57.1573 89.9366 59.6577 90.432C59.5792 90.559 59.457 90.6654 59.2972 90.7596C59.1137 90.8679 58.8841 90.9583 58.6223 91.0453C58.4522 91.1019 58.2682 91.1571 58.0756 91.2148C57.6795 91.3336 57.2468 91.4633 56.8228 91.6387C56.19 91.9005 55.5669 92.2673 55.0891 92.8613C54.6226 93.4413 54.2976 94.2341 54.2332 95.3483C54.1499 95.2945 54.064 95.2345 53.974 95.1707C53.9549 95.1571 53.9356 95.1433 53.916 95.1295C53.8179 95.0597 53.7149 94.9865 53.6064 94.914C53.346 94.7399 53.0514 94.568 52.7046 94.4499C52.0357 94.2221 51.1806 94.1972 50.0085 94.7226C51.6426 91.9449 52.7521 89.2008 53.4554 87.1404C53.8128 86.0932 54.0654 85.2223 54.2287 84.6132C54.3021 84.3393 54.3575 84.1182 54.3962 83.9579C54.4143 84.1152 54.4436 84.3261 54.4902 84.5759C54.5949 85.1373 54.7873 85.8962 55.1385 86.6852Z" fill="#49437C" stroke="#49437C" stroke-width="0.0990012"/>
      <path opacity="0.3" d="M38.2158 91.5456L38.2157 91.5451L38.2092 91.5476C36.2251 92.318 33.6632 92.1649 30.9295 91.4954C28.1971 90.8263 25.3006 89.6432 22.652 88.3624C20.0037 87.0817 17.6047 85.7039 15.8677 84.6462C14.9993 84.1174 14.2964 83.6687 13.8107 83.3522C13.5679 83.194 13.3793 83.0688 13.2515 82.9832C13.1876 82.9404 13.1389 82.9075 13.1062 82.8853L13.0909 82.8749L28.634 47.9947C28.6368 47.9924 28.6404 47.9894 28.6449 47.9859C28.658 47.9754 28.6783 47.9598 28.7061 47.9401C28.7617 47.9006 28.8472 47.8445 28.9659 47.7791C29.2031 47.6484 29.5729 47.4806 30.1001 47.3349C31.1543 47.0437 32.8391 46.8407 35.3535 47.2012C36.5942 47.3791 37.9295 48.4082 39.2245 50.0026C40.5178 51.5948 41.7636 53.742 42.8273 56.1388C44.9551 60.9337 46.3488 66.7165 45.9399 71.0371C45.7995 72.5203 45.7145 74.0433 45.6301 75.5571C45.5912 76.2551 45.5523 76.9513 45.5082 77.6406C45.3684 79.826 45.1755 81.9446 44.7584 83.8505C44.3413 85.7565 43.7006 87.4464 42.6675 88.7764C41.6352 90.1053 40.2092 91.0775 38.2158 91.5456Z" fill="white" stroke="#49437C" stroke-width="0.0990012"/>
    </g>
    <path d="M45.9308 77.7774C45.9156 77.9317 45.9005 78.0859 45.8854 78.2402L45.8583 61.6356C45.8583 61.6344 45.8583 61.6332 45.8583 61.632C45.8592 61.4516 45.9291 61.3196 46.0313 61.2318C46.1353 61.1426 46.2756 61.0968 46.4178 61.0969C46.5599 61.0969 46.7003 61.1429 46.8043 61.2322C46.9072 61.3206 46.9774 61.4537 46.9774 61.6356V61.6357C46.9852 67.0335 46.4576 72.4099 45.9308 77.7774Z" fill="#49437C" stroke="#49437C" stroke-width="0.0990012"/>
    <path d="M53.0709 89.5989C52.9584 89.9296 52.8509 90.2714 52.742 90.6176C52.2718 92.1121 51.7752 93.6907 50.7335 94.8313L53.0709 89.5989ZM53.0709 89.5989C53.7477 87.6256 54.3811 85.6401 54.9563 83.6357L53.0709 89.5989ZM53.8994 83.0809L53.8995 83.0807C54.9855 79.254 55.8348 75.353 56.2155 71.3877C56.2497 71.0321 56.5458 70.8504 56.8317 70.8498C56.9743 70.8495 57.109 70.8946 57.2028 70.9815C57.2953 71.0671 57.3527 71.1973 57.3351 71.3782L57.3351 71.3782C56.9375 75.5309 56.0585 79.6138 54.9087 83.622C54.3338 85.6255 53.7006 87.6102 53.0241 89.5829L53.0241 89.583C52.9107 89.9161 52.8029 90.2588 52.6939 90.6054C52.5138 91.1781 52.3303 91.7615 52.1128 92.3299C51.7646 93.2401 51.3325 94.1021 50.697 94.7979L50.697 94.798C50.5741 94.9327 50.4354 94.981 50.3044 94.9736C50.1718 94.9661 50.0422 94.9011 49.9418 94.8004C49.7406 94.5987 49.6675 94.2686 49.9093 94.0039L49.9093 94.0039C50.5425 93.3103 50.8512 92.431 51.1527 91.5723C51.1657 91.5353 51.1787 91.4984 51.1917 91.4615C51.5175 90.5382 51.8361 89.6131 52.1474 88.6862C52.7716 86.8314 53.3578 84.9643 53.8994 83.0809Z" fill="#49437C" stroke="#49437C" stroke-width="0.0990012"/>
    <path d="M62.3758 70.5638C60.4901 71.4697 58.7043 73.0432 57.3132 74.5991C55.9263 76.1502 55.1159 78.0609 54.6596 80.0733C54.2018 82.0929 53.7759 84.4332 54.5586 86.4053C55.2194 88.0695 56.5595 89.4079 58.1345 90.2384L58.1114 90.2822L58.1345 90.2384C60.2982 91.3802 62.7985 91.5942 65.2148 91.5577H65.2149C65.3964 91.5552 65.5296 91.4833 65.6182 91.3788C65.7077 91.2733 65.7537 91.1322 65.7538 90.99C65.754 90.8478 65.7083 90.7083 65.6194 90.6058C65.5314 90.5044 65.3985 90.4361 65.2163 90.4386M62.3758 70.5638L65.2156 90.3891L65.2163 90.4386M62.3758 70.5638L62.3759 70.5639C62.699 70.4086 63.0035 70.5696 63.1478 70.8158C63.2197 70.9386 63.2489 71.0786 63.2215 71.2052C63.1945 71.3301 63.1113 71.4475 62.9474 71.5263L62.9473 71.5263C61.7919 72.0843 60.8146 72.8758 59.8599 73.7127M62.3758 70.5638L58.1263 88.8814M65.2163 90.4386C62.7895 90.4752 60.2091 90.2768 58.0995 88.9231L58.1263 88.8814M65.2163 90.4386L59.8599 73.7127M58.1263 88.8814C56.1421 87.6078 55.1595 85.6332 55.3382 83.2876C55.5168 80.9421 56.0582 78.4153 57.3683 76.423C58.045 75.3903 58.9694 74.5579 59.8925 73.7499L59.8599 73.7127C59.8599 73.7127 59.8599 73.7127 59.8599 73.7127M58.1263 88.8814L58.0995 88.9231C56.1001 87.6397 55.1088 85.6476 55.2888 83.2839C55.4677 80.9347 56.0102 78.3982 57.327 76.3958C58.0079 75.3567 58.9372 74.5203 59.8599 73.7127" fill="#49437C" stroke="#49437C" stroke-width="0.0990012"/>
    <path d="M55.6276 92.0322L55.6276 92.0322L55.6281 92.0319C56.6669 91.5502 57.7537 91.1516 58.8381 90.7539C59.3455 90.5678 59.8524 90.3819 60.3536 90.1877H60.355L60.3637 90.1844C60.5329 90.1184 60.6731 90.1386 60.7798 90.2046C60.8881 90.2716 60.9672 90.3894 61.0048 90.527C61.0801 90.8032 60.9839 91.1382 60.6513 91.2669L60.6513 91.2669L56.955 92.6988L56.955 92.6988C56.4017 92.9133 55.88 93.1463 55.5127 93.5009C55.1421 93.8588 54.9314 94.3376 54.9936 95.0339C55.0096 95.2151 54.9512 95.3456 54.8579 95.4315C54.7632 95.5185 54.6282 95.5636 54.4858 95.5632C54.2001 95.5624 53.9058 95.3806 53.8741 95.0252C53.82 94.4061 53.9597 93.7855 54.2738 93.2492C54.588 92.713 55.0611 92.2877 55.6276 92.0322Z" fill="#49437C" stroke="#49437C" stroke-width="0.0990012"/>
    <path d="M41.9206 93.0607L41.9204 93.0612C41.6713 93.6323 41.5766 94.2588 41.6458 94.8779C41.6623 95.0593 41.6044 95.1897 41.5115 95.2755C41.4172 95.3625 41.2824 95.4076 41.14 95.4071C40.8544 95.4062 40.5594 95.224 40.5263 94.8686C40.4592 94.0615 40.6024 93.251 40.9416 92.516H40.9461L40.9593 92.4869C41.0189 92.3551 41.147 92.2694 41.2954 92.2353C41.4441 92.2011 41.6052 92.2209 41.7224 92.2911L41.7225 92.2911C41.9982 92.456 42.0488 92.7749 41.9206 93.0607Z" fill="#49437C" stroke="#49437C" stroke-width="0.0990012"/>
    <path d="M44.9505 92.5385L44.9944 92.5614L44.9505 92.5385ZM44.9505 92.5385L44.9944 92.5613L44.9505 92.5385ZM45.9582 93.1315L46.0021 93.1543L45.9582 93.1314C45.9582 93.1314 45.9582 93.1315 45.9582 93.1315Z" fill="#49437C" stroke="#49437C" stroke-width="0.0990012"/>
    <path d="M41.8658 42.5576C48.6264 41.759 57.4361 39.768 65.6479 34.9995C66.0894 36.2687 66.6066 37.5719 67.0155 38.5625C67.223 39.0652 67.4027 39.4875 67.5305 39.7842C67.5944 39.9326 67.6454 40.0495 67.6804 40.1294L67.7166 40.212L67.7068 40.2178C67.6754 40.2364 67.6283 40.264 67.566 40.2999C67.4414 40.3718 67.2557 40.4769 67.0117 40.6098C66.5237 40.8756 65.8026 41.2526 64.8705 41.6967C63.0065 42.5849 60.2992 43.7419 56.9267 44.8161C50.1868 46.9631 40.7918 48.7795 30.1638 47.462C29.988 47.1588 29.911 46.7328 29.898 46.2564C29.8847 45.7706 29.9381 45.2387 30.0156 44.7446C30.093 44.2507 30.1943 43.7959 30.2763 43.4645C30.3173 43.2988 30.3534 43.1641 30.3793 43.0708C30.392 43.0248 30.4023 42.9888 30.4094 42.9643L30.4241 42.9654C30.4605 42.9682 30.5146 42.972 30.5859 42.9767C30.7284 42.986 30.9394 42.9984 31.2137 43.0107C31.7623 43.0354 32.5641 43.06 33.5776 43.0596C35.6046 43.0588 38.4782 42.9579 41.8658 42.5576Z" fill="#F6D053" stroke="#49437C" stroke-width="0.0990012"/>
    <path d="M22.2897 22.3168C22.3401 22.2727 22.4458 22.2275 22.6035 22.1851C22.7585 22.1435 22.956 22.1065 23.1825 22.0746C23.6353 22.0107 24.1996 21.9672 24.7632 21.9452C25.3267 21.9232 25.8881 21.9225 26.3349 21.944C26.5584 21.9547 26.7523 21.971 26.9032 21.9926C26.9786 22.0035 27.0425 22.0155 27.0934 22.0287C27.1453 22.0421 27.1804 22.0559 27.2007 22.0685C27.2367 22.091 27.2722 22.1483 27.2946 22.2489C27.3165 22.347 27.3236 22.4761 27.3126 22.6267C27.2907 22.9274 27.1972 23.3059 27.015 23.6767C26.6511 24.4173 25.9376 25.1211 24.742 25.1211C23.5436 25.1211 22.8451 24.4922 22.4896 23.8236C22.3113 23.4885 22.2197 23.1437 22.1952 22.864C22.183 22.7241 22.1877 22.602 22.2059 22.5064C22.2246 22.4088 22.2558 22.3465 22.2897 22.3168Z" fill="#1B453C" stroke="#49437C" stroke-width="0.0990012"/>
    <path d="M39.7672 22.3169C39.8179 22.2727 39.9238 22.2275 40.0815 22.1851C40.2367 22.1435 40.4343 22.1065 40.6609 22.0746C41.1138 22.0107 41.6783 21.9672 42.242 21.9452C42.8055 21.9232 43.3671 21.9225 43.8139 21.944C44.0373 21.9547 44.2313 21.971 44.3821 21.9926C44.4575 22.0035 44.5214 22.0155 44.5724 22.0287C44.6243 22.0421 44.6594 22.0559 44.6797 22.0685C44.7157 22.091 44.7512 22.1483 44.7736 22.2489C44.7954 22.347 44.8026 22.4761 44.7916 22.6267C44.7697 22.9274 44.6761 23.3059 44.4939 23.6767C44.13 24.4173 43.4166 25.1211 42.2209 25.1211C41.0226 25.1211 40.324 24.4922 39.9683 23.8236C39.79 23.4885 39.6982 23.1437 39.6736 22.864C39.6613 22.7241 39.6659 22.602 39.684 22.5063C39.7025 22.4087 39.7336 22.3464 39.7673 22.3168L39.7347 22.2796L39.7672 22.3169Z" fill="#1B453C" stroke="#49437C" stroke-width="0.0990012"/>
    <path d="M33.8978 28.9452C33.8978 28.9452 32.8052 30.7509 32.157 30.7094C31.5088 30.6678 30.0284 28.9295 30.0284 28.9295" stroke="#49437C" stroke-width="0.891011" stroke-miterlimit="10"/>
    <path d="M35.4417 33.3876C35.4417 33.3876 33.4652 35.1977 32.2844 35.1588C31.1036 35.1199 28.3946 33.3876 28.3946 33.3876" stroke="#49437C" stroke-width="0.891011" stroke-miterlimit="10"/>
    <path d="M18.4442 28.6327L18.4442 28.6327C16.8273 28.5162 15.2052 28.489 13.5853 28.5514C13.4031 28.5583 13.2708 28.4933 13.1833 28.3945C13.0948 28.2945 13.0493 28.1565 13.0495 28.0142C13.05 27.7292 13.2317 27.4459 13.5891 27.4322L13.5891 27.4322C15.2054 27.37 16.8238 27.3971 18.4371 27.5134C18.7948 27.5395 18.9765 27.8304 18.9769 28.1157C18.977 28.258 18.9315 28.3941 18.8437 28.4904C18.7571 28.5855 18.6258 28.6459 18.4442 28.6327Z" fill="#49437C" stroke="#49437C" stroke-width="0.0990012"/>
    <path d="M14.1096 34.5727L14.1096 34.5727C13.7836 34.7189 13.4766 34.5528 13.3319 34.306C13.2598 34.1829 13.2311 34.0443 13.259 33.9204C13.2865 33.7984 13.3702 33.6845 13.5357 33.6101L13.5154 33.5649L13.5357 33.6101C14.9759 32.9624 16.4493 32.391 17.9497 31.8985C18.1235 31.8416 18.268 31.868 18.3781 31.939C18.4895 32.0109 18.5697 32.1313 18.6071 32.2685C18.682 32.5434 18.5821 32.8669 18.2425 32.9779C16.8376 33.4361 15.4581 33.9685 14.1096 34.5727Z" fill="#49437C" stroke="#49437C" stroke-width="0.0990012"/>
    <path d="M51.5468 26.6998L51.5469 26.6997C51.8773 26.5672 51.9735 26.2301 51.8988 25.954C51.8616 25.8164 51.783 25.6994 51.6753 25.6334C51.5693 25.5684 51.4295 25.5493 51.2602 25.6169M51.5468 26.6998L51.2602 25.6169M51.5468 26.6998C50.0954 27.2856 48.6932 27.9865 47.3535 28.7957L47.3791 28.8381L47.3536 28.7957C47.1971 28.8896 47.0472 28.8978 46.9194 28.8547C46.7902 28.8111 46.6799 28.7139 46.6081 28.5913C46.5362 28.4687 46.5047 28.3238 46.5291 28.1877C46.5533 28.0529 46.6329 27.9233 46.7901 27.8289L46.7646 27.7865L46.7901 27.8289C48.2188 26.9736 49.7136 26.2339 51.2602 25.6169M51.5468 26.6998L51.2418 25.5709L51.2602 25.6169" fill="#49437C" stroke="#49437C" stroke-width="0.0990012"/>
    <path d="M47.8514 32.1962L47.8514 32.1961H47.8485H47.8473C47.4902 32.1736 47.3089 31.8857 47.3085 31.6009C47.3084 31.4587 47.354 31.3219 47.4421 31.2243C47.5291 31.1279 47.6609 31.0659 47.8428 31.0769L47.8428 31.0769C49.3381 31.1661 50.8174 31.3257 52.3048 31.5461C52.4845 31.5728 52.5944 31.6593 52.6521 31.7683C52.7108 31.8792 52.7186 32.0196 52.6803 32.157C52.6033 32.4328 52.3482 32.6752 51.9959 32.6229C50.6206 32.4183 49.2387 32.2788 47.8514 32.1962Z" fill="#49437C" stroke="#49437C" stroke-width="0.0990012"/>
    <path d="M32.2906 8.74996L32.2906 8.74996L32.2906 8.74996ZM32.2906 8.74996C32.1097 8.76975 31.98 8.71398 31.895 8.62284C31.8086 8.53029 31.7638 8.39632 31.7643 8.25375C31.7655 7.9676 31.9474 7.66884 32.3013 7.63028C33.4192 7.50882 34.5446 7.47225 35.668 7.5209C36.0262 7.53639 36.2077 7.82092 36.2078 8.10589C36.2079 8.24813 36.1622 8.38591 36.0737 8.48534C35.9863 8.58361 35.8541 8.64793 35.6722 8.64008L32.2906 8.74996Z" fill="#49437C" stroke="#49437C" stroke-width="0.0990012"/>
    <path d="M51.6087 8.59669L51.5902 8.6426C51.9206 8.77577 52.0162 9.11316 51.9412 9.38935C51.9038 9.52695 51.8251 9.64391 51.7176 9.70976C51.6117 9.77456 51.4724 9.79338 51.3039 9.72563C50.5483 9.41448 49.7412 9.24752 48.9243 9.23339L48.9242 9.23339C48.7423 9.23056 48.609 9.15834 48.5204 9.05372C48.431 8.9481 48.3852 8.80687 48.3852 8.6647C48.3852 8.52251 48.431 8.38309 48.52 8.28074C48.608 8.17947 48.7408 8.11146 48.9227 8.11428L48.9229 8.11429C49.8371 8.12335 50.7416 8.30252 51.5902 8.64264L51.6087 8.59669ZM51.6087 8.59669C52.3273 8.88633 52.012 10.0638 51.2852 9.77148L48.9234 8.06479C49.8438 8.07391 50.7543 8.25429 51.6087 8.59669Z" fill="#49437C" stroke="#49437C" stroke-width="0.0990012"/>
    <path d="M34.7379 50.6118C34.7379 52.5294 33.0762 54.0893 31.0194 54.0893C28.9626 54.0893 27.301 52.5294 27.301 50.6118C27.301 48.6942 28.9626 47.1342 31.0194 47.1342C33.0762 47.1342 34.7379 48.6942 34.7379 50.6118Z" fill="#FFD3B3" stroke="#49437C" stroke-width="0.0990012"/>
    <mask id="mask1_2619_16107" style="mask-type:luminance" maskUnits="userSpaceOnUse" x="27" y="47" width="8" height="8">
      <path d="M34.7379 50.6145C34.7379 52.532 33.0762 54.092 31.0194 54.092C28.9626 54.092 27.301 52.532 27.301 50.6145C27.301 48.6969 28.9626 47.1369 31.0194 47.1369C33.0762 47.1369 34.7379 48.6969 34.7379 50.6145Z" fill="white" stroke="white" stroke-width="0.0990012"/>
    </mask>
    <g mask="url(#mask1_2619_16107)">
      <path d="M30.7323 49.3966C31.1956 49.4592 31.5984 49.6202 31.8753 49.8274C32.1537 50.0358 32.2958 50.283 32.2639 50.519C32.232 50.7551 32.0295 50.9557 31.7058 51.0828C31.3838 51.2092 30.9527 51.2576 30.4895 51.1951C30.0262 51.1325 29.6234 50.9715 29.3465 50.7642C29.068 50.5558 28.926 50.3087 28.9579 50.0726C28.9897 49.8366 29.1922 49.6359 29.516 49.5089C29.8379 49.3825 30.269 49.3341 30.7323 49.3966Z" fill="#1B453C" stroke="#49437C" stroke-width="0.0990012"/>
      <path d="M30.6131 50.4214C30.1214 51.7102 29.9704 53.104 30.1746 54.4682" stroke="#49437C" stroke-width="0.693009" stroke-miterlimit="10"/>
    </g>
  </g>
  <defs>
    <filter id="filter0_d_2619_16107" x="-18" y="0.166626" width="141" height="175.833" filterUnits="userSpaceOnUse" color-interpolation-filters="sRGB">
      <feFlood flood-opacity="0" result="BackgroundImageFix"/>
      <feColorMatrix in="SourceAlpha" type="matrix" values="0 0 0 0 0 0 0 0 0 0 0 0 0 0 0 0 0 0 127 0" result="hardAlpha"/>
      <feOffset dy="31"/>
      <feGaussianBlur stdDeviation="15.5"/>
      <feColorMatrix type="matrix" values="0 0 0 0 0 0 0 0 0 0 0 0 0 0 0 0 0 0 0.09 0"/>
      <feBlend mode="normal" in2="BackgroundImageFix" result="effect1_dropShadow_2619_16107"/>
      <feBlend mode="normal" in="SourceGraphic" in2="effect1_dropShadow_2619_16107" result="shape"/>
    </filter>
  </defs>
</svg>