<svg width="79" height="66" viewBox="0 0 79 66" fill="none" xmlns="http://www.w3.org/2000/svg">
<mask id="mask0_4400_2863" style="mask-type:alpha" maskUnits="userSpaceOnUse" x="26" y="29" width="45" height="35">
<path d="M27.4829 48.8733C29.7105 41.536 32.8545 33.8801 35.9008 31.8165C45.9154 30.5936 66.7987 29.2943 68.2609 31.8165C69.7231 34.3387 70.3171 38.7907 70.4314 40.7015C70.4314 42.7077 70.3628 47.7063 70.0886 51.65C69.8145 55.5938 68.9463 59.0255 68.5465 60.2484C68.0895 61.1274 66.673 62.3579 64.6625 60.2484C62.7749 58.268 62.3171 54.8863 62.3155 53.1677C62.2723 55.1109 61.9996 58.9268 61.1783 60.879C60.3101 62.9426 58.0749 62.5413 57.0659 62.0827C53.8216 59.9733 52.0586 55.3187 51.5826 53.2551C51.8568 56.2817 51.5256 57.3684 50.4023 57.7887C52.2301 58.3046 52.8012 62.0528 49.7169 62.3745C39.1157 63.4801 34.9583 63.0956 32.1786 61.4142C29.475 59.1786 25.4921 55.4306 27.4829 48.8733Z" fill="#D9D9D9"/>
<path d="M50.4023 57.7887C52.2301 58.3046 52.8012 62.0528 49.7169 62.3745C39.1157 63.4801 34.9583 63.0956 32.1786 61.4142C29.475 59.1786 25.4921 55.4306 27.4829 48.8733C29.7105 41.536 32.8545 33.8801 35.9008 31.8165C45.9154 30.5936 66.7987 29.2943 68.2609 31.8165C69.7231 34.3387 70.3171 38.7907 70.4314 40.7015C70.4314 42.7077 70.3628 47.7063 70.0887 51.65C69.8145 55.5938 68.9463 59.0255 68.5465 60.2484C68.0895 61.1274 66.673 62.3579 64.6625 60.2484C62.652 58.1389 62.2636 54.4397 62.3207 52.8538C62.3016 54.669 62.0465 58.8153 61.1783 60.879C60.3101 62.9426 58.0749 62.5413 57.0659 62.0827C53.8216 59.9733 52.0586 55.3187 51.5826 53.2551M50.4023 57.7887C51.5256 57.3684 51.8568 56.2817 51.5826 53.2551M50.4023 57.7887C48.2509 58.3237 41.1987 59.5147 37.5888 57.9555M51.5826 53.2551C50.8401 50.752 45.665 43.2923 39.2221 46.6399" stroke="black"/>
</mask>
<g mask="url(#mask0_4400_2863)">
<path d="M28.1143 43.6621C31.4128 37.6608 33.0583 34.2135 34.8143 31.8605C44.8547 30.6388 66.8289 29.3408 68.2949 31.8604C69.7609 34.3801 70.3564 38.8276 70.4709 40.7364C70.4709 42.7407 70.4022 47.7342 70.1274 51.674C69.8525 55.6138 68.9821 59.042 68.5812 60.2637C68.1231 61.1417 66.7029 62.371 64.6872 60.2637C62.7948 58.2852 62.3358 54.907 62.3341 53.1901C62.2908 55.1313 62.0175 58.9434 61.1941 60.8936C60.3237 62.9551 58.0827 62.5543 57.071 62.0961C53.8184 59.9888 52.0508 55.3389 51.5736 53.2774C51.8485 56.301 49.6648 57.8967 48.5386 58.3167C49.3174 60.1033 48.6342 61.605 47.9852 61.9295C38.2731 64.9531 32.7909 62.5732 30.0041 60.8935C27.2935 58.6602 24.8159 49.6634 28.1143 43.6621Z" fill="#91897D"/>
<path d="M35.9014 32.0942L33.8398 33.2395C36.3022 35.9882 47.1252 37.3053 47.1825 36.9045C47.2283 36.5838 47.6597 35.4729 47.8697 34.9575L35.9014 32.0942Z" fill="#7B766E"/>
<path d="M46.2656 47.499C49.3579 42.9751 44.0704 42.4545 48.4797 33.5785C48.4797 33.5785 68.8659 25.7333 69.8967 30.5435C70.9275 35.3537 70.5266 36.0409 70.8702 43.428L72.989 61.2373C63.8201 56.7199 57.7566 80.8791 51.2284 51.9605C49.2242 48.8682 47.6972 48.4725 46.2656 47.499Z" fill="#FAEDC4"/>
<path d="M44.3777 58.9594C42.1268 59.0457 42.8146 62.197 43.4398 63.7618L51.2186 63.4381C53.0759 61.4955 54.069 56.3873 50.5824 57.2075C47.0957 58.0277 45.6098 59.1932 44.3777 58.9594Z" fill="#FAEDC4"/>
<path d="M62.8274 51.123C63.698 51.206 64.4866 51.0316 65.2748 50.7774C66.0862 50.5158 66.504 51.1064 65.7512 51.5065C64.4107 52.2189 62.6454 52.5333 61.9781 51.919C61.5432 51.5187 62.239 51.0669 62.8274 51.123Z" fill="#DCD0AA"/>
<path d="M62.2419 55.1857L61.7578 51.46L64.0483 51.8193L62.2419 55.1857Z" fill="#DCD0AA"/>
<path d="M50.2927 57.1344C49.4192 57.1987 48.6519 57.8788 48.579 58.6535C48.506 59.4281 49.155 60.004 50.0285 59.9397L50.2927 57.1344ZM50.0285 59.9397C50.221 59.9255 50.6393 59.9207 51.1209 59.9769C51.6068 60.0336 52.0662 60.142 52.4052 60.3058L54.2603 57.781C52.8665 57.1075 51.0451 57.079 50.2927 57.1344L50.0285 59.9397Z" fill="#CBBF9A"/>
<path d="M61.8261 60.5866C61.7025 59.7809 60.9293 59.2395 60.0991 59.3773C59.269 59.5151 58.6962 60.28 58.8198 61.0857L61.8261 60.5866ZM58.8198 61.0857C58.8297 61.1501 58.8374 61.3474 58.7862 61.5512C58.7366 61.7489 58.667 61.8216 58.6374 61.8441L60.4731 64.1642C61.232 63.5883 61.5826 62.8137 61.7378 62.1954C61.8916 61.583 61.8888 60.9955 61.8261 60.5866L58.8198 61.0857Z" fill="#CBBF9A"/>
<path d="M69.5163 59.7243C69.3602 58.9242 68.5657 58.4146 67.7418 58.5859C66.9179 58.7572 66.3766 59.5447 66.5327 60.3447L69.5163 59.7243ZM66.5327 60.3447C66.5452 60.4087 66.5609 60.6056 66.518 60.8112C66.4764 61.0108 66.4099 61.0862 66.3812 61.1099L68.3093 63.3537C69.0443 62.7476 69.3632 61.9594 69.4933 61.3353C69.6221 60.7172 69.5956 60.1303 69.5163 59.7243L66.5327 60.3447Z" fill="#CBBF9A"/>
<path d="M49.7263 58.8598C48.9701 59.1379 48.6653 59.9799 49.0456 60.7407C49.426 61.5014 50.3473 61.8927 51.1036 61.6147L49.7263 58.8598ZM51.1036 61.6147C51.3717 61.5162 51.8573 61.3713 52.3687 61.2847C52.9333 61.189 53.2924 61.2066 53.4186 61.2423L53.9648 58.4356C53.0988 58.191 52.159 58.2831 51.5029 58.3942C50.7937 58.5144 50.1371 58.7088 49.7263 58.8598L51.1036 61.6147Z" fill="#CBBF9A"/>
<path d="M59.908 60.5671C59.5945 59.8122 58.7179 59.4746 57.9498 59.8131C57.1818 60.1515 56.8133 61.0379 57.1267 61.7928L59.908 60.5671ZM57.1267 61.7928C57.1499 61.8488 57.1843 61.9475 57.2137 62.0708C57.243 62.1937 57.2614 62.3164 57.2658 62.4246C57.2704 62.5364 57.2585 62.5959 57.2542 62.6112C57.2519 62.6195 57.2677 62.5604 57.3366 62.491L59.4356 64.5618C60.1954 63.7962 60.2924 62.8151 60.2673 62.2009C60.2407 61.5515 60.0678 60.952 59.908 60.5671L57.1267 61.7928Z" fill="#CBBF9A"/>
<path d="M67.0574 59.1864C66.4026 58.6972 65.4764 58.8544 64.9887 59.5375C64.501 60.2206 64.6365 61.1709 65.2914 61.6601L67.0574 59.1864ZM65.2914 61.6601C65.3399 61.6964 65.4199 61.7637 65.5081 61.8547C65.596 61.9454 65.6744 62.0416 65.7335 62.1323C65.7945 62.2262 65.8147 62.2834 65.8188 62.2987C65.821 62.307 65.8044 62.2482 65.8282 62.1533L68.6902 62.8627C68.9528 61.8165 68.5354 60.9233 68.2003 60.4079C67.846 59.863 67.3914 59.4358 67.0574 59.1864L65.2914 61.6601Z" fill="#CBBF9A"/>
<path d="M47.125 36.962L47.7549 35.015L68.6565 31.1782L69.6873 33.4115C60.4104 37.7637 53.3096 36.962 47.125 36.962Z" fill="#E7DAAF"/>
</g>
<path d="M49.5969 56.2302C49.7849 56.0509 49.9682 55.861 50.1462 55.6594C50.7922 54.9281 52.0847 55.1894 51.789 56.1192C51.511 56.993 50.9738 57.6328 50.2684 58.1112C49.2866 58.7773 48.7385 57.0492 49.5969 56.2302Z" fill="#888177"/>
<path d="M42.1006 46C48.6428 47.9669 51.7888 52.0166 51.9444 53.6364C52.3613 57.9753 50.3344 58.3032 49.1319 58.7274C46.8289 59.2674 45.1577 59.7107 41 60" stroke="#82796D" stroke-width="4" stroke-linecap="round"/>
<mask id="mask1_4400_2863" style="mask-type:alpha" maskUnits="userSpaceOnUse" x="67" y="1" width="10" height="11">
<path d="M71.9871 1.10134C71.8477 1.11612 71.7072 1.13237 71.5659 1.15001C67.301 1.68247 66.1555 6.88215 69.2187 9.89707C72.334 12.9632 77.2849 11.4995 76.7878 7.15677C76.6721 6.14595 76.5068 5.20072 76.3183 4.35022C75.8638 2.29917 74.0762 0.87987 71.9871 1.10134Z" fill="#EEA226"/>
</mask>
<g mask="url(#mask1_4400_2863)">
<path d="M76.9553 9.61921C76.9455 9.14431 76.9225 8.67749 76.8885 8.22112C76.5508 3.6944 72.2706 0.783422 67.8582 1.84955C65.2617 2.47695 64.8266 5.57428 66.7305 7.44809L70.9776 11.6282C73.2855 13.8996 77.0222 12.8566 76.9553 9.61921Z" fill="#91897D"/>
<path d="M74.4816 4.57346C76.4498 8.01827 75.3017 12.5184 74.4816 14.3378L66.7496 6.5142C69.6081 4.42791 73.0953 4.35109 74.4816 4.57346Z" fill="#F5C6D8"/>
</g>
<mask id="mask2_4400_2863" style="mask-type:alpha" maskUnits="userSpaceOnUse" x="29" y="1" width="11" height="11">
<path d="M30.9514 3.41492C30.4884 4.57872 30.1855 5.79065 30.0029 6.99383C29.3554 11.261 34.2801 12.8461 37.46 9.92779C40.6652 6.98627 39.6241 1.58078 35.2918 1.18487C34.9499 1.15362 34.6319 1.1337 34.3379 1.12325C32.8212 1.06933 31.5124 2.00481 30.9514 3.41492Z" fill="#EEA226"/>
</mask>
<g mask="url(#mask2_4400_2863)">
<path d="M30.0514 6.69123C29.9824 7.10037 29.9277 7.50905 29.8857 7.91504C29.486 11.7807 33.9128 13.1832 36.7761 10.5554L39.2639 8.27224C41.64 6.09169 38.6401 1.51425 35.4307 1.19806C31.7326 0.833718 30.6691 3.02699 30.0514 6.69123Z" fill="#91897D"/>
<path d="M31.2542 6.21527C31.1365 6.73808 31.0665 7.26663 31.0346 7.79056C30.855 10.7344 34.3299 11.5087 36.403 9.41099C38.2085 7.5841 37.8913 4.53879 35.3613 4.09542C35.055 4.04175 34.7578 4.00181 34.4733 3.97334C32.976 3.82357 31.5845 4.74726 31.2542 6.21527Z" fill="#F5C6D8"/>
</g>
<mask id="mask3_4400_2863" style="mask-type:alpha" maskUnits="userSpaceOnUse" x="27" y="0" width="51" height="36">
<path d="M47.736 1.68202C37.8407 4.15585 33.8244 9.8686 31.9883 12.6768C30.0413 15.6546 28.4951 17.8879 28.2088 22.5263C27.923 27.156 31.6351 30.5643 36.9703 33.063C41.4942 35.1818 51.0001 35.2773 55.8676 34.9528C62.663 34.6283 75.5666 31.5169 77.0555 23.3853C78.5863 15.0249 73.1615 9.20697 70.5274 7.0649C67.0533 4.23984 57.6314 -0.791809 47.736 1.68202Z" fill="#D9D9D9" stroke="black"/>
</mask>
<g mask="url(#mask3_4400_2863)">
<path d="M47.736 1.68202C37.8407 4.15585 33.8244 9.8686 31.9883 12.6768C30.0413 15.6546 28.4951 17.8879 28.2088 22.5263C27.923 27.156 31.6351 30.5643 36.9703 33.063C41.4942 35.1818 51.0001 35.2773 55.8676 34.9528C62.663 34.6283 75.5666 31.5169 77.0555 23.3853C78.5863 15.0249 73.1615 9.20697 70.5274 7.0649C67.0533 4.23984 57.6314 -0.791809 47.736 1.68202Z" fill="#FAEDC4"/>
<path d="M50.4595 16.3933C47.7697 23.9925 33.9229 26.2827 27.3356 26.4778C21.5718 9.77011 39.6638 0.872358 50.4595 -1.40479C50.894 1.3061 53.1493 8.79419 50.4595 16.3933Z" fill="#91897D"/>
<path d="M61.7855 20.0559C56.1506 15.9328 55.9055 4.18785 56.8599 -0.546026C71.5655 -4.25677 80.95 12.4779 83.4315 20.6858C78.564 22.1938 67.4203 24.179 61.7855 20.0559Z" fill="#91897D"/>
</g>
<ellipse cx="43.0027" cy="17.4445" rx="2.5451" ry="2.34417" transform="rotate(-23.2851 43.0027 17.4445)" fill="#562528"/>
<ellipse cx="2.38156" cy="2.19354" rx="2.38156" ry="2.19354" transform="matrix(-0.918549 -0.395307 -0.395307 0.918549 70.1094 15.71)" fill="#562528"/>
<path d="M53.7863 24.4858L53.7817 26.3278M53.7817 26.3278C53.4091 27.2175 52.7325 27.7337 50.6766 27.7225C49.1554 27.7143 48.2679 27.378 48.1759 25.9976M53.7817 26.3278C54.1632 27.1367 54.8909 27.9781 57.6099 27.5825C58.5905 27.4399 59.5023 27.1459 59.5422 25.4071" stroke="#562528" stroke-linecap="round"/>
<path d="M52.5216 24.2054C53.1728 25.0877 54.4567 25.0437 54.9733 24.1214C55.5522 23.0877 54.751 21.7549 53.5735 21.7928C52.3933 21.8309 51.7901 23.2143 52.5216 24.2054Z" fill="#DC96B0"/>
<path d="M24.5535 47.8616C24.206 52.1017 26.0162 54.1154 27.5282 55.3666C28.8311 53.8737 31.3707 51.0136 30.2637 50.6253C29.1568 50.237 29.0989 47.4145 28.9635 45.8016L28.5223 40.5449C27.5011 33.7127 23.2608 33.0921 20.476 33.7586C17.6912 34.4251 16.7771 37.2452 15.9321 39.6221C14.5485 43.7085 18.0098 45.5836 21.6929 45.2744C24.6394 45.0271 25.0909 42.8382 24.9026 40.8488C25.3305 43.5079 24.6625 46.5322 24.5535 47.8616Z" fill="#91897D"/>
<path d="M23.9915 39.2682C24.3246 39.6984 24.6602 40.3099 24.9911 41.1418C24.4408 40.1708 23.3082 38.3857 23.9915 39.2682Z" fill="#7B766E"/>
<circle cx="68.5" cy="16.5" r="0.5" fill="white"/>
<circle cx="44.5" cy="16.5" r="0.5" fill="white"/>
</svg>
