<svg width="41" height="59" viewBox="0 0 41 59" fill="none" xmlns="http://www.w3.org/2000/svg">
<g id="cereal bag (questionable)">
<path id="Vector 119" d="M11.9562 1.20662L7.23986 2.51671C5.90944 2.88627 5.07223 4.20007 5.29924 5.56208L6.08975 10.3052C6.16215 10.7396 6.1272 11.1851 5.98793 11.6029L5.03856 14.451C4.94679 14.7263 4.9 15.0146 4.9 15.3048V23.2163C4.9 23.4269 4.87536 23.6368 4.82658 23.8417L2.80676 32.325C2.75798 32.5298 2.73333 32.7397 2.73333 32.9503V36.5333V45.6285C2.73333 45.9187 2.68655 46.207 2.59478 46.4823L1.2846 50.4129C1.09986 50.9671 1.09987 51.5663 1.28461 52.1205L2.11794 54.6205C2.48545 55.723 3.51722 56.4667 4.67938 56.4667H16.1667H22.2333L34.9314 57.6571C35.6768 57.727 36.4177 57.4843 36.9772 56.9869L38.7483 55.4127C39.515 54.7311 39.8293 53.6739 39.5593 52.6842L38.7951 49.8822C38.732 49.6506 38.7 49.4117 38.7 49.1718V42.2229C38.7 41.8992 38.6418 41.5781 38.5281 41.2749L36.4555 35.748C36.2263 35.1368 36.2263 34.4632 36.4555 33.852L37.2909 31.6242C37.3634 31.4309 37.4135 31.23 37.4402 31.0253L38.7 21.3667V11.5767C38.7 11.1751 38.6104 10.7785 38.4377 10.4159L35.1754 3.56507C34.6894 2.54444 33.6191 1.93463 32.4933 2.03698L20.5792 3.12007C20.2406 3.15086 19.8991 3.1174 19.5729 3.02145L13.4406 1.21784C12.9566 1.07546 12.4423 1.07158 11.9562 1.20662Z" stroke="#FBFBF4" stroke-width="1.7" stroke-linecap="round"/>
<path id="Vector 120" d="M7.06641 4.90011V4.90011C7.06641 5.65389 7.60327 6.30078 8.34414 6.43969L13.7531 7.45387C13.9172 7.48463 14.0837 7.50011 14.2507 7.50011H22.2331L31.3289 6.36313C32.1522 6.26023 32.8824 5.78454 33.3093 5.07312L33.9331 4.03345" stroke="#FBFBF4" stroke-width="1.7" stroke-linecap="round"/>
<path id="Vector 121" d="M35.6672 14.8667V23.1718C35.6672 23.4118 35.6352 23.6507 35.572 23.8822L34.3672 28.3" stroke="#FBFBF4" stroke-width="1.7" stroke-linecap="round"/>
<path id="Vector 122" d="M35.6661 42.6001V49.4737C35.6661 50.0741 35.466 50.6574 35.0974 51.1313L32.6328 54.3001" stroke="#FBFBF4" stroke-width="1.7" stroke-linecap="round"/>
<path id="Vector 123" d="M33.0664 54.3H33.9331C35.369 54.3 36.5331 53.1359 36.5331 51.7V51.7" stroke="#FBFBF4" stroke-width="1.7" stroke-linecap="round"/>
<path id="Vector 124" d="M18.7672 7.93335L19.4852 11.1646C19.5828 11.6035 19.5692 12.0598 19.4457 12.4921L18.8711 14.5031C18.8022 14.7443 18.7672 14.994 18.7672 15.2448V21.4971C18.7672 21.6984 18.7447 21.8991 18.7 22.0954L16.6677 31.0379C16.623 31.2343 16.6005 31.435 16.6005 31.6363V43.494C16.6005 43.7632 16.5603 44.0308 16.4811 44.2881L15.1028 48.7678C14.949 49.2674 14.9436 49.8009 15.0872 50.3035L16.6005 55.6" stroke="#FBFBF4" stroke-width="1.7" stroke-linecap="round"/>
</g>
</svg>
