<svg width="40" height="51" viewBox="0 0 40 51" fill="none" xmlns="http://www.w3.org/2000/svg">
<g id="cereal bag (questionable)">
<path id="Vector 119" d="M11.8652 1.15866L7.33837 2.2558C5.93915 2.59492 5.05215 3.97227 5.32229 5.38642L5.97598 8.80855C6.07008 9.30116 6.02512 9.81024 5.84614 10.2787L5.01774 12.4471C4.9002 12.7547 4.83994 13.0813 4.83994 13.4107V19.996C4.83994 20.2361 4.80791 20.4751 4.7447 20.7068L2.80188 27.8263C2.73867 28.0579 2.70664 28.297 2.70664 28.5371V31.5257V39.2173C2.70664 39.5467 2.64638 39.8732 2.52884 40.1809L1.36813 43.2191C1.13106 43.8396 1.13107 44.5258 1.36813 45.1463L2.04326 46.9135C2.44275 47.9591 3.44606 48.6499 4.56546 48.6499H15.9331H21.9063L34.5137 49.6811C35.1864 49.7361 35.8553 49.5373 36.3886 49.1237L37.9176 47.9378C38.8086 47.2468 39.1763 46.0749 38.84 44.9987L38.2424 43.087C38.1609 42.8263 38.1194 42.5547 38.1194 42.2815V36.5485C38.1194 36.1819 38.0448 35.8192 37.9 35.4824L36.0177 31.1028C35.7252 30.4221 35.7252 29.6512 36.0177 28.9705L36.7014 27.3797C36.7931 27.1665 36.8568 26.9423 36.8911 26.7128L38.0898 18.6949C38.1095 18.5628 38.1194 18.4294 38.1194 18.2957V10.2509C38.1194 9.79894 38.006 9.35418 37.7894 8.95744L34.6914 3.281C34.1813 2.34631 33.1694 1.79874 32.1079 1.88294L20.2217 2.82574C19.9247 2.8493 19.6257 2.82352 19.3371 2.74945L13.1723 1.16743C12.7439 1.0575 12.295 1.05448 11.8652 1.15866Z" stroke="#1B453C" stroke-width="1.7" stroke-linecap="round"/>
<path id="Vector 120" d="M6.97266 4.35024V4.35024C6.97266 4.99423 7.43926 5.54337 8.0748 5.64734L13.5827 6.54841C13.7268 6.57198 13.8726 6.58383 14.0186 6.58383H21.9058L30.915 5.60125C31.6963 5.51604 32.4017 5.09463 32.847 4.44705L33.4256 3.60571" stroke="#1B453C" stroke-width="1.7" stroke-linecap="round"/>
<path id="Vector 121" d="M35.1315 12.9126V19.9457C35.1315 20.2189 35.0901 20.4905 35.0086 20.7513L33.8516 24.4528" stroke="#1B453C" stroke-width="1.7" stroke-linecap="round"/>
<path id="Vector 122" d="M35.1331 36.7375V42.4096C35.1331 43.0722 34.8895 43.7116 34.4486 44.2062L32.1465 46.7887" stroke="#1B453C" stroke-width="1.7" stroke-linecap="round"/>
<path id="Vector 123" d="M32.5723 46.7888H33.752C34.9855 46.7888 35.9855 45.7888 35.9855 44.5552V44.5552" stroke="#1B453C" stroke-width="1.7" stroke-linecap="round"/>
<path id="Vector 124" d="M18.4923 6.95605L19.1519 9.54577C19.2784 10.0426 19.2609 10.5652 19.1013 11.0524L18.6264 12.5029C18.5375 12.7741 18.4923 13.0577 18.4923 13.3431V18.5226C18.4923 18.7523 18.463 18.981 18.4051 19.2032L16.4462 26.7236C16.3883 26.9459 16.359 27.1746 16.359 27.4042V37.3919C16.359 37.6978 16.307 38.0014 16.2053 38.2898L14.9577 41.8277C14.7597 42.3891 14.7528 43.0002 14.938 43.5659L16.359 47.9052" stroke="#1B453C" stroke-width="1.7" stroke-linecap="round"/>
</g>
</svg>
