<svg width="34" height="59" viewBox="0 0 34 59" fill="none" xmlns="http://www.w3.org/2000/svg">
<g id="cold beverage cups">
<g id="Group 290046">
<path id="Ellipse 131" d="M32.15 16C32.15 16.0662 32.0758 16.3727 31.3101 16.8252C30.6014 17.2442 29.5193 17.6509 28.1076 18.0038C25.2972 18.7064 21.3697 19.15 17 19.15C12.6303 19.15 8.70279 18.7064 5.89245 18.0038C4.48074 17.6509 3.3986 17.2442 2.68986 16.8252C1.92423 16.3727 1.85 16.0662 1.85 16C1.85 15.9338 1.92423 15.6273 2.68986 15.1748C3.3986 14.7558 4.48074 14.3491 5.89245 13.9962C8.70279 13.2936 12.6303 12.85 17 12.85C21.3697 12.85 25.2972 13.2936 28.1076 13.9962C29.5193 14.3491 30.6014 14.7558 31.3101 15.1748C32.0758 15.6273 32.15 15.9338 32.15 16Z" stroke="#1B453C" stroke-width="1.7"/>
<path id="Ellipse 132" d="M27.5499 15.3465C27.5502 15.3465 27.5483 15.3488 27.5434 15.3532C27.5471 15.3487 27.5496 15.3465 27.5499 15.3465ZM26.9821 15.392C27.099 15.4297 27.1967 15.466 27.2771 15.5C27.1967 15.534 27.099 15.5703 26.9821 15.608C26.467 15.7741 25.6953 15.931 24.7106 16.0652C22.7486 16.3328 20.0223 16.5 17 16.5C13.9777 16.5 11.2514 16.3328 9.28938 16.0652C8.30469 15.931 7.53304 15.7741 7.01786 15.608C6.90103 15.5703 6.8033 15.534 6.72288 15.5C6.8033 15.466 6.90103 15.4297 7.01786 15.392C7.53304 15.2259 8.30469 15.069 9.28938 14.9348C11.2514 14.6672 13.9777 14.5 17 14.5C20.0223 14.5 22.7486 14.6672 24.7106 14.9348C25.6953 15.069 26.467 15.2259 26.9821 15.392ZM6.45013 15.3465C6.45044 15.3465 6.45291 15.3487 6.4566 15.3532C6.45166 15.3488 6.44982 15.3465 6.45013 15.3465ZM6.45013 15.6535C6.44982 15.6535 6.45166 15.6512 6.4566 15.6468C6.45291 15.6513 6.45044 15.6535 6.45013 15.6535ZM27.5434 15.6468C27.5483 15.6512 27.5502 15.6535 27.5499 15.6535C27.5496 15.6535 27.5471 15.6513 27.5434 15.6468Z" stroke="#1B453C"/>
<path id="Vector 78" d="M1.98507 16L1.66694 16.8635C1.26773 17.9471 1.58763 19.1836 2.59466 19.7487C9.49253 23.6199 23.8255 23.6617 31.1718 20.0744C32.2939 19.5265 32.6737 18.1843 32.2099 17.0248L32 16.5" stroke="#1B453C" stroke-width="1.7"/>
<path id="Vector 79" d="M3.5 20L7.69486 54.2584C7.80412 55.1507 8.3422 55.9402 9.17578 56.2769C12.9192 57.7887 19.825 59.2254 26.102 56.3244C26.899 55.9561 27.4009 55.1663 27.4903 54.2928L31 20" stroke="#1B453C" stroke-width="1.7"/>
<path id="Rectangle 2909" d="M15.85 2C15.85 1.36487 16.3649 0.85 17 0.85C17.6351 0.85 18.15 1.36487 18.15 2V15.15H15.85V2Z" stroke="#1B453C" stroke-width="1.7"/>
</g>
</g>
</svg>
