<svg width="390" height="188" viewBox="0 0 390 188" fill="none" xmlns="http://www.w3.org/2000/svg">
<rect width="4.0296" height="12.6266" transform="matrix(0.485848 0.874043 -0.857618 0.514287 189.054 140.512)" fill="#1B453C"/>
<rect width="6.71849" height="23.9647" transform="matrix(-0.857618 -0.514287 0.485848 -0.874043 252.194 135.262)" fill="#1B453C"/>
<rect width="6.71849" height="23.9647" transform="matrix(0.857618 -0.514287 0.485848 0.874043 -0.822266 44.1367)" fill="#CC554E"/>
<rect width="6.71849" height="23.9647" transform="matrix(0.857618 -0.514287 0.485848 0.874043 -1.67383 78.3164)" fill="#F6D053"/>
<rect width="6.84707" height="23.5147" transform="matrix(-0.485848 -0.874043 0.857618 -0.514287 20.5293 106.84)" fill="#1B453C"/>
<rect width="4.37155" height="15.2732" transform="matrix(-0.249798 0.968298 -0.963386 -0.268117 125.037 168.793)" fill="#1B453C"/>
<rect x="57.0068" y="163.68" width="6.65327" height="24.1866" transform="rotate(-180 57.0068 163.68)" fill="#CC554E"/>
<rect width="6.67081" height="24.1274" transform="matrix(0.963386 -0.268117 0.249798 0.968298 287.744 61.6797)" fill="#F6D053"/>
<rect width="6.67081" height="24.1274" transform="matrix(0.963386 -0.268117 0.249798 0.968298 352.059 128.48)" fill="#1B453C"/>
<rect width="6.78309" height="23.7408" transform="matrix(0.693574 -0.720385 0.693574 0.720385 94.876 88.2422)" fill="#CC554E"/>
<rect width="6.78309" height="23.7408" transform="matrix(0.693574 -0.720385 0.693574 0.720385 95.9072 126.969)" fill="#1B453C"/>
<rect width="6.67081" height="24.1274" transform="matrix(0.963386 -0.268117 0.249798 0.968298 74.8389 100.84)" fill="#1B453C"/>
<rect width="6.89353" height="23.3478" transform="matrix(0.249798 -0.968298 0.963386 0.268117 153.569 181.738)" fill="#1B453C"/>
<rect width="6.78309" height="23.7408" transform="matrix(0.693574 0.720385 -0.693574 0.720385 152.371 24.6133)" fill="#F6D053"/>
<rect width="6.78309" height="23.7408" transform="matrix(0.693574 -0.720385 0.693574 0.720385 294.397 158.066)" fill="#1B453C"/>
<rect width="6.67081" height="24.1274" transform="matrix(0.963386 -0.268117 0.249798 0.968298 256.695 59.375)" fill="#1B453C"/>
<rect width="6.67081" height="24.1274" transform="matrix(0.963386 -0.268117 0.249798 0.968298 386.434 144.605)" fill="#CC554E"/>
<rect width="3.61335" height="13.069" transform="matrix(0.963386 -0.268117 0.249798 0.968298 267.675 165.258)" fill="#1B453C"/>
<ellipse cx="199.034" cy="99.0478" rx="5.54439" ry="5.75872" fill="#CC554E"/>
<ellipse cx="217.884" cy="153.181" rx="5.54439" ry="5.75872" fill="#1B453C"/>
<ellipse cx="395.305" cy="127.841" rx="5.54439" ry="5.75872" fill="#1B453C"/>
<ellipse cx="199.034" cy="46.0673" rx="5.54439" ry="5.75872" fill="#1B453C"/>
<ellipse cx="332.099" cy="38.0048" rx="5.54439" ry="5.75872" fill="#F6D053"/>
<ellipse cx="79.2749" cy="79.4697" rx="5.54439" ry="5.75872" fill="#1B453C"/>
<ellipse cx="125.847" cy="123.235" rx="5.54439" ry="5.75872" fill="#1B453C"/>
<ellipse cx="216.776" cy="118.626" rx="5.54439" ry="5.75872" fill="#1B453C"/>
<ellipse cx="329.881" cy="97.8954" rx="5.54439" ry="5.75872" fill="#F6D053"/>
<ellipse cx="335.425" cy="178.517" rx="5.54439" ry="5.75872" fill="#CC554E"/>
<ellipse cx="17.1772" cy="135.903" rx="5.54439" ry="5.75872" fill="#F6D053"/>
<rect width="3.70103" height="29.9277" transform="matrix(0.963386 0.268117 -0.249798 0.968298 132.858 63.3438)" fill="#1B453C"/>
<rect width="3.70103" height="29.9277" transform="matrix(0.963386 -0.268117 0.249798 0.968298 279.981 105.801)" fill="#1B453C"/>
<rect x="92.5811" y="32.2461" width="3.6913" height="30.0011" fill="#F6D053"/>
<rect width="3.76332" height="29.4482" transform="matrix(0.693574 -0.720385 0.693574 0.720385 41.1201 58.7148)" fill="#1B453C"/>
<rect width="3.76332" height="29.4482" transform="matrix(0.693574 -0.720385 0.693574 0.720385 317.684 57.9961)" fill="#1B453C"/>
<rect width="3.72749" height="29.7259" transform="matrix(0.857618 0.514287 -0.485848 0.874043 370.937 36.8555)" fill="#F6D053"/>
<rect width="3.79882" height="29.1677" transform="matrix(0.485848 0.874043 -0.857618 0.514287 60.8955 118.695)" fill="#1B453C"/>
<rect width="4.7915" height="28.9607" transform="matrix(0.249798 0.968298 -0.963386 0.268117 22.9004 162.395)" fill="#1B453C"/>
<rect width="3.72749" height="29.7259" transform="matrix(0.857618 -0.514287 0.485848 0.874043 146.944 128.488)" fill="#CC554E"/>
<rect width="5.62198" height="29.4482" transform="matrix(-0.693574 0.720385 0.693574 0.720385 176.319 50.6758)" fill="#1B453C"/>
<rect width="3.70103" height="29.9277" transform="matrix(0.963386 -0.268117 0.249798 0.968298 321.01 120.773)" fill="#1B453C"/>
<rect width="5.08857" height="29.9277" transform="matrix(0.963386 -0.268117 0.249798 0.968298 222.32 65.8594)" fill="#CC554E"/>
<path d="M162.547 64.386L150.488 67.7421L159.316 76.9109L162.547 64.386Z" fill="#1B453C"/>
<path d="M160.777 105.957L154.535 117.187H167.019L160.777 105.957Z" fill="#1B453C"/>
<path d="M33.654 48.2962L22.7237 54.5612L33.4126 61.2605L33.654 48.2962Z" fill="#1B453C"/>
<path d="M268.338 139.359L262.096 150.589H274.58L268.338 139.359Z" fill="#F6D053"/>
<path d="M83.4327 151.878L72.6212 158.361L83.4327 164.845L83.4327 151.878Z" fill="#1B453C"/>
<path d="M312.282 114.884L306.04 103.654L299.797 114.884L312.282 114.884Z" fill="#1B453C"/>
<ellipse cx="220.102" cy="21.8798" rx="5.54439" ry="5.75872" fill="#1B453C"/>
<ellipse cx="176.856" cy="10.3642" rx="5.54439" ry="5.75872" fill="#1B453C"/>
<rect width="3.79882" height="29.1677" transform="matrix(0.485848 0.874043 -0.857618 0.514287 262.712 16.1914)" fill="#1B453C"/>
<rect width="6.67081" height="24.1274" transform="matrix(0.963386 -0.268117 0.249798 0.968298 69.2949 1.78906)" fill="#1B453C"/>
<rect x="288.853" y="13.8203" width="6.65327" height="24.1866" fill="#1B453C"/>
</svg>
