<svg width="638" height="672" viewBox="0 0 638 672" fill="none" xmlns="http://www.w3.org/2000/svg">
<path d="M142.76 249.973V235.873H147.44C149 235.873 150.32 236.146 151.4 236.693C152.48 237.226 153.3 238.019 153.86 239.073C154.42 240.113 154.7 241.393 154.7 242.913C154.7 244.419 154.42 245.699 153.86 246.753C153.3 247.806 152.48 248.606 151.4 249.153C150.32 249.699 149 249.973 147.44 249.973H142.76ZM144.42 248.553H147.32C149.24 248.553 150.667 248.086 151.6 247.153C152.533 246.206 153 244.793 153 242.913C153 241.019 152.533 239.606 151.6 238.673C150.667 237.739 149.24 237.273 147.32 237.273H144.42V248.553ZM161.541 250.153C160.648 250.153 159.868 249.946 159.201 249.533C158.535 249.106 158.015 248.506 157.641 247.733C157.281 246.959 157.101 246.033 157.101 244.953C157.101 243.859 157.281 242.926 157.641 242.153C158.015 241.379 158.535 240.786 159.201 240.373C159.868 239.959 160.648 239.753 161.541 239.753C162.448 239.753 163.228 239.986 163.881 240.453C164.548 240.906 164.988 241.526 165.201 242.313H164.961L165.181 239.933H166.741C166.701 240.319 166.661 240.713 166.621 241.113C166.595 241.499 166.581 241.879 166.581 242.253V249.973H164.961V247.613H165.181C164.968 248.399 164.528 249.019 163.861 249.473C163.195 249.926 162.421 250.153 161.541 250.153ZM161.861 248.833C162.821 248.833 163.581 248.506 164.141 247.853C164.701 247.186 164.981 246.219 164.981 244.953C164.981 243.673 164.701 242.706 164.141 242.053C163.581 241.386 162.821 241.053 161.861 241.053C160.915 241.053 160.155 241.386 159.581 242.053C159.021 242.706 158.741 243.673 158.741 244.953C158.741 246.219 159.021 247.186 159.581 247.853C160.155 248.506 160.915 248.833 161.861 248.833ZM169.914 249.973V239.933H171.534V249.973H169.914ZM169.714 237.653V235.833H171.714V237.653H169.714ZM174.879 249.973V235.253H176.499V249.973H174.879ZM179.445 254.513L179.065 253.173C179.692 253.026 180.212 252.853 180.625 252.653C181.052 252.466 181.405 252.213 181.685 251.893C181.965 251.573 182.205 251.173 182.405 250.693L182.925 249.513L182.885 250.193L178.505 239.933H180.265L183.885 248.753H183.365L186.945 239.933H188.645L184.005 250.813C183.738 251.453 183.445 251.986 183.125 252.413C182.805 252.853 182.458 253.206 182.085 253.473C181.725 253.753 181.325 253.973 180.885 254.133C180.445 254.293 179.965 254.419 179.445 254.513ZM202.745 250.153C201.198 250.153 199.905 249.866 198.865 249.293C197.825 248.719 197.045 247.893 196.525 246.813C196.005 245.733 195.745 244.439 195.745 242.933C195.745 241.439 196.018 240.153 196.565 239.073C197.111 237.993 197.898 237.159 198.925 236.573C199.951 235.986 201.191 235.693 202.645 235.693C203.671 235.693 204.558 235.846 205.305 236.153C206.065 236.446 206.745 236.886 207.345 237.473L206.725 238.773C206.285 238.386 205.858 238.079 205.445 237.853C205.045 237.626 204.625 237.459 204.185 237.353C203.745 237.233 203.231 237.173 202.645 237.173C200.978 237.173 199.698 237.679 198.805 238.693C197.925 239.693 197.485 241.113 197.485 242.953C197.485 244.806 197.911 246.226 198.765 247.213C199.631 248.199 200.971 248.693 202.785 248.693C203.451 248.693 204.085 248.633 204.685 248.513C205.298 248.379 205.891 248.193 206.465 247.953L206.105 248.853V243.893H202.505V242.593H207.525V249.133C206.951 249.439 206.225 249.686 205.345 249.873C204.478 250.059 203.611 250.153 202.745 250.153ZM215.034 250.153C214.074 250.153 213.234 249.946 212.514 249.533C211.807 249.106 211.26 248.506 210.874 247.733C210.487 246.946 210.294 246.019 210.294 244.953C210.294 243.873 210.487 242.946 210.874 242.173C211.26 241.399 211.807 240.806 212.514 240.393C213.234 239.966 214.074 239.753 215.034 239.753C216.007 239.753 216.847 239.966 217.554 240.393C218.274 240.806 218.827 241.399 219.214 242.173C219.614 242.946 219.814 243.873 219.814 244.953C219.814 246.019 219.614 246.946 219.214 247.733C218.827 248.506 218.274 249.106 217.554 249.533C216.847 249.946 216.007 250.153 215.034 250.153ZM215.034 248.833C215.994 248.833 216.754 248.506 217.314 247.853C217.874 247.186 218.154 246.219 218.154 244.953C218.154 243.673 217.867 242.706 217.294 242.053C216.734 241.386 215.98 241.053 215.034 241.053C214.087 241.053 213.334 241.386 212.774 242.053C212.214 242.706 211.934 243.673 211.934 244.953C211.934 246.219 212.214 247.186 212.774 247.853C213.334 248.506 214.087 248.833 215.034 248.833ZM226.359 250.153C225.466 250.153 224.686 249.946 224.019 249.533C223.353 249.106 222.833 248.506 222.459 247.733C222.099 246.959 221.919 246.033 221.919 244.953C221.919 243.859 222.099 242.926 222.459 242.153C222.833 241.379 223.353 240.786 224.019 240.373C224.686 239.959 225.466 239.753 226.359 239.753C227.266 239.753 228.046 239.986 228.699 240.453C229.366 240.906 229.806 241.526 230.019 242.313H229.779L229.999 239.933H231.559C231.519 240.319 231.479 240.713 231.439 241.113C231.413 241.499 231.399 241.879 231.399 242.253V249.973H229.779V247.613H229.999C229.786 248.399 229.346 249.019 228.679 249.473C228.013 249.926 227.239 250.153 226.359 250.153ZM226.679 248.833C227.639 248.833 228.399 248.506 228.959 247.853C229.519 247.186 229.799 246.219 229.799 244.953C229.799 243.673 229.519 242.706 228.959 242.053C228.399 241.386 227.639 241.053 226.679 241.053C225.733 241.053 224.973 241.386 224.399 242.053C223.839 242.706 223.559 243.673 223.559 244.953C223.559 246.219 223.839 247.186 224.399 247.853C224.973 248.506 225.733 248.833 226.679 248.833ZM234.732 249.973V235.253H236.352V249.973H234.732Z" fill="#1B453C"/>
<ellipse cx="319" cy="336" rx="319" ry="336" fill="#DAE5D7"/>
</svg>
