<svg width="68" height="46" viewBox="0 0 68 46" fill="none" xmlns="http://www.w3.org/2000/svg">
<g id="floor panels">
<path id="Vector 142" d="M63.0033 17.3082L35.1923 1.75294C34.3582 1.28636 33.3395 1.29558 32.5139 1.77718L4.08252 18.3621C2.27769 19.415 2.30137 22.0308 4.12496 23.0508L31.9359 38.6061C32.7701 39.0727 33.7888 39.0634 34.6144 38.5818L63.0458 21.9969C64.8506 20.9441 64.8269 18.3282 63.0033 17.3082Z" stroke="#FBFBF4" stroke-width="1.7" stroke-linecap="round"/>
<path id="Vector 143" d="M7.89746 24.6923L41.7436 6.0769M18.6154 10.5897L25.3847 15.0743" stroke="#FBFBF4" stroke-width="1.7" stroke-linecap="round"/>
<path id="Vector 144" d="M17.4873 29.2052L50.2053 10.5898" stroke="#FBFBF4" stroke-width="1.7" stroke-linecap="round"/>
<path id="Vector 145" d="M16.9229 20.1794L24.8203 24.6923" stroke="#FBFBF4" stroke-width="1.7" stroke-linecap="round"/>
<path id="Vector 146" d="M33.8457 10.5898L41.7431 14.5386" stroke="#FBFBF4" stroke-width="1.7" stroke-linecap="round"/>
<path id="Vector 147" d="M25.3848 33.7179L58.1027 15.1025" stroke="#FBFBF4" stroke-width="1.7" stroke-linecap="round"/>
<path id="Vector 148" d="M33.8457 20.1794L41.7431 24.1282" stroke="#FBFBF4" stroke-width="1.7" stroke-linecap="round"/>
<path id="Vector 149" d="M34.4102 29.2051L42.3076 33.7179" stroke="#FBFBF4" stroke-width="1.7" stroke-linecap="round"/>
<path id="Vector 150" d="M50.7695 20.1794L58.1029 24.1282" stroke="#FBFBF4" stroke-width="1.7" stroke-linecap="round"/>
<path id="Vector 151" d="M3.38477 22.4358V26.5026C3.38477 27.4754 3.90812 28.3731 4.75475 28.8523L31.9212 44.2295C32.763 44.706 33.7955 44.6958 34.6277 44.2026L62.4203 27.733C63.2407 27.2468 63.7438 26.3638 63.7438 25.4102V21.3076" stroke="#FBFBF4" stroke-width="1.7" stroke-linecap="round"/>
<path id="Vector 152" d="M33.2822 39.3591V43.3079" stroke="#FBFBF4" stroke-width="1.7" stroke-linecap="round"/>
</g>
</svg>
