<svg width="40" height="46" viewBox="0 0 40 46" fill="none" xmlns="http://www.w3.org/2000/svg">
<g id="food containers">
<path id="Union" fill-rule="evenodd" clip-rule="evenodd" d="M1.7 23.3V20.7H38.3V23.3H1.7ZM0 20C0 19.4477 0.447715 19 1 19H39C39.5523 19 40 19.4477 40 20V24C40 24.5523 39.5523 25 39 25H38.1429L35.3626 40.6493C35.1469 41.8635 34.3113 42.9183 33.0951 43.322C24.6642 46.1205 14.1007 45.7675 6.87402 43.3252C5.67088 42.9186 4.8541 41.8693 4.6415 40.6726L1.8571 25H0.999999C0.447714 25 0 24.5523 0 24V20ZM3.58372 25L6.31529 40.3752C6.42904 41.0155 6.85393 41.5239 7.41831 41.7147C14.3105 44.044 24.4946 44.3856 32.5596 41.7085C33.1385 41.5164 33.5737 41 33.6888 40.3519L36.4163 25H3.58372ZM25.5539 27.8409C23.941 27.8378 21.9711 27.8378 20.5335 27.85C18.8814 27.8639 16.9042 27.8639 15.3415 27.8605C14.5598 27.8587 13.8812 27.8561 13.398 27.854L12.8311 27.8512L12.6792 27.8504L12.6399 27.8501L12.6299 27.8501L12.6273 27.8501L12.6267 27.8501L12.6265 27.8501L12.6316 27.0001L12.6367 26.1501L12.6369 26.1501L12.6375 26.1501L12.64 26.1501L12.6499 26.1502L12.6889 26.1504L12.8402 26.1512L13.4056 26.154C13.8878 26.1562 14.5651 26.1588 15.3452 26.1605C16.9062 26.1639 18.8763 26.1639 20.5191 26.15C21.9663 26.1378 23.9437 26.1378 25.5571 26.1409C26.3643 26.1424 27.0812 26.1447 27.5963 26.1467L28.2038 26.1491L28.368 26.1498L28.4106 26.15L28.4215 26.1501L28.4243 26.1501L28.425 26.1501L28.4251 26.1501L28.4211 27.0001L28.4169 27.8501H28.4167L28.416 27.8501L28.4133 27.8501L28.4025 27.85L28.3602 27.8498L28.1964 27.8491L27.59 27.8466C27.0756 27.8447 26.3598 27.8424 25.5539 27.8409ZM28.4211 27.0001L28.4252 26.1501C28.8946 26.1524 29.2733 26.5348 29.271 27.0042C29.2688 27.4737 28.8863 27.8524 28.4169 27.8501L28.4211 27.0001ZM12.6316 27.0001L12.6265 27.8501C12.157 27.8472 11.7788 27.4644 11.7816 26.995C11.7844 26.5255 12.1673 26.1473 12.6367 26.1501L12.6316 27.0001Z" fill="#FBFBF4"/>
<path id="Union_2" fill-rule="evenodd" clip-rule="evenodd" d="M5.7 4.3V1.7H34.3V4.3H5.7ZM4 1C4 0.447715 4.44772 0 5 0H35C35.5523 0 36 0.447715 36 1V5C36 5.55228 35.5523 6 35 6H34.4645L32.444 17.457C32.1724 18.9969 30.9166 20.209 29.3192 20.3329C23.4666 20.7865 15.3685 20.5889 10.7433 20.2971C9.12022 20.1947 7.82428 18.9796 7.54697 17.4072L5.53524 6H5C4.44772 6 4 5.55228 4 5V1ZM7.26147 6L9.22113 17.1119C9.36732 17.9409 10.0398 18.5493 10.8503 18.6005C15.4363 18.8898 23.4465 19.083 29.1879 18.6379C29.9738 18.577 30.6262 17.976 30.7698 17.1617L32.7383 6H7.26147ZM13.8868 8C13.8868 7.53056 14.2673 7.15 14.7368 7.15V8V8.85C14.2673 8.85 13.8868 8.46944 13.8868 8ZM25.2631 8L25.263 8.85H25.2629H25.2627H25.2625H25.2621H25.2617H25.2612H25.2607H25.26H25.2593H25.2585H25.2576H25.2567H25.2557H25.2546H25.2534H25.2522H25.2509H25.2495H25.2481H25.2466H25.245H25.2433H25.2416H25.2397H25.2379H25.2359H25.2339H25.2318H25.2296H25.2274H25.2251H25.2227H25.2203H25.2178H25.2152H25.2125H25.2098H25.207H25.2042H25.2013H25.1983H25.1952H25.1921H25.1889H25.1856H25.1823H25.1789H25.1755H25.172H25.1684H25.1647H25.161H25.1572H25.1534H25.1494H25.1455H25.1414H25.1373H25.1331H25.1289H25.1246H25.1202H25.1158H25.1113H25.1068H25.1022H25.0975H25.0927H25.0879H25.0831H25.0782H25.0732H25.0681H25.063H25.0579H25.0526H25.0473H25.042H25.0366H25.0311H25.0256H25.02H25.0144H25.0087H25.0029H24.9971H24.9912H24.9853H24.9793H24.9733H24.9672H24.961H24.9548H24.9485H24.9422H24.9358H24.9293H24.9228H24.9163H24.9097H24.903H24.8963H24.8895H24.8827H24.8758H24.8689H24.8619H24.8549H24.8478H24.8406H24.8334H24.8261H24.8188H24.8115H24.8041H24.7966H24.7891H24.7815H24.7739H24.7662H24.7585H24.7508H24.7429H24.7351H24.7271H24.7192H24.7112H24.7031H24.695H24.6868H24.6786H24.6703H24.662H24.6537H24.6453H24.6368H24.6283H24.6198H24.6112H24.6025H24.5938H24.5851H24.5763H24.5675H24.5586H24.5497H24.5407H24.5317H24.5227H24.5136H24.5044H24.4953H24.486H24.4767H24.4674H24.4581H24.4487H24.4392H24.4297H24.4202H24.4106H24.401H24.3914H24.3817H24.3719H24.3621H24.3523H24.3425H24.3326H24.3226H24.3126H24.3026H24.2925H24.2824H24.2723H24.2621H24.2519H24.2416H24.2313H24.221H24.2106H24.2002H24.1898H24.1793H24.1688H24.1582H24.1476H24.137H24.1263H24.1156H24.1049H24.0941H24.0833H24.0724H24.0616H24.0506H24.0397H24.0287H24.0177H24.0066H23.9955H23.9844H23.9733H23.9621H23.9509H23.9396H23.9283H23.917H23.9057H23.8943H23.8829H23.8714H23.86H23.8484H23.8369H23.8253H23.8137H23.8021H23.7905H23.7788H23.7671H23.7553H23.7435H23.7317H23.7199H23.708H23.6962H23.6842H23.6723H23.6603H23.6483H23.6363H23.6242H23.6122H23.6001H23.5879H23.5758H23.5636H23.5514H23.5391H23.5269H23.5146H23.5023H23.4899H23.4776H23.4652H23.4528H23.4404H23.4279H23.4154H23.4029H23.3904H23.3779H23.3653H23.3527H23.3401H23.3274H23.3148H23.3021H23.2894H23.2767H23.264H23.2512H23.2384H23.2256H23.2128H23.1999H23.1871H23.1742H23.1613H23.1484H23.1354H23.1225H23.1095H23.0965H23.0835H23.0705H23.0575H23.0444H23.0313H23.0182H23.0051H22.992H22.9788H22.9657H22.9525H22.9393H22.9261H22.9129H22.8997H22.8864H22.8731H22.8599H22.8466H22.8333H22.8199H22.8066H22.7933H22.7799H22.7665H22.7532H22.7398H22.7263H22.7129H22.6995H22.6861H22.6726H22.6591H22.6457H22.6322H22.6187H22.6052H22.5917H22.5781H22.5646H22.5511H22.5375H22.5239H22.5104H22.4968H22.4832H22.4696H22.456H22.4424H22.4288H22.4151H22.4015H22.3879H22.3742H22.3606H22.3469H22.3333H22.3196H22.3059H22.2922H22.2785H22.2649H22.2512H22.2375H22.2238H22.2101H22.1963H22.1826H22.1689H22.1552H22.1415H22.1277H22.114H22.1003H22.0865H22.0728H22.0591H22.0453H22.0316H22.0179H22.0041H21.9904H21.9766H21.9629H21.9492H21.9354H21.9217H21.9079H21.8942H21.8805H21.8667H21.853H21.8393H21.8255H21.8118H21.7981H21.7844H21.7706H21.7569H21.7432H21.7295H21.7158H21.7021H21.6884H21.6747H21.661H21.6473H21.6336H21.62H21.6063H21.5926H21.579H21.5653H21.5517H21.538H21.5244H21.5108H21.4972H21.4835H21.4699H21.4563H21.4428H21.4292H21.4156H21.402H21.3885H21.3749H21.3614H21.3479H21.3344H21.3209H21.3074H21.2939H21.2804H21.2669H21.2535H21.24H21.2266H21.2132H21.1998H21.1864H21.173H21.1596H21.1463H21.1329H21.1196H21.1063H21.093H21.0797H21.0664H21.0531H21.0399H21.0267H21.0134H21.0002H20.987H20.9739H20.9607H20.9476H20.9344H20.9213H20.9082H20.8951H20.8821H20.869H20.856H20.843H20.83H20.817H20.8041H20.7912H20.7782H20.7653H20.7525H20.7396H20.7268H20.7139H20.7011H20.6884H20.6756H20.6628H20.6501H20.6374H20.6248H20.6121H20.5995H20.5868H20.5743H20.5617H20.5491H20.5366H20.5241H20.5116H20.4992H20.4867H20.4743H20.462H20.4496H20.4373H20.425H20.4127H20.4004H20.3882H20.376H20.3638H20.3516H20.3395H20.3274H20.3153H20.3032H20.2912H20.2792H20.2672H20.2553H20.2434H20.2315H20.2196H20.2078H20.196H20.1842H20.1725H20.1608H20.1491H20.1374H20.1258H20.1142H20.1026H20.0911H20.0796H20.0681H20.0567H20.0453H20.0339H20.0225H20.0112H19.9999H19.987H19.9741H19.9612H19.9483H19.9353H19.9223H19.9093H19.8963H19.8833H19.8702H19.8572H19.8441H19.831H19.8179H19.8047H19.7916H19.7784H19.7652H19.752H19.7388H19.7255H19.7123H19.699H19.6857H19.6724H19.6591H19.6457H19.6324H19.619H19.6056H19.5922H19.5788H19.5654H19.552H19.5385H19.525H19.5116H19.4981H19.4846H19.471H19.4575H19.444H19.4304H19.4168H19.4033H19.3897H19.3761H19.3624H19.3488H19.3352H19.3215H19.3078H19.2942H19.2805H19.2668H19.2531H19.2394H19.2257H19.2119H19.1982H19.1844H19.1707H19.1569H19.1431H19.1293H19.1155H19.1017H19.0879H19.0741H19.0602H19.0464H19.0326H19.0187H19.0049H18.991H18.9771H18.9632H18.9494H18.9355H18.9216H18.9077H18.8938H18.8798H18.8659H18.852H18.8381H18.8241H18.8102H18.7962H18.7823H18.7683H18.7544H18.7404H18.7265H18.7125H18.6985H18.6846H18.6706H18.6566H18.6426H18.6286H18.6147H18.6007H18.5867H18.5727H18.5587H18.5447H18.5307H18.5167H18.5027H18.4887H18.4747H18.4607H18.4467H18.4327H18.4187H18.4047H18.3907H18.3767H18.3628H18.3488H18.3348H18.3208H18.3068H18.2928H18.2788H18.2648H18.2509H18.2369H18.2229H18.2089H18.195H18.181H18.167H18.1531H18.1391H18.1252H18.1112H18.0973H18.0834H18.0694H18.0555H18.0416H18.0277H18.0138H17.9999H17.986H17.9721H17.9582H17.9443H17.9304H17.9166H17.9027H17.8888H17.875H17.8611H17.8473H17.8335H17.8197H17.8059H17.7921H17.7783H17.7645H17.7507H17.737H17.7232H17.7095H17.6957H17.682H17.6683H17.6546H17.6409H17.6272H17.6135H17.5998H17.5862H17.5725H17.5589H17.5453H17.5317H17.5181H17.5045H17.4909H17.4774H17.4638H17.4503H17.4367H17.4232H17.4097H17.3962H17.3828H17.3693H17.3559H17.3424H17.329H17.3156H17.3022H17.2889H17.2755H17.2622H17.2489H17.2355H17.2222H17.209H17.1957H17.1825H17.1692H17.156H17.1428H17.1296H17.1165H17.1033H17.0902H17.0771H17.064H17.0509H17.0379H17.0248H17.0118H16.9988H16.9858H16.9729H16.9599H16.947H16.9341H16.9212H16.9083H16.8955H16.8826H16.8698H16.8571H16.8443H16.8315H16.8188H16.8061H16.7934H16.7808H16.7681H16.7555H16.7429H16.7304H16.7178H16.7053H16.6928H16.6803H16.6679H16.6554H16.643H16.6306H16.6183H16.6059H16.5936H16.5813H16.5691H16.5568H16.5446H16.5324H16.5203H16.5081H16.496H16.4839H16.4719H16.4598H16.4478H16.4358H16.4239H16.412H16.4001H16.3882H16.3763H16.3645H16.3527H16.341H16.3292H16.3175H16.3058H16.2942H16.2826H16.271H16.2594H16.2479H16.2364H16.2249H16.2135H16.2021H16.1907H16.1793H16.168H16.1567H16.1454H16.1342H16.123H16.1118H16.1007H16.0896H16.0785H16.0675H16.0565H16.0455H16.0346H16.0237H16.0128H16.0019H15.9911H15.9804H15.9696H15.9589H15.9482H15.9376H15.927H15.9164H15.9059H15.8954H15.8849H15.8745H15.8641H15.8537H15.8434H15.8331H15.8229H15.8127H15.8025H15.7923H15.7822H15.7722H15.7621H15.7522H15.7422H15.7323H15.7224H15.7126H15.7028H15.693H15.6833H15.6736H15.6639H15.6543H15.6448H15.6352H15.6257H15.6163H15.6069H15.5975H15.5882H15.5789H15.5697H15.5604H15.5513H15.5422H15.5331H15.524H15.515H15.5061H15.4972H15.4883H15.4795H15.4707H15.4619H15.4532H15.4446H15.436H15.4274H15.4189H15.4104H15.4019H15.3935H15.3852H15.3769H15.3686H15.3604H15.3523H15.3441H15.336H15.328H15.32H15.3121H15.3042H15.2963H15.2885H15.2808H15.2731H15.2654H15.2578H15.2502H15.2427H15.2352H15.2278H15.2204H15.2131H15.2058H15.1986H15.1914H15.1843H15.1772H15.1702H15.1632H15.1563H15.1494H15.1426H15.1358H15.129H15.1224H15.1157H15.1092H15.1026H15.0961H15.0897H15.0833H15.077H15.0708H15.0645H15.0584H15.0523H15.0462H15.0402H15.0342H15.0283H15.0225H15.0167H15.011H15.0053H14.9996H14.9941H14.9885H14.9831H14.9777H14.9723H14.967H14.9618H14.9566H14.9514H14.9463H14.9413H14.9364H14.9314H14.9266H14.9218H14.9171H14.9124H14.9077H14.9032H14.8987H14.8942H14.8898H14.8855H14.8812H14.877H14.8728H14.8687H14.8647H14.8607H14.8568H14.8529H14.8491H14.8454H14.8417H14.838H14.8345H14.831H14.8275H14.8242H14.8208H14.8176H14.8144H14.8112H14.8082H14.8052H14.8022H14.7993H14.7965H14.7937H14.791H14.7884H14.7858H14.7833H14.7809H14.7785H14.7762H14.7739H14.7717H14.7696H14.7676H14.7656H14.7636H14.7618H14.76H14.7582H14.7566H14.755H14.7534H14.752H14.7506H14.7492H14.748H14.7468H14.7456H14.7446H14.7436H14.7426H14.7418H14.741H14.7402H14.7396H14.739H14.7385H14.738H14.7376H14.7373H14.7371H14.7369H14.7368L14.7368 8L14.7368 7.15H14.7369H14.7371H14.7373H14.7376H14.738H14.7385H14.739H14.7396H14.7402H14.741H14.7418H14.7426H14.7436H14.7446H14.7456H14.7468H14.748H14.7492H14.7506H14.752H14.7534H14.755H14.7566H14.7582H14.76H14.7618H14.7636H14.7656H14.7676H14.7696H14.7717H14.7739H14.7762H14.7785H14.7809H14.7833H14.7858H14.7884H14.791H14.7937H14.7965H14.7993H14.8022H14.8052H14.8082H14.8112H14.8144H14.8176H14.8208H14.8242H14.8275H14.831H14.8345H14.838H14.8417H14.8454H14.8491H14.8529H14.8568H14.8607H14.8647H14.8687H14.8728H14.877H14.8812H14.8855H14.8898H14.8942H14.8987H14.9032H14.9077H14.9124H14.9171H14.9218H14.9266H14.9314H14.9364H14.9413H14.9463H14.9514H14.9566H14.9618H14.967H14.9723H14.9777H14.9831H14.9885H14.9941H14.9996H15.0053H15.011H15.0167H15.0225H15.0283H15.0342H15.0402H15.0462H15.0523H15.0584H15.0645H15.0708H15.077H15.0833H15.0897H15.0961H15.1026H15.1092H15.1157H15.1224H15.129H15.1358H15.1426H15.1494H15.1563H15.1632H15.1702H15.1772H15.1843H15.1914H15.1986H15.2058H15.2131H15.2204H15.2278H15.2352H15.2427H15.2502H15.2578H15.2654H15.2731H15.2808H15.2885H15.2963H15.3042H15.3121H15.32H15.328H15.336H15.3441H15.3523H15.3604H15.3686H15.3769H15.3852H15.3935H15.4019H15.4104H15.4189H15.4274H15.436H15.4446H15.4532H15.4619H15.4707H15.4795H15.4883H15.4972H15.5061H15.515H15.524H15.5331H15.5422H15.5513H15.5604H15.5697H15.5789H15.5882H15.5975H15.6069H15.6163H15.6257H15.6352H15.6448H15.6543H15.6639H15.6736H15.6833H15.693H15.7028H15.7126H15.7224H15.7323H15.7422H15.7522H15.7621H15.7722H15.7822H15.7923H15.8025H15.8127H15.8229H15.8331H15.8434H15.8537H15.8641H15.8745H15.8849H15.8954H15.9059H15.9164H15.927H15.9376H15.9482H15.9589H15.9696H15.9804H15.9911H16.0019H16.0128H16.0237H16.0346H16.0455H16.0565H16.0675H16.0785H16.0896H16.1007H16.1118H16.123H16.1342H16.1454H16.1567H16.168H16.1793H16.1907H16.2021H16.2135H16.2249H16.2364H16.2479H16.2594H16.271H16.2826H16.2942H16.3058H16.3175H16.3292H16.341H16.3527H16.3645H16.3763H16.3882H16.4001H16.412H16.4239H16.4358H16.4478H16.4598H16.4719H16.4839H16.496H16.5081H16.5203H16.5324H16.5446H16.5568H16.5691H16.5813H16.5936H16.6059H16.6183H16.6306H16.643H16.6554H16.6679H16.6803H16.6928H16.7053H16.7178H16.7304H16.7429H16.7555H16.7681H16.7808H16.7934H16.8061H16.8188H16.8315H16.8443H16.8571H16.8698H16.8826H16.8955H16.9083H16.9212H16.9341H16.947H16.9599H16.9729H16.9858H16.9988H17.0118H17.0248H17.0379H17.0509H17.064H17.0771H17.0902H17.1033H17.1165H17.1296H17.1428H17.156H17.1692H17.1825H17.1957H17.209H17.2222H17.2355H17.2489H17.2622H17.2755H17.2889H17.3022H17.3156H17.329H17.3424H17.3559H17.3693H17.3828H17.3962H17.4097H17.4232H17.4367H17.4503H17.4638H17.4774H17.4909H17.5045H17.5181H17.5317H17.5453H17.5589H17.5725H17.5862H17.5998H17.6135H17.6272H17.6409H17.6546H17.6683H17.682H17.6957H17.7095H17.7232H17.737H17.7507H17.7645H17.7783H17.7921H17.8059H17.8197H17.8335H17.8473H17.8611H17.875H17.8888H17.9027H17.9166H17.9304H17.9443H17.9582H17.9721H17.986H17.9999H18.0138H18.0277H18.0416H18.0555H18.0694H18.0834H18.0973H18.1112H18.1252H18.1391H18.1531H18.167H18.181H18.195H18.2089H18.2229H18.2369H18.2509H18.2648H18.2788H18.2928H18.3068H18.3208H18.3348H18.3488H18.3628H18.3767H18.3907H18.4047H18.4187H18.4327H18.4467H18.4607H18.4747H18.4887H18.5027H18.5167H18.5307H18.5447H18.5587H18.5727H18.5867H18.6007H18.6147H18.6286H18.6426H18.6566H18.6706H18.6846H18.6985H18.7125H18.7265H18.7404H18.7544H18.7683H18.7823H18.7962H18.8102H18.8241H18.8381H18.852H18.8659H18.8798H18.8938H18.9077H18.9216H18.9355H18.9494H18.9632H18.9771H18.991H19.0049H19.0187H19.0326H19.0464H19.0602H19.0741H19.0879H19.1017H19.1155H19.1293H19.1431H19.1569H19.1707H19.1844H19.1982H19.2119H19.2257H19.2394H19.2531H19.2668H19.2805H19.2942H19.3078H19.3215H19.3352H19.3488H19.3624H19.3761H19.3897H19.4033H19.4168H19.4304H19.444H19.4575H19.471H19.4846H19.4981H19.5116H19.525H19.5385H19.552H19.5654H19.5788H19.5922H19.6056H19.619H19.6324H19.6457H19.6591H19.6724H19.6857H19.699H19.7123H19.7255H19.7388H19.752H19.7652H19.7784H19.7916H19.8047H19.8179H19.831H19.8441H19.8572H19.8702H19.8833H19.8963H19.9093H19.9223H19.9353H19.9483H19.9612H19.9741H19.987H19.9999H20.0112H20.0225H20.0339H20.0453H20.0567H20.0681H20.0796H20.0911H20.1026H20.1142H20.1258H20.1374H20.1491H20.1608H20.1725H20.1842H20.196H20.2078H20.2196H20.2315H20.2434H20.2553H20.2672H20.2792H20.2912H20.3032H20.3153H20.3274H20.3395H20.3516H20.3638H20.376H20.3882H20.4004H20.4127H20.425H20.4373H20.4496H20.462H20.4743H20.4867H20.4992H20.5116H20.5241H20.5366H20.5491H20.5617H20.5743H20.5868H20.5995H20.6121H20.6248H20.6374H20.6501H20.6628H20.6756H20.6884H20.7011H20.7139H20.7268H20.7396H20.7525H20.7653H20.7782H20.7912H20.8041H20.817H20.83H20.843H20.856H20.869H20.8821H20.8951H20.9082H20.9213H20.9344H20.9476H20.9607H20.9739H20.987H21.0002H21.0134H21.0267H21.0399H21.0531H21.0664H21.0797H21.093H21.1063H21.1196H21.1329H21.1463H21.1596H21.173H21.1864H21.1998H21.2132H21.2266H21.24H21.2535H21.2669H21.2804H21.2939H21.3074H21.3209H21.3344H21.3479H21.3614H21.3749H21.3885H21.402H21.4156H21.4292H21.4428H21.4563H21.4699H21.4835H21.4972H21.5108H21.5244H21.538H21.5517H21.5653H21.579H21.5926H21.6063H21.62H21.6336H21.6473H21.661H21.6747H21.6884H21.7021H21.7158H21.7295H21.7432H21.7569H21.7706H21.7844H21.7981H21.8118H21.8255H21.8393H21.853H21.8667H21.8805H21.8942H21.9079H21.9217H21.9354H21.9492H21.9629H21.9766H21.9904H22.0041H22.0179H22.0316H22.0453H22.0591H22.0728H22.0865H22.1003H22.114H22.1277H22.1415H22.1552H22.1689H22.1826H22.1963H22.2101H22.2238H22.2375H22.2512H22.2649H22.2785H22.2922H22.3059H22.3196H22.3333H22.3469H22.3606H22.3742H22.3879H22.4015H22.4151H22.4288H22.4424H22.456H22.4696H22.4832H22.4968H22.5104H22.5239H22.5375H22.5511H22.5646H22.5781H22.5917H22.6052H22.6187H22.6322H22.6457H22.6591H22.6726H22.6861H22.6995H22.7129H22.7263H22.7398H22.7532H22.7665H22.7799H22.7933H22.8066H22.8199H22.8333H22.8466H22.8599H22.8731H22.8864H22.8997H22.9129H22.9261H22.9393H22.9525H22.9657H22.9788H22.992H23.0051H23.0182H23.0313H23.0444H23.0575H23.0705H23.0835H23.0965H23.1095H23.1225H23.1354H23.1484H23.1613H23.1742H23.1871H23.1999H23.2128H23.2256H23.2384H23.2512H23.264H23.2767H23.2894H23.3021H23.3148H23.3274H23.3401H23.3527H23.3653H23.3779H23.3904H23.4029H23.4154H23.4279H23.4404H23.4528H23.4652H23.4776H23.4899H23.5023H23.5146H23.5269H23.5391H23.5514H23.5636H23.5758H23.5879H23.6001H23.6122H23.6242H23.6363H23.6483H23.6603H23.6723H23.6842H23.6962H23.708H23.7199H23.7317H23.7435H23.7553H23.7671H23.7788H23.7905H23.8021H23.8137H23.8253H23.8369H23.8484H23.86H23.8714H23.8829H23.8943H23.9057H23.917H23.9283H23.9396H23.9509H23.9621H23.9733H23.9844H23.9955H24.0066H24.0177H24.0287H24.0397H24.0506H24.0616H24.0724H24.0833H24.0941H24.1049H24.1156H24.1263H24.137H24.1476H24.1582H24.1688H24.1793H24.1898H24.2002H24.2106H24.221H24.2313H24.2416H24.2519H24.2621H24.2723H24.2824H24.2925H24.3026H24.3126H24.3226H24.3326H24.3425H24.3523H24.3621H24.3719H24.3817H24.3914H24.401H24.4106H24.4202H24.4297H24.4392H24.4487H24.4581H24.4674H24.4767H24.486H24.4953H24.5044H24.5136H24.5227H24.5317H24.5407H24.5497H24.5586H24.5675H24.5763H24.5851H24.5938H24.6025H24.6112H24.6198H24.6283H24.6368H24.6453H24.6537H24.662H24.6703H24.6786H24.6868H24.695H24.7031H24.7112H24.7192H24.7271H24.7351H24.7429H24.7508H24.7585H24.7662H24.7739H24.7815H24.7891H24.7966H24.8041H24.8115H24.8188H24.8261H24.8334H24.8406H24.8478H24.8549H24.8619H24.8689H24.8758H24.8827H24.8895H24.8963H24.903H24.9097H24.9163H24.9228H24.9293H24.9358H24.9422H24.9485H24.9548H24.961H24.9672H24.9733H24.9793H24.9853H24.9912H24.9971H25.0029H25.0087H25.0144H25.02H25.0256H25.0311H25.0366H25.042H25.0473H25.0526H25.0579H25.063H25.0681H25.0732H25.0782H25.0831H25.0879H25.0927H25.0975H25.1022H25.1068H25.1113H25.1158H25.1202H25.1246H25.1289H25.1331H25.1373H25.1414H25.1455H25.1494H25.1534H25.1572H25.161H25.1647H25.1684H25.172H25.1755H25.1789H25.1823H25.1856H25.1889H25.1921H25.1952H25.1983H25.2013H25.2042H25.207H25.2098H25.2125H25.2152H25.2178H25.2203H25.2227H25.2251H25.2274H25.2296H25.2318H25.2339H25.2359H25.2379H25.2397H25.2416H25.2433H25.245H25.2466H25.2481H25.2495H25.2509H25.2522H25.2534H25.2546H25.2557H25.2567H25.2576H25.2585H25.2593H25.26H25.2607H25.2612H25.2617H25.2621H25.2625H25.2627H25.2629H25.263L25.2631 8ZM25.2631 8V7.15C25.7325 7.15 26.1131 7.53056 26.1131 8C26.1131 8.46944 25.7325 8.85 25.2631 8.85V8Z" fill="#FBFBF4"/>
</g>
</svg>
