<svg width="71" height="56" viewBox="0 0 71 56" fill="none" xmlns="http://www.w3.org/2000/svg">
<g id="gardening tools">
<path id="Vector 26" d="M49.4339 41.5809L51.7786 38.8086C52.7036 37.7148 52.555 36.0757 51.4482 35.1661V35.1661C50.4293 34.3287 50.2103 32.8556 50.9417 31.758L58.0095 21.1513C58.8119 19.9471 60.4188 19.5858 61.6594 20.3305L68.6155 24.5061C69.9223 25.2906 70.3254 26.9981 69.5074 28.2841L62.7325 38.9354C62.0137 40.0656 60.577 40.5011 59.3516 39.9602L58.8563 39.7416C57.6907 39.2271 56.3241 39.5941 55.573 40.6233L52.8886 44.3015M49.4339 41.5809L41.7959 50.6119C40.8214 51.764 41.0175 53.4987 42.2244 54.4044V54.4044C43.3942 55.2822 45.0559 55.0339 45.9181 53.8526L52.8886 44.3015M49.4339 41.5809C50.6214 41.2181 52.9749 41.2544 52.8886 44.3015" stroke="#1B453C" stroke-width="1.7" stroke-linecap="round"/>
<path id="Vector 27" d="M60 23L53 33" stroke="#1B453C" stroke-width="1.7" stroke-linecap="round"/>
<path id="Vector 22" d="M24.9211 36.1864L24.1824 32.9387C23.8683 31.5578 22.5274 30.6541 21.1265 30.8614V30.8614C19.9082 31.0417 18.6926 30.3811 18.2855 29.2187C14.8737 19.4777 19.0089 14.4793 21.9365 13.1825C22.2463 13.0452 22.5909 13.0075 22.9278 13.0446C30.0626 13.8295 32.4924 21.1868 32.9655 26.1007C33.071 27.1962 32.3912 28.1874 31.3725 28.6039L30.8842 28.8035C29.652 29.3074 28.9681 30.6316 29.2708 31.9281L30.0116 35.1017M24.9211 36.1864L28.1988 50.5964C28.5067 51.9503 29.8094 52.8353 31.1814 52.6228V52.6228C32.7023 52.3874 33.7015 50.9077 33.3516 49.409L30.0116 35.1017M24.9211 36.1864C25.4232 35.0113 27.1443 33.1492 30.0116 35.1017" stroke="#1B453C" stroke-width="1.7" stroke-linecap="round"/>
<path id="Vector 23" d="M22.6834 28.9729V28.9729C23.018 28.6791 23.4756 27.7425 23.3973 27.3042C22.1993 20.6001 23.8608 16.1978 27.3361 26.6317C27.4731 27.0428 28.5268 27.4285 28.9219 27.6064V27.6064" stroke="#1B453C" stroke-width="1.7" stroke-linecap="round"/>
<path id="Vector 24" d="M24 21L23 16" stroke="#1B453C" stroke-width="1.7" stroke-linecap="round"/>
<path id="Vector 25" d="M40.2 26.2162L40.5392 22.853C40.6308 21.9452 40.2594 21.0523 39.5511 20.4772L36.1552 17.7201C35.4357 17.136 35.0646 16.2247 35.1714 15.3041L35.588 11.7105C35.6361 11.2955 35.7646 10.8824 36.0453 10.5729C36.8519 9.68355 37.566 9.97274 38.0314 10.4782C38.3544 10.8291 38.4185 11.3302 38.3814 11.8057L38.3078 12.7509C38.2336 13.7028 38.9447 14.5349 39.8965 14.6101V14.6101C40.8453 14.685 41.6764 13.9796 41.7567 13.0313L41.8285 12.1838C41.8598 11.8141 41.9586 11.4454 42.1824 11.1494C43.0048 10.0617 43.7585 10.4953 44.218 11.1117C44.4523 11.4259 44.5207 11.8257 44.5207 12.2176V13.1658C44.5207 14.1883 45.3495 15.0171 46.3719 15.0171V15.0171C47.3943 15.0171 48.2231 14.1883 48.2231 13.1658V12.6169C48.2231 12.3188 48.2697 12.0169 48.4104 11.7542C48.9933 10.6656 49.7475 10.8713 50.3348 11.3794C50.8381 11.8149 50.9398 12.5287 50.831 13.1854L50.1519 17.2823C50.0191 18.0831 49.5344 18.7822 48.831 19.1874L45.8117 20.9266C45.0077 21.3896 44.4966 22.2318 44.4568 23.1587L44.3256 26.2162M40.2 26.2162L39.2994 37.4928C39.1915 38.844 40.2589 40 41.6144 40V40C42.8664 40 43.8931 39.0075 43.9354 37.7562L44.3256 26.2162M40.2 26.2162C40.8487 25.0847 42.8027 24.1796 44.3256 26.2162" stroke="#1B453C" stroke-width="1.7" stroke-linecap="round"/>
<path id="Line 51" d="M66.9092 27.1816L60.5305 37.5787" stroke="#1B453C" stroke-width="1.7" stroke-linecap="round"/>
<path id="Vector 28" d="M55 33.7643C55.2865 33.1951 56.7587 32.6302 57.9963 33.3132C59.2339 33.9963 59.1199 36.0782 58.7454 37" stroke="#1B453C" stroke-width="1.7" stroke-linecap="round"/>
</g>
</svg>
