<svg width="120" height="142" viewBox="0 0 120 142" fill="none" xmlns="http://www.w3.org/2000/svg">
<g id="Group">
<g id="Group_2">
<g id="Group_3">
<path id="Vector" d="M119.065 54.486C119.039 54.384 119.009 54.2922 118.978 54.1953C118.698 53.3282 118.193 52.609 117.463 52.0479C114.148 49.4874 106.675 52.8538 94.2648 56.3222H94.2597C93.821 36.0729 90.1178 21.2303 78.4369 14.4261C78.4318 14.4261 78.4319 14.4261 78.4319 14.4261H78.4267C78.4216 14.421 78.4217 14.421 78.4217 14.421C73.6932 11.6718 67.6589 10.2385 60.0026 10.2997C33.4273 10.0906 26.3627 27.8712 25.7506 56.3222C13.3403 52.8589 5.85742 49.4874 2.54189 52.0479C-2.45691 55.909 2.94996 67.3598 20.308 79.6981L20.7773 77.6936L20.7875 77.6987C14.7532 102.263 19.7571 118.702 33.968 127.526C36.8908 129.342 40.2012 130.831 43.884 132.01C54.356 135.345 65.6492 135.345 76.1212 132.01C97.9731 125.037 106.695 106.889 98.9524 76.648L98.9728 76.6327L99.6921 79.6981C112.505 70.5885 118.805 61.9685 119.218 56.5211V56.516C119.274 55.7764 119.223 55.098 119.065 54.486ZM94.2597 56.5109V56.4854L94.2648 56.5109H94.2597Z" fill="#7C7C7C"/>
</g>
</g>
<g id="Group_4" opacity="0.55">
<g id="Group_5" opacity="0.55">
<path id="Vector_2" opacity="0.55" d="M117.463 52.0477C114.3 49.5994 105.685 53.0321 94.2593 56.322C94.2848 57.1432 94.6776 57.7297 94.698 58.5764C106.71 55.2203 115.387 51.7366 118.855 53.8482C118.555 53.1392 118.09 52.5323 117.463 52.0477ZM100.697 78.6625L100.676 78.6727C100.697 78.7645 100.722 78.8512 100.742 78.9379C100.748 78.9379 100.758 78.9328 100.763 78.9277L100.697 78.6625ZM22.042 81.7177C22.3582 80.2998 22.6438 78.8716 22.8785 77.4383C23.0111 76.6172 22.348 75.8776 21.5166 75.9184L21.435 75.9235C21.435 75.9235 20.2414 80.0498 20.17 80.3814C16.0944 99.0699 18.6958 112.826 27.0918 121.9C19.9812 112.729 18.0582 99.4014 22.042 81.7177Z" fill="white"/>
</g>
</g>
<g id="Group_6" opacity="0.55">
<g id="Group_7" opacity="0.55">
<path id="Vector_3" opacity="0.55" d="M85.6286 20.812C80.39 15.2472 72.7286 12.2481 61.7262 12.3348C35.5641 12.1308 28.3107 29.3554 27.5099 57.0413C27.4844 57.9441 27.362 58.8418 27.1579 59.7191L25.3012 67.6505L25.7144 57.8574C14.3549 54.5828 7.42287 51.6449 4.27056 54.0779C1.16416 56.4802 2.07721 61.8103 7.37696 68.4615C0.577568 60.8667 -0.865962 54.6848 2.55159 52.0479C5.86712 49.4874 13.3449 52.8588 25.7603 56.3221C26.3724 27.8711 33.437 10.0906 60.0123 10.2997C72.2849 10.2079 80.3951 13.9466 85.6286 20.812Z" fill="white"/>
</g>
</g>
<g id="Group_8" opacity="0.55">
<g id="Group_9" opacity="0.55">
<g id="Group_10" opacity="0.55">
<path id="Vector_4" opacity="0.55" d="M94.2598 56.4902V56.5162H94.265L94.2598 56.4902Z" fill="white"/>
</g>
</g>
</g>
<g id="Group_11">
<g id="Group_12">
<path id="Vector_5" d="M53.8812 134.157C53.8251 138.915 48.1224 139.726 45.2455 137.263C44.7865 137.88 44.3274 138.41 43.8632 138.864C42.8481 139.854 41.8076 140.456 40.7823 140.706C38.0177 141.379 35.3142 139.461 33.1974 135.472C33.0699 135.513 32.9475 135.554 32.825 135.595C24.9698 138.048 21.7563 132.876 34.3298 127.745L43.4296 130.724L53.8812 134.157Z" fill="white"/>
</g>
</g>
<g id="Group_13" opacity="0.6">
<g id="Group_14" opacity="0.6">
<path id="Vector_6" opacity="0.6" d="M53.8814 134.157C53.8763 134.427 53.9171 134.182 53.8763 134.427L35.5082 128.929C28.969 131.596 26.6991 134.274 27.1327 135.886C24.5058 134.8 25.7095 131.265 34.3248 127.75L53.8814 134.157Z" fill="white"/>
</g>
</g>
<g id="Group_15" opacity="0.3">
<g id="Group_16" opacity="0.3">
<path id="Vector_7" opacity="0.3" d="M53.8811 134.157C53.825 138.915 48.1223 139.726 45.2454 137.263C44.7864 137.88 44.3273 138.41 43.8631 138.864C42.8481 139.854 41.8075 140.456 40.7822 140.706C42.2003 139.706 43.2153 138.14 43.5469 136.437C43.8886 134.677 43.501 132.785 42.491 131.3L43.4245 130.729L53.8811 134.157Z" fill="#4D4D4D"/>
</g>
</g>
<g id="Group_17" opacity="0.6">
<g id="Group_18" opacity="0.6">
<path id="Vector_8" opacity="0.6" d="M44.2566 137.472C44.2464 137.528 44.1189 138.094 43.8638 138.865C40.0994 142.522 36.1004 140.935 33.198 135.478C33.0705 135.519 32.9481 135.559 32.8257 135.6L32.6777 133.361C33.3867 133.167 34.1264 133.519 34.4171 134.192C35.1414 135.84 36.7635 138.65 39.5383 139.043C43.3843 139.574 44.2107 137.584 44.2566 137.472Z" fill="white"/>
</g>
</g>
<g id="Group_19">
<g id="Group_20">
<path id="Vector_9" d="M87.1846 135.473C83.9302 141.609 79.2732 142.853 75.1415 137.263C72.2596 139.727 66.5671 138.916 66.5059 134.157L72.2851 132.264L84.5372 128.25L86.0573 127.75C98.8246 132.958 95.3102 138.212 87.1846 135.473Z" fill="white"/>
</g>
</g>
<g id="Group_21">
<g id="Group_22">
<path id="Vector_10" d="M94.8613 120.038C75.1416 142.695 35.9316 135.014 25.6229 120.038C15.6967 105.491 23.0316 91.9903 26.5461 86.9662C28.4232 84.2782 30.0249 81.3964 31.2287 78.3514C34.3912 70.3537 33.5495 65.0185 32.4682 48.1662C31.3919 38.0262 37.268 28.8962 44.3684 26.8815C49.107 25.5349 54.5853 27.9424 58.5894 35.9605C59.2933 37.3734 61.3082 37.3836 62.0529 35.986C66.6487 27.3762 72.1474 25.2901 77.1411 27.2232C83.7671 29.7837 89.0362 38.5159 88.016 48.1611C86.9347 65.0134 86.0879 70.3486 89.2504 78.3462C90.4593 81.3964 92.061 84.2731 93.9381 86.9611C97.4475 91.9852 104.782 105.486 94.8613 120.038Z" fill="white"/>
</g>
</g>
<g id="Group_23" opacity="0.3">
<g id="Group_24" opacity="0.3">
<path id="Vector_11" opacity="0.3" d="M87.1846 135.472C83.9302 141.608 79.2732 142.853 75.1415 137.263C72.2596 139.726 66.5671 138.915 66.5059 134.157L72.2851 132.264C72.7187 132.371 73.1522 132.473 73.5909 132.575C75.7281 133.065 77.0288 135.386 79.1355 136.008C80.9973 136.559 83.1039 135.539 84.1241 133.881C85.1391 132.223 85.1646 130.091 84.5321 128.255C84.5372 128.255 84.5372 128.25 84.5372 128.245L86.0573 127.745C98.8246 132.958 95.3102 138.211 87.1846 135.472Z" fill="#4D4D4D"/>
</g>
</g>
<g id="Group_25" opacity="0.3">
<g id="Group_26" opacity="0.3">
<path id="Vector_12" opacity="0.3" d="M62.2822 45.5801C73.7591 51.2162 73.5907 59.4689 64.6643 55.8118Z" fill="#4D4D4D"/>
</g>
</g>
<g id="Group_27">
<g id="Group_28">
<g id="Group_29">
<path id="Vector_13" d="M51.8651 44.8805C52.1864 40.7492 50.0221 37.2115 47.0309 36.9789C44.0396 36.7463 41.3543 39.9068 41.033 44.0381C40.7117 48.1694 42.876 51.7071 45.8672 51.9398C48.8585 52.1724 51.5438 49.0119 51.8651 44.8805Z" fill="#4D4D4D"/>
</g>
</g>
<g id="Group_30">
<g id="Group_31">
<path id="Vector_14" d="M49.5613 43.517C49.6692 42.1296 49.0235 40.9479 48.1191 40.8775C47.2147 40.8072 46.3941 41.8749 46.2862 43.2623C46.1783 44.6497 46.824 45.8314 47.7284 45.9018C48.6327 45.9721 49.4534 44.9044 49.5613 43.517Z" fill="white"/>
</g>
</g>
</g>
<g id="Group_32">
<g id="Group_33">
<g id="Group_34">
<path id="Vector_15" d="M74.5767 51.944C77.568 51.7113 79.7323 48.1736 79.411 44.0423C79.0897 39.911 76.4043 36.7505 73.4131 36.9831C70.4219 37.2157 68.2576 40.7534 68.5789 44.8847C68.9002 49.0161 71.5855 52.1766 74.5767 51.944Z" fill="#4D4D4D"/>
</g>
</g>
<g id="Group_35">
<g id="Group_36">
<path id="Vector_16" d="M72.7109 45.9052C73.6153 45.8349 74.261 44.6531 74.1531 43.2657C74.0452 41.8783 73.2245 40.8106 72.3202 40.8809C71.4158 40.9513 70.7701 42.133 70.878 43.5204C70.9859 44.9078 71.8065 45.9755 72.7109 45.9052Z" fill="white"/>
</g>
</g>
</g>
<g id="Group_37">
<g id="Group_38">
<g id="Group_39">
<path id="Vector_17" d="M65.0629 53.2056C65.0629 55.2305 64.563 56.7913 63.7876 57.8981C61.9616 60.5045 58.6001 60.5351 56.7383 57.9746C55.9375 56.8678 55.4121 55.2815 55.4121 53.2107" fill="#4D4D4D"/>
</g>
</g>
<g id="Group_40">
<g id="Group_41">
<path id="Vector_18" d="M65.3635 52.8842L60.7167 53.6391C60.63 53.6544 60.5432 53.6646 60.4565 53.6697C60.2168 53.6901 59.972 53.6748 59.7322 53.6391L55.1109 52.8893C54.4631 52.7822 54.1009 52.0835 54.3764 51.4918C56.279 47.4521 58.3805 45.4884 60.4565 45.5802C62.4408 45.672 64.3893 47.6511 66.1031 51.5071C66.3684 52.0988 66.0062 52.7822 65.3635 52.8842Z" fill="white"/>
</g>
</g>
<g id="Group_42" opacity="0.6">
<g id="Group_43" opacity="0.6">
<path id="Vector_19" opacity="0.6" d="M62.7059 46.3351C62.4356 46.2483 62.1653 46.2024 61.8949 46.1871C59.824 46.0953 57.7173 48.059 55.8147 52.0987C55.677 52.3894 55.6974 52.7006 55.8249 52.9556L55.3404 52.8791C54.6926 52.772 54.3304 52.0732 54.6058 51.4815C56.5085 47.4419 58.61 45.4782 60.686 45.57C61.3644 45.6057 62.0428 45.8607 62.7059 46.3351Z" fill="white"/>
</g>
</g>
<g id="Group_44">
<g id="Group_45">
<path id="Vector_20" d="M63.7876 57.8979C61.9615 60.5043 58.6001 60.5349 56.7383 57.9744C56.7383 57.9387 56.7383 57.9183 56.7383 57.9183C59.0388 56.0872 61.3851 56.0821 63.7876 57.8979Z" fill="#FCFCFC"/>
</g>
</g>
<g id="Group_46">
<g id="Group_47">
<path id="Vector_21" d="M60.2269 54.445C60.0228 54.445 59.8188 54.4297 59.6148 54.394L54.9934 53.6442C54.4476 53.5575 53.9835 53.2209 53.7233 52.7312C53.4632 52.2416 53.453 51.6703 53.6876 51.1654C55.6718 46.9472 57.9009 44.8101 60.3136 44.8101C60.3289 44.8101 60.3442 44.8101 60.3595 44.8101C62.7671 44.8356 64.9349 46.9829 66.8069 51.1909C67.0313 51.6907 67.0058 52.2569 66.7457 52.7363C66.4856 53.2158 66.0265 53.5422 65.4858 53.634L60.8339 54.3889C60.6349 54.4297 60.4309 54.445 60.2269 54.445ZM60.3187 46.3453C58.5997 46.3453 56.7379 48.2886 55.075 51.8182C55.0342 51.905 55.0597 51.9815 55.0801 52.0172C55.1005 52.0529 55.1465 52.1192 55.2383 52.1345L59.8596 52.8843C60.1044 52.9251 60.3493 52.9251 60.5941 52.8843L65.2461 52.1294C65.3379 52.1141 65.3838 52.0529 65.4042 52.0172C65.4246 51.9815 65.4501 51.905 65.4144 51.8182C63.8535 48.3039 62.053 46.3606 60.3442 46.3453C60.334 46.3453 60.3238 46.3453 60.3187 46.3453Z" fill="#4D4D4D"/>
</g>
</g>
<g id="Group_48">
<g id="Group_49">
<path id="Vector_22" d="M60.2375 60.5351C58.6767 60.5351 57.2076 59.7445 56.2028 58.3622C55.2489 57.0514 54.749 55.2713 54.749 53.2056C54.749 52.8383 55.0449 52.5425 55.4121 52.5425C55.7794 52.5425 56.0752 52.8383 56.0752 53.2056C56.0752 54.9857 56.4884 56.5005 57.279 57.5818C58.034 58.6173 59.1102 59.2089 60.2426 59.2089C60.2528 59.2089 60.263 59.2089 60.2732 59.2089C61.4209 59.1987 62.5074 58.5816 63.2521 57.5155C64.007 56.4393 64.41 54.9499 64.41 53.2056C64.41 52.8383 64.7058 52.5425 65.0731 52.5425C65.4403 52.5425 65.7362 52.8383 65.7362 53.2056C65.7362 55.2254 65.2516 56.98 64.3386 58.2755C63.3439 59.6935 61.8647 60.5198 60.2885 60.53C60.263 60.5351 60.2528 60.5351 60.2375 60.5351Z" fill="#4D4D4D"/>
</g>
</g>
<g id="Group_50" opacity="0.3">
<g id="Group_51" opacity="0.3">
<path id="Vector_23" opacity="0.3" d="M65.363 52.8841L60.7162 53.639C60.6295 53.6543 60.5428 53.6645 60.4561 53.6696V45.5801C62.4403 45.6719 64.3888 47.6509 66.1027 51.5069C66.3679 52.0986 66.0057 52.7821 65.363 52.8841Z" fill="#4D4D4D"/>
</g>
</g>
</g>
<g id="Group_52">
<g id="Group_53">
<path id="Vector_24" d="M32.8869 132.989C32.943 133.167 33.0196 133.371 33.1012 133.56C33.1828 133.754 33.2644 133.943 33.3562 134.131C33.5347 134.509 33.7286 134.881 33.9326 135.243C34.1417 135.621 34.0091 136.095 33.6316 136.309C33.2542 136.518 32.7798 136.386 32.5707 136.008C32.5197 135.917 32.4891 135.82 32.4789 135.718V135.702C32.4279 135.259 32.3922 134.815 32.3718 134.371C32.3615 134.147 32.3564 133.927 32.3564 133.703C32.3564 133.479 32.3615 133.264 32.387 133.02C32.4024 132.877 32.5248 132.775 32.6676 132.785C32.7747 132.795 32.8563 132.866 32.8869 132.963V132.989Z" fill="#4D4D4D"/>
</g>
</g>
<g id="Group_54">
<g id="Group_55">
<path id="Vector_25" d="M44.6489 136.789C44.8937 136.559 45.1182 136.38 45.363 136.197C45.6078 136.018 45.8527 135.845 46.1128 135.692C46.6331 135.386 47.1993 135.116 47.8216 135.024C47.9593 135.003 48.0919 135.1 48.1123 135.243C48.1276 135.355 48.0664 135.462 47.9695 135.508L47.9542 135.518C47.4951 135.738 47.1075 136.095 46.7555 136.488C46.5821 136.681 46.4189 136.891 46.2607 137.105C46.1077 137.314 45.9496 137.549 45.8425 137.753C45.6333 138.13 45.1641 138.268 44.7866 138.059C44.4091 137.849 44.2714 137.38 44.4805 137.003C44.5214 136.931 44.5673 136.865 44.6285 136.814L44.6489 136.789Z" fill="#4D4D4D"/>
</g>
</g>
<g id="Group_56">
<g id="Group_57">
<path id="Vector_26" d="M88.0056 133.019C88.026 133.264 88.0312 133.478 88.0363 133.703C88.0363 133.927 88.0312 134.152 88.0209 134.371C88.0005 134.815 87.9648 135.258 87.9138 135.702V135.712C87.8628 136.141 87.4803 136.447 87.0467 136.401C86.6182 136.35 86.3122 135.967 86.3581 135.534C86.3683 135.427 86.404 135.33 86.455 135.243C86.659 134.881 86.8529 134.509 87.0314 134.131C87.1232 133.943 87.2048 133.754 87.2864 133.56C87.3629 133.371 87.4395 133.167 87.5007 132.989L87.5109 132.963C87.5568 132.831 87.6996 132.754 87.8373 132.8C87.9291 132.831 88.0005 132.922 88.0056 133.019Z" fill="#4D4D4D"/>
</g>
</g>
<g id="Group_58">
<g id="Group_59">
<path id="Vector_27" d="M74.5448 137.743C74.4326 137.539 74.2745 137.309 74.1265 137.095C73.9735 136.881 73.8103 136.671 73.6318 136.478C73.2798 136.085 72.8921 135.728 72.4331 135.508L72.4178 135.498C72.2902 135.437 72.2341 135.284 72.2953 135.157C72.3464 135.055 72.4535 134.998 72.5606 135.014C73.1829 135.1 73.7542 135.371 74.2694 135.682C74.5295 135.835 74.7794 136.008 75.0192 136.187C75.264 136.37 75.4884 136.549 75.7333 136.779L75.7537 136.794C76.0648 137.09 76.0801 137.579 75.7894 137.89C75.4987 138.202 75.0039 138.217 74.6927 137.926C74.6315 137.88 74.5805 137.814 74.5448 137.743Z" fill="#4D4D4D"/>
</g>
</g>
<g id="Group_60">
<g id="Group_61">
<path id="Vector_28" d="M57.6916 12.717C51.3155 0.898998 62.7414 -4.71673 63.787 7.98879C67.6075 1.32744 76.0545 6.73915 65.9396 12.717" fill="#7C7C7C"/>
</g>
</g>
<g id="Group_62" opacity="0.55">
<g id="Group_63" opacity="0.55">
<path id="Vector_29" opacity="0.55" d="M62.2874 2.68422C59.1198 0.348154 55.3554 5.2141 57.7528 12.3753L57.6916 12.7119C52.5143 3.11776 59.0739 -2.39085 62.2874 2.68422Z" fill="white"/>
</g>
</g>
<g id="Group_64" opacity="0.55">
<g id="Group_65" opacity="0.55">
<path id="Vector_30" opacity="0.55" d="M70.6323 6.49969C69.4183 5.94373 67.5616 6.23956 66.0263 7.87174C65.3275 8.61132 64.0624 8.31039 63.8176 7.32088L63.8125 7.30048C66.1028 4.58697 70.0457 4.57167 70.6323 6.49969Z" fill="white"/>
</g>
</g>
<g id="Group_66" opacity="0.3">
<g id="Group_67" opacity="0.3">
<path id="Vector_31" opacity="0.3" d="M86.154 87.2976C80.7573 75.7601 83.2363 69.9149 83.9606 46.5033C84.7156 22.0919 78.6099 14.64 78.4314 14.4258H78.4365C90.1173 21.2248 93.8205 36.0675 94.2592 56.3219H94.2643C94.351 66.1252 96.2026 69.5017 96.2026 69.5017C98.8805 73.4547 105.002 68.4663 105.002 68.4663C115.285 62.4222 118.554 55.2201 118.978 54.2C119.013 54.1184 119.029 54.0776 119.029 54.0776C119.029 54.0776 119.044 54.2153 119.064 54.4908C119.095 54.8886 119.151 55.5721 119.223 56.5208C119.223 56.5259 119.223 56.5259 119.223 56.5259C119.141 57.6225 118.82 58.8416 118.259 60.1728C116.121 65.2173 110.485 71.797 101.069 78.7134C100.62 79.0449 100.161 79.3765 99.6967 79.708L98.9775 76.6425L98.957 76.6579C102.915 92.1228 102.568 104.425 98.3654 113.688C94.1419 121.349 87.0007 126.694 77.2327 129.806C66.7607 133.147 55.4675 133.147 44.9955 129.806C43.9243 129.464 42.8838 129.097 41.8789 128.699C79.9361 132.29 93.5502 101.722 87.1844 89.4093C87.0517 89.1594 86.9242 88.9043 86.8018 88.6646" fill="#4D4D4D"/>
</g>
</g>
</g>
</svg>
