<svg width="188" height="88" viewBox="0 0 188 88" fill="none" xmlns="http://www.w3.org/2000/svg">
<g id="Group 290187">
<g id="Group 290180">
<g id="Group 290179">
<g id="Group 290178">
<g id="Group 290168">
<path id="Ellipse 270" d="M54.8855 12.3437C55.3495 11.2772 54.8632 10.0269 53.7597 9.65913C50.227 8.48184 46.4567 8.14869 42.7541 8.69997C38.3551 9.35492 34.2285 11.2319 30.8441 14.1172C27.4596 17.0025 24.9534 20.7802 23.6107 25.0201C22.268 29.26 22.1428 33.7917 23.2495 38.0992C24.3561 42.4067 26.65 46.317 29.87 49.3847C33.09 52.4524 37.1067 54.5543 41.4628 55.4511C45.8189 56.3478 50.3392 56.0034 54.5091 54.457C58.019 53.1554 61.1618 51.0463 63.6897 48.312C64.4793 47.458 64.3027 46.128 63.3821 45.4172C62.4615 44.7064 61.1466 44.8858 60.3408 45.7245C58.3067 47.8421 55.8146 49.4807 53.0446 50.5079C49.6142 51.7801 45.8956 52.0634 42.3121 51.3257C38.7286 50.588 35.4242 48.8588 32.7753 46.3352C30.1263 43.8115 28.2393 40.5948 27.3289 37.0512C26.4186 33.5076 26.5215 29.7796 27.6261 26.2917C28.7306 22.8037 30.7924 19.696 33.5766 17.3225C36.3608 14.9489 39.7556 13.4048 43.3743 12.866C46.2964 12.4309 49.2698 12.6654 52.0727 13.5403C53.1829 13.8869 54.4215 13.4103 54.8855 12.3437Z" fill="#B58B4C"/>
<circle id="Ellipse 271" cx="45.7009" cy="56.657" r="2.89621" fill="#B58B4C"/>
<path id="Line 42" d="M38.1699 59.5527H52.0717" stroke="#B58B4C" stroke-width="4" stroke-linecap="round"/>
<path id="Line 43" d="M34.6953 61.8701L55.548 61.8701" stroke="#B58B4C" stroke-width="4" stroke-linecap="round"/>
<g id="Ellipse 269">
<path d="M63.7495 31.2917C63.7495 40.9436 55.9251 48.768 46.2732 48.768C36.6213 48.768 28.7969 40.9436 28.7969 31.2917C28.7969 21.6398 36.6213 13.8154 46.2732 13.8154C55.9251 13.8154 63.7495 21.6398 63.7495 31.2917Z" fill="#66647E"/>
<path d="M63.7495 31.2917C63.7495 40.9436 55.9251 48.768 46.2732 48.768C36.6213 48.768 28.7969 40.9436 28.7969 31.2917C28.7969 21.6398 36.6213 13.8154 46.2732 13.8154C55.9251 13.8154 63.7495 21.6398 63.7495 31.2917Z" fill="#66647E"/>
</g>
<path id="Vector 1" d="M33.1922 34.1567L29.7168 30.102V28.3643L30.8753 23.7303H33.1922L38.9847 20.2549L41.3016 24.8888L38.9847 27.785L41.8809 28.3643V34.7359H38.4054L43.0394 39.3699L37.8262 41.6868L33.1922 34.1567Z" fill="#216355"/>
<path id="Vector 3" d="M38.7118 38.7553L35.2363 34.7006V32.9629L36.3948 28.329H38.7118L44.5042 24.8535L46.8212 29.4875L44.5042 32.3837L47.4004 32.9629V39.3346H43.925L48.5589 43.9685L43.3457 46.2855L38.7118 38.7553Z" fill="#216355"/>
<path id="Intersect" fill-rule="evenodd" clip-rule="evenodd" d="M62.9607 36.5054C63.4746 34.8588 63.7516 33.1076 63.7516 31.2917C63.7516 30.0907 63.6305 28.918 63.3997 27.7852L63.2737 28.0838L61.9649 24.8643L56.0623 27.2638L56.6164 30.1649L53.0609 29.1092L49.6406 33.0007L55.0416 37.0578L55.9141 39.2042L60.6432 38.5323L62.253 37.8779L62.9607 36.5054Z" fill="#216355"/>
<path id="Intersect_2" fill-rule="evenodd" clip-rule="evenodd" d="M37.5801 16.1278L41.4212 17.3262L46.5781 16.1723L52.5037 20.5567L53.4448 16.4224L52.3029 14.8833C50.4235 14.1925 48.3927 13.8154 46.2737 13.8154C43.1089 13.8154 40.1405 14.6567 37.5801 16.1278Z" fill="#D9D9D9"/>
<circle id="Ellipse 286" cx="33.8541" cy="5.07772" r="3.21932" fill="#B58B4C"/>
<rect id="Rectangle 3086" x="35.2363" y="11.0566" width="3.67922" height="3.62433" rx="1.81216" transform="rotate(-30 35.2363 11.0566)" fill="#B58B4C"/>
<path id="Rectangle 3087" d="M60.7826 46.6315C59.8812 45.0701 60.4161 43.0736 61.9775 42.1722L62.0631 42.1227C63.6245 41.2213 65.6209 41.7562 66.5224 43.3176C67.4238 44.8789 66.8889 46.8754 65.3275 47.7769L65.2419 47.8263C63.6805 48.7278 61.684 48.1928 60.7826 46.6315Z" fill="#B58B4C"/>
</g>
</g>
<circle id="Ellipse 300" cx="36.1541" cy="9.21656" r="1.83961" fill="#B58B4C"/>
<circle id="Ellipse 301" cx="35.2341" cy="7.3777" r="1.83961" fill="#B58B4C"/>
</g>
<g id="Group 290194">
<path id="Polygon 11" d="M56.3865 23.9326L57.9796 26.0022H54.7933L56.3865 23.9326Z" fill="#216355"/>
<path id="Intersect_3" fill-rule="evenodd" clip-rule="evenodd" d="M34.3227 8.97897C34.0339 8.8157 33.7937 8.57665 33.629 8.28882C31.9525 8.17688 30.6273 6.78157 30.6273 5.07674C30.6273 3.29876 32.0687 1.85742 33.8466 1.85742C35.6246 1.85742 37.066 3.29876 37.066 5.07674C37.066 5.54702 36.9651 5.99375 36.7839 6.39648C36.9628 6.68021 37.0664 7.01624 37.0664 7.37647C37.0664 7.45684 37.0612 7.53601 37.0512 7.61366C37.6097 7.92944 37.9868 8.52877 37.9868 9.21616C37.9868 9.45109 37.9427 9.67574 37.8624 9.8823C37.9216 9.88603 37.9805 9.89265 38.0389 9.90211C39.5557 9.34372 41.1324 8.93916 42.7457 8.69896C46.4483 8.14768 50.2186 8.48083 53.7513 9.65813C54.8548 10.0258 55.3411 11.2762 54.8771 12.3427C54.4131 13.4093 53.1745 13.8859 52.0643 13.5393C49.2614 12.6644 46.288 12.4299 43.3659 12.865C39.7472 13.4038 36.3524 14.9479 33.5682 17.3215C30.784 19.695 28.7223 22.8027 27.6177 26.2907C26.5131 29.7786 26.4102 33.5066 27.3205 37.0502C28.2309 40.5938 30.118 43.8105 32.7669 46.3342C35.4158 48.8578 38.7202 50.5869 42.3037 51.3247C45.8872 52.0624 49.6058 51.779 53.0362 50.5069C55.8062 49.4797 58.2983 47.8411 60.3324 45.7235L60.3461 45.7094C60.3541 45.7012 60.3621 45.6931 60.3702 45.6851C60.3808 45.6745 60.3916 45.664 60.4024 45.6536C60.1277 44.3142 60.7199 42.8921 61.969 42.171L62.0547 42.1215C63.616 41.2201 65.6125 41.755 66.514 43.3164C67.4154 44.8777 66.8804 46.8742 65.3191 47.7757L65.2334 47.8251C64.757 48.1002 64.2401 48.2415 63.7262 48.2607C63.7116 48.2777 63.6966 48.2944 63.6813 48.311C61.1534 51.0453 58.0106 53.1544 54.5007 54.456C52.5494 55.1797 50.5214 55.6401 48.4693 55.8333C48.5464 56.0941 48.5878 56.3702 48.5878 56.6559C48.5878 56.9687 48.5382 57.2699 48.4465 57.5521H52.0629C53.1675 57.5521 54.0629 58.4475 54.0629 59.5521C54.0629 59.66 54.0543 59.766 54.0379 59.8693H55.5397C56.6442 59.8693 57.5397 60.7647 57.5397 61.8693C57.5397 62.9738 56.6442 63.8693 55.5397 63.8693H34.687C33.5824 63.8693 32.687 62.9738 32.687 61.8693C32.687 60.7647 33.5824 59.8693 34.687 59.8693H36.1861C36.1696 59.766 36.1611 59.66 36.1611 59.5521C36.1611 58.4475 37.0565 57.5521 38.1611 57.5521H42.9367C42.845 57.2699 42.7954 56.9687 42.7954 56.6559C42.7954 56.3243 42.8511 56.0057 42.9538 55.709C42.4523 55.6389 41.9523 55.5526 41.4544 55.4501C37.0983 54.5533 33.0816 52.4514 29.8616 49.3837C26.6416 46.316 24.3477 42.4057 23.2411 38.0982C22.1345 33.7907 22.2596 29.2589 23.6023 25.0191C24.945 20.7792 27.4512 17.0015 30.8357 14.1162C32.2928 12.874 33.8874 11.8187 35.5821 10.9674C34.8426 10.7289 34.3075 10.035 34.3075 9.21616C34.3075 9.13579 34.3127 9.05662 34.3227 8.97897ZM62.9455 36.5204C60.7228 43.6178 54.0953 48.7675 46.265 48.7675C36.6131 48.7675 28.7887 40.9431 28.7887 31.2912C28.7887 24.8041 32.3231 19.1426 37.5713 16.1272L37.5706 16.127C40.131 14.6559 43.0993 13.8147 46.2642 13.8147C47.5852 13.8147 48.872 13.9612 50.1092 14.239C50.2638 14.2737 50.4177 14.3105 50.5707 14.3492C57.0289 15.9855 62.0539 21.2174 63.3905 27.7897L63.3926 27.7847C63.6233 28.9176 63.7444 30.0902 63.7444 31.2912C63.7444 33.1071 63.4675 34.8584 62.9535 36.505L62.9455 36.5204Z" fill="black" fill-opacity="0.2"/>
<path id="Intersect_4" fill-rule="evenodd" clip-rule="evenodd" d="M34.2347 16.7794C33.0288 15.9282 31.8906 15.043 30.825 14.1267C30.8291 14.1232 30.8332 14.1197 30.8373 14.1162C32.2941 12.8742 33.8885 11.8191 35.5828 10.9678C34.8426 10.7298 34.307 10.0355 34.307 9.21616C34.307 9.13539 34.3122 9.05584 34.3222 8.97783C34.0344 8.81459 33.7949 8.57598 33.6305 8.28882C31.9541 8.17688 30.6289 6.78157 30.6289 5.07674C30.6289 3.29876 32.0702 1.85742 33.8482 1.85742C35.6262 1.85742 37.0675 3.29876 37.0675 5.07674C37.0675 5.54702 36.9667 5.99375 36.7855 6.39648C36.9644 6.68021 37.0679 7.01624 37.0679 7.37647C37.0679 7.45723 37.0627 7.53678 37.0527 7.6148C37.6101 7.93088 37.9862 8.52959 37.9862 9.21616C37.9862 9.45104 37.9421 9.67564 37.8619 9.88217C37.9218 9.88587 37.9814 9.89254 38.0405 9.90211C39.5573 9.34372 41.134 8.93916 42.7472 8.69896C46.4498 8.14768 50.2201 8.48083 53.7529 9.65813C54.8563 10.0258 55.3426 11.2762 54.8786 12.3427C54.4147 13.4093 53.1761 13.8859 52.0658 13.5393C49.2629 12.6644 46.2896 12.4299 43.3675 12.865C40.032 13.3616 36.8869 14.7123 34.2347 16.7794ZM63.4423 28.0425C52.4584 26.1586 42.7865 22.481 35.4177 17.5891C36.0969 17.0506 36.8171 16.5615 37.5729 16.1272L37.5721 16.127C40.1326 14.6559 43.1009 13.8147 46.2658 13.8147C47.5866 13.8147 48.8732 13.9612 50.1102 14.2389C50.2648 14.2736 50.4186 14.3103 50.5716 14.3491C57.0288 15.9848 62.0534 21.2151 63.3912 27.7857L63.3917 27.7845C63.4092 27.8703 63.426 27.9563 63.4423 28.0425Z" fill="black" fill-opacity="0.2"/>
</g>
</g>
<path id="Rectangle 3099" d="M18.1765 88H206L187.824 72H0L18.1765 88Z" fill="#B6A58D"/>
<path id="Rectangle 3093" d="M0 63.1943H206.214V70.3409C206.214 71.4455 205.319 72.3409 204.214 72.3409H2.00001C0.895436 72.3409 0 71.4455 0 70.3409V63.1943Z" fill="#847867"/>
</g>
</svg>
