<svg width="96" height="68" viewBox="0 0 96 68" fill="none" xmlns="http://www.w3.org/2000/svg">
<ellipse cx="45.03" cy="28" rx="36.1237" ry="12" fill="#3A2307"/>
<ellipse cx="48" cy="52" rx="48" ry="16" fill="#992E2E"/>
<path d="M6.92783 27H88.0825L96 51L0 51.5L6.92783 27Z" fill="#992E2E"/>
<ellipse cx="47.5051" cy="26.5" rx="40.5773" ry="13.5" fill="#C74040"/>
<ellipse cx="47.9993" cy="26.5" rx="35.134" ry="11.5" fill="#3A2307"/>
<path fill-rule="evenodd" clip-rule="evenodd" d="M58.321 6.27026C60.2732 4.82886 62.5579 4 65 4C70.3193 4 74.8926 7.93213 76.9053 13.5635C80.6101 15.8477 83 19.4487 83 23.5C83 30.3176 76.2319 35.8606 67.8186 35.9973C62.1777 37.2605 55.3545 37.9995 48.0039 37.9995C35.3174 37.9995 24.2014 35.7986 18.0254 32.4998C18.7327 32.1221 19.5046 31.7588 20.3364 31.4114C15.7512 29.2563 13 26.5017 13 23.5C13 20.3037 16.1189 17.3879 21.25 15.1777C23.6748 9.7854 29.3657 6 36 6C36.6055 6 37.2031 6.03149 37.7913 6.09302C40.1719 2.38184 43.8599 0 48 0C52.2056 0 55.9448 2.45776 58.321 6.27026Z" fill="#3A2307"/>
<ellipse cx="39" cy="24.5" rx="8" ry="7.5" fill="#634015"/>
<ellipse cx="62" cy="12.5" rx="5" ry="4.5" fill="#634015"/>
<ellipse cx="75.5" cy="23" rx="3.5" ry="3" fill="#634015"/>
<ellipse cx="52.5" cy="32" rx="3.5" ry="3" fill="#634015"/>
<ellipse cx="35.5" cy="12" rx="3.5" ry="3" fill="#634015"/>
<ellipse cx="17.5" cy="26" rx="5.5" ry="4" fill="#967853"/>
<ellipse cx="47.5" cy="5" rx="5.5" ry="4" fill="#967853"/>
<ellipse cx="57.5" cy="29" rx="5.5" ry="4" fill="#967853"/>
</svg>
