<svg width="85" height="53" viewBox="0 0 85 53" fill="none" xmlns="http://www.w3.org/2000/svg">
<g id="Group 290181">
<rect id="Rectangle 3004" x="71.1621" width="14.1605" height="50.6796" fill="#5E5672"/>
<rect id="Rectangle 3057" x="71.1641" y="3.72656" width="14.1605" height="3.72644" fill="#8875B8"/>
<rect id="Rectangle 3060" x="41.9902" y="52.7607" width="48.4438" height="2.23587" transform="rotate(-90 41.9902 52.7607)" fill="#3D504C"/>
<g id="Group 290166">
<path id="Rectangle 3104" d="M54.6309 4.1875L65.0992 10.4685L64.6804 15.4933L54.6309 9.24112V4.1875Z" fill="#3D504C"/>
<path id="Rectangle 3105" d="M54.6152 9.21191L65.0836 15.4929L64.6648 20.5177L54.6152 14.2367V9.21191Z" fill="#3D504C"/>
</g>
<g id="Group 290167">
<path id="Rectangle 3104_2" d="M41.8887 1.6748L52.357 7.95579L51.9383 12.9806L41.8887 6.72842V1.6748Z" fill="#753F3C"/>
<path id="Rectangle 3105_2" d="M41.873 6.69922L52.3414 12.9802L51.9226 18.005L41.873 11.724V6.69922Z" fill="#753F3C"/>
</g>
<g id="Group 290172">
<path id="Rectangle 3104_3" d="M12.5781 5.8623L23.0464 12.1433L22.6277 17.1681L12.5781 10.9159V5.8623Z" fill="#C25736"/>
<path id="Rectangle 3106" d="M12.5625 8.375L23.0308 14.656L22.6121 19.6808L12.5625 13.4286V8.375Z" fill="#586E97"/>
<path id="Rectangle 3105_3" d="M12.5625 10.8867L23.0308 17.1677L22.6121 22.1925L12.5625 15.9115V10.8867Z" fill="#C25736"/>
</g>
<g id="Group 290173">
<path id="Rectangle 3104_4" d="M12.5781 5.8623L23.0464 12.1433L22.6277 17.1681L12.5781 10.9159V5.8623Z" fill="#C25736"/>
<path id="Rectangle 3106_2" d="M12.5625 8.375L23.0308 14.656L22.6121 19.6808L12.5625 13.4286V8.375Z" fill="#586E97"/>
<path id="Rectangle 3105_4" d="M12.5625 10.8867L23.0308 17.1677L22.6121 22.1925L12.5625 15.9115V10.8867Z" fill="#C25736"/>
</g>
<g id="Group 290174">
<path id="Rectangle 3104_5" d="M12.5781 5.8623L23.0464 12.1433L22.6277 17.1681L12.5781 10.9159V5.8623Z" fill="#3E1609"/>
<path id="Rectangle 3106_3" d="M12.5625 8.375L23.0308 14.656L22.6121 19.6808L12.5625 13.4286V8.375Z" fill="#919191"/>
<path id="Rectangle 3105_5" d="M12.5625 10.8867L23.0308 17.1677L22.6121 22.1925L12.5625 15.9115V10.8867Z" fill="#3E1609"/>
</g>
<g id="Group 290175">
<path id="Rectangle 3104_6" d="M11.7402 9.21191L22.2086 15.4929L21.7898 20.5177L11.7402 14.2655V9.21191Z" fill="#3E1609"/>
<path id="Rectangle 3106_4" d="M11.7246 11.7246L22.1929 18.0056L21.7742 23.0304L11.7246 16.7782V11.7246Z" fill="#586E97"/>
<path id="Rectangle 3105_6" d="M11.7246 14.2373L22.1929 20.5183L21.7742 25.5431L11.7246 19.2621V14.2373Z" fill="#C25736"/>
</g>
<g id="Group 290169">
<path id="Rectangle 3104_7" d="M17.5859 9.21207L28.0706 15.9118L27.6519 20.9366L17.6023 14.6845L17.5859 9.21207Z" fill="#9E5C1F"/>
<path id="Rectangle 3105_7" d="M17.6016 14.6846L28.0699 20.9656L27.6511 25.9904L17.6016 19.7094V14.6846Z" fill="#9E5C1F"/>
</g>
<g id="Group 290170">
<path id="Rectangle 3104_8" d="M17.5859 9.21207L28.0706 15.9118L27.6519 20.9366L17.6023 14.6845L17.5859 9.21207Z" fill="#9E5C1F"/>
<path id="Rectangle 3105_8" d="M17.6016 14.6846L28.0699 20.9656L27.6511 25.9904L17.6016 19.7094V14.6846Z" fill="#9E5C1F"/>
</g>
<g id="Group 290171">
<path id="Rectangle 3104_9" d="M2.51172 9.21207L12.9964 15.9118L12.5777 20.9366L2.52808 14.6845L2.51172 9.21207Z" fill="#9E5C1F"/>
<path id="Rectangle 3105_9" d="M2.52734 14.6846L12.9957 20.9656L12.5769 25.9904L2.52734 19.7094V14.6846Z" fill="#9E5C1F"/>
</g>
<rect id="Rectangle 3005" x="52.2246" y="10.8867" width="19.2617" height="41.8733" fill="#586E97"/>
<rect id="Rectangle 3059" x="58.623" y="52.7607" width="41.8733" height="1.67493" transform="rotate(-90 58.623 52.7607)" fill="#7EA4EC"/>
<rect id="Rectangle 3062" x="61.1348" y="52.7607" width="41.8733" height="1.67493" transform="rotate(-90 61.1348 52.7607)" fill="#7EA4EC"/>
<path id="Rectangle 3006" d="M40.4998 4.1875H54.6603V52.6313H40.4998V4.1875Z" fill="#50776F"/>
<rect id="Rectangle 3004_2" x="27.0215" y="1.6748" width="14.9735" height="50.6796" fill="#CC554E"/>
<rect id="Rectangle 3057_2" x="27.3984" y="4.04004" width="14.1605" height="3.72644" fill="#F79374"/>
<rect id="Rectangle 3005_2" x="12.0469" y="10.8867" width="14.9735" height="41.4652" fill="#586E97"/>
<path id="Rectangle 3059_2" d="M14.2363 25.9609L14.2363 9.21163L17.5862 9.21163L17.5862 25.9609L15.9113 24.7047L14.2363 25.9609Z" fill="#DBA26D"/>
<rect id="Rectangle 3077" y="5.8623" width="12.562" height="45.2231" fill="#CD775C"/>
<rect id="Rectangle 3107" y="8.375" width="12.562" height="1.67493" fill="white"/>
<rect id="Rectangle 3108" y="11.7246" width="12.562" height="1.67493" fill="white"/>
</g>
</svg>
