<svg width="147" height="143" viewBox="0 0 147 143" fill="none" xmlns="http://www.w3.org/2000/svg">
<path d="M147 62.5C147 97.0178 114.093 125 73.5 125C32.9071 125 0 97.0178 0 62.5C0 27.9822 32.9071 0 73.5 0C114.093 0 147 27.9822 147 62.5Z" fill="#F6DD85" fill-opacity="0.2"/>
<path fill-rule="evenodd" clip-rule="evenodd" d="M99.8757 28H99.5857H86.5516L86.5516 28.0002L77.2276 29.4277L58 86.5312L75.131 90.814L75.1311 90.8138H80.3756L82.0685 96.6534C72.4085 100.553 65.6133 109.828 65.6133 120.649C65.6133 124.539 66.4915 128.229 68.0652 131.542C68.3134 132.064 68.5983 132.554 68.9159 133.012C49.4106 133.189 34 135.354 34 138C34 140.761 50.7893 143 71.5 143C92.2107 143 109 140.761 109 138C109 137.879 108.968 137.759 108.904 137.64C112.157 136.636 114.969 134.675 116.458 131.542C118.032 128.229 118.91 124.539 118.91 120.649C118.91 109.32 111.462 99.6862 101.077 96.1407L102.244 90.8138H110.345L110.334 90.7494L110.345 90.8138L127 85.5793L108.284 28.959L99.8811 28.0326L99.8757 28ZM86.8589 95.2204L85.5815 90.8138H97.1253L96.2149 94.9702C94.925 94.7833 93.6049 94.6865 92.2616 94.6865C90.4105 94.6865 88.6036 94.8704 86.8589 95.2204Z" fill="black" fill-opacity="0.3"/>
<path fill-rule="evenodd" clip-rule="evenodd" d="M78.267 101.697L80.3183 92.331L75.4341 91.2612L73.3979 100.558C72.2957 100.413 71.1706 100.338 70.0275 100.338C68.2969 100.338 66.6074 100.51 64.9762 100.837L62.3136 91.6525L57.5113 93.0446L60.1949 102.302C51.3269 106.017 45.1172 114.605 45.1172 124.607C45.1172 128.048 45.8524 131.322 47.1781 134.288C49.3876 139.231 54.9655 141.262 60.3796 141.262H79.6755C85.0896 141.262 90.6675 139.231 92.8769 134.288C94.2027 131.322 94.9379 128.048 94.9379 124.607C94.9379 114.017 87.9755 105.011 78.267 101.697Z" fill="#383746"/>
<path d="M55.9736 39.3345L64.6897 38L54.0138 96.7172L38 92.7138L55.9736 39.3345Z" fill="#C5B297"/>
<path d="M85.0044 38.8964L76.8734 38L86.931 96.7172L102.5 91.8241L85.0044 38.8964Z" fill="#C5B297"/>
<path d="M64.6895 38H77.1447L86.9309 96.7172H54.0137L64.6895 38Z" fill="#EBD4B2"/>
<path fill-rule="evenodd" clip-rule="evenodd" d="M52.1179 139.397C56.2258 136.997 59 132.43 59 127.192C59 120.316 54.2198 114.598 47.9176 113.416C46.1285 116.764 45.1172 120.57 45.1172 124.606C45.1172 128.048 45.8524 131.322 47.1781 134.288C48.21 136.596 49.9765 138.269 52.1179 139.397Z" fill="#57566B"/>
<path fill-rule="evenodd" clip-rule="evenodd" d="M83.23 104.023C81.2624 105.58 80 107.989 80 110.692C80 115.387 83.8056 119.192 88.5 119.192C90.5049 119.192 92.3476 118.498 93.8011 117.337C92.0083 111.767 88.2099 107.061 83.23 104.023Z" fill="#57566B"/>
<circle cx="77" cy="131.192" r="8" fill="#57566B"/>
<path fill-rule="evenodd" clip-rule="evenodd" d="M45.12 124.974C45.1181 124.852 45.1172 124.729 45.1172 124.607C45.1172 111.203 56.2699 100.338 70.0275 100.338C77.4803 100.338 84.1687 103.527 88.7337 108.58C82.7277 119.665 70.993 127.192 57.5 127.192C53.1458 127.192 48.9746 126.408 45.12 124.974Z" fill="#6D7D9C" fill-opacity="0.3"/>
</svg>
