<svg width="323" height="243" viewBox="0 0 323 243" fill="none" xmlns="http://www.w3.org/2000/svg">
<path d="M34.9792 128.144C31.226 149.47 55.2842 160.486 71.6876 164.355C74.9131 165.116 78.1574 163.52 79.9727 160.748C81.5979 158.266 83.5892 155.429 85.6006 152.991C87.1698 151.089 88.0845 148.649 87.5854 146.234C85.8309 137.744 82.0825 131.378 80.2074 129.035C79.3891 103.04 66.4087 98.3583 59.0723 99.2807C58.3397 99.3729 57.6062 99.4262 56.8687 99.463C50.5773 99.7774 38.9257 105.72 34.9792 128.144Z" fill="#FEA34A"/>
<path d="M57.9162 141.695C72.5976 149.211 80.2291 136.348 79.9974 128.986C98.0714 156.097 79.9974 157.703 79.9974 157.703C79.9974 157.703 57.4312 155.093 53.288 145.252C48.4682 133.806 50.1469 122.229 59.4866 123.447C50.127 128.473 53.4888 139.429 57.9162 141.695Z" fill="#DB924A"/>
<path d="M224.256 229.691C207.595 228.257 209.414 212.505 205.964 210.58C215.043 205.928 226.947 184.428 232.718 178.415C232.635 184.139 234.245 207.328 231.958 218.679C229.671 230.029 228.116 230.023 224.256 229.691Z" fill="#FEA34A"/>
<path d="M219.692 203.296C207.281 214.483 185.725 213.878 174.062 215.898C164.678 217.523 148.804 218.965 137.199 217.966C128.396 217.209 114.239 214.942 98.4307 209.389C82.6221 203.836 75.2438 190.731 73.5308 184.873C73.0877 182.748 72.8404 180.638 72.7638 178.558C72.1741 162.557 81.6841 148.39 89.769 143.74C99.4914 138.148 100.787 136.636 102.866 134.21L102.887 134.186C176.841 144.259 209.079 137.68 222.358 130.156C224.341 149.274 232.563 151.191 233.142 175.831C233.531 192.393 227.559 196.206 219.692 203.296Z" fill="#FEA34A"/>
<path d="M196.266 213.173C195.637 213.24 185.075 214.591 178.205 215.455C175.063 215.85 171.794 215.732 169.009 214.224C156.248 207.316 156.397 190.482 150.62 176.615C139.528 153.263 137.039 147.204 140.37 143.482C143.414 140.081 199.688 132.95 209.342 131.749C210.298 131.63 211.229 131.569 212.192 131.56C216.419 131.524 217.065 132.365 214.117 156.013C212.903 165.754 212.244 160.879 213.327 176.908C215.342 206.711 207.181 210.484 207.181 210.484C207.181 210.484 202.572 212.506 196.266 213.173Z" fill="#FCEDC6"/>
<path d="M106.301 206.817L106.057 212.123C118.123 217.593 128.402 218.104 132.8 217.567L131.161 208.057C130.622 204.93 128.286 202.417 125.206 201.652L116.221 199.42C111.321 198.202 106.532 201.773 106.301 206.817Z" fill="#FCEDC6"/>
<path d="M83.8421 121.26C94.673 132.19 110.658 138.349 117.296 140.062C127.067 142.852 151.871 147.714 172.919 144.849C193.968 141.984 220.209 133.264 228.315 128.855C238.041 123.578 255.376 110.463 256.466 92.1738C257.556 73.8849 251.933 72.2321 243.748 52.5806C242.912 36.0609 241.559 29.2825 241.257 25.7628C240.825 22.9709 239.276 16.1407 229.81 13.7135C220.344 11.2864 211.844 18.882 210.129 21.6236L196.778 36.2432C175.538 26.3528 142.19 31.1425 128.171 34.7737C116.869 25.5772 106.932 21.5911 103.376 20.7476C99.832 19.7708 91.5858 20.499 86.9539 31.2268C82.3219 41.9545 84.6344 60.5228 86.3696 68.4659C84.9065 72.976 81.5133 83.2057 79.6457 88.0438C77.3112 94.0914 70.3036 107.598 83.8421 121.26Z" fill="#FEA34A"/>
<path d="M111.212 96.001C96.1463 89.7535 81.9999 95.939 77.0595 100.14C76.3966 100.703 75.9281 101.457 75.7824 102.315C75.5173 103.875 75.4652 106.392 76.4035 109.332C77.9911 114.307 80.037 116.297 82.7456 119.956C84.9124 122.884 90.9029 127.444 93.6272 129.358C95.6582 130.743 102.569 134.603 113.964 138.97C128.209 144.428 151.667 146.442 162.927 146.206C174.235 145.97 186.361 143.296 191.889 142.249C197.012 141.279 211.786 135.898 218.847 133.483C225.908 131.067 238.454 123.479 247.152 113.746C252.268 108.023 254.628 101.321 255.544 96.6533C256.036 94.1421 254.647 91.7479 252.278 90.7791C247.543 88.8421 240.704 86.7863 236.002 86.3817C220.72 85.0666 207.523 96.4279 199.63 92.1205C193.315 88.6746 190.503 78.7261 185.549 75.3883C169.088 64.2967 152.503 72.1415 146.268 77.4503C137.568 84.8579 127.404 102.716 111.212 96.001Z" fill="#FCEDC6"/>
<path d="M98.4714 138.424C99.7566 137.621 101.751 135.278 102.689 134.207C117.75 141.236 126.587 143.244 139.439 144.851C138.315 146.136 139.171 149.938 139.64 151.478C112.328 148.265 96.8648 139.428 98.4714 138.424Z" fill="#DB924A"/>
<path d="M139.842 151.477C138.556 148.425 139.038 145.721 139.44 144.85C168.198 150.152 202.297 140.298 215.753 134.608C216.074 135.572 215.886 139.428 215.753 141.236C182.978 155.855 151.489 154.155 139.842 151.477Z" fill="#EBDBB0"/>
<path d="M112.058 60.3967C106.939 63.665 109.271 67.0102 112.873 67.3201C119.359 67.8783 123.754 65.7841 125.976 63.186C127.62 61.2642 126.321 58.5699 123.825 58.1633C120.282 57.5864 115.613 58.127 112.058 60.3967Z" fill="#FBEDC6"/>
<path d="M219.798 56.8335C224.283 60.9282 221.413 63.8257 217.812 63.5158C211.325 62.9576 207.353 60.1435 205.608 57.2039C204.316 55.0295 206.057 52.5968 208.586 52.6226C212.174 52.6593 216.683 53.9898 219.798 56.8335Z" fill="#FBEDC6"/>
<path d="M105.99 34.8801C95.1077 28.2998 96.847 46.6575 99.077 56.6588L118.341 43.6024C118.759 43.4367 116.873 41.4604 105.99 34.8801Z" fill="#FCDB8A"/>
<path d="M229.587 22.7399C225.019 19.6056 217.393 31.7017 214.152 38.1416L233.36 39.7945C234.005 35.4156 234.154 25.8743 229.587 22.7399Z" fill="#FCDB8A"/>
<ellipse cx="119.833" cy="77.7959" rx="7.63126" ry="7.02879" transform="rotate(4.91842 119.833 77.7959)" fill="#562528"/>
<ellipse cx="215.932" cy="75.9873" rx="7.63126" ry="7.02879" transform="rotate(4.91842 215.932 75.9873)" fill="#562528"/>
<path d="M162.267 117.19C156.561 116.699 154.516 111.253 154.501 107C155.724 106.933 160.109 107.308 162.5 105C165.033 102.555 171.167 103.879 174.41 105.25C175.393 105.666 176.434 105.808 177.5 105.5C177.22 113.311 174.792 113.896 173.5 115C172.37 116.117 167.972 117.681 162.267 117.19Z" fill="#FE71A6"/>
<path d="M166.793 102.293C167.054 102.554 166.869 103 166.5 103C166.131 103 165.946 102.554 166.207 102.293C166.369 102.131 166.631 102.131 166.793 102.293Z" fill="#FE71A6"/>
<path d="M162.267 117.19C156.561 116.699 154.516 111.253 154.501 107C155.724 106.933 160.109 107.308 162.5 105C165.033 102.555 171.167 103.879 174.41 105.25C175.393 105.666 176.434 105.808 177.5 105.5C177.22 113.311 174.792 113.896 173.5 115C172.37 116.117 167.972 117.681 162.267 117.19Z" stroke="#FE71A6" stroke-linecap="round"/>
<path d="M166.793 102.293C167.054 102.554 166.869 103 166.5 103C166.131 103 165.946 102.554 166.207 102.293C166.369 102.131 166.631 102.131 166.793 102.293Z" stroke="#FE71A6" stroke-linecap="round"/>
<path d="M166.256 105.179L166.58 110.545" stroke="#C44B78" stroke-width="4" stroke-linecap="round"/>
<path d="M166.334 94.8983L166.287 100.135M166.287 100.135C164.742 104.033 161.717 106.393 152.21 106.785C145.176 107.074 141.005 105.82 140.304 99.9146M166.287 100.135C168.212 103.526 171.745 106.981 184.236 104.703C188.741 103.881 192.898 102.425 192.735 94.953" stroke="#562528" stroke-width="2" stroke-linecap="round"/>
<path d="M161.032 89.3714C163.718 93.1701 169.369 93.125 171.993 89.2839C174.992 84.8956 171.908 78.9335 166.594 78.8444C161.13 78.7528 157.877 84.9087 161.032 89.3714Z" fill="#562528"/>
<path d="M80.7639 229.167C70.0264 215.013 71.3454 183.855 73.451 169.547C81.7971 180.625 94.5151 188.125 103.713 192.165C108.066 194.077 111.006 198.45 109.591 202.989C108.057 207.912 105.399 214.272 101.084 220.905C94.871 230.457 88.0045 231.94 84.0301 231.303C82.6966 231.09 81.5801 230.243 80.7639 229.167Z" fill="#FEA34A"/>
<path d="M88.7379 214.261C84.0685 214.182 76.5165 211.059 73.4414 209.316C73.3898 209.917 73.3135 212.208 76.2787 220.848C79.244 229.488 82.0429 231.162 83.8386 231.375C94.8126 232.677 100.712 222.682 102.955 217.702C100.161 216.588 93.4074 214.34 88.7379 214.261Z" fill="#FCEDC6"/>
<path d="M158.972 241.793C135.214 240.679 126.771 203.813 126.395 188.94C144.972 179.598 149.218 195.295 157.376 199.003C159.658 212.302 161.455 207.82 168.673 215.294C166.578 242.35 163.922 242.025 158.972 241.793Z" fill="#FEA34A"/>
<path d="M151.958 229.175C144.956 228.089 140.899 229.635 139.746 230.543C140.826 232.047 141.944 233.112 142.855 234.237C146.189 238.354 152.56 240.918 156.127 241.628C159.694 242.338 161.764 241.71 162.616 241.178C165.623 239.018 166.416 233.712 166.764 230.449C164.912 229.484 162.837 229.238 162.031 229.236C160.217 229.231 158.959 230.261 151.958 229.175Z" fill="#FCEDC6"/>
<path d="M220.6 220.45C217.08 221.409 212.067 220.583 210 220.05C211.76 225.485 216.4 227.444 219 228.443C220.534 229.032 224.2 229.575 225.8 229.642C227.56 229.802 228.645 228.275 229.2 227.444C230 226.245 231.6 220.05 232 216.653C229.667 217.519 224.12 219.491 220.6 220.45Z" fill="#FCEDC6"/>
<path d="M216 141.653C216.2 141.001 216.133 136.726 216 134.479C217 134.045 220.867 132.595 222.8 131.653C222.96 133.219 223.667 136.943 224 138.61C224 139.132 218.667 140.784 216 141.653Z" fill="#DB924A"/>
<circle cx="123.5" cy="76.1533" r="1.5" fill="white"/>
<ellipse cx="220" cy="74.1533" rx="2" ry="1.5" fill="white"/>
</svg>
