<svg width="36" height="61" viewBox="0 0 36 61" fill="none" xmlns="http://www.w3.org/2000/svg">
<g id="blood/fluid bag">
<path id="Vector 161" d="M20.4082 52.2368L23.5135 52.625" stroke="#FBFBF4" stroke-width="1.7" stroke-linecap="round"/>
<path id="Vector 159" d="M20.4082 54.9539V58.6099C20.4082 58.7593 20.4323 58.9077 20.4795 59.0494L20.5146 59.1546C20.6829 59.6594 21.1553 59.9999 21.6874 59.9999V59.9999C22.1007 59.9999 22.4867 59.7933 22.716 59.4494L22.8448 59.2562C23.0277 58.9818 23.1253 58.6595 23.1253 58.3298V54.9539" stroke="#FBFBF4" stroke-width="1.7" stroke-linecap="round"/>
<path id="Vector 157" d="M20.4082 46.0264V48.398C20.4082 48.6268 20.3713 48.8542 20.2989 49.0713L20.1948 49.3835C20.0829 49.7193 20.1089 50.0858 20.2672 50.4024V50.4024C20.3599 50.5878 20.4082 50.7921 20.4082 50.9993V52.1845C20.4082 52.4666 20.2961 52.7371 20.0966 52.9366L20.0583 52.9749C19.7969 53.2363 19.7057 53.6229 19.8226 53.9735V53.9735C19.9429 54.3346 20.2622 54.5928 20.6405 54.6348L22.9208 54.8881C23.2848 54.9286 23.641 54.7626 23.8442 54.4578L23.8852 54.3964C24.1204 54.0435 24.0739 53.5737 23.774 53.2738V53.2738C23.6071 53.1069 23.5134 52.8806 23.5134 52.6447V51.5064C23.5134 51.221 23.5799 50.9395 23.7075 50.6843V50.6843C23.8351 50.429 23.9016 50.1475 23.9016 49.8621V49.1316V46.4145" stroke="#FBFBF4" stroke-width="1.7" stroke-linecap="round"/>
<path id="Vector 153" d="M24.2895 49.9079L25.5196 49.6003C25.7338 49.5468 25.9537 49.5197 26.1745 49.5197H27.7929C28.0438 49.5197 28.2934 49.5547 28.5347 49.6236L29.498 49.8989C31.4051 50.4437 33.2291 48.8153 32.903 46.8589L32.8657 46.6349C32.8412 46.4882 32.8289 46.3397 32.8289 46.191V39.9172C32.8289 39.5935 32.7707 39.2723 32.657 38.9692L31.9422 37.0628C31.7608 36.5793 31.722 36.054 31.8302 35.5491L32.769 31.1678C32.8089 30.9819 32.8289 30.7923 32.8289 30.6021V24.6776L31.7366 13.0254C31.6894 12.5229 31.7841 12.0173 32.0098 11.5659L34.4384 6.70871C35.0393 5.50687 34.5046 4.04708 33.2695 3.51777V3.51777C32.9788 3.39319 32.6659 3.32895 32.3496 3.32895H25.482C25.2061 3.32895 24.9319 3.28668 24.6689 3.20362L18.3086 1.19511C17.9025 1.06686 17.4718 1.0365 17.0517 1.10652L10.7039 2.16447L3.69516 3.07866C2.54803 3.22829 1.62369 4.09209 1.39681 5.22647L1.07305 6.8453C1.02458 7.08764 1.00961 7.33548 1.02857 7.58189L1.35876 11.8745C1.37826 12.1279 1.43346 12.3774 1.52272 12.6154L2.41112 14.9845C2.50494 15.2347 2.5611 15.4974 2.57777 15.7641L2.94079 21.5724L3.32895 30.1118V36.9139C3.32895 37.2916 3.24967 37.6652 3.09624 38.0104L2.15388 40.1307C1.90922 40.6812 1.85568 41.2977 2.00179 41.8822L2.82681 45.1822C2.90223 45.4839 2.92497 45.7963 2.89403 46.1058L2.55263 49.5197V50.3338C2.55263 51.0298 3.28507 51.4825 3.90758 51.1712V51.1712C4.03758 51.1062 4.18093 51.0724 4.32628 51.0724H7.03973C7.65283 51.0724 8.24767 50.8637 8.72641 50.4807L8.94517 50.3057C9.56799 49.8074 10.3792 49.6101 11.1614 49.7665L11.8684 49.9079M20.0197 49.5197L19.0817 49.1445C18.438 48.887 17.7199 48.887 17.0762 49.1445L16.1382 49.5197" stroke="#FBFBF4" stroke-width="1.7" stroke-linecap="round"/>
<path id="Vector 154" d="M4.49414 4.49341L8.13698 7.80508C8.5451 8.1761 9.05706 8.41323 9.60398 8.48457L17.3594 9.49614C17.58 9.52491 17.8032 9.52632 18.0241 9.50033L23.622 8.84176C24.0607 8.79014 24.4801 8.63164 24.8434 8.38017L29.3362 5.26972" stroke="#FBFBF4" stroke-width="1.7" stroke-linecap="round"/>
<path id="Vector 155" d="M4.49363 38.2632L4.3236 39.2833C4.18604 40.1087 4.43894 40.9513 5.00832 41.5644L8.8703 45.7235C9.05627 45.9238 9.27673 46.0889 9.52117 46.2112V46.2112C10.2527 46.5769 11.1241 46.5227 11.8046 46.069L12.0393 45.9126C12.6723 45.4906 13.4538 45.3552 14.1918 45.5397L15.8159 45.9457C16.0301 45.9993 16.25 46.0263 16.4707 46.0263H18.6062C19.0254 46.0263 19.4388 45.9287 19.8137 45.7413L20.2262 45.5351C20.6011 45.3476 21.0145 45.25 21.4336 45.25H22.0997C22.5188 45.25 22.9322 45.3476 23.3071 45.5351L24.2897 46.0263V46.0263C25.2099 46.4865 26.3234 46.2846 27.0235 45.5306L30.4159 41.8772C30.7258 41.5435 30.9463 41.1367 31.0568 40.6949L31.2765 39.8158" stroke="#FBFBF4" stroke-width="1.7" stroke-linecap="round"/>
<path id="Vector 156" d="M11.4805 46.4146L11.8686 49.5198V49.5964C11.8686 50.0526 12.0037 50.4987 12.2568 50.8784V50.8784C12.5099 51.258 12.6449 51.7041 12.6449 52.1604V53.8453C12.6449 54.0661 12.6179 54.286 12.5643 54.5002L12.3984 55.1639C12.3082 55.5247 12.3744 55.9067 12.5806 56.2161V56.2161C12.8579 56.6321 13.3464 56.8556 13.8425 56.7936L15.312 56.61C15.8283 56.5454 16.2781 56.2271 16.5108 55.7618V55.7618C16.7606 55.2623 16.7235 54.6673 16.4137 54.2026L16.3565 54.1168C16.2129 53.9014 16.1194 53.6565 16.0827 53.4002L15.825 51.596C15.7756 51.2503 15.7938 50.8982 15.8785 50.5593L15.9887 50.1185C16.0853 49.7322 16.0405 49.324 15.8624 48.9679V48.9679C15.788 48.8191 15.7363 48.6601 15.709 48.4961L15.362 46.4146" stroke="#FBFBF4" stroke-width="1.7" stroke-linecap="round"/>
<path id="Vector 160" d="M13.0332 53.7895L14.3918 53.5954L15.7503 53.4014" stroke="#FBFBF4" stroke-width="1.7" stroke-linecap="round"/>
<path id="Vector 162" d="M12.6445 7.21049V7.21049C12.2233 6.15757 12.7754 4.9673 13.8512 4.60869L14.8258 4.28382C15.1792 4.16603 15.5531 4.12263 15.924 4.15636L18.9604 4.43239C19.398 4.47217 19.8143 4.63974 20.1574 4.91426L20.2166 4.96161C21.0073 5.59413 21.2486 6.69302 20.7958 7.59865V7.59865" stroke="#FBFBF4" stroke-width="1.7" stroke-linecap="round"/>
<path id="Vector 163" d="M5.26953 12.2566L6.58452 13.8346C6.98888 14.3198 7.21032 14.9314 7.21032 15.5631V18.8553V25.0658V30.5" stroke="#FBFBF4" stroke-width="1.7" stroke-linecap="round"/>
<path id="Vector 164" d="M28.5596 13.4211L29.3359 19.2435V25.0659" stroke="#FBFBF4" stroke-width="1.7" stroke-linecap="round"/>
<path id="Vector 165" d="M28.9477 29.7236L28.5596 33.6052" stroke="#FBFBF4" stroke-width="1.7" stroke-linecap="round"/>
<path id="Vector 166" d="M14.5859 18.0791H20.9173C21.0951 18.0791 21.2724 18.0615 21.4468 18.0266L25.0662 17.3027" stroke="#FBFBF4" stroke-width="1.7" stroke-linecap="round"/>
<path id="Vector 167" d="M15.3623 20.7961H18.0794" stroke="#FBFBF4" stroke-width="1.7" stroke-linecap="round"/>
<path id="Vector 168" d="M20.7959 20.7961H21.9704C22.2213 20.7961 22.4709 20.7611 22.7121 20.6922L25.0656 20.0198" stroke="#FBFBF4" stroke-width="1.7" stroke-linecap="round"/>
<path id="Vector 169" d="M14.9736 24.2896H16.5263" stroke="#FBFBF4" stroke-width="1.7" stroke-linecap="round"/>
<path id="Vector 170" d="M18.8555 24.2896H20.4081" stroke="#FBFBF4" stroke-width="1.7" stroke-linecap="round"/>
<path id="Vector 171" d="M22.3486 23.9013L25.0657 23.125" stroke="#FBFBF4" stroke-width="1.7" stroke-linecap="round"/>
<path id="Vector 172" d="M14.9736 27.0066H20.4078" stroke="#FBFBF4" stroke-width="1.7" stroke-linecap="round"/>
<path id="Vector 173" d="M22.7373 26.6184L25.0663 25.842" stroke="#FBFBF4" stroke-width="1.7" stroke-linecap="round"/>
</g>
</svg>
