<svg width="55" height="62" viewBox="0 0 55 62" fill="none" xmlns="http://www.w3.org/2000/svg">
<path d="M34 4.5H20C19.1716 4.5 18.5 5.17157 18.5 6C18.5 6.82843 19.1716 7.5 20 7.5H34C34.8284 7.5 35.5 6.82843 35.5 6C35.5 5.17157 34.8284 4.5 34 4.5Z" stroke="#1B453C" stroke-width="1.7" stroke-linecap="round"/>
<path d="M19.5 8V8.5C19.5 9.32843 20.1716 10 21 10H32.5788C33.5547 10 34.2707 9.08292 34.034 8.1362L34 8" stroke="#1B453C" stroke-width="1.7" stroke-linecap="round"/>
<path d="M19 17C19.4831 15.6277 19.8696 13.788 20.1293 12.339C20.3683 11.0046 21.5137 10 22.8693 10H31.3285C32.5965 10 33.6932 10.8815 34.0061 12.1104C34.3826 13.5887 34.9282 15.5511 35.5 17C36.7187 20.0877 38.4133 21.3635 39.5 24.5C40.5159 27.4321 40.9326 32.1694 40.9923 32.9032C40.9978 32.97 41 33.0335 41 33.1006V58.3C41 59.7912 39.7912 61 38.3 61H16.2C14.7088 61 13.5 59.7912 13.5 58.3V33.1006C13.5 33.0335 13.5022 32.97 13.5077 32.9032C13.5674 32.1694 13.9841 27.4321 15 24.5C16.0867 21.3635 17.8977 20.1311 19 17Z" stroke="#1B453C" stroke-width="1.7" stroke-linecap="round"/>
<path d="M15 24.5H39.5M13.5 33H41" stroke="#1B453C" stroke-width="1.7" stroke-linecap="round"/>
<path d="M13.5 50.5H41" stroke="#1B453C" stroke-width="1.7" stroke-linecap="round"/>
<path d="M18.5739 39.1818H19.8636L21.5909 43.3977H21.6591L23.3864 39.1818H24.6761V45H23.6648V41.0028H23.6108L22.0028 44.983H21.2472L19.6392 40.9943H19.5852V45H18.5739V39.1818ZM26.8778 39.1818V45H25.8239V39.1818H26.8778ZM28.0192 45V39.1818H29.0732V44.1165H31.6357V45H28.0192ZM32.5504 45V39.1818H33.6044V41.8551H33.6754L35.9453 39.1818H37.2322L34.9822 41.7926L37.2521 45H35.9851L34.2493 42.5057L33.6044 43.267V45H32.5504Z" fill="#1B453C"/>
<path d="M20.3811 1H7.14474C6.3615 1 5.72656 1.63494 5.72656 2.41818C5.72656 3.20142 6.3615 3.83636 7.14474 3.83636H20.3811C21.1643 3.83636 21.7993 3.20142 21.7993 2.41818C21.7993 1.63494 21.1643 1 20.3811 1Z" stroke="#1B453C" stroke-width="1.7" stroke-linecap="round"/>
<path d="M6.67188 4.30908V4.69999C6.67188 5.52842 7.34345 6.19999 8.17188 6.19999H17.9991" stroke="#1B453C" stroke-width="1.7" stroke-linecap="round"/>
<path d="M13.5 54.4181H3.7C2.20883 54.4181 1 53.2093 1 51.7181V28.046C1 27.979 1.00224 27.915 1.0077 27.8482C1.06585 27.1362 1.46025 22.6738 2.41818 19.909C3.44564 16.9436 5.15781 15.7784 6.2 12.8181C6.64271 11.5606 6.99961 9.88805 7.24464 8.53898C7.48689 7.20521 8.63193 6.19995 9.98752 6.19995H18.5" stroke="#1B453C" stroke-width="1.7" stroke-linecap="round"/>
<path d="M2.41818 19.9092H17M1 27.9455H14" stroke="#1B453C" stroke-width="1.7" stroke-linecap="round"/>
<path d="M1 44.491H13.5" stroke="#1B453C" stroke-width="1.7" stroke-linecap="round"/>
<path d="M34.4197 1H47.656C48.4393 1 49.0742 1.63494 49.0742 2.41818C49.0742 3.20142 48.4393 3.83636 47.656 3.83636H34.4197C33.6364 3.83636 33.0015 3.20142 33.0015 2.41818C33.0015 1.63494 33.6364 1 34.4197 1Z" stroke="#1B453C" stroke-width="1.7" stroke-linecap="round"/>
<path d="M48.1289 4.30908V4.69999C48.1289 5.52842 47.4573 6.19999 46.6289 6.19999H36.8016" stroke="#1B453C" stroke-width="1.7" stroke-linecap="round"/>
<path d="M41.3008 54.4181H51.1008C52.5919 54.4181 53.8008 53.2093 53.8008 51.7181V28.046C53.8008 27.979 53.7985 27.915 53.7931 27.8482C53.7349 27.1362 53.3405 22.6738 52.3826 19.909C51.3551 16.9436 49.643 15.7784 48.6008 12.8181C48.1581 11.5606 47.8012 9.88805 47.5561 8.53898C47.3139 7.20521 46.1688 6.19995 44.8133 6.19995H36.3008" stroke="#1B453C" stroke-width="1.7" stroke-linecap="round"/>
<path d="M52.3826 19.9092H37.8008M53.8008 27.9455H40.8008" stroke="#1B453C" stroke-width="1.7" stroke-linecap="round"/>
<path d="M53.8008 44.491H41.3008" stroke="#1B453C" stroke-width="1.7" stroke-linecap="round"/>
</svg>
