<svg width="61" height="61" viewBox="0 0 61 61" fill="none" xmlns="http://www.w3.org/2000/svg">
<g id="no landfill">
<g id="Group 290049">
<path id="Vector 83" d="M16.536 8.08398C17.3679 8.27243 18.5326 9.21466 16.536 11.476C14.5394 13.7374 15.7041 15.0565 16.536 15.4334" stroke="#1B453C" stroke-width="1.7" stroke-linecap="round"/>
<path id="Vector 84" d="M27.1925 9.55396C28.3017 9.76125 29.8546 10.7977 27.1925 13.2852C24.5304 15.7727 26.0833 17.2237 27.1925 17.6383" stroke="#1B453C" stroke-width="1.7" stroke-linecap="round"/>
<path id="Vector 86" d="M35.6454 13.9636C36.4773 14.1709 37.6419 15.2074 35.6454 17.6949C33.6488 20.1823 34.8135 21.6334 35.6454 22.048" stroke="#1B453C" stroke-width="1.7" stroke-linecap="round"/>
<path id="Vector 87" d="M44.4637 12.4937C45.2956 12.7009 46.4603 13.7374 44.4637 16.2249C42.4672 18.7124 43.6318 20.1634 44.4637 20.578" stroke="#1B453C" stroke-width="1.7" stroke-linecap="round"/>
<g id="Group 290047">
<path id="Vector 81" d="M30.9342 28.3797C31.2891 28.0184 31.4504 27.9419 31.7081 27.8223C31.8555 27.7538 31.9917 27.6613 32.1417 27.5984C32.4453 27.4711 32.9346 27.4015 33.5861 27.5469M30.9342 28.3797C29.935 29.3972 28.8391 31.3344 29.9398 33.3523C31.4056 36.0395 34.6716 34.8072 36.473 33.6462C36.7619 33.4599 37.0051 33.2071 37.1359 32.8891C37.5638 31.8484 37.7184 30.0704 35.9066 28.7115C34.9957 28.0283 34.2153 27.6874 33.5861 27.5469M30.9342 28.3797L28.9453 25.7278L33.5861 24.4019V27.5469" stroke="#1B453C" stroke-width="1.7"/>
<path id="Line 71" d="M29.2773 28.3794L34.9125 26.722" stroke="#1B453C" stroke-width="1.7" stroke-linecap="round"/>
</g>
<g id="Group 290048">
<path id="Vector 81_2" d="M46.9338 29.0339C47.4397 29.0111 47.6099 29.0649 47.88 29.1529C48.0346 29.2033 48.1974 29.2283 48.35 29.2844C48.659 29.398 49.0646 29.6803 49.4425 30.2307M46.9338 29.0339C45.5091 29.098 43.3872 29.7697 42.8184 31.9968C42.0609 34.9625 45.2914 36.2853 47.401 36.6624C47.7394 36.7229 48.0897 36.7035 48.4021 36.5598C49.4243 36.0894 50.7487 34.8931 50.348 32.6639C50.1465 31.5434 49.8074 30.7621 49.4425 30.2307M46.9338 29.0339L47.2842 25.7376L51.585 27.9282L49.4425 30.2307" stroke="#1B453C" stroke-width="1.7"/>
<path id="Line 71_2" d="M45.7207 27.9048L50.9752 30.5301" stroke="#1B453C" stroke-width="1.7" stroke-linecap="round"/>
</g>
<path id="Rectangle 2910" d="M7.71072 24.1326L21.2781 20.6892L24.8926 34.9306C25.1453 35.9263 24.543 36.9383 23.5473 37.191L13.5856 39.7193C12.5899 39.972 11.5779 39.3697 11.3252 38.374L7.71072 24.1326Z" stroke="#1B453C" stroke-width="1.7"/>
<path id="Line 72" d="M13 27L16.2855 39.7771" stroke="#1B453C" stroke-width="1.7" stroke-linecap="round"/>
<path id="Line 73" d="M18 26L21.2855 38.7771" stroke="#1B453C" stroke-width="1.7" stroke-linecap="round"/>
<path id="Line 74" d="M4.41016 24.1021L24.4884 18.9912" stroke="#1B453C" stroke-width="1.7" stroke-linecap="round"/>
<path id="Rectangle 2911" d="M10.329 20.8705C10.1659 20.231 10.5521 19.5803 11.1917 19.4172L14.8151 18.4933C15.8105 18.2394 16.8232 18.8406 17.077 19.836L17.208 20.3498L11.7823 21.7333C11.1427 21.8964 10.4921 21.5101 10.329 20.8705Z" stroke="#1B453C" stroke-width="1.7"/>
<path id="Vector 80" d="M23.9875 36.4452C21.6446 33.2346 19.5804 33.5758 18.2178 34.726C17.2408 35.5506 15.9773 36.0836 14.7093 36.2473C13.5801 36.393 12.8751 36.9859 12.4616 37.6672C11.9111 38.5744 11.291 39.5247 10.4101 40.1165C7.34673 42.1744 9.31361 44.9343 11.2737 46.5244C11.7063 46.8754 12.2586 47.0318 12.8157 47.0244L51.1717 46.509C51.7439 46.5013 52.3097 46.3223 52.7342 45.9386C55.2738 43.6436 54.4453 41.5172 53.1714 40.2117C52.5438 39.5686 52.0608 38.7692 51.8788 37.8893C51.1447 34.34 48.3776 33.6307 46.0605 33.8501C44.8394 33.9658 43.584 33.5519 42.7312 32.6704C40.2049 30.0591 37.8657 30.6514 36.1394 32.1365C34.7173 33.3599 32.4708 33.6352 30.7195 32.9629C27.3582 31.6727 24.9317 34.4457 23.9875 36.4452ZM23.9875 36.4452C25.5061 36.0862 28.2883 36.3374 27.2677 40.2146M31.0947 42.1891C31.0085 40.9996 31.3019 39.2732 32.7318 39.2457C34.1844 39.2178 35.7548 39.2048 37.0014 38.4585C37.9179 37.9098 38.9453 37.7156 39.855 38.4186C41.2197 39.4732 43.71 40.0754 44.4225 41.6461C44.6194 42.0802 44.6956 42.7173 44.5804 43.6252" stroke="#1B453C" stroke-width="1.7" stroke-linecap="round"/>
</g>
<circle id="Ellipse 133" cx="30.5" cy="30.5" r="29.5" stroke="#1B453C" stroke-width="2"/>
<line id="Line 75" x1="8.84758" y1="51.4736" x2="51.4741" y2="8.84705" stroke="#1B453C" stroke-width="2"/>
</g>
</svg>
