<svg width="108" height="34" viewBox="6.5 0 95 34" fill="none" xmlns="http://www.w3.org/2000/svg">
<g id="microwave film">
<path id="Vector 94" d="M43.5222 1.11401L13.4339 8.29419C10.5418 8.98434 10.7108 13.1545 13.6492 13.6084L60.949 20.9149C61.3125 20.971 61.6837 20.9526 62.0399 20.8607L94.2413 12.5506C97.1358 11.8037 96.8665 7.60831 93.9003 7.23753L44.4874 1.06092C44.1651 1.02064 43.8382 1.03862 43.5222 1.11401Z" stroke="#1B453C" stroke-width="1.7" stroke-linecap="round"/>
<path id="Vector 95" d="M13 13.5L16.4742 23.0539C16.8001 23.9503 17.5748 24.6082 18.5121 24.7846L58.8974 32.3866C59.2941 32.4612 59.7025 32.446 60.0925 32.342L88.2149 24.8427C89.0252 24.6266 89.689 24.0464 90.0115 23.2723L94.5 12.5" stroke="#1B453C" stroke-width="1.7" stroke-linecap="round"/>
<path id="Vector 96" d="M27 7.5L18.3737 9.34849C17.2858 9.58162 17.3346 11.1502 18.4349 11.3152L23 12" stroke="#1B453C" stroke-width="1.7" stroke-linecap="round"/>
<path id="Vector 98" d="M83.5 9L90.8035 9.58428C91.716 9.65728 91.8104 10.9576 90.9179 11.1616L78.5 14" stroke="#1B453C" stroke-width="1.7" stroke-linecap="round"/>
<path id="Vector 97" d="M29 13L47 15.5" stroke="#1B453C" stroke-width="1.7" stroke-linecap="round"/>
<path id="Vector 99" d="M66.5 7L77.5 8" stroke="#1B453C" stroke-width="1.7" stroke-linecap="round"/>
<path id="Vector 100" d="M59.5 21V29.5" stroke="#1B453C" stroke-width="1.7" stroke-linecap="round"/>
</g>
</svg>
