<svg width="38" height="51" viewBox="0 0 38 51" fill="none" xmlns="http://www.w3.org/2000/svg">
<g id="packing envelope">
<path id="Union" fill-rule="evenodd" clip-rule="evenodd" d="M2.71175 1.7H35.2551V1.77865C35.0665 2.7009 34.8361 3.50342 34.5012 4.26185C33.9975 5.40236 33.2368 6.4875 31.9465 7.71957C31.7623 7.89541 31.5018 7.99901 31.214 7.99901H6.77327C6.52151 7.99901 6.29751 7.92085 6.13305 7.78866C4.86141 6.76648 4.10975 5.75196 3.58886 4.58499C3.21351 3.74409 2.95098 2.81025 2.71175 1.7ZM1.00002 0.462085L0.744141 0.509398C0.827884 0.962286 0.911645 1.40005 1.00002 1.82388V48.6766V50.3766H2.70002H35.2551H36.9551V50.376H37.0739V46.7132C37.0739 46.4293 37.0324 46.1551 36.9551 45.8963V1.94805C37.0477 1.47718 37.1287 0.990064 37.2058 0.482488L36.9551 0.44441V0H35.2551H2.70002H1.00002V0.462085ZM35.2551 6.43107V44.0555C34.9353 43.9314 34.5876 43.8632 34.2239 43.8632H21.9748L21.9748 9.69901H31.214C31.9053 9.69901 32.5964 9.44946 33.1205 8.9491C34.0196 8.09053 34.7127 7.26903 35.2551 6.43107ZM20.2748 9.69901L20.2748 43.8632H4.22389C3.66343 43.8632 3.14076 44.025 2.70002 44.3044V6.52137C3.2822 7.44259 4.04233 8.28921 5.06798 9.11366C5.56537 9.51347 6.17587 9.69901 6.77327 9.69901H20.2748ZM3.07389 46.7132V48.6766H35.2551V46.2036C35.0672 45.8241 34.676 45.5632 34.2239 45.5632H4.22389C3.58876 45.5632 3.07389 46.0781 3.07389 46.7132ZM19.5147 6.24844C19.2438 6.58293 18.8166 6.7987 18.3361 6.7987C17.8555 6.7987 17.4284 6.58293 17.1574 6.24844H15C14.5306 6.24844 14.15 5.86788 14.15 5.39844C14.15 4.929 14.5306 4.54844 15 4.54844H17.1589C17.4299 4.21499 17.8564 4 18.3361 4C18.8158 4 19.2423 4.21499 19.5133 4.54844H22.0428C22.5122 4.54844 22.8928 4.929 22.8928 5.39844C22.8928 5.86788 22.5122 6.24844 22.0428 6.24844H19.5147Z" fill="#1B453C"/>
</g>
</svg>
