<svg width="59" height="77" viewBox="0 0 59 77" fill="none" xmlns="http://www.w3.org/2000/svg">
<path d="M6.03802 67.9358C5.59968 65.9662 9.06458 64 10.6092 64L19 67.9358C18.1025 69.1009 16.0319 71.3111 14.9298 70.8304C13.8277 70.3498 14.1367 69.6107 14.4289 69.3012C13.3644 70.084 10.9598 71.4858 9.85774 70.8304C8.75565 70.175 9.39854 68.6276 9.85774 67.9358C7.15263 69.2466 6.1924 68.6294 6.03802 67.9358Z" fill="#FEA34A"/>
<path d="M30.5097 72.2418C29.285 71.0531 30.5522 69.1638 31.3389 68.3678C34.0818 67.271 39.9503 65.311 41.4813 66.245C43.0122 67.1791 43.0972 69.3584 42.9484 70.3313C42.4168 71.2158 40.9965 72.9848 39.5676 72.9848C38.1388 72.9848 38.1643 71.5696 38.3556 70.862C37.9091 72.0295 36.6971 73.144 35.4852 72.9848C34.5156 72.8574 34.3582 71.5165 34.4008 70.862C33.614 71.8173 31.7344 73.4305 30.5097 72.2418Z" fill="#FEA34A"/>
<path d="M1.87926 52.8176C-1.69141 46.1893 6.47197 39.5107 11 37L9.96502 51.0099C5.66987 53.2595 2.78487 53.1524 1.87926 52.8176Z" fill="#463E3E" stroke="black"/>
<mask id="mask0_4400_2908" style="mask-type:alpha" maskUnits="userSpaceOnUse" x="3" y="31" width="55" height="42">
<path d="M4.33663 51.5433C3.67594 47.7952 7.78836 38.8999 9.92716 34.9208L44.2327 32.1611L46.1386 34.9208C48.1207 38.9769 50.3103 44.184 51.1573 46.2806C51.3606 48.8477 52.8091 51.586 53.5079 52.6343C56.8114 54.7394 56.8749 56.3781 56.4937 56.9343C55.562 58.7099 52.9997 62.7105 50.2044 64.5075C47.4091 66.3045 41.5433 69.0214 38.9598 70.1553C35.5928 70.904 27.7406 72.3373 23.2682 72.0806C18.7958 71.8239 14.7977 70.2194 13.3577 69.4493C12.5742 69 10.2956 67.2672 7.44955 63.9299C3.89194 59.7582 5.16251 56.2283 4.33663 51.5433Z" fill="#D9D9D9" stroke="black"/>
</mask>
<g mask="url(#mask0_4400_2908)">
<path d="M4.94056 49.8501C5.25041 46.3877 8.35467 38.3113 10.4702 34.6798L44.4018 32.1611L46.2869 34.6798C48.2474 38.3815 50.4131 43.1338 51.2509 45.0471C51.452 47.3901 52.8847 49.8892 53.5759 50.8458C56.8434 52.767 56.215 54.7861 55.838 55.2937C54.9164 56.9142 52.1935 60.5653 49.4287 62.2053C46.6639 63.8454 41.7417 65.8014 39.1864 66.8362C35.5418 68.3121 28.3156 68.5934 23.6658 68.5934C19.235 68.5934 15.2876 66.8948 13.8633 66.1919C12.1039 65.3237 9.80266 63.0839 8.01955 61.1547C4.50071 57.3474 4.56349 54.0637 4.94056 49.8501Z" fill="#504949"/>
<path d="M11.1914 51.3448C10.8782 45.3155 14.4221 38.3294 16.2332 35.59L30.8843 36.2397L30.9107 36.2994C31.8666 38.4597 33.8403 42.9202 35.1704 48.3805C36.5129 53.8915 34.9664 58.2507 33.8513 60.1524C33.0231 61.5647 31.913 64.5179 26.4979 64.8887C21.0829 65.2595 16.4955 63.2115 14.8788 62.1411C11.929 60.1883 11.5046 57.3742 11.1914 51.3448Z" fill="#FCEDC6"/>
</g>
<path d="M49.57 54.5656C42.3728 54.9265 38.4743 45.0056 37.4247 40C36.8078 41.1343 36.9963 43.5232 37.1676 44.5759C37.3604 45.9938 38.2652 50.3171 40.9385 53.8231C43.6117 57.3292 48.2419 57.1221 50.1484 56.8857C50.7695 55.919 52.1404 53.6375 52.6545 52.2454C53.1686 50.8533 52.9973 49.7748 52.8473 49.4096L49.57 54.5656Z" fill="#443B3B"/>
<path d="M50.249 55.7232C38.9834 54.9833 37.1194 44.8946 37.5957 39.9427C40.1509 34.6598 44.6608 35.6336 46.5963 36.7809C57.0897 44.8118 53.4037 52.7553 50.249 55.7232Z" fill="#504949"/>
<path d="M10 36.7705L10.75 35C11.35 35.5373 13.8333 36.2821 15 36.5873L13.95 39C13.11 39 11.05 37.3607 10 36.7705Z" fill="#3C3333"/>
<path d="M15.3394 37L14 38.9621C19.8218 40.587 28.5742 39.9536 32 39.4036C31.8979 38.9973 31.2344 37.8463 30.9791 37.3174L15.3394 37Z" fill="#EBDBB0"/>
<path d="M32.1184 40L31 37.401L45.0132 33L46 34.3679C43.7368 37.2702 35.8684 39.544 32.1184 40Z" fill="#3C3333"/>
<mask id="mask1_4400_2908" style="mask-type:alpha" maskUnits="userSpaceOnUse" x="2" y="0" width="52" height="38">
<path d="M22.4157 0.255155C3.58077 1.91345 1.37965 17.6547 2.63345 25.318C1.07316 27.7804 3.51576 31.4529 4.93209 32.9814C6.34843 34.5099 9.49219 36.2995 17.5398 37.1899C28.8937 38.4462 42.2588 35.6984 46.3773 32.3532C56.1987 24.3758 53.4822 13.174 51.0442 9.04915C49.3493 5.42686 41.2506 -1.40314 22.4157 0.255155Z" fill="#D9D9D9"/>
</mask>
<g mask="url(#mask1_4400_2908)">
<path d="M22.4157 0.255173C3.58077 1.91347 1.37965 17.6547 2.63345 25.3181C1.07316 27.7804 3.51576 31.4529 4.93209 32.9814C6.34843 34.5099 9.49219 36.2995 17.5398 37.19C28.8937 38.4462 42.2588 35.6985 46.3773 32.3533C56.1987 24.3758 51.2532 13.9866 48.8152 9.86185C47.1202 6.23956 41.2506 -1.40312 22.4157 0.255173Z" fill="#504949"/>
<path d="M7.85616 13.2539C5.35396 15.2484 4.7953 17.9751 4.83604 20.3787C4.86192 21.9052 3.82186 23.5407 2.9487 24.793C2.61097 25.2774 2.3578 25.4823 1.92951 25.8888C-2.8361 30.4122 7.16669 37.7324 14.7634 41.9532C16.4299 42.8792 18.4143 42.9841 20.2103 42.3442L37.3206 36.2478C40.3854 34.862 42.2383 32.4287 43.5199 30.2176C44.5417 28.4549 45.5399 26.1347 45.5399 24.686C45.5399 23.2374 46.1668 21.2941 43.9379 17.1483C41.9971 13.5386 39.2013 11.9976 37.3206 11.1182C35.0219 10.0433 33.2805 9.61222 28.9619 10.494C28.2107 10.6473 27.469 10.8565 26.762 11.105C23.9614 12.0891 20.254 11.9312 17.399 11.1182C14.7521 10.3644 10.2941 11.3105 7.85616 13.2539Z" fill="#FCEDC6"/>
<path d="M19.353 24.3915C17.49 25.4516 17.3951 26.698 17.8463 27.4147C17.7794 28.2597 19.1776 28.6561 19.547 28.7426C20.2672 28.9114 21.863 28.9978 23.5548 28.7264C25.2467 28.4549 26.0222 27.7353 26.1985 27.4094C26.4469 26.409 26.6348 25.2983 25.9371 24.3916C25.3905 23.6811 24.2782 23.6811 22.8599 23.6811L22.8592 23.6811C21.5762 23.6811 20.6014 23.6811 19.353 24.3915Z" fill="#FEA34A"/>
<path d="M24.9875 26.4622C23.3555 27.1796 19.7082 28.3797 18.1747 27.4404" stroke="#B0661E" stroke-width="1.2" stroke-linecap="round"/>
<ellipse cx="2.5042" cy="2.10628" rx="2.5042" ry="2.10628" transform="matrix(0.933053 -0.35974 0.385726 0.922613 8.06641 21.7769)" fill="#562528"/>
<ellipse cx="2.53453" cy="2.27426" rx="2.53453" ry="2.27426" transform="matrix(-0.915608 -0.402071 -0.433858 0.900981 37.8066 21.2593)" fill="#562528"/>
</g>
</svg>
