<svg width="77" height="69" viewBox="3 6 50 65" fill="none" xmlns="http://www.w3.org/2000/svg">
<g id="thin pillable bags">
<path id="Vector 185" d="M13.4806 47.8378L1.74552 31.9568C0.806168 30.6856 1.15484 28.8829 2.50046 28.0536L2.6626 27.9537C3.84082 27.2276 5.37729 27.51 6.22036 28.6076L7.82107 30.6915C8.18342 31.1632 8.37984 31.7414 8.37984 32.3362V34.1215C8.37984 34.734 8.58806 35.3282 8.97032 35.8067L9.24024 36.1446C9.61753 36.6169 10.1892 36.8919 10.7937 36.8919C11.5472 36.8919 12.2359 36.4659 12.5725 35.7918L13.2331 34.4686C13.3964 34.1416 13.6244 33.8511 13.9033 33.6148L17.5575 30.5183C17.9865 30.1548 18.5182 29.9343 19.0785 29.8876L20.3999 29.7773C21.6374 29.674 22.5891 28.6395 22.5891 27.3978C22.5891 26.9269 22.4499 26.4665 22.189 26.0746L21.9332 25.6903C21.4326 24.9383 20.589 24.4865 19.6856 24.4865H19.6084C18.5409 24.4865 17.5736 23.8575 17.1405 22.8817L15.8603 19.9972C15.3273 18.7962 15.7363 17.386 16.829 16.6564L17.0955 16.4785C18.3235 15.6586 19.9824 15.9773 20.8192 17.1938L30.6047 31.4189L38.6202 42.7297L45.64 53.7332C46.4051 54.9324 46.1085 56.5196 44.962 57.3615L41.5349 59.8784L34.6124 63.8919L28.9272 67.515C27.649 68.3295 25.9509 67.9326 25.1662 66.636L19.3101 56.9595L13.4806 47.8378Z" stroke="#FBFBF4" stroke-width="1.7" stroke-linecap="round"/>
<path id="Vector 186" d="M16.3424 30.8684L12.8118 22.4462C12.2259 21.0486 12.9048 19.4426 14.3155 18.889L15.253 18.5211M41.4003 60.2842L44.5434 59.2263L48.4552 57.6347C49.7741 57.0981 50.4497 55.6295 49.9988 54.2789L45.8882 41.9647L40.8853 29.0983L34.8814 12.9959C34.3661 11.6137 32.8368 10.9009 31.4469 11.3952L31.1626 11.4963C29.9234 11.9369 29.1821 13.2063 29.407 14.502L29.941 17.5782C30.1235 18.6295 30.908 19.4747 31.9428 19.7349L32.0095 19.7517C32.885 19.9718 33.5925 20.615 33.895 21.4655L34.0473 21.8937C34.2044 22.3357 34.2272 22.8142 34.1129 23.2691V23.2691C33.8115 24.4673 32.642 25.2346 31.4229 25.0339L30.2588 24.8422C29.6178 24.7366 28.9602 24.8657 28.4067 25.2058L26.874 26.1474M21.0635 29.779L20.6584 29.6648C19.9121 29.4546 19.2961 28.9266 18.974 28.2213V28.2213C18.6808 27.5794 18.657 26.8468 18.9079 26.1873L19.4818 24.6785" stroke="#FBFBF4" stroke-width="1.7" stroke-linecap="round"/>
<path id="Vector 187" d="M30.1423 24.8653L28.922 13.5847C28.8668 13.0748 29.2663 12.6298 29.7791 12.6298V12.6298M44.4265 59.2896L49.9225 59.2896L54.1173 58.8007C55.5317 58.6358 56.5749 57.401 56.5011 55.979L55.8289 43.0142L54.4442 29.2791L52.9594 12.158C52.8319 10.6884 51.5486 9.59312 50.0772 9.69819L49.7761 9.71968C48.4643 9.81335 47.4109 10.8385 47.2815 12.1473L46.9745 15.2544C46.8696 16.3162 47.3998 17.3403 48.3275 17.8674L48.3873 17.9014C49.1722 18.3473 49.6823 19.1561 49.7466 20.0566L49.779 20.5099C49.8124 20.9777 49.7065 21.445 49.4748 21.8527V21.8527C48.8644 22.927 47.5325 23.354 46.4112 22.8349L45.2759 22.3093C44.7257 22.0546 44.1058 21.9925 43.5161 22.1329L38.8581 23.2421M33.7739 23.2421L33.4107 21.0632" stroke="#FBFBF4" stroke-width="1.7" stroke-linecap="round"/>
</g>
</svg>
