<svg width="50" height="47" viewBox="0 0 50 47" fill="none" xmlns="http://www.w3.org/2000/svg">
<g id="water pipes">
<path id="Vector 141" d="M11.5 42C11.5 42 13.8904 42.9576 15.5 43C17.2996 43.0474 20 42 20 42M24 23.5C24 23.5 24.3953 20.7502 25.5 19.5C26.8925 17.924 30.5 17.5 30.5 17.5" stroke="#FBFBF4" stroke-width="1.7" stroke-linecap="round"/>
<path id="Vector 138" d="M46 14.25V23.25C46 23.9404 46.5596 24.5 47.25 24.5C47.9404 24.5 48.5 23.9404 48.5 23.25V14.25C48.5 13.5596 47.9404 13 47.25 13C46.5596 13 46 13.5596 46 14.25Z" stroke="#FBFBF4" stroke-width="1.7" stroke-linecap="round"/>
<path id="Vector 130" d="M11.25 1H2.25C1.55964 1 1 1.55964 1 2.25C1 2.94036 1.55964 3.5 2.25 3.5H11.25C11.9404 3.5 12.5 2.94036 12.5 2.25C12.5 1.55964 11.9404 1 11.25 1Z" stroke="#FBFBF4" stroke-width="1.7" stroke-linecap="round"/>
<path id="Vector 134" d="M11.25 30H2.25C1.55964 30 1 30.5596 1 31.25C1 31.9404 1.55964 32.5 2.25 32.5H11.25C11.9404 32.5 12.5 31.9404 12.5 31.25C12.5 30.5596 11.9404 30 11.25 30Z" stroke="#FBFBF4" stroke-width="1.7" stroke-linecap="round"/>
<path id="Vector 137" d="M29.25 30H20.25C19.5596 30 19 30.5596 19 31.25C19 31.9404 19.5596 32.5 20.25 32.5H29.25C29.9404 32.5 30.5 31.9404 30.5 31.25C30.5 30.5596 29.9404 30 29.25 30Z" stroke="#FBFBF4" stroke-width="1.7" stroke-linecap="round"/>
<path id="Vector 131" d="M2.5 4V29" stroke="#FBFBF4" stroke-width="1.7" stroke-linecap="round"/>
<path id="Vector 133" d="M11 4V30" stroke="#FBFBF4" stroke-width="1.7" stroke-linecap="round"/>
<path id="Vector 135" d="M11 33C11 33 11.7084 35.0521 12.5 36C13.5694 37.2805 14.5 37.5 16 37.5C17.3099 37.5 18.0738 36.9262 19 36C19.9262 35.0738 20.5 33 20.5 33" stroke="#FBFBF4" stroke-width="1.7" stroke-linecap="round"/>
<path id="Vector 136" d="M3 33.5C3 33.5 3.39156 37.0692 4.5 39C5.25928 40.3226 6.20943 41.2094 7 42C7.5 42.5 9.19399 43.847 10.5 44.5C11.5 45 14.3898 45.5 16 45.5C17.1615 45.5 19.8285 45.1686 21.5 44.5C23.3556 43.7578 24.5431 43 25.5 42C26.4735 40.9827 26.8703 40.2594 27.5 39C28.4956 37.0087 29 33 29 33" stroke="#FBFBF4" stroke-width="1.7" stroke-linecap="round"/>
<path id="Vector 139" d="M21 29.5V22.844C21 22.6156 21.0282 22.3895 21.0922 22.1703C21.3323 21.3479 22.0261 19.1874 23 18C24.0075 16.7716 26.0453 15.6939 26.9935 15.2351C27.3254 15.0745 27.6902 15 28.0589 15H45.5" stroke="#FBFBF4" stroke-width="1.7" stroke-linecap="round"/>
<path id="Vector 140" d="M28.5 29.5V26.2002C28.5 26.0669 28.5094 25.9346 28.5346 25.8037C28.6268 25.3254 28.9123 24.0952 29.5 23.5C29.9203 23.0743 30.7033 22.7626 31.1548 22.6084C31.3822 22.5308 31.6217 22.5 31.862 22.5H45.5" stroke="#FBFBF4" stroke-width="1.7" stroke-linecap="round"/>
</g>
</svg>
