<svg width="85" height="55" viewBox="0 0 85 55" fill="none" xmlns="http://www.w3.org/2000/svg">
<g id="plastic furniture">
<g id="Group 290039">
<g id="Vector 16">
<path d="M11.8483 7.94151C11.3875 7.62704 11.0062 7.33841 10.6893 7.07317C9.52514 6.09864 10.4607 4.54794 11.5664 5.58825C12.7597 6.71082 13.5566 8.75929 13.8646 10.1365C13.7329 9.67836 13.3944 9.22746 13.088 8.89631C12.7397 8.51978 12.272 8.23068 11.8483 7.94151Z" stroke="#1B453C" stroke-linecap="round"/>
<path d="M17.216 17.165C17.6104 15.4803 16.4096 9.40284 15.606 5.9092C15.5288 5.57341 15.2297 5.33901 14.8851 5.33901C14.3809 5.33901 14.0232 5.83079 14.1761 6.3113C15.6306 10.882 16.259 13.3528 16.4095 15.747C16.4816 16.8936 16.6501 17.387 16.8033 17.5524C16.9654 17.7275 17.1616 17.3974 17.216 17.165Z" stroke="#1B453C" stroke-linecap="round"/>
<path d="M19.4943 5.17907C19.4008 5.08612 18.9055 5.10008 18.4771 5.13511C18.1913 5.15848 17.9984 5.31191 18.0072 5.5985C18.073 7.75815 19.5619 17.4926 20.1376 17.4926C20.9419 17.4926 19.6551 5.33901 19.4943 5.17907Z" stroke="#1B453C" stroke-linecap="round"/>
</g>
<path id="Vector 15" d="M25.4634 6.42386C23.5312 8.4937 24.6166 14.172 25.6917 17.7577C25.9603 18.6537 26.7115 19.3171 27.6311 19.4886C34.9955 20.8618 36.8934 19.1161 36.8934 18C37.3326 14.4246 37.2207 12.415 37.0404 11.5133C36.974 11.181 36.765 10.9106 36.506 10.692C33.475 8.13433 27.5856 4.15054 25.4634 6.42386Z" stroke="#1B453C" stroke-width="1.7" stroke-linecap="round"/>
<path id="Vector 14" d="M11.7279 20.7394C11.3438 16.6441 11.1653 12.1034 10.7444 10.2528C10.6391 9.79019 9.32366 8.40226 8.21866 7.93962C7.04888 7.44986 5.88792 6.39748 6.00867 4.3927C6.06128 3.51883 6.92423 1.70938 9.95508 1.46264C12.9859 1.2159 16.6903 1.0514 18.1636 1C19.7422 1 23.3729 1.09253 25.2672 1.46264C27.1615 1.83275 28.8979 2.23371 29.5293 2.38792C30.0555 2.49073 31.4867 2.94309 33.0022 3.93006C34.1206 4.65846 34.7346 5.20767 35.0218 5.5281C35.1626 5.68513 35.2789 5.86394 35.4334 6.00744C35.8119 6.35881 36.5125 6.87234 37.4222 7.16855C38.3191 7.46062 39.275 7.70788 39.8709 7.84969C40.131 7.91156 40.3907 7.9992 40.575 8.19282C40.9414 8.57777 41.3686 9.34001 41.3686 10.5613C41.3686 12.1651 41.1581 18.529 41.0529 21.5104C41.1434 26.1517 41.7785 36.8364 41.9548 40.9159C41.9886 41.6998 41.3639 42.3293 40.5793 42.3293V42.3293C40.0366 42.3293 39.1442 32.7615 38.6034 25.96C38.4741 24.3339 36.9548 23.1791 35.3417 23.4226C33.6435 23.6788 31.6245 23.9282 29.5293 24.0903M11.7279 20.7394C11.3228 22.8553 10.5662 29.002 10.5737 37.4625C10.5746 38.5009 11.8498 40.1694 12.3229 39.245V39.245C12.4492 38.9983 12.6211 35.4411 12.6913 33.6933M11.7279 20.7394L12.6913 33.6933M12.6913 33.6933L13.4917 44.4574C13.55 45.2405 14.2344 46.0288 15.0172 46.0921V46.0921C15.908 46.1641 16.3634 45.4551 16.4402 44.5647C16.7382 41.1104 16.9698 33.7693 17.0586 29.9922C17.1933 24.2679 19.0582 23.6694 20.5315 23.9779C22.1471 24.2234 23.9966 24.3002 25.8986 24.2679M25.8986 24.2679L26.9233 37.0122C26.9687 37.5765 27.4398 38.0113 28.0059 38.0113V38.0113C28.5914 38.0113 29.0715 37.5473 29.0914 36.9621L29.5293 24.0903M25.8986 24.2679C27.1031 24.2474 28.3287 24.1832 29.5293 24.0903" stroke="#1B453C" stroke-width="1.7" stroke-linecap="round"/>
<path id="Vector 17" d="M22.412 15.2597C22.2101 11.8946 22.6104 9.0611 23.1295 7.27252C23.3372 6.55675 22.8184 5.67329 22.0794 5.77004C21.7423 5.81417 21.6537 6.01152 21.5583 6.3378C20.9255 8.50153 21.5256 13.0705 21.7112 15.7357C21.7375 16.1121 21.7561 16.6657 22.0671 16.8793C22.5595 17.2174 22.4478 15.8559 22.412 15.2597Z" stroke="#1B453C" stroke-linecap="round"/>
</g>
<g id="Vector 21">
<path d="M50.6541 20.8686L59.1538 17.2725C59.5763 17.0938 60.0372 17.0252 60.4934 17.0732L75.5737 18.6604C76.9529 18.8056 78 19.9687 78 21.3555V36.3975C78 37.0791 77.4475 37.6316 76.766 37.6316C76.0844 37.6316 75.5319 37.0791 75.5319 36.3975V28.2668C75.5319 26.8511 73.9551 26.0058 72.7761 26.7894C72.2814 27.1182 71.984 27.6728 71.984 28.2668V42.4414C71.984 43.8545 70.8385 45 69.4254 45C68.0851 45 66.9719 43.9656 66.8737 42.6288L65.9693 30.3161C65.878 29.0732 64.9508 28.0528 63.7223 27.8432L61.8803 27.5289L61.4738 32.473C61.3984 33.3894 60.6327 34.0947 59.7133 34.0947C58.7377 34.0947 57.9468 33.3039 57.9468 32.3283V26.8579L55.6981 26.4743C54.1579 26.2115 52.7151 27.3022 52.548 28.8557L51.3149 40.3148C51.2353 41.0546 50.4901 41.5295 49.7859 41.2892C49.3159 41.1288 49 40.6872 49 40.1906V23.3644C49 22.2758 49.6514 21.2928 50.6541 20.8686Z" fill="#1B453C"/>
<path d="M57.9468 26.8579L55.6981 26.4743C54.1579 26.2115 52.7151 27.3022 52.548 28.8557L51.3149 40.3148C51.2353 41.0546 50.4901 41.5295 49.7859 41.2892V41.2892C49.3159 41.1288 49 40.6872 49 40.1906V23.3644C49 22.2758 49.6514 21.2928 50.6541 20.8686L59.1538 17.2725C59.5763 17.0938 60.0372 17.0252 60.4934 17.0732L75.5737 18.6604C76.9529 18.8056 78 19.9687 78 21.3555V36.3975C78 37.0791 77.4475 37.6316 76.766 37.6316V37.6316C76.0844 37.6316 75.5319 37.0791 75.5319 36.3975V28.2668C75.5319 26.8511 73.9551 26.0058 72.7761 26.7894V26.7894C72.2814 27.1182 71.984 27.6728 71.984 28.2668V42.4414C71.984 43.8545 70.8385 45 69.4254 45V45C68.0851 45 66.9719 43.9656 66.8737 42.6288L65.9693 30.3161C65.878 29.0732 64.9508 28.0528 63.7223 27.8432L61.8803 27.5289M57.9468 26.8579V32.3283C57.9468 33.3039 58.7377 34.0947 59.7133 34.0947V34.0947C60.6327 34.0947 61.3984 33.3894 61.4738 32.473L61.8803 27.5289M57.9468 26.8579L61.8803 27.5289" stroke="#1B453C" stroke-width="1.7" stroke-linecap="round"/>
</g>
</g>
</svg>
