<svg width="93" height="93" viewBox="0 0 93 93" fill="none" xmlns="http://www.w3.org/2000/svg">
<g filter="url(#filter0_i_4180_3031)">
<path d="M16.2484 46.3891C14.4848 46.3862 13.037 47.8167 13.202 49.5726C13.749 55.3963 15.814 60.9955 19.2158 65.7994C23.2348 71.475 28.9204 75.7591 35.484 78.0576C42.0477 80.356 49.1639 80.5549 55.8456 78.6265C62.5274 76.6981 68.4433 72.7381 72.773 67.2958C77.1026 61.8535 79.6312 55.1987 80.008 48.2545C80.3849 41.3103 78.5913 34.4209 74.8761 28.542C71.1608 22.6631 65.7081 18.0862 59.2743 15.4461C53.8286 13.2114 47.9085 12.4581 42.1108 13.2343C40.3629 13.4683 39.2945 15.2006 39.6938 16.9184C40.0931 18.6362 41.8097 19.6849 43.5625 19.4902C48.061 18.9905 52.6313 19.6233 56.8498 21.3544C62.0571 23.4912 66.4704 27.1956 69.4774 31.9538C72.4843 36.712 73.936 42.288 73.631 47.9084C73.326 53.5288 71.2794 58.915 67.7752 63.3198C64.2709 67.7246 59.4827 70.9297 54.0748 72.4905C48.6668 74.0513 42.9072 73.8903 37.5948 72.03C32.2824 70.1698 27.6806 66.7023 24.4278 62.1087C21.7926 58.3873 20.1485 54.0763 19.6241 49.5806C19.4198 47.8289 18.012 46.392 16.2484 46.3891Z" fill="#CC554E"/>
</g>
<g filter="url(#filter1_i_4180_3031)">
<path d="M62.2837 72.3467C63.1989 73.8543 65.1738 74.3463 66.5874 73.2919C71.2761 69.7945 74.9832 65.1177 77.3156 59.7131C80.0713 53.3279 80.7715 46.2435 79.3191 39.4424C77.8668 32.6413 74.3339 26.4607 69.2105 21.7581C64.0871 17.0555 57.6272 14.0638 50.7268 13.1982C43.8265 12.3325 36.8278 13.6357 30.7015 16.9271C24.5753 20.2185 19.6252 25.3348 16.5378 31.5664C13.4505 37.798 12.3791 44.8359 13.4721 51.7039C14.3972 57.5171 16.8342 62.9647 20.5137 67.5119C21.623 68.8828 23.6583 68.8939 24.9175 67.6591C26.1766 66.4243 26.1791 64.4127 25.1008 63.0171C22.3334 59.4356 20.4958 55.2034 19.7791 50.7002C18.8945 45.1414 19.7617 39.4452 22.2605 34.4015C24.7592 29.3579 28.7657 25.2169 33.7241 22.553C38.6824 19.8891 44.347 18.8343 49.9319 19.5349C55.5168 20.2355 60.7452 22.6569 64.8919 26.463C69.0386 30.2692 71.898 35.2715 73.0735 40.7761C74.249 46.2807 73.6823 52.0146 71.452 57.1826C69.6451 61.3693 66.819 65.0164 63.2527 67.8034C61.8631 68.8893 61.3686 70.8392 62.2837 72.3467Z" fill="#CC554E"/>
</g>
<path d="M37 71.8818C33.5 71.3818 32 75.3818 34 77.3818C27.0964 77.3818 15 65.2854 15 58.3818C18 62.3818 22.5 58.8818 21 54.8818C27.9036 54.8818 37 64.9783 37 71.8818Z" fill="#F4F3E7"/>
<path d="M60.9717 23.2975C64.3305 24.4012 66.5061 20.7247 64.8862 18.4061C71.6837 19.6119 81.4813 33.6353 80.2754 40.4327C78.0202 35.9702 72.978 38.6304 73.7563 42.8309C66.9589 41.625 59.7658 30.0949 60.9717 23.2975Z" fill="#F4F3E7"/>
<g filter="url(#filter2_i_4180_3031)">
<path d="M77.2701 36.3356C76.4162 35.6349 75.156 35.7591 74.4553 36.613L63.037 50.5279C62.3363 51.3817 62.4605 52.642 63.3144 53.3426C64.1683 54.0433 65.4285 53.9191 66.1292 53.0652L76.2788 40.6965L88.6475 50.8461C89.5014 51.5468 90.7616 51.4226 91.4623 50.5687C92.163 49.7148 92.0388 48.4546 91.1849 47.7539L77.2701 36.3356ZM78.2892 40.7038L77.9917 37.6856L74.011 38.0779L74.3085 41.0961L78.2892 40.7038Z" fill="#CC554E"/>
</g>
<g filter="url(#filter3_i_4180_3031)">
<path d="M20.0226 62.5483C21.0061 63.0511 22.211 62.6615 22.7139 61.678L30.9083 45.6515C31.4112 44.668 31.0215 43.4631 30.0381 42.9602C29.0546 42.4574 27.8497 42.847 27.3468 43.8305L20.0629 58.0763L5.81704 50.7924C4.83357 50.2895 3.62867 50.6791 3.12582 51.6626C2.62297 52.6461 3.01258 53.851 3.99606 54.3538L20.0226 62.5483ZM18.097 58.4972L19.0301 61.3829L22.8361 60.1522L21.903 57.2665L18.097 58.4972Z" fill="#CC554E"/>
</g>
<defs>
<filter id="filter0_i_4180_3031" x="13.1895" y="12.938" width="66.8672" height="69.0022" filterUnits="userSpaceOnUse" color-interpolation-filters="sRGB">
<feFlood flood-opacity="0" result="BackgroundImageFix"/>
<feBlend mode="normal" in="SourceGraphic" in2="BackgroundImageFix" result="shape"/>
<feColorMatrix in="SourceAlpha" type="matrix" values="0 0 0 0 0 0 0 0 0 0 0 0 0 0 0 0 0 0 127 0" result="hardAlpha"/>
<feOffset dy="2"/>
<feGaussianBlur stdDeviation="2"/>
<feComposite in2="hardAlpha" operator="arithmetic" k2="-1" k3="1"/>
<feColorMatrix type="matrix" values="0 0 0 0 0.384314 0 0 0 0 0.247059 0 0 0 0 0.2 0 0 0 1 0"/>
<feBlend mode="normal" in2="shape" result="effect1_innerShadow_4180_3031"/>
</filter>
<filter id="filter1_i_4180_3031" x="13.0566" y="12.9375" width="67.002" height="62.9167" filterUnits="userSpaceOnUse" color-interpolation-filters="sRGB">
<feFlood flood-opacity="0" result="BackgroundImageFix"/>
<feBlend mode="normal" in="SourceGraphic" in2="BackgroundImageFix" result="shape"/>
<feColorMatrix in="SourceAlpha" type="matrix" values="0 0 0 0 0 0 0 0 0 0 0 0 0 0 0 0 0 0 127 0" result="hardAlpha"/>
<feOffset dy="2"/>
<feGaussianBlur stdDeviation="2"/>
<feComposite in2="hardAlpha" operator="arithmetic" k2="-1" k3="1"/>
<feColorMatrix type="matrix" values="0 0 0 0 0.384314 0 0 0 0 0.247059 0 0 0 0 0.2 0 0 0 1 0"/>
<feBlend mode="normal" in2="shape" result="effect1_innerShadow_4180_3031"/>
</filter>
<filter id="filter2_i_4180_3031" x="62.584" y="35.8816" width="29.332" height="17.915" filterUnits="userSpaceOnUse" color-interpolation-filters="sRGB">
<feFlood flood-opacity="0" result="BackgroundImageFix"/>
<feBlend mode="normal" in="SourceGraphic" in2="BackgroundImageFix" result="shape"/>
<feColorMatrix in="SourceAlpha" type="matrix" values="0 0 0 0 0 0 0 0 0 0 0 0 0 0 0 0 0 0 127 0" result="hardAlpha"/>
<feOffset/>
<feGaussianBlur stdDeviation="2"/>
<feComposite in2="hardAlpha" operator="arithmetic" k2="-1" k3="1"/>
<feColorMatrix type="matrix" values="0 0 0 0 0.384314 0 0 0 0 0.247059 0 0 0 0 0.2 0 0 0 1 0"/>
<feBlend mode="normal" in2="shape" result="effect1_innerShadow_4180_3031"/>
</filter>
<filter id="filter3_i_4180_3031" x="2.90625" y="42.7405" width="28.2227" height="20.0276" filterUnits="userSpaceOnUse" color-interpolation-filters="sRGB">
<feFlood flood-opacity="0" result="BackgroundImageFix"/>
<feBlend mode="normal" in="SourceGraphic" in2="BackgroundImageFix" result="shape"/>
<feColorMatrix in="SourceAlpha" type="matrix" values="0 0 0 0 0 0 0 0 0 0 0 0 0 0 0 0 0 0 127 0" result="hardAlpha"/>
<feOffset/>
<feGaussianBlur stdDeviation="2"/>
<feComposite in2="hardAlpha" operator="arithmetic" k2="-1" k3="1"/>
<feColorMatrix type="matrix" values="0 0 0 0 0.384314 0 0 0 0 0.247059 0 0 0 0 0.2 0 0 0 1 0"/>
<feBlend mode="normal" in2="shape" result="effect1_innerShadow_4180_3031"/>
</filter>
</defs>
</svg>
