<svg width="52" height="61" viewBox="0 0 52 61" fill="none" xmlns="http://www.w3.org/2000/svg">
<g id="detergent/shampoo">
<g id="detergent">
<path id="Vector 106" d="M41.3126 8.50381H29.6582C28.9667 8.50381 28.4062 7.94332 28.4062 7.25191C28.4062 6.5605 28.9667 6 29.6582 6H35.4854H41.3126C42.004 6 42.5645 6.5605 42.5645 7.25191C42.5645 7.94332 42.004 8.50381 41.3126 8.50381Z" stroke="#FBFBF4" stroke-width="1.7" stroke-linecap="round"/>
<path id="Vector 107" d="M29 6V3.7C29 2.20883 30.2088 1 31.7 1H39.3C40.7912 1 42 2.20883 42 3.7V6" stroke="#FBFBF4" stroke-width="1.7" stroke-linecap="round"/>
<path id="Vector 108" d="M28.8489 8.61865C28.8489 8.61865 23.7652 14.3842 21.7698 18.7949C20.9943 20.509 20.6502 21.5747 20.1221 23.2695C20.0412 23.5293 20 23.8011 20 24.0732C20 35.0132 20 44.7702 20 55.2625C20 55.9914 20.2897 56.6955 20.8293 57.1856C21.6488 57.9296 22.3614 58.4737 23.3391 59.0994C23.7562 59.3663 24.2441 59.4999 24.7393 59.4999C32.515 59.4999 38.4563 59.4999 46.2319 59.4999C46.7271 59.4999 47.215 59.3663 47.6321 59.0994C48.6098 58.4737 49.3225 57.9296 50.1419 57.1856C50.6815 56.6955 50.9712 55.9908 50.9712 55.2619C50.9712 44.8916 50.9712 37.0669 50.9712 24.0759C50.9712 23.8038 50.93 23.5293 50.8491 23.2695C50.321 21.5747 49.9769 20.509 49.2014 18.7949C47.206 14.3842 42.1223 8.61865 42.1223 8.61865" stroke="#FBFBF4" stroke-width="1.7" stroke-linecap="round"/>
<path id="Vector 109" d="M44.2682 31.5436L44.6715 31.6589C45.5345 31.9055 46.4602 31.5941 46.9988 30.876C47.2799 30.5012 47.4319 30.0453 47.4319 29.5767V23.8944C47.4319 23.4512 47.3228 23.0149 47.1142 22.6238L44.2973 17.3422C44.0338 16.8481 43.6233 16.4482 43.1225 16.1978L42.3735 15.8233C41.6661 15.4696 40.8269 15.5018 40.1486 15.9088C39.4518 16.3269 39.0254 17.0799 39.0254 17.8926V20.9187C39.0254 21.2693 39.0937 21.6165 39.2264 21.941L42.5109 29.9698C42.8244 30.7361 43.4721 31.3162 44.2682 31.5436Z" stroke="#FBFBF4" stroke-width="1.7" stroke-linecap="round"/>
<path id="Vector 110" d="M26.6367 49.7208V28.574C26.6367 27.0829 27.8456 25.874 29.3367 25.874H33.4791C34.6703 25.874 35.7135 26.6576 36.1262 27.7751C36.3349 28.3404 36.5746 28.9357 36.813 29.4136C37.8622 31.5165 38.6244 32.6879 40.3525 34.2805C41.0597 34.9322 42.0933 35.616 42.9302 36.1264C43.7822 36.646 44.3346 37.5587 44.3346 38.5566V49.7208C44.3346 51.212 43.1257 52.4208 41.6346 52.4208H29.3367C27.8456 52.4208 26.6367 51.212 26.6367 49.7208Z" stroke="#FBFBF4" stroke-width="1.7" stroke-linecap="round"/>
<path id="Vector 112" d="M23.9824 21.4496C25.3098 17.9101 26.1947 16.1403 29.2918 13.4856" stroke="#FBFBF4" stroke-width="1.7" stroke-linecap="round"/>
</g>
<g id="Group 290053">
<g id="Group 290052">
<path id="Vector 113" d="M27.5 10H3.7C2.20883 10 1 11.2088 1 12.7V50.3C1 51.7912 2.20883 53 3.7 53H20" stroke="#FBFBF4" stroke-width="1.7" stroke-linecap="round"/>
<g id="Group 290051">
<path id="Vector 114" d="M11 10V3.7C11 2.20883 12.2088 1 13.7 1H17.3C18.7912 1 20 2.20883 20 3.7V10" stroke="#FBFBF4" stroke-width="1.7" stroke-linecap="round"/>
<path id="Vector 115" d="M13 1.5V9.5M15.5 1.5V9.5" stroke="#FBFBF4" stroke-width="1.7" stroke-linecap="round"/>
<path id="Vector 116" d="M18 1.5V9.5" stroke="#FBFBF4" stroke-width="1.7" stroke-linecap="round"/>
</g>
</g>
<path id="Vector 117" d="M2 23H20" stroke="#FBFBF4" stroke-width="1.7" stroke-linecap="round"/>
<path id="Vector 118" d="M1.5 36H19.5" stroke="#FBFBF4" stroke-width="1.7" stroke-linecap="round"/>
</g>
</g>
</svg>
