<svg width="75" height="79" viewBox="0 0 75 79" fill="none" xmlns="http://www.w3.org/2000/svg">
<path d="M0.965169 41.8931C-0.122962 48.0758 6.00054 51.5854 11.1104 53.155C13.1835 53.7918 15.1954 52.885 16.4668 51.128C17.4129 49.8207 18.1604 48.0531 17.7045 46.5051C17.08 44.3847 16.138 42.8213 15.6263 42.1818C15.3872 34.5857 11.9445 32.6039 9.5262 32.506C8.78836 32.4762 8.03684 32.5355 7.31769 32.7032C5.20822 33.1951 2.10145 35.4367 0.965169 41.8931Z" fill="#FEA34A"/>
<path d="M8.4003 46.2857C13.1594 48.722 15.6332 44.5525 15.5581 42.1659C21.417 50.9542 15.5581 51.475 15.5581 51.475C15.5581 51.475 8.24308 50.6287 6.90001 47.4389C5.33764 43.7283 5.88179 39.9756 8.90934 40.3705C5.87535 41.9996 6.9651 45.551 8.4003 46.2857Z" fill="#DB924A"/>
<path d="M62.3207 74.81C56.92 74.3453 57.5098 69.2391 56.3913 68.6153C59.3344 67.107 63.1932 60.1377 65.0639 58.1886C65.0369 60.0441 65.5588 67.561 64.8175 71.2404C64.0762 74.9198 63.5721 74.9177 62.3207 74.81Z" fill="#FEA34A"/>
<path d="M60.8423 66.2549C56.819 69.8813 49.8315 69.6851 46.0508 70.3399C43.0089 70.8667 37.8632 71.3341 34.1014 71.0104C31.2476 70.7648 26.6587 70.0301 21.5342 68.2301C16.4097 66.4301 14.0179 62.1819 13.4626 60.2829C13.319 59.5942 13.2389 58.91 13.214 58.236C13.0228 53.0491 16.1056 48.4567 18.7264 46.9493C21.878 45.1366 22.2979 44.6465 22.9719 43.8601L22.9786 43.8522C46.9515 47.1174 57.402 44.985 61.7065 42.5458C62.3493 48.743 65.0145 49.3644 65.2021 57.3519C65.3282 62.7206 63.3923 63.9565 60.8423 66.2549Z" fill="#FEA34A"/>
<path d="M53.2485 69.4567C53.1332 69.4689 51.9893 69.6141 50.6142 69.7887C47.4726 70.1874 43.8309 70.2426 42.0361 67.6336C40.1844 64.9419 39.8657 60.9999 38.4519 57.606C34.8562 50.0364 34.0495 48.0721 35.1291 46.8658C36.0397 45.8482 51.6461 43.801 56.508 43.1853C57.4632 43.0643 58.6873 42.5256 59.3221 43.2494C59.803 43.7978 59.7078 45.53 59.035 50.9278C58.6415 54.0855 58.4276 52.505 58.7789 57.701C59.4319 67.362 56.7865 68.5849 56.7865 68.5849C56.7865 68.5849 55.2926 69.2404 53.2485 69.4567Z" fill="#FCEDC6"/>
<path d="M29.1988 65.4695L28.9725 65.4133C26.5196 64.8037 24.1223 66.5911 24.0064 69.116C27.9178 70.889 31.2499 71.0548 32.6754 70.8805L32.3217 68.8286C32.039 67.1887 30.8138 65.8708 29.1988 65.4695Z" fill="#FCEDC6"/>
<path d="M16.8046 39.6621C20.3155 43.2051 25.4971 45.2017 27.6491 45.7571C30.8165 46.6613 38.8569 48.2375 45.6799 47.3088C52.5028 46.38 61.0093 43.5532 63.6369 42.1241C66.7897 40.4135 72.4088 36.1621 72.7622 30.2336C73.1156 24.3051 71.293 23.7693 68.6395 17.399C68.3685 12.044 67.93 9.84676 67.8321 8.7058C67.6922 7.80079 67.1901 5.5867 64.1215 4.79992C61.0529 4.01315 58.2975 6.47533 57.7418 7.36404L53.4139 12.1031C46.5286 8.89705 35.7186 10.4497 31.1742 11.6268C27.5104 8.64564 24.2893 7.35351 23.1367 7.08009C21.9879 6.76343 19.3148 6.99949 17.8133 10.477C16.3118 13.9545 17.0614 19.9736 17.6239 22.5484C17.1496 24.0104 16.0497 27.3265 15.4443 28.8948C14.6875 30.8552 12.4159 35.2334 16.8046 39.6621Z" fill="#FEA34A"/>
<path d="M25.6762 31.4737C21.3926 29.6974 17.3382 31.0218 15.3258 32.2929C14.5902 32.7576 14.1043 33.5381 14.1415 34.4074C14.1588 34.8128 14.2296 35.2843 14.3927 35.7952C14.9073 37.4076 15.5705 38.0528 16.4485 39.2391C17.1509 40.1881 19.0928 41.6664 19.9759 42.2869C20.6343 42.7356 22.8744 43.9868 26.5684 45.4024C31.1859 47.1719 38.79 47.8246 42.44 47.7483C46.1056 47.6717 50.0365 46.8048 51.8285 46.4654C53.4891 46.1509 58.2782 44.4068 60.5672 43.6237C62.8561 42.8406 66.9228 40.381 69.7425 37.226C70.5653 36.3054 71.1682 35.3068 71.6031 34.3494C72.6615 32.0195 71.2143 29.5651 68.7491 28.8784C67.8169 28.6187 66.8867 28.4208 66.1281 28.3555C61.1742 27.9292 56.8964 31.6121 54.3376 30.2158C52.2907 29.0988 51.379 25.8739 49.7733 24.7919C44.4374 21.1965 39.0611 23.7394 37.04 25.4603C34.2198 27.8616 30.9251 33.6504 25.6762 31.4737Z" fill="#FCEDC6"/>
<path d="M21.5467 45.226C21.9633 44.9656 22.61 44.2061 22.9138 43.8589C27.7962 46.1373 30.6605 46.7883 34.8268 47.3091C34.4622 47.7257 34.74 48.9583 34.8919 49.4574C26.0385 48.4158 21.0259 45.5514 21.5467 45.226Z" fill="#DB924A"/>
<path d="M34.9578 49.4575C34.5411 48.468 34.6974 47.5914 34.8276 47.3093C44.1497 49.0279 55.2034 45.8337 59.565 43.9893C59.6692 44.3017 59.6084 45.5516 59.565 46.1375C48.9409 50.8767 38.7335 50.3255 34.9578 49.4575Z" fill="#EBDBB0"/>
<path d="M25.9516 19.9319C24.2923 20.9914 25.0483 22.0757 26.2158 22.1762C26.9042 22.2354 27.5199 22.2025 28.062 22.1019C30.5484 21.6403 29.4357 18.6398 27.0323 19.4268C26.6534 19.5509 26.2872 19.7176 25.9516 19.9319Z" fill="#FBEDC6"/>
<path d="M60.8779 18.7779C62.3318 20.1053 61.4016 21.0445 60.2341 20.9441C59.5457 20.8848 58.9447 20.7472 58.4278 20.5554C56.0567 19.6759 57.6658 16.9096 59.8993 18.0956C60.2515 18.2826 60.5838 18.5095 60.8779 18.7779Z" fill="#FBEDC6"/>
<path d="M23.9834 11.6609C20.4557 9.52781 21.0195 15.4786 21.7424 18.7207L27.9871 14.4883C28.1224 14.4346 27.5111 13.7939 23.9834 11.6609Z" fill="#FCDB8A"/>
<path d="M64.0491 7.72496C62.5684 6.70893 60.0966 10.63 59.0457 12.7175L65.2722 13.2534C65.4815 11.8339 65.5298 8.74099 64.0491 7.72496Z" fill="#FCDB8A"/>
<ellipse cx="28.4724" cy="25.572" rx="2.47375" ry="2.27845" transform="rotate(4.91842 28.4724 25.572)" fill="#562528"/>
<ellipse cx="59.6248" cy="24.9861" rx="2.47375" ry="2.27845" transform="rotate(4.91842 59.6248 24.9861)" fill="#562528"/>
<path d="M43.5468 31.1156L43.5314 32.8131M43.5314 32.8131C43.0306 34.0768 42.05 34.8418 38.9682 34.9687C36.6879 35.0625 35.3361 34.6561 35.1088 32.7417M43.5314 32.8131C44.1555 33.9123 45.3006 35.0325 49.3498 34.2939C50.8102 34.0276 52.1576 33.5555 52.1047 31.1334" stroke="#562528" stroke-linecap="round"/>
<path d="M42.5541 30.9575C43.1221 31.761 44.3173 31.7514 44.8724 30.939C45.5067 30.0108 44.8545 28.7497 43.7305 28.7309C42.5746 28.7115 41.8867 30.0136 42.5541 30.9575Z" fill="#562528"/>
<path d="M15.0641 73.4761C12.3941 68.5155 12.8067 59.5922 13.4362 55.3145C14.8379 57.1751 16.62 58.7243 18.4268 59.9675C22.3434 62.6625 25.3245 67.0963 22.8844 71.1765C22.7287 71.4369 22.5653 71.6992 22.3938 71.9629C20.9812 74.1345 19.4645 75.0195 18.2401 75.2832C16.9199 75.5676 15.7042 74.6653 15.0641 73.4761Z" fill="#FEA34A"/>
<path d="M18.3921 69.8089C16.8785 69.7831 14.4304 68.771 13.4336 68.2061C13.4168 68.4006 13.3921 69.1434 14.3533 71.9442C15.3146 74.745 16.2218 75.2876 16.8039 75.3567C20.3613 75.7787 22.2736 72.5386 23.0006 70.9242C22.0951 70.5631 19.9058 69.8346 18.3921 69.8089Z" fill="#FCEDC6"/>
<path d="M41.1598 78.7333C33.4583 78.3724 30.7216 66.4217 30.5995 61.6007C36.6215 58.5723 37.9977 63.6604 40.6423 64.8627C41.3821 69.1734 41.9645 67.7207 44.3043 70.1436C43.6303 78.8498 42.7768 78.8096 41.1949 78.7349L41.1598 78.7333Z" fill="#FEA34A"/>
<path d="M38.8862 74.6431C36.6166 74.291 35.3016 74.792 34.9277 75.0866C35.2778 75.5741 35.6401 75.9194 35.9354 76.284C37.0161 77.6185 39.0814 78.4496 40.2377 78.6798C41.394 78.91 42.0649 78.7063 42.3411 78.5341C43.3161 77.8339 43.573 76.1137 43.6858 75.0562C43.0855 74.7431 42.4128 74.6635 42.1515 74.6628C41.5636 74.6612 41.1559 74.9953 38.8862 74.6431Z" fill="#FCEDC6"/>
<path d="M60.8545 71.4602C59.5745 71.8291 57.7515 71.5115 57 71.3065C57.64 73.397 59.3273 74.1501 60.2727 74.5344C60.8306 74.7611 62.1636 74.9699 62.7455 74.9955C63.3855 75.057 63.7801 74.4699 63.9818 74.1501C64.2727 73.689 64.8545 71.3065 65 70C64.1515 70.333 62.1345 71.0913 60.8545 71.4602Z" fill="#FCEDC6"/>
<path d="M60 46C60.05 45.8696 60.0333 45.0145 60 44.5652C60.25 44.4783 61.2167 44.1884 61.7 44C61.74 44.313 61.9167 45.058 62 45.3913C62 45.4957 60.6667 45.8261 60 46Z" fill="#DB924A"/>
<circle cx="61.5" cy="24.5" r="0.5" fill="white"/>
</svg>
