<svg width="148" height="148" viewBox="0 0 148 148" fill="none" xmlns="http://www.w3.org/2000/svg">
<g id="shiba avatar">
<mask id="mask0_4657_2920" style="mask-type:alpha" maskUnits="userSpaceOnUse" x="0" y="0" width="148" height="148">
<circle id="Ellipse 106" cx="74" cy="74" r="74" fill="#DAE5D7"/>
</mask>
<g mask="url(#mask0_4657_2920)">
<circle id="Ellipse 107" cx="74" cy="74" r="74" fill="#DAE5D7"/>
<path id="Vector 23" d="M13.428 152.524C12.0293 148.891 32.4024 112.97 37.5109 104.067L114.576 102.023C120.852 113.7 132.84 148.445 132.383 152.524C123.879 192.621 27.5859 189.305 13.428 152.524Z" fill="#FEA34A"/>
<g id="head">
<path id="Vector 1" d="M24.3987 102.091C30.7124 109.583 40.2973 114.091 44.3006 115.408C50.1857 117.522 65.1846 121.431 78.0992 120.155C91.0139 118.88 107.253 113.907 112.315 111.244C118.389 108.057 129.313 99.9409 130.467 87.9571C131.621 75.9733 128.236 74.7254 123.769 61.5791C123.701 50.7021 123.853 43.5229 123.763 41.2019C123.575 39.3553 123.204 36.1665 117.495 34.2992C111.786 32.4318 105.562 37.6685 104.443 39.4202L95.5575 49.4923C82.8668 42.3825 62.3985 44.5681 53.7507 46.5496C47.1029 40.1821 41.1487 37.277 39.0026 36.6204C36.8671 35.8765 31.8179 36.1172 28.7056 43.0315C25.5934 49.9458 26.507 62.2112 27.3529 67.4796C26.3398 70.4005 23.9965 77.0232 22.7279 80.1479C21.1422 84.0537 16.5065 92.725 24.3987 102.091Z" fill="#FEA34A"/>
<path id="Vector 6" d="M41.7681 86.2855C33.0419 81.8958 24.5291 85.172 21.152 87.7598C20.4971 88.2616 20.0432 88.9793 19.9218 89.8025C19.7706 90.8278 19.7454 92.3154 20.1803 94.0406C21.0156 97.3542 22.2102 98.7207 23.7643 101.203C25.0076 103.189 28.5394 106.357 30.1499 107.694C31.3516 108.661 35.4634 111.396 42.2972 114.594C50.8394 118.591 65.0935 120.589 71.9675 120.759C78.871 120.93 86.339 119.522 89.739 118.994C92.8894 118.504 102.045 115.395 106.416 114.012C110.788 112.628 118.642 108.005 124.209 101.861C127.049 98.7265 128.643 95.0482 129.462 92.1436C130.138 89.745 128.896 87.3157 126.602 86.2845C123.912 85.0749 120.571 83.9038 118.14 83.5624C108.854 82.258 100.501 89.3417 95.8014 86.2844C92.0419 83.8385 90.5928 77.2216 87.6608 74.8861C77.9175 67.1248 67.5916 71.8006 63.6466 75.1086C58.1419 79.7245 51.4648 91.1636 41.7681 86.2855Z" fill="#FCEDC6"/>
</g>
<path id="Vector 15" d="M81.4793 168.657C81.0579 168.646 74.5231 168.622 69.5606 168.596C66.3938 168.579 63.1022 168.088 60.7093 166.014C53.3335 159.621 54.7808 148.081 52.0531 137.986C46.2739 120.108 45.0549 115.506 47.8076 113.14C50.2802 111.014 90.1393 111.167 98.2244 111.22C99.1872 111.227 100.133 111.264 101.085 111.411C103.766 111.824 103.931 113.149 99.761 129.16C97.9627 136.064 97.9496 132.489 97.2108 144.142C95.8372 165.808 89.599 167.753 89.599 167.753C89.599 167.753 86.0865 168.773 81.4793 168.657Z" fill="#FCEDC6"/>
<path id="Vector 7" d="M43.2375 62.9194C40.0279 64.9191 41.361 67.1839 43.5494 67.4914C46.7587 67.9422 49.1691 67.1977 50.7231 66.0188C52.6569 64.5516 51.5005 61.7607 49.059 61.5866C47.169 61.4519 45.0042 61.8188 43.2375 62.9194Z" fill="#FBEDC6"/>
<path id="Vector 8" d="M108.811 62.8023C111.999 64.9656 110.623 67.148 108.421 67.336C105.192 67.6117 102.785 66.7408 101.245 65.4836C99.3281 63.9191 100.536 61.2036 102.989 61.162C104.889 61.1298 107.056 61.6116 108.811 62.8023Z" fill="#FBEDC6"/>
<path id="Vector 2" d="M40.219 45.9808C33.7573 41.3441 34.327 53.4546 35.4196 60.0895L47.519 52.067C47.778 51.9702 46.6807 50.6174 40.219 45.9808Z" fill="#FCDB8A"/>
<path id="Vector 3" d="M115.93 41.5675C113.228 39.3767 108.253 47.1037 106.103 51.241L117.775 52.8805C118.286 50.0224 118.632 43.7583 115.93 41.5675Z" fill="#FCDB8A"/>
<ellipse id="Ellipse 1" cx="4.66531" cy="4.61679" rx="4.66531" ry="4.61679" transform="matrix(0.990278 0.139104 -0.120201 0.99275 43.4482 69.3418)" fill="#562528"/>
<ellipse id="Ellipse 2" cx="4.66531" cy="4.61679" rx="4.66531" ry="4.61679" transform="matrix(0.990278 0.139104 -0.120201 0.99275 102.112 70.9229)" fill="#562528"/>
<g id="Vector 10">
<path d="M70.5754 98.8042C67.1821 97.9905 66.4436 94.5235 66.8205 91.9595C67.5641 92.0299 70.1722 92.6542 71.8223 91.4803C73.5704 90.2368 77.1465 91.5912 78.9758 92.7118C79.5303 93.0515 80.1452 93.2319 80.8154 93.1429C79.9377 97.824 78.4218 97.9564 77.5429 98.5041C76.7604 99.0749 73.9687 99.6178 70.5754 98.8042Z" fill="#FE71A6"/>
<path d="M74.6548 90.2387C74.7883 90.4196 74.6365 90.6717 74.4141 90.6382C74.1917 90.6047 74.1209 90.3191 74.3018 90.1856C74.4139 90.1028 74.572 90.1266 74.6548 90.2387Z" fill="#FE71A6"/>
<path d="M70.5754 98.8042C67.1821 97.9905 66.4436 94.5235 66.8205 91.9595C67.5641 92.0299 70.1722 92.6542 71.8223 91.4803C73.5704 90.2368 77.1465 91.5912 78.9758 92.7118C79.5303 93.0515 80.1452 93.2319 80.8154 93.1429C79.9377 97.824 78.4218 97.9564 77.5429 98.5041C76.7604 99.0749 73.9687 99.6178 70.5754 98.8042Z" stroke="#FE71A6" stroke-linecap="round"/>
<path d="M74.6548 90.2387C74.7883 90.4196 74.6365 90.6717 74.4141 90.6382C74.1917 90.6047 74.1209 90.3191 74.3018 90.1856C74.4139 90.1028 74.572 90.1266 74.6548 90.2387Z" stroke="#FE71A6" stroke-linecap="round"/>
</g>
<path id="Vector 11" d="M74.0693 91.9287L73.7775 95.1918" stroke="#C44B78" stroke-width="4" stroke-linecap="round"/>
<path id="Vector 5" d="M75.0492 85.7413L74.5453 88.8923M74.5453 88.8923C73.2607 91.1011 71.2237 92.2487 65.4595 91.6216C61.1946 91.1577 58.7955 90.0238 58.909 86.4016M74.5453 88.8923C75.3978 91.1102 77.2126 93.513 84.9463 93.2738C87.7355 93.1875 90.3723 92.6872 90.9521 88.17" stroke="#562528" stroke-width="2" stroke-linecap="round"/>
<path id="Vector 9" d="M71.8343 84.2126C73.1772 86.4614 76.2393 86.6553 77.6817 84.5829C79.2982 82.2603 77.7035 78.9058 74.8956 78.7223C72.0815 78.5384 70.326 81.6868 71.8343 84.2126Z" fill="#562528"/>
<path id="Vector 24" d="M102.9 115.306C84.5676 126.282 57.4099 120.317 46.2686 116.181L47.1443 122.749C52.1555 126.204 64.3672 131.857 75.4599 130.923C86.5526 129.989 97.0128 126.35 100.856 124.647L102.9 115.306Z" fill="#EBDBB0"/>
<path id="Vector 25" d="M36.1973 111.657C38.6785 113.117 43.6897 115.403 46.2683 116.328C46.2683 116.912 46.9494 121.047 47.29 123.042C38.7661 115.919 36.3432 112.484 36.1973 111.657Z" fill="#DB924A"/>
<path id="Vector 26" d="M113.116 110.927C110.635 112.386 105.478 114.527 102.899 115.451C102.899 116.035 101.342 122.652 101.002 124.647C109.526 117.524 112.97 111.754 113.116 110.927Z" fill="#DB924A"/>
<circle id="Ellipse 119" cx="49.0417" cy="72.9782" r="1.16765" fill="white"/>
<circle id="Ellipse 120" cx="107.716" cy="74.1462" r="1.16765" fill="white"/>
</g>
</g>
</svg>
