<svg width="28" height="26" viewBox="0 0 28 26" fill="none" xmlns="http://www.w3.org/2000/svg">
<path d="M26.2969 10.5871H24.9382C24.7274 7.71004 23.4357 5.01933 21.3226 3.05545C19.2096 1.09157 16.4316 0 13.5469 0C10.6621 0 7.88419 1.09157 5.77113 3.05545C3.65807 5.01933 2.36638 7.71004 2.15555 10.5871H0.796875C0.585531 10.5871 0.382842 10.671 0.233399 10.8205C0.0839561 10.9699 0 11.1726 0 11.384C0.00473892 13.8894 0.701849 16.3449 2.01434 18.4791C3.32684 20.6133 5.20365 22.3432 7.4375 23.4779V24.134C7.4375 24.6271 7.6334 25.1 7.9821 25.4487C8.3308 25.7974 8.80374 25.9933 9.29688 25.9933H17.7969C18.29 25.9933 18.763 25.7974 19.1117 25.4487C19.4604 25.1 19.6562 24.6271 19.6562 24.134V23.4779C21.8901 22.3432 23.7669 20.6133 25.0794 18.4791C26.3919 16.3449 27.089 13.8894 27.0938 11.384C27.0937 11.1726 27.0098 10.9699 26.8604 10.8205C26.7109 10.671 26.5082 10.5871 26.2969 10.5871ZM19.6881 3.71935C20.0737 4.02818 20.4356 4.36559 20.7705 4.72873C19.2913 5.18914 17.9214 5.94603 16.7443 6.95324C15.5672 7.96045 14.6076 9.19686 13.9241 10.5871H9.47484C10.1025 8.58823 11.3504 6.84124 13.0378 5.59946C14.7252 4.35767 16.7643 3.68565 18.8594 3.68084C19.1356 3.68084 19.4132 3.69545 19.6881 3.71935ZM21.8211 6.09005C22.6899 7.4412 23.2118 8.98589 23.3405 10.5871H15.7356C16.4019 9.47207 17.2829 8.50042 18.3275 7.72846C19.3721 6.9565 20.5596 6.3996 21.8211 6.09005ZM13.5469 1.55584C14.7643 1.55385 15.9714 1.77906 17.1063 2.2199C14.9142 2.56592 12.8698 3.54068 11.2209 5.02592C9.57207 6.51116 8.38972 8.44302 7.81734 10.5871H3.75328C3.9561 8.12797 5.07539 5.8348 6.88932 4.16207C8.70325 2.48934 11.0794 1.55914 13.5469 1.55584ZM18.5273 22.2533C18.3885 22.317 18.2709 22.4191 18.1885 22.5477C18.1061 22.6763 18.0624 22.8258 18.0625 22.9785V24.134C18.0625 24.2044 18.0345 24.272 17.9847 24.3218C17.9349 24.3716 17.8673 24.3996 17.7969 24.3996H9.29688C9.22643 24.3996 9.15886 24.3716 9.10905 24.3218C9.05924 24.272 9.03125 24.2044 9.03125 24.134V22.9785C9.03139 22.8258 8.98766 22.6763 8.90525 22.5477C8.82284 22.4191 8.70522 22.317 8.56641 22.2533C6.61157 21.3518 4.93524 19.9411 3.71314 18.1689C2.49104 16.3967 1.76817 14.3284 1.62031 12.1808H25.4734C25.3256 14.3284 24.6027 16.3967 23.3806 18.1689C22.1585 19.9411 20.4822 21.3518 18.5273 22.2533Z" fill="white"/>
</svg>
