<svg width="45" height="55" viewBox="0 0 45 55" fill="none" xmlns="http://www.w3.org/2000/svg">
<g id="squeeze bottles">
<path id="Union" fill-rule="evenodd" clip-rule="evenodd" d="M9.32861 2.7291C9.46834 2.46478 9.85105 2.47715 9.97341 2.74995C9.98751 2.78138 9.99701 2.81469 10.0016 2.84883L10.4209 5.95534L8.76465 5.95572L9.26204 2.89836C9.26879 2.85691 9.28224 2.81683 9.30187 2.77969L9.32861 2.7291ZM11.5245 2.05419C10.8226 0.489343 8.6272 0.418374 7.82568 1.93462L7.79894 1.98521C7.69305 2.18552 7.62049 2.40174 7.5841 2.62538L7.01635 6.11521H5.35352C4.3318 6.11521 3.50352 6.94349 3.50352 7.96521V8.09748C3.50352 8.33605 3.54868 8.56407 3.63092 8.77347C2.89494 9.24649 2.40741 10.0725 2.40741 11.0124V12.0234C2.40741 12.463 2.51407 12.8777 2.70294 13.243C1.39791 13.7724 0.477539 15.0523 0.477539 16.5473V43.0498C0.477539 44.5809 1.46771 46.0157 3.04027 46.3826C8.10333 47.5639 12.924 47.0653 15.8909 46.3799C17.4427 46.0214 18.3828 44.6054 18.3828 43.1194V16.5473C18.3828 15.0528 17.4629 13.7731 16.1585 13.2435C16.3475 12.8781 16.4542 12.4632 16.4542 12.0234V11.0124C16.4542 10.0997 15.9945 9.29436 15.2939 8.81538C15.387 8.59464 15.4384 8.35207 15.4384 8.09748V7.96521C15.4384 6.94349 14.6101 6.11521 13.5884 6.11521H12.1579L11.6863 2.62144C11.6599 2.42557 11.6054 2.23452 11.5245 2.05419ZM5.35352 7.81521C5.27068 7.81521 5.20352 7.88237 5.20352 7.96521V8.09748C5.20352 8.18032 5.27068 8.24748 5.35352 8.24748H13.5884C13.6712 8.24748 13.7384 8.18032 13.7384 8.09748V7.96521C13.7384 7.88237 13.6712 7.81521 13.5884 7.81521H5.35352ZM4.10741 11.0124C4.10741 10.4824 4.537 10.0528 5.06693 10.0528H13.7947C14.3246 10.0528 14.7542 10.4824 14.7542 11.0124V12.0234C14.7542 12.5533 14.3246 12.9829 13.7947 12.9829H5.06693C4.537 12.9829 4.10741 12.5533 4.10741 12.0234V11.0124ZM2.17754 16.5473C2.17754 15.5177 3.01221 14.683 4.04182 14.683H14.8185C15.8481 14.683 16.6828 15.5177 16.6828 16.5473V43.1194C16.6828 43.9231 16.1873 44.5666 15.5082 44.7235C12.7233 45.3669 8.17423 45.8348 3.42652 44.7271C2.70332 44.5584 2.17754 43.876 2.17754 43.0498V16.5473Z" fill="#1B453C"/>
<path id="Vector 7" d="M12 16C15 16.0002 15 16.4544 15 21" stroke="#1B453C" stroke-width="1.7" stroke-linecap="round"/>
<path id="Vector 8" d="M12 44C15.7556 44.0009 14.921 43.1538 14.921 33" stroke="#1B453C" stroke-width="1.7" stroke-linecap="round"/>
<path id="Union_2" fill-rule="evenodd" clip-rule="evenodd" d="M29.2837 2.76084C29.4234 2.49652 29.8061 2.50889 29.9285 2.78168C29.9426 2.81312 29.9521 2.84643 29.9567 2.88057L30.376 5.98708L28.7197 5.98746L29.2171 2.9301C29.2239 2.88865 29.2373 2.84856 29.2569 2.81143L29.2837 2.76084ZM31.4796 2.08593C30.7777 0.521081 28.5823 0.450112 27.7808 1.96636L27.754 2.01695C27.6481 2.21726 27.5756 2.43348 27.5392 2.65712L26.9714 6.14695H25.3086C24.2869 6.14695 23.4586 6.97522 23.4586 7.99695V8.12922C23.4586 8.36779 23.5038 8.59581 23.586 8.80521C22.85 9.27823 22.3625 10.1042 22.3625 11.0441V12.0551C22.3625 12.4947 22.4692 12.9094 22.658 13.2748C21.353 13.8041 20.4326 15.0841 20.4326 16.579V43.0815C20.4326 44.6127 21.4228 46.0475 22.9953 46.4144C28.0584 47.5956 32.879 47.097 35.846 46.4116C37.3978 46.0531 38.3378 44.6371 38.3378 43.1511V16.579C38.3378 15.0845 37.418 13.8048 36.1135 13.2752C36.3026 12.9098 36.4093 12.4949 36.4093 12.0551V11.0441C36.4093 10.1314 35.9496 9.3261 35.249 8.84712C35.342 8.62638 35.3935 8.3838 35.3935 8.12922V7.99695C35.3935 6.97522 34.5652 6.14695 33.5435 6.14695H32.113L31.6414 2.65318C31.615 2.45731 31.5605 2.26626 31.4796 2.08593ZM25.3086 7.84695C25.2258 7.84695 25.1586 7.91411 25.1586 7.99695V8.12922C25.1586 8.21206 25.2258 8.27922 25.3086 8.27922H33.5435C33.6263 8.27922 33.6935 8.21206 33.6935 8.12922V7.99695C33.6935 7.91411 33.6263 7.84695 33.5435 7.84695H25.3086ZM24.0625 11.0441C24.0625 10.5142 24.4921 10.0846 25.022 10.0846H33.7498C34.2797 10.0846 34.7093 10.5142 34.7093 11.0441V12.0551C34.7093 12.585 34.2797 13.0146 33.7498 13.0146H25.022C24.4921 13.0146 24.0625 12.585 24.0625 12.0551V11.0441ZM22.1326 16.579C22.1326 15.5494 22.9673 14.7148 23.9969 14.7148H34.7735C35.8032 14.7148 36.6378 15.5494 36.6378 16.579V43.1511C36.6378 43.9548 36.1424 44.5983 35.4633 44.7552C32.6784 45.3986 28.1293 45.8665 23.3816 44.7588C22.6584 44.5901 22.1326 43.9077 22.1326 43.0815V16.579ZM33.9019 17.2774C33.6779 17.2067 33.3065 17.1969 32.4986 17.1968C32.0292 17.1968 31.6486 16.8162 31.6487 16.3468C31.6487 15.8774 32.0293 15.4968 32.4987 15.4969L32.6052 15.4968C33.255 15.4964 33.9059 15.4959 34.4138 15.6563C34.7196 15.7529 35.0122 15.9153 35.2535 16.1848C35.4877 16.4466 35.6272 16.7578 35.7165 17.0789C35.8849 17.6854 35.9208 18.5184 35.9274 19.58C35.9307 20.1176 35.9256 20.7596 35.9198 21.5041C35.914 22.2432 35.9074 23.0834 35.9074 24.023C35.9074 24.4924 35.5268 24.873 35.0574 24.873C34.5879 24.873 34.2074 24.4924 34.2074 24.023C34.2074 23.0435 34.2141 22.2048 34.22 21.4748V21.4746V21.4745C34.2258 20.7498 34.2307 20.1323 34.2274 19.5905C34.2206 18.4932 34.1766 17.887 34.0785 17.5339C34.0344 17.3754 33.994 17.3267 33.9868 17.3186L33.9867 17.3185C33.9857 17.3171 33.9735 17.3 33.9019 17.2774ZM31.6458 44.4898C31.1763 44.4898 30.7958 44.1093 30.7958 43.6398C30.7958 43.1704 31.1763 42.7898 31.6458 42.7898C32.4839 42.7898 33.0173 42.7348 33.3697 42.6271C33.6795 42.5324 33.8049 42.4127 33.8929 42.2587C34.0097 42.0543 34.1058 41.7037 34.1567 41.0547C34.2068 40.4158 34.2074 39.6014 34.2074 38.5224C34.2074 38.053 34.5879 37.6724 35.0574 37.6724C35.5268 37.6724 35.9074 38.053 35.9074 38.5224V38.5551V38.5551C35.9074 39.5942 35.9074 40.4746 35.8515 41.1876C35.7958 41.8979 35.6786 42.5602 35.3689 43.1021C35.0305 43.6944 34.5163 44.0543 33.8665 44.2529C33.2594 44.4383 32.5135 44.4898 31.6458 44.4898Z" fill="#1B453C"/>
</g>
</svg>
