<svg width="45" height="55" viewBox="0 0 45 55" fill="none" xmlns="http://www.w3.org/2000/svg">
<g id="squeeze bottles">
<path id="Union" fill-rule="evenodd" clip-rule="evenodd" d="M10.7037 2.96492C10.9246 2.54706 11.5296 2.56661 11.723 2.99787C11.7453 3.04757 11.7603 3.10022 11.7676 3.1542L12.2817 6.96262L9.99966 6.96314L10.6105 3.20834C10.621 3.14402 10.6419 3.08184 10.6723 3.02423L10.7037 2.96492ZM13.2741 2.30211C12.5011 0.578803 10.0834 0.500648 9.20073 2.17044L9.16938 2.22975C9.05266 2.45054 8.97268 2.68886 8.93258 2.93536L8.24684 7.15038H6.00016C4.97843 7.15038 4.15016 7.97866 4.15016 9.00038V9.50038C4.15016 9.7097 4.18492 9.9109 4.24899 10.0985C3.42391 10.55 2.86438 11.4262 2.86438 12.4331V14.2426C2.86438 14.6423 2.95253 15.0213 3.11046 15.3614C1.65772 15.8116 0.602539 17.1659 0.602539 18.7666V50.6489C0.602539 52.183 1.5949 53.6082 3.15336 53.9911C9.37773 55.5207 15.3326 54.8454 18.8265 53.9905C20.3648 53.614 21.3025 52.2057 21.3025 50.7185V18.7666C21.3025 17.1658 20.2473 15.8115 18.7945 15.3614C18.9524 15.0213 19.0406 14.6423 19.0406 14.2426V12.4331C19.0406 11.4588 18.5167 10.6069 17.7352 10.1437C17.8096 9.94333 17.8502 9.7266 17.8502 9.50038V9.00038C17.8502 7.97866 17.0219 7.15038 16.0002 7.15038H14.0224L13.4523 2.9268C13.4232 2.7111 13.3632 2.50071 13.2741 2.30211ZM6.00016 8.85038C5.91732 8.85038 5.85016 8.91754 5.85016 9.00038V9.50038C5.85016 9.58323 5.91732 9.65038 6.00016 9.65038H16.0002C16.083 9.65038 16.1502 9.58323 16.1502 9.50038V9.00038C16.1502 8.91754 16.083 8.85038 16.0002 8.85038H6.00016ZM4.56438 12.4331C4.56438 11.9032 4.99397 11.4736 5.5239 11.4736H16.381C16.911 11.4736 17.3406 11.9032 17.3406 12.4331V14.2426C17.3406 14.7726 16.911 15.2022 16.381 15.2022H5.5239C4.99397 15.2022 4.56438 14.7726 4.56438 14.2426V12.4331ZM2.30254 18.7666C2.30254 17.737 3.13721 16.9023 4.16682 16.9023H17.7383C18.7679 16.9023 19.6025 17.737 19.6025 18.7666V50.7185C19.6025 51.5211 19.1081 52.1714 18.4224 52.3392C15.118 53.1478 9.45023 53.788 3.55904 52.3403C2.8282 52.1607 2.30254 51.4722 2.30254 50.6489V18.7666Z" fill="#FBFBF4"/>
<path id="Vector 7" d="M14 19C17.5 19.0002 17.5 19.4998 17.5 24.4991" stroke="#FBFBF4" stroke-width="1.7" stroke-linecap="round"/>
<path id="Vector 8" d="M14 51C18.5 51.001 17.5 50 17.5 38" stroke="#FBFBF4" stroke-width="1.7" stroke-linecap="round"/>
<path id="Union_2" fill-rule="evenodd" clip-rule="evenodd" d="M34.1011 3.00227C34.322 2.58441 34.927 2.60397 35.1205 3.03522C35.1428 3.08492 35.1578 3.13757 35.1651 3.19155L35.6791 6.99997L33.3971 7.0005L34.008 3.24569C34.0184 3.18138 34.0393 3.11919 34.0698 3.06159L34.1011 3.00227ZM36.6716 2.33947C35.8986 0.616156 33.4809 0.538002 32.5982 2.20779L32.5668 2.2671C32.4501 2.48789 32.3701 2.72621 32.33 2.97271L31.6443 7.18774H29.3976C28.3759 7.18774 27.5476 8.01601 27.5476 9.03774V9.53774C27.5476 9.74705 27.5824 9.94825 27.6464 10.1359C26.8214 10.5874 26.2618 11.4636 26.2618 12.4705V14.28C26.2618 14.6796 26.35 15.0587 26.5079 15.3988C25.0552 15.849 24 17.2032 24 18.8039V50.6863C24 52.2204 24.9924 53.6455 26.5508 54.0285C32.7752 55.5581 38.7301 54.8828 42.2239 54.0278C43.7623 53.6514 44.7 52.2431 44.7 50.7559V18.8039C44.7 17.2032 43.6448 15.8489 42.192 15.3988C42.3499 15.0587 42.438 14.6796 42.438 14.28V12.4705C42.438 11.4962 41.9141 10.6443 41.1327 10.181C41.207 9.98069 41.2476 9.76395 41.2476 9.53774V9.03774C41.2476 8.01601 40.4193 7.18774 39.3976 7.18774H37.4199L36.8498 2.96415C36.8207 2.74845 36.7607 2.53806 36.6716 2.33947ZM29.3976 8.88774C29.3148 8.88774 29.2476 8.9549 29.2476 9.03774V9.53774C29.2476 9.62058 29.3148 9.68774 29.3976 9.68774H39.3976C39.4805 9.68774 39.5476 9.62058 39.5476 9.53774V9.03774C39.5476 8.9549 39.4805 8.88774 39.3976 8.88774H29.3976ZM27.9618 12.4705C27.9618 11.9405 28.3914 11.5109 28.9214 11.5109H39.7785C40.3084 11.5109 40.738 11.9405 40.738 12.4705V14.28C40.738 14.8099 40.3084 15.2395 39.7785 15.2395H28.9214C28.3914 15.2395 27.9618 14.8099 27.9618 14.28V12.4705ZM25.7 18.8039C25.7 17.7743 26.5347 16.9396 27.5643 16.9396H41.1357C42.1653 16.9396 43 17.7743 43 18.8039V50.7559C43 51.5584 42.5056 52.2087 41.8199 52.3765C38.5155 53.1851 32.8477 53.8253 26.9565 52.3776C26.2257 52.198 25.7 51.5096 25.7 50.6863V18.8039ZM39.6893 19.9513C39.3999 19.8598 38.9365 19.8501 38 19.85C37.5305 19.85 37.15 19.4694 37.15 19C37.15 18.5305 37.5306 18.15 38 18.15L38.114 18.15C38.8867 18.1496 39.6283 18.1492 40.2013 18.3302C40.5399 18.4371 40.8586 18.615 41.1207 18.9078C41.3757 19.1928 41.5308 19.535 41.6315 19.8976C41.8229 20.5867 41.8657 21.5439 41.8734 22.7917C41.8773 23.4222 41.8714 24.1724 41.8646 25.0432L41.8646 25.0441C41.8577 25.9099 41.85 26.8949 41.85 28C41.85 28.4694 41.4694 28.85 41 28.85C40.5306 28.85 40.15 28.4694 40.15 28C40.15 26.8552 40.1579 25.8719 40.1647 25.0153V25.015V25.0148V25.0147V25.0147C40.1716 24.1632 40.1774 23.437 40.1735 22.8022C40.1655 21.5187 40.1146 20.7884 39.9935 20.3526C39.938 20.1526 39.8821 20.073 39.854 20.0416C39.8328 20.018 39.7961 19.985 39.6893 19.9513ZM37 51.85C36.5306 51.85 36.15 51.4694 36.15 51C36.15 50.5306 36.5306 50.15 37 50.15C37.9852 50.15 38.6289 50.0857 39.0641 49.9527C39.4566 49.8328 39.6372 49.6717 39.762 49.4533C39.9156 49.1846 40.03 48.7467 40.0901 47.9805C40.1494 47.2244 40.15 46.2629 40.15 45C40.15 44.5306 40.5306 44.15 41 44.15C41.4694 44.15 41.85 44.5306 41.85 45V45.0331C41.85 46.2558 41.85 47.2832 41.7849 48.1134C41.72 48.9409 41.5844 49.6905 41.238 50.2968C40.8628 50.9534 40.2934 51.3547 39.5609 51.5786C38.8711 51.7893 38.0148 51.85 37 51.85Z" fill="#FBFBF4"/>
</g>
</svg>
