<svg width="48" height="55" viewBox="0 0 48 55" fill="none" xmlns="http://www.w3.org/2000/svg">
<g id="styrofoam">
<g id="Group 290041">
<path id="Vector 70" d="M6.65752 2.59733L2.67383 11.4444H37.4347L33.451 2.59733C33.0133 1.62516 32.0461 1 30.98 1H9.12857C8.06238 1 7.09527 1.62516 6.65752 2.59733Z" stroke="#1B453C" stroke-width="1.7"/>
<path id="Vector 71" d="M6.65752 22.9027L2.67383 14.0556H37.4347L33.451 22.9027C33.0133 23.8748 32.0461 24.5 30.98 24.5H9.12857C8.06238 24.5 7.09527 23.8748 6.65752 22.9027Z" stroke="#1B453C" stroke-width="1.7"/>
<rect id="Rectangle 2907" x="0.85" y="11.4242" width="39.3" height="2.65185" rx="1.32593" stroke="#1B453C" stroke-width="1.7"/>
<path id="Line 52" d="M16.5371 6.35327H23.6675" stroke="#1B453C" stroke-width="1.7" stroke-linecap="round"/>
<path id="Vector 72" d="M16.043 14.8269V14.0554H24.0647V14.8269C24.0647 16.3236 22.8514 17.5369 21.3547 17.5369H18.753C17.2563 17.5369 16.043 16.3236 16.043 14.8269Z" stroke="#1B453C" stroke-width="1.7"/>
</g>
<g id="Group 290040">
<path id="Vector 73" d="M6.65752 26.0973L2.67383 34.9444H37.4347L33.451 26.0973C33.0133 25.1252 32.0461 24.5 30.98 24.5H9.12857C8.06238 24.5 7.09527 25.1252 6.65752 26.0973Z" stroke="#1B453C" stroke-width="1.7"/>
<path id="Vector 74" d="M6.65752 46.4027L2.67383 37.5556H37.4347L33.451 46.4027C33.0133 47.3748 32.0461 48 30.98 48H9.12857C8.06238 48 7.09527 47.3748 6.65752 46.4027Z" stroke="#1B453C" stroke-width="1.7"/>
<rect id="Rectangle 2908" x="0.85" y="34.9242" width="39.3" height="2.65185" rx="1.32593" stroke="#1B453C" stroke-width="1.7"/>
<path id="Line 53" d="M16.5371 29.8533H23.6675" stroke="#1B453C" stroke-width="1.7" stroke-linecap="round"/>
<path id="Vector 75" d="M16.043 38.3269V37.5554H24.0647V38.3269C24.0647 39.8236 22.8514 41.0369 21.3547 41.0369H18.753C17.2563 41.0369 16.043 39.8236 16.043 38.3269Z" stroke="#1B453C" stroke-width="1.7"/>
</g>
</g>
</svg>
