<svg width="54" height="35" viewBox="0 0 54 35" fill="none" xmlns="http://www.w3.org/2000/svg">
<path id="Union" fill-rule="evenodd" clip-rule="evenodd" d="M1.7 8.37744V1.7H52.0464V8.37744H1.7ZM0 0.999999C0 0.447714 0.447715 0 1 0H52.7464C53.2987 0 53.7464 0.447715 53.7464 1V9.07745C53.7464 9.62973 53.2987 10.0774 52.7464 10.0774H50.5811L46.9675 30.5673C46.6958 32.1081 45.4452 33.3123 43.8594 33.4581C33.4012 34.4198 17.7119 33.9812 9.95448 33.4189C8.33773 33.3017 7.04726 32.0894 6.77005 30.5175L3.16531 10.0774H1C0.447717 10.0774 0 9.62973 0 9.07744V0.999999ZM4.89154 10.0774L8.44421 30.2223C8.5905 31.0517 9.2621 31.6642 10.0774 31.7233C17.791 32.2825 33.3767 32.7149 43.7037 31.7653C44.4985 31.6922 45.1499 31.0855 45.2934 30.2721L48.8548 10.0774H4.89154ZM17.1825 13.4366C17.1825 12.9672 17.563 12.5866 18.0325 12.5866V13.4366V14.2866C17.563 14.2866 17.1825 13.906 17.1825 13.4366ZM35.7122 13.4366L35.7121 14.2866H35.7119H35.7116H35.7112H35.7106H35.7099H35.7091H35.7081H35.707H35.7058H35.7045H35.703H35.7015H35.6998H35.6979H35.696H35.6939H35.6917H35.6894H35.687H35.6844H35.6817H35.6789H35.676H35.673H35.6698H35.6666H35.6632H35.6596H35.656H35.6523H35.6484H35.6444H35.6403H35.6361H35.6318H35.6273H35.6227H35.6181H35.6133H35.6084H35.6033H35.5982H35.593H35.5876H35.5821H35.5766H35.5709H35.565H35.5591H35.5531H35.547H35.5407H35.5344H35.5279H35.5213H35.5146H35.5078H35.5009H35.4939H35.4868H35.4796H35.4723H35.4648H35.4573H35.4497H35.4419H35.4341H35.4261H35.418H35.4099H35.4016H35.3932H35.3848H35.3762H35.3675H35.3587H35.3499H35.3409H35.3318H35.3226H35.3133H35.304H35.2945H35.2849H35.2752H35.2655H35.2556H35.2456H35.2356H35.2254H35.2152H35.2048H35.1944H35.1838H35.1732H35.1625H35.1516H35.1407H35.1297H35.1186H35.1074H35.0961H35.0848H35.0733H35.0617H35.0501H35.0384H35.0265H35.0146H35.0026H34.9905H34.9783H34.9661H34.9537H34.9412H34.9287H34.9161H34.9034H34.8906H34.8777H34.8647H34.8517H34.8386H34.8253H34.812H34.7987H34.7852H34.7716H34.758H34.7443H34.7305H34.7166H34.7027H34.6886H34.6745H34.6603H34.646H34.6317H34.6172H34.6027H34.5881H34.5735H34.5587H34.5439H34.529H34.514H34.499H34.4838H34.4686H34.4533H34.438H34.4226H34.4071H34.3915H34.3758H34.3601H34.3443H34.3285H34.3125H34.2965H34.2804H34.2643H34.2481H34.2318H34.2154H34.199H34.1825H34.1659H34.1493H34.1326H34.1158H34.099H34.0821H34.0651H34.0481H34.031H34.0138H33.9966H33.9793H33.962H33.9445H33.927H33.9095H33.8919H33.8742H33.8565H33.8387H33.8208H33.8029H33.7849H33.7669H33.7488H33.7306H33.7124H33.6941H33.6758H33.6574H33.639H33.6205H33.6019H33.5833H33.5646H33.5459H33.5271H33.5082H33.4893H33.4704H33.4514H33.4323H33.4132H33.394H33.3748H33.3555H33.3362H33.3168H33.2974H33.2779H33.2584H33.2388H33.2192H33.1995H33.1798H33.16H33.1402H33.1203H33.1004H33.0804H33.0604H33.0403H33.0202H33.0001H32.9799H32.9596H32.9393H32.919H32.8986H32.8782H32.8577H32.8372H32.8167H32.7961H32.7755H32.7548H32.7341H32.7133H32.6925H32.6717H32.6508H32.6299H32.6089H32.5879H32.5669H32.5458H32.5247H32.5035H32.4824H32.4611H32.4399H32.4186H32.3973H32.3759H32.3545H32.3331H32.3116H32.2901H32.2686H32.247H32.2254H32.2038H32.1821H32.1604H32.1387H32.1169H32.0951H32.0733H32.0515H32.0296H32.0077H31.9857H31.9638H31.9418H31.9198H31.8977H31.8756H31.8535H31.8314H31.8092H31.7871H31.7649H31.7426H31.7204H31.6981H31.6758H31.6535H31.6311H31.6088H31.5864H31.5639H31.5415H31.5191H31.4966H31.4741H31.4516H31.429H31.4065H31.3839H31.3613H31.3387H31.316H31.2934H31.2707H31.248H31.2253H31.2026H31.1799H31.1571H31.1344H31.1116H31.0888H31.066H31.0432H31.0203H30.9975H30.9746H30.9518H30.9289H30.906H30.8831H30.8601H30.8372H30.8143H30.7913H30.7684H30.7454H30.7224H30.6994H30.6764H30.6534H30.6304H30.6074H30.5844H30.5614H30.5383H30.5153H30.4923H30.4692H30.4462H30.4231H30.4H30.377H30.3539H30.3308H30.3078H30.2847H30.2616H30.2385H30.2154H30.1924H30.1693H30.1462H30.1231H30.1001H30.077H30.0539H30.0308H30.0078H29.9847H29.9616H29.9386H29.9155H29.8925H29.8694H29.8464H29.8233H29.8003H29.7773H29.7542H29.7312H29.7082H29.6852H29.6622H29.6392H29.6163H29.5933H29.5703H29.5474H29.5244H29.5015H29.4786H29.4557H29.4328H29.4099H29.387H29.3642H29.3413H29.3185H29.2957H29.2729H29.2501H29.2273H29.2045H29.1818H29.159H29.1363H29.1136H29.0909H29.0683H29.0456H29.023H29.0004H28.9778H28.9552H28.9326H28.9101H28.8876H28.8651H28.8426H28.8201H28.7977H28.7753H28.7529H28.7305H28.7082H28.6859H28.6636H28.6413H28.619H28.5968H28.5746H28.5524H28.5303H28.5081H28.486H28.4639H28.4419H28.4199H28.3979H28.3759H28.354H28.3321H28.3102H28.2883H28.2665H28.2447H28.223H28.2013H28.1796H28.1579H28.1363H28.1147H28.0931H28.0716H28.0501H28.0286H28.0072H27.9858H27.9644H27.9431H27.9218H27.9005H27.8793H27.8581H27.837H27.8158H27.7948H27.7737H27.7527H27.7318H27.7109H27.69H27.6691H27.6483H27.6276H27.6069H27.5862H27.5656H27.545H27.5244H27.5039H27.4834H27.463H27.4426H27.4223H27.402H27.3818H27.3616H27.3414H27.3213H27.3013H27.2812H27.2613H27.2413H27.2215H27.2017H27.1819H27.1621H27.1425H27.1228H27.1033H27.0837H27.0643H27.0448H27.0254H27.0061H26.9868H26.9676H26.9485H26.9293H26.9103H26.8913H26.8723H26.8507H26.829H26.8073H26.7856H26.7638H26.742H26.7202H26.6983H26.6764H26.6545H26.6326H26.6106H26.5886H26.5665H26.5445H26.5224H26.5002H26.4781H26.4559H26.4337H26.4114H26.3892H26.3669H26.3446H26.3222H26.2998H26.2774H26.255H26.2326H26.2101H26.1876H26.1651H26.1425H26.1199H26.0973H26.0747H26.0521H26.0294H26.0067H25.984H25.9613H25.9385H25.9158H25.893H25.8702H25.8473H25.8245H25.8016H25.7787H25.7558H25.7329H25.7099H25.687H25.664H25.641H25.618H25.5949H25.5719H25.5488H25.5257H25.5026H25.4795H25.4564H25.4332H25.4101H25.3869H25.3637H25.3405H25.3173H25.2941H25.2708H25.2476H25.2243H25.201H25.1777H25.1544H25.1311H25.1078H25.0845H25.0611H25.0378H25.0144H24.9911H24.9677H24.9443H24.9209H24.8975H24.8741H24.8507H24.8272H24.8038H24.7804H24.7569H24.7335H24.71H24.6865H24.6631H24.6396H24.6161H24.5926H24.5691H24.5457H24.5222H24.4987H24.4752H24.4517H24.4282H24.4047H24.3812H24.3576H24.3341H24.3106H24.2871H24.2636H24.2401H24.2166H24.1931H24.1696H24.1461H24.1226H24.0991H24.0756H24.0521H24.0286H24.0051H23.9816H23.9581H23.9346H23.9112H23.8877H23.8642H23.8408H23.8173H23.7939H23.7704H23.747H23.7236H23.7001H23.6767H23.6533H23.6299H23.6065H23.5832H23.5598H23.5364H23.5131H23.4897H23.4664H23.4431H23.4197H23.3964H23.3731H23.3499H23.3266H23.3033H23.2801H23.2569H23.2336H23.2104H23.1872H23.1641H23.1409H23.1178H23.0946H23.0715H23.0484H23.0253H23.0022H22.9792H22.9561H22.9331H22.9101H22.8871H22.8641H22.8412H22.8183H22.7953H22.7724H22.7496H22.7267H22.7039H22.6811H22.6583H22.6355H22.6127H22.59H22.5673H22.5446H22.5219H22.4993H22.4766H22.454H22.4315H22.4089H22.3864H22.3639H22.3414H22.3189H22.2965H22.2741H22.2517H22.2293H22.207H22.1847H22.1624H22.1402H22.118H22.0958H22.0736H22.0515H22.0294H22.0073H21.9852H21.9632H21.9412H21.9193H21.8973H21.8754H21.8535H21.8317H21.8099H21.7881H21.7664H21.7447H21.723H21.7014H21.6797H21.6582H21.6366H21.6151H21.5936H21.5722H21.5508H21.5294H21.5081H21.4868H21.4655H21.4443H21.4231H21.402H21.3809H21.3598H21.3388H21.3178H21.2968H21.2759H21.255H21.2342H21.2134H21.1926H21.1719H21.1512H21.1305H21.11H21.0894H21.0689H21.0484H21.028H21.0076H20.9872H20.9669H20.9467H20.9265H20.9063H20.8862H20.8661H20.8461H20.8261H20.8061H20.7862H20.7664H20.7466H20.7268H20.7071H20.6875H20.6678H20.6483H20.6288H20.6093H20.5899H20.5705H20.5512H20.5319H20.5127H20.4935H20.4744H20.4553H20.4363H20.4173H20.3984H20.3796H20.3608H20.342H20.3233H20.3047H20.2861H20.2675H20.249H20.2306H20.2122H20.1939H20.1756H20.1574H20.1393H20.1212H20.1031H20.0851H20.0672H20.0493H20.0315H20.0138H19.9961H19.9784H19.9609H19.9434H19.9259H19.9085H19.8912H19.8739H19.8567H19.8395H19.8224H19.8054H19.7884H19.7715H19.7547H19.7379H19.7212H19.7045H19.6879H19.6714H19.6549H19.6385H19.6222H19.6059H19.5897H19.5736H19.5575H19.5415H19.5256H19.5097H19.4939H19.4782H19.4625H19.4469H19.4314H19.4159H19.4005H19.3852H19.3699H19.3547H19.3396H19.3246H19.3096H19.2947H19.2799H19.2651H19.2504H19.2358H19.2213H19.2068H19.1924H19.1781H19.1638H19.1497H19.1356H19.1216H19.1076H19.0937H19.0799H19.0662H19.0526H19.039H19.0255H19.0121H18.9988H18.9855H18.9723H18.9592H18.9462H18.9332H18.9204H18.9076H18.8949H18.8822H18.8697H18.8572H18.8448H18.8325H18.8203H18.8082H18.7961H18.7841H18.7722H18.7604H18.7487H18.7371H18.7255H18.714H18.7026H18.6913H18.6801H18.669H18.6579H18.6469H18.6361H18.6253H18.6146H18.604H18.5934H18.583H18.5726H18.5624H18.5522H18.5421H18.5321H18.5222H18.5124H18.5026H18.493H18.4834H18.474H18.4646H18.4553H18.4462H18.4371H18.4281H18.4192H18.4103H18.4016H18.393H18.3845H18.376H18.3677H18.3594H18.3513H18.3432H18.3353H18.3274H18.3196H18.312H18.3044H18.2969H18.2895H18.2822H18.2751H18.268H18.261H18.2541H18.2473H18.2406H18.234H18.2275H18.2211H18.2148H18.2087H18.2026H18.1966H18.1907H18.1849H18.1792H18.1737H18.1682H18.1628H18.1575H18.1524H18.1473H18.1424H18.1375H18.1328H18.1281H18.1236H18.1192H18.1149H18.1107H18.1066H18.1026H18.0987H18.0949H18.0912H18.0876H18.0842H18.0808H18.0776H18.0745H18.0714H18.0685H18.0657H18.063H18.0605H18.058H18.0556H18.0534H18.0513H18.0493H18.0473H18.0456H18.0439H18.0423H18.0409H18.0395H18.0383H18.0372H18.0362H18.0353H18.0346H18.0339H18.0334H18.033H18.0327H18.0325L18.0325 13.4366L18.0325 12.5866H18.0327H18.033H18.0334H18.0339H18.0346H18.0353H18.0362H18.0372H18.0383H18.0395H18.0409H18.0423H18.0439H18.0456H18.0473H18.0493H18.0513H18.0534H18.0556H18.058H18.0605H18.063H18.0657H18.0685H18.0714H18.0745H18.0776H18.0808H18.0842H18.0876H18.0912H18.0949H18.0987H18.1026H18.1066H18.1107H18.1149H18.1192H18.1236H18.1281H18.1328H18.1375H18.1424H18.1473H18.1524H18.1575H18.1628H18.1682H18.1737H18.1792H18.1849H18.1907H18.1966H18.2026H18.2087H18.2148H18.2211H18.2275H18.234H18.2406H18.2473H18.2541H18.261H18.268H18.2751H18.2822H18.2895H18.2969H18.3044H18.312H18.3196H18.3274H18.3353H18.3432H18.3513H18.3594H18.3677H18.376H18.3845H18.393H18.4016H18.4103H18.4192H18.4281H18.4371H18.4462H18.4553H18.4646H18.474H18.4834H18.493H18.5026H18.5124H18.5222H18.5321H18.5421H18.5522H18.5624H18.5726H18.583H18.5934H18.604H18.6146H18.6253H18.6361H18.6469H18.6579H18.669H18.6801H18.6913H18.7026H18.714H18.7255H18.7371H18.7487H18.7604H18.7722H18.7841H18.7961H18.8082H18.8203H18.8325H18.8448H18.8572H18.8697H18.8822H18.8949H18.9076H18.9204H18.9332H18.9462H18.9592H18.9723H18.9855H18.9988H19.0121H19.0255H19.039H19.0526H19.0662H19.0799H19.0937H19.1076H19.1216H19.1356H19.1497H19.1638H19.1781H19.1924H19.2068H19.2213H19.2358H19.2504H19.2651H19.2799H19.2947H19.3096H19.3246H19.3396H19.3547H19.3699H19.3852H19.4005H19.4159H19.4314H19.4469H19.4625H19.4782H19.4939H19.5097H19.5256H19.5415H19.5575H19.5736H19.5897H19.6059H19.6222H19.6385H19.6549H19.6714H19.6879H19.7045H19.7212H19.7379H19.7547H19.7715H19.7884H19.8054H19.8224H19.8395H19.8567H19.8739H19.8912H19.9085H19.9259H19.9434H19.9609H19.9784H19.9961H20.0138H20.0315H20.0493H20.0672H20.0851H20.1031H20.1212H20.1393H20.1574H20.1756H20.1939H20.2122H20.2306H20.249H20.2675H20.2861H20.3047H20.3233H20.342H20.3608H20.3796H20.3984H20.4173H20.4363H20.4553H20.4744H20.4935H20.5127H20.5319H20.5512H20.5705H20.5899H20.6093H20.6288H20.6483H20.6678H20.6875H20.7071H20.7268H20.7466H20.7664H20.7862H20.8061H20.8261H20.8461H20.8661H20.8862H20.9063H20.9265H20.9467H20.9669H20.9872H21.0076H21.028H21.0484H21.0689H21.0894H21.11H21.1305H21.1512H21.1719H21.1926H21.2134H21.2342H21.255H21.2759H21.2968H21.3178H21.3388H21.3598H21.3809H21.402H21.4231H21.4443H21.4655H21.4868H21.5081H21.5294H21.5508H21.5722H21.5936H21.6151H21.6366H21.6582H21.6797H21.7014H21.723H21.7447H21.7664H21.7881H21.8099H21.8317H21.8535H21.8754H21.8973H21.9193H21.9412H21.9632H21.9852H22.0073H22.0294H22.0515H22.0736H22.0958H22.118H22.1402H22.1624H22.1847H22.207H22.2293H22.2517H22.2741H22.2965H22.3189H22.3414H22.3639H22.3864H22.4089H22.4315H22.454H22.4766H22.4993H22.5219H22.5446H22.5673H22.59H22.6127H22.6355H22.6583H22.6811H22.7039H22.7267H22.7496H22.7724H22.7953H22.8183H22.8412H22.8641H22.8871H22.9101H22.9331H22.9561H22.9792H23.0022H23.0253H23.0484H23.0715H23.0946H23.1178H23.1409H23.1641H23.1872H23.2104H23.2336H23.2569H23.2801H23.3033H23.3266H23.3499H23.3731H23.3964H23.4197H23.4431H23.4664H23.4897H23.5131H23.5364H23.5598H23.5832H23.6065H23.6299H23.6533H23.6767H23.7001H23.7236H23.747H23.7704H23.7939H23.8173H23.8408H23.8642H23.8877H23.9112H23.9346H23.9581H23.9816H24.0051H24.0286H24.0521H24.0756H24.0991H24.1226H24.1461H24.1696H24.1931H24.2166H24.2401H24.2636H24.2871H24.3106H24.3341H24.3576H24.3812H24.4047H24.4282H24.4517H24.4752H24.4987H24.5222H24.5457H24.5691H24.5926H24.6161H24.6396H24.6631H24.6865H24.71H24.7335H24.7569H24.7804H24.8038H24.8272H24.8507H24.8741H24.8975H24.9209H24.9443H24.9677H24.9911H25.0144H25.0378H25.0611H25.0845H25.1078H25.1311H25.1544H25.1777H25.201H25.2243H25.2476H25.2708H25.2941H25.3173H25.3405H25.3637H25.3869H25.4101H25.4332H25.4564H25.4795H25.5026H25.5257H25.5488H25.5719H25.5949H25.618H25.641H25.664H25.687H25.7099H25.7329H25.7558H25.7787H25.8016H25.8245H25.8473H25.8702H25.893H25.9158H25.9385H25.9613H25.984H26.0067H26.0294H26.0521H26.0747H26.0973H26.1199H26.1425H26.1651H26.1876H26.2101H26.2326H26.255H26.2774H26.2998H26.3222H26.3446H26.3669H26.3892H26.4114H26.4337H26.4559H26.4781H26.5002H26.5224H26.5445H26.5665H26.5886H26.6106H26.6326H26.6545H26.6764H26.6983H26.7202H26.742H26.7638H26.7856H26.8073H26.829H26.8507H26.8723H26.8913H26.9103H26.9293H26.9485H26.9676H26.9868H27.0061H27.0254H27.0448H27.0643H27.0837H27.1033H27.1228H27.1425H27.1621H27.1819H27.2017H27.2215H27.2413H27.2613H27.2812H27.3013H27.3213H27.3414H27.3616H27.3818H27.402H27.4223H27.4426H27.463H27.4834H27.5039H27.5244H27.545H27.5656H27.5862H27.6069H27.6276H27.6483H27.6691H27.69H27.7109H27.7318H27.7527H27.7737H27.7948H27.8158H27.837H27.8581H27.8793H27.9005H27.9218H27.9431H27.9644H27.9858H28.0072H28.0286H28.0501H28.0716H28.0931H28.1147H28.1363H28.1579H28.1796H28.2013H28.223H28.2447H28.2665H28.2883H28.3102H28.3321H28.354H28.3759H28.3979H28.4199H28.4419H28.4639H28.486H28.5081H28.5303H28.5524H28.5746H28.5968H28.619H28.6413H28.6636H28.6859H28.7082H28.7305H28.7529H28.7753H28.7977H28.8201H28.8426H28.8651H28.8876H28.9101H28.9326H28.9552H28.9778H29.0004H29.023H29.0456H29.0683H29.0909H29.1136H29.1363H29.159H29.1818H29.2045H29.2273H29.2501H29.2729H29.2957H29.3185H29.3413H29.3642H29.387H29.4099H29.4328H29.4557H29.4786H29.5015H29.5244H29.5474H29.5703H29.5933H29.6163H29.6392H29.6622H29.6852H29.7082H29.7312H29.7542H29.7773H29.8003H29.8233H29.8464H29.8694H29.8925H29.9155H29.9386H29.9616H29.9847H30.0078H30.0308H30.0539H30.077H30.1001H30.1231H30.1462H30.1693H30.1924H30.2154H30.2385H30.2616H30.2847H30.3078H30.3308H30.3539H30.377H30.4H30.4231H30.4462H30.4692H30.4923H30.5153H30.5383H30.5614H30.5844H30.6074H30.6304H30.6534H30.6764H30.6994H30.7224H30.7454H30.7684H30.7913H30.8143H30.8372H30.8601H30.8831H30.906H30.9289H30.9518H30.9746H30.9975H31.0203H31.0432H31.066H31.0888H31.1116H31.1344H31.1571H31.1799H31.2026H31.2253H31.248H31.2707H31.2934H31.316H31.3387H31.3613H31.3839H31.4065H31.429H31.4516H31.4741H31.4966H31.5191H31.5415H31.5639H31.5864H31.6088H31.6311H31.6535H31.6758H31.6981H31.7204H31.7426H31.7649H31.7871H31.8092H31.8314H31.8535H31.8756H31.8977H31.9198H31.9418H31.9638H31.9857H32.0077H32.0296H32.0515H32.0733H32.0951H32.1169H32.1387H32.1604H32.1821H32.2038H32.2254H32.247H32.2686H32.2901H32.3116H32.3331H32.3545H32.3759H32.3973H32.4186H32.4399H32.4611H32.4824H32.5035H32.5247H32.5458H32.5669H32.5879H32.6089H32.6299H32.6508H32.6717H32.6925H32.7133H32.7341H32.7548H32.7755H32.7961H32.8167H32.8372H32.8577H32.8782H32.8986H32.919H32.9393H32.9596H32.9799H33.0001H33.0202H33.0403H33.0604H33.0804H33.1004H33.1203H33.1402H33.16H33.1798H33.1995H33.2192H33.2388H33.2584H33.2779H33.2974H33.3168H33.3362H33.3555H33.3748H33.394H33.4132H33.4323H33.4514H33.4704H33.4893H33.5082H33.5271H33.5459H33.5646H33.5833H33.6019H33.6205H33.639H33.6574H33.6758H33.6941H33.7124H33.7306H33.7488H33.7669H33.7849H33.8029H33.8208H33.8387H33.8565H33.8742H33.8919H33.9095H33.927H33.9445H33.962H33.9793H33.9966H34.0138H34.031H34.0481H34.0651H34.0821H34.099H34.1158H34.1326H34.1493H34.1659H34.1825H34.199H34.2154H34.2318H34.2481H34.2643H34.2804H34.2965H34.3125H34.3285H34.3443H34.3601H34.3758H34.3915H34.4071H34.4226H34.438H34.4533H34.4686H34.4838H34.499H34.514H34.529H34.5439H34.5587H34.5735H34.5881H34.6027H34.6172H34.6317H34.646H34.6603H34.6745H34.6886H34.7027H34.7166H34.7305H34.7443H34.758H34.7716H34.7852H34.7987H34.812H34.8253H34.8386H34.8517H34.8647H34.8777H34.8906H34.9034H34.9161H34.9287H34.9412H34.9537H34.9661H34.9783H34.9905H35.0026H35.0146H35.0265H35.0384H35.0501H35.0617H35.0733H35.0848H35.0961H35.1074H35.1186H35.1297H35.1407H35.1516H35.1625H35.1732H35.1838H35.1944H35.2048H35.2152H35.2254H35.2356H35.2456H35.2556H35.2655H35.2752H35.2849H35.2945H35.304H35.3133H35.3226H35.3318H35.3409H35.3499H35.3587H35.3675H35.3762H35.3848H35.3932H35.4016H35.4099H35.418H35.4261H35.4341H35.4419H35.4497H35.4573H35.4648H35.4723H35.4796H35.4868H35.4939H35.5009H35.5078H35.5146H35.5213H35.5279H35.5344H35.5407H35.547H35.5531H35.5591H35.565H35.5709H35.5766H35.5821H35.5876H35.593H35.5982H35.6033H35.6084H35.6133H35.6181H35.6227H35.6273H35.6318H35.6361H35.6403H35.6444H35.6484H35.6523H35.656H35.6596H35.6632H35.6666H35.6698H35.673H35.676H35.6789H35.6817H35.6844H35.687H35.6894H35.6917H35.6939H35.696H35.6979H35.6998H35.7015H35.703H35.7045H35.7058H35.707H35.7081H35.7091H35.7099H35.7106H35.7112H35.7116H35.7119H35.7121L35.7122 13.4366ZM35.7122 13.4366V12.5866C36.1816 12.5866 36.5622 12.9672 36.5622 13.4366C36.5622 13.906 36.1816 14.2866 35.7122 14.2866V13.4366Z" fill="#1B453C"/>
</svg>
