<svg width="100" height="104" viewBox="21 20 45 58" fill="none" xmlns="http://www.w3.org/2000/svg">
<g id="water bottle">
<path id="Vector 93" d="M47.125 56.4688C47.125 54.3575 49.5951 51.2959 50.2284 50.5457C50.3059 50.4539 50.444 50.4539 50.5215 50.5457C51.1548 51.2959 53.6249 54.3575 53.6249 56.4688C53.6249 58.0938 52.1699 59.3125 50.3749 59.3125C48.58 59.3125 47.125 58.5 47.125 56.4688Z" stroke="#FBFBF4" stroke-width="1.7" stroke-linecap="round"/>
<path id="Rectangle 2913" d="M43.1 27.625C43.1 26.2995 44.1745 25.225 45.5 25.225H54.4375C55.763 25.225 56.8375 26.2995 56.8375 27.625C56.8375 28.9505 55.763 30.025 54.4375 30.025H45.5C44.1745 30.025 43.1 28.9505 43.1 27.625Z" stroke="#FBFBF4" stroke-width="1.7" stroke-linejoin="round"/>
<path id="Vector 91" d="M39 36.9688L44.7063 31.2625C45.2145 30.7543 45.9038 30.4688 46.6225 30.4688H53.614C54.3955 30.4688 55.1389 30.8061 55.6535 31.3942L60.5312 36.9688M39 36.9688V42.3837C39 43.8804 40.2133 45.0938 41.71 45.0938H57.8213C59.3179 45.0938 60.5312 43.8804 60.5312 42.3837V36.9688M39 36.9688H45.5M60.5312 36.9688H53.625" stroke="#FBFBF4" stroke-width="1.7" stroke-linecap="round"/>
<path id="Vector 92" d="M38.9989 48.75C38.9989 46.9453 40.2816 45.4614 40.5678 45.1527C40.6039 45.1138 40.6537 45.0938 40.7068 45.0938H58.4347C58.4765 45.0938 58.516 45.106 58.5494 45.1311C58.8981 45.3936 60.9364 47.003 60.9364 48.75C60.9364 50.0329 59.4172 51.3158 58.7776 51.7991C58.655 51.8917 58.6674 52.0903 58.7981 52.1709C59.4491 52.5724 60.9364 53.6633 60.9364 55.25C60.9364 56.5453 59.4985 57.5285 58.8315 57.9148C58.6924 57.9954 58.6839 58.2081 58.8163 58.2993C59.4865 58.7612 60.9814 59.9506 60.9364 61.3438C60.8975 62.5507 59.6552 64.1663 59.3696 64.5224C59.3326 64.5685 59.2773 64.5938 59.2181 64.5938H40.7029C40.6522 64.5938 40.6042 64.5753 40.5681 64.5396C40.287 64.2616 39.0379 62.9603 38.9989 61.75C38.9538 60.353 40.7034 58.9146 41.4799 58.3464C41.6189 58.2448 41.5865 58.0102 41.4266 57.9464C40.6369 57.6312 38.9989 56.7916 38.999 55.25C38.999 53.7644 40.7187 52.6239 41.4834 52.1902C41.6279 52.1083 41.6311 51.8852 41.4887 51.7996C40.7266 51.3416 38.9989 50.149 38.9989 48.75Z" stroke="#FBFBF4" stroke-width="1.7" stroke-linecap="round"/>
<path id="Rectangle 2914" d="M39.0375 69.4688C39.0375 67.0214 41.0214 65.0375 43.4688 65.0375H56.4688C58.9161 65.0375 60.9 67.0214 60.9 69.4688C60.9 71.9161 58.9161 73.9 56.4688 73.9H43.4687C41.0214 73.9 39.0375 71.9161 39.0375 69.4688Z" stroke="#FBFBF4" stroke-width="1.7"/>
</g>
</svg>
